<svg width="12" height="15" viewBox="0 0 12 15" fill="none" xmlns="http://www.w3.org/2000/svg">
<g clip-path="url(#clip0_1113_2386)">
<path d="M6.33382 14.7042L11.5222 9.77936C11.7573 9.55608 11.7573 9.1931 11.5222 8.96982C11.287 8.74653 10.9047 8.74653 10.6695 8.96982L6.51111 12.9179L6.51111 0.687753C6.51111 0.371723 6.24096 0.115234 5.9081 0.115234C5.57523 0.115234 5.30508 0.371723 5.30508 0.687753L5.30508 12.9179L1.14669 8.96981C0.911512 8.74653 0.529201 8.74653 0.294025 8.96981C0.175834 9.08203 0.117944 9.22859 0.117944 9.37516C0.117944 9.52172 0.17704 9.66829 0.294025 9.7805L5.48116 14.7053C5.71754 14.9286 6.09865 14.9286 6.33382 14.7042Z" fill="black"/>
</g>
<defs>
<clipPath id="clip0_1113_2386">
<rect width="15" height="12" fill="white" transform="translate(11.9998) rotate(90)"/>
</clipPath>
</defs>
</svg>
