<svg width="182" height="113" viewBox="0 0 182 113" fill="none" xmlns="http://www.w3.org/2000/svg">
<path d="M40.2141 102V90.8H47.2381V92.176H41.9101V95.712H46.3261V97.072H41.9101V102H40.2141ZM49.7976 92.56C49.4776 92.56 49.211 92.464 48.9976 92.272C48.795 92.0693 48.6936 91.8187 48.6936 91.52C48.6936 91.2213 48.795 90.976 48.9976 90.784C49.211 90.5813 49.4776 90.48 49.7976 90.48C50.1176 90.48 50.379 90.5813 50.5816 90.784C50.795 90.976 50.9016 91.2213 50.9016 91.52C50.9016 91.8187 50.795 92.0693 50.5816 92.272C50.379 92.464 50.1176 92.56 49.7976 92.56ZM48.9496 102V94.064H50.6456V102H48.9496ZM52.8845 102V94.064H54.3885L54.5165 95.456C54.7618 94.9653 55.1192 94.5813 55.5885 94.304C56.0685 94.016 56.6178 93.872 57.2365 93.872C58.1965 93.872 58.9485 94.1707 59.4925 94.768C60.0472 95.3653 60.3245 96.256 60.3245 97.44V102H58.6445V97.616C58.6445 96.08 58.0152 95.312 56.7565 95.312C56.1272 95.312 55.6045 95.536 55.1885 95.984C54.7832 96.432 54.5805 97.072 54.5805 97.904V102H52.8845ZM63.282 92.56C62.962 92.56 62.6953 92.464 62.482 92.272C62.2793 92.0693 62.178 91.8187 62.178 91.52C62.178 91.2213 62.2793 90.976 62.482 90.784C62.6953 90.5813 62.962 90.48 63.282 90.48C63.602 90.48 63.8633 90.5813 64.066 90.784C64.2793 90.976 64.386 91.2213 64.386 91.52C64.386 91.8187 64.2793 92.0693 64.066 92.272C63.8633 92.464 63.602 92.56 63.282 92.56ZM62.434 102V94.064H64.13V102H62.434ZM69.5369 102.192C68.5342 102.192 67.7075 101.947 67.0569 101.456C66.4062 100.965 66.0329 100.315 65.9369 99.504H67.6489C67.7342 99.8667 67.9369 100.181 68.2569 100.448C68.5769 100.704 68.9982 100.832 69.5209 100.832C70.0329 100.832 70.4062 100.725 70.6409 100.512C70.8755 100.299 70.9929 100.053 70.9929 99.776C70.9929 99.3707 70.8275 99.0987 70.4969 98.96C70.1769 98.8107 69.7289 98.6773 69.1529 98.56C68.7049 98.464 68.2569 98.336 67.8089 98.176C67.3715 98.016 67.0035 97.792 66.7049 97.504C66.4169 97.2053 66.2729 96.8053 66.2729 96.304C66.2729 95.6107 66.5395 95.0347 67.0729 94.576C67.6062 94.1067 68.3529 93.872 69.3129 93.872C70.1982 93.872 70.9129 94.0853 71.4569 94.512C72.0115 94.9387 72.3369 95.5413 72.4329 96.32H70.8009C70.7475 95.9787 70.5875 95.712 70.3209 95.52C70.0649 95.328 69.7182 95.232 69.2809 95.232C68.8542 95.232 68.5235 95.3227 68.2889 95.504C68.0542 95.6747 67.9369 95.8987 67.9369 96.176C67.9369 96.4533 68.0969 96.672 68.4169 96.832C68.7475 96.992 69.1795 97.136 69.7129 97.264C70.2462 97.3813 70.7369 97.52 71.1849 97.68C71.6435 97.8293 72.0115 98.0533 72.2889 98.352C72.5662 98.6507 72.7049 99.088 72.7049 99.664C72.7155 100.389 72.4329 100.992 71.8569 101.472C71.2915 101.952 70.5182 102.192 69.5369 102.192ZM74.5564 102V90.48H76.2524V95.344C76.519 94.8853 76.887 94.528 77.3564 94.272C77.8364 94.0053 78.3644 93.872 78.9404 93.872C79.8897 93.872 80.6364 94.1707 81.1804 94.768C81.7244 95.3653 81.9964 96.256 81.9964 97.44V102H80.3164V97.616C80.3164 96.08 79.703 95.312 78.4764 95.312C77.8364 95.312 77.303 95.536 76.8764 95.984C76.4604 96.432 76.2524 97.072 76.2524 97.904V102H74.5564ZM87.7059 102.192C86.9272 102.192 86.2339 102.021 85.6259 101.68C85.0285 101.328 84.5592 100.843 84.2179 100.224C83.8765 99.6053 83.7059 98.8853 83.7059 98.064C83.7059 97.232 83.8712 96.5013 84.2019 95.872C84.5432 95.2427 85.0125 94.752 85.6099 94.4C86.2179 94.048 86.9219 93.872 87.7219 93.872C88.5005 93.872 89.1779 94.048 89.7539 94.4C90.3299 94.7413 90.7779 95.2 91.0979 95.776C91.4179 96.352 91.5779 96.9867 91.5779 97.68C91.5779 97.7867 91.5725 97.904 91.5619 98.032C91.5619 98.1493 91.5565 98.2827 91.5459 98.432H85.3699C85.4232 99.2 85.6739 99.7867 86.1219 100.192C86.5805 100.587 87.1085 100.784 87.7059 100.784C88.1859 100.784 88.5859 100.677 88.9059 100.464C89.2365 100.24 89.4819 99.9413 89.6419 99.568H91.3379C91.1245 100.315 90.6979 100.939 90.0579 101.44C89.4285 101.941 88.6445 102.192 87.7059 102.192ZM87.7059 95.264C87.1405 95.264 86.6392 95.4347 86.2019 95.776C85.7645 96.1067 85.4979 96.608 85.4019 97.28H89.8819C89.8499 96.6613 89.6312 96.1707 89.2259 95.808C88.8205 95.4453 88.3139 95.264 87.7059 95.264ZM96.9536 102.192C96.1856 102.192 95.5083 102.011 94.9216 101.648C94.335 101.285 93.8763 100.789 93.5456 100.16C93.215 99.5307 93.0496 98.816 93.0496 98.016C93.0496 97.216 93.215 96.5067 93.5456 95.888C93.8763 95.2587 94.335 94.768 94.9216 94.416C95.519 94.0533 96.2016 93.872 96.9696 93.872C97.599 93.872 98.1483 93.9947 98.6176 94.24C99.0976 94.4853 99.471 94.832 99.7376 95.28V90.48H101.434V102H99.9136L99.7376 100.768C99.4816 101.141 99.1296 101.472 98.6816 101.76C98.2336 102.048 97.6576 102.192 96.9536 102.192ZM97.2576 100.72C97.983 100.72 98.575 100.469 99.0336 99.968C99.503 99.4667 99.7376 98.8213 99.7376 98.032C99.7376 97.232 99.503 96.5867 99.0336 96.096C98.575 95.5947 97.983 95.344 97.2576 95.344C96.5323 95.344 95.935 95.5947 95.4656 96.096C94.9963 96.5867 94.7616 97.232 94.7616 98.032C94.7616 98.5547 94.8683 99.0187 95.0816 99.424C95.295 99.8293 95.5883 100.149 95.9616 100.384C96.3456 100.608 96.7776 100.72 97.2576 100.72ZM109.187 102L106.851 94.064H108.547L110.083 100.048L111.811 94.064H113.699L115.427 100.048L116.963 94.064H118.659L116.323 102H114.579L112.755 95.76L110.931 102H109.187ZM123.472 102.192C122.714 102.192 122.032 102.021 121.424 101.68C120.826 101.328 120.352 100.843 120 100.224C119.648 99.5947 119.472 98.864 119.472 98.032C119.472 97.2 119.648 96.4747 120 95.856C120.362 95.2267 120.848 94.7413 121.456 94.4C122.064 94.048 122.741 93.872 123.488 93.872C124.245 93.872 124.922 94.048 125.52 94.4C126.128 94.7413 126.608 95.2267 126.96 95.856C127.322 96.4747 127.503 97.2 127.503 98.032C127.503 98.864 127.322 99.5947 126.96 100.224C126.608 100.843 126.128 101.328 125.52 101.68C124.912 102.021 124.229 102.192 123.472 102.192ZM123.472 100.736C123.877 100.736 124.25 100.635 124.592 100.432C124.944 100.229 125.226 99.9307 125.44 99.536C125.653 99.1307 125.76 98.6293 125.76 98.032C125.76 97.4347 125.653 96.9387 125.44 96.544C125.237 96.1387 124.96 95.8347 124.608 95.632C124.266 95.4293 123.893 95.328 123.488 95.328C123.082 95.328 122.704 95.4293 122.352 95.632C122.01 95.8347 121.733 96.1387 121.52 96.544C121.306 96.9387 121.2 97.4347 121.2 98.032C121.2 98.6293 121.306 99.1307 121.52 99.536C121.733 99.9307 122.01 100.229 122.352 100.432C122.693 100.635 123.066 100.736 123.472 100.736ZM129.338 102V94.064H130.858L131.002 95.568C131.279 95.0453 131.663 94.6347 132.154 94.336C132.655 94.0267 133.258 93.872 133.962 93.872V95.648H133.498C133.028 95.648 132.607 95.728 132.234 95.888C131.871 96.0373 131.578 96.2987 131.354 96.672C131.14 97.0347 131.034 97.5413 131.034 98.192V102H129.338ZM135.416 102V90.48H137.112V97.344L140.152 94.064H142.184L138.808 97.664L142.68 102H140.536L137.112 97.936V102H135.416Z" fill="black"/>
<path d="M88.6433 27.5793C90.5567 28.5826 92.4467 28.396 93.87 27.206C95.2933 26.016 95.83 24.1493 95.2467 22.3993C94.6633 20.626 93.1233 19.436 91.2333 19.296C88.83 19.1326 86.73 21.046 86.52 23.6126C86.45 24.5226 86.0533 24.9426 85.33 24.9193C84.63 24.896 84.2567 24.406 84.28 23.566C84.28 20.3693 86.9633 17.4293 90.23 17.0793C93.6833 16.706 96.9733 19.016 97.6267 22.3526C98.1867 25.2226 97.3 27.626 94.92 29.306C92.5867 30.9626 90.09 31.0093 87.5933 29.6093C87.22 29.3993 87.01 29.3993 86.7067 29.726C85.54 30.916 84.35 32.0826 83.1367 33.296C84.7233 34.626 86.4967 35.5126 88.48 35.886C95.5267 37.2393 101.99 32.8526 103.203 25.7826C104.347 19.1326 99.82 12.9726 93.4033 11.6893C86.8467 10.3826 80.0567 14.6526 78.82 21.8393C78.4233 24.196 78.75 26.4826 79.6833 28.6993C80.0333 29.5393 79.8467 30.1926 79.1933 30.4726C78.54 30.7526 77.9333 30.426 77.56 29.586C73.85 21.046 79.03 11.2693 88.2233 9.44931C96.2967 7.86264 104.137 13.2993 105.467 21.396C106.797 29.3293 101.383 36.936 93.4267 38.2426C89.18 38.9426 85.3067 37.916 81.9 35.256C81.5733 34.9993 81.41 34.976 81.13 35.2793C80.08 36.376 78.9833 37.4493 77.91 38.4993C77.63 38.7793 77.5833 38.9426 77.9333 39.1993C78.61 39.6893 79.2867 40.2026 79.9633 40.716C82.11 42.326 83.65 44.356 84.1867 47.0393C84.3267 47.7626 84 48.3693 83.3933 48.5326C82.7167 48.696 82.1333 48.2993 81.97 47.5293C81.5267 45.336 80.2433 43.7493 78.4933 42.466C77.84 41.9993 77.1867 41.4626 76.5333 40.996C76.3233 40.856 76.16 40.4593 75.88 40.646C75.5767 40.856 75.2733 41.1126 75.2967 41.6026C75.3433 43.446 75.2967 45.3126 75.32 47.156C75.32 47.6926 75.18 48.0893 74.8067 48.4626C71.8667 51.2626 69.02 54.1326 66.15 57.0026C65.94 57.2126 65.7533 57.3993 65.4733 57.4926C64.7033 57.7026 64.0267 57.1893 64.0267 56.3493C64.0033 54.716 64.0033 53.0593 64.0267 51.426C64.0267 50.9126 63.9333 50.7493 63.3967 50.7726C61.7867 50.8193 60.1533 50.7726 58.5433 50.796C57.9833 50.796 57.5633 50.6326 57.3533 50.1193C57.1433 49.606 57.2833 49.1626 57.6567 48.7893C60.62 45.8026 63.56 42.8626 66.5 39.8993C66.8033 39.596 67.1533 39.5026 67.5733 39.5026C69.3467 39.526 71.1433 39.5026 72.9167 39.526C73.43 39.526 73.78 39.386 74.13 39.036C79.31 33.8326 84.5133 28.6293 89.7167 23.426C89.81 23.3326 89.9033 23.216 90.02 23.1226C90.6267 22.5393 91.3033 22.4693 91.8167 22.9826C92.2833 23.4726 92.2367 24.126 91.6767 24.7093C90.8833 25.5026 90.09 26.296 89.2967 27.0893C89.1333 27.2526 88.9233 27.3693 88.6433 27.5793ZM71.3767 41.766C70.2567 41.766 69.3233 41.7893 68.3667 41.766C67.9933 41.7426 67.76 41.8826 67.5267 42.1393C66.22 43.446 64.9133 44.7526 63.6067 46.0593C62.8133 46.8526 62.0433 47.6226 61.1333 48.5326C62.23 48.5326 63.1867 48.5093 64.1433 48.5326C64.5167 48.5326 64.75 48.416 65.0067 48.1593C66.57 46.5726 68.1333 45.0093 69.72 43.446C70.21 42.9093 70.7467 42.396 71.3767 41.766ZM66.2667 53.5726C66.4067 53.4793 66.4533 53.456 66.5 53.4093C68.5767 51.3326 70.6767 49.2326 72.7533 47.156C72.8933 47.016 73.01 46.9226 73.01 46.6893C73.01 45.6393 73.01 44.6126 73.01 43.5393C72.8933 43.5626 72.8467 43.5626 72.8233 43.6093C70.7233 45.7093 68.6233 47.8093 66.5233 49.9093C66.3833 50.0493 66.2667 50.166 66.2667 50.376C66.2667 51.4026 66.2667 52.4526 66.2667 53.5726Z" fill="#28343A"/>
<path d="M90.0667 50.7492C92.3767 50.7492 94.71 50.7259 97.02 50.7725C97.6733 50.7959 97.7667 50.5859 97.7667 50.0025C97.72 48.3692 97.65 46.7359 98.3733 45.1725C99.26 43.3059 100.497 41.7659 102.177 40.5992C106.423 37.6825 109.27 33.7625 110.577 28.7459C113.493 17.5692 106.143 6.04253 94.8267 3.9192C84.2567 1.91253 73.99 8.49253 71.4233 18.8059C70.07 24.2192 70.8633 29.3759 73.6867 34.1825C73.8967 34.5325 74.1533 34.8592 74.0833 35.2792C73.99 35.7692 73.7333 36.1659 73.22 36.2592C72.66 36.3759 72.2167 36.1659 71.9133 35.6759C70.7233 33.7392 69.79 31.6859 69.23 29.4692C66.3833 18.1992 72.17 6.95253 82.9967 2.7292C95.5733 -2.19414 110.063 5.55253 112.933 18.7359C114.94 27.9525 111.487 36.8192 103.763 42.2792C102.13 43.4225 100.87 44.8459 100.24 46.7825C99.82 48.0659 100.053 49.3725 99.9833 50.6792C99.96 50.9592 100.17 51.0059 100.357 51.1225C102.317 52.2659 102.807 54.2025 101.593 56.1392C101.453 56.3492 101.453 56.4659 101.593 56.6759C102.807 58.6125 102.34 60.5492 100.31 61.7159C100.053 61.8559 100.007 61.9959 100.007 62.2525C100.03 65.8692 96.8567 68.9492 93.1233 68.7859C91.5833 68.7159 90.02 68.7859 88.48 68.7625C85.0267 68.7392 82.0867 65.8459 82.0167 62.3925C82.0167 62.0192 81.9233 61.8325 81.5733 61.6459C79.7067 60.6192 79.1933 58.4959 80.36 56.7459C80.5233 56.4892 80.5467 56.3492 80.36 56.0925C79.59 54.9725 79.4967 53.7825 80.15 52.5925C80.8033 51.3792 81.8533 50.7725 83.2533 50.7959C85.5167 50.7725 87.8033 50.7492 90.0667 50.7492ZM91.07 61.9959C88.97 61.9959 86.8467 61.9959 84.7467 61.9959C84.4433 61.9959 84.2333 61.9725 84.2567 62.4159C84.42 64.3992 85.8667 66.0325 87.85 66.3592C89.6233 66.6392 91.3967 66.4525 93.17 66.4759C95.5733 66.4992 97.2767 64.9825 97.6967 62.6259C97.79 62.1592 97.72 61.9725 97.1833 61.9725C95.1533 62.0192 93.1233 61.9959 91.07 61.9959ZM90.9767 55.2525C93.3333 55.2525 95.7133 55.2525 98.07 55.2525C98.2567 55.2525 98.4433 55.2525 98.63 55.2525C99.4233 55.2292 99.9833 54.7859 100.007 54.1559C100.03 53.4792 99.4467 53.0125 98.6067 53.0125C93.5433 53.0125 88.48 53.0125 83.44 53.0125C83.2767 53.0125 83.1133 52.9892 82.95 53.0359C82.4133 53.1992 82.04 53.5492 82.04 54.1325C82.04 54.7159 82.4133 55.0659 82.9733 55.2059C83.1833 55.2525 83.3933 55.2292 83.6033 55.2292C86.0533 55.2525 88.5033 55.2525 90.9767 55.2525ZM91.0233 59.7559C93.5667 59.7559 96.1333 59.7559 98.6767 59.7559C99.4233 59.7559 99.96 59.2892 99.9833 58.6592C100.007 58.0059 99.4467 57.5159 98.6767 57.4925C98.2567 57.4925 97.8367 57.4925 97.4167 57.4925C92.82 57.4925 88.2467 57.4925 83.65 57.4925C83.5333 57.4925 83.4167 57.4925 83.3 57.4925C82.5533 57.5159 82.0167 57.9825 82.0167 58.6125C82.0167 59.2425 82.5533 59.7325 83.3 59.7325C85.8667 59.7559 88.4567 59.7559 91.0233 59.7559Z" fill="#28343A"/>
<path d="M66.8034 31.8957C66.7334 32.3391 66.5467 32.7357 66.0567 32.9224C64.2834 33.5757 62.5334 34.2291 60.76 34.8591C60.1067 35.0924 59.4767 34.7657 59.2667 34.1824C59.0567 33.5757 59.3367 32.9924 60.0134 32.7357C61.7167 32.0824 63.4434 31.4524 65.17 30.8457C66.01 30.5424 66.78 31.0557 66.8034 31.8957Z" fill="#28343A"/>
<path d="M66.8033 13.3458C66.8267 14.2325 65.9867 14.7458 65.1 14.4191C63.7933 13.9525 62.4867 13.4625 61.18 12.9725C60.7833 12.8325 60.3867 12.6925 60.0133 12.5291C59.36 12.2491 59.08 11.6658 59.3133 11.0591C59.5233 10.4991 60.1067 10.1725 60.7367 10.3825C62.5333 11.0125 64.3067 11.6658 66.1033 12.3425C66.5467 12.5525 66.7333 12.9258 66.8033 13.3458Z" fill="#28343A"/>
<path d="M122.78 33.8096C122.757 34.5563 122.127 35.1163 121.403 34.8596C119.537 34.2296 117.67 33.5763 115.85 32.8529C115.313 32.6429 115.08 32.1063 115.313 31.4996C115.523 30.9163 116.037 30.5663 116.643 30.7763C118.51 31.4063 120.353 32.0829 122.197 32.7829C122.593 32.9696 122.78 33.3663 122.78 33.8096Z" fill="#28343A"/>
<path d="M116.387 14.5585C115.733 14.5351 115.337 14.1851 115.22 13.6018C115.127 12.9951 115.43 12.5518 115.99 12.3418C117.483 11.7818 119 11.2451 120.493 10.6851C120.727 10.5918 120.96 10.4985 121.217 10.4285C121.893 10.2418 122.5 10.5218 122.71 11.1051C122.92 11.7118 122.64 12.2951 121.963 12.5518C120.517 13.1118 119.047 13.6485 117.577 14.1618C117.203 14.3251 116.807 14.5351 116.387 14.5585Z" fill="#28343A"/>
<path d="M61.2033 23.7752C60.2933 23.7752 59.3833 23.7752 58.4733 23.7752C57.7267 23.7752 57.26 23.3318 57.26 22.6318C57.26 21.9785 57.7033 21.5352 58.4267 21.5352C60.27 21.5352 62.1133 21.5352 63.9567 21.5352C64.68 21.5352 65.1233 21.9785 65.1233 22.6318C65.1233 23.3085 64.68 23.7752 63.91 23.7752C63.0233 23.7752 62.1133 23.7752 61.2033 23.7752Z" fill="#28343A"/>
<path d="M120.727 23.7752C119.84 23.7752 118.953 23.7752 118.067 23.7752C117.32 23.7752 116.853 23.3318 116.853 22.6318C116.853 21.9785 117.297 21.5352 118.02 21.5352C119.863 21.5352 121.707 21.5352 123.55 21.5352C124.273 21.5352 124.717 21.9785 124.717 22.6318C124.717 23.3318 124.273 23.7518 123.503 23.7752C122.593 23.7752 121.66 23.7752 120.727 23.7752Z" fill="#28343A"/>
</svg>
