<svg width="250" height="250" viewBox="0 0 250 250" fill="none" xmlns="http://www.w3.org/2000/svg">
<path d="M18.5 113.999L18.5 8.49935C18.5 7.99935 18.8334 7.66602 19.3334 7.66602C19.8334 7.66602 20.1667 7.99935 20.1667 8.49935L20.1667 114.083C20.1667 114.583 19.8333 114.916 19.3333 114.916C18.8333 114.916 18.5 114.499 18.5 113.999Z" fill="black"/>
<path d="M18.5 114C18.5 113.75 18.5833 113.583 18.75 113.417L26.9167 105.25C27.25 104.917 27.75 104.917 28.0833 105.25C28.4167 105.583 28.4167 106.083 28.0833 106.417L19.9167 114.583C19.5833 114.917 19.0833 114.917 18.75 114.583C18.5833 114.5 18.5 114.25 18.5 114Z" fill="black"/>
<path d="M10.3333 105.915C10.3333 105.665 10.4167 105.499 10.5833 105.332C10.9167 104.999 11.4167 104.999 11.75 105.332L19.9167 113.499C20.25 113.832 20.25 114.332 19.9167 114.665C19.5833 114.999 19.0833 114.999 18.75 114.665L10.5833 106.499C10.4167 106.332 10.3333 106.082 10.3333 105.915Z" fill="black"/>
<path d="M63.0833 53.8327C63.0833 53.7494 63.0833 53.5827 63.1666 53.4994L67.6666 42.9161C67.8333 42.4994 68.3333 42.3327 68.75 42.4994C69.1666 42.6661 69.3333 43.1661 69.1666 43.5827L65 53.4161L74.8333 57.5827C75.25 57.7494 75.4166 58.2494 75.25 58.6661C75.0833 59.0827 74.5833 59.2494 74.1666 59.0827L63.5833 54.5827C63.3333 54.4161 63.0833 54.1661 63.0833 53.8327Z" fill="black"/>
<path d="M173.25 220.832C173.25 220.666 173.333 220.499 173.417 220.416C173.5 220.249 173.75 220.082 173.917 220.082L185.167 217.582C185.583 217.499 186.083 217.749 186.167 218.249C186.25 218.666 186 219.166 185.5 219.249L175.083 221.582L177.417 231.999C177.5 232.416 177.25 232.916 176.75 232.999C176.333 233.082 175.833 232.832 175.75 232.332L173.25 221.082C173.25 220.916 173.25 220.916 173.25 220.832Z" fill="black"/>
<path d="M18.5 241.499L18.5 135.999C18.5 135.499 18.8334 135.166 19.3334 135.166C19.8334 135.166 20.1667 135.499 20.1667 135.999L20.1667 241.583C20.1667 242.083 19.8333 242.416 19.3333 242.416C18.8333 242.416 18.5 241.999 18.5 241.499Z" fill="black"/>
<path d="M18.5 241.5C18.5 241.25 18.5833 241.083 18.75 240.917L26.9167 232.75C27.25 232.417 27.75 232.417 28.0833 232.75C28.4167 233.083 28.4167 233.583 28.0833 233.917L19.9167 242.083C19.5833 242.417 19.0833 242.417 18.75 242.083C18.5833 242 18.5 241.75 18.5 241.5Z" fill="black"/>
<path d="M10.3333 233.415C10.3333 233.165 10.4167 232.999 10.5833 232.832C10.9167 232.499 11.4167 232.499 11.75 232.832L19.9167 240.999C20.25 241.332 20.25 241.832 19.9167 242.165C19.5833 242.499 19.0833 242.499 18.75 242.165L10.5833 233.999C10.4167 233.832 10.3333 233.582 10.3333 233.415Z" fill="black"/>
<path d="M18.5 129C18.5 128.5 18.8334 128.167 19.3334 128.167C19.8334 128.167 20.1667 128.5 20.1667 129C20.1667 175.667 58.0834 213.583 104.75 213.583C151.417 213.583 189.333 175.667 189.333 129C189.333 82.3333 151.417 44.4167 104.75 44.4167C90.6667 44.4167 76.75 47.9167 64.4167 54.6667C64 54.9167 63.5 54.75 63.25 54.3333C63 53.9167 63.1667 53.4167 63.5834 53.1667C76.0834 46.3333 90.3334 42.75 104.667 42.75C152.25 42.75 190.917 81.4167 190.917 129C190.917 176.583 152.25 215.25 104.667 215.25C57.0834 215.25 18.5 176.583 18.5 129Z" fill="black"/>
<path d="M173.5 220.999C173.5 220.749 173.583 220.582 173.75 220.416C174.083 220.082 174.583 220.082 174.917 220.416C181.917 227.416 191.167 231.249 201.083 231.249C211 231.249 220.25 227.416 227.25 220.416C234.25 213.416 238.083 204.166 238.083 194.249C238.083 184.332 234.25 175.082 227.25 168.082C216 156.832 198.917 153.999 184.667 161.082C184.25 161.249 183.75 161.082 183.583 160.666C183.417 160.249 183.583 159.749 184 159.582C198.833 152.166 216.75 155.082 228.5 166.832C243.583 181.916 243.583 206.416 228.5 221.416C221.167 228.749 211.5 232.749 201.167 232.749C190.833 232.749 181.167 228.749 173.833 221.416C173.583 221.416 173.5 221.249 173.5 220.999Z" fill="black"/>
<path d="M70.4052 125V115.72L68.5972 116.136V114.888L71.0772 113.8H72.1652V125H70.4052ZM74.2167 121.064V119.64H80.7287V121.064H74.2167ZM87.8572 125V122.76H82.2412V121.416L87.5852 113.8H89.5372V121.288H91.1052V122.76H89.5372V125H87.8572ZM84.0812 121.288H87.9532V115.672L84.0812 121.288ZM99.0412 125.016L96.0172 113.8H97.8412L100.065 123.08L102.625 113.8H104.497L106.977 123.08L109.201 113.8H111.025L107.953 125H105.969L103.521 116.216L100.993 125L99.0412 125.016ZM115.401 125.192C114.623 125.192 113.929 125.021 113.321 124.68C112.724 124.328 112.255 123.843 111.913 123.224C111.572 122.605 111.401 121.885 111.401 121.064C111.401 120.232 111.567 119.501 111.897 118.872C112.239 118.243 112.708 117.752 113.305 117.4C113.913 117.048 114.617 116.872 115.417 116.872C116.196 116.872 116.873 117.048 117.449 117.4C118.025 117.741 118.473 118.2 118.793 118.776C119.113 119.352 119.273 119.987 119.273 120.68C119.273 120.787 119.268 120.904 119.257 121.032C119.257 121.149 119.252 121.283 119.241 121.432H113.065C113.119 122.2 113.369 122.787 113.817 123.192C114.276 123.587 114.804 123.784 115.401 123.784C115.881 123.784 116.281 123.677 116.601 123.464C116.932 123.24 117.177 122.941 117.337 122.568H119.033C118.82 123.315 118.393 123.939 117.753 124.44C117.124 124.941 116.34 125.192 115.401 125.192ZM115.401 118.264C114.836 118.264 114.335 118.435 113.897 118.776C113.46 119.107 113.193 119.608 113.097 120.28H117.577C117.545 119.661 117.327 119.171 116.921 118.808C116.516 118.445 116.009 118.264 115.401 118.264ZM124.745 125.192C123.966 125.192 123.273 125.021 122.665 124.68C122.068 124.328 121.598 123.843 121.257 123.224C120.916 122.605 120.745 121.885 120.745 121.064C120.745 120.232 120.91 119.501 121.241 118.872C121.582 118.243 122.052 117.752 122.649 117.4C123.257 117.048 123.961 116.872 124.761 116.872C125.54 116.872 126.217 117.048 126.793 117.4C127.369 117.741 127.817 118.2 128.137 118.776C128.457 119.352 128.617 119.987 128.617 120.68C128.617 120.787 128.612 120.904 128.601 121.032C128.601 121.149 128.596 121.283 128.585 121.432H122.409C122.462 122.2 122.713 122.787 123.161 123.192C123.62 123.587 124.148 123.784 124.745 123.784C125.225 123.784 125.625 123.677 125.945 123.464C126.276 123.24 126.521 122.941 126.681 122.568H128.377C128.164 123.315 127.737 123.939 127.097 124.44C126.468 124.941 125.684 125.192 124.745 125.192ZM124.745 118.264C124.18 118.264 123.678 118.435 123.241 118.776C122.804 119.107 122.537 119.608 122.441 120.28H126.921C126.889 119.661 126.67 119.171 126.265 118.808C125.86 118.445 125.353 118.264 124.745 118.264ZM130.377 125V113.48H132.073V120.344L135.113 117.064H137.145L133.769 120.664L137.641 125H135.497L132.073 120.936V125H130.377ZM84.9961 149.192C84.1747 149.192 83.4547 149.048 82.8361 148.76C82.2174 148.472 81.7321 148.061 81.3801 147.528C81.0387 146.995 80.8627 146.36 80.8521 145.624H82.6441C82.6547 146.221 82.8627 146.728 83.2681 147.144C83.6734 147.56 84.2441 147.768 84.9801 147.768C85.6307 147.768 86.1374 147.613 86.5001 147.304C86.8734 146.984 87.0601 146.579 87.0601 146.088C87.0601 145.693 86.9694 145.373 86.7881 145.128C86.6174 144.883 86.3774 144.68 86.0681 144.52C85.7694 144.36 85.4227 144.216 85.0281 144.088C84.6334 143.96 84.2174 143.821 83.7801 143.672C82.9161 143.384 82.2654 143.011 81.8281 142.552C81.4014 142.093 81.1881 141.491 81.1881 140.744C81.1774 140.115 81.3214 139.565 81.6201 139.096C81.9294 138.627 82.3561 138.264 82.9001 138.008C83.4547 137.741 84.1001 137.608 84.8361 137.608C85.5614 137.608 86.1961 137.741 86.7401 138.008C87.2947 138.275 87.7267 138.648 88.0361 139.128C88.3454 139.597 88.5054 140.147 88.5161 140.776H86.7241C86.7241 140.488 86.6494 140.216 86.5001 139.96C86.3507 139.693 86.1321 139.475 85.8441 139.304C85.5561 139.133 85.2041 139.048 84.7881 139.048C84.2547 139.037 83.8121 139.171 83.4601 139.448C83.1187 139.725 82.9481 140.109 82.9481 140.6C82.9481 141.037 83.0761 141.373 83.3321 141.608C83.5881 141.843 83.9401 142.04 84.3881 142.2C84.8361 142.349 85.3481 142.525 85.9241 142.728C86.4787 142.909 86.9747 143.128 87.4121 143.384C87.8494 143.64 88.1961 143.976 88.4521 144.392C88.7187 144.808 88.8521 145.336 88.8521 145.976C88.8521 146.541 88.7081 147.069 88.4201 147.56C88.1321 148.04 87.7001 148.435 87.1241 148.744C86.5481 149.043 85.8387 149.192 84.9961 149.192ZM90.6423 152.52V141.064H92.1623L92.3383 142.296C92.5943 141.923 92.9463 141.592 93.3943 141.304C93.8423 141.016 94.4183 140.872 95.1223 140.872C95.8903 140.872 96.5676 141.053 97.1543 141.416C97.741 141.779 98.1996 142.275 98.5303 142.904C98.8716 143.533 99.0423 144.248 99.0423 145.048C99.0423 145.848 98.8716 146.563 98.5303 147.192C98.1996 147.811 97.741 148.301 97.1543 148.664C96.5676 149.016 95.885 149.192 95.1063 149.192C94.4876 149.192 93.9383 149.069 93.4583 148.824C92.989 148.579 92.6156 148.232 92.3383 147.784V152.52H90.6423ZM94.8183 147.72C95.5436 147.72 96.141 147.475 96.6103 146.984C97.0796 146.483 97.3143 145.832 97.3143 145.032C97.3143 144.509 97.2076 144.045 96.9943 143.64C96.781 143.235 96.4876 142.92 96.1143 142.696C95.741 142.461 95.309 142.344 94.8183 142.344C94.093 142.344 93.4956 142.595 93.0263 143.096C92.5676 143.597 92.3383 144.243 92.3383 145.032C92.3383 145.832 92.5676 146.483 93.0263 146.984C93.4956 147.475 94.093 147.72 94.8183 147.72ZM100.877 149V141.064H102.397L102.541 142.568C102.818 142.045 103.202 141.635 103.693 141.336C104.194 141.027 104.797 140.872 105.501 140.872V142.648H105.037C104.567 142.648 104.146 142.728 103.773 142.888C103.41 143.037 103.117 143.299 102.893 143.672C102.679 144.035 102.573 144.541 102.573 145.192V149H100.877ZM107.915 139.56C107.595 139.56 107.328 139.464 107.115 139.272C106.912 139.069 106.811 138.819 106.811 138.52C106.811 138.221 106.912 137.976 107.115 137.784C107.328 137.581 107.595 137.48 107.915 137.48C108.235 137.48 108.496 137.581 108.699 137.784C108.912 137.976 109.019 138.221 109.019 138.52C109.019 138.819 108.912 139.069 108.699 139.272C108.496 139.464 108.235 139.56 107.915 139.56ZM107.067 149V141.064H108.763V149H107.067ZM111.002 149V141.064H112.506L112.634 142.456C112.879 141.965 113.236 141.581 113.706 141.304C114.186 141.016 114.735 140.872 115.354 140.872C116.314 140.872 117.066 141.171 117.61 141.768C118.164 142.365 118.442 143.256 118.442 144.44V149H116.762V144.616C116.762 143.08 116.132 142.312 114.874 142.312C114.244 142.312 113.722 142.536 113.306 142.984C112.9 143.432 112.698 144.072 112.698 144.904V149H111.002ZM123.767 149C122.989 149 122.37 148.813 121.911 148.44C121.453 148.056 121.223 147.379 121.223 146.408V142.488H119.863V141.064H121.223L121.431 139.048H122.919V141.064H125.159V142.488H122.919V146.408C122.919 146.845 123.01 147.149 123.191 147.32C123.383 147.48 123.709 147.56 124.167 147.56H125.079V149H123.767Z" fill="black"/>
<path d="M193.05 183V176H195.32C196.14 176 196.813 176.143 197.34 176.43C197.873 176.717 198.267 177.123 198.52 177.65C198.78 178.17 198.91 178.79 198.91 179.51C198.91 180.223 198.78 180.843 198.52 181.37C198.267 181.89 197.873 182.293 197.34 182.58C196.813 182.86 196.14 183 195.32 183H193.05ZM194.11 182.1H195.28C195.913 182.1 196.413 181.997 196.78 181.79C197.153 181.583 197.42 181.287 197.58 180.9C197.747 180.513 197.83 180.05 197.83 179.51C197.83 178.97 197.747 178.503 197.58 178.11C197.42 177.717 197.153 177.417 196.78 177.21C196.413 176.997 195.913 176.89 195.28 176.89H194.11V182.1ZM201.721 183.12C201.301 183.12 200.954 183.05 200.681 182.91C200.408 182.77 200.204 182.587 200.071 182.36C199.938 182.127 199.871 181.873 199.871 181.6C199.871 181.12 200.058 180.74 200.431 180.46C200.804 180.18 201.338 180.04 202.031 180.04H203.331V179.95C203.331 179.563 203.224 179.273 203.011 179.08C202.804 178.887 202.534 178.79 202.201 178.79C201.908 178.79 201.651 178.863 201.431 179.01C201.218 179.15 201.088 179.36 201.041 179.64H199.981C200.014 179.28 200.134 178.973 200.341 178.72C200.554 178.46 200.821 178.263 201.141 178.13C201.468 177.99 201.824 177.92 202.211 177.92C202.904 177.92 203.441 178.103 203.821 178.47C204.201 178.83 204.391 179.323 204.391 179.95V183H203.471L203.381 182.15C203.241 182.423 203.038 182.653 202.771 182.84C202.504 183.027 202.154 183.12 201.721 183.12ZM201.931 182.26C202.218 182.26 202.458 182.193 202.651 182.06C202.851 181.92 203.004 181.737 203.111 181.51C203.224 181.283 203.294 181.033 203.321 180.76H202.141C201.721 180.76 201.421 180.833 201.241 180.98C201.068 181.127 200.981 181.31 200.981 181.53C200.981 181.757 201.064 181.937 201.231 182.07C201.404 182.197 201.638 182.26 201.931 182.26ZM206.227 177.1C206.027 177.1 205.86 177.04 205.727 176.92C205.6 176.793 205.537 176.637 205.537 176.45C205.537 176.263 205.6 176.11 205.727 175.99C205.86 175.863 206.027 175.8 206.227 175.8C206.427 175.8 206.59 175.863 206.717 175.99C206.85 176.11 206.917 176.263 206.917 176.45C206.917 176.637 206.85 176.793 206.717 176.92C206.59 177.04 206.427 177.1 206.227 177.1ZM205.697 183V178.04H206.757V183H205.697ZM208.156 183V175.8H209.216V183H208.156ZM211.139 185.2L212.329 182.59H212.039L210.079 178.04H211.229L212.749 181.71L214.339 178.04H215.459L212.259 185.2H211.139ZM193.904 194.12C193.417 194.12 192.984 194.013 192.604 193.8C192.231 193.58 191.937 193.277 191.724 192.89C191.511 192.503 191.404 192.053 191.404 191.54C191.404 191.02 191.507 190.563 191.714 190.17C191.927 189.777 192.221 189.47 192.594 189.25C192.974 189.03 193.414 188.92 193.914 188.92C194.401 188.92 194.824 189.03 195.184 189.25C195.544 189.463 195.824 189.75 196.024 190.11C196.224 190.47 196.324 190.867 196.324 191.3C196.324 191.367 196.321 191.44 196.314 191.52C196.314 191.593 196.311 191.677 196.304 191.77H192.444C192.477 192.25 192.634 192.617 192.914 192.87C193.201 193.117 193.531 193.24 193.904 193.24C194.204 193.24 194.454 193.173 194.654 193.04C194.861 192.9 195.014 192.713 195.114 192.48H196.174C196.041 192.947 195.774 193.337 195.374 193.65C194.981 193.963 194.491 194.12 193.904 194.12ZM193.904 189.79C193.551 189.79 193.237 189.897 192.964 190.11C192.691 190.317 192.524 190.63 192.464 191.05H195.264C195.244 190.663 195.107 190.357 194.854 190.13C194.601 189.903 194.284 189.79 193.904 189.79ZM198.619 194L196.759 189.04H197.869L199.249 192.99L200.629 189.04H201.729L199.879 194H198.619ZM204.666 194.12C204.179 194.12 203.746 194.013 203.366 193.8C202.992 193.58 202.699 193.277 202.486 192.89C202.272 192.503 202.166 192.053 202.166 191.54C202.166 191.02 202.269 190.563 202.476 190.17C202.689 189.777 202.982 189.47 203.356 189.25C203.736 189.03 204.176 188.92 204.676 188.92C205.162 188.92 205.586 189.03 205.946 189.25C206.306 189.463 206.586 189.75 206.786 190.11C206.986 190.47 207.086 190.867 207.086 191.3C207.086 191.367 207.082 191.44 207.076 191.52C207.076 191.593 207.072 191.677 207.066 191.77H203.206C203.239 192.25 203.396 192.617 203.676 192.87C203.962 193.117 204.292 193.24 204.666 193.24C204.966 193.24 205.216 193.173 205.416 193.04C205.622 192.9 205.776 192.713 205.876 192.48H206.936C206.802 192.947 206.536 193.337 206.136 193.65C205.742 193.963 205.252 194.12 204.666 194.12ZM204.666 189.79C204.312 189.79 203.999 189.897 203.726 190.11C203.452 190.317 203.286 190.63 203.226 191.05H206.026C206.006 190.663 205.869 190.357 205.616 190.13C205.362 189.903 205.046 189.79 204.666 189.79ZM208.186 194V189.04H209.136L209.226 189.98C209.399 189.653 209.639 189.397 209.946 189.21C210.259 189.017 210.636 188.92 211.076 188.92V190.03H210.786C210.492 190.03 210.229 190.08 209.996 190.18C209.769 190.273 209.586 190.437 209.446 190.67C209.312 190.897 209.246 191.213 209.246 191.62V194H208.186ZM212.564 196.2L213.754 193.59H213.464L211.504 189.04H212.654L214.174 192.71L215.764 189.04H216.884L213.684 196.2H212.564ZM184.048 205V204.24C184.501 203.88 184.934 203.517 185.348 203.15C185.761 202.783 186.128 202.423 186.448 202.07C186.774 201.71 187.031 201.36 187.218 201.02C187.404 200.673 187.498 200.34 187.498 200.02C187.498 199.807 187.461 199.607 187.388 199.42C187.314 199.227 187.194 199.073 187.028 198.96C186.861 198.84 186.638 198.78 186.358 198.78C185.938 198.78 185.621 198.913 185.408 199.18C185.201 199.447 185.101 199.767 185.108 200.14H184.078C184.084 199.647 184.188 199.233 184.388 198.9C184.594 198.567 184.868 198.313 185.208 198.14C185.554 197.967 185.944 197.88 186.378 197.88C187.038 197.88 187.564 198.067 187.958 198.44C188.358 198.807 188.558 199.32 188.558 199.98C188.558 200.373 188.461 200.763 188.268 201.15C188.081 201.537 187.834 201.91 187.528 202.27C187.228 202.623 186.904 202.957 186.558 203.27C186.211 203.583 185.881 203.867 185.568 204.12H188.768V205H184.048ZM192.973 205V203.6H189.463V202.76L192.803 198H194.023V202.68H195.003V203.6H194.023V205H192.973ZM190.613 202.68H193.033V199.17L190.613 202.68ZM198.493 205V197.8H199.553V200.84C199.72 200.553 199.95 200.33 200.243 200.17C200.543 200.003 200.873 199.92 201.233 199.92C201.827 199.92 202.293 200.107 202.633 200.48C202.973 200.853 203.143 201.41 203.143 202.15V205H202.093V202.26C202.093 201.3 201.71 200.82 200.943 200.82C200.543 200.82 200.21 200.96 199.943 201.24C199.683 201.52 199.553 201.92 199.553 202.44V205H198.493ZM206.712 205.12C206.238 205.12 205.812 205.013 205.432 204.8C205.058 204.58 204.762 204.277 204.542 203.89C204.322 203.497 204.212 203.04 204.212 202.52C204.212 202 204.322 201.547 204.542 201.16C204.768 200.767 205.072 200.463 205.452 200.25C205.832 200.03 206.255 199.92 206.722 199.92C207.195 199.92 207.618 200.03 207.992 200.25C208.372 200.463 208.672 200.767 208.892 201.16C209.118 201.547 209.232 202 209.232 202.52C209.232 203.04 209.118 203.497 208.892 203.89C208.672 204.277 208.372 204.58 207.992 204.8C207.612 205.013 207.185 205.12 206.712 205.12ZM206.712 204.21C206.965 204.21 207.198 204.147 207.412 204.02C207.632 203.893 207.808 203.707 207.942 203.46C208.075 203.207 208.142 202.893 208.142 202.52C208.142 202.147 208.075 201.837 207.942 201.59C207.815 201.337 207.642 201.147 207.422 201.02C207.208 200.893 206.975 200.83 206.722 200.83C206.468 200.83 206.232 200.893 206.012 201.02C205.798 201.147 205.625 201.337 205.492 201.59C205.358 201.837 205.292 202.147 205.292 202.52C205.292 202.893 205.358 203.207 205.492 203.46C205.625 203.707 205.798 203.893 206.012 204.02C206.225 204.147 206.458 204.21 206.712 204.21ZM212.208 205.12C211.608 205.12 211.135 204.933 210.788 204.56C210.448 204.187 210.278 203.63 210.278 202.89V200.04H211.338V202.78C211.338 203.74 211.731 204.22 212.518 204.22C212.911 204.22 213.235 204.08 213.488 203.8C213.741 203.52 213.868 203.12 213.868 202.6V200.04H214.928V205H213.988L213.908 204.13C213.755 204.437 213.528 204.68 213.228 204.86C212.935 205.033 212.595 205.12 212.208 205.12ZM216.276 205V200.04H217.226L217.316 200.98C217.49 200.653 217.73 200.397 218.036 200.21C218.35 200.017 218.726 199.92 219.166 199.92V201.03H218.876C218.583 201.03 218.32 201.08 218.086 201.18C217.86 201.273 217.676 201.437 217.536 201.67C217.403 201.897 217.336 202.213 217.336 202.62V205H216.276ZM222.055 205.12C221.429 205.12 220.912 204.967 220.505 204.66C220.099 204.353 219.865 203.947 219.805 203.44H220.875C220.929 203.667 221.055 203.863 221.255 204.03C221.455 204.19 221.719 204.27 222.045 204.27C222.365 204.27 222.599 204.203 222.745 204.07C222.892 203.937 222.965 203.783 222.965 203.61C222.965 203.357 222.862 203.187 222.655 203.1C222.455 203.007 222.175 202.923 221.815 202.85C221.535 202.79 221.255 202.71 220.975 202.61C220.702 202.51 220.472 202.37 220.285 202.19C220.105 202.003 220.015 201.753 220.015 201.44C220.015 201.007 220.182 200.647 220.515 200.36C220.849 200.067 221.315 199.92 221.915 199.92C222.469 199.92 222.915 200.053 223.255 200.32C223.602 200.587 223.805 200.963 223.865 201.45H222.845C222.812 201.237 222.712 201.07 222.545 200.95C222.385 200.83 222.169 200.77 221.895 200.77C221.629 200.77 221.422 200.827 221.275 200.94C221.129 201.047 221.055 201.187 221.055 201.36C221.055 201.533 221.155 201.67 221.355 201.77C221.562 201.87 221.832 201.96 222.165 202.04C222.499 202.113 222.805 202.2 223.085 202.3C223.372 202.393 223.602 202.533 223.775 202.72C223.949 202.907 224.035 203.18 224.035 203.54C224.042 203.993 223.865 204.37 223.505 204.67C223.152 204.97 222.669 205.12 222.055 205.12Z" fill="black"/>
</svg>
