<svg width="250" height="250" viewBox="0 0 250 250" fill="none" xmlns="http://www.w3.org/2000/svg">
<path d="M114 231.501H8.49999C7.99999 231.501 7.66666 231.167 7.66666 230.667C7.66666 230.167 7.99999 229.834 8.49999 229.834H114.083C114.583 229.834 114.917 230.167 114.917 230.667C114.917 231.167 114.5 231.501 114 231.501Z" fill="black"/>
<path d="M114 231.499C113.75 231.499 113.583 231.416 113.417 231.249L105.25 223.083C104.917 222.749 104.917 222.249 105.25 221.916C105.583 221.583 106.083 221.583 106.417 221.916L114.583 230.083C114.917 230.416 114.917 230.916 114.583 231.249C114.5 231.416 114.25 231.499 114 231.499Z" fill="black"/>
<path d="M105.917 239.667C105.667 239.667 105.5 239.584 105.333 239.417C105 239.084 105 238.584 105.333 238.251L113.5 230.084C113.833 229.751 114.333 229.751 114.667 230.084C115 230.417 115 230.917 114.667 231.251L106.5 239.417C106.333 239.584 106.083 239.667 105.917 239.667Z" fill="black"/>
<path d="M53.8333 186.916C53.75 186.916 53.5833 186.916 53.5 186.833L42.9167 182.333C42.5 182.166 42.3333 181.666 42.5 181.249C42.6667 180.833 43.1667 180.666 43.5833 180.833L53.4167 184.999L57.5833 175.166C57.75 174.749 58.25 174.583 58.6667 174.749C59.0833 174.916 59.25 175.416 59.0833 175.833L54.5833 186.416C54.4167 186.666 54.1667 186.916 53.8333 186.916Z" fill="black"/>
<path d="M220.833 76.7508C220.667 76.7508 220.5 76.6675 220.417 76.5842C220.25 76.5008 220.083 76.2508 220.083 76.0842L217.583 64.8342C217.5 64.4175 217.75 63.9175 218.25 63.8342C218.667 63.7508 219.167 64.0008 219.25 64.5008L221.583 74.9175L232 72.5842C232.417 72.5008 232.917 72.7508 233 73.2508C233.083 73.6675 232.833 74.1675 232.333 74.2508L221.083 76.7508C220.917 76.7508 220.917 76.7508 220.833 76.7508Z" fill="black"/>
<path d="M241.5 231.501H136C135.5 231.501 135.167 231.167 135.167 230.667C135.167 230.167 135.5 229.834 136 229.834H241.583C242.083 229.834 242.417 230.167 242.417 230.667C242.417 231.167 242 231.501 241.5 231.501Z" fill="black"/>
<path d="M241.5 231.499C241.25 231.499 241.083 231.416 240.917 231.249L232.75 223.083C232.417 222.749 232.417 222.249 232.75 221.916C233.083 221.583 233.583 221.583 233.917 221.916L242.083 230.083C242.417 230.416 242.417 230.916 242.083 231.249C242 231.416 241.75 231.499 241.5 231.499Z" fill="black"/>
<path d="M233.417 239.667C233.167 239.667 233 239.584 232.833 239.417C232.5 239.084 232.5 238.584 232.833 238.251L241 230.084C241.333 229.751 241.833 229.751 242.167 230.084C242.5 230.417 242.5 230.917 242.167 231.251L234 239.417C233.833 239.584 233.583 239.667 233.417 239.667Z" fill="black"/>
<path d="M129 231.501C128.5 231.501 128.167 231.167 128.167 230.667C128.167 230.167 128.5 229.834 129 229.834C175.667 229.834 213.583 191.917 213.583 145.251C213.583 98.584 175.667 60.6673 129 60.6673C82.3333 60.6673 44.4167 98.584 44.4167 145.251C44.4167 159.334 47.9167 173.251 54.6667 185.584C54.9167 186.001 54.75 186.501 54.3333 186.751C53.9167 187.001 53.4167 186.834 53.1667 186.417C46.3333 173.917 42.75 159.667 42.75 145.334C42.75 97.7506 81.4167 59.084 129 59.084C176.583 59.084 215.25 97.7506 215.25 145.334C215.25 192.917 176.583 231.501 129 231.501Z" fill="black"/>
<path d="M221 76.5C220.75 76.5 220.583 76.4167 220.417 76.25C220.083 75.9167 220.083 75.4167 220.417 75.0833C227.417 68.0833 231.25 58.8333 231.25 48.9167C231.25 39 227.417 29.75 220.417 22.75C213.417 15.75 204.167 11.9167 194.25 11.9167C184.333 11.9167 175.083 15.75 168.083 22.75C156.833 34 154 51.0833 161.083 65.3333C161.25 65.75 161.083 66.25 160.667 66.4167C160.25 66.5833 159.75 66.4167 159.583 66C152.167 51.1667 155.083 33.25 166.833 21.5C181.917 6.41667 206.417 6.41667 221.417 21.5C228.75 28.8333 232.75 38.5 232.75 48.8333C232.75 59.1667 228.75 68.8333 221.417 76.1667C221.417 76.4167 221.25 76.5 221 76.5Z" fill="black"/>
<path d="M96.4052 138V128.72L94.5972 129.136V127.888L97.0772 126.8H98.1652V138H96.4052ZM100.217 134.064V132.64H106.729V134.064H100.217ZM113.857 138V135.76H108.241V134.416L113.585 126.8H115.537V134.288H117.105V135.76H115.537V138H113.857ZM110.081 134.288H113.953V128.672L110.081 134.288ZM125.041 138.016L122.017 126.8H123.841L126.065 136.08L128.625 126.8H130.497L132.977 136.08L135.201 126.8H137.025L133.953 138H131.969L129.521 129.216L126.993 138L125.041 138.016ZM141.401 138.192C140.623 138.192 139.929 138.021 139.321 137.68C138.724 137.328 138.255 136.843 137.913 136.224C137.572 135.605 137.401 134.885 137.401 134.064C137.401 133.232 137.567 132.501 137.897 131.872C138.239 131.243 138.708 130.752 139.305 130.4C139.913 130.048 140.617 129.872 141.417 129.872C142.196 129.872 142.873 130.048 143.449 130.4C144.025 130.741 144.473 131.2 144.793 131.776C145.113 132.352 145.273 132.987 145.273 133.68C145.273 133.787 145.268 133.904 145.257 134.032C145.257 134.149 145.252 134.283 145.241 134.432H139.065C139.119 135.2 139.369 135.787 139.817 136.192C140.276 136.587 140.804 136.784 141.401 136.784C141.881 136.784 142.281 136.677 142.601 136.464C142.932 136.24 143.177 135.941 143.337 135.568H145.033C144.82 136.315 144.393 136.939 143.753 137.44C143.124 137.941 142.34 138.192 141.401 138.192ZM141.401 131.264C140.836 131.264 140.335 131.435 139.897 131.776C139.46 132.107 139.193 132.608 139.097 133.28H143.577C143.545 132.661 143.327 132.171 142.921 131.808C142.516 131.445 142.009 131.264 141.401 131.264ZM150.745 138.192C149.966 138.192 149.273 138.021 148.665 137.68C148.068 137.328 147.598 136.843 147.257 136.224C146.916 135.605 146.745 134.885 146.745 134.064C146.745 133.232 146.91 132.501 147.241 131.872C147.582 131.243 148.052 130.752 148.649 130.4C149.257 130.048 149.961 129.872 150.761 129.872C151.54 129.872 152.217 130.048 152.793 130.4C153.369 130.741 153.817 131.2 154.137 131.776C154.457 132.352 154.617 132.987 154.617 133.68C154.617 133.787 154.612 133.904 154.601 134.032C154.601 134.149 154.596 134.283 154.585 134.432H148.409C148.462 135.2 148.713 135.787 149.161 136.192C149.62 136.587 150.148 136.784 150.745 136.784C151.225 136.784 151.625 136.677 151.945 136.464C152.276 136.24 152.521 135.941 152.681 135.568H154.377C154.164 136.315 153.737 136.939 153.097 137.44C152.468 137.941 151.684 138.192 150.745 138.192ZM150.745 131.264C150.18 131.264 149.678 131.435 149.241 131.776C148.804 132.107 148.537 132.608 148.441 133.28H152.921C152.889 132.661 152.67 132.171 152.265 131.808C151.86 131.445 151.353 131.264 150.745 131.264ZM156.377 138V126.48H158.073V133.344L161.113 130.064H163.145L159.769 133.664L163.641 138H161.497L158.073 133.936V138H156.377ZM110.996 162.192C110.175 162.192 109.455 162.048 108.836 161.76C108.217 161.472 107.732 161.061 107.38 160.528C107.039 159.995 106.863 159.36 106.852 158.624H108.644C108.655 159.221 108.863 159.728 109.268 160.144C109.673 160.56 110.244 160.768 110.98 160.768C111.631 160.768 112.137 160.613 112.5 160.304C112.873 159.984 113.06 159.579 113.06 159.088C113.06 158.693 112.969 158.373 112.788 158.128C112.617 157.883 112.377 157.68 112.068 157.52C111.769 157.36 111.423 157.216 111.028 157.088C110.633 156.96 110.217 156.821 109.78 156.672C108.916 156.384 108.265 156.011 107.828 155.552C107.401 155.093 107.188 154.491 107.188 153.744C107.177 153.115 107.321 152.565 107.62 152.096C107.929 151.627 108.356 151.264 108.9 151.008C109.455 150.741 110.1 150.608 110.836 150.608C111.561 150.608 112.196 150.741 112.74 151.008C113.295 151.275 113.727 151.648 114.036 152.128C114.345 152.597 114.505 153.147 114.516 153.776H112.724C112.724 153.488 112.649 153.216 112.5 152.96C112.351 152.693 112.132 152.475 111.844 152.304C111.556 152.133 111.204 152.048 110.788 152.048C110.255 152.037 109.812 152.171 109.46 152.448C109.119 152.725 108.948 153.109 108.948 153.6C108.948 154.037 109.076 154.373 109.332 154.608C109.588 154.843 109.94 155.04 110.388 155.2C110.836 155.349 111.348 155.525 111.924 155.728C112.479 155.909 112.975 156.128 113.412 156.384C113.849 156.64 114.196 156.976 114.452 157.392C114.719 157.808 114.852 158.336 114.852 158.976C114.852 159.541 114.708 160.069 114.42 160.56C114.132 161.04 113.7 161.435 113.124 161.744C112.548 162.043 111.839 162.192 110.996 162.192ZM116.642 165.52V154.064H118.162L118.338 155.296C118.594 154.923 118.946 154.592 119.394 154.304C119.842 154.016 120.418 153.872 121.122 153.872C121.89 153.872 122.568 154.053 123.154 154.416C123.741 154.779 124.2 155.275 124.53 155.904C124.872 156.533 125.042 157.248 125.042 158.048C125.042 158.848 124.872 159.563 124.53 160.192C124.2 160.811 123.741 161.301 123.154 161.664C122.568 162.016 121.885 162.192 121.106 162.192C120.488 162.192 119.938 162.069 119.458 161.824C118.989 161.579 118.616 161.232 118.338 160.784V165.52H116.642ZM120.818 160.72C121.544 160.72 122.141 160.475 122.61 159.984C123.08 159.483 123.314 158.832 123.314 158.032C123.314 157.509 123.208 157.045 122.994 156.64C122.781 156.235 122.488 155.92 122.114 155.696C121.741 155.461 121.309 155.344 120.818 155.344C120.093 155.344 119.496 155.595 119.026 156.096C118.568 156.597 118.338 157.243 118.338 158.032C118.338 158.832 118.568 159.483 119.026 159.984C119.496 160.475 120.093 160.72 120.818 160.72ZM126.877 162V154.064H128.397L128.541 155.568C128.818 155.045 129.202 154.635 129.693 154.336C130.194 154.027 130.797 153.872 131.501 153.872V155.648H131.037C130.567 155.648 130.146 155.728 129.773 155.888C129.41 156.037 129.117 156.299 128.893 156.672C128.679 157.035 128.573 157.541 128.573 158.192V162H126.877ZM133.915 152.56C133.595 152.56 133.328 152.464 133.115 152.272C132.912 152.069 132.811 151.819 132.811 151.52C132.811 151.221 132.912 150.976 133.115 150.784C133.328 150.581 133.595 150.48 133.915 150.48C134.235 150.48 134.496 150.581 134.699 150.784C134.912 150.976 135.019 151.221 135.019 151.52C135.019 151.819 134.912 152.069 134.699 152.272C134.496 152.464 134.235 152.56 133.915 152.56ZM133.067 162V154.064H134.763V162H133.067ZM137.002 162V154.064H138.506L138.634 155.456C138.879 154.965 139.236 154.581 139.706 154.304C140.186 154.016 140.735 153.872 141.354 153.872C142.314 153.872 143.066 154.171 143.61 154.768C144.164 155.365 144.442 156.256 144.442 157.44V162H142.762V157.616C142.762 156.08 142.132 155.312 140.874 155.312C140.244 155.312 139.722 155.536 139.306 155.984C138.9 156.432 138.698 157.072 138.698 157.904V162H137.002ZM149.767 162C148.989 162 148.37 161.813 147.911 161.44C147.453 161.056 147.223 160.379 147.223 159.408V155.488H145.863V154.064H147.223L147.431 152.048H148.919V154.064H151.159V155.488H148.919V159.408C148.919 159.845 149.01 160.149 149.191 160.32C149.383 160.48 149.709 160.56 150.167 160.56H151.079V162H149.767Z" fill="black"/>
<path d="M183.05 36V29H185.32C186.14 29 186.813 29.1433 187.34 29.43C187.873 29.7167 188.267 30.1233 188.52 30.65C188.78 31.17 188.91 31.79 188.91 32.51C188.91 33.2233 188.78 33.8433 188.52 34.37C188.267 34.89 187.873 35.2933 187.34 35.58C186.813 35.86 186.14 36 185.32 36H183.05ZM184.11 35.1H185.28C185.913 35.1 186.413 34.9967 186.78 34.79C187.153 34.5833 187.42 34.2867 187.58 33.9C187.747 33.5133 187.83 33.05 187.83 32.51C187.83 31.97 187.747 31.5033 187.58 31.11C187.42 30.7167 187.153 30.4167 186.78 30.21C186.413 29.9967 185.913 29.89 185.28 29.89H184.11V35.1ZM191.721 36.12C191.301 36.12 190.954 36.05 190.681 35.91C190.408 35.77 190.204 35.5867 190.071 35.36C189.938 35.1267 189.871 34.8733 189.871 34.6C189.871 34.12 190.058 33.74 190.431 33.46C190.804 33.18 191.338 33.04 192.031 33.04H193.331V32.95C193.331 32.5633 193.224 32.2733 193.011 32.08C192.804 31.8867 192.534 31.79 192.201 31.79C191.908 31.79 191.651 31.8633 191.431 32.01C191.218 32.15 191.088 32.36 191.041 32.64H189.981C190.014 32.28 190.134 31.9733 190.341 31.72C190.554 31.46 190.821 31.2633 191.141 31.13C191.468 30.99 191.824 30.92 192.211 30.92C192.904 30.92 193.441 31.1033 193.821 31.47C194.201 31.83 194.391 32.3233 194.391 32.95V36H193.471L193.381 35.15C193.241 35.4233 193.038 35.6533 192.771 35.84C192.504 36.0267 192.154 36.12 191.721 36.12ZM191.931 35.26C192.218 35.26 192.458 35.1933 192.651 35.06C192.851 34.92 193.004 34.7367 193.111 34.51C193.224 34.2833 193.294 34.0333 193.321 33.76H192.141C191.721 33.76 191.421 33.8333 191.241 33.98C191.068 34.1267 190.981 34.31 190.981 34.53C190.981 34.7567 191.064 34.9367 191.231 35.07C191.404 35.1967 191.638 35.26 191.931 35.26ZM196.227 30.1C196.027 30.1 195.86 30.04 195.727 29.92C195.6 29.7933 195.537 29.6367 195.537 29.45C195.537 29.2633 195.6 29.11 195.727 28.99C195.86 28.8633 196.027 28.8 196.227 28.8C196.427 28.8 196.59 28.8633 196.717 28.99C196.85 29.11 196.917 29.2633 196.917 29.45C196.917 29.6367 196.85 29.7933 196.717 29.92C196.59 30.04 196.427 30.1 196.227 30.1ZM195.697 36V31.04H196.757V36H195.697ZM198.156 36V28.8H199.216V36H198.156ZM201.139 38.2L202.329 35.59H202.039L200.079 31.04H201.229L202.749 34.71L204.339 31.04H205.459L202.259 38.2H201.139ZM183.904 47.12C183.417 47.12 182.984 47.0133 182.604 46.8C182.231 46.58 181.937 46.2767 181.724 45.89C181.511 45.5033 181.404 45.0533 181.404 44.54C181.404 44.02 181.507 43.5633 181.714 43.17C181.927 42.7767 182.221 42.47 182.594 42.25C182.974 42.03 183.414 41.92 183.914 41.92C184.401 41.92 184.824 42.03 185.184 42.25C185.544 42.4633 185.824 42.75 186.024 43.11C186.224 43.47 186.324 43.8667 186.324 44.3C186.324 44.3667 186.321 44.44 186.314 44.52C186.314 44.5933 186.311 44.6767 186.304 44.77H182.444C182.477 45.25 182.634 45.6167 182.914 45.87C183.201 46.1167 183.531 46.24 183.904 46.24C184.204 46.24 184.454 46.1733 184.654 46.04C184.861 45.9 185.014 45.7133 185.114 45.48H186.174C186.041 45.9467 185.774 46.3367 185.374 46.65C184.981 46.9633 184.491 47.12 183.904 47.12ZM183.904 42.79C183.551 42.79 183.237 42.8967 182.964 43.11C182.691 43.3167 182.524 43.63 182.464 44.05H185.264C185.244 43.6633 185.107 43.3567 184.854 43.13C184.601 42.9033 184.284 42.79 183.904 42.79ZM188.619 47L186.759 42.04H187.869L189.249 45.99L190.629 42.04H191.729L189.879 47H188.619ZM194.666 47.12C194.179 47.12 193.746 47.0133 193.366 46.8C192.992 46.58 192.699 46.2767 192.486 45.89C192.272 45.5033 192.166 45.0533 192.166 44.54C192.166 44.02 192.269 43.5633 192.476 43.17C192.689 42.7767 192.982 42.47 193.356 42.25C193.736 42.03 194.176 41.92 194.676 41.92C195.162 41.92 195.586 42.03 195.946 42.25C196.306 42.4633 196.586 42.75 196.786 43.11C196.986 43.47 197.086 43.8667 197.086 44.3C197.086 44.3667 197.082 44.44 197.076 44.52C197.076 44.5933 197.072 44.6767 197.066 44.77H193.206C193.239 45.25 193.396 45.6167 193.676 45.87C193.962 46.1167 194.292 46.24 194.666 46.24C194.966 46.24 195.216 46.1733 195.416 46.04C195.622 45.9 195.776 45.7133 195.876 45.48H196.936C196.802 45.9467 196.536 46.3367 196.136 46.65C195.742 46.9633 195.252 47.12 194.666 47.12ZM194.666 42.79C194.312 42.79 193.999 42.8967 193.726 43.11C193.452 43.3167 193.286 43.63 193.226 44.05H196.026C196.006 43.6633 195.869 43.3567 195.616 43.13C195.362 42.9033 195.046 42.79 194.666 42.79ZM198.186 47V42.04H199.136L199.226 42.98C199.399 42.6533 199.639 42.3967 199.946 42.21C200.259 42.0167 200.636 41.92 201.076 41.92V43.03H200.786C200.492 43.03 200.229 43.08 199.996 43.18C199.769 43.2733 199.586 43.4367 199.446 43.67C199.312 43.8967 199.246 44.2133 199.246 44.62V47H198.186ZM202.564 49.2L203.754 46.59H203.464L201.504 42.04H202.654L204.174 45.71L205.764 42.04H206.884L203.684 49.2H202.564ZM174.048 58V57.24C174.501 56.88 174.934 56.5167 175.348 56.15C175.761 55.7833 176.128 55.4233 176.448 55.07C176.774 54.71 177.031 54.36 177.218 54.02C177.404 53.6733 177.498 53.34 177.498 53.02C177.498 52.8067 177.461 52.6067 177.388 52.42C177.314 52.2267 177.194 52.0733 177.028 51.96C176.861 51.84 176.638 51.78 176.358 51.78C175.938 51.78 175.621 51.9133 175.408 52.18C175.201 52.4467 175.101 52.7667 175.108 53.14H174.078C174.084 52.6467 174.188 52.2333 174.388 51.9C174.594 51.5667 174.868 51.3133 175.208 51.14C175.554 50.9667 175.944 50.88 176.378 50.88C177.038 50.88 177.564 51.0667 177.958 51.44C178.358 51.8067 178.558 52.32 178.558 52.98C178.558 53.3733 178.461 53.7633 178.268 54.15C178.081 54.5367 177.834 54.91 177.528 55.27C177.228 55.6233 176.904 55.9567 176.558 56.27C176.211 56.5833 175.881 56.8667 175.568 57.12H178.768V58H174.048ZM182.973 58V56.6H179.463V55.76L182.803 51H184.023V55.68H185.003V56.6H184.023V58H182.973ZM180.613 55.68H183.033V52.17L180.613 55.68ZM188.493 58V50.8H189.553V53.84C189.72 53.5533 189.95 53.33 190.243 53.17C190.543 53.0033 190.873 52.92 191.233 52.92C191.827 52.92 192.293 53.1067 192.633 53.48C192.973 53.8533 193.143 54.41 193.143 55.15V58H192.093V55.26C192.093 54.3 191.71 53.82 190.943 53.82C190.543 53.82 190.21 53.96 189.943 54.24C189.683 54.52 189.553 54.92 189.553 55.44V58H188.493ZM196.712 58.12C196.238 58.12 195.812 58.0133 195.432 57.8C195.058 57.58 194.762 57.2767 194.542 56.89C194.322 56.4967 194.212 56.04 194.212 55.52C194.212 55 194.322 54.5467 194.542 54.16C194.768 53.7667 195.072 53.4633 195.452 53.25C195.832 53.03 196.255 52.92 196.722 52.92C197.195 52.92 197.618 53.03 197.992 53.25C198.372 53.4633 198.672 53.7667 198.892 54.16C199.118 54.5467 199.232 55 199.232 55.52C199.232 56.04 199.118 56.4967 198.892 56.89C198.672 57.2767 198.372 57.58 197.992 57.8C197.612 58.0133 197.185 58.12 196.712 58.12ZM196.712 57.21C196.965 57.21 197.198 57.1467 197.412 57.02C197.632 56.8933 197.808 56.7067 197.942 56.46C198.075 56.2067 198.142 55.8933 198.142 55.52C198.142 55.1467 198.075 54.8367 197.942 54.59C197.815 54.3367 197.642 54.1467 197.422 54.02C197.208 53.8933 196.975 53.83 196.722 53.83C196.468 53.83 196.232 53.8933 196.012 54.02C195.798 54.1467 195.625 54.3367 195.492 54.59C195.358 54.8367 195.292 55.1467 195.292 55.52C195.292 55.8933 195.358 56.2067 195.492 56.46C195.625 56.7067 195.798 56.8933 196.012 57.02C196.225 57.1467 196.458 57.21 196.712 57.21ZM202.208 58.12C201.608 58.12 201.135 57.9333 200.788 57.56C200.448 57.1867 200.278 56.63 200.278 55.89V53.04H201.338V55.78C201.338 56.74 201.731 57.22 202.518 57.22C202.911 57.22 203.235 57.08 203.488 56.8C203.741 56.52 203.868 56.12 203.868 55.6V53.04H204.928V58H203.988L203.908 57.13C203.755 57.4367 203.528 57.68 203.228 57.86C202.935 58.0333 202.595 58.12 202.208 58.12ZM206.276 58V53.04H207.226L207.316 53.98C207.49 53.6533 207.73 53.3967 208.036 53.21C208.35 53.0167 208.726 52.92 209.166 52.92V54.03H208.876C208.583 54.03 208.32 54.08 208.086 54.18C207.86 54.2733 207.676 54.4367 207.536 54.67C207.403 54.8967 207.336 55.2133 207.336 55.62V58H206.276ZM212.055 58.12C211.429 58.12 210.912 57.9667 210.505 57.66C210.099 57.3533 209.865 56.9467 209.805 56.44H210.875C210.929 56.6667 211.055 56.8633 211.255 57.03C211.455 57.19 211.719 57.27 212.045 57.27C212.365 57.27 212.599 57.2033 212.745 57.07C212.892 56.9367 212.965 56.7833 212.965 56.61C212.965 56.3567 212.862 56.1867 212.655 56.1C212.455 56.0067 212.175 55.9233 211.815 55.85C211.535 55.79 211.255 55.71 210.975 55.61C210.702 55.51 210.472 55.37 210.285 55.19C210.105 55.0033 210.015 54.7533 210.015 54.44C210.015 54.0067 210.182 53.6467 210.515 53.36C210.849 53.0667 211.315 52.92 211.915 52.92C212.469 52.92 212.915 53.0533 213.255 53.32C213.602 53.5867 213.805 53.9633 213.865 54.45H212.845C212.812 54.2367 212.712 54.07 212.545 53.95C212.385 53.83 212.169 53.77 211.895 53.77C211.629 53.77 211.422 53.8267 211.275 53.94C211.129 54.0467 211.055 54.1867 211.055 54.36C211.055 54.5333 211.155 54.67 211.355 54.77C211.562 54.87 211.832 54.96 212.165 55.04C212.499 55.1133 212.805 55.2 213.085 55.3C213.372 55.3933 213.602 55.5333 213.775 55.72C213.949 55.9067 214.035 56.18 214.035 56.54C214.042 56.9933 213.865 57.37 213.505 57.67C213.152 57.97 212.669 58.12 212.055 58.12Z" fill="black"/>
</svg>
