<svg width="182" height="106" viewBox="0 0 182 106" fill="none" xmlns="http://www.w3.org/2000/svg">
<path d="M85.4 59.0567C77.9333 59.0567 70.4433 59.0567 62.9766 59.0567C60.5733 59.0567 59.29 57.75 59.29 55.3233C59.29 41.79 59.29 28.2567 59.29 14.7233C59.29 14.1633 59.29 13.58 59.5233 13.0433C60.06 11.69 61.2266 10.9433 62.79 10.9433C71.2366 10.9433 79.7066 10.9433 88.1533 10.9433C94.7566 10.9433 101.36 10.9433 107.987 10.9433C108.22 10.9433 108.453 10.92 108.663 10.9667C109.247 11.0833 109.597 11.4333 109.597 12.04C109.597 12.6467 109.247 12.9967 108.64 13.1133C108.43 13.16 108.197 13.1367 107.963 13.1367C93.0066 13.1367 78.0733 13.1367 63.1166 13.1367C61.7633 13.1367 61.4833 13.4167 61.4833 14.77C61.4833 16.2167 61.5066 17.64 61.46 19.0867C61.4366 19.6 61.5766 19.7167 62.09 19.7167C72.1933 19.6933 82.2733 19.6933 92.3766 19.6933C97.2766 19.6933 102.177 19.6933 107.077 19.6933C107.427 19.6933 107.753 19.6933 108.057 19.9033C108.407 20.1833 108.57 20.5333 108.477 20.9767C108.36 21.4667 108.057 21.77 107.543 21.84C107.263 21.8867 107.007 21.8633 106.727 21.8633C91.8866 21.8633 77.0466 21.8633 62.23 21.84C61.6 21.84 61.46 22.0033 61.46 22.61C61.4833 33.4833 61.4833 44.3567 61.4833 55.23C61.4833 56.5833 61.7866 56.8633 63.14 56.8633C78.0033 56.8633 92.8433 56.8633 107.707 56.8633C107.893 56.8633 108.08 56.8633 108.243 56.8633C109.107 56.8633 109.597 57.2833 109.597 57.96C109.597 58.6367 109.107 59.0567 108.243 59.0567C100.613 59.0567 93.0066 59.0567 85.4 59.0567Z" fill="#273339"/>
<path d="M122.71 35.0473C122.71 44.0073 122.71 52.9673 122.71 61.904C122.71 65.5206 120.423 67.8073 116.83 67.8073C108.99 67.8073 101.15 67.8073 93.31 67.8073C90.44 67.8073 88.27 65.964 87.7566 63.1406C87.71 62.9306 87.71 62.744 87.71 62.534C87.6866 61.7873 88.0833 61.2973 88.7366 61.2506C89.3666 61.204 89.8333 61.6706 89.9033 62.4173C90.0666 64.4006 91.3966 65.614 93.3566 65.614C101.267 65.614 109.177 65.614 117.087 65.614C119.117 65.614 120.54 64.214 120.54 62.184C120.54 44.054 120.54 25.9006 120.54 7.77063C120.54 5.7873 119.14 4.36396 117.133 4.36396C109.177 4.36396 101.22 4.36396 93.2866 4.36396C91.42 4.36396 90.0666 5.6473 89.9266 7.5373C89.8566 8.3073 89.46 8.75063 88.8066 8.75063C88.13 8.7273 87.7333 8.2373 87.7333 7.44396C87.78 4.57396 90.23 2.2173 93.2166 2.19396C98.0933 2.17063 102.97 2.19396 107.847 2.19396C110.903 2.19396 113.96 2.19396 117.017 2.19396C120.377 2.19396 122.733 4.5273 122.733 7.91063C122.733 16.964 122.71 25.994 122.71 35.0473Z" fill="#273339"/>
<path d="M83.3466 43.7507C80.22 43.7507 77.1166 43.7507 73.99 43.7507C73.8266 43.7507 73.6633 43.7507 73.5233 43.7507C72.87 43.704 72.4266 43.2607 72.4266 42.6773C72.4266 42.0707 72.87 41.5807 73.57 41.5807C75.3666 41.5573 77.1633 41.5807 78.96 41.5807C83.5566 41.5807 88.1533 41.5807 92.75 41.5807C92.9366 41.5807 93.1233 41.5807 93.2866 41.5807C93.87 41.6507 94.29 42.1173 94.29 42.6773C94.29 43.2373 93.8466 43.6807 93.2633 43.7507C93.1 43.774 92.9366 43.7507 92.7966 43.7507C89.6233 43.7507 86.4966 43.7507 83.3466 43.7507Z" fill="#273339"/>
<path d="M82.32 37.1934C85.1433 37.1934 87.9667 37.1934 90.79 37.1934C91.4433 37.1934 91.91 37.4267 92.0733 38.08C92.26 38.8034 91.6767 39.3867 90.8133 39.3867C88.5267 39.3867 86.2633 39.3867 83.9767 39.3867C80.5933 39.3867 77.1867 39.3867 73.8033 39.3867C73.36 39.3867 72.94 39.34 72.6367 38.9667C72.38 38.6167 72.31 38.22 72.52 37.8234C72.7533 37.3567 73.15 37.2167 73.64 37.2167C76.0667 37.2167 78.5167 37.2167 80.9433 37.2167C81.41 37.1934 81.8767 37.1934 82.32 37.1934Z" fill="#273339"/>
<path d="M106.237 52.5007C103.413 52.5007 100.59 52.5007 97.7666 52.5007C97.02 52.5007 96.5533 52.1507 96.46 51.5674C96.3666 50.8907 96.88 50.3307 97.6733 50.3307C99.4933 50.3073 101.313 50.3307 103.133 50.3307C107.007 50.3307 110.88 50.3307 114.73 50.3307C115.197 50.3307 115.64 50.3774 115.943 50.8207C116.177 51.1707 116.223 51.544 116.013 51.9174C115.78 52.384 115.383 52.5473 114.893 52.5473C112.677 52.5473 110.483 52.5473 108.267 52.5473C107.613 52.5007 106.913 52.5007 106.237 52.5007Z" fill="#273339"/>
<path d="M107.333 30.6374C104.883 30.6374 102.41 30.6374 99.96 30.6374C99.2133 30.6374 98.7466 30.2874 98.6766 29.7041C98.5833 29.0274 99.0966 28.4674 99.89 28.4674C101.827 28.4441 103.763 28.4674 105.7 28.4674C108.733 28.4674 111.743 28.4674 114.777 28.4674C115.687 28.4674 116.2 28.8874 116.177 29.5874C116.153 30.2641 115.663 30.6607 114.8 30.6607C112.303 30.6374 109.807 30.6374 107.333 30.6374Z" fill="#273339"/>
<path d="M105.21 6.55664C106.937 6.55664 108.663 6.55664 110.39 6.55664C111.253 6.55664 111.743 6.95331 111.767 7.62997C111.79 8.30664 111.277 8.74997 110.437 8.74997C106.96 8.74997 103.483 8.74997 100.007 8.74997C99.1433 8.74997 98.6533 8.32997 98.6533 7.65331C98.6533 6.97664 99.1667 6.57997 100.03 6.57997C101.757 6.55664 103.483 6.55664 105.21 6.55664Z" fill="#273339"/>
<path d="M78.96 50.3066C80.6866 50.3066 82.4133 50.3066 84.14 50.3066C85.0033 50.3066 85.5166 50.7033 85.5166 51.38C85.54 52.08 85.0033 52.5 84.1166 52.5C80.64 52.5 77.1633 52.5 73.6866 52.5C73.1733 52.5 72.7533 52.3366 72.52 51.8466C72.31 51.4266 72.4033 51.0533 72.6833 50.7033C72.94 50.3766 73.3133 50.3066 73.7333 50.3066C75.46 50.33 77.21 50.3066 78.96 50.3066Z" fill="#273339"/>
<path d="M109.667 45.9433C111.347 45.9433 113.027 45.9433 114.707 45.9433C115.64 45.9433 116.13 46.3166 116.153 47.0166C116.153 47.7166 115.663 48.1133 114.753 48.1133C111.323 48.1133 107.893 48.1133 104.44 48.1133C103.53 48.1133 103.017 47.6933 103.04 46.9933C103.063 46.3166 103.553 45.9199 104.417 45.9199C106.167 45.9433 107.917 45.9433 109.667 45.9433Z" fill="#273339"/>
<path d="M78.96 30.6367C77.2333 30.6367 75.5066 30.6367 73.78 30.6367C72.9166 30.6367 72.4266 30.24 72.4266 29.54C72.4266 28.8634 72.9166 28.4434 73.78 28.4434C77.2333 28.4434 80.6866 28.4434 84.14 28.4434C85.05 28.4434 85.5633 28.8634 85.54 29.5634C85.5166 30.24 85.0266 30.6134 84.14 30.6134C82.4133 30.6367 80.6866 30.6367 78.96 30.6367Z" fill="#273339"/>
<path d="M95.3867 48.1367C94.01 48.1367 92.61 48.1367 91.2333 48.1367C90.4167 48.1367 89.9267 47.7167 89.9267 47.0634C89.9033 46.3867 90.4167 45.9434 91.2567 45.9434C94.01 45.9434 96.7633 45.9434 99.5167 45.9434C100.38 45.9434 100.87 46.3634 100.87 47.04C100.87 47.7167 100.357 48.1134 99.4933 48.1134C98.1167 48.1367 96.74 48.1367 95.3867 48.1367Z" fill="#273339"/>
<path d="M110.717 39.3867C109.34 39.3867 107.94 39.3867 106.563 39.3867C105.723 39.3867 105.21 38.9434 105.233 38.2667C105.257 37.6134 105.747 37.1934 106.54 37.1934C109.317 37.1934 112.093 37.1934 114.87 37.1934C115.687 37.1934 116.153 37.6134 116.153 38.29C116.153 38.9434 115.663 39.3867 114.87 39.3867C113.493 39.3867 112.093 39.3867 110.717 39.3867Z" fill="#273339"/>
<path d="M98.6533 39.3868C97.6266 39.3868 96.6 39.3868 95.5966 39.3868C94.8033 39.3868 94.3133 38.9668 94.29 38.3135C94.29 37.6368 94.7566 37.2168 95.5733 37.2168C97.65 37.2168 99.7033 37.2168 101.78 37.2168C102.573 37.2168 103.063 37.6601 103.04 38.3368C103.017 38.9901 102.55 39.4101 101.733 39.4101C100.707 39.3868 99.68 39.3868 98.6533 39.3868Z" fill="#273339"/>
<path d="M100.87 43.7501C99.82 43.7501 98.77 43.7501 97.7433 43.7501C96.9967 43.7501 96.5067 43.3301 96.4833 42.7001C96.46 42.0234 96.95 41.5801 97.7433 41.5801C99.8433 41.5801 101.92 41.5801 104.02 41.5801C104.767 41.5801 105.233 42.0234 105.233 42.6767C105.233 43.3067 104.743 43.7501 104.02 43.7734C102.947 43.7734 101.92 43.7501 100.87 43.7501Z" fill="#273339"/>
<path d="M76.79 45.9434C77.8166 45.9434 78.8433 45.9434 79.8466 45.9434C80.64 45.9434 81.13 46.3634 81.1533 47.0167C81.1766 47.67 80.6866 48.1134 79.8933 48.1367C77.8166 48.1367 75.7633 48.1367 73.6866 48.1367C72.8933 48.1367 72.4033 47.6934 72.4266 47.04C72.4266 46.3867 72.9166 45.9667 73.7333 45.9667C74.7366 45.9434 75.7633 45.9434 76.79 45.9434Z" fill="#273339"/>
<path d="M92.0967 30.6367C91.0467 30.6367 89.9967 30.6367 88.97 30.6367C88.2233 30.6367 87.7333 30.2167 87.7333 29.5634C87.71 28.8867 88.2 28.4434 88.9933 28.4434C91.07 28.4434 93.1233 28.4434 95.2 28.4434C95.9933 28.4434 96.4833 28.8867 96.4833 29.54C96.4833 30.1934 95.9933 30.6134 95.1767 30.6134C94.15 30.6367 93.1233 30.6367 92.0967 30.6367Z" fill="#273339"/>
<path d="M76.72 35.0001C75.7167 35.0001 74.7133 35.0001 73.71 35.0001C72.8933 35.0001 72.4267 34.5801 72.4033 33.9267C72.4033 33.2501 72.87 32.8301 73.6867 32.8301C75.7633 32.8301 77.8167 32.8301 79.8933 32.8301C80.6867 32.8301 81.1767 33.2734 81.1533 33.9501C81.13 34.6034 80.64 35.0234 79.8467 35.0234C78.7967 35.0001 77.7467 35.0001 76.72 35.0001Z" fill="#273339"/>
<path d="M94.22 35.0001C93.2167 35.0001 92.2133 35.0001 91.21 35.0001C90.4167 35.0001 89.9267 34.5801 89.9033 33.9267C89.88 33.2501 90.37 32.8301 91.1633 32.8301C93.24 32.8301 95.2933 32.8301 97.37 32.8301C98.1633 32.8301 98.6533 33.2734 98.63 33.9267C98.63 34.5801 98.14 35.0001 97.3233 35.0001C96.2967 35.0001 95.27 35.0001 94.22 35.0001Z" fill="#273339"/>
<path d="M111.72 35.0001C110.693 35.0001 109.667 35.0001 108.663 35.0001C107.917 35.0001 107.45 34.5567 107.427 33.9267C107.427 33.2734 107.893 32.8301 108.64 32.8301C110.763 32.8301 112.863 32.8301 114.987 32.8301C115.71 32.8301 116.2 33.2967 116.177 33.9501C116.177 34.5801 115.687 35.0234 114.94 35.0234C113.843 35.0001 112.77 35.0001 111.72 35.0001Z" fill="#273339"/>
<path d="M91 50.3066C91.6766 50.3066 92.3533 50.3066 93.0533 50.3066C93.8 50.33 94.2666 50.75 94.29 51.38C94.29 52.0333 93.8233 52.4766 93.1 52.4766C91.7233 52.5 90.3233 52.5 88.9466 52.4766C88.2 52.4766 87.7333 52.01 87.7566 51.38C87.7566 50.7266 88.2466 50.3066 88.9933 50.3066C89.6466 50.3066 90.3233 50.3066 91 50.3066Z" fill="#2A363C"/>
<path d="M85.54 35C85.1666 35 84.8166 35.0233 84.4433 35C83.79 34.9533 83.3466 34.51 83.3466 33.9267C83.3466 33.3433 83.7666 32.8533 84.42 32.83C85.1666 32.8067 85.9133 32.8067 86.66 32.83C87.29 32.8533 87.7333 33.3433 87.71 33.9267C87.71 34.51 87.2666 34.9533 86.6133 35C86.2633 35.0233 85.89 35 85.54 35Z" fill="#2A363C"/>
<path d="M67.97 43.75C67.5967 43.75 67.2467 43.7733 66.8733 43.75C66.2667 43.7033 65.8467 43.26 65.8233 42.7C65.8 42.1167 66.2433 41.6033 66.8733 41.58C67.62 41.5567 68.3667 41.5567 69.1133 41.58C69.7433 41.6033 70.1867 42.07 70.1867 42.6767C70.1867 43.26 69.7433 43.7267 69.1133 43.75C68.74 43.7733 68.3667 43.75 67.97 43.75Z" fill="#2A363C"/>
<path d="M68.0166 34.9997C67.62 34.9997 67.2466 35.023 66.85 34.9997C66.2666 34.953 65.8466 34.4863 65.8466 33.903C65.8466 33.343 66.2666 32.853 66.8733 32.8297C67.6433 32.783 68.4133 32.8063 69.1833 32.8297C69.79 32.853 70.21 33.3197 70.2333 33.8797C70.2566 34.463 69.8133 34.953 69.1833 34.9997C68.7866 35.023 68.39 34.9997 68.0166 34.9997Z" fill="#2A363C"/>
<path d="M103.063 35C102.667 35 102.293 35.0233 101.897 35C101.267 34.9533 100.823 34.4633 100.847 33.88C100.87 33.32 101.29 32.8533 101.897 32.83C102.667 32.8067 103.437 32.8067 104.207 32.83C104.813 32.8533 105.21 33.3433 105.233 33.9033C105.233 34.4633 104.813 34.93 104.23 35C103.833 35.0233 103.437 35 103.063 35Z" fill="#2A363C"/>
<path d="M109.573 41.5572C109.97 41.5572 110.343 41.5339 110.74 41.5572C111.347 41.6039 111.767 42.0472 111.79 42.6072C111.813 43.1906 111.37 43.7039 110.74 43.7272C109.993 43.7506 109.247 43.7506 108.5 43.7272C107.87 43.7039 107.427 43.2372 107.427 42.6306C107.427 42.0239 107.87 41.5806 108.5 41.5572C108.85 41.5572 109.223 41.5572 109.573 41.5572Z" fill="#2A363C"/>
<path d="M68.04 48.1367C67.6433 48.1367 67.27 48.1601 66.8733 48.1367C66.2433 48.0901 65.8233 47.6001 65.8233 47.0167C65.8466 46.4567 66.2666 45.9901 66.8733 45.9667C67.62 45.9434 68.3666 45.9434 69.1133 45.9667C69.7433 45.9901 70.1866 46.4567 70.1866 47.0634C70.1866 47.6467 69.7433 48.1134 69.1133 48.1601C68.7633 48.1367 68.4133 48.1367 68.04 48.1367Z" fill="#2A363C"/>
<path d="M68.0167 37.194C68.4133 37.194 68.7867 37.1706 69.1833 37.194C69.79 37.2406 70.21 37.684 70.2333 38.244C70.2567 38.8273 69.8133 39.3406 69.1833 39.364C68.4133 39.3873 67.6433 39.3873 66.8733 39.364C66.29 39.3406 65.87 38.8506 65.87 38.2906C65.87 37.7306 66.29 37.264 66.8733 37.2173C67.2467 37.1706 67.62 37.194 68.0167 37.194Z" fill="#2A363C"/>
<path d="M85.54 48.1367C85.1666 48.1367 84.8166 48.1601 84.4433 48.1367C83.79 48.0901 83.37 47.6701 83.3466 47.0634C83.3466 46.4801 83.7666 45.9901 84.42 45.9667C85.1666 45.9434 85.9133 45.9434 86.66 45.9667C87.29 45.9901 87.7333 46.4801 87.71 47.0634C87.6866 47.6467 87.2666 48.0901 86.6133 48.1367C86.2633 48.1367 85.89 48.1367 85.54 48.1367Z" fill="#2A363C"/>
<path d="M68.04 30.6133C67.6433 30.6133 67.27 30.6366 66.8733 30.6133C66.2666 30.5666 65.8466 30.1233 65.8466 29.5633C65.8233 28.9799 66.2666 28.4899 66.8966 28.4433C67.6433 28.4199 68.39 28.4199 69.1366 28.4433C69.79 28.4666 70.21 28.9333 70.21 29.5399C70.21 30.1233 69.7666 30.5899 69.1133 30.6133C68.7633 30.6366 68.4133 30.6133 68.04 30.6133Z" fill="#2A363C"/>
<path d="M74.5966 24.0572C74.9933 24.0572 75.3666 24.0339 75.7633 24.0572C76.37 24.1039 76.79 24.5472 76.79 25.1072C76.8133 25.6906 76.37 26.1806 75.74 26.2272C74.9933 26.2506 74.2466 26.2506 73.5 26.2272C72.8466 26.2039 72.4266 25.7372 72.4266 25.1306C72.4266 24.5472 72.87 24.0806 73.5233 24.0572C73.85 24.0572 74.2233 24.0572 74.5966 24.0572Z" fill="#2A363C"/>
<path d="M68.0166 52.5C67.62 52.5 67.2466 52.5234 66.85 52.5C66.2433 52.4534 65.8466 51.9867 65.8466 51.4267C65.8466 50.8667 66.2666 50.3767 66.85 50.3534C67.6433 50.3067 68.4366 50.3067 69.23 50.3534C69.8133 50.3767 70.2333 50.89 70.21 51.4734C70.1633 52.08 69.8366 52.4534 69.23 52.5234C68.8333 52.5467 68.4133 52.5 68.0166 52.5Z" fill="#2A363C"/>
<path d="M67.97 26.25C67.5966 26.25 67.2466 26.2733 66.8733 26.25C66.2666 26.2033 65.8466 25.7367 65.8466 25.1767C65.8466 24.5933 66.2666 24.1033 66.8966 24.08C67.6433 24.0567 68.39 24.0567 69.1366 24.08C69.7666 24.1033 70.21 24.5933 70.21 25.1767C70.21 25.76 69.7666 26.2267 69.1133 26.25C68.74 26.2733 68.3433 26.25 67.97 26.25Z" fill="#2A363C"/>
<path d="M105.21 63.4434C104.813 63.4434 104.44 63.4667 104.043 63.4434C103.46 63.3967 103.04 62.93 103.04 62.37C103.04 61.81 103.46 61.3201 104.043 61.2967C104.813 61.2501 105.583 61.2501 106.353 61.2967C106.983 61.3201 107.427 61.8334 107.403 62.4167C107.38 62.9767 106.96 63.42 106.353 63.4667C105.98 63.4667 105.583 63.4434 105.21 63.4434Z" fill="#2A363C"/>
<path d="M112.84 13.1145C112.257 13.0911 111.767 12.6011 111.79 12.0178C111.79 11.3878 112.327 10.8978 112.957 10.9445C113.54 10.9911 114.007 11.5045 113.983 12.0878C113.937 12.6711 113.423 13.1378 112.84 13.1145Z" fill="#2A363C"/>
<path d="M65.8466 16.4266C65.8466 17.01 65.3333 17.5 64.75 17.5C64.1433 17.5 63.63 16.9866 63.6533 16.3566C63.6766 15.7733 64.19 15.3066 64.7733 15.3066C65.38 15.33 65.8466 15.82 65.8466 16.4266Z" fill="#2A363C"/>
<path d="M70.21 16.4275C70.1866 17.0109 69.6966 17.5009 69.1133 17.5009C68.53 17.5009 68.04 17.0109 68.04 16.4275C68.04 15.7975 68.5533 15.3075 69.16 15.3309C69.7433 15.3309 70.2333 15.8442 70.21 16.4275Z" fill="#2A363C"/>
<path d="M116.153 42.7008C116.13 43.2841 115.64 43.7741 115.057 43.7508C114.45 43.7508 113.937 43.2141 113.983 42.5841C114.03 42.0008 114.543 41.5341 115.127 41.5575C115.71 41.6041 116.177 42.0941 116.153 42.7008Z" fill="#2A363C"/>
<path d="M74.5967 16.4033C74.5967 16.9866 74.13 17.5 73.5233 17.5C72.9167 17.5233 72.4033 17.01 72.4033 16.38C72.4267 15.7966 72.9167 15.3066 73.5 15.3066C74.1067 15.33 74.5967 15.7966 74.5967 16.4033Z" fill="#2A363C"/>
<path d="M113.96 57.9608C113.96 58.5441 113.47 59.0575 112.887 59.0575C112.303 59.0808 111.79 58.5908 111.767 58.0075C111.743 57.4008 112.257 56.8641 112.863 56.8875C113.47 56.8875 113.96 57.3775 113.96 57.9608Z" fill="#2A363C"/>
<path d="M30.4485 102V90.8H34.3685C35.2432 90.8 35.9685 90.9493 36.5445 91.248C37.1205 91.536 37.5472 91.936 37.8245 92.448C38.1125 92.9493 38.2565 93.52 38.2565 94.16C38.2565 94.768 38.1178 95.328 37.8405 95.84C37.5738 96.3413 37.1525 96.7413 36.5765 97.04C36.0005 97.3387 35.2645 97.488 34.3685 97.488H32.1445V102H30.4485ZM32.1445 96.096H34.2885C35.0885 96.096 35.6592 95.9253 36.0005 95.584C36.3525 95.232 36.5285 94.7573 36.5285 94.16C36.5285 93.5413 36.3525 93.0613 36.0005 92.72C35.6592 92.368 35.0885 92.192 34.2885 92.192H32.1445V96.096ZM39.8689 102V94.064H41.3889L41.5329 95.568C41.8102 95.0453 42.1942 94.6347 42.6849 94.336C43.1862 94.0267 43.7889 93.872 44.4929 93.872V95.648H44.0289C43.5595 95.648 43.1382 95.728 42.7649 95.888C42.4022 96.0373 42.1089 96.2987 41.8849 96.672C41.6715 97.0347 41.5649 97.5413 41.5649 98.192V102H39.8689ZM49.4403 102.192C48.6829 102.192 48.0003 102.021 47.3923 101.68C46.7949 101.328 46.3203 100.843 45.9683 100.224C45.6163 99.5947 45.4403 98.864 45.4403 98.032C45.4403 97.2 45.6163 96.4747 45.9683 95.856C46.3309 95.2267 46.8163 94.7413 47.4243 94.4C48.0323 94.048 48.7096 93.872 49.4563 93.872C50.2136 93.872 50.8909 94.048 51.4883 94.4C52.0963 94.7413 52.5763 95.2267 52.9283 95.856C53.2909 96.4747 53.4722 97.2 53.4722 98.032C53.4722 98.864 53.2909 99.5947 52.9283 100.224C52.5763 100.843 52.0963 101.328 51.4883 101.68C50.8803 102.021 50.1976 102.192 49.4403 102.192ZM49.4403 100.736C49.8456 100.736 50.2189 100.635 50.5603 100.432C50.9123 100.229 51.1949 99.9307 51.4083 99.536C51.6216 99.1307 51.7283 98.6293 51.7283 98.032C51.7283 97.4347 51.6216 96.9387 51.4083 96.544C51.2056 96.1387 50.9283 95.8347 50.5763 95.632C50.2349 95.4293 49.8616 95.328 49.4563 95.328C49.0509 95.328 48.6723 95.4293 48.3203 95.632C47.9789 95.8347 47.7016 96.1387 47.4883 96.544C47.2749 96.9387 47.1683 97.4347 47.1683 98.032C47.1683 98.6293 47.2749 99.1307 47.4883 99.536C47.7016 99.9307 47.9789 100.229 48.3203 100.432C48.6616 100.635 49.0349 100.736 49.4403 100.736ZM58.9224 102.192C58.1544 102.192 57.477 102.011 56.8904 101.648C56.3037 101.285 55.845 100.789 55.5144 100.16C55.1837 99.5307 55.0184 98.816 55.0184 98.016C55.0184 97.216 55.1837 96.5067 55.5144 95.888C55.845 95.2587 56.3037 94.768 56.8904 94.416C57.4877 94.0533 58.1704 93.872 58.9384 93.872C59.5677 93.872 60.117 93.9947 60.5864 94.24C61.0664 94.4853 61.4397 94.832 61.7064 95.28V90.48H63.4024V102H61.8824L61.7064 100.768C61.4504 101.141 61.0984 101.472 60.6504 101.76C60.2024 102.048 59.6264 102.192 58.9224 102.192ZM59.2264 100.72C59.9517 100.72 60.5437 100.469 61.0024 99.968C61.4717 99.4667 61.7064 98.8213 61.7064 98.032C61.7064 97.232 61.4717 96.5867 61.0024 96.096C60.5437 95.5947 59.9517 95.344 59.2264 95.344C58.501 95.344 57.9037 95.5947 57.4344 96.096C56.965 96.5867 56.7304 97.232 56.7304 98.032C56.7304 98.5547 56.837 99.0187 57.0504 99.424C57.2637 99.8293 57.557 100.149 57.9304 100.384C58.3144 100.608 58.7464 100.72 59.2264 100.72ZM68.4688 102.192C67.5088 102.192 66.7514 101.893 66.1968 101.296C65.6528 100.699 65.3808 99.808 65.3808 98.624V94.064H67.0768V98.448C67.0768 99.984 67.7061 100.752 68.9648 100.752C69.5941 100.752 70.1114 100.528 70.5168 100.08C70.9221 99.632 71.1248 98.992 71.1248 98.16V94.064H72.8208V102H71.3168L71.1888 100.608C70.9434 101.099 70.5808 101.488 70.1008 101.776C69.6314 102.053 69.0874 102.192 68.4688 102.192ZM78.7383 102.192C77.9596 102.192 77.2609 102.016 76.6423 101.664C76.0343 101.312 75.5543 100.827 75.2023 100.208C74.8609 99.5787 74.6903 98.8533 74.6903 98.032C74.6903 97.2107 74.8609 96.4907 75.2023 95.872C75.5543 95.2427 76.0343 94.752 76.6423 94.4C77.2609 94.048 77.9596 93.872 78.7383 93.872C79.7196 93.872 80.5409 94.128 81.2023 94.64C81.8743 95.152 82.3063 95.8453 82.4983 96.72H80.7223C80.6156 96.2827 80.3809 95.9413 80.0183 95.696C79.6556 95.4507 79.2289 95.328 78.7383 95.328C78.3223 95.328 77.9383 95.4347 77.5863 95.648C77.2343 95.8507 76.9516 96.1547 76.7383 96.56C76.5249 96.9547 76.4183 97.4453 76.4183 98.032C76.4183 98.6187 76.5249 99.1147 76.7383 99.52C76.9516 99.9147 77.2343 100.219 77.5863 100.432C77.9383 100.645 78.3223 100.752 78.7383 100.752C79.2289 100.752 79.6556 100.629 80.0183 100.384C80.3809 100.139 80.6156 99.792 80.7223 99.344H82.4983C82.3169 100.197 81.8903 100.885 81.2183 101.408C80.5463 101.931 79.7196 102.192 78.7383 102.192ZM87.5094 102C86.7307 102 86.112 101.813 85.6534 101.44C85.1947 101.056 84.9654 100.379 84.9654 99.408V95.488H83.6054V94.064H84.9654L85.1734 92.048H86.6614V94.064H88.9014V95.488H86.6614V99.408C86.6614 99.8453 86.752 100.149 86.9334 100.32C87.1254 100.48 87.4507 100.56 87.9094 100.56H88.8214V102H87.5094ZM99.1454 102.192C98.5267 102.192 97.9774 102.069 97.4974 101.824C97.028 101.579 96.6547 101.232 96.3774 100.784L96.2014 102H94.6814V90.48H96.3774V95.296C96.6334 94.9227 96.9854 94.592 97.4334 94.304C97.8814 94.016 98.4574 93.872 99.1614 93.872C99.9294 93.872 100.607 94.0533 101.193 94.416C101.78 94.7787 102.239 95.2747 102.569 95.904C102.911 96.5333 103.081 97.248 103.081 98.048C103.081 98.848 102.911 99.5627 102.569 100.192C102.239 100.811 101.78 101.301 101.193 101.664C100.607 102.016 99.924 102.192 99.1454 102.192ZM98.8574 100.72C99.5827 100.72 100.18 100.475 100.649 99.984C101.119 99.4827 101.353 98.832 101.353 98.032C101.353 97.5093 101.247 97.0453 101.033 96.64C100.82 96.2347 100.527 95.92 100.153 95.696C99.78 95.4613 99.348 95.344 98.8574 95.344C98.132 95.344 97.5347 95.5947 97.0654 96.096C96.6067 96.5973 96.3774 97.2427 96.3774 98.032C96.3774 98.832 96.6067 99.4827 97.0654 99.984C97.5347 100.475 98.132 100.72 98.8574 100.72ZM107.604 102.192C106.932 102.192 106.377 102.08 105.94 101.856C105.502 101.632 105.177 101.339 104.964 100.976C104.75 100.603 104.644 100.197 104.644 99.76C104.644 98.992 104.942 98.384 105.54 97.936C106.137 97.488 106.99 97.264 108.1 97.264H110.18V97.12C110.18 96.5013 110.009 96.0373 109.668 95.728C109.337 95.4187 108.905 95.264 108.372 95.264C107.902 95.264 107.492 95.3813 107.14 95.616C106.798 95.84 106.59 96.176 106.516 96.624H104.82C104.873 96.048 105.065 95.5573 105.396 95.152C105.737 94.736 106.164 94.4213 106.676 94.208C107.198 93.984 107.769 93.872 108.388 93.872C109.497 93.872 110.356 94.1653 110.964 94.752C111.572 95.328 111.876 96.1173 111.876 97.12V102H110.404L110.26 100.64C110.036 101.077 109.71 101.445 109.284 101.744C108.857 102.043 108.297 102.192 107.604 102.192ZM107.94 100.816C108.398 100.816 108.782 100.709 109.092 100.496C109.412 100.272 109.657 99.9787 109.828 99.616C110.009 99.2533 110.121 98.8533 110.164 98.416H108.276C107.604 98.416 107.124 98.5333 106.836 98.768C106.558 99.0027 106.42 99.296 106.42 99.648C106.42 100.011 106.553 100.299 106.82 100.512C107.097 100.715 107.47 100.816 107.94 100.816ZM117.613 102.192C116.835 102.192 116.136 102.016 115.517 101.664C114.909 101.312 114.429 100.827 114.077 100.208C113.736 99.5787 113.565 98.8533 113.565 98.032C113.565 97.2107 113.736 96.4907 114.077 95.872C114.429 95.2427 114.909 94.752 115.517 94.4C116.136 94.048 116.835 93.872 117.613 93.872C118.595 93.872 119.416 94.128 120.077 94.64C120.749 95.152 121.181 95.8453 121.373 96.72H119.597C119.491 96.2827 119.256 95.9413 118.893 95.696C118.531 95.4507 118.104 95.328 117.613 95.328C117.197 95.328 116.813 95.4347 116.461 95.648C116.109 95.8507 115.827 96.1547 115.613 96.56C115.4 96.9547 115.293 97.4453 115.293 98.032C115.293 98.6187 115.4 99.1147 115.613 99.52C115.827 99.9147 116.109 100.219 116.461 100.432C116.813 100.645 117.197 100.752 117.613 100.752C118.104 100.752 118.531 100.629 118.893 100.384C119.256 100.139 119.491 99.792 119.597 99.344H121.373C121.192 100.197 120.765 100.885 120.093 101.408C119.421 101.931 118.595 102.192 117.613 102.192ZM123.213 102V90.48H124.909V97.344L127.949 94.064H129.981L126.605 97.664L130.477 102H128.333L124.909 97.936V102H123.213ZM131.791 102V90.48H133.487V102H131.791ZM139.347 102.192C138.589 102.192 137.907 102.021 137.299 101.68C136.701 101.328 136.227 100.843 135.875 100.224C135.523 99.5947 135.347 98.864 135.347 98.032C135.347 97.2 135.523 96.4747 135.875 95.856C136.237 95.2267 136.723 94.7413 137.331 94.4C137.939 94.048 138.616 93.872 139.363 93.872C140.12 93.872 140.797 94.048 141.395 94.4C142.003 94.7413 142.483 95.2267 142.835 95.856C143.197 96.4747 143.378 97.2 143.378 98.032C143.378 98.864 143.197 99.5947 142.835 100.224C142.483 100.843 142.003 101.328 141.395 101.68C140.787 102.021 140.104 102.192 139.347 102.192ZM139.347 100.736C139.752 100.736 140.125 100.635 140.467 100.432C140.819 100.229 141.101 99.9307 141.315 99.536C141.528 99.1307 141.635 98.6293 141.635 98.032C141.635 97.4347 141.528 96.9387 141.315 96.544C141.112 96.1387 140.835 95.8347 140.483 95.632C140.141 95.4293 139.768 95.328 139.363 95.328C138.957 95.328 138.579 95.4293 138.227 95.632C137.885 95.8347 137.608 96.1387 137.395 96.544C137.181 96.9387 137.075 97.4347 137.075 98.032C137.075 98.6293 137.181 99.1307 137.395 99.536C137.608 99.9307 137.885 100.229 138.227 100.432C138.568 100.635 138.941 100.736 139.347 100.736ZM148.039 99.568C147.623 99.568 147.239 99.52 146.887 99.424L146.199 100.096C146.316 100.171 146.46 100.235 146.631 100.288C146.801 100.341 147.041 100.389 147.351 100.432C147.66 100.475 148.081 100.517 148.615 100.56C149.671 100.656 150.433 100.912 150.903 101.328C151.372 101.733 151.607 102.277 151.607 102.96C151.607 103.429 151.479 103.872 151.223 104.288C150.977 104.715 150.588 105.056 150.055 105.312C149.532 105.579 148.86 105.712 148.039 105.712C146.929 105.712 146.028 105.499 145.335 105.072C144.652 104.656 144.311 104.021 144.311 103.168C144.311 102.837 144.396 102.507 144.567 102.176C144.748 101.856 145.031 101.552 145.415 101.264C145.191 101.168 144.993 101.067 144.823 100.96C144.663 100.843 144.519 100.725 144.391 100.608V100.224L145.767 98.816C145.148 98.2827 144.839 97.584 144.839 96.72C144.839 96.1973 144.961 95.7227 145.207 95.296C145.463 94.8587 145.831 94.512 146.311 94.256C146.791 94 147.367 93.872 148.039 93.872C148.487 93.872 148.903 93.936 149.287 94.064H152.247V95.184L150.839 95.264C151.095 95.7013 151.223 96.1867 151.223 96.72C151.223 97.2533 151.095 97.7333 150.839 98.16C150.593 98.5867 150.231 98.928 149.751 99.184C149.281 99.44 148.711 99.568 148.039 99.568ZM148.039 98.24C148.529 98.24 148.924 98.112 149.223 97.856C149.532 97.5893 149.687 97.216 149.687 96.736C149.687 96.2453 149.532 95.872 149.223 95.616C148.924 95.36 148.529 95.232 148.039 95.232C147.537 95.232 147.132 95.36 146.823 95.616C146.524 95.872 146.375 96.2453 146.375 96.736C146.375 97.216 146.524 97.5893 146.823 97.856C147.132 98.112 147.537 98.24 148.039 98.24ZM145.911 103.008C145.911 103.467 146.113 103.808 146.519 104.032C146.924 104.267 147.431 104.384 148.039 104.384C148.625 104.384 149.1 104.256 149.463 104C149.825 103.755 150.007 103.424 150.007 103.008C150.007 102.699 149.884 102.432 149.639 102.208C149.393 101.995 148.929 101.861 148.247 101.808C147.735 101.776 147.281 101.728 146.887 101.664C146.513 101.867 146.257 102.085 146.119 102.32C145.98 102.555 145.911 102.784 145.911 103.008Z" fill="black"/>
</svg>
