<svg width="182" height="157" viewBox="0 0 182 157" fill="none" xmlns="http://www.w3.org/2000/svg">
<path d="M77.3966 37.8704C77.4433 36.4937 77.2799 34.7904 77.4666 33.0871C77.7466 30.5671 78.7966 28.3971 80.7099 26.7404C81.7833 25.8071 82.0399 24.8504 81.9466 23.4504C81.4099 15.5871 83.8133 8.68039 88.9233 2.68372C89.25 2.28706 89.6233 1.91372 89.9733 1.54039C90.72 0.770391 91.2799 0.770391 92.0266 1.54039C94.7333 4.31706 96.8099 7.49039 98.2099 11.1071C99.9366 15.5637 100.567 20.1604 99.9833 24.9204C99.9366 25.2237 100.03 25.4104 100.24 25.5971C100.707 26.0404 101.15 26.4837 101.593 26.9504C103.623 29.0037 104.627 31.4537 104.627 34.3471C104.627 37.0771 104.627 39.8304 104.627 42.5604C104.627 43.9371 103.88 44.4037 102.643 43.7737C100.823 42.8637 99.0033 41.9771 97.2066 41.0437C96.81 40.8337 96.4833 40.8337 96.0866 40.9504C92.6566 42.0937 89.2266 42.0471 85.82 40.9037C85.4933 40.7871 85.2366 40.8337 84.9566 40.9737C83.0899 41.9071 81.1999 42.8637 79.3333 43.7737C78.1899 44.3337 77.42 43.8904 77.42 42.6071C77.3966 41.1604 77.3966 39.6671 77.3966 37.8704ZM97.9299 21.6304C97.8366 15.1437 95.7833 9.38039 91.5833 4.41039C91.0233 3.73372 91 3.73372 90.44 4.41039C84.5133 11.6671 82.6933 19.8337 85.1666 28.8637C86.0066 31.9437 86.7766 35.0237 86.4733 38.2437C86.4266 38.6404 86.5666 38.8271 86.9633 38.9437C89.6933 39.7604 92.4 39.7371 95.1299 38.9437C95.4799 38.8504 95.5733 38.6404 95.5733 38.2904C95.55 37.3104 95.5733 36.3071 95.5733 35.3271C95.5733 34.3937 95.5733 34.4171 94.64 34.6037C94.29 34.6737 93.94 34.7671 93.59 34.8137C92.3533 35.0004 91.0933 35.0937 89.8566 34.9771C89.1566 34.9071 88.7133 34.3704 88.7599 33.7404C88.8299 33.1337 89.2733 32.7371 89.9966 32.7371C90.2999 32.7371 90.6033 32.7604 90.9066 32.7604C92.47 32.7837 94.0099 32.5271 95.4799 32.0137C95.7599 31.9204 96.0633 31.8737 96.1566 31.5004C97.1133 28.2571 97.9533 25.0371 97.9299 21.6304ZM82.5766 28.1637C81.1999 29.1904 80.0333 31.0804 79.8233 32.8304C79.4966 35.5604 79.7766 38.2904 79.66 41.1137C80.7333 40.5771 81.6899 39.9937 82.7166 39.6204C83.9533 39.1771 84.4199 38.4771 84.2333 37.1704C84.0699 35.9337 84.3733 34.6737 84.0466 33.4371C83.5799 31.6871 83.0666 29.9604 82.5766 28.1637ZM102.317 41.0904C102.317 38.5471 102.363 36.0971 102.293 33.6471C102.247 32.1304 101.687 30.7537 100.777 29.5404C100.38 29.0271 99.9833 28.5371 99.4233 28.1171C99.26 28.7471 99.1433 29.2604 98.9566 29.7737C98 32.5504 97.5566 35.3737 97.79 38.3137C97.8133 38.5937 97.7666 38.8504 98.1166 39.0137C99.4933 39.6671 100.87 40.3671 102.317 41.0904Z" fill="#29343A"/>
<path d="M120.47 67.1067C120.563 60.8767 114.333 56.98 108.897 59.7334C107.94 60.2234 107.637 60.1534 106.96 59.3367C106.097 58.31 105 57.75 103.647 57.68C102.737 57.6334 102.387 57.26 102.34 56.3734C102.2 53.7367 100.94 51.7767 98.6533 50.4934C97.8366 50.05 97.6033 49.3967 98 48.7667C98.35 48.23 98.9566 48.09 99.61 48.44C102.27 49.8167 103.88 52.01 104.463 54.95C104.557 55.37 104.673 55.5334 105.093 55.6267C106.19 55.8834 107.17 56.3967 107.987 57.1667C108.243 57.4234 108.453 57.4467 108.78 57.3067C115.803 54.6234 122.99 59.7567 122.733 67.2467C122.733 67.55 122.687 67.8534 122.617 68.1567C122.453 68.7634 122.033 69.0667 121.403 68.9967C120.797 68.9267 120.447 68.53 120.423 67.9C120.423 67.5967 120.47 67.2934 120.47 67.1067Z" fill="#29343A"/>
<path d="M61.53 67.1303C61.53 67.2236 61.5533 67.457 61.5533 67.6903C61.5766 68.437 61.2033 68.9503 60.5733 69.0203C59.92 69.0903 59.3833 68.647 59.3133 67.877C59.1733 66.5703 59.2666 65.287 59.5933 64.0036C61.25 57.447 68.2266 53.7603 74.5733 56.1403C75.18 56.3736 75.2733 56.2336 75.4133 55.6736C76.2766 52.2903 79.3333 49.817 82.74 49.7236C83.6266 49.7003 84.1633 50.097 84.21 50.797C84.2566 51.497 83.7433 51.9403 82.8566 51.987C79.6366 52.1503 77.2566 54.8103 77.4433 58.0303C77.4666 58.5436 77.3733 58.9636 76.9066 59.2436C76.3933 59.547 75.9266 59.3603 75.46 59.057C72.0533 56.957 68.0633 57.1903 64.9366 59.6403C62.7433 61.3903 61.4833 64.097 61.53 67.1303Z" fill="#29343A"/>
<path d="M85.3533 62.2073C86.4733 62.2073 87.57 62.4407 88.5267 63.024C88.9467 63.2573 89.1333 63.2107 89.4367 62.8607C93.0533 58.5673 99.54 59.104 102.387 63.9107C103.063 65.0773 103.413 66.3373 103.46 67.6673C103.483 68.484 103.017 68.9973 102.34 68.9973C101.687 68.9973 101.243 68.5307 101.197 67.7373C101.033 65.0773 99.3067 62.9307 96.8567 62.3707C94.2667 61.7873 91.84 62.9073 90.4867 65.334C89.9267 66.3373 89.2733 66.454 88.3867 65.684C85.7033 63.374 81.9 64.5173 80.92 67.9473C80.6867 68.7407 80.1267 69.1373 79.4967 68.974C78.7967 68.7873 78.5167 68.1807 78.75 67.3407C79.52 64.3307 82.25 62.2073 85.3533 62.2073Z" fill="#29343A"/>
<path d="M113.68 32.7377C113.68 30.1943 113.68 27.651 113.68 25.1077C113.68 24.1977 114.077 23.6843 114.8 23.6843C115.523 23.661 115.967 24.1977 115.967 25.131C115.967 30.2177 115.967 35.3277 115.967 40.4143C115.967 41.511 115.127 42.141 114.287 41.651C113.82 41.3943 113.703 40.951 113.703 40.461C113.68 37.8943 113.68 35.3277 113.68 32.7377Z" fill="#29343A"/>
<path d="M68.3433 31.5936C68.3433 33.7636 68.3433 35.9336 68.3433 38.1036C68.3433 39.0369 67.9 39.5736 67.1766 39.5503C66.4766 39.5269 66.08 39.0136 66.08 38.1036C66.08 33.7636 66.08 29.4236 66.08 25.0836C66.08 24.1969 66.5 23.6836 67.2 23.6836C67.9233 23.6836 68.3433 24.1969 68.3433 25.0836C68.3433 27.2536 68.3433 29.4236 68.3433 31.5936Z" fill="#29343A"/>
<path d="M70.6066 42.9341C70.6066 40.7641 70.6066 38.5941 70.6066 36.4241C70.6066 35.5141 71.0033 35.0241 71.7266 35.0007C72.4266 34.9774 72.87 35.5141 72.87 36.3774C72.87 40.7641 72.87 45.1507 72.87 49.5374C72.87 50.0741 72.7066 50.4941 72.1933 50.7507C71.7966 50.9374 71.4 50.8907 71.05 50.6341C70.6766 50.3541 70.5833 49.9574 70.5833 49.5141C70.6066 47.3207 70.6066 45.1274 70.6066 42.9341Z" fill="#29343A"/>
<path d="M111.417 42.9331C111.417 45.1264 111.417 47.3197 111.417 49.5131C111.417 50.3531 110.997 50.8664 110.297 50.8664C109.597 50.8897 109.13 50.3531 109.13 49.4897C109.13 45.1031 109.13 40.7164 109.13 36.3297C109.13 35.7931 109.293 35.3497 109.807 35.1164C110.25 34.9064 110.647 34.9997 110.997 35.2797C111.37 35.5831 111.417 35.9797 111.417 36.4231C111.417 38.5931 111.417 40.7631 111.417 42.9331Z" fill="#29343A"/>
<path d="M88.7367 52.0096C88.7367 54.1796 88.7367 56.3496 88.7367 58.5196C88.7367 59.4296 88.34 59.9429 87.64 59.9663C86.9167 59.9896 86.4733 59.4529 86.4733 58.5196C86.4733 54.1796 86.4733 49.8396 86.4733 45.4996C86.4733 44.6129 86.8933 44.0996 87.6167 44.0996C88.34 44.0996 88.7367 44.6129 88.7367 45.5229C88.7367 47.6696 88.7367 49.8396 88.7367 52.0096Z" fill="#29343A"/>
<path d="M95.55 48.6035C95.55 49.6535 95.55 50.7268 95.55 51.7768C95.55 52.6168 95.1066 53.1068 94.43 53.1302C93.7533 53.1302 93.2866 52.6402 93.2866 51.8002C93.2866 49.6535 93.2866 47.5068 93.2866 45.3602C93.2866 44.5435 93.7533 44.0302 94.43 44.0535C95.0833 44.0768 95.5266 44.5668 95.55 45.3368C95.55 46.4568 95.55 47.5302 95.55 48.6035Z" fill="#29343A"/>
<path d="M68.32 42.9343C68.32 43.541 67.8066 44.0543 67.2 44.0543C66.57 44.0543 66.0333 43.5177 66.0566 42.8877C66.08 42.281 66.5933 41.791 67.2 41.791C67.83 41.8143 68.3433 42.3277 68.32 42.9343Z" fill="#29343A"/>
<path d="M95.5266 56.6068C95.5033 57.2134 94.9666 57.7034 94.36 57.6801C93.7533 57.6568 93.2633 57.1434 93.2633 56.5368C93.2633 55.9068 93.8233 55.3934 94.4766 55.4168C95.0833 55.4634 95.5733 56.0001 95.5266 56.6068Z" fill="#29343A"/>
<path d="M89.88 16.8711C90.4866 16.8711 91 17.3844 91 17.9911C91 18.5978 90.51 19.1111 89.9033 19.1344C89.2733 19.1578 88.7366 18.6211 88.7599 17.9678C88.7599 17.3611 89.2733 16.8711 89.88 16.8711Z" fill="#29343A"/>
<path d="M91 22.5398C91 23.1465 90.4866 23.6598 89.88 23.6598C89.25 23.6598 88.7133 23.1232 88.7366 22.4932C88.76 21.8865 89.2733 21.3965 89.88 21.3965C90.51 21.4198 91 21.9332 91 22.5398Z" fill="#29343A"/>
<path d="M72.9961 102.192C72.1747 102.192 71.4547 102.048 70.8361 101.76C70.2174 101.472 69.7321 101.061 69.3801 100.528C69.0387 99.9947 68.8627 99.36 68.8521 98.624H70.6441C70.6547 99.2213 70.8627 99.728 71.2681 100.144C71.6734 100.56 72.2441 100.768 72.9801 100.768C73.6307 100.768 74.1374 100.613 74.5001 100.304C74.8734 99.984 75.0601 99.5787 75.0601 99.088C75.0601 98.6933 74.9694 98.3733 74.7881 98.128C74.6174 97.8827 74.3774 97.68 74.0681 97.52C73.7694 97.36 73.4227 97.216 73.0281 97.088C72.6334 96.96 72.2174 96.8213 71.7801 96.672C70.9161 96.384 70.2654 96.0107 69.8281 95.552C69.4014 95.0933 69.1881 94.4907 69.1881 93.744C69.1774 93.1147 69.3214 92.5653 69.6201 92.096C69.9294 91.6267 70.3561 91.264 70.9001 91.008C71.4547 90.7413 72.1001 90.608 72.8361 90.608C73.5614 90.608 74.1961 90.7413 74.7401 91.008C75.2947 91.2747 75.7267 91.648 76.0361 92.128C76.3454 92.5973 76.5054 93.1467 76.5161 93.776H74.7241C74.7241 93.488 74.6494 93.216 74.5001 92.96C74.3507 92.6933 74.1321 92.4747 73.8441 92.304C73.5561 92.1333 73.2041 92.048 72.7881 92.048C72.2547 92.0373 71.8121 92.1707 71.4601 92.448C71.1187 92.7253 70.9481 93.1093 70.9481 93.6C70.9481 94.0373 71.0761 94.3733 71.3321 94.608C71.5881 94.8427 71.9401 95.04 72.3881 95.2C72.8361 95.3493 73.3481 95.5253 73.9241 95.728C74.4787 95.9093 74.9747 96.128 75.4121 96.384C75.8494 96.64 76.1961 96.976 76.4521 97.392C76.7187 97.808 76.8521 98.336 76.8521 98.976C76.8521 99.5413 76.7081 100.069 76.4201 100.56C76.1321 101.04 75.7001 101.435 75.1241 101.744C74.5481 102.043 73.8387 102.192 72.9961 102.192ZM78.6423 105.52V94.064H80.1623L80.3383 95.296C80.5943 94.9227 80.9463 94.592 81.3943 94.304C81.8423 94.016 82.4183 93.872 83.1223 93.872C83.8903 93.872 84.5676 94.0533 85.1543 94.416C85.741 94.7787 86.1996 95.2747 86.5303 95.904C86.8716 96.5333 87.0423 97.248 87.0423 98.048C87.0423 98.848 86.8716 99.5627 86.5303 100.192C86.1996 100.811 85.741 101.301 85.1543 101.664C84.5676 102.016 83.885 102.192 83.1063 102.192C82.4876 102.192 81.9383 102.069 81.4583 101.824C80.989 101.579 80.6156 101.232 80.3383 100.784V105.52H78.6423ZM82.8183 100.72C83.5436 100.72 84.141 100.475 84.6103 99.984C85.0796 99.4827 85.3143 98.832 85.3143 98.032C85.3143 97.5093 85.2076 97.0453 84.9943 96.64C84.781 96.2347 84.4876 95.92 84.1143 95.696C83.741 95.4613 83.309 95.344 82.8183 95.344C82.093 95.344 81.4956 95.5947 81.0263 96.096C80.5676 96.5973 80.3383 97.2427 80.3383 98.032C80.3383 98.832 80.5676 99.4827 81.0263 99.984C81.4956 100.475 82.093 100.72 82.8183 100.72ZM88.8767 102V94.064H90.3967L90.5407 95.568C90.818 95.0453 91.202 94.6347 91.6927 94.336C92.194 94.0267 92.7967 93.872 93.5007 93.872V95.648H93.0367C92.5674 95.648 92.146 95.728 91.7727 95.888C91.41 96.0373 91.1167 96.2987 90.8927 96.672C90.6794 97.0347 90.5727 97.5413 90.5727 98.192V102H88.8767ZM95.9148 92.56C95.5948 92.56 95.3281 92.464 95.1148 92.272C94.9121 92.0693 94.8108 91.8187 94.8108 91.52C94.8108 91.2213 94.9121 90.976 95.1148 90.784C95.3281 90.5813 95.5948 90.48 95.9148 90.48C96.2348 90.48 96.4961 90.5813 96.6988 90.784C96.9121 90.976 97.0188 91.2213 97.0188 91.52C97.0188 91.8187 96.9121 92.0693 96.6988 92.272C96.4961 92.464 96.2348 92.56 95.9148 92.56ZM95.0668 102V94.064H96.7628V102H95.0668ZM99.0017 102V94.064H100.506L100.634 95.456C100.879 94.9653 101.236 94.5813 101.706 94.304C102.186 94.016 102.735 93.872 103.354 93.872C104.314 93.872 105.066 94.1707 105.61 94.768C106.164 95.3653 106.442 96.256 106.442 97.44V102H104.762V97.616C104.762 96.08 104.132 95.312 102.874 95.312C102.244 95.312 101.722 95.536 101.306 95.984C100.9 96.432 100.698 97.072 100.698 97.904V102H99.0017ZM111.767 102C110.989 102 110.37 101.813 109.911 101.44C109.453 101.056 109.223 100.379 109.223 99.408V95.488H107.863V94.064H109.223L109.431 92.048H110.919V94.064H113.159V95.488H110.919V99.408C110.919 99.8453 111.01 100.149 111.191 100.32C111.383 100.48 111.709 100.56 112.167 100.56H113.079V102H111.767ZM60.3391 126V114.8H64.2591C65.1338 114.8 65.8591 114.949 66.4351 115.248C67.0111 115.536 67.4378 115.936 67.7151 116.448C68.0031 116.949 68.1471 117.52 68.1471 118.16C68.1471 118.768 68.0085 119.328 67.7311 119.84C67.4645 120.341 67.0431 120.741 66.4671 121.04C65.8911 121.339 65.1551 121.488 64.2591 121.488H62.0351V126H60.3391ZM62.0351 120.096H64.1791C64.9791 120.096 65.5498 119.925 65.8911 119.584C66.2431 119.232 66.4191 118.757 66.4191 118.16C66.4191 117.541 66.2431 117.061 65.8911 116.72C65.5498 116.368 64.9791 116.192 64.1791 116.192H62.0351V120.096ZM69.7595 126V114.48H71.4555V126H69.7595ZM76.2913 126.192C75.6193 126.192 75.0646 126.08 74.6273 125.856C74.1899 125.632 73.8646 125.339 73.6513 124.976C73.4379 124.603 73.3313 124.197 73.3313 123.76C73.3313 122.992 73.6299 122.384 74.2273 121.936C74.8246 121.488 75.6779 121.264 76.7873 121.264H78.8673V121.12C78.8673 120.501 78.6966 120.037 78.3553 119.728C78.0246 119.419 77.5926 119.264 77.0593 119.264C76.5899 119.264 76.1793 119.381 75.8273 119.616C75.4859 119.84 75.2779 120.176 75.2033 120.624H73.5073C73.5606 120.048 73.7526 119.557 74.0833 119.152C74.4246 118.736 74.8513 118.421 75.3633 118.208C75.8859 117.984 76.4566 117.872 77.0753 117.872C78.1846 117.872 79.0433 118.165 79.6513 118.752C80.2593 119.328 80.5633 120.117 80.5633 121.12V126H79.0913L78.9473 124.64C78.7233 125.077 78.3979 125.445 77.9713 125.744C77.5446 126.043 76.9846 126.192 76.2913 126.192ZM76.6273 124.816C77.0859 124.816 77.4699 124.709 77.7793 124.496C78.0993 124.272 78.3446 123.979 78.5153 123.616C78.6966 123.253 78.8086 122.853 78.8513 122.416H76.9633C76.2913 122.416 75.8113 122.533 75.5233 122.768C75.2459 123.003 75.1073 123.296 75.1073 123.648C75.1073 124.011 75.2406 124.299 75.5073 124.512C75.7846 124.715 76.1579 124.816 76.6273 124.816ZM82.5408 126V118.064H84.0448L84.1728 119.456C84.4181 118.965 84.7754 118.581 85.2448 118.304C85.7248 118.016 86.2741 117.872 86.8928 117.872C87.8528 117.872 88.6048 118.171 89.1488 118.768C89.7034 119.365 89.9808 120.256 89.9808 121.44V126H88.3008V121.616C88.3008 120.08 87.6714 119.312 86.4128 119.312C85.7834 119.312 85.2608 119.536 84.8448 119.984C84.4394 120.432 84.2368 121.072 84.2368 121.904V126H82.5408ZM91.9783 126V118.064H93.4823L93.6103 119.456C93.8556 118.965 94.2129 118.581 94.6823 118.304C95.1623 118.016 95.7116 117.872 96.3303 117.872C97.2903 117.872 98.0423 118.171 98.5863 118.768C99.1409 119.365 99.4183 120.256 99.4183 121.44V126H97.7383V121.616C97.7383 120.08 97.1089 119.312 95.8503 119.312C95.2209 119.312 94.6983 119.536 94.2823 119.984C93.8769 120.432 93.6743 121.072 93.6743 121.904V126H91.9783ZM102.376 116.56C102.056 116.56 101.789 116.464 101.576 116.272C101.373 116.069 101.272 115.819 101.272 115.52C101.272 115.221 101.373 114.976 101.576 114.784C101.789 114.581 102.056 114.48 102.376 114.48C102.696 114.48 102.957 114.581 103.16 114.784C103.373 114.976 103.48 115.221 103.48 115.52C103.48 115.819 103.373 116.069 103.16 116.272C102.957 116.464 102.696 116.56 102.376 116.56ZM101.528 126V118.064H103.224V126H101.528ZM105.463 126V118.064H106.967L107.095 119.456C107.34 118.965 107.697 118.581 108.167 118.304C108.647 118.016 109.196 117.872 109.815 117.872C110.775 117.872 111.527 118.171 112.071 118.768C112.625 119.365 112.903 120.256 112.903 121.44V126H111.223V121.616C111.223 120.08 110.593 119.312 109.335 119.312C108.705 119.312 108.183 119.536 107.767 119.984C107.361 120.432 107.159 121.072 107.159 121.904V126H105.463ZM118.148 123.568C117.732 123.568 117.348 123.52 116.996 123.424L116.308 124.096C116.425 124.171 116.569 124.235 116.74 124.288C116.911 124.341 117.151 124.389 117.46 124.432C117.769 124.475 118.191 124.517 118.724 124.56C119.78 124.656 120.543 124.912 121.012 125.328C121.481 125.733 121.716 126.277 121.716 126.96C121.716 127.429 121.588 127.872 121.332 128.288C121.087 128.715 120.697 129.056 120.164 129.312C119.641 129.579 118.969 129.712 118.148 129.712C117.039 129.712 116.137 129.499 115.444 129.072C114.761 128.656 114.42 128.021 114.42 127.168C114.42 126.837 114.505 126.507 114.676 126.176C114.857 125.856 115.14 125.552 115.524 125.264C115.3 125.168 115.103 125.067 114.932 124.96C114.772 124.843 114.628 124.725 114.5 124.608V124.224L115.876 122.816C115.257 122.283 114.948 121.584 114.948 120.72C114.948 120.197 115.071 119.723 115.316 119.296C115.572 118.859 115.94 118.512 116.42 118.256C116.9 118 117.476 117.872 118.148 117.872C118.596 117.872 119.012 117.936 119.396 118.064H122.356V119.184L120.948 119.264C121.204 119.701 121.332 120.187 121.332 120.72C121.332 121.253 121.204 121.733 120.948 122.16C120.703 122.587 120.34 122.928 119.86 123.184C119.391 123.44 118.82 123.568 118.148 123.568ZM118.148 122.24C118.639 122.24 119.033 122.112 119.332 121.856C119.641 121.589 119.796 121.216 119.796 120.736C119.796 120.245 119.641 119.872 119.332 119.616C119.033 119.36 118.639 119.232 118.148 119.232C117.647 119.232 117.241 119.36 116.932 119.616C116.633 119.872 116.484 120.245 116.484 120.736C116.484 121.216 116.633 121.589 116.932 121.856C117.241 122.112 117.647 122.24 118.148 122.24ZM116.02 127.008C116.02 127.467 116.223 127.808 116.628 128.032C117.033 128.267 117.54 128.384 118.148 128.384C118.735 128.384 119.209 128.256 119.572 128C119.935 127.755 120.116 127.424 120.116 127.008C120.116 126.699 119.993 126.432 119.748 126.208C119.503 125.995 119.039 125.861 118.356 125.808C117.844 125.776 117.391 125.728 116.996 125.664C116.623 125.867 116.367 126.085 116.228 126.32C116.089 126.555 116.02 126.784 116.02 127.008ZM61.511 150V138.8H63.511L67.303 146.256L71.079 138.8H73.079V150H71.383V141.728L67.959 148.4H66.647L63.207 141.744V150H61.511ZM79.0028 150.192C78.2241 150.192 77.5308 150.021 76.9228 149.68C76.3254 149.328 75.8561 148.843 75.5148 148.224C75.1734 147.605 75.0028 146.885 75.0028 146.064C75.0028 145.232 75.1681 144.501 75.4988 143.872C75.8401 143.243 76.3094 142.752 76.9068 142.4C77.5148 142.048 78.2188 141.872 79.0188 141.872C79.7974 141.872 80.4748 142.048 81.0508 142.4C81.6268 142.741 82.0748 143.2 82.3948 143.776C82.7148 144.352 82.8748 144.987 82.8748 145.68C82.8748 145.787 82.8694 145.904 82.8588 146.032C82.8588 146.149 82.8534 146.283 82.8428 146.432H76.6668C76.7201 147.2 76.9708 147.787 77.4188 148.192C77.8774 148.587 78.4054 148.784 79.0028 148.784C79.4828 148.784 79.8828 148.677 80.2028 148.464C80.5334 148.24 80.7788 147.941 80.9388 147.568H82.6348C82.4214 148.315 81.9948 148.939 81.3548 149.44C80.7254 149.941 79.9414 150.192 79.0028 150.192ZM79.0028 143.264C78.4374 143.264 77.9361 143.435 77.4988 143.776C77.0614 144.107 76.7948 144.608 76.6988 145.28H81.1788C81.1468 144.661 80.9281 144.171 80.5228 143.808C80.1174 143.445 79.6108 143.264 79.0028 143.264ZM88.3465 150.192C87.5678 150.192 86.8745 150.021 86.2665 149.68C85.6692 149.328 85.1998 148.843 84.8585 148.224C84.5172 147.605 84.3465 146.885 84.3465 146.064C84.3465 145.232 84.5118 144.501 84.8425 143.872C85.1838 143.243 85.6532 142.752 86.2505 142.4C86.8585 142.048 87.5625 141.872 88.3625 141.872C89.1412 141.872 89.8185 142.048 90.3945 142.4C90.9705 142.741 91.4185 143.2 91.7385 143.776C92.0585 144.352 92.2185 144.987 92.2185 145.68C92.2185 145.787 92.2132 145.904 92.2025 146.032C92.2025 146.149 92.1972 146.283 92.1865 146.432H86.0105C86.0638 147.2 86.3145 147.787 86.7625 148.192C87.2212 148.587 87.7492 148.784 88.3465 148.784C88.8265 148.784 89.2265 148.677 89.5465 148.464C89.8772 148.24 90.1225 147.941 90.2825 147.568H91.9785C91.7652 148.315 91.3385 148.939 90.6985 149.44C90.0692 149.941 89.2852 150.192 88.3465 150.192ZM88.3465 143.264C87.7812 143.264 87.2798 143.435 86.8425 143.776C86.4052 144.107 86.1385 144.608 86.0425 145.28H90.5225C90.4905 144.661 90.2718 144.171 89.8665 143.808C89.4612 143.445 88.9545 143.264 88.3465 143.264ZM97.1031 150C96.3245 150 95.7058 149.813 95.2471 149.44C94.7885 149.056 94.5591 148.379 94.5591 147.408V143.488H93.1991V142.064H94.5591L94.7671 140.048H96.2551V142.064H98.4951V143.488H96.2551V147.408C96.2551 147.845 96.3458 148.149 96.5271 148.32C96.7191 148.48 97.0445 148.56 97.5031 148.56H98.4151V150H97.1031ZM101.204 140.56C100.884 140.56 100.617 140.464 100.404 140.272C100.201 140.069 100.1 139.819 100.1 139.52C100.1 139.221 100.201 138.976 100.404 138.784C100.617 138.581 100.884 138.48 101.204 138.48C101.524 138.48 101.785 138.581 101.988 138.784C102.201 138.976 102.308 139.221 102.308 139.52C102.308 139.819 102.201 140.069 101.988 140.272C101.785 140.464 101.524 140.56 101.204 140.56ZM100.356 150V142.064H102.052V150H100.356ZM104.291 150V142.064H105.795L105.923 143.456C106.168 142.965 106.525 142.581 106.995 142.304C107.475 142.016 108.024 141.872 108.643 141.872C109.603 141.872 110.355 142.171 110.899 142.768C111.453 143.365 111.731 144.256 111.731 145.44V150H110.051V145.616C110.051 144.08 109.421 143.312 108.163 143.312C107.533 143.312 107.011 143.536 106.595 143.984C106.189 144.432 105.987 145.072 105.987 145.904V150H104.291ZM116.976 147.568C116.56 147.568 116.176 147.52 115.824 147.424L115.136 148.096C115.254 148.171 115.398 148.235 115.568 148.288C115.739 148.341 115.979 148.389 116.288 148.432C116.598 148.475 117.019 148.517 117.552 148.56C118.608 148.656 119.371 148.912 119.84 149.328C120.31 149.733 120.544 150.277 120.544 150.96C120.544 151.429 120.416 151.872 120.16 152.288C119.915 152.715 119.526 153.056 118.992 153.312C118.47 153.579 117.798 153.712 116.976 153.712C115.867 153.712 114.966 153.499 114.272 153.072C113.59 152.656 113.248 152.021 113.248 151.168C113.248 150.837 113.334 150.507 113.504 150.176C113.686 149.856 113.968 149.552 114.352 149.264C114.128 149.168 113.931 149.067 113.76 148.96C113.6 148.843 113.456 148.725 113.328 148.608V148.224L114.704 146.816C114.086 146.283 113.776 145.584 113.776 144.72C113.776 144.197 113.899 143.723 114.144 143.296C114.4 142.859 114.768 142.512 115.248 142.256C115.728 142 116.304 141.872 116.976 141.872C117.424 141.872 117.84 141.936 118.224 142.064H121.184V143.184L119.776 143.264C120.032 143.701 120.16 144.187 120.16 144.72C120.16 145.253 120.032 145.733 119.776 146.16C119.531 146.587 119.168 146.928 118.688 147.184C118.219 147.44 117.648 147.568 116.976 147.568ZM116.976 146.24C117.467 146.24 117.862 146.112 118.16 145.856C118.47 145.589 118.624 145.216 118.624 144.736C118.624 144.245 118.47 143.872 118.16 143.616C117.862 143.36 117.467 143.232 116.976 143.232C116.475 143.232 116.07 143.36 115.76 143.616C115.462 143.872 115.312 144.245 115.312 144.736C115.312 145.216 115.462 145.589 115.76 145.856C116.07 146.112 116.475 146.24 116.976 146.24ZM114.848 151.008C114.848 151.467 115.051 151.808 115.456 152.032C115.862 152.267 116.368 152.384 116.976 152.384C117.563 152.384 118.038 152.256 118.4 152C118.763 151.755 118.944 151.424 118.944 151.008C118.944 150.699 118.822 150.432 118.576 150.208C118.331 149.995 117.867 149.861 117.184 149.808C116.672 149.776 116.219 149.728 115.824 149.664C115.451 149.867 115.195 150.085 115.056 150.32C114.918 150.555 114.848 150.784 114.848 151.008Z" fill="black"/>
</svg>
