<svg width="182" height="107" viewBox="0 0 182 107" fill="none" xmlns="http://www.w3.org/2000/svg">
<path d="M119.56 15.7742C118.977 15.1909 118.51 14.7476 118.043 14.3042C115.103 11.3642 112.163 8.42422 109.223 5.46089C108.92 5.15755 108.617 5.01755 108.173 5.01755C98.6766 5.01755 89.18 5.01755 79.6833 5.01755C79.45 5.01755 79.24 5.04089 79.0066 4.99422C78.4233 4.87755 78.0733 4.52755 78.0733 3.92089C78.0733 3.33755 78.4233 2.96422 79.0066 2.87089C79.17 2.84755 79.3566 2.84755 79.5433 2.84755C89.32 2.84755 99.12 2.84755 108.897 2.82422C109.48 2.82422 109.9 3.01089 110.32 3.43089C114.403 7.53755 118.463 11.6209 122.57 15.6809C123.037 16.1476 123.223 16.6142 123.223 17.2676C123.2 33.3676 123.223 49.4676 123.223 65.5676C123.223 65.7076 123.223 65.8476 123.223 65.9642C123.2 66.9209 122.85 67.3176 121.893 67.3176C117.273 67.3176 112.677 67.3176 108.057 67.3176C99.3066 67.3176 90.5566 67.3176 81.7833 67.3176C81.5966 67.3176 81.4333 67.3409 81.2466 67.3176C80.6633 67.2476 80.2433 66.8042 80.2433 66.2442C80.2433 65.6842 80.64 65.2409 81.2466 65.1709C81.48 65.1475 81.69 65.1709 81.9233 65.1709C94.7333 65.1709 107.543 65.1709 120.353 65.1942C120.96 65.1942 121.123 65.0542 121.123 64.4476C121.1 49.2109 121.1 33.9276 121.1 18.6676C121.1 18.0609 120.937 17.8976 120.33 17.9209C116.737 17.9442 113.167 17.9442 109.573 17.9442C108.523 17.9442 108.173 17.5942 108.173 16.5209C108.173 14.2109 108.173 11.9009 108.173 9.59089C108.173 8.75089 108.57 8.26089 109.247 8.26089C109.923 8.26089 110.32 8.75089 110.32 9.59089C110.32 11.4809 110.32 13.3476 110.32 15.2376C110.32 15.5876 110.343 15.7976 110.81 15.7976C113.68 15.7509 116.503 15.7742 119.56 15.7742Z" fill="#273339"/>
<path d="M63.07 43.54C62.0666 43.82 61.1566 43.75 60.3166 43.2134C59.3366 42.5834 58.8 41.6967 58.7766 40.53C58.7533 35.42 58.7066 30.31 58.8 25.2234C58.8466 22.4934 60.13 20.3 62.44 18.76C63.3033 18.1767 64.3066 17.8967 65.3566 17.92C68.6233 17.92 71.89 17.99 75.1566 17.8967C78.1666 17.8034 80.08 19.2967 81.4566 21.77C82.1333 22.9834 82.4366 24.3134 82.4366 25.69C82.4366 30.4034 82.3433 35.14 82.46 39.8534C82.53 42.1634 80.8733 44.2167 78.12 43.5634C78.12 43.8434 78.12 44.1 78.12 44.38C78.12 51.52 78.12 58.66 78.12 65.8C78.12 66.01 78.1433 66.1967 78.0966 66.4067C77.98 66.99 77.63 67.34 77.0466 67.34C76.4633 67.34 76.09 66.99 75.9966 66.4067C75.9733 66.2434 75.9733 66.1034 75.9733 65.94C75.9733 53.27 75.9733 40.6 75.9733 27.93C75.9733 27.7667 75.95 27.6034 75.9966 27.4634C76.1133 26.88 76.4633 26.53 77.0466 26.53C77.63 26.53 78.0033 26.88 78.12 27.44C78.1666 27.6267 78.1433 27.8367 78.1433 28.0467C78.1433 32.0134 78.1433 35.98 78.1433 39.9467C78.1433 40.1567 78.12 40.3434 78.1433 40.5534C78.2133 41.1367 78.6333 41.5567 79.1933 41.5567C79.7533 41.5567 80.1966 41.1367 80.2666 40.5534C80.29 40.4134 80.2666 40.2734 80.2666 40.1567C80.2666 35.3034 80.2666 30.45 80.2666 25.5734C80.2666 23.7067 79.4966 22.1434 78.0966 20.9067C77.4433 20.3234 76.65 20.0434 75.7633 20.0434C72.31 20.0434 68.8566 20.0434 65.4266 20.0434C64.5866 20.0434 63.84 20.3 63.1866 20.8134C61.7633 21.98 60.9466 23.52 60.9233 25.3634C60.8766 30.3334 60.9 35.3034 60.9 40.2734C60.9 41.0667 61.32 41.5334 61.9733 41.5334C62.6266 41.5334 63.0233 41.0434 63.0466 40.25C63.0466 40.1334 63.0466 40.0167 63.0466 39.9234C63.0466 35.9567 63.0466 31.99 63.0466 28.0234C63.0466 27.79 63.0233 27.5567 63.07 27.3467C63.21 26.81 63.56 26.4834 64.12 26.4834C64.68 26.4834 65.03 26.81 65.17 27.3467C65.2166 27.5334 65.1933 27.7434 65.1933 27.9534C65.1933 40.5767 65.1933 53.2001 65.1933 65.8467C65.1933 66.01 65.1933 66.15 65.1933 66.3134C65.1233 66.8967 64.68 67.3167 64.12 67.3167C63.56 67.3167 63.1166 66.8967 63.0466 66.3134C63.0233 66.1034 63.0466 65.9167 63.0466 65.7067C63.0466 58.5667 63.0466 51.4267 63.0466 44.2867C63.07 44.0767 63.07 43.8434 63.07 43.54Z" fill="#273339"/>
<path d="M70.5833 15.7744C67.0366 15.7744 64.1433 12.8578 64.1433 9.31109C64.1433 5.76443 67.06 2.87109 70.6066 2.87109C74.1766 2.87109 77.07 5.81109 77.0466 9.40443C77 12.9044 74.0833 15.7744 70.5833 15.7744ZM70.5366 5.01776C68.2033 5.01776 66.29 6.97776 66.29 9.31109C66.29 11.6911 68.2266 13.6278 70.5833 13.6278C72.9633 13.6278 74.8766 11.6911 74.8766 9.31109C74.8766 6.93109 72.9166 5.01776 70.5366 5.01776Z" fill="#29353B"/>
<path d="M71.6567 55.5341C71.6567 58.9641 71.6567 62.3708 71.6567 65.8008C71.6567 65.9641 71.6567 66.1041 71.6567 66.2674C71.61 66.8974 71.19 67.3408 70.6067 67.3641C70 67.3874 69.5333 66.9208 69.51 66.2441C69.4867 64.6108 69.51 62.9774 69.51 61.3441C69.51 56.0008 69.51 50.6574 69.51 45.3141C69.51 45.1274 69.51 44.9641 69.51 44.7774C69.5567 44.1474 70 43.7041 70.5833 43.7274C71.1667 43.7274 71.61 44.1708 71.6333 44.8008C71.6567 45.5241 71.6333 46.2241 71.6333 46.9474C71.6567 49.7941 71.6567 52.6641 71.6567 55.5341Z" fill="#273339"/>
<path d="M87.78 39.4108C88.48 39.4108 89.1566 39.3874 89.8566 39.4108C90.58 39.4341 90.9766 39.8308 91 40.5308C91.0233 41.9074 91.0233 43.3074 91 44.6841C91 45.4308 90.58 45.8274 89.81 45.8508C88.4566 45.8741 87.08 45.8741 85.7266 45.8508C84.98 45.8508 84.56 45.4308 84.56 44.6841C84.5366 43.3308 84.5366 41.9541 84.56 40.6008C84.56 39.8074 84.98 39.4341 85.7733 39.4108C86.45 39.4108 87.1033 39.4108 87.78 39.4108ZM88.8533 42.6774C88.8533 41.5574 88.8533 41.5574 87.7566 41.5574C86.7066 41.5574 86.7066 41.5574 86.7066 42.5841C86.7066 43.7041 86.7066 43.7041 87.8033 43.7041C88.8533 43.7041 88.8533 43.7041 88.8533 42.6774Z" fill="#273339"/>
<path d="M87.78 58.7544C87.08 58.7544 86.4033 58.7777 85.7033 58.7544C84.98 58.731 84.5833 58.3344 84.56 57.6344C84.5366 56.2577 84.5366 54.8577 84.56 53.481C84.56 52.7344 84.98 52.3377 85.75 52.3144C87.1033 52.291 88.48 52.291 89.8333 52.3144C90.58 52.3144 91 52.7344 91 53.481C91.0233 54.8344 91.0233 56.211 91 57.5644C91 58.3344 90.58 58.7544 89.7866 58.7544C89.11 58.7777 88.4566 58.7544 87.78 58.7544ZM87.7333 56.6077C88.8533 56.6077 88.8533 56.6077 88.8533 55.511C88.8533 54.4377 88.8533 54.4377 87.7566 54.4377C86.7066 54.4377 86.7066 54.4377 86.7066 55.5344C86.7066 56.6077 86.7066 56.6077 87.7333 56.6077Z" fill="#273339"/>
<path d="M108.197 28.6779C106.517 28.6779 104.837 28.6779 103.18 28.6779C102.27 28.6779 101.78 28.3046 101.757 27.6279C101.757 26.9279 102.247 26.5312 103.133 26.5312C106.54 26.5312 109.923 26.5312 113.33 26.5312C114.17 26.5312 114.66 26.9513 114.637 27.6279C114.637 28.3046 114.147 28.6779 113.283 28.6779C111.603 28.6779 109.9 28.6779 108.197 28.6779Z" fill="#273339"/>
<path d="M110.367 41.5568C108.64 41.5568 106.937 41.5568 105.21 41.5568C104.393 41.5568 103.88 41.1368 103.903 40.4602C103.927 39.8068 104.393 39.4102 105.21 39.4102C108.64 39.4102 112.093 39.4102 115.523 39.4102C116.317 39.4102 116.783 39.8302 116.783 40.4835C116.783 41.1368 116.317 41.5568 115.523 41.5568C113.82 41.5568 112.093 41.5568 110.367 41.5568Z" fill="#273339"/>
<path d="M101.757 45.8517C100.03 45.8517 98.3267 45.8517 96.6 45.8517C95.8067 45.8517 95.3167 45.4551 95.3167 44.8017C95.2933 44.1251 95.7833 43.7051 96.6233 43.7051C100.053 43.7051 103.507 43.7051 106.937 43.7051C107.73 43.7051 108.197 44.1251 108.197 44.7784C108.197 45.4317 107.707 45.8517 106.913 45.8517C105.21 45.8751 103.483 45.8517 101.757 45.8517Z" fill="#273339"/>
<path d="M85.75 15.0747C86.03 15.0747 86.2866 15.2614 86.52 15.518C86.9166 15.9847 87.36 16.4514 87.7333 16.9414C88.0366 17.338 88.2 17.3847 88.5733 16.988C89.53 15.9147 90.51 14.888 91.5133 13.8614C92.1199 13.2314 93.0066 13.3714 93.3333 14.0947C93.5433 14.538 93.4266 14.9347 93.1233 15.2614C91.7466 16.7547 90.3466 18.248 88.9466 19.718C88.4333 20.2547 87.78 20.2314 87.29 19.6947C86.45 18.7614 85.6566 17.8047 84.84 16.848C84.5366 16.498 84.4666 16.1014 84.6766 15.658C84.8866 15.2614 85.2133 15.0747 85.75 15.0747Z" fill="#29353B"/>
<path d="M93.4267 27.3476C93.4267 27.7909 93.24 28.0476 93.03 28.2809C91.6767 29.7276 90.3467 31.1509 88.9933 32.5742C88.41 33.1809 87.78 33.1576 87.1967 32.5042C86.4267 31.6176 85.68 30.7542 84.9333 29.8442C84.4433 29.2609 84.4667 28.6542 84.9333 28.2342C85.4233 27.7909 86.0533 27.8842 86.5667 28.4676C86.9167 28.8409 87.2433 29.2376 87.57 29.6342C88.1533 30.3109 88.1533 30.3109 88.7367 29.6809C89.67 28.6776 90.6033 27.6976 91.5367 26.6942C91.8867 26.3209 92.3067 26.2509 92.7733 26.4376C93.1933 26.6242 93.4033 26.9742 93.4267 27.3476Z" fill="#29353B"/>
<path d="M100.683 15.7736C99.33 15.7736 97.9533 15.7736 96.6 15.7736C95.8067 15.7736 95.3167 15.377 95.3167 14.7236C95.2933 14.047 95.7833 13.627 96.6233 13.627C99.33 13.627 102.037 13.627 104.72 13.627C105.56 13.627 106.05 14.047 106.05 14.7003C106.05 15.377 105.56 15.7503 104.697 15.7736C103.367 15.7736 102.013 15.7736 100.683 15.7736Z" fill="#273339"/>
<path d="M100.683 32.9709C99.3533 32.9709 98 32.9709 96.67 32.9709C95.83 32.9709 95.34 32.5742 95.3166 31.9209C95.2933 31.2442 95.8066 30.8242 96.6233 30.8242C99.33 30.8242 102.037 30.8242 104.743 30.8242C105.583 30.8242 106.073 31.2442 106.05 31.9209C106.05 32.5976 105.537 32.9709 104.697 32.9709C103.367 32.9709 102.013 32.9709 100.683 32.9709Z" fill="#273339"/>
<path d="M99.5867 54.4611C98.5833 54.4611 97.58 54.4611 96.5766 54.4611C95.7833 54.4611 95.3167 54.0411 95.3167 53.3878C95.3167 52.7345 95.8066 52.3145 96.5766 52.3145C98.6066 52.3145 100.637 52.3145 102.667 52.3145C103.437 52.3145 103.927 52.7578 103.903 53.4111C103.88 54.0411 103.413 54.4378 102.667 54.4611C101.64 54.4611 100.613 54.4611 99.5867 54.4611Z" fill="#29353B"/>
<path d="M98.5133 17.9205C99.2133 17.9205 99.89 17.9205 100.59 17.9205C101.313 17.9439 101.78 18.3872 101.757 19.0172C101.733 19.6239 101.29 20.0439 100.613 20.0672C99.2366 20.0905 97.8366 20.0905 96.46 20.0672C95.7833 20.0672 95.34 19.6005 95.3167 18.9939C95.3167 18.3872 95.76 17.9439 96.4367 17.9205C97.1133 17.8972 97.8133 17.9205 98.5133 17.9205Z" fill="#29353B"/>
<path d="M111.417 30.8248C112.117 30.8248 112.793 30.8015 113.493 30.8248C114.17 30.8482 114.637 31.2682 114.637 31.8748C114.66 32.5048 114.193 32.9715 113.47 32.9715C112.117 32.9948 110.74 32.9948 109.387 32.9715C108.663 32.9715 108.197 32.5282 108.197 31.8982C108.197 31.2682 108.663 30.8482 109.41 30.8248C110.087 30.8015 110.74 30.8248 111.417 30.8248Z" fill="#29353B"/>
<path d="M98.6067 39.41C99.2833 39.41 99.9367 39.3867 100.613 39.41C101.29 39.4334 101.757 39.8534 101.757 40.46C101.757 41.0667 101.313 41.5334 100.637 41.5334C99.2367 41.5567 97.8133 41.5567 96.4133 41.5334C95.7367 41.5334 95.2933 41.0434 95.2933 40.4367C95.2933 39.8301 95.76 39.4101 96.4367 39.3867C97.16 39.4101 97.8833 39.41 98.6067 39.41Z" fill="#29353B"/>
<path d="M104.977 58.754C104.277 58.754 103.6 58.7773 102.9 58.754C102.223 58.7307 101.757 58.3107 101.757 57.704C101.733 57.074 102.2 56.6073 102.923 56.6073C104.277 56.584 105.653 56.584 107.007 56.6073C107.73 56.6073 108.197 57.0507 108.197 57.6807C108.197 58.3107 107.73 58.7307 106.983 58.754C106.657 58.754 106.307 58.754 105.98 58.754C105.653 58.754 105.327 58.754 104.977 58.754Z" fill="#29353B"/>
<path d="M97.4633 26.5084C97.8133 26.5084 98.1867 26.4851 98.5367 26.5084C99.1667 26.5551 99.61 26.9751 99.61 27.5584C99.61 28.1418 99.19 28.6084 98.56 28.6318C97.8367 28.6551 97.09 28.6551 96.3433 28.6318C95.7133 28.6084 95.2933 28.1418 95.2933 27.5584C95.2933 26.9751 95.7367 26.5318 96.3667 26.5084C96.74 26.5084 97.09 26.5084 97.4633 26.5084Z" fill="#29353B"/>
<path d="M108.197 54.4611C107.823 54.4611 107.427 54.4844 107.053 54.4611C106.47 54.4144 106.05 53.9477 106.05 53.4111C106.05 52.8511 106.47 52.3611 107.03 52.3377C107.8 52.2911 108.593 52.2911 109.363 52.3377C109.947 52.3844 110.273 52.7577 110.32 53.3644C110.367 53.9244 109.947 54.4144 109.363 54.4611C108.99 54.4844 108.593 54.4611 108.197 54.4611Z" fill="#29353B"/>
<path d="M114.66 52.3151C115.01 52.3151 115.383 52.2917 115.733 52.3151C116.363 52.3617 116.807 52.7817 116.807 53.3651C116.807 53.9484 116.387 54.4151 115.757 54.4384C115.033 54.4617 114.287 54.4617 113.54 54.4384C112.91 54.4151 112.49 53.9484 112.49 53.3651C112.49 52.7817 112.933 52.3384 113.563 52.3151C113.937 52.2917 114.287 52.3151 114.66 52.3151Z" fill="#29353B"/>
<path d="M97.44 56.608C97.8133 56.608 98.21 56.5847 98.5833 56.608C99.1667 56.6547 99.5866 57.098 99.61 57.658C99.6333 58.2414 99.19 58.7314 98.5833 58.7547C97.86 58.778 97.1133 58.778 96.3667 58.7547C95.7367 58.7314 95.3167 58.2647 95.3167 57.6814C95.3167 57.098 95.76 56.6547 96.39 56.6314C96.74 56.5847 97.09 56.608 97.44 56.608Z" fill="#29353B"/>
<path d="M41.4414 102.192C40.62 102.192 39.9 102.048 39.2814 101.76C38.6627 101.472 38.1774 101.061 37.8254 100.528C37.484 99.9947 37.308 99.36 37.2974 98.624H39.0894C39.1 99.2213 39.308 99.728 39.7134 100.144C40.1187 100.56 40.6894 100.768 41.4254 100.768C42.076 100.768 42.5827 100.613 42.9454 100.304C43.3187 99.984 43.5054 99.5787 43.5054 99.088C43.5054 98.6933 43.4147 98.3733 43.2334 98.128C43.0627 97.8827 42.8227 97.68 42.5134 97.52C42.2147 97.36 41.868 97.216 41.4734 97.088C41.0787 96.96 40.6627 96.8213 40.2254 96.672C39.3614 96.384 38.7107 96.0107 38.2734 95.552C37.8467 95.0933 37.6334 94.4907 37.6334 93.744C37.6227 93.1147 37.7667 92.5653 38.0654 92.096C38.3747 91.6267 38.8014 91.264 39.3454 91.008C39.9 90.7413 40.5454 90.608 41.2814 90.608C42.0067 90.608 42.6414 90.7413 43.1854 91.008C43.74 91.2747 44.172 91.648 44.4814 92.128C44.7907 92.5973 44.9507 93.1467 44.9614 93.776H43.1694C43.1694 93.488 43.0947 93.216 42.9454 92.96C42.796 92.6933 42.5774 92.4747 42.2894 92.304C42.0014 92.1333 41.6494 92.048 41.2334 92.048C40.7 92.0373 40.2574 92.1707 39.9054 92.448C39.564 92.7253 39.3934 93.1093 39.3934 93.6C39.3934 94.0373 39.5214 94.3733 39.7774 94.608C40.0334 94.8427 40.3854 95.04 40.8334 95.2C41.2814 95.3493 41.7934 95.5253 42.3694 95.728C42.924 95.9093 43.42 96.128 43.8574 96.384C44.2947 96.64 44.6414 96.976 44.8974 97.392C45.164 97.808 45.2974 98.336 45.2974 98.976C45.2974 99.5413 45.1534 100.069 44.8654 100.56C44.5774 101.04 44.1454 101.435 43.5694 101.744C42.9934 102.043 42.284 102.192 41.4414 102.192ZM47.0876 105.52V94.064H48.6076L48.7836 95.296C49.0396 94.9227 49.3916 94.592 49.8396 94.304C50.2876 94.016 50.8636 93.872 51.5676 93.872C52.3356 93.872 53.013 94.0533 53.5996 94.416C54.1863 94.7787 54.645 95.2747 54.9756 95.904C55.317 96.5333 55.4876 97.248 55.4876 98.048C55.4876 98.848 55.317 99.5627 54.9756 100.192C54.645 100.811 54.1863 101.301 53.5996 101.664C53.013 102.016 52.3303 102.192 51.5516 102.192C50.933 102.192 50.3836 102.069 49.9036 101.824C49.4343 101.579 49.061 101.232 48.7836 100.784V105.52H47.0876ZM51.2636 100.72C51.989 100.72 52.5863 100.475 53.0556 99.984C53.525 99.4827 53.7596 98.832 53.7596 98.032C53.7596 97.5093 53.653 97.0453 53.4396 96.64C53.2263 96.2347 52.933 95.92 52.5596 95.696C52.1863 95.4613 51.7543 95.344 51.2636 95.344C50.5383 95.344 49.941 95.5947 49.4716 96.096C49.013 96.5973 48.7836 97.2427 48.7836 98.032C48.7836 98.832 49.013 99.4827 49.4716 99.984C49.941 100.475 50.5383 100.72 51.2636 100.72ZM57.322 102V94.064H58.842L58.986 95.568C59.2633 95.0453 59.6473 94.6347 60.138 94.336C60.6393 94.0267 61.242 93.872 61.946 93.872V95.648H61.482C61.0127 95.648 60.5913 95.728 60.218 95.888C59.8553 96.0373 59.562 96.2987 59.338 96.672C59.1247 97.0347 59.018 97.5413 59.018 98.192V102H57.322ZM64.3601 92.56C64.0401 92.56 63.7735 92.464 63.5601 92.272C63.3575 92.0693 63.2561 91.8187 63.2561 91.52C63.2561 91.2213 63.3575 90.976 63.5601 90.784C63.7735 90.5813 64.0401 90.48 64.3601 90.48C64.6801 90.48 64.9415 90.5813 65.1441 90.784C65.3575 90.976 65.4641 91.2213 65.4641 91.52C65.4641 91.8187 65.3575 92.0693 65.1441 92.272C64.9415 92.464 64.6801 92.56 64.3601 92.56ZM63.5121 102V94.064H65.2081V102H63.5121ZM67.447 102V94.064H68.951L69.079 95.456C69.3243 94.9653 69.6817 94.5813 70.151 94.304C70.631 94.016 71.1803 93.872 71.799 93.872C72.759 93.872 73.511 94.1707 74.055 94.768C74.6097 95.3653 74.887 96.256 74.887 97.44V102H73.207V97.616C73.207 96.08 72.5777 95.312 71.319 95.312C70.6897 95.312 70.167 95.536 69.751 95.984C69.3457 96.432 69.143 97.072 69.143 97.904V102H67.447ZM80.2125 102C79.4338 102 78.8152 101.813 78.3565 101.44C77.8978 101.056 77.6685 100.379 77.6685 99.408V95.488H76.3085V94.064H77.6685L77.8765 92.048H79.3645V94.064H81.6045V95.488H79.3645V99.408C79.3645 99.8453 79.4552 100.149 79.6365 100.32C79.8285 100.48 80.1538 100.56 80.6125 100.56H81.5245V102H80.2125ZM91.8485 102.192C91.2298 102.192 90.6805 102.069 90.2005 101.824C89.7312 101.579 89.3578 101.232 89.0805 100.784L88.9045 102H87.3845V90.48H89.0805V95.296C89.3365 94.9227 89.6885 94.592 90.1365 94.304C90.5845 94.016 91.1605 93.872 91.8645 93.872C92.6325 93.872 93.3098 94.0533 93.8965 94.416C94.4832 94.7787 94.9418 95.2747 95.2725 95.904C95.6138 96.5333 95.7845 97.248 95.7845 98.048C95.7845 98.848 95.6138 99.5627 95.2725 100.192C94.9418 100.811 94.4832 101.301 93.8965 101.664C93.3098 102.016 92.6272 102.192 91.8485 102.192ZM91.5605 100.72C92.2858 100.72 92.8832 100.475 93.3525 99.984C93.8218 99.4827 94.0565 98.832 94.0565 98.032C94.0565 97.5093 93.9498 97.0453 93.7365 96.64C93.5232 96.2347 93.2298 95.92 92.8565 95.696C92.4832 95.4613 92.0512 95.344 91.5605 95.344C90.8352 95.344 90.2378 95.5947 89.7685 96.096C89.3098 96.5973 89.0805 97.2427 89.0805 98.032C89.0805 98.832 89.3098 99.4827 89.7685 99.984C90.2378 100.475 90.8352 100.72 91.5605 100.72ZM100.307 102.192C99.6349 102.192 99.0802 102.08 98.6429 101.856C98.2055 101.632 97.8802 101.339 97.6669 100.976C97.4535 100.603 97.3469 100.197 97.3469 99.76C97.3469 98.992 97.6455 98.384 98.2429 97.936C98.8402 97.488 99.6935 97.264 100.803 97.264H102.883V97.12C102.883 96.5013 102.712 96.0373 102.371 95.728C102.04 95.4187 101.608 95.264 101.075 95.264C100.606 95.264 100.195 95.3813 99.8429 95.616C99.5015 95.84 99.2935 96.176 99.2189 96.624H97.5229C97.5762 96.048 97.7682 95.5573 98.0989 95.152C98.4402 94.736 98.8669 94.4213 99.3789 94.208C99.9015 93.984 100.472 93.872 101.091 93.872C102.2 93.872 103.059 94.1653 103.667 94.752C104.275 95.328 104.579 96.1173 104.579 97.12V102H103.107L102.963 100.64C102.739 101.077 102.414 101.445 101.987 101.744C101.56 102.043 101 102.192 100.307 102.192ZM100.643 100.816C101.102 100.816 101.486 100.709 101.795 100.496C102.115 100.272 102.36 99.9787 102.531 99.616C102.712 99.2533 102.824 98.8533 102.867 98.416H100.979C100.307 98.416 99.8269 98.5333 99.5389 98.768C99.2615 99.0027 99.1229 99.296 99.1229 99.648C99.1229 100.011 99.2562 100.299 99.5229 100.512C99.8002 100.715 100.174 100.816 100.643 100.816ZM110.316 102.192C109.538 102.192 108.839 102.016 108.22 101.664C107.612 101.312 107.132 100.827 106.78 100.208C106.439 99.5787 106.268 98.8533 106.268 98.032C106.268 97.2107 106.439 96.4907 106.78 95.872C107.132 95.2427 107.612 94.752 108.22 94.4C108.839 94.048 109.538 93.872 110.316 93.872C111.298 93.872 112.119 94.128 112.78 94.64C113.452 95.152 113.884 95.8453 114.076 96.72H112.3C112.194 96.2827 111.959 95.9413 111.596 95.696C111.234 95.4507 110.807 95.328 110.316 95.328C109.9 95.328 109.516 95.4347 109.164 95.648C108.812 95.8507 108.53 96.1547 108.316 96.56C108.103 96.9547 107.996 97.4453 107.996 98.032C107.996 98.6187 108.103 99.1147 108.316 99.52C108.53 99.9147 108.812 100.219 109.164 100.432C109.516 100.645 109.9 100.752 110.316 100.752C110.807 100.752 111.234 100.629 111.596 100.384C111.959 100.139 112.194 99.792 112.3 99.344H114.076C113.895 100.197 113.468 100.885 112.796 101.408C112.124 101.931 111.298 102.192 110.316 102.192ZM115.916 102V90.48H117.612V97.344L120.652 94.064H122.684L119.308 97.664L123.18 102H121.036L117.612 97.936V102H115.916ZM124.494 102V90.48H126.19V102H124.494ZM132.05 102.192C131.292 102.192 130.61 102.021 130.002 101.68C129.404 101.328 128.93 100.843 128.578 100.224C128.226 99.5947 128.05 98.864 128.05 98.032C128.05 97.2 128.226 96.4747 128.578 95.856C128.94 95.2267 129.426 94.7413 130.034 94.4C130.642 94.048 131.319 93.872 132.066 93.872C132.823 93.872 133.5 94.048 134.098 94.4C134.706 94.7413 135.186 95.2267 135.538 95.856C135.9 96.4747 136.082 97.2 136.082 98.032C136.082 98.864 135.9 99.5947 135.538 100.224C135.186 100.843 134.706 101.328 134.098 101.68C133.49 102.021 132.807 102.192 132.05 102.192ZM132.05 100.736C132.455 100.736 132.828 100.635 133.17 100.432C133.522 100.229 133.804 99.9307 134.018 99.536C134.231 99.1307 134.338 98.6293 134.338 98.032C134.338 97.4347 134.231 96.9387 134.018 96.544C133.815 96.1387 133.538 95.8347 133.186 95.632C132.844 95.4293 132.471 95.328 132.066 95.328C131.66 95.328 131.282 95.4293 130.93 95.632C130.588 95.8347 130.311 96.1387 130.098 96.544C129.884 96.9387 129.778 97.4347 129.778 98.032C129.778 98.6293 129.884 99.1307 130.098 99.536C130.311 99.9307 130.588 100.229 130.93 100.432C131.271 100.635 131.644 100.736 132.05 100.736ZM140.742 99.568C140.326 99.568 139.942 99.52 139.59 99.424L138.902 100.096C139.019 100.171 139.163 100.235 139.334 100.288C139.505 100.341 139.745 100.389 140.054 100.432C140.363 100.475 140.785 100.517 141.318 100.56C142.374 100.656 143.137 100.912 143.606 101.328C144.075 101.733 144.31 102.277 144.31 102.96C144.31 103.429 144.182 103.872 143.926 104.288C143.681 104.715 143.291 105.056 142.758 105.312C142.235 105.579 141.563 105.712 140.742 105.712C139.633 105.712 138.731 105.499 138.038 105.072C137.355 104.656 137.014 104.021 137.014 103.168C137.014 102.837 137.099 102.507 137.27 102.176C137.451 101.856 137.734 101.552 138.118 101.264C137.894 101.168 137.697 101.067 137.526 100.96C137.366 100.843 137.222 100.725 137.094 100.608V100.224L138.47 98.816C137.851 98.2827 137.542 97.584 137.542 96.72C137.542 96.1973 137.665 95.7227 137.91 95.296C138.166 94.8587 138.534 94.512 139.014 94.256C139.494 94 140.07 93.872 140.742 93.872C141.19 93.872 141.606 93.936 141.99 94.064H144.95V95.184L143.542 95.264C143.798 95.7013 143.926 96.1867 143.926 96.72C143.926 97.2533 143.798 97.7333 143.542 98.16C143.297 98.5867 142.934 98.928 142.454 99.184C141.985 99.44 141.414 99.568 140.742 99.568ZM140.742 98.24C141.233 98.24 141.627 98.112 141.926 97.856C142.235 97.5893 142.39 97.216 142.39 96.736C142.39 96.2453 142.235 95.872 141.926 95.616C141.627 95.36 141.233 95.232 140.742 95.232C140.241 95.232 139.835 95.36 139.526 95.616C139.227 95.872 139.078 96.2453 139.078 96.736C139.078 97.216 139.227 97.5893 139.526 97.856C139.835 98.112 140.241 98.24 140.742 98.24ZM138.614 103.008C138.614 103.467 138.817 103.808 139.222 104.032C139.627 104.267 140.134 104.384 140.742 104.384C141.329 104.384 141.803 104.256 142.166 104C142.529 103.755 142.71 103.424 142.71 103.008C142.71 102.699 142.587 102.432 142.342 102.208C142.097 101.995 141.633 101.861 140.95 101.808C140.438 101.776 139.985 101.728 139.59 101.664C139.217 101.867 138.961 102.085 138.822 102.32C138.683 102.555 138.614 102.784 138.614 103.008Z" fill="black"/>
</svg>
