<svg width="182" height="113" viewBox="0 0 182 113" fill="none" xmlns="http://www.w3.org/2000/svg">
<path d="M20.0195 102.192C19.1982 102.192 18.4782 102.048 17.8595 101.76C17.2408 101.472 16.7555 101.061 16.4035 100.528C16.0622 99.9947 15.8862 99.36 15.8755 98.624H17.6675C17.6782 99.2213 17.8862 99.728 18.2915 100.144C18.6968 100.56 19.2675 100.768 20.0035 100.768C20.6542 100.768 21.1608 100.613 21.5235 100.304C21.8968 99.984 22.0835 99.5787 22.0835 99.088C22.0835 98.6933 21.9928 98.3733 21.8115 98.128C21.6408 97.8827 21.4008 97.68 21.0915 97.52C20.7928 97.36 20.4462 97.216 20.0515 97.088C19.6568 96.96 19.2408 96.8213 18.8035 96.672C17.9395 96.384 17.2888 96.0107 16.8515 95.552C16.4248 95.0933 16.2115 94.4907 16.2115 93.744C16.2008 93.1147 16.3448 92.5653 16.6435 92.096C16.9528 91.6267 17.3795 91.264 17.9235 91.008C18.4782 90.7413 19.1235 90.608 19.8595 90.608C20.5848 90.608 21.2195 90.7413 21.7635 91.008C22.3182 91.2747 22.7502 91.648 23.0595 92.128C23.3688 92.5973 23.5288 93.1467 23.5395 93.776H21.7475C21.7475 93.488 21.6728 93.216 21.5235 92.96C21.3742 92.6933 21.1555 92.4747 20.8675 92.304C20.5795 92.1333 20.2275 92.048 19.8115 92.048C19.2782 92.0373 18.8355 92.1707 18.4835 92.448C18.1422 92.7253 17.9715 93.1093 17.9715 93.6C17.9715 94.0373 18.0995 94.3733 18.3555 94.608C18.6115 94.8427 18.9635 95.04 19.4115 95.2C19.8595 95.3493 20.3715 95.5253 20.9475 95.728C21.5022 95.9093 21.9982 96.128 22.4355 96.384C22.8728 96.64 23.2195 96.976 23.4755 97.392C23.7422 97.808 23.8755 98.336 23.8755 98.976C23.8755 99.5413 23.7315 100.069 23.4435 100.56C23.1555 101.04 22.7235 101.435 22.1475 101.744C21.5715 102.043 20.8622 102.192 20.0195 102.192ZM25.6658 105.52V94.064H27.1858L27.3618 95.296C27.6178 94.9227 27.9698 94.592 28.4178 94.304C28.8658 94.016 29.4418 93.872 30.1458 93.872C30.9138 93.872 31.5911 94.0533 32.1778 94.416C32.7644 94.7787 33.2231 95.2747 33.5538 95.904C33.8951 96.5333 34.0658 97.248 34.0658 98.048C34.0658 98.848 33.8951 99.5627 33.5538 100.192C33.2231 100.811 32.7644 101.301 32.1778 101.664C31.5911 102.016 30.9084 102.192 30.1298 102.192C29.5111 102.192 28.9618 102.069 28.4818 101.824C28.0124 101.579 27.6391 101.232 27.3618 100.784V105.52H25.6658ZM29.8418 100.72C30.5671 100.72 31.1644 100.475 31.6338 99.984C32.1031 99.4827 32.3378 98.832 32.3378 98.032C32.3378 97.5093 32.2311 97.0453 32.0178 96.64C31.8044 96.2347 31.5111 95.92 31.1378 95.696C30.7644 95.4613 30.3324 95.344 29.8418 95.344C29.1164 95.344 28.5191 95.5947 28.0498 96.096C27.5911 96.5973 27.3618 97.2427 27.3618 98.032C27.3618 98.832 27.5911 99.4827 28.0498 99.984C28.5191 100.475 29.1164 100.72 29.8418 100.72ZM35.9001 102V94.064H37.4201L37.5641 95.568C37.8415 95.0453 38.2255 94.6347 38.7161 94.336C39.2175 94.0267 39.8201 93.872 40.5241 93.872V95.648H40.0601C39.5908 95.648 39.1695 95.728 38.7961 95.888C38.4335 96.0373 38.1401 96.2987 37.9161 96.672C37.7028 97.0347 37.5961 97.5413 37.5961 98.192V102H35.9001ZM42.9383 92.56C42.6183 92.56 42.3516 92.464 42.1383 92.272C41.9356 92.0693 41.8343 91.8187 41.8343 91.52C41.8343 91.2213 41.9356 90.976 42.1383 90.784C42.3516 90.5813 42.6183 90.48 42.9383 90.48C43.2583 90.48 43.5196 90.5813 43.7223 90.784C43.9356 90.976 44.0423 91.2213 44.0423 91.52C44.0423 91.8187 43.9356 92.0693 43.7223 92.272C43.5196 92.464 43.2583 92.56 42.9383 92.56ZM42.0903 102V94.064H43.7863V102H42.0903ZM46.0251 102V94.064H47.5291L47.6571 95.456C47.9025 94.9653 48.2598 94.5813 48.7291 94.304C49.2091 94.016 49.7585 93.872 50.3771 93.872C51.3371 93.872 52.0891 94.1707 52.6331 94.768C53.1878 95.3653 53.4651 96.256 53.4651 97.44V102H51.7851V97.616C51.7851 96.08 51.1558 95.312 49.8971 95.312C49.2678 95.312 48.7451 95.536 48.3291 95.984C47.9238 96.432 47.7211 97.072 47.7211 97.904V102H46.0251ZM58.7906 102C58.012 102 57.3933 101.813 56.9346 101.44C56.476 101.056 56.2466 100.379 56.2466 99.408V95.488H54.8866V94.064H56.2466L56.4546 92.048H57.9426V94.064H60.1826V95.488H57.9426V99.408C57.9426 99.8453 58.0333 100.149 58.2146 100.32C58.4066 100.48 58.732 100.56 59.1906 100.56H60.1026V102H58.7906ZM65.9626 102V94.064H67.4826L67.6266 95.568C67.904 95.0453 68.288 94.6347 68.7786 94.336C69.28 94.0267 69.8826 93.872 70.5866 93.872V95.648H70.1226C69.6533 95.648 69.232 95.728 68.8586 95.888C68.496 96.0373 68.2026 96.2987 67.9786 96.672C67.7653 97.0347 67.6586 97.5413 67.6586 98.192V102H65.9626ZM75.534 102.192C74.7553 102.192 74.062 102.021 73.454 101.68C72.8567 101.328 72.3873 100.843 72.046 100.224C71.7047 99.6053 71.534 98.8853 71.534 98.064C71.534 97.232 71.6993 96.5013 72.03 95.872C72.3713 95.2427 72.8407 94.752 73.438 94.4C74.046 94.048 74.75 93.872 75.55 93.872C76.3287 93.872 77.006 94.048 77.582 94.4C78.158 94.7413 78.606 95.2 78.926 95.776C79.246 96.352 79.406 96.9867 79.406 97.68C79.406 97.7867 79.4007 97.904 79.39 98.032C79.39 98.1493 79.3847 98.2827 79.374 98.432H73.198C73.2513 99.2 73.502 99.7867 73.95 100.192C74.4087 100.587 74.9367 100.784 75.534 100.784C76.014 100.784 76.414 100.677 76.734 100.464C77.0647 100.24 77.31 99.9413 77.47 99.568H79.166C78.9527 100.315 78.526 100.939 77.886 101.44C77.2567 101.941 76.4727 102.192 75.534 102.192ZM75.534 95.264C74.9687 95.264 74.4673 95.4347 74.03 95.776C73.5927 96.1067 73.326 96.608 73.23 97.28H77.71C77.678 96.6613 77.4593 96.1707 77.054 95.808C76.6487 95.4453 76.142 95.264 75.534 95.264ZM84.2906 102C83.512 102 82.8933 101.813 82.4346 101.44C81.976 101.056 81.7466 100.379 81.7466 99.408V95.488H80.3866V94.064H81.7466L81.9546 92.048H83.4426V94.064H85.6826V95.488H83.4426V99.408C83.4426 99.8453 83.5333 100.149 83.7146 100.32C83.9066 100.48 84.232 100.56 84.6906 100.56H85.6026V102H84.2906ZM87.4314 102V94.064H88.9514L89.0954 95.568C89.3727 95.0453 89.7567 94.6347 90.2474 94.336C90.7487 94.0267 91.3514 93.872 92.0554 93.872V95.648H91.5914C91.122 95.648 90.7007 95.728 90.3274 95.888C89.9647 96.0373 89.6714 96.2987 89.4474 96.672C89.234 97.0347 89.1274 97.5413 89.1274 98.192V102H87.4314ZM97.0028 102.192C96.2454 102.192 95.5628 102.021 94.9548 101.68C94.3574 101.328 93.8828 100.843 93.5308 100.224C93.1788 99.5947 93.0028 98.864 93.0028 98.032C93.0028 97.2 93.1788 96.4747 93.5308 95.856C93.8934 95.2267 94.3788 94.7413 94.9868 94.4C95.5948 94.048 96.2721 93.872 97.0188 93.872C97.7761 93.872 98.4534 94.048 99.0508 94.4C99.6588 94.7413 100.139 95.2267 100.491 95.856C100.853 96.4747 101.035 97.2 101.035 98.032C101.035 98.864 100.853 99.5947 100.491 100.224C100.139 100.843 99.6588 101.328 99.0508 101.68C98.4428 102.021 97.7601 102.192 97.0028 102.192ZM97.0028 100.736C97.4081 100.736 97.7814 100.635 98.1228 100.432C98.4748 100.229 98.7574 99.9307 98.9708 99.536C99.1841 99.1307 99.2908 98.6293 99.2908 98.032C99.2908 97.4347 99.1841 96.9387 98.9708 96.544C98.7681 96.1387 98.4908 95.8347 98.1388 95.632C97.7974 95.4293 97.4241 95.328 97.0188 95.328C96.6134 95.328 96.2348 95.4293 95.8828 95.632C95.5414 95.8347 95.2641 96.1387 95.0508 96.544C94.8374 96.9387 94.7308 97.4347 94.7308 98.032C94.7308 98.6293 94.8374 99.1307 95.0508 99.536C95.2641 99.9307 95.5414 100.229 95.8828 100.432C96.2241 100.635 96.5974 100.736 97.0028 100.736ZM106.037 102.192C105.034 102.192 104.208 101.947 103.557 101.456C102.906 100.965 102.533 100.315 102.437 99.504H104.149C104.234 99.8667 104.437 100.181 104.757 100.448C105.077 100.704 105.498 100.832 106.021 100.832C106.533 100.832 106.906 100.725 107.141 100.512C107.376 100.299 107.493 100.053 107.493 99.776C107.493 99.3707 107.328 99.0987 106.997 98.96C106.677 98.8107 106.229 98.6773 105.653 98.56C105.205 98.464 104.757 98.336 104.309 98.176C103.872 98.016 103.504 97.792 103.205 97.504C102.917 97.2053 102.773 96.8053 102.773 96.304C102.773 95.6107 103.04 95.0347 103.573 94.576C104.106 94.1067 104.853 93.872 105.813 93.872C106.698 93.872 107.413 94.0853 107.957 94.512C108.512 94.9387 108.837 95.5413 108.933 96.32H107.301C107.248 95.9787 107.088 95.712 106.821 95.52C106.565 95.328 106.218 95.232 105.781 95.232C105.354 95.232 105.024 95.3227 104.789 95.504C104.554 95.6747 104.437 95.8987 104.437 96.176C104.437 96.4533 104.597 96.672 104.917 96.832C105.248 96.992 105.68 97.136 106.213 97.264C106.746 97.3813 107.237 97.52 107.685 97.68C108.144 97.8293 108.512 98.0533 108.789 98.352C109.066 98.6507 109.205 99.088 109.205 99.664C109.216 100.389 108.933 100.992 108.357 101.472C107.792 101.952 107.018 102.192 106.037 102.192ZM111.056 105.52V94.064H112.576L112.752 95.296C113.008 94.9227 113.36 94.592 113.808 94.304C114.256 94.016 114.832 93.872 115.536 93.872C116.304 93.872 116.982 94.0533 117.568 94.416C118.155 94.7787 118.614 95.2747 118.944 95.904C119.286 96.5333 119.456 97.248 119.456 98.048C119.456 98.848 119.286 99.5627 118.944 100.192C118.614 100.811 118.155 101.301 117.568 101.664C116.982 102.016 116.299 102.192 115.52 102.192C114.902 102.192 114.352 102.069 113.872 101.824C113.403 101.579 113.03 101.232 112.752 100.784V105.52H111.056ZM115.232 100.72C115.958 100.72 116.555 100.475 117.024 99.984C117.494 99.4827 117.728 98.832 117.728 98.032C117.728 97.5093 117.622 97.0453 117.408 96.64C117.195 96.2347 116.902 95.92 116.528 95.696C116.155 95.4613 115.723 95.344 115.232 95.344C114.507 95.344 113.91 95.5947 113.44 96.096C112.982 96.5973 112.752 97.2427 112.752 98.032C112.752 98.832 112.982 99.4827 113.44 99.984C113.91 100.475 114.507 100.72 115.232 100.72ZM125.003 102.192C124.224 102.192 123.531 102.021 122.923 101.68C122.325 101.328 121.856 100.843 121.515 100.224C121.173 99.6053 121.003 98.8853 121.003 98.064C121.003 97.232 121.168 96.5013 121.499 95.872C121.84 95.2427 122.309 94.752 122.907 94.4C123.515 94.048 124.219 93.872 125.019 93.872C125.797 93.872 126.475 94.048 127.051 94.4C127.627 94.7413 128.075 95.2 128.395 95.776C128.715 96.352 128.875 96.9867 128.875 97.68C128.875 97.7867 128.869 97.904 128.859 98.032C128.859 98.1493 128.853 98.2827 128.843 98.432H122.667C122.72 99.2 122.971 99.7867 123.419 100.192C123.877 100.587 124.405 100.784 125.003 100.784C125.483 100.784 125.883 100.677 126.203 100.464C126.533 100.24 126.779 99.9413 126.939 99.568H128.635C128.421 100.315 127.995 100.939 127.355 101.44C126.725 101.941 125.941 102.192 125.003 102.192ZM125.003 95.264C124.437 95.264 123.936 95.4347 123.499 95.776C123.061 96.1067 122.795 96.608 122.699 97.28H127.179C127.147 96.6613 126.928 96.1707 126.523 95.808C126.117 95.4453 125.611 95.264 125.003 95.264ZM134.395 102.192C133.616 102.192 132.917 102.016 132.299 101.664C131.691 101.312 131.211 100.827 130.859 100.208C130.517 99.5787 130.347 98.8533 130.347 98.032C130.347 97.2107 130.517 96.4907 130.859 95.872C131.211 95.2427 131.691 94.752 132.299 94.4C132.917 94.048 133.616 93.872 134.395 93.872C135.376 93.872 136.197 94.128 136.859 94.64C137.531 95.152 137.963 95.8453 138.155 96.72H136.379C136.272 96.2827 136.037 95.9413 135.675 95.696C135.312 95.4507 134.885 95.328 134.395 95.328C133.979 95.328 133.595 95.4347 133.243 95.648C132.891 95.8507 132.608 96.1547 132.395 96.56C132.181 96.9547 132.075 97.4453 132.075 98.032C132.075 98.6187 132.181 99.1147 132.395 99.52C132.608 99.9147 132.891 100.219 133.243 100.432C133.595 100.645 133.979 100.752 134.395 100.752C134.885 100.752 135.312 100.629 135.675 100.384C136.037 100.139 136.272 99.792 136.379 99.344H138.155C137.973 100.197 137.547 100.885 136.875 101.408C136.203 101.931 135.376 102.192 134.395 102.192ZM143.166 102C142.387 102 141.768 101.813 141.31 101.44C140.851 101.056 140.622 100.379 140.622 99.408V95.488H139.262V94.064H140.622L140.83 92.048H142.318V94.064H144.558V95.488H142.318V99.408C142.318 99.8453 142.408 100.149 142.59 100.32C142.782 100.48 143.107 100.56 143.566 100.56H144.478V102H143.166ZM147.266 92.56C146.946 92.56 146.68 92.464 146.466 92.272C146.264 92.0693 146.162 91.8187 146.162 91.52C146.162 91.2213 146.264 90.976 146.466 90.784C146.68 90.5813 146.946 90.48 147.266 90.48C147.586 90.48 147.848 90.5813 148.05 90.784C148.264 90.976 148.37 91.2213 148.37 91.52C148.37 91.8187 148.264 92.0693 148.05 92.272C147.848 92.464 147.586 92.56 147.266 92.56ZM146.418 102V94.064H148.114V102H146.418ZM152.577 102L149.601 94.064H151.377L153.585 100.384L155.793 94.064H157.553L154.593 102H152.577ZM162.253 102.192C161.474 102.192 160.781 102.021 160.173 101.68C159.575 101.328 159.106 100.843 158.765 100.224C158.423 99.6053 158.253 98.8853 158.253 98.064C158.253 97.232 158.418 96.5013 158.749 95.872C159.09 95.2427 159.559 94.752 160.157 94.4C160.765 94.048 161.469 93.872 162.269 93.872C163.047 93.872 163.725 94.048 164.301 94.4C164.877 94.7413 165.325 95.2 165.645 95.776C165.965 96.352 166.125 96.9867 166.125 97.68C166.125 97.7867 166.119 97.904 166.109 98.032C166.109 98.1493 166.103 98.2827 166.093 98.432H159.917C159.97 99.2 160.221 99.7867 160.669 100.192C161.127 100.587 161.655 100.784 162.253 100.784C162.733 100.784 163.133 100.677 163.453 100.464C163.783 100.24 164.029 99.9413 164.189 99.568H165.885C165.671 100.315 165.245 100.939 164.605 101.44C163.975 101.941 163.191 102.192 162.253 102.192ZM162.253 95.264C161.687 95.264 161.186 95.4347 160.749 95.776C160.311 96.1067 160.045 96.608 159.949 97.28H164.429C164.397 96.6613 164.178 96.1707 163.773 95.808C163.367 95.4453 162.861 95.264 162.253 95.264Z" fill="black"/>
<path d="M91 64.0967C77.42 64.0967 66.36 53.0133 66.3833 39.4333C66.4067 25.8533 77.49 14.7933 91.07 14.84C104.627 14.8867 115.64 25.9233 115.64 39.4567C115.64 53.06 104.557 64.12 91 64.0967ZM68.6233 39.4333C68.6 51.7533 78.61 61.81 90.93 61.8567C103.273 61.9033 113.353 51.8467 113.377 39.5033C113.4 27.1833 103.39 17.1267 91.07 17.08C78.7267 17.0567 68.6467 27.09 68.6233 39.4333Z" fill="#29353B"/>
<path d="M91 68.5768C77.2333 68.5768 65.1233 58.7768 62.51 45.3368C60.62 35.6535 63.07 27.0668 69.6733 19.6935C70.3033 18.9935 70.9567 18.9235 71.4933 19.4368C71.9833 19.9268 71.96 20.5335 71.3767 21.1635C69.51 23.1935 67.97 25.4568 66.7567 27.9535C60.5267 40.7635 65.8467 56.7002 78.4933 63.2335C92.9833 70.7235 110.343 64.1202 116.177 48.8835C120.4 37.8935 116.69 25.1068 107.217 18.0368C106.143 17.2435 106.097 16.8235 106.89 15.7268C107.613 14.7235 108.337 13.7202 109.06 12.7402C109.573 12.0635 110.157 11.9002 110.74 12.2968C111.323 12.6935 111.37 13.3702 110.857 14.0702C110.39 14.7235 109.923 15.4002 109.41 16.0302C109.083 16.4268 109.083 16.6602 109.527 17.0102C112.187 19.1568 114.38 21.7002 116.107 24.6402C119.21 29.9135 120.54 35.6068 120.027 41.7202C118.907 54.9968 109.34 65.6135 96.25 68.0868C94.5 68.4368 92.75 68.6002 91 68.5768Z" fill="#29353B"/>
<path d="M91 1.4238C92.05 1.4238 93.1 1.4238 94.15 1.4238C95.0833 1.4238 95.48 1.82047 95.48 2.73047C95.48 4.0838 95.48 5.43714 95.48 6.79047C95.48 7.74714 95.06 8.19047 94.1033 8.12047C93.3333 8.0738 93.1933 8.33047 93.2167 9.03047C93.2633 10.3838 93.24 10.4071 94.5233 10.5705C97.6733 10.9671 100.66 11.8305 103.53 13.2071C103.88 13.3705 104.23 13.5338 104.37 13.9071C104.533 14.3505 104.51 14.7938 104.16 15.1438C103.763 15.5405 103.297 15.5871 102.807 15.3538C101.547 14.7471 100.263 14.2105 98.91 13.8138C90.4867 11.3871 82.6233 12.6005 75.39 17.6405C74.6433 18.1771 74.0367 18.0605 73.5 17.3138C72.73 16.2405 71.9367 15.1671 71.1667 14.0938C70.6767 13.4171 70.7233 12.7638 71.2367 12.3671C71.7967 11.9238 72.45 12.0638 72.9633 12.7638C73.5 13.4638 74.0133 14.1871 74.5267 14.9105C74.7367 15.2138 74.8767 15.2605 75.2267 15.0505C78.6567 12.8105 82.4367 11.3871 86.4733 10.7338C87.78 10.5238 89.11 10.3838 90.44 10.4071C90.9067 10.4071 91.0233 10.2671 91 9.8238C90.9767 8.96047 90.9767 8.09714 91 7.2338C91 6.30047 91.3733 5.92713 92.3067 5.9038C93.24 5.9038 93.24 5.9038 93.24 4.94714C93.24 3.6638 93.24 3.6638 92.0033 3.6638C91.0933 3.6638 90.1833 3.68714 89.2733 3.6638C88.8767 3.6638 88.7133 3.75714 88.76 4.1538C88.7833 4.38714 88.7833 4.62047 88.76 4.8538C88.69 5.46047 88.2233 5.9038 87.6633 5.9038C87.08 5.9038 86.59 5.4838 86.5433 4.87714C86.4967 4.0838 86.4967 3.29047 86.5433 2.49714C86.5667 1.82047 87.0333 1.44714 87.78 1.44714C88.8533 1.40047 89.9267 1.4238 91 1.4238Z" fill="#29353B"/>
<path d="M92.12 29.8906C92.12 31.8506 92.12 33.8106 92.12 35.7706C92.12 36.1439 92.2133 36.3306 92.5633 36.5173C93.9867 37.2639 94.64 38.7806 94.2667 40.2739C93.87 41.7906 92.5633 42.8406 91 42.8406C89.4833 42.8406 88.1767 41.8139 87.78 40.3206C87.3833 38.8039 88.0133 37.2873 89.4367 36.5406C89.8567 36.3306 89.9033 36.0739 89.9033 35.6773C89.88 31.8273 89.9033 27.9773 89.9033 24.1506C89.9033 23.7073 89.9267 23.3106 90.2767 23.0073C90.6267 22.7039 91 22.6106 91.4433 22.7973C91.9567 23.0306 92.1433 23.4273 92.1433 23.9639C92.12 25.9239 92.12 27.9073 92.12 29.8906ZM92.12 39.5039C92.1433 38.8973 91.6533 38.3839 91.0467 38.3606C90.44 38.3373 89.9267 38.8273 89.9033 39.4106C89.88 40.0406 90.3933 40.5773 91 40.5773C91.6067 40.6006 92.0967 40.1106 92.12 39.5039Z" fill="#29353B"/>
<path d="M92.12 20.4636C92.12 21.0703 91.6066 21.5603 91 21.5603C90.37 21.5603 89.8566 21.0236 89.88 20.3936C89.9033 19.787 90.4166 19.3203 91.0233 19.3203C91.6533 19.3436 92.12 19.857 92.12 20.4636Z" fill="#29353B"/>
<path d="M78.68 26.0175C78.68 26.6008 78.1667 27.1375 77.5833 27.1608C76.9533 27.1842 76.44 26.6475 76.44 26.0175C76.44 25.4108 76.93 24.9208 77.56 24.9442C78.1667 24.9208 78.6567 25.4108 78.68 26.0175Z" fill="#29353B"/>
<path d="M71.96 38.3602C72.5667 38.3368 73.08 38.8268 73.1033 39.4335C73.1267 40.0635 72.6133 40.6002 71.9833 40.6002C71.3767 40.6002 70.8867 40.0868 70.8867 39.5035C70.8633 38.8735 71.3533 38.3835 71.96 38.3602Z" fill="#29353B"/>
<path d="M111.16 39.5034C111.137 40.1101 110.623 40.6001 110.017 40.5768C109.387 40.5768 108.873 40.0168 108.92 39.3868C108.967 38.7801 109.48 38.3134 110.087 38.3368C110.693 38.3834 111.16 38.9201 111.16 39.5034Z" fill="#29353B"/>
<path d="M78.68 52.9197C78.68 53.5263 78.19 54.0397 77.56 54.0397C76.93 54.0397 76.44 53.573 76.44 52.943C76.44 52.3363 76.93 51.823 77.5367 51.823C78.12 51.7997 78.6567 52.3363 78.68 52.9197Z" fill="#29353B"/>
<path d="M105.56 52.9664C105.537 53.573 105.07 54.0397 104.44 54.0397C103.833 54.0397 103.343 53.5497 103.32 52.943C103.32 52.3364 103.88 51.7764 104.487 51.823C105.117 51.8464 105.583 52.3597 105.56 52.9664Z" fill="#29353B"/>
<path d="M91 57.4004C91.6067 57.4004 92.12 57.8904 92.12 58.4971C92.1433 59.1271 91.6067 59.6637 90.9767 59.6404C90.37 59.6171 89.88 59.1271 89.88 58.5204C89.9033 57.8904 90.3933 57.4004 91 57.4004Z" fill="#29353B"/>
<path d="M104.44 24.9207C105.07 24.8974 105.56 25.3874 105.56 25.9941C105.56 26.6007 105.093 27.1141 104.487 27.1374C103.903 27.1607 103.367 26.6241 103.343 26.0407C103.32 25.4341 103.833 24.9207 104.44 24.9207Z" fill="#29353B"/>
<path d="M83.72 23.0065C83.09 23.0065 82.6233 22.5398 82.6 21.9331C82.6 21.3031 83.1133 20.7665 83.7433 20.7898C84.3266 20.8131 84.84 21.3265 84.84 21.9098C84.84 22.5165 84.35 22.9831 83.72 23.0065Z" fill="#29353B"/>
<path d="M74.5266 32.2709C74.5033 32.8775 73.99 33.3442 73.3833 33.3209C72.8 33.2975 72.2866 32.7609 72.31 32.1775C72.3333 31.5475 72.8933 31.0575 73.5 31.0809C74.1066 31.1275 74.55 31.6409 74.5266 32.2709Z" fill="#29353B"/>
<path d="M108.547 47.8807C107.94 47.8574 107.473 47.3674 107.473 46.7607C107.473 46.1541 107.963 45.6641 108.57 45.6641C109.2 45.6641 109.713 46.2241 109.69 46.8307C109.69 47.4141 109.153 47.9041 108.547 47.8807Z" fill="#29353B"/>
<path d="M98.3034 58.1706C97.72 58.1939 97.1834 57.6806 97.16 57.0973C97.1367 56.4906 97.6034 55.9773 98.2334 55.9539C98.8867 55.9306 99.4 56.4206 99.4 57.0506C99.4 57.6573 98.91 58.1706 98.3034 58.1706Z" fill="#29353B"/>
<path d="M98.3267 22.9831C97.6967 23.0064 97.2067 22.5164 97.1833 21.9097C97.16 21.3264 97.6733 20.7897 98.28 20.7664C98.8867 20.7431 99.4 21.2564 99.4233 21.8631C99.4233 22.4697 98.9333 22.9831 98.3267 22.9831Z" fill="#29353B"/>
<path d="M109.713 32.248C109.69 32.8547 109.13 33.3447 108.547 33.298C107.94 33.2747 107.473 32.7613 107.497 32.1313C107.52 31.5013 108.033 31.0347 108.64 31.0813C109.247 31.128 109.737 31.6647 109.713 32.248Z" fill="#29353B"/>
<path d="M74.5267 46.7606C74.5267 47.3906 74.0367 47.8806 73.43 47.8806C72.8233 47.8806 72.31 47.3673 72.31 46.7606C72.31 46.154 72.8233 45.6406 73.43 45.6406C74.0367 45.6406 74.5267 46.1306 74.5267 46.7606Z" fill="#29353B"/>
<path d="M83.6733 58.1706C83.0666 58.1473 82.5766 57.6106 82.6 57.004C82.6233 56.3973 83.1366 55.9306 83.7666 55.954C84.3966 55.9773 84.8633 56.4906 84.84 57.0973C84.8166 57.704 84.28 58.2173 83.6733 58.1706Z" fill="#29353B"/>
</svg>
