<svg width="182" height="113" viewBox="0 0 182 113" fill="none" xmlns="http://www.w3.org/2000/svg">
<path d="M46.4726 102.192C45.6513 102.192 44.9313 102.048 44.3126 101.76C43.694 101.472 43.2086 101.061 42.8566 100.528C42.5153 99.9947 42.3393 99.36 42.3286 98.624H44.1206C44.1313 99.2213 44.3393 99.728 44.7446 100.144C45.15 100.56 45.7206 100.768 46.4566 100.768C47.1073 100.768 47.614 100.613 47.9766 100.304C48.35 99.984 48.5366 99.5787 48.5366 99.088C48.5366 98.6933 48.446 98.3733 48.2646 98.128C48.094 97.8827 47.854 97.68 47.5446 97.52C47.246 97.36 46.8993 97.216 46.5046 97.088C46.11 96.96 45.694 96.8213 45.2566 96.672C44.3926 96.384 43.742 96.0107 43.3046 95.552C42.878 95.0933 42.6646 94.4907 42.6646 93.744C42.654 93.1147 42.798 92.5653 43.0966 92.096C43.406 91.6267 43.8326 91.264 44.3766 91.008C44.9313 90.7413 45.5766 90.608 46.3126 90.608C47.038 90.608 47.6726 90.7413 48.2166 91.008C48.7713 91.2747 49.2033 91.648 49.5126 92.128C49.822 92.5973 49.982 93.1467 49.9926 93.776H48.2006C48.2006 93.488 48.126 93.216 47.9766 92.96C47.8273 92.6933 47.6086 92.4747 47.3206 92.304C47.0326 92.1333 46.6806 92.048 46.2646 92.048C45.7313 92.0373 45.2886 92.1707 44.9366 92.448C44.5953 92.7253 44.4246 93.1093 44.4246 93.6C44.4246 94.0373 44.5526 94.3733 44.8086 94.608C45.0646 94.8427 45.4166 95.04 45.8646 95.2C46.3126 95.3493 46.8246 95.5253 47.4006 95.728C47.9553 95.9093 48.4513 96.128 48.8886 96.384C49.326 96.64 49.6726 96.976 49.9286 97.392C50.1953 97.808 50.3286 98.336 50.3286 98.976C50.3286 99.5413 50.1846 100.069 49.8966 100.56C49.6086 101.04 49.1766 101.435 48.6006 101.744C48.0246 102.043 47.3153 102.192 46.4726 102.192ZM52.1189 105.52V94.064H53.6389L53.8149 95.296C54.0709 94.9227 54.4229 94.592 54.8709 94.304C55.3189 94.016 55.8949 93.872 56.5989 93.872C57.3669 93.872 58.0442 94.0533 58.6309 94.416C59.2175 94.7787 59.6762 95.2747 60.0069 95.904C60.3482 96.5333 60.5189 97.248 60.5189 98.048C60.5189 98.848 60.3482 99.5627 60.0069 100.192C59.6762 100.811 59.2175 101.301 58.6309 101.664C58.0442 102.016 57.3615 102.192 56.5829 102.192C55.9642 102.192 55.4149 102.069 54.9349 101.824C54.4655 101.579 54.0922 101.232 53.8149 100.784V105.52H52.1189ZM56.2949 100.72C57.0202 100.72 57.6175 100.475 58.0869 99.984C58.5562 99.4827 58.7909 98.832 58.7909 98.032C58.7909 97.5093 58.6842 97.0453 58.4709 96.64C58.2575 96.2347 57.9642 95.92 57.5909 95.696C57.2175 95.4613 56.7855 95.344 56.2949 95.344C55.5695 95.344 54.9722 95.5947 54.5029 96.096C54.0442 96.5973 53.8149 97.2427 53.8149 98.032C53.8149 98.832 54.0442 99.4827 54.5029 99.984C54.9722 100.475 55.5695 100.72 56.2949 100.72ZM62.3533 102V94.064H63.8733L64.0173 95.568C64.2946 95.0453 64.6786 94.6347 65.1693 94.336C65.6706 94.0267 66.2733 93.872 66.9773 93.872V95.648H66.5133C66.0439 95.648 65.6226 95.728 65.2493 95.888C64.8866 96.0373 64.5933 96.2987 64.3693 96.672C64.1559 97.0347 64.0493 97.5413 64.0493 98.192V102H62.3533ZM69.3914 92.56C69.0714 92.56 68.8047 92.464 68.5914 92.272C68.3887 92.0693 68.2874 91.8187 68.2874 91.52C68.2874 91.2213 68.3887 90.976 68.5914 90.784C68.8047 90.5813 69.0714 90.48 69.3914 90.48C69.7114 90.48 69.9727 90.5813 70.1754 90.784C70.3887 90.976 70.4954 91.2213 70.4954 91.52C70.4954 91.8187 70.3887 92.0693 70.1754 92.272C69.9727 92.464 69.7114 92.56 69.3914 92.56ZM68.5434 102V94.064H70.2394V102H68.5434ZM72.4783 102V94.064H73.9823L74.1103 95.456C74.3556 94.9653 74.7129 94.5813 75.1823 94.304C75.6623 94.016 76.2116 93.872 76.8303 93.872C77.7903 93.872 78.5423 94.1707 79.0863 94.768C79.6409 95.3653 79.9183 96.256 79.9183 97.44V102H78.2383V97.616C78.2383 96.08 77.6089 95.312 76.3503 95.312C75.7209 95.312 75.1983 95.536 74.7823 95.984C74.3769 96.432 74.1743 97.072 74.1743 97.904V102H72.4783ZM85.2438 102C84.4651 102 83.8464 101.813 83.3878 101.44C82.9291 101.056 82.6998 100.379 82.6998 99.408V95.488H81.3398V94.064H82.6998L82.9078 92.048H84.3958V94.064H86.6358V95.488H84.3958V99.408C84.3958 99.8453 84.4864 100.149 84.6678 100.32C84.8598 100.48 85.1851 100.56 85.6438 100.56H86.5558V102H85.2438ZM92.4158 102V94.064H93.9358L94.0798 95.568C94.3571 95.0453 94.7411 94.6347 95.2318 94.336C95.7331 94.0267 96.3358 93.872 97.0398 93.872V95.648H96.5758C96.1064 95.648 95.6851 95.728 95.3118 95.888C94.9491 96.0373 94.6558 96.2987 94.4318 96.672C94.2184 97.0347 94.1118 97.5413 94.1118 98.192V102H92.4158ZM101.987 102.192C101.208 102.192 100.515 102.021 99.9071 101.68C99.3098 101.328 98.8405 100.843 98.4991 100.224C98.1578 99.6053 97.9871 98.8853 97.9871 98.064C97.9871 97.232 98.1525 96.5013 98.4831 95.872C98.8245 95.2427 99.2938 94.752 99.8911 94.4C100.499 94.048 101.203 93.872 102.003 93.872C102.782 93.872 103.459 94.048 104.035 94.4C104.611 94.7413 105.059 95.2 105.379 95.776C105.699 96.352 105.859 96.9867 105.859 97.68C105.859 97.7867 105.854 97.904 105.843 98.032C105.843 98.1493 105.838 98.2827 105.827 98.432H99.6511C99.7045 99.2 99.9551 99.7867 100.403 100.192C100.862 100.587 101.39 100.784 101.987 100.784C102.467 100.784 102.867 100.677 103.187 100.464C103.518 100.24 103.763 99.9413 103.923 99.568H105.619C105.406 100.315 104.979 100.939 104.339 101.44C103.71 101.941 102.926 102.192 101.987 102.192ZM101.987 95.264C101.422 95.264 100.92 95.4347 100.483 95.776C100.046 96.1067 99.7791 96.608 99.6831 97.28H104.163C104.131 96.6613 103.912 96.1707 103.507 95.808C103.102 95.4453 102.595 95.264 101.987 95.264ZM109.53 102L106.554 94.064H108.33L110.538 100.384L112.746 94.064H114.506L111.546 102H109.53ZM116.86 92.56C116.54 92.56 116.273 92.464 116.06 92.272C115.857 92.0693 115.756 91.8187 115.756 91.52C115.756 91.2213 115.857 90.976 116.06 90.784C116.273 90.5813 116.54 90.48 116.86 90.48C117.18 90.48 117.441 90.5813 117.644 90.784C117.857 90.976 117.964 91.2213 117.964 91.52C117.964 91.8187 117.857 92.0693 117.644 92.272C117.441 92.464 117.18 92.56 116.86 92.56ZM116.012 102V94.064H117.708V102H116.012ZM123.659 102.192C122.88 102.192 122.187 102.021 121.579 101.68C120.982 101.328 120.512 100.843 120.171 100.224C119.83 99.6053 119.659 98.8853 119.659 98.064C119.659 97.232 119.824 96.5013 120.155 95.872C120.496 95.2427 120.966 94.752 121.563 94.4C122.171 94.048 122.875 93.872 123.675 93.872C124.454 93.872 125.131 94.048 125.707 94.4C126.283 94.7413 126.731 95.2 127.051 95.776C127.371 96.352 127.531 96.9867 127.531 97.68C127.531 97.7867 127.526 97.904 127.515 98.032C127.515 98.1493 127.51 98.2827 127.499 98.432H121.323C121.376 99.2 121.627 99.7867 122.075 100.192C122.534 100.587 123.062 100.784 123.659 100.784C124.139 100.784 124.539 100.677 124.859 100.464C125.19 100.24 125.435 99.9413 125.595 99.568H127.291C127.078 100.315 126.651 100.939 126.011 101.44C125.382 101.941 124.598 102.192 123.659 102.192ZM123.659 95.264C123.094 95.264 122.592 95.4347 122.155 95.776C121.718 96.1067 121.451 96.608 121.355 97.28H125.835C125.803 96.6613 125.584 96.1707 125.179 95.808C124.774 95.4453 124.267 95.264 123.659 95.264ZM130.562 102L128.226 94.064H129.922L131.458 100.048L133.186 94.064H135.074L136.802 100.048L138.338 94.064H140.034L137.698 102H135.954L134.13 95.76L132.306 102H130.562Z" fill="black"/>
<path d="M91.7467 31.4999C91.7467 32.0599 91.8167 32.5265 91.7467 32.9699C91.3034 35.4432 88.5967 36.7265 86.4034 35.4665C86.03 35.2565 85.89 35.3032 85.6334 35.6065C84.1867 37.3332 81.6667 37.3332 80.1967 35.6299C79.52 34.8599 78.9134 34.0432 78.2834 33.2265C78.0734 33.3665 78.1667 33.5532 78.19 33.7165C78.2367 35.6999 78.0267 37.6832 78.3067 39.6432C78.7967 43.0032 80.6167 45.4299 83.65 46.9699C83.8367 47.0632 84.0234 47.1332 84.1867 47.2265C84.6767 47.5065 84.8634 47.9499 84.7 48.4865C84.56 48.9765 84.1634 49.3032 83.65 49.2099C83.1134 49.1165 83.1367 49.3732 83.1367 49.7232C82.9267 55.0899 82.6934 60.4332 82.4834 65.7999C82.46 66.5465 81.9934 67.0599 81.3634 67.0132C80.7334 66.9899 80.3134 66.4765 80.36 65.7065C80.5 61.9265 80.6634 58.1465 80.8267 54.3665C80.8967 52.3599 80.9667 50.3532 81.06 48.3699C81.0834 48.0432 80.9667 47.8332 80.71 47.6465C77.6067 45.1965 76.0667 41.9999 76.0667 38.0565C76.0667 35.0932 76.0667 32.1299 76.0667 29.1899C76.0667 26.5765 77.7 24.8032 80.3134 24.5932C80.57 24.5699 80.5934 24.4765 80.64 24.2899C81.2234 21.9332 82.9267 20.9532 85.19 20.5332C84.98 19.9732 84.77 19.4132 84.5367 18.8299C83.16 15.2599 81.76 11.6665 80.3834 8.09652C79.6134 6.08986 80.3367 4.12986 82.11 3.28986C83.9534 2.40319 86.0767 3.21986 86.9867 5.20319C88.2 7.79319 89.39 10.4065 90.6034 12.9965C91.3267 14.5365 92.05 16.0999 92.82 17.7565C93.45 16.1232 94.0334 14.5832 94.6167 13.0432C95.5967 10.4532 96.5534 7.83986 97.5567 5.27319C98.14 3.77986 99.61 2.86986 101.127 2.98652C102.76 3.10319 104.043 4.17652 104.417 5.73986C104.58 6.43986 104.51 7.13985 104.3 7.83985C102.783 13.0432 101.267 18.2232 99.75 23.4265C99.7034 23.5665 99.68 23.7299 99.61 23.8699C99.4467 24.2199 99.61 24.2665 99.9134 24.2665C102.247 24.3599 102.97 24.8965 103.763 27.1132C104.58 29.4232 105.397 31.7099 106.19 34.0199C107.17 36.8665 106.703 39.4565 104.767 41.7432C103.087 43.7265 101.383 45.7099 99.68 47.6699C99.3767 48.0199 99.26 48.3465 99.2834 48.8132C99.3767 54.3199 99.4467 59.8499 99.54 65.3565C99.54 65.4732 99.54 65.5899 99.54 65.6832C99.54 66.5465 99.12 67.0832 98.4667 67.0832C97.8134 67.0832 97.4167 66.5932 97.4167 65.7299C97.3467 60.8765 97.2534 56.0232 97.2067 51.1699C97.2067 50.7499 97.2067 50.5165 96.6234 50.5399C95.8067 50.5632 95.3867 49.6299 95.83 48.9299C95.9934 48.6732 96.2267 48.4399 96.4134 48.2065C98.63 45.6165 100.823 43.0265 103.063 40.4599C104.58 38.7099 104.953 36.7965 104.183 34.6265C103.343 32.2465 102.503 29.8432 101.663 27.4632C101.337 26.5299 101.127 26.3665 100.1 26.3665C96.9267 26.3665 93.73 26.3899 90.5567 26.3432C89.9734 26.3432 89.9034 26.5065 90.0434 27.0199C90.3934 28.3499 91.3034 29.2365 92.6567 29.4232C93.8934 29.6099 95.13 29.7732 96.3434 29.9599C97.0667 30.0765 97.3934 30.4265 97.4167 31.1499C97.44 32.2699 97.44 33.3665 97.44 34.4865C97.44 35.0699 97.1134 35.3732 96.6 35.5599C93.4967 36.6565 91.1634 38.6865 89.4367 41.4632C89.3667 41.5565 89.32 41.6499 89.2734 41.7432C88.8534 42.4199 88.2934 42.6299 87.7334 42.3265C87.15 41.9999 87.0334 41.3699 87.4534 40.6465C88.0134 39.6665 88.6667 38.7332 89.4367 37.8932C90.93 36.2365 92.68 34.9299 94.71 34.0199C95.13 33.8332 95.2934 33.6232 95.2934 33.1565C95.2467 31.9899 95.2934 31.9899 94.15 31.8265C93.3567 31.7099 92.5867 31.6165 91.7467 31.4999ZM93.1 24.2432C94.4534 24.2432 95.5267 24.2199 96.6234 24.2432C97.09 24.2665 97.3 24.1265 97.44 23.6365C98.1867 20.9765 98.98 18.3632 99.75 15.7032C100.59 12.8332 101.43 9.96319 102.27 7.06985C102.597 5.94985 101.92 4.99319 100.847 5.06319C100.053 5.10986 99.6567 5.62319 99.4 6.32319C97.6267 11.0832 95.8067 15.8199 94.0334 20.5799C93.8467 21.0932 93.5667 21.5132 92.96 21.5365C92.3534 21.5599 92.05 21.1632 91.8167 20.6732C91.0467 19.0165 90.3 17.3832 89.53 15.7265C88.0367 12.5299 86.5667 9.33319 85.0734 6.13652C84.7234 5.36652 84.21 5.03986 83.5334 5.08652C82.53 5.15652 81.9234 6.11319 82.2967 7.11652C82.9967 9.00652 83.7434 10.8965 84.4667 12.7632C85.89 16.4499 87.3134 20.1365 88.7367 23.7999C88.83 24.0099 88.7834 24.4299 89.18 24.3365C90.5567 24.0799 91.9567 24.3365 93.1 24.2432ZM89.67 32.3165C89.6934 32.0599 89.5767 31.8265 89.4834 31.5699C88.34 28.9332 87.1967 26.2732 86.0534 23.6365C85.82 23.0765 85.4234 22.6099 84.7934 22.7965C82.9034 23.3332 82.1567 24.8265 83.09 26.3899C83.79 27.5799 84.4667 28.7699 85.1667 29.9599C85.7734 30.9865 86.3334 32.0365 86.94 33.0632C87.3134 33.6932 87.9667 33.9499 88.5967 33.7399C89.25 33.5532 89.67 33.0399 89.67 32.3165ZM84.35 33.3665C84.3267 33.1565 84.3267 32.9232 84.21 32.7365C83.1367 30.9165 82.0634 29.0732 80.99 27.2299C80.71 26.7632 80.2667 26.6465 79.7767 26.7865C78.4234 27.1599 77.7 28.8632 78.5167 30.0065C79.59 31.4999 80.78 32.9232 81.9467 34.3465C82.32 34.8132 82.9034 34.9065 83.4634 34.6499C84.0234 34.4165 84.3267 33.9732 84.35 33.3665Z" fill="#29343A"/>
<path d="M77.0933 21.1397C77.0467 21.4897 76.86 21.8164 76.4633 22.0031C76.02 22.2131 75.6233 22.0964 75.2967 21.7931C74.5033 21.0931 73.71 20.3697 72.8933 19.6697C70.56 17.5931 68.25 15.5397 65.9167 13.4631C65.3333 12.9497 65.2167 12.4597 65.4967 11.9464C65.8933 11.2931 66.6167 11.2464 67.3167 11.8531C69.2533 13.5564 71.1667 15.2831 73.1033 16.9864C74.2467 18.0131 75.39 19.0164 76.5567 20.0431C76.86 20.3231 77.1167 20.6264 77.0933 21.1397Z" fill="#29343A"/>
<path d="M71.7734 41.4167C71.7267 41.9534 71.3534 42.2567 70.7934 42.4201C67.55 43.3767 64.3067 44.3567 61.04 45.3367C60.83 45.4067 60.62 45.4767 60.41 45.5234C59.7334 45.7101 59.15 45.4067 58.9867 44.8001C58.8234 44.2401 59.1734 43.6801 59.8034 43.4701C61.5767 42.9334 63.3734 42.3967 65.1467 41.8601C66.8734 41.3467 68.5767 40.8334 70.3034 40.3201C71.0967 40.1101 71.7734 40.6001 71.7734 41.4167Z" fill="#29343A"/>
<path d="M108.103 21.046C107.31 21.0693 106.75 20.2293 107.123 19.506C107.217 19.3426 107.357 19.1793 107.497 19.0393C109.503 17.0326 111.533 15.0026 113.54 12.996C113.843 12.6926 114.147 12.4593 114.59 12.506C115.033 12.5526 115.337 12.786 115.477 13.206C115.64 13.626 115.547 13.9993 115.243 14.326C113.12 16.4726 110.973 18.6193 108.827 20.7426C108.64 20.9293 108.407 21.0226 108.103 21.046Z" fill="#29343A"/>
<path d="M116.877 23.8689C116.853 24.2656 116.643 24.6156 116.223 24.8256C114.357 25.6656 112.513 26.5289 110.647 27.3456C110.063 27.6023 109.503 27.3689 109.247 26.8323C108.99 26.2956 109.177 25.7123 109.76 25.4323C111.627 24.5689 113.493 23.7056 115.383 22.8889C116.107 22.5623 116.853 23.0756 116.877 23.8689Z" fill="#29343A"/>
<path d="M115.71 45.5003C115.593 45.4769 115.407 45.4303 115.22 45.3603C113.517 44.7536 111.79 44.1236 110.087 43.4936C109.293 43.2136 108.967 42.6536 109.2 42.0469C109.433 41.4169 110.017 41.2069 110.81 41.4869C112.56 42.1169 114.31 42.7469 116.06 43.4003C116.62 43.6103 116.947 44.0303 116.83 44.6369C116.737 45.1736 116.363 45.4769 115.71 45.5003Z" fill="#29343A"/>
<path d="M65.4267 25.293C65.59 25.3396 65.7767 25.3863 65.9634 25.4563C67.5967 26.1096 69.2534 26.763 70.8867 27.4396C71.6334 27.743 71.9134 28.2796 71.7034 28.863C71.47 29.493 70.84 29.703 70.0934 29.423C68.4134 28.7463 66.71 28.093 65.03 27.393C64.47 27.1596 64.1667 26.7396 64.3067 26.133C64.4467 25.6196 64.8434 25.3396 65.4267 25.293Z" fill="#29343A"/>
<path d="M123.037 46.5962C123.013 47.3895 122.36 47.9262 121.707 47.7162C120.75 47.4128 119.817 47.0628 118.907 46.6895C118.37 46.4562 118.16 46.0128 118.347 45.4295C118.51 44.8695 119.023 44.5428 119.583 44.7062C120.563 45.0095 121.497 45.3828 122.453 45.7562C122.85 45.8962 123.013 46.2695 123.037 46.5962Z" fill="#29343A"/>
<path d="M119.747 23.1932C119.14 23.1465 118.767 22.9132 118.603 22.4465C118.44 21.9332 118.58 21.4665 119.023 21.2332C119.887 20.7898 120.773 20.3698 121.683 20.0198C122.173 19.8332 122.617 20.0665 122.873 20.5098C123.13 20.9532 123.107 21.4432 122.733 21.7232C121.823 22.4465 120.703 22.7732 119.747 23.1932Z" fill="#29343A"/>
<path d="M63.21 25.0137C63.2333 25.807 62.51 26.3437 61.7867 26.087C61.04 25.8304 60.2933 25.527 59.57 25.2004C59.0333 24.9437 58.8467 24.3837 59.0567 23.8704C59.29 23.3337 59.8033 23.077 60.3633 23.2637C61.11 23.5204 61.8567 23.847 62.58 24.1504C62.9767 24.2904 63.14 24.6404 63.21 25.0137Z" fill="#29343A"/>
</svg>
