<svg width="228" height="129" viewBox="0 0 228 129" fill="none" xmlns="http://www.w3.org/2000/svg">
<path d="M7.761 100V88.8H9.457V100H7.761ZM11.6658 100V92.064H13.1698L13.2978 93.456C13.5431 92.9653 13.9004 92.5813 14.3698 92.304C14.8498 92.016 15.3991 91.872 16.0178 91.872C16.9778 91.872 17.7298 92.1707 18.2738 92.768C18.8284 93.3653 19.1058 94.256 19.1058 95.44V100H17.4258V95.616C17.4258 94.08 16.7964 93.312 15.5378 93.312C14.9084 93.312 14.3858 93.536 13.9698 93.984C13.5644 94.432 13.3618 95.072 13.3618 95.904V100H11.6658ZM22.0633 90.56C21.7433 90.56 21.4766 90.464 21.2633 90.272C21.0606 90.0693 20.9593 89.8187 20.9593 89.52C20.9593 89.2213 21.0606 88.976 21.2633 88.784C21.4766 88.5813 21.7433 88.48 22.0633 88.48C22.3833 88.48 22.6446 88.5813 22.8473 88.784C23.0606 88.976 23.1673 89.2213 23.1673 89.52C23.1673 89.8187 23.0606 90.0693 22.8473 90.272C22.6446 90.464 22.3833 90.56 22.0633 90.56ZM21.2153 100V92.064H22.9113V100H21.2153ZM28.4781 100C27.6995 100 27.0808 99.8133 26.6221 99.44C26.1635 99.056 25.9341 98.3787 25.9341 97.408V93.488H24.5741V92.064H25.9341L26.1421 90.048H27.6301V92.064H29.8701V93.488H27.6301V97.408C27.6301 97.8453 27.7208 98.1493 27.9021 98.32C28.0941 98.48 28.4195 98.56 28.8781 98.56H29.7901V100H28.4781ZM32.5789 90.56C32.2589 90.56 31.9922 90.464 31.7789 90.272C31.5762 90.0693 31.4749 89.8187 31.4749 89.52C31.4749 89.2213 31.5762 88.976 31.7789 88.784C31.9922 88.5813 32.2589 88.48 32.5789 88.48C32.8989 88.48 33.1602 88.5813 33.3629 88.784C33.5762 88.976 33.6829 89.2213 33.6829 89.52C33.6829 89.8187 33.5762 90.0693 33.3629 90.272C33.1602 90.464 32.8989 90.56 32.5789 90.56ZM31.7309 100V92.064H33.4269V100H31.7309ZM38.3538 100.192C37.6818 100.192 37.1271 100.08 36.6898 99.856C36.2524 99.632 35.9271 99.3387 35.7138 98.976C35.5004 98.6027 35.3938 98.1973 35.3938 97.76C35.3938 96.992 35.6924 96.384 36.2898 95.936C36.8871 95.488 37.7404 95.264 38.8498 95.264H40.9298V95.12C40.9298 94.5013 40.7591 94.0373 40.4178 93.728C40.0871 93.4187 39.6551 93.264 39.1218 93.264C38.6524 93.264 38.2418 93.3813 37.8898 93.616C37.5484 93.84 37.3404 94.176 37.2658 94.624H35.5698C35.6231 94.048 35.8151 93.5573 36.1458 93.152C36.4871 92.736 36.9138 92.4213 37.4258 92.208C37.9484 91.984 38.5191 91.872 39.1378 91.872C40.2471 91.872 41.1058 92.1653 41.7138 92.752C42.3218 93.328 42.6258 94.1173 42.6258 95.12V100H41.1538L41.0098 98.64C40.7858 99.0773 40.4604 99.4453 40.0338 99.744C39.6071 100.043 39.0471 100.192 38.3538 100.192ZM38.6898 98.816C39.1484 98.816 39.5324 98.7093 39.8418 98.496C40.1618 98.272 40.4071 97.9787 40.5778 97.616C40.7591 97.2533 40.8711 96.8533 40.9138 96.416H39.0258C38.3538 96.416 37.8738 96.5333 37.5858 96.768C37.3084 97.0027 37.1698 97.296 37.1698 97.648C37.1698 98.0107 37.3031 98.2987 37.5698 98.512C37.8471 98.7147 38.2204 98.816 38.6898 98.816ZM44.6033 100V88.48H46.2993V100H44.6033ZM56.2383 100.192C55.4596 100.192 54.7609 100.016 54.1423 99.664C53.5343 99.312 53.0543 98.8267 52.7023 98.208C52.3609 97.5787 52.1903 96.8533 52.1903 96.032C52.1903 95.2107 52.3609 94.4907 52.7023 93.872C53.0543 93.2427 53.5343 92.752 54.1423 92.4C54.7609 92.048 55.4596 91.872 56.2383 91.872C57.2196 91.872 58.0409 92.128 58.7023 92.64C59.3743 93.152 59.8063 93.8453 59.9983 94.72H58.2223C58.1156 94.2827 57.8809 93.9413 57.5183 93.696C57.1556 93.4507 56.7289 93.328 56.2383 93.328C55.8223 93.328 55.4383 93.4347 55.0863 93.648C54.7343 93.8507 54.4516 94.1547 54.2383 94.56C54.0249 94.9547 53.9183 95.4453 53.9183 96.032C53.9183 96.6187 54.0249 97.1147 54.2383 97.52C54.4516 97.9147 54.7343 98.2187 55.0863 98.432C55.4383 98.6453 55.8223 98.752 56.2383 98.752C56.7289 98.752 57.1556 98.6293 57.5183 98.384C57.8809 98.1387 58.1156 97.792 58.2223 97.344H59.9983C59.8169 98.1973 59.3903 98.8853 58.7183 99.408C58.0463 99.9307 57.2196 100.192 56.2383 100.192ZM65.5496 100.192C64.7923 100.192 64.1096 100.021 63.5016 99.68C62.9043 99.328 62.4296 98.8427 62.0776 98.224C61.7256 97.5947 61.5496 96.864 61.5496 96.032C61.5496 95.2 61.7256 94.4747 62.0776 93.856C62.4403 93.2267 62.9256 92.7413 63.5336 92.4C64.1416 92.048 64.819 91.872 65.5656 91.872C66.323 91.872 67.0003 92.048 67.5976 92.4C68.2056 92.7413 68.6856 93.2267 69.0376 93.856C69.4003 94.4747 69.5816 95.2 69.5816 96.032C69.5816 96.864 69.4003 97.5947 69.0376 98.224C68.6856 98.8427 68.2056 99.328 67.5976 99.68C66.9896 100.021 66.307 100.192 65.5496 100.192ZM65.5496 98.736C65.955 98.736 66.3283 98.6347 66.6696 98.432C67.0216 98.2293 67.3043 97.9307 67.5176 97.536C67.731 97.1307 67.8376 96.6293 67.8376 96.032C67.8376 95.4347 67.731 94.9387 67.5176 94.544C67.315 94.1387 67.0376 93.8347 66.6856 93.632C66.3443 93.4293 65.971 93.328 65.5656 93.328C65.1603 93.328 64.7816 93.4293 64.4296 93.632C64.0883 93.8347 63.811 94.1387 63.5976 94.544C63.3843 94.9387 63.2776 95.4347 63.2776 96.032C63.2776 96.6293 63.3843 97.1307 63.5976 97.536C63.811 97.9307 64.0883 98.2293 64.4296 98.432C64.771 98.6347 65.1443 98.736 65.5496 98.736ZM71.4158 100V92.064H72.9198L73.0478 93.456C73.2931 92.9653 73.6504 92.5813 74.1198 92.304C74.5998 92.016 75.1491 91.872 75.7678 91.872C76.7278 91.872 77.4798 92.1707 78.0238 92.768C78.5784 93.3653 78.8558 94.256 78.8558 95.44V100H77.1758V95.616C77.1758 94.08 76.5464 93.312 75.2878 93.312C74.6584 93.312 74.1358 93.536 73.7198 93.984C73.3144 94.432 73.1118 95.072 73.1118 95.904V100H71.4158ZM84.1813 100C83.4026 100 82.7839 99.8133 82.3253 99.44C81.8666 99.056 81.6373 98.3787 81.6373 97.408V93.488H80.2773V92.064H81.6373L81.8453 90.048H83.3333V92.064H85.5733V93.488H83.3333V97.408C83.3333 97.8453 83.4239 98.1493 83.6053 98.32C83.7973 98.48 84.1226 98.56 84.5813 98.56H85.4933V100H84.1813ZM90.01 100.192C89.338 100.192 88.7833 100.08 88.346 99.856C87.9087 99.632 87.5833 99.3387 87.37 98.976C87.1567 98.6027 87.05 98.1973 87.05 97.76C87.05 96.992 87.3487 96.384 87.946 95.936C88.5433 95.488 89.3967 95.264 90.506 95.264H92.586V95.12C92.586 94.5013 92.4153 94.0373 92.074 93.728C91.7433 93.4187 91.3113 93.264 90.778 93.264C90.3087 93.264 89.898 93.3813 89.546 93.616C89.2047 93.84 88.9967 94.176 88.922 94.624H87.226C87.2793 94.048 87.4713 93.5573 87.802 93.152C88.1433 92.736 88.57 92.4213 89.082 92.208C89.6047 91.984 90.1753 91.872 90.794 91.872C91.9033 91.872 92.762 92.1653 93.37 92.752C93.978 93.328 94.282 94.1173 94.282 95.12V100H92.81L92.666 98.64C92.442 99.0773 92.1167 99.4453 91.69 99.744C91.2633 100.043 90.7033 100.192 90.01 100.192ZM90.346 98.816C90.8047 98.816 91.1887 98.7093 91.498 98.496C91.818 98.272 92.0633 97.9787 92.234 97.616C92.4153 97.2533 92.5273 96.8533 92.57 96.416H90.682C90.01 96.416 89.53 96.5333 89.242 96.768C88.9647 97.0027 88.826 97.296 88.826 97.648C88.826 98.0107 88.9593 98.2987 89.226 98.512C89.5033 98.7147 89.8767 98.816 90.346 98.816ZM100.02 100.192C99.2408 100.192 98.5422 100.016 97.9235 99.664C97.3155 99.312 96.8355 98.8267 96.4835 98.208C96.1422 97.5787 95.9715 96.8533 95.9715 96.032C95.9715 95.2107 96.1422 94.4907 96.4835 93.872C96.8355 93.2427 97.3155 92.752 97.9235 92.4C98.5422 92.048 99.2408 91.872 100.02 91.872C101.001 91.872 101.822 92.128 102.484 92.64C103.156 93.152 103.588 93.8453 103.78 94.72H102.004C101.897 94.2827 101.662 93.9413 101.3 93.696C100.937 93.4507 100.51 93.328 100.02 93.328C99.6035 93.328 99.2195 93.4347 98.8675 93.648C98.5155 93.8507 98.2328 94.1547 98.0195 94.56C97.8062 94.9547 97.6995 95.4453 97.6995 96.032C97.6995 96.6187 97.8062 97.1147 98.0195 97.52C98.2328 97.9147 98.5155 98.2187 98.8675 98.432C99.2195 98.6453 99.6035 98.752 100.02 98.752C100.51 98.752 100.937 98.6293 101.3 98.384C101.662 98.1387 101.897 97.792 102.004 97.344H103.78C103.598 98.1973 103.172 98.8853 102.5 99.408C101.828 99.9307 101.001 100.192 100.02 100.192ZM108.791 100C108.012 100 107.393 99.8133 106.935 99.44C106.476 99.056 106.247 98.3787 106.247 97.408V93.488H104.887V92.064H106.247L106.455 90.048H107.943V92.064H110.183V93.488H107.943V97.408C107.943 97.8453 108.033 98.1493 108.215 98.32C108.407 98.48 108.732 98.56 109.191 98.56H110.103V100H108.791ZM118.651 100.192C117.979 100.192 117.424 100.08 116.987 99.856C116.549 99.632 116.224 99.3387 116.011 98.976C115.797 98.6027 115.691 98.1973 115.691 97.76C115.691 96.992 115.989 96.384 116.587 95.936C117.184 95.488 118.037 95.264 119.147 95.264H121.227V95.12C121.227 94.5013 121.056 94.0373 120.715 93.728C120.384 93.4187 119.952 93.264 119.419 93.264C118.949 93.264 118.539 93.3813 118.187 93.616C117.845 93.84 117.637 94.176 117.563 94.624H115.867C115.92 94.048 116.112 93.5573 116.443 93.152C116.784 92.736 117.211 92.4213 117.723 92.208C118.245 91.984 118.816 91.872 119.435 91.872C120.544 91.872 121.403 92.1653 122.011 92.752C122.619 93.328 122.923 94.1173 122.923 95.12V100H121.451L121.307 98.64C121.083 99.0773 120.757 99.4453 120.331 99.744C119.904 100.043 119.344 100.192 118.651 100.192ZM118.987 98.816C119.445 98.816 119.829 98.7093 120.139 98.496C120.459 98.272 120.704 97.9787 120.875 97.616C121.056 97.2533 121.168 96.8533 121.211 96.416H119.323C118.651 96.416 118.171 96.5333 117.883 96.768C117.605 97.0027 117.467 97.296 117.467 97.648C117.467 98.0107 117.6 98.2987 117.867 98.512C118.144 98.7147 118.517 98.816 118.987 98.816ZM124.9 100V92.064H126.404L126.532 93.456C126.777 92.9653 127.135 92.5813 127.604 92.304C128.084 92.016 128.633 91.872 129.252 91.872C130.212 91.872 130.964 92.1707 131.508 92.768C132.063 93.3653 132.34 94.256 132.34 95.44V100H130.66V95.616C130.66 94.08 130.031 93.312 128.772 93.312C128.143 93.312 127.62 93.536 127.204 93.984C126.799 94.432 126.596 95.072 126.596 95.904V100H124.9ZM137.954 100.192C137.186 100.192 136.508 100.011 135.922 99.648C135.335 99.2853 134.876 98.7893 134.546 98.16C134.215 97.5307 134.05 96.816 134.05 96.016C134.05 95.216 134.215 94.5067 134.546 93.888C134.876 93.2587 135.335 92.768 135.922 92.416C136.519 92.0533 137.202 91.872 137.97 91.872C138.599 91.872 139.148 91.9947 139.618 92.24C140.098 92.4853 140.471 92.832 140.738 93.28V88.48H142.434V100H140.914L140.738 98.768C140.482 99.1413 140.13 99.472 139.682 99.76C139.234 100.048 138.658 100.192 137.954 100.192ZM138.258 98.72C138.983 98.72 139.575 98.4693 140.034 97.968C140.503 97.4667 140.738 96.8213 140.738 96.032C140.738 95.232 140.503 94.5867 140.034 94.096C139.575 93.5947 138.983 93.344 138.258 93.344C137.532 93.344 136.935 93.5947 136.466 94.096C135.996 94.5867 135.762 95.232 135.762 96.032C135.762 96.5547 135.868 97.0187 136.082 97.424C136.295 97.8293 136.588 98.1493 136.962 98.384C137.346 98.608 137.778 98.72 138.258 98.72ZM152.219 100.192C151.451 100.192 150.774 100.011 150.187 99.648C149.601 99.2853 149.142 98.7893 148.811 98.16C148.481 97.5307 148.315 96.816 148.315 96.016C148.315 95.216 148.481 94.5067 148.811 93.888C149.142 93.2587 149.601 92.768 150.187 92.416C150.785 92.0533 151.467 91.872 152.235 91.872C152.865 91.872 153.414 91.9947 153.883 92.24C154.363 92.4853 154.737 92.832 155.003 93.28V88.48H156.699V100H155.179L155.003 98.768C154.747 99.1413 154.395 99.472 153.947 99.76C153.499 100.048 152.923 100.192 152.219 100.192ZM152.523 98.72C153.249 98.72 153.841 98.4693 154.299 97.968C154.769 97.4667 155.003 96.8213 155.003 96.032C155.003 95.232 154.769 94.5867 154.299 94.096C153.841 93.5947 153.249 93.344 152.523 93.344C151.798 93.344 151.201 93.5947 150.731 94.096C150.262 94.5867 150.027 95.232 150.027 96.032C150.027 96.5547 150.134 97.0187 150.347 97.424C150.561 97.8293 150.854 98.1493 151.227 98.384C151.611 98.608 152.043 98.72 152.523 98.72ZM159.798 90.56C159.478 90.56 159.211 90.464 158.998 90.272C158.795 90.0693 158.694 89.8187 158.694 89.52C158.694 89.2213 158.795 88.976 158.998 88.784C159.211 88.5813 159.478 88.48 159.798 88.48C160.118 88.48 160.379 88.5813 160.582 88.784C160.795 88.976 160.902 89.2213 160.902 89.52C160.902 89.8187 160.795 90.0693 160.582 90.272C160.379 90.464 160.118 90.56 159.798 90.56ZM158.95 100V92.064H160.646V100H158.95ZM166.053 100.192C165.05 100.192 164.223 99.9467 163.573 99.456C162.922 98.9653 162.549 98.3147 162.453 97.504H164.164C164.25 97.8667 164.453 98.1813 164.773 98.448C165.093 98.704 165.514 98.832 166.036 98.832C166.549 98.832 166.922 98.7253 167.157 98.512C167.391 98.2987 167.509 98.0533 167.509 97.776C167.509 97.3707 167.343 97.0987 167.013 96.96C166.693 96.8107 166.245 96.6773 165.669 96.56C165.221 96.464 164.773 96.336 164.325 96.176C163.887 96.016 163.519 95.792 163.221 95.504C162.933 95.2053 162.789 94.8053 162.789 94.304C162.789 93.6107 163.055 93.0347 163.589 92.576C164.122 92.1067 164.869 91.872 165.829 91.872C166.714 91.872 167.429 92.0853 167.973 92.512C168.527 92.9387 168.853 93.5413 168.949 94.32H167.317C167.263 93.9787 167.103 93.712 166.837 93.52C166.581 93.328 166.234 93.232 165.797 93.232C165.37 93.232 165.039 93.3227 164.805 93.504C164.57 93.6747 164.453 93.8987 164.453 94.176C164.453 94.4533 164.613 94.672 164.933 94.832C165.263 94.992 165.695 95.136 166.229 95.264C166.762 95.3813 167.253 95.52 167.701 95.68C168.159 95.8293 168.527 96.0533 168.805 96.352C169.082 96.6507 169.221 97.088 169.221 97.664C169.231 98.3893 168.949 98.992 168.373 99.472C167.807 99.952 167.034 100.192 166.053 100.192ZM174.832 100.192C174.053 100.192 173.355 100.016 172.736 99.664C172.128 99.312 171.648 98.8267 171.296 98.208C170.955 97.5787 170.784 96.8533 170.784 96.032C170.784 95.2107 170.955 94.4907 171.296 93.872C171.648 93.2427 172.128 92.752 172.736 92.4C173.355 92.048 174.053 91.872 174.832 91.872C175.813 91.872 176.635 92.128 177.296 92.64C177.968 93.152 178.4 93.8453 178.592 94.72H176.816C176.709 94.2827 176.475 93.9413 176.112 93.696C175.749 93.4507 175.323 93.328 174.832 93.328C174.416 93.328 174.032 93.4347 173.68 93.648C173.328 93.8507 173.045 94.1547 172.832 94.56C172.619 94.9547 172.512 95.4453 172.512 96.032C172.512 96.6187 172.619 97.1147 172.832 97.52C173.045 97.9147 173.328 98.2187 173.68 98.432C174.032 98.6453 174.416 98.752 174.832 98.752C175.323 98.752 175.749 98.6293 176.112 98.384C176.475 98.1387 176.709 97.792 176.816 97.344H178.592C178.411 98.1973 177.984 98.8853 177.312 99.408C176.64 99.9307 175.813 100.192 174.832 100.192ZM184.143 100.192C183.386 100.192 182.703 100.021 182.095 99.68C181.498 99.328 181.023 98.8427 180.671 98.224C180.319 97.5947 180.143 96.864 180.143 96.032C180.143 95.2 180.319 94.4747 180.671 93.856C181.034 93.2267 181.519 92.7413 182.127 92.4C182.735 92.048 183.413 91.872 184.159 91.872C184.917 91.872 185.594 92.048 186.191 92.4C186.799 92.7413 187.279 93.2267 187.631 93.856C187.994 94.4747 188.175 95.2 188.175 96.032C188.175 96.864 187.994 97.5947 187.631 98.224C187.279 98.8427 186.799 99.328 186.191 99.68C185.583 100.021 184.901 100.192 184.143 100.192ZM184.143 98.736C184.549 98.736 184.922 98.6347 185.263 98.432C185.615 98.2293 185.898 97.9307 186.111 97.536C186.325 97.1307 186.431 96.6293 186.431 96.032C186.431 95.4347 186.325 94.9387 186.111 94.544C185.909 94.1387 185.631 93.8347 185.279 93.632C184.938 93.4293 184.565 93.328 184.159 93.328C183.754 93.328 183.375 93.4293 183.023 93.632C182.682 93.8347 182.405 94.1387 182.191 94.544C181.978 94.9387 181.871 95.4347 181.871 96.032C181.871 96.6293 181.978 97.1307 182.191 97.536C182.405 97.9307 182.682 98.2293 183.023 98.432C183.365 98.6347 183.738 98.736 184.143 98.736ZM191.827 100L188.851 92.064H190.627L192.835 98.384L195.043 92.064H196.803L193.843 100H191.827ZM201.503 100.192C200.724 100.192 200.031 100.021 199.423 99.68C198.825 99.328 198.356 98.8427 198.015 98.224C197.673 97.6053 197.503 96.8853 197.503 96.064C197.503 95.232 197.668 94.5013 197.999 93.872C198.34 93.2427 198.809 92.752 199.407 92.4C200.015 92.048 200.719 91.872 201.519 91.872C202.297 91.872 202.975 92.048 203.551 92.4C204.127 92.7413 204.575 93.2 204.895 93.776C205.215 94.352 205.375 94.9867 205.375 95.68C205.375 95.7867 205.369 95.904 205.359 96.032C205.359 96.1493 205.353 96.2827 205.343 96.432H199.167C199.22 97.2 199.471 97.7867 199.919 98.192C200.377 98.5867 200.905 98.784 201.503 98.784C201.983 98.784 202.383 98.6773 202.703 98.464C203.033 98.24 203.279 97.9413 203.439 97.568H205.135C204.921 98.3147 204.495 98.9387 203.855 99.44C203.225 99.9413 202.441 100.192 201.503 100.192ZM201.503 93.264C200.937 93.264 200.436 93.4347 199.999 93.776C199.561 94.1067 199.295 94.608 199.199 95.28H203.679C203.647 94.6613 203.428 94.1707 203.023 93.808C202.617 93.4453 202.111 93.264 201.503 93.264ZM207.135 100V92.064H208.655L208.799 93.568C209.076 93.0453 209.46 92.6347 209.951 92.336C210.452 92.0267 211.055 91.872 211.759 91.872V93.648H211.295C210.825 93.648 210.404 93.728 210.031 93.888C209.668 94.0373 209.375 94.2987 209.151 94.672C208.937 95.0347 208.831 95.5413 208.831 96.192V100H207.135ZM214.141 103.52L216.045 99.344H215.581L212.445 92.064H214.285L216.717 97.936L219.261 92.064H221.053L215.933 103.52H214.141Z" fill="black"/>
<path d="M118.492 33.0963C118.492 32.1536 118.482 31.3416 118.494 30.5296C118.52 28.4319 119.908 26.6539 121.88 26.1779C123.94 25.6809 125.965 26.5816 126.945 28.4763C127.153 28.8776 127.256 28.9896 127.727 28.7539C129.944 27.6409 132.552 28.5276 133.689 30.7466C133.88 31.1199 133.978 31.2319 134.419 31.0103C136.671 29.8763 139.272 30.7536 140.427 33.0169C140.612 33.3763 140.698 33.4696 141.109 33.2643C144.142 31.7546 147.602 33.8616 147.614 37.2426C147.637 43.9393 147.626 50.6383 147.619 57.3349C147.616 58.8843 146.975 60.1326 145.712 61.0333C145.444 61.2246 145.311 61.4299 145.395 61.7216C145.491 62.0483 145.789 61.8709 145.988 61.8756C147.325 61.9013 147.619 62.1906 147.621 63.5393C147.623 64.7759 147.626 66.0126 147.619 67.2493C147.614 68.0846 147.206 68.5839 146.529 68.6026C145.829 68.6236 145.386 68.1033 145.379 67.2399C145.372 66.3533 145.358 65.4666 145.386 64.5799C145.397 64.2019 145.269 64.1203 144.912 64.1203C137.002 64.1296 129.09 64.1296 121.18 64.1179C120.795 64.1179 120.718 64.2463 120.725 64.5986C120.746 65.5086 120.741 66.4186 120.729 67.3286C120.72 68.1009 120.288 68.5909 119.633 68.6049C118.951 68.6189 118.499 68.1149 118.494 67.3053C118.485 65.9753 118.489 64.6453 118.492 63.3153C118.494 62.2653 118.87 61.8896 119.929 61.8896C127.419 61.8873 134.911 61.8803 142.401 61.9059C143.024 61.9083 143.234 61.7543 143.141 61.1453C143.008 60.2726 143.346 59.7149 144.189 59.3346C145.082 58.9333 145.383 58.1026 145.381 57.1366C145.372 51.0233 145.376 44.9076 145.376 38.7943C145.376 38.2809 145.388 37.7676 145.374 37.2543C145.341 36.0176 144.415 35.0539 143.232 35.0073C142.035 34.9606 141.041 35.8379 140.903 37.0606C140.805 37.9333 140.413 38.3766 139.753 38.3603C139.055 38.3439 138.661 37.8399 138.656 36.9439C138.652 36.2906 138.673 35.6373 138.652 34.9839C138.614 33.7566 137.672 32.8023 136.482 32.7649C135.294 32.7276 134.309 33.6189 134.181 34.8509C134.092 35.6956 133.668 36.1529 133.003 36.1203C132.331 36.0853 131.939 35.5883 131.934 34.7459C131.929 34.0926 131.946 33.4393 131.929 32.7859C131.899 31.5446 130.982 30.5809 129.799 30.5273C128.579 30.4713 127.587 31.3649 127.454 32.6389C127.37 33.4509 126.971 33.8873 126.318 33.8803C125.639 33.8733 125.221 33.3716 125.212 32.5456C125.205 31.9389 125.214 31.3323 125.209 30.7256C125.198 29.2999 124.271 28.2873 122.979 28.2849C121.681 28.2803 120.734 29.2929 120.734 30.7093C120.729 36.4259 120.732 42.1449 120.732 47.8616C120.732 48.0716 120.743 48.2839 120.725 48.4916C120.669 49.1123 120.223 49.5486 119.642 49.5649C119.033 49.5813 118.529 49.1333 118.501 48.4823C118.468 47.7846 118.468 47.0823 118.501 46.3823C118.52 45.9716 118.377 45.6939 118.09 45.4093C116.133 43.4726 114.201 41.5103 112.241 39.5759C110.656 38.0149 110.225 36.2393 111.093 34.1603C111.387 33.4556 110.614 33.3226 110.334 32.9353C110.085 32.5923 109.903 33.0099 109.744 33.1383C99.1391 41.6829 83.6574 36.2183 80.7688 22.9066C78.6594 13.1859 85.4238 3.25526 95.2378 1.66393C104.965 0.0865949 113.869 6.11826 115.874 15.7713C117.022 21.3059 115.657 26.3039 112.152 30.7279C112.024 30.8889 111.611 31.0546 111.942 31.3206C112.306 31.6123 112.5 32.3566 113.099 32.1023C115.08 31.2553 116.816 31.5913 118.492 33.0963ZM114.009 19.3599C114.035 10.7033 107.012 3.65893 98.3364 3.63326C89.7614 3.60993 82.6751 10.6379 82.6448 19.2013C82.6144 27.8883 89.6121 34.9746 98.2478 34.9979C106.921 35.0236 113.984 28.0166 114.009 19.3599ZM118.492 42.6186C118.492 40.5326 118.489 38.5983 118.494 36.6616C118.494 36.4423 118.454 36.2649 118.284 36.1016C117.712 35.5533 117.178 34.9606 116.585 34.4356C115.689 33.6423 114.376 33.7076 113.545 34.5429C112.714 35.3783 112.626 36.7176 113.456 37.5786C115.071 39.2539 116.742 40.8733 118.492 42.6186Z" fill="#28343A"/>
<path d="M98.5746 42.8464C94.6336 42.8254 91.1266 42.0134 87.8156 40.3684C87.4213 40.1724 87.0853 39.9414 86.992 39.4864C86.908 39.071 87.013 38.6907 87.3443 38.4107C87.7433 38.0724 88.1843 38.0514 88.6463 38.28C89.7756 38.8377 90.933 39.3184 92.1416 39.6754C96.4466 40.9447 100.733 40.912 105.005 39.5214C105.183 39.463 105.358 39.3977 105.54 39.358C106.202 39.2134 106.732 39.498 106.933 40.0954C107.126 40.6717 106.858 41.2387 106.205 41.4814C104.518 42.1137 102.768 42.494 100.978 42.6924C100.098 42.788 99.214 42.8744 98.5746 42.8464Z" fill="#28343A"/>
<path d="M121.88 19.2477C121.84 19.9221 121.817 20.5987 121.756 21.2707C121.677 22.1457 121.194 22.6147 120.503 22.5284C119.838 22.4467 119.456 21.8914 119.528 21.0817C119.789 18.1371 119.416 15.2694 118.483 12.4694C117.904 10.7381 117.104 9.11406 116.093 7.59272C115.734 7.05139 115.636 6.51239 116.119 6.00372C116.642 5.45072 117.449 5.59539 117.941 6.33039C119.551 8.73606 120.66 11.3587 121.29 14.1821C121.661 15.8504 121.854 17.5374 121.88 19.2477Z" fill="#28343A"/>
<path d="M115.132 47.9867C115.083 50.2874 115.44 52.6137 116.565 54.7744C117.332 56.2467 118.394 57.4647 119.806 58.3584C119.885 58.4074 119.962 58.4587 120.039 58.5124C120.627 58.937 120.788 59.546 120.454 60.085C120.102 60.652 119.472 60.7757 118.809 60.379C116.789 59.1703 115.335 57.4484 114.332 55.3367C113.429 53.4397 113.006 51.419 112.911 49.3307C112.864 48.3064 112.88 47.2797 112.897 46.2554C112.908 45.5484 113.382 45.0794 114.017 45.084C114.651 45.0887 115.106 45.56 115.127 46.2694C115.146 46.806 115.132 47.3427 115.132 47.9867Z" fill="#28343A"/>
<path d="M112.857 3.66547C112.241 3.65147 111.76 3.1498 111.772 2.53614C111.783 1.90147 112.322 1.37414 112.938 1.39514C113.564 1.41614 114.019 1.90147 114.009 2.5338C114 3.1988 113.505 3.6818 112.857 3.66547Z" fill="#28343A"/>
<path d="M83.8139 35.0044C84.4369 35.0231 84.8919 35.5084 84.8826 36.1431C84.8709 36.8081 84.3809 37.2911 83.7299 37.2724C83.1116 37.2561 82.6333 36.7567 82.6473 36.1454C82.6613 35.5107 83.1979 34.9857 83.8139 35.0044Z" fill="#28343A"/>
<path d="M98.6958 32.7613C98.5372 32.7496 98.2688 32.7799 98.0308 32.7076C97.4778 32.5373 97.1862 32.1383 97.2165 31.5503C97.2468 30.9693 97.6925 30.5423 98.3412 30.5259C99.6805 30.4933 100.987 30.2856 102.236 29.7979C105.173 28.6499 107.313 26.6479 108.596 23.7546C108.652 23.6263 108.708 23.4979 108.769 23.3743C109.103 22.6906 109.702 22.4316 110.307 22.7046C110.876 22.9613 111.086 23.5703 110.82 24.2469C109.987 26.3749 108.678 28.1646 106.923 29.6206C104.567 31.5759 101.846 32.5979 98.6958 32.7613Z" fill="#28343A"/>
<path d="M109.532 19.408C109.534 18.7803 110.075 18.2343 110.684 18.2483C111.305 18.26 111.772 18.7453 111.767 19.3776C111.762 20.0263 111.247 20.556 110.628 20.5443C110.038 20.5326 109.529 20.0053 109.532 19.408Z" fill="#28343A"/>
</svg>
