<svg width="228" height="127" viewBox="0 0 228 127" fill="none" xmlns="http://www.w3.org/2000/svg">
<path d="M82.2844 100V88.8H86.2044C87.0791 88.8 87.8044 88.9493 88.3804 89.248C88.9564 89.536 89.3831 89.936 89.6604 90.448C89.9484 90.9493 90.0924 91.52 90.0924 92.16C90.0924 92.768 89.9538 93.328 89.6764 93.84C89.4098 94.3413 88.9884 94.7413 88.4124 95.04C87.8364 95.3387 87.1004 95.488 86.2044 95.488H83.9804V100H82.2844ZM83.9804 94.096H86.1244C86.9244 94.096 87.4951 93.9253 87.8364 93.584C88.1884 93.232 88.3644 92.7573 88.3644 92.16C88.3644 91.5413 88.1884 91.0613 87.8364 90.72C87.4951 90.368 86.9244 90.192 86.1244 90.192H83.9804V94.096ZM91.7048 100V92.064H93.2248L93.3688 93.568C93.6461 93.0453 94.0301 92.6347 94.5208 92.336C95.0221 92.0267 95.6248 91.872 96.3288 91.872V93.648H95.8648C95.3955 93.648 94.9741 93.728 94.6008 93.888C94.2381 94.0373 93.9448 94.2987 93.7208 94.672C93.5075 95.0347 93.4008 95.5413 93.4008 96.192V100H91.7048ZM101.276 100.192C100.519 100.192 99.8362 100.021 99.2282 99.68C98.6309 99.328 98.1562 98.8427 97.8042 98.224C97.4522 97.5947 97.2762 96.864 97.2762 96.032C97.2762 95.2 97.4522 94.4747 97.8042 93.856C98.1669 93.2267 98.6522 92.7413 99.2602 92.4C99.8682 92.048 100.546 91.872 101.292 91.872C102.05 91.872 102.727 92.048 103.324 92.4C103.932 92.7413 104.412 93.2267 104.764 93.856C105.127 94.4747 105.308 95.2 105.308 96.032C105.308 96.864 105.127 97.5947 104.764 98.224C104.412 98.8427 103.932 99.328 103.324 99.68C102.716 100.021 102.034 100.192 101.276 100.192ZM101.276 98.736C101.682 98.736 102.055 98.6347 102.396 98.432C102.748 98.2293 103.031 97.9307 103.244 97.536C103.458 97.1307 103.564 96.6293 103.564 96.032C103.564 95.4347 103.458 94.9387 103.244 94.544C103.042 94.1387 102.764 93.8347 102.412 93.632C102.071 93.4293 101.698 93.328 101.292 93.328C100.887 93.328 100.508 93.4293 100.156 93.632C99.8149 93.8347 99.5375 94.1387 99.3242 94.544C99.1109 94.9387 99.0042 95.4347 99.0042 96.032C99.0042 96.6293 99.1109 97.1307 99.3242 97.536C99.5375 97.9307 99.8149 98.2293 100.156 98.432C100.498 98.6347 100.871 98.736 101.276 98.736ZM107.142 103.52V92.064H108.662L108.838 93.296C109.094 92.9227 109.446 92.592 109.894 92.304C110.342 92.016 110.918 91.872 111.622 91.872C112.39 91.872 113.068 92.0533 113.654 92.416C114.241 92.7787 114.7 93.2747 115.03 93.904C115.372 94.5333 115.542 95.248 115.542 96.048C115.542 96.848 115.372 97.5627 115.03 98.192C114.7 98.8107 114.241 99.3013 113.654 99.664C113.068 100.016 112.385 100.192 111.606 100.192C110.988 100.192 110.438 100.069 109.958 99.824C109.489 99.5787 109.116 99.232 108.838 98.784V103.52H107.142ZM111.318 98.72C112.044 98.72 112.641 98.4747 113.11 97.984C113.58 97.4827 113.814 96.832 113.814 96.032C113.814 95.5093 113.708 95.0453 113.494 94.64C113.281 94.2347 112.988 93.92 112.614 93.696C112.241 93.4613 111.809 93.344 111.318 93.344C110.593 93.344 109.996 93.5947 109.526 94.096C109.068 94.5973 108.838 95.2427 108.838 96.032C108.838 96.832 109.068 97.4827 109.526 97.984C109.996 98.4747 110.593 98.72 111.318 98.72ZM121.089 100.192C120.331 100.192 119.649 100.021 119.041 99.68C118.443 99.328 117.969 98.8427 117.617 98.224C117.265 97.5947 117.089 96.864 117.089 96.032C117.089 95.2 117.265 94.4747 117.617 93.856C117.979 93.2267 118.465 92.7413 119.073 92.4C119.681 92.048 120.358 91.872 121.105 91.872C121.862 91.872 122.539 92.048 123.137 92.4C123.745 92.7413 124.225 93.2267 124.577 93.856C124.939 94.4747 125.121 95.2 125.121 96.032C125.121 96.864 124.939 97.5947 124.577 98.224C124.225 98.8427 123.745 99.328 123.137 99.68C122.529 100.021 121.846 100.192 121.089 100.192ZM121.089 98.736C121.494 98.736 121.867 98.6347 122.209 98.432C122.561 98.2293 122.843 97.9307 123.057 97.536C123.27 97.1307 123.377 96.6293 123.377 96.032C123.377 95.4347 123.27 94.9387 123.057 94.544C122.854 94.1387 122.577 93.8347 122.225 93.632C121.883 93.4293 121.51 93.328 121.105 93.328C120.699 93.328 120.321 93.4293 119.969 93.632C119.627 93.8347 119.35 94.1387 119.137 94.544C118.923 94.9387 118.817 95.4347 118.817 96.032C118.817 96.6293 118.923 97.1307 119.137 97.536C119.35 97.9307 119.627 98.2293 119.969 98.432C120.31 98.6347 120.683 98.736 121.089 98.736ZM130.123 100.192C129.12 100.192 128.293 99.9467 127.643 99.456C126.992 98.9653 126.619 98.3147 126.523 97.504H128.235C128.32 97.8667 128.523 98.1813 128.843 98.448C129.163 98.704 129.584 98.832 130.107 98.832C130.619 98.832 130.992 98.7253 131.227 98.512C131.461 98.2987 131.579 98.0533 131.579 97.776C131.579 97.3707 131.413 97.0987 131.083 96.96C130.763 96.8107 130.315 96.6773 129.739 96.56C129.291 96.464 128.843 96.336 128.395 96.176C127.957 96.016 127.589 95.792 127.291 95.504C127.003 95.2053 126.859 94.8053 126.859 94.304C126.859 93.6107 127.125 93.0347 127.659 92.576C128.192 92.1067 128.939 91.872 129.899 91.872C130.784 91.872 131.499 92.0853 132.043 92.512C132.597 92.9387 132.923 93.5413 133.019 94.32H131.387C131.333 93.9787 131.173 93.712 130.907 93.52C130.651 93.328 130.304 93.232 129.867 93.232C129.44 93.232 129.109 93.3227 128.875 93.504C128.64 93.6747 128.523 93.8987 128.523 94.176C128.523 94.4533 128.683 94.672 129.003 94.832C129.333 94.992 129.765 95.136 130.299 95.264C130.832 95.3813 131.323 95.52 131.771 95.68C132.229 95.8293 132.597 96.0533 132.875 96.352C133.152 96.6507 133.291 97.088 133.291 97.664C133.301 98.3893 133.019 98.992 132.443 99.472C131.877 99.952 131.104 100.192 130.123 100.192ZM137.83 100.192C137.158 100.192 136.604 100.08 136.166 99.856C135.729 99.632 135.404 99.3387 135.19 98.976C134.977 98.6027 134.87 98.1973 134.87 97.76C134.87 96.992 135.169 96.384 135.766 95.936C136.364 95.488 137.217 95.264 138.326 95.264H140.406V95.12C140.406 94.5013 140.236 94.0373 139.894 93.728C139.564 93.4187 139.132 93.264 138.598 93.264C138.129 93.264 137.718 93.3813 137.366 93.616C137.025 93.84 136.817 94.176 136.742 94.624H135.046C135.1 94.048 135.292 93.5573 135.622 93.152C135.964 92.736 136.39 92.4213 136.902 92.208C137.425 91.984 137.996 91.872 138.614 91.872C139.724 91.872 140.582 92.1653 141.19 92.752C141.798 93.328 142.102 94.1173 142.102 95.12V100H140.63L140.486 98.64C140.262 99.0773 139.937 99.4453 139.51 99.744C139.084 100.043 138.524 100.192 137.83 100.192ZM138.166 98.816C138.625 98.816 139.009 98.7093 139.318 98.496C139.638 98.272 139.884 97.9787 140.054 97.616C140.236 97.2533 140.348 96.8533 140.39 96.416H138.502C137.83 96.416 137.35 96.5333 137.062 96.768C136.785 97.0027 136.646 97.296 136.646 97.648C136.646 98.0107 136.78 98.2987 137.046 98.512C137.324 98.7147 137.697 98.816 138.166 98.816ZM144.08 100V88.48H145.776V100H144.08Z" fill="black"/>
<path d="M83.7015 62.2487C84.2475 63.6697 85.3698 64.4257 86.8608 64.4257C92.9951 64.4304 99.1271 64.428 105.261 64.428C117.164 64.428 129.068 64.4234 140.971 64.4327C142.275 64.4327 143.311 63.9824 144.025 62.8694C144.13 62.7037 144.335 62.5194 144.223 62.3304C144.114 62.1437 143.852 62.251 143.661 62.251C136.484 62.2464 129.304 62.2464 122.127 62.2464C121.921 62.2464 121.716 62.2627 121.513 62.2347C120.93 62.1577 120.505 61.67 120.549 61.1077C120.596 60.508 120.946 60.1604 121.539 60.074C121.739 60.046 121.947 60.0647 122.152 60.0647C129.831 60.0647 137.508 60.0647 145.187 60.0647C146.433 60.0647 146.858 60.5617 146.683 61.8054C146.272 64.687 144.009 66.6074 141.006 66.6074C123.718 66.6097 106.433 66.6097 89.1451 66.6027C87.9668 66.6027 86.7838 66.7194 85.6125 66.4814C83.2325 66.0007 81.3705 63.8237 81.2958 61.432C81.2678 60.5127 81.6691 60.0694 82.5768 60.0694C90.4355 60.0647 98.2965 60.0647 106.155 60.0694C106.962 60.0694 107.448 60.4847 107.455 61.1474C107.462 61.8287 106.96 62.2464 106.108 62.2464C98.9078 62.2487 91.7071 62.2487 84.5065 62.2487C84.2568 62.2487 84.0118 62.2487 83.7015 62.2487Z" fill="#273339"/>
<path d="M92.1599 25.1769C86.1492 25.1653 81.2679 20.2513 81.2842 14.2243C81.3006 8.21359 86.2169 3.34626 92.2509 3.36726C98.2546 3.38826 103.122 8.31626 103.094 14.3479C103.066 20.3189 98.1519 25.1863 92.1599 25.1769ZM100.91 14.2476C100.91 9.46659 96.9736 5.54659 92.1809 5.54892C87.3882 5.55126 83.4706 9.46892 83.4659 14.2593C83.4636 19.0519 87.3836 22.9883 92.1599 22.9929C96.9899 22.9999 100.912 19.0753 100.91 14.2476Z" fill="#29353A"/>
<path d="M135.814 3.36719C141.829 3.36952 146.718 8.27186 146.711 14.2965C146.704 20.3049 141.783 25.1932 135.763 25.1769C129.782 25.1605 124.906 20.2652 124.903 14.2779C124.899 8.25552 129.792 3.36486 135.814 3.36719ZM135.837 5.54886C131.038 5.53719 127.101 9.43852 127.085 14.2219C127.069 19.0215 130.968 22.9719 135.742 22.9929C140.574 23.0139 144.515 19.1079 144.529 14.2849C144.543 9.49919 140.623 5.56052 135.837 5.54886Z" fill="#29353A"/>
<path d="M87.8268 42.1489C87.8268 46.8692 87.8268 51.5919 87.8244 56.3122C87.8244 56.5385 87.8501 56.7742 87.7988 56.9912C87.6728 57.5372 87.3158 57.8755 86.7464 57.8755C86.1468 57.8755 85.7781 57.5349 85.6638 56.9469C85.6241 56.7485 85.6474 56.5385 85.6474 56.3355C85.6474 46.8039 85.6451 37.2699 85.6474 27.7382C85.6474 27.5562 85.6264 27.3695 85.6661 27.1945C85.7921 26.6135 86.1584 26.2682 86.7604 26.2775C87.3298 26.2845 87.6844 26.6252 87.8058 27.1735C87.8548 27.3905 87.8314 27.6262 87.8314 27.8525C87.8291 32.6149 87.8268 37.3819 87.8268 42.1489Z" fill="#273339"/>
<path d="M140.168 42.0766C140.168 37.3096 140.168 32.545 140.168 27.778C140.168 27.596 140.15 27.4116 140.18 27.2343C140.285 26.6486 140.64 26.2893 141.239 26.2776C141.841 26.266 142.208 26.6183 142.329 27.1993C142.371 27.3953 142.35 27.6053 142.35 27.8106C142.35 37.3213 142.35 46.8296 142.35 56.3403C142.35 56.4313 142.352 56.5223 142.35 56.6133C142.331 57.4066 141.907 57.8943 141.244 57.885C140.584 57.8756 140.173 57.388 140.171 56.583C140.166 51.746 140.168 46.9113 140.168 42.0766Z" fill="#273339"/>
<path d="M114 20.816C111.165 20.816 108.328 20.8113 105.493 20.8206C104.879 20.823 104.422 20.613 104.228 20.0086C104.004 19.3063 104.555 18.6436 105.388 18.6366C107.18 18.6226 108.972 18.632 110.766 18.632C114.646 18.632 118.527 18.6343 122.405 18.6296C122.85 18.6296 123.273 18.6646 123.569 19.0473C123.84 19.3996 123.9 19.7846 123.695 20.193C123.464 20.6526 123.074 20.816 122.58 20.816C120.491 20.8113 118.405 20.8136 116.317 20.816C115.542 20.816 114.77 20.816 114 20.816Z" fill="#273339"/>
<path d="M97.6268 38.2602C96.9245 38.2602 96.2222 38.2766 95.5198 38.2556C94.8012 38.2346 94.3835 37.8216 94.3765 37.1006C94.3602 35.6959 94.3602 34.2912 94.3765 32.8842C94.3858 32.1329 94.8082 31.7292 95.5805 31.7222C96.9618 31.7106 98.3455 31.7082 99.7292 31.7246C100.485 31.7339 100.903 32.1516 100.91 32.9122C100.924 34.2936 100.926 35.6772 100.91 37.0586C100.901 37.8472 100.478 38.2439 99.6685 38.2579C98.9872 38.2696 98.3058 38.2602 97.6268 38.2602ZM98.7305 34.9352C98.7305 33.9016 98.7305 33.9016 97.7225 33.8992C96.5488 33.8969 96.5488 33.8969 96.5512 35.0426C96.5535 36.0786 96.5535 36.0786 97.5592 36.0786C98.7305 36.0809 98.7305 36.0809 98.7305 34.9352Z" fill="#273339"/>
<path d="M124.903 31.7178C127.353 31.7178 129.803 31.7155 132.253 31.7178C133.117 31.7178 133.611 32.1145 133.621 32.7935C133.63 33.4748 133.128 33.8972 132.281 33.8972C127.358 33.8995 122.437 33.8995 117.514 33.8972C116.669 33.8972 116.17 33.4702 116.181 32.7865C116.193 32.1075 116.685 31.7202 117.553 31.7178C120.003 31.7178 122.453 31.7178 124.903 31.7178Z" fill="#273339"/>
<path d="M94.3694 48.0053C94.3694 47.3263 94.3554 46.645 94.3717 45.966C94.3904 45.245 94.801 44.818 95.5127 44.8086C96.9407 44.79 98.3687 44.79 99.7967 44.811C100.473 44.8203 100.893 45.2473 100.903 45.931C100.921 47.359 100.924 48.787 100.903 50.215C100.893 50.894 100.469 51.328 99.7967 51.3373C98.3687 51.3583 96.9407 51.356 95.5127 51.3373C94.794 51.328 94.3904 50.9056 94.3717 50.18C94.3554 49.4566 94.3694 48.731 94.3694 48.0053ZM98.7304 48.115C98.7304 46.9833 98.7304 46.9833 97.6127 46.9833C96.551 46.9833 96.551 46.9833 96.551 48.0333C96.551 49.165 96.551 49.165 97.671 49.165C98.7304 49.1626 98.7304 49.1626 98.7304 48.115Z" fill="#273339"/>
<path d="M112.982 36.0805C115.045 36.0805 117.11 36.0781 119.173 36.0828C120.038 36.0851 120.528 36.4795 120.535 37.1608C120.542 37.8421 120.041 38.2598 119.191 38.2598C114.996 38.2621 110.801 38.2621 106.605 38.2598C105.761 38.2598 105.261 37.8281 105.278 37.1468C105.294 36.4888 105.777 36.0851 106.587 36.0828C108.719 36.0758 110.85 36.0781 112.982 36.0805Z" fill="#273339"/>
<path d="M110.722 46.9845C109.338 46.9845 107.957 46.9892 106.573 46.9822C105.773 46.9775 105.285 46.5622 105.276 45.9065C105.266 45.2462 105.759 44.8075 106.547 44.8052C109.336 44.8005 112.122 44.7982 114.91 44.8052C115.696 44.8075 116.189 45.2532 116.175 45.9135C116.161 46.5692 115.671 46.9799 114.87 46.9822C113.487 46.9892 112.105 46.9845 110.722 46.9845Z" fill="#273339"/>
<path d="M109.65 33.8984C108.607 33.8984 107.567 33.9054 106.524 33.896C105.747 33.889 105.257 33.434 105.275 32.7714C105.294 32.1367 105.77 31.7214 106.524 31.719C108.607 31.712 110.693 31.7097 112.777 31.719C113.519 31.7237 113.993 32.1647 113.993 32.8064C113.993 33.4457 113.517 33.8867 112.777 33.896C111.736 33.9077 110.693 33.8984 109.65 33.8984Z" fill="#29353A"/>
<path d="M129.332 44.8024C130.352 44.8024 131.371 44.793 132.391 44.8047C133.138 44.814 133.611 45.2387 133.621 45.878C133.63 46.5174 133.154 46.977 132.419 46.9794C130.312 46.991 128.205 46.991 126.098 46.9794C125.37 46.9747 124.894 46.5104 124.903 45.871C124.915 45.2317 125.386 44.8117 126.138 44.8047C127.204 44.793 128.268 44.8024 129.332 44.8024Z" fill="#29353A"/>
<path d="M108.561 49.1667C109.263 49.1667 109.965 49.1504 110.665 49.1714C111.354 49.19 111.813 49.6427 111.813 50.2564C111.813 50.87 111.351 51.3367 110.668 51.3437C109.242 51.36 107.814 51.3624 106.388 51.3414C105.709 51.332 105.257 50.8444 105.275 50.226C105.294 49.638 105.737 49.1947 106.384 49.1737C107.109 49.148 107.835 49.1667 108.561 49.1667Z" fill="#29353A"/>
<path d="M117.248 49.1628C117.95 49.1628 118.653 49.1511 119.353 49.1651C120.05 49.1791 120.515 49.6038 120.536 50.2151C120.557 50.8544 120.081 51.3304 119.36 51.3374C117.957 51.3538 116.553 51.3538 115.148 51.3374C114.46 51.3281 114.002 50.8708 114 50.2548C114 49.6364 114.455 49.1861 115.143 49.1674C115.846 49.1488 116.548 49.1651 117.248 49.1628Z" fill="#29353A"/>
<path d="M120.54 44.8059C120.902 44.8059 121.264 44.7896 121.625 44.8106C122.269 44.8479 122.708 45.2866 122.715 45.8792C122.724 46.4696 122.288 46.9502 121.656 46.9759C120.911 47.0062 120.162 47.0062 119.418 46.9759C118.786 46.9502 118.349 46.4672 118.361 45.8769C118.373 45.2866 118.811 44.8479 119.455 44.8106C119.817 44.7872 120.179 44.8059 120.54 44.8059Z" fill="#29353A"/>
<path d="M96.5512 17.5116C96.5349 18.0599 96.2595 18.4589 95.7135 18.5919C95.1675 18.7273 94.7359 18.5126 94.4792 17.9946C94.4395 17.9129 94.4092 17.8289 94.3812 17.7426C93.9869 16.4546 93.9869 16.4546 92.6219 16.4546C92.3955 16.4546 92.1669 16.4546 91.9405 16.4546C91.4412 16.4569 90.8719 16.3099 90.4612 16.5036C90.0202 16.7089 90.1439 17.3763 89.9782 17.8266C89.7589 18.4216 89.1965 18.7529 88.6435 18.5989C88.0742 18.4403 87.7125 17.8826 87.8619 17.2736C88.5735 14.3453 89.2969 11.4216 90.0412 8.5026C90.1602 8.0336 90.5149 7.73493 91.0399 7.7326C91.8122 7.72793 92.5845 7.7256 93.3569 7.73493C93.8795 7.74193 94.2272 8.0476 94.3462 8.51893C95.0882 11.4403 95.8045 14.3663 96.5279 17.2923C96.5395 17.3529 96.5419 17.4229 96.5512 17.5116ZM90.8649 14.2706C91.6722 14.2706 92.3979 14.2636 93.1235 14.2753C93.3755 14.2799 93.5062 14.2333 93.4315 13.9369C93.1119 12.6863 92.7969 11.4333 92.4912 10.1779C92.4469 9.9936 92.3769 9.9026 92.1762 9.91193C92.0175 9.91893 91.9405 9.97493 91.9009 10.1383C91.5649 11.4963 91.2195 12.8543 90.8649 14.2706Z" fill="#29353A"/>
<path d="M131.444 14.1152C131.444 13.0698 131.435 12.0245 131.446 10.9815C131.465 9.20816 132.865 7.77782 134.636 7.74049C135.289 7.72649 135.95 7.66582 136.601 7.83849C138.484 8.33549 139.548 10.2675 138.873 12.0898C138.717 12.5098 138.794 12.6988 139.104 12.9765C140.124 13.8935 140.43 15.2632 139.951 16.5185C139.466 17.7925 138.295 18.6162 136.904 18.6325C135.474 18.6488 134.043 18.6418 132.611 18.6348C131.845 18.6302 131.453 18.2312 131.449 17.4542C131.437 16.3412 131.444 15.2282 131.444 14.1152ZM135.474 16.4532C135.926 16.4532 136.381 16.4532 136.834 16.4532C136.878 16.4532 136.925 16.4532 136.969 16.4485C137.56 16.3762 137.982 15.9212 137.982 15.3612C137.982 14.7965 137.562 14.3112 136.965 14.2902C135.968 14.2552 134.97 14.2785 133.971 14.2738C133.773 14.2738 133.616 14.2855 133.626 14.5515C133.647 15.1605 133.467 15.8698 133.726 16.3435C133.913 16.6842 134.69 16.4112 135.201 16.4532C135.292 16.4578 135.383 16.4532 135.474 16.4532ZM134.879 12.0922V12.0898C135.196 12.0898 135.516 12.1085 135.831 12.0852C136.465 12.0385 136.904 11.5672 136.892 10.9768C136.881 10.4122 136.456 9.96882 135.852 9.92216C135.513 9.89649 135.17 9.90349 134.83 9.91516C133.924 9.94316 133.628 10.3865 133.616 11.5648C133.607 12.5332 134.321 11.9218 134.673 12.0898C134.732 12.1132 134.809 12.0922 134.879 12.0922Z" fill="#273339"/>
</svg>
