<svg width="228" height="129" viewBox="0 0 228 129" fill="none" xmlns="http://www.w3.org/2000/svg">
<path d="M40.6673 102V90.8H44.2993C45.6113 90.8 46.6886 91.0293 47.5312 91.488C48.3846 91.9467 49.0139 92.5973 49.4193 93.44C49.8353 94.272 50.0433 95.264 50.0433 96.416C50.0433 97.5573 49.8353 98.5493 49.4193 99.392C49.0139 100.224 48.3846 100.869 47.5312 101.328C46.6886 101.776 45.6113 102 44.2993 102H40.6673ZM42.3633 100.56H44.2352C45.2486 100.56 46.0486 100.395 46.6353 100.064C47.2326 99.7333 47.6593 99.2587 47.9153 98.64C48.1819 98.0213 48.3153 97.28 48.3153 96.416C48.3153 95.552 48.1819 94.8053 47.9153 94.176C47.6593 93.5467 47.2326 93.0667 46.6353 92.736C46.0486 92.3947 45.2486 92.224 44.2352 92.224H42.3633V100.56ZM55.5653 102.192C54.7866 102.192 54.0933 102.021 53.4853 101.68C52.8879 101.328 52.4186 100.843 52.0773 100.224C51.7359 99.6053 51.5653 98.8853 51.5653 98.064C51.5653 97.232 51.7306 96.5013 52.0613 95.872C52.4026 95.2427 52.8719 94.752 53.4693 94.4C54.0773 94.048 54.7813 93.872 55.5813 93.872C56.3599 93.872 57.0373 94.048 57.6133 94.4C58.1893 94.7413 58.6373 95.2 58.9573 95.776C59.2773 96.352 59.4373 96.9867 59.4373 97.68C59.4373 97.7867 59.4319 97.904 59.4213 98.032C59.4213 98.1493 59.4159 98.2827 59.4053 98.432H53.2293C53.2826 99.2 53.5333 99.7867 53.9813 100.192C54.4399 100.587 54.9679 100.784 55.5653 100.784C56.0453 100.784 56.4453 100.677 56.7653 100.464C57.0959 100.24 57.3413 99.9413 57.5013 99.568H59.1973C58.9839 100.315 58.5573 100.939 57.9173 101.44C57.2879 101.941 56.5039 102.192 55.5653 102.192ZM55.5653 95.264C54.9999 95.264 54.4986 95.4347 54.0613 95.776C53.6239 96.1067 53.3573 96.608 53.2613 97.28H57.7413C57.7093 96.6613 57.4906 96.1707 57.0853 95.808C56.6799 95.4453 56.1733 95.264 55.5653 95.264ZM64.365 102.192C63.3623 102.192 62.5357 101.947 61.885 101.456C61.2343 100.965 60.861 100.315 60.765 99.504H62.477C62.5623 99.8667 62.765 100.181 63.085 100.448C63.405 100.704 63.8263 100.832 64.349 100.832C64.861 100.832 65.2343 100.725 65.469 100.512C65.7037 100.299 65.821 100.053 65.821 99.776C65.821 99.3707 65.6557 99.0987 65.325 98.96C65.005 98.8107 64.557 98.6773 63.981 98.56C63.533 98.464 63.085 98.336 62.637 98.176C62.1997 98.016 61.8317 97.792 61.533 97.504C61.245 97.2053 61.101 96.8053 61.101 96.304C61.101 95.6107 61.3677 95.0347 61.901 94.576C62.4343 94.1067 63.181 93.872 64.141 93.872C65.0263 93.872 65.741 94.0853 66.285 94.512C66.8397 94.9387 67.165 95.5413 67.261 96.32H65.629C65.5757 95.9787 65.4157 95.712 65.149 95.52C64.893 95.328 64.5463 95.232 64.109 95.232C63.6823 95.232 63.3517 95.3227 63.117 95.504C62.8823 95.6747 62.765 95.8987 62.765 96.176C62.765 96.4533 62.925 96.672 63.245 96.832C63.5757 96.992 64.0077 97.136 64.541 97.264C65.0743 97.3813 65.565 97.52 66.013 97.68C66.4717 97.8293 66.8397 98.0533 67.117 98.352C67.3943 98.6507 67.533 99.088 67.533 99.664C67.5437 100.389 67.261 100.992 66.685 101.472C66.1197 101.952 65.3463 102.192 64.365 102.192ZM70.3445 92.56C70.0245 92.56 69.7578 92.464 69.5445 92.272C69.3418 92.0693 69.2405 91.8187 69.2405 91.52C69.2405 91.2213 69.3418 90.976 69.5445 90.784C69.7578 90.5813 70.0245 90.48 70.3445 90.48C70.6645 90.48 70.9258 90.5813 71.1285 90.784C71.3418 90.976 71.4485 91.2213 71.4485 91.52C71.4485 91.8187 71.3418 92.0693 71.1285 92.272C70.9258 92.464 70.6645 92.56 70.3445 92.56ZM69.4965 102V94.064H71.1925V102H69.4965ZM76.6794 99.568C76.2634 99.568 75.8794 99.52 75.5274 99.424L74.8394 100.096C74.9567 100.171 75.1007 100.235 75.2714 100.288C75.442 100.341 75.682 100.389 75.9914 100.432C76.3007 100.475 76.722 100.517 77.2554 100.56C78.3114 100.656 79.074 100.912 79.5434 101.328C80.0127 101.733 80.2474 102.277 80.2474 102.96C80.2474 103.429 80.1194 103.872 79.8634 104.288C79.618 104.715 79.2287 105.056 78.6954 105.312C78.1727 105.579 77.5007 105.712 76.6794 105.712C75.57 105.712 74.6687 105.499 73.9754 105.072C73.2927 104.656 72.9514 104.021 72.9514 103.168C72.9514 102.837 73.0367 102.507 73.2074 102.176C73.3887 101.856 73.6714 101.552 74.0554 101.264C73.8314 101.168 73.634 101.067 73.4634 100.96C73.3034 100.843 73.1594 100.725 73.0314 100.608V100.224L74.4074 98.816C73.7887 98.2827 73.4794 97.584 73.4794 96.72C73.4794 96.1973 73.602 95.7227 73.8474 95.296C74.1034 94.8587 74.4714 94.512 74.9514 94.256C75.4314 94 76.0074 93.872 76.6794 93.872C77.1274 93.872 77.5434 93.936 77.9274 94.064H80.8874V95.184L79.4794 95.264C79.7354 95.7013 79.8634 96.1867 79.8634 96.72C79.8634 97.2533 79.7354 97.7333 79.4794 98.16C79.234 98.5867 78.8714 98.928 78.3914 99.184C77.922 99.44 77.3514 99.568 76.6794 99.568ZM76.6794 98.24C77.17 98.24 77.5647 98.112 77.8634 97.856C78.1727 97.5893 78.3274 97.216 78.3274 96.736C78.3274 96.2453 78.1727 95.872 77.8634 95.616C77.5647 95.36 77.17 95.232 76.6794 95.232C76.178 95.232 75.7727 95.36 75.4634 95.616C75.1647 95.872 75.0154 96.2453 75.0154 96.736C75.0154 97.216 75.1647 97.5893 75.4634 97.856C75.7727 98.112 76.178 98.24 76.6794 98.24ZM74.5514 103.008C74.5514 103.467 74.754 103.808 75.1594 104.032C75.5647 104.267 76.0714 104.384 76.6794 104.384C77.266 104.384 77.7407 104.256 78.1034 104C78.466 103.755 78.6474 103.424 78.6474 103.008C78.6474 102.699 78.5247 102.432 78.2794 102.208C78.034 101.995 77.57 101.861 76.8874 101.808C76.3754 101.776 75.922 101.728 75.5274 101.664C75.154 101.867 74.898 102.085 74.7594 102.32C74.6207 102.555 74.5514 102.784 74.5514 103.008ZM82.4001 102V94.064H83.9041L84.0321 95.456C84.2775 94.9653 84.6348 94.5813 85.1041 94.304C85.5841 94.016 86.1335 93.872 86.7521 93.872C87.7121 93.872 88.4641 94.1707 89.0081 94.768C89.5628 95.3653 89.8401 96.256 89.8401 97.44V102H88.1601V97.616C88.1601 96.08 87.5308 95.312 86.2721 95.312C85.6428 95.312 85.1201 95.536 84.7041 95.984C84.2988 96.432 84.0961 97.072 84.0961 97.904V102H82.4001ZM92.7976 92.56C92.4776 92.56 92.211 92.464 91.9976 92.272C91.795 92.0693 91.6936 91.8187 91.6936 91.52C91.6936 91.2213 91.795 90.976 91.9976 90.784C92.211 90.5813 92.4776 90.48 92.7976 90.48C93.1176 90.48 93.379 90.5813 93.5816 90.784C93.795 90.976 93.9016 91.2213 93.9016 91.52C93.9016 91.8187 93.795 92.0693 93.5816 92.272C93.379 92.464 93.1176 92.56 92.7976 92.56ZM91.9496 102V94.064H93.6456V102H91.9496ZM95.8845 102V94.064H97.3885L97.5165 95.456C97.7618 94.9653 98.1192 94.5813 98.5885 94.304C99.0685 94.016 99.6178 93.872 100.237 93.872C101.197 93.872 101.949 94.1707 102.493 94.768C103.047 95.3653 103.325 96.256 103.325 97.44V102H101.645V97.616C101.645 96.08 101.015 95.312 99.7565 95.312C99.1272 95.312 98.6045 95.536 98.1885 95.984C97.7832 96.432 97.5805 97.072 97.5805 97.904V102H95.8845ZM108.57 99.568C108.154 99.568 107.77 99.52 107.418 99.424L106.73 100.096C106.847 100.171 106.991 100.235 107.162 100.288C107.333 100.341 107.573 100.389 107.882 100.432C108.191 100.475 108.613 100.517 109.146 100.56C110.202 100.656 110.965 100.912 111.434 101.328C111.903 101.733 112.138 102.277 112.138 102.96C112.138 103.429 112.01 103.872 111.754 104.288C111.509 104.715 111.119 105.056 110.586 105.312C110.063 105.579 109.391 105.712 108.57 105.712C107.461 105.712 106.559 105.499 105.866 105.072C105.183 104.656 104.842 104.021 104.842 103.168C104.842 102.837 104.927 102.507 105.098 102.176C105.279 101.856 105.562 101.552 105.946 101.264C105.722 101.168 105.525 101.067 105.354 100.96C105.194 100.843 105.05 100.725 104.922 100.608V100.224L106.298 98.816C105.679 98.2827 105.37 97.584 105.37 96.72C105.37 96.1973 105.493 95.7227 105.738 95.296C105.994 94.8587 106.362 94.512 106.842 94.256C107.322 94 107.898 93.872 108.57 93.872C109.018 93.872 109.434 93.936 109.818 94.064H112.778V95.184L111.37 95.264C111.626 95.7013 111.754 96.1867 111.754 96.72C111.754 97.2533 111.626 97.7333 111.37 98.16C111.125 98.5867 110.762 98.928 110.282 99.184C109.813 99.44 109.242 99.568 108.57 99.568ZM108.57 98.24C109.061 98.24 109.455 98.112 109.754 97.856C110.063 97.5893 110.218 97.216 110.218 96.736C110.218 96.2453 110.063 95.872 109.754 95.616C109.455 95.36 109.061 95.232 108.57 95.232C108.069 95.232 107.663 95.36 107.354 95.616C107.055 95.872 106.906 96.2453 106.906 96.736C106.906 97.216 107.055 97.5893 107.354 97.856C107.663 98.112 108.069 98.24 108.57 98.24ZM106.442 103.008C106.442 103.467 106.645 103.808 107.05 104.032C107.455 104.267 107.962 104.384 108.57 104.384C109.157 104.384 109.631 104.256 109.994 104C110.357 103.755 110.538 103.424 110.538 103.008C110.538 102.699 110.415 102.432 110.17 102.208C109.925 101.995 109.461 101.861 108.778 101.808C108.266 101.776 107.813 101.728 107.418 101.664C107.045 101.867 106.789 102.085 106.65 102.32C106.511 102.555 106.442 102.784 106.442 103.008ZM121.65 102C120.871 102 120.253 101.813 119.794 101.44C119.335 101.056 119.106 100.379 119.106 99.408V95.488H117.746V94.064H119.106L119.314 92.048H120.802V94.064H123.042V95.488H120.802V99.408C120.802 99.8453 120.893 100.149 121.074 100.32C121.266 100.48 121.591 100.56 122.05 100.56H122.962V102H121.65ZM124.791 102V90.48H126.487V95.344C126.753 94.8853 127.121 94.528 127.591 94.272C128.071 94.0053 128.599 93.872 129.175 93.872C130.124 93.872 130.871 94.1707 131.415 94.768C131.959 95.3653 132.231 96.256 132.231 97.44V102H130.551V97.616C130.551 96.08 129.937 95.312 128.711 95.312C128.071 95.312 127.537 95.536 127.111 95.984C126.695 96.432 126.487 97.072 126.487 97.904V102H124.791ZM137.94 102.192C137.162 102.192 136.468 102.021 135.86 101.68C135.263 101.328 134.794 100.843 134.452 100.224C134.111 99.6053 133.94 98.8853 133.94 98.064C133.94 97.232 134.106 96.5013 134.436 95.872C134.778 95.2427 135.247 94.752 135.844 94.4C136.452 94.048 137.156 93.872 137.956 93.872C138.735 93.872 139.412 94.048 139.988 94.4C140.564 94.7413 141.012 95.2 141.332 95.776C141.652 96.352 141.812 96.9867 141.812 97.68C141.812 97.7867 141.807 97.904 141.796 98.032C141.796 98.1493 141.791 98.2827 141.78 98.432H135.604C135.658 99.2 135.908 99.7867 136.356 100.192C136.815 100.587 137.343 100.784 137.94 100.784C138.42 100.784 138.82 100.677 139.14 100.464C139.471 100.24 139.716 99.9413 139.876 99.568H141.572C141.359 100.315 140.932 100.939 140.292 101.44C139.663 101.941 138.879 102.192 137.94 102.192ZM137.94 95.264C137.375 95.264 136.874 95.4347 136.436 95.776C135.999 96.1067 135.732 96.608 135.636 97.28H140.116C140.084 96.6613 139.866 96.1707 139.46 95.808C139.055 95.4453 138.548 95.264 137.94 95.264ZM151.859 102.192C151.059 102.192 150.334 102.037 149.683 101.728C149.043 101.408 148.531 100.923 148.147 100.272C147.774 99.6213 147.587 98.7947 147.587 97.792V90.8H149.283V97.808C149.283 98.7893 149.518 99.5093 149.987 99.968C150.457 100.427 151.091 100.656 151.891 100.656C152.681 100.656 153.31 100.427 153.779 99.968C154.249 99.5093 154.483 98.7893 154.483 97.808V90.8H156.179V97.792C156.179 98.7947 155.982 99.6213 155.587 100.272C155.203 100.923 154.681 101.408 154.019 101.728C153.369 102.037 152.649 102.192 151.859 102.192ZM158.355 102V90.8H160.051V102H158.355ZM161.604 103.648L165.604 89.664H167.268L163.252 103.648H161.604ZM173.016 102.192C172.216 102.192 171.49 102.037 170.84 101.728C170.2 101.408 169.688 100.923 169.304 100.272C168.93 99.6213 168.743 98.7947 168.743 97.792V90.8H170.44V97.808C170.44 98.7893 170.674 99.5093 171.144 99.968C171.613 100.427 172.248 100.656 173.048 100.656C173.837 100.656 174.466 100.427 174.936 99.968C175.405 99.5093 175.64 98.7893 175.64 97.808V90.8H177.336V97.792C177.336 98.7947 177.138 99.6213 176.744 100.272C176.36 100.923 175.837 101.408 175.176 101.728C174.525 102.037 173.805 102.192 173.016 102.192ZM178.951 102L182.407 96.336L178.919 90.8H180.855L183.495 94.992L185.959 90.8H187.863L184.391 96.416L187.911 102H185.975L183.319 97.776L180.855 102H178.951Z" fill="black"/>
<path d="M96.2318 11.8701C97.9935 12.0824 99.6268 12.2481 101.248 12.4931C101.75 12.5677 101.752 12.3951 101.752 12.0171C101.741 9.00008 101.745 5.98541 101.745 2.96841C101.745 1.94874 102.1 1.58941 103.113 1.58941C110.374 1.58941 117.638 1.59408 124.899 1.58008C125.431 1.58008 125.807 1.74574 126.161 2.14708C128.985 5.34841 131.82 8.53808 134.662 11.7231C135.334 12.4767 135.352 12.8594 134.753 13.6597C128.175 22.4331 121.6 31.2087 115.029 39.9891C114.408 40.8197 113.599 40.8197 112.978 39.9914C106.407 31.2134 99.8345 22.4377 93.2568 13.6667C92.6478 12.8547 92.6641 12.4791 93.3361 11.7324C94.7641 10.1457 96.1758 8.54508 97.5945 6.95141C97.7485 6.77874 97.8978 6.59908 98.0635 6.43808C98.5581 5.95741 99.1438 5.91541 99.6175 6.32374C100.112 6.74841 100.168 7.38074 99.6945 7.93141C98.7285 9.05841 97.7298 10.1574 96.7475 11.2704C96.5958 11.4337 96.4535 11.6087 96.2318 11.8701ZM119.287 30.4037C119.539 30.3407 119.614 30.1027 119.747 29.9277C123.532 24.8901 127.314 19.8501 131.089 14.8077C131.206 14.6514 131.409 14.5301 131.372 14.2361C131.096 14.2571 130.826 14.2664 130.555 14.3014C129.248 14.4671 127.946 14.6724 126.637 14.7914C126.136 14.8381 125.872 14.9804 125.664 15.4611C123.606 20.2444 121.516 25.0137 119.446 29.7924C119.364 29.9837 119.15 30.1657 119.297 30.4201C119.266 30.4201 119.236 30.4201 119.206 30.4201C119.21 30.4387 119.213 30.4597 119.217 30.4784C119.241 30.4551 119.264 30.4294 119.287 30.4037ZM108.678 30.4364C108.71 30.5111 108.743 30.5834 108.778 30.6581C108.944 30.5647 108.846 30.4504 108.801 30.3431C106.624 25.3171 104.447 20.2934 102.277 15.2674C102.135 14.9384 101.911 14.8427 101.58 14.8124C100.936 14.7517 100.299 14.6211 99.6548 14.5791C98.6398 14.5114 97.6388 14.2384 96.5118 14.2687C96.6845 14.5091 96.7871 14.6584 96.8945 14.8031C99.3398 18.0627 101.78 21.3271 104.23 24.5844C105.705 26.5351 107.196 28.4834 108.678 30.4364ZM113.986 36.6361C117.169 29.3141 120.274 22.1694 123.394 14.9921C123.219 14.9734 123.151 14.9594 123.081 14.9594C117.099 14.9571 111.116 14.9641 105.133 14.9454C104.51 14.9431 104.648 15.1741 104.809 15.5427C106.062 18.4011 107.308 21.2641 108.552 24.1271C110.339 28.2361 112.124 32.3497 113.986 36.6361ZM105.633 12.6704C111.258 12.6704 116.774 12.6704 122.367 12.6704C119.642 9.94741 116.98 7.29441 114.329 4.62741C114.072 4.37074 113.932 4.36141 113.671 4.62508C111.025 7.29208 108.363 9.94508 105.633 12.6704ZM103.974 10.9064C106.344 8.53808 108.708 6.17674 111.067 3.81774C108.857 3.81774 106.594 3.82008 104.331 3.81308C104.067 3.81308 103.967 3.88774 103.969 4.16308C103.978 6.42874 103.974 8.69441 103.974 10.9064ZM124.024 11.0697C124.024 8.71774 124.012 6.47541 124.033 4.23541C124.038 3.81308 123.835 3.81308 123.529 3.81541C121.469 3.82474 119.406 3.81774 117.346 3.82708C117.183 3.82708 116.98 3.72441 116.861 3.90408C119.222 6.26541 121.579 8.62208 124.024 11.0697ZM131.792 11.8607C129.923 9.76075 128.14 7.76108 126.301 5.69841C126.301 8.07841 126.301 10.3091 126.301 12.5491C128.119 12.3204 129.883 12.1011 131.792 11.8607Z" fill="#283339"/>
<path d="M113.986 68.4154C104.543 68.4154 95.0979 68.4154 85.6549 68.4154C85.4472 68.4154 85.2372 68.4248 85.0295 68.4108C84.3739 68.3618 83.9259 67.9021 83.9305 67.2954C83.9352 66.6864 84.3832 66.2151 85.0435 66.1964C85.9932 66.1708 86.9475 66.1684 87.8972 66.1964C88.3032 66.2081 88.4315 66.0728 88.3872 65.6878C88.3615 65.4591 88.3685 65.2234 88.3919 64.9924C88.4549 64.3834 88.9239 63.9588 89.5049 63.9634C90.0859 63.9681 90.5292 64.3928 90.6062 65.0088C90.6552 65.3914 90.4195 65.9281 90.7229 66.1194C91.0239 66.3084 91.5325 66.1428 91.9432 66.1964C92.6362 66.2898 92.9185 66.0938 92.8555 65.3308C92.7832 64.4651 93.2639 63.9518 93.9639 63.9634C94.6592 63.9751 95.1212 64.4861 95.0465 65.3611C94.9835 66.1008 95.2542 66.3038 95.9192 66.1894C95.9869 66.1778 96.0592 66.1871 96.1269 66.1871C97.2259 66.1871 97.2259 66.1871 97.2935 65.1138C97.3379 64.4161 97.7975 63.9494 98.4299 63.9634C99.0342 63.9751 99.4705 64.4278 99.5172 65.0951C99.5965 66.1871 99.5965 66.1871 100.663 66.1871C100.756 66.1871 100.852 66.1731 100.941 66.1894C101.613 66.3201 101.809 66.0564 101.762 65.3821C101.699 64.4698 102.177 63.9401 102.894 63.9634C103.589 63.9868 104.018 64.4861 103.955 65.3821C103.909 66.0588 104.107 66.3201 104.777 66.1871C104.821 66.1778 104.87 66.1871 104.917 66.1848C105.311 66.1801 105.794 66.3131 106.074 66.1311C106.394 65.9258 106.156 65.4054 106.2 65.0251C106.272 64.4138 106.709 63.9751 107.285 63.9611C107.889 63.9448 108.356 64.3928 108.426 65.0414C108.466 65.4054 108.253 65.9304 108.515 66.0938C108.82 66.2828 109.313 66.1824 109.726 66.1848C110.638 66.1918 110.638 66.1871 110.654 65.2958C110.668 64.4698 111.077 63.9751 111.751 63.9634C112.451 63.9518 112.934 64.4651 112.864 65.3284C112.803 66.0891 113.083 66.3084 113.774 66.1871C113.818 66.1801 113.867 66.1871 113.914 66.1871C115.029 66.1894 115.029 66.1894 115.113 65.0811C115.162 64.4208 115.606 63.9704 116.215 63.9658C116.821 63.9611 117.281 64.4068 117.339 65.0601C117.44 66.1918 117.44 66.1918 118.585 66.1894C118.772 66.1894 118.959 66.1708 119.141 66.1918C119.472 66.2291 119.603 66.1078 119.57 65.7694C119.544 65.5174 119.551 65.2584 119.575 65.0041C119.635 64.3928 120.097 63.9681 120.678 63.9658C121.257 63.9634 121.71 64.3904 121.789 65.0018C121.838 65.3844 121.607 65.9234 121.903 66.1148C122.202 66.3061 122.706 66.1871 123.121 66.1894C124.001 66.1941 124.001 66.1918 124.02 65.2724C124.036 64.4581 124.463 63.9611 125.142 63.9681C125.819 63.9751 126.232 64.4721 126.248 65.2934C126.264 66.1941 126.264 66.1941 127.167 66.1918C127.237 66.1918 127.307 66.1918 127.377 66.1918C128.416 66.1918 128.416 66.1918 128.479 65.1278C128.518 64.4301 128.978 63.9588 129.608 63.9681C130.238 63.9774 130.67 64.4488 130.707 65.1604C130.758 66.1918 130.758 66.1918 131.771 66.1918C131.888 66.1918 132.007 66.1754 132.119 66.1941C132.772 66.3131 133.001 66.0891 132.952 65.3938C132.886 64.4721 133.355 63.9494 134.074 63.9681C134.772 63.9844 135.203 64.4861 135.145 65.3774C135.103 66.0378 135.271 66.3294 135.957 66.1918C136.001 66.1824 136.05 66.1918 136.097 66.1918C136.491 66.1894 136.972 66.3224 137.257 66.1451C137.581 65.9421 137.345 65.4218 137.39 65.0414C137.46 64.4231 137.887 63.9891 138.465 63.9704C139.07 63.9494 139.548 64.3974 139.616 65.0391C139.653 65.4031 139.45 65.8908 139.7 66.1031C139.996 66.3574 140.498 66.1848 140.908 66.1894C141.844 66.2011 141.846 66.1918 141.846 65.2421C141.846 64.5468 141.849 63.8491 141.844 63.1538C141.837 62.1131 141.461 61.7421 140.409 61.7398C133.145 61.7374 125.884 61.7374 118.62 61.7374C108.386 61.7374 98.1545 61.7374 87.9205 61.7374C86.5299 61.7374 86.4925 61.7771 86.1192 63.0954C85.9559 63.6741 85.5499 63.9938 84.9315 63.9541C84.3552 63.9168 83.9515 63.4408 83.9259 62.8178C83.8512 61.0678 85.4332 59.5161 87.3349 59.5114C91.1872 59.5021 95.0395 59.4951 98.8895 59.5231C99.4379 59.5278 99.6572 59.3878 99.8322 58.8418C100.542 56.6134 102.63 55.0711 104.975 55.0641C111.009 55.0408 117.041 55.0408 123.075 55.0664C125.373 55.0758 127.473 56.6344 128.159 58.8254C128.343 59.4111 128.605 59.5254 129.158 59.5208C132.917 59.4974 136.676 59.5068 140.435 59.5091C142.705 59.5114 144.068 60.8764 144.075 63.1468C144.077 64.3998 144.077 65.6528 144.075 66.9058C144.072 68.0771 143.725 68.4178 142.528 68.4178C133.012 68.4154 123.499 68.4154 113.986 68.4154ZM113.93 59.5044C117.759 59.5044 121.588 59.5044 125.417 59.4998C125.592 59.4998 125.835 59.5954 125.935 59.4344C126.059 59.2338 125.851 59.0494 125.744 58.8814C125.105 57.8618 124.171 57.2901 122.979 57.2878C116.992 57.2691 111.007 57.2691 105.019 57.2878C103.822 57.2924 102.896 57.8688 102.254 58.8838C102.149 59.0518 101.939 59.2361 102.068 59.4368C102.168 59.5954 102.408 59.4998 102.586 59.5021C106.366 59.5068 110.148 59.5044 113.93 59.5044Z" fill="#283339"/>
<path d="M141.849 2.64971C141.879 2.04771 142.395 1.57171 142.997 1.59037C143.601 1.61137 144.084 2.12004 144.072 2.72204C144.061 3.34971 143.512 3.85604 142.887 3.81404C142.29 3.77671 141.818 3.24937 141.849 2.64971Z" fill="#303B41"/>
<path d="M87.2836 8.27111C86.6816 8.28044 86.1706 7.79511 86.152 7.19311C86.131 6.56544 86.6536 6.03344 87.2813 6.04511C87.8833 6.05444 88.3756 6.55611 88.378 7.15811C88.3803 7.75778 87.8856 8.26178 87.2836 8.27111Z" fill="#303B41"/>
<path d="M140.701 8.27116C140.099 8.25249 139.613 7.74383 139.62 7.14183C139.627 6.50949 140.169 6.00549 140.799 6.04516C141.401 6.08249 141.874 6.60749 141.846 7.20716C141.821 7.80449 141.298 8.28983 140.701 8.27116Z" fill="#303B41"/>
<path d="M89.547 10.4994C90.149 10.5298 90.6273 11.0478 90.604 11.6498C90.5806 12.2774 90.0253 12.7744 89.4023 12.7231C88.8026 12.6741 88.3406 12.1398 88.3803 11.5401C88.4223 10.9381 88.9473 10.4691 89.547 10.4994Z" fill="#303B41"/>
<path d="M139.618 11.6428C139.602 12.2448 139.093 12.7348 138.491 12.7255C137.889 12.7162 137.394 12.2168 137.39 11.6148C137.387 10.9872 137.924 10.4692 138.552 10.4972C139.154 10.5252 139.634 11.0408 139.618 11.6428Z" fill="#303B41"/>
<path d="M92.8346 16.0849C92.8253 16.6869 92.3236 17.1816 91.724 17.1816C91.1196 17.1816 90.6203 16.6916 90.611 16.0872C90.6016 15.4549 91.1243 14.9369 91.7566 14.9556C92.3586 14.9742 92.8416 15.4806 92.8346 16.0849Z" fill="#303B41"/>
<path d="M136.244 17.1807C135.642 17.162 135.154 16.6557 135.164 16.0537C135.173 15.4214 135.712 14.9197 136.342 14.957C136.942 14.992 137.415 15.517 137.387 16.1167C137.362 16.7187 136.844 17.1994 136.244 17.1807Z" fill="#303B41"/>
<path d="M95.0627 20.5354C95.0557 21.1327 94.5517 21.6344 93.9521 21.6367C93.3244 21.639 92.8087 21.1024 92.8344 20.4747C92.8601 19.8704 93.3711 19.392 93.9754 19.4107C94.5821 19.427 95.0697 19.9334 95.0627 20.5354Z" fill="#303B41"/>
<path d="M135.161 20.5095C135.168 21.1092 134.678 21.6179 134.076 21.6342C133.472 21.6505 132.961 21.1722 132.935 20.5679C132.907 19.9379 133.421 19.4059 134.053 19.4082C134.662 19.4129 135.154 19.9029 135.161 20.5095Z" fill="#303B41"/>
<path d="M96.1644 26.0919C95.5577 26.0849 95.0677 25.5903 95.063 24.9859C95.0584 24.3559 95.5904 23.8403 96.2204 23.8683C96.8247 23.8939 97.303 24.4049 97.2867 25.0093C97.2727 25.6089 96.7664 26.0989 96.1644 26.0919Z" fill="#303B41"/>
<path d="M131.817 26.0916C131.215 26.0893 130.718 25.5946 130.709 24.9903C130.702 24.3859 131.187 23.8819 131.792 23.8656C132.422 23.8493 132.949 24.3696 132.935 24.9996C132.921 25.6016 132.417 26.0939 131.817 26.0916Z" fill="#303B41"/>
<path d="M99.5172 29.41C99.5312 30.012 99.0482 30.5253 98.4462 30.5487C97.8466 30.572 97.3239 30.0937 97.2912 29.494C97.2562 28.8687 97.7672 28.325 98.3972 28.3203C98.9992 28.3157 99.5032 28.8057 99.5172 29.41Z" fill="#303B41"/>
<path d="M130.707 29.4096C130.721 30.007 130.233 30.525 129.634 30.5483C129.008 30.5716 128.474 30.0536 128.479 29.4236C128.483 28.817 128.978 28.3246 129.582 28.3223C130.189 28.3176 130.693 28.8076 130.707 29.4096Z" fill="#303B41"/>
<path d="M100.63 32.7774C101.235 32.775 101.736 33.2674 101.746 33.8694C101.757 34.497 101.228 35.0197 100.6 35.0034C99.9979 34.987 99.5126 34.4783 99.5196 33.8764C99.5289 33.2697 100.026 32.7797 100.63 32.7774Z" fill="#303B41"/>
<path d="M127.361 35.0023C126.759 34.9976 126.26 34.503 126.253 33.901C126.246 33.2733 126.778 32.7506 127.405 32.7763C128.007 32.7996 128.49 33.3106 128.479 33.9126C128.467 34.5123 127.963 35.007 127.361 35.0023Z" fill="#303B41"/>
<path d="M103.971 38.3555C103.964 38.9575 103.463 39.4545 102.863 39.4568C102.259 39.4592 101.757 38.9692 101.748 38.3648C101.736 37.7325 102.259 37.2145 102.891 37.2308C103.493 37.2472 103.981 37.7535 103.971 38.3555Z" fill="#303B41"/>
<path d="M108.428 38.3365C108.43 38.9385 107.94 39.4425 107.338 39.4565C106.708 39.4728 106.186 38.9455 106.202 38.3155C106.216 37.7112 106.72 37.2258 107.324 37.2305C107.929 37.2375 108.426 37.7345 108.428 38.3365Z" fill="#303B41"/>
<path d="M120.692 39.4576C120.09 39.4623 119.586 38.9723 119.57 38.3679C119.553 37.7636 120.032 37.2526 120.638 37.2293C121.268 37.2059 121.8 37.7216 121.798 38.3493C121.791 38.9513 121.289 39.4529 120.692 39.4576Z" fill="#303B41"/>
<path d="M125.142 37.2305C125.744 37.2328 126.243 37.7251 126.25 38.3295C126.257 38.9315 125.769 39.4401 125.167 39.4565C124.537 39.4751 124.012 38.9525 124.024 38.3225C124.038 37.7158 124.537 37.2305 125.142 37.2305Z" fill="#303B41"/>
<path d="M106.202 42.7822C106.212 43.3795 105.719 43.8952 105.122 43.9139C104.494 43.9325 103.967 43.4122 103.976 42.7799C103.986 42.1732 104.483 41.6855 105.089 41.6855C105.691 41.6879 106.193 42.1802 106.202 42.7822Z" fill="#303B41"/>
<path d="M109.55 43.9118C108.946 43.9165 108.444 43.4265 108.43 42.8245C108.416 42.1922 108.937 41.6718 109.569 41.6858C110.173 41.6998 110.661 42.2038 110.654 42.8082C110.652 43.4102 110.152 43.9072 109.55 43.9118Z" fill="#303B41"/>
<path d="M86.1497 2.73108C86.1357 3.33075 85.627 3.82308 85.0274 3.81841C84.395 3.81141 83.891 3.27475 83.926 2.64475C83.961 2.04275 84.4814 1.56908 85.081 1.59475C85.6877 1.61575 86.166 2.12675 86.1497 2.73108Z" fill="#303B41"/>
<path d="M118.45 43.9105C117.848 43.9058 117.348 43.4112 117.341 42.8092C117.334 42.1815 117.866 41.6588 118.494 41.6845C119.096 41.7078 119.579 42.2188 119.567 42.8208C119.556 43.4228 119.052 43.9152 118.45 43.9105Z" fill="#303B41"/>
<path d="M122.939 41.688C123.544 41.7044 124.029 42.2084 124.022 42.8127C124.015 43.4404 123.469 43.9514 122.844 43.914C122.239 43.8767 121.77 43.3587 121.796 42.7544C121.824 42.15 122.337 41.6694 122.939 41.688Z" fill="#303B41"/>
<path d="M107.327 46.1427C107.934 46.1497 108.424 46.6443 108.428 47.2487C108.431 47.8763 107.894 48.3943 107.269 48.3663C106.664 48.3407 106.188 47.8297 106.205 47.223C106.219 46.621 106.723 46.1357 107.327 46.1427Z" fill="#303B41"/>
<path d="M112.885 47.2299C112.899 47.8273 112.411 48.3453 111.812 48.3686C111.186 48.3919 110.652 47.8739 110.657 47.2439C110.661 46.6373 111.156 46.1449 111.76 46.1426C112.367 46.1379 112.871 46.6279 112.885 47.2299Z" fill="#303B41"/>
<path d="M116.257 46.143C116.861 46.1593 117.346 46.6633 117.339 47.2677C117.332 47.8697 116.833 48.3666 116.231 48.369C115.601 48.3713 115.085 47.837 115.113 47.2093C115.141 46.605 115.652 46.1267 116.257 46.143Z" fill="#303B41"/>
<path d="M115.111 42.8123C115.102 43.4143 114.605 43.909 114.003 43.9136C113.375 43.9183 112.859 43.3816 112.887 42.754C112.913 42.1496 113.426 41.6713 114.031 41.69C114.633 41.704 115.12 42.2103 115.111 42.8123Z" fill="#303B41"/>
<path d="M110.657 51.6994C110.664 52.3014 110.174 52.8077 109.572 52.8217C108.97 52.8357 108.456 52.3527 108.431 51.7531C108.405 51.1254 108.923 50.5911 109.551 50.5957C110.153 50.6004 110.65 51.0951 110.657 51.6994Z" fill="#303B41"/>
<path d="M113.993 50.5957C114.6 50.5911 115.099 51.0787 115.113 51.6831C115.127 52.3107 114.6 52.8381 113.972 52.8217C113.366 52.8054 112.883 52.3037 112.887 51.6994C112.892 51.0927 113.389 50.6004 113.993 50.5957Z" fill="#303B41"/>
<path d="M119.568 51.74C119.551 52.3397 119.038 52.832 118.441 52.825C117.813 52.818 117.307 52.272 117.342 51.6444C117.377 51.04 117.897 50.571 118.499 50.5967C119.103 50.6247 119.584 51.138 119.568 51.74Z" fill="#303B41"/>
<path d="M92.8347 2.71011C92.8323 3.31211 92.3353 3.81145 91.7333 3.81845C91.1313 3.82312 90.625 3.33545 90.6063 2.73345C90.59 2.10578 91.1127 1.57612 91.7427 1.59012C92.3447 1.60412 92.837 2.10578 92.8347 2.71011Z" fill="#303B41"/>
<path d="M137.39 2.73231C137.373 3.33431 136.865 3.82431 136.265 3.81498C135.663 3.80564 135.166 3.30864 135.164 2.70664C135.161 2.07898 135.698 1.56098 136.323 1.58898C136.925 1.61698 137.406 2.13031 137.39 2.73231Z" fill="#303B41"/>
<path d="M121.796 47.2682C121.786 47.8702 121.285 48.3648 120.685 48.3672C120.057 48.3695 119.542 47.8328 119.572 47.2028C119.6 46.5985 120.113 46.1225 120.718 46.1412C121.32 46.1598 121.805 46.6662 121.796 47.2682Z" fill="#303B41"/>
<path d="M108.799 30.3398C108.846 30.4495 108.942 30.5615 108.776 30.6548C108.743 30.5802 108.711 30.5078 108.676 30.4332C108.718 30.4028 108.76 30.3725 108.799 30.3398Z" fill="#FDFDFD"/>
<path d="M119.287 30.4043C119.264 30.43 119.241 30.4556 119.22 30.4813C119.215 30.4626 119.213 30.4416 119.208 30.423C119.238 30.423 119.269 30.423 119.299 30.423L119.287 30.4043Z" fill="#FDFDFD"/>
</svg>
