<svg width="228" height="129" viewBox="0 0 228 129" fill="none" xmlns="http://www.w3.org/2000/svg">
<path d="M99.3352 49.218C95.6975 48.3943 92.0645 47.5707 88.4338 46.7493C87.7105 46.586 86.9895 46.418 86.2685 46.2523C85.5522 46.089 85.5242 46.1123 85.6712 46.8147C86.1192 48.9707 86.5695 51.1243 87.0198 53.2803C87.4655 55.413 87.9112 57.5457 88.3592 59.6783C88.3802 59.7833 88.4292 59.8813 88.4945 60.068C89.4862 59.095 90.4288 58.1733 91.3715 57.2493C92.1975 56.4397 92.6292 56.4373 93.4832 57.2143C98.6678 61.9277 104.734 64.618 111.734 65.1407C126.976 66.2793 140.693 55.8727 143.668 40.9183C144.037 39.0633 144.228 37.185 144.247 35.288C144.256 34.3967 144.683 33.895 145.376 33.923C146.044 33.951 146.433 34.4433 146.408 35.3113C146.051 46.7307 141.153 55.7047 131.712 62.098C125.933 66.011 119.444 67.7097 112.476 67.3713C105.094 67.0143 98.5605 64.4033 92.9302 59.599C92.4985 59.2303 92.3095 59.326 91.9805 59.662C90.9398 60.7213 89.8688 61.7503 88.8142 62.798C88.4502 63.1597 88.0698 63.477 87.5122 63.309C86.9685 63.1457 86.7865 62.7187 86.6768 62.1937C85.4985 56.519 84.3038 50.849 83.1185 45.1767C82.8735 44.003 83.4988 43.4173 84.7005 43.6903C89.5188 44.7823 94.3372 45.8767 99.1532 46.971C100.03 47.1693 100.91 47.3467 101.783 47.566C102.807 47.825 103.061 48.7583 102.312 49.512C101.251 50.583 100.177 51.6423 99.0808 52.6783C98.7215 53.0167 98.6678 53.1847 99.0995 53.5253C103.257 56.8083 107.98 58.5443 113.267 58.7543C113.47 58.7613 113.673 58.7567 113.874 58.766C114.616 58.7963 115.08 59.2187 115.076 59.8533C115.071 60.4903 114.595 60.922 113.86 60.9243C112.257 60.9337 110.668 60.7703 109.1 60.4623C104.361 59.5337 100.191 57.45 96.6005 54.216C95.7792 53.4763 95.7768 52.9117 96.5538 52.1253C97.4848 51.185 98.3832 50.2143 99.3352 49.218Z" fill="#29353B"/>
<path d="M128.686 20.7763C133.075 21.7726 137.473 22.7666 141.869 23.7746C142.334 23.8819 142.46 23.7839 142.357 23.3033C141.433 18.9306 140.525 14.5533 139.608 10.1783C139.597 10.1199 139.538 10.0686 139.368 9.81428C138.425 10.8246 137.536 11.8069 136.615 12.7566C135.833 13.5639 135.362 13.5639 134.554 12.8173C129.944 8.56594 124.542 5.87094 118.328 5.07761C107.59 3.70794 98.4974 7.07494 91.2454 15.1296C86.9824 19.8639 84.6281 25.5059 83.9141 31.8269C83.8068 32.7859 83.7928 33.7566 83.7554 34.7226C83.7204 35.5859 83.3471 36.0689 82.6751 36.0736C81.9774 36.0783 81.5668 35.5743 81.5924 34.6713C81.8934 23.9309 86.3268 15.2743 94.9134 8.85061C100.938 4.34494 107.819 2.31028 115.335 2.62061C122.797 2.92861 129.393 5.55361 135.084 10.4023C135.462 10.7243 135.639 10.7383 135.985 10.3813C137.032 9.29861 138.124 8.25561 139.195 7.19394C139.559 6.83228 139.942 6.51961 140.5 6.69461C141.041 6.86494 141.216 7.29894 141.326 7.81928C142.504 13.4939 143.696 19.1639 144.882 24.8363C145.117 25.9679 144.499 26.5793 143.356 26.3226C139.937 25.5549 136.524 24.7756 133.108 23.9986C130.851 23.4853 128.6 22.9626 126.341 22.4609C125.842 22.3513 125.457 22.1529 125.312 21.6256C125.174 21.1216 125.408 20.7646 125.746 20.4309C126.84 19.3623 127.921 18.2773 129.024 17.2156C129.3 16.9496 129.318 16.8143 129.001 16.5576C125.312 13.5896 121.124 11.8443 116.413 11.3636C115.652 11.2866 114.887 11.2703 114.124 11.2306C113.384 11.1933 112.92 10.7709 112.927 10.1363C112.934 9.50161 113.412 9.06061 114.145 9.06994C120.806 9.16561 126.614 11.4453 131.556 15.9159C132.202 16.5016 132.172 17.1223 131.54 17.7779C130.59 18.7649 129.652 19.7589 128.686 20.7763Z" fill="#29353B"/>
<path d="M109.674 11.2283C109.095 11.2259 108.61 10.7429 108.603 10.1643C108.596 9.5856 109.07 9.09093 109.651 9.0746C110.257 9.05827 110.771 9.56694 110.757 10.1713C110.743 10.7499 110.25 11.2283 109.674 11.2283Z" fill="#29353B"/>
<path d="M119.399 59.8273C119.409 60.406 118.935 60.903 118.356 60.9216C117.752 60.9403 117.236 60.4316 117.243 59.8273C117.253 59.2486 117.743 58.7656 118.321 58.7656C118.898 58.768 119.388 59.2486 119.399 59.8273Z" fill="#29353B"/>
<path d="M42.4084 102V92.176H39.0964V90.8H47.4004V92.176H44.1044V102H42.4084ZM51.1981 102.192C50.4194 102.192 49.7261 102.021 49.1181 101.68C48.5207 101.328 48.0514 100.843 47.7101 100.224C47.3687 99.6053 47.1981 98.8853 47.1981 98.064C47.1981 97.232 47.3634 96.5013 47.6941 95.872C48.0354 95.2427 48.5047 94.752 49.1021 94.4C49.7101 94.048 50.4141 93.872 51.2141 93.872C51.9927 93.872 52.6701 94.048 53.2461 94.4C53.8221 94.7413 54.2701 95.2 54.5901 95.776C54.9101 96.352 55.0701 96.9867 55.0701 97.68C55.0701 97.7867 55.0647 97.904 55.0541 98.032C55.0541 98.1493 55.0487 98.2827 55.0381 98.432H48.8621C48.9154 99.2 49.1661 99.7867 49.6141 100.192C50.0727 100.587 50.6007 100.784 51.1981 100.784C51.6781 100.784 52.0781 100.677 52.3981 100.464C52.7287 100.24 52.9741 99.9413 53.1341 99.568H54.8301C54.6167 100.315 54.1901 100.939 53.5501 101.44C52.9207 101.941 52.1367 102.192 51.1981 102.192ZM51.1981 95.264C50.6327 95.264 50.1314 95.4347 49.6941 95.776C49.2567 96.1067 48.9901 96.608 48.8941 97.28H53.3741C53.3421 96.6613 53.1234 96.1707 52.7181 95.808C52.3127 95.4453 51.8061 95.264 51.1981 95.264ZM59.9978 102.192C58.9951 102.192 58.1685 101.947 57.5178 101.456C56.8671 100.965 56.4938 100.315 56.3978 99.504H58.1098C58.1951 99.8667 58.3978 100.181 58.7178 100.448C59.0378 100.704 59.4591 100.832 59.9818 100.832C60.4938 100.832 60.8671 100.725 61.1018 100.512C61.3365 100.299 61.4538 100.053 61.4538 99.776C61.4538 99.3707 61.2885 99.0987 60.9578 98.96C60.6378 98.8107 60.1898 98.6773 59.6138 98.56C59.1658 98.464 58.7178 98.336 58.2698 98.176C57.8325 98.016 57.4645 97.792 57.1658 97.504C56.8778 97.2053 56.7338 96.8053 56.7338 96.304C56.7338 95.6107 57.0005 95.0347 57.5338 94.576C58.0671 94.1067 58.8138 93.872 59.7738 93.872C60.6591 93.872 61.3738 94.0853 61.9178 94.512C62.4725 94.9387 62.7978 95.5413 62.8938 96.32H61.2618C61.2085 95.9787 61.0485 95.712 60.7818 95.52C60.5258 95.328 60.1791 95.232 59.7418 95.232C59.3151 95.232 58.9845 95.3227 58.7498 95.504C58.5151 95.6747 58.3978 95.8987 58.3978 96.176C58.3978 96.4533 58.5578 96.672 58.8778 96.832C59.2085 96.992 59.6405 97.136 60.1738 97.264C60.7071 97.3813 61.1978 97.52 61.6458 97.68C62.1045 97.8293 62.4725 98.0533 62.7498 98.352C63.0271 98.6507 63.1658 99.088 63.1658 99.664C63.1765 100.389 62.8938 100.992 62.3178 101.472C61.7525 101.952 60.9791 102.192 59.9978 102.192ZM68.0484 102C67.2698 102 66.6511 101.813 66.1924 101.44C65.7338 101.056 65.5044 100.379 65.5044 99.408V95.488H64.1444V94.064H65.5044L65.7124 92.048H67.2004V94.064H69.4404V95.488H67.2004V99.408C67.2004 99.8453 67.2911 100.149 67.4724 100.32C67.6644 100.48 67.9898 100.56 68.4484 100.56H69.3604V102H68.0484ZM72.1492 92.56C71.8292 92.56 71.5625 92.464 71.3492 92.272C71.1465 92.0693 71.0452 91.8187 71.0452 91.52C71.0452 91.2213 71.1465 90.976 71.3492 90.784C71.5625 90.5813 71.8292 90.48 72.1492 90.48C72.4692 90.48 72.7305 90.5813 72.9332 90.784C73.1465 90.976 73.2532 91.2213 73.2532 91.52C73.2532 91.8187 73.1465 92.0693 72.9332 92.272C72.7305 92.464 72.4692 92.56 72.1492 92.56ZM71.3012 102V94.064H72.9972V102H71.3012ZM75.2361 102V94.064H76.7401L76.8681 95.456C77.1134 94.9653 77.4707 94.5813 77.9401 94.304C78.4201 94.016 78.9694 93.872 79.5881 93.872C80.5481 93.872 81.3001 94.1707 81.8441 94.768C82.3987 95.3653 82.6761 96.256 82.6761 97.44V102H80.9961V97.616C80.9961 96.08 80.3667 95.312 79.1081 95.312C78.4787 95.312 77.9561 95.536 77.5401 95.984C77.1347 96.432 76.9321 97.072 76.9321 97.904V102H75.2361ZM87.9216 99.568C87.5056 99.568 87.1216 99.52 86.7696 99.424L86.0816 100.096C86.1989 100.171 86.3429 100.235 86.5136 100.288C86.6842 100.341 86.9242 100.389 87.2336 100.432C87.5429 100.475 87.9642 100.517 88.4976 100.56C89.5536 100.656 90.3162 100.912 90.7856 101.328C91.2549 101.733 91.4896 102.277 91.4896 102.96C91.4896 103.429 91.3616 103.872 91.1056 104.288C90.8602 104.715 90.4709 105.056 89.9376 105.312C89.4149 105.579 88.7429 105.712 87.9216 105.712C86.8122 105.712 85.9109 105.499 85.2176 105.072C84.5349 104.656 84.1936 104.021 84.1936 103.168C84.1936 102.837 84.2789 102.507 84.4496 102.176C84.6309 101.856 84.9136 101.552 85.2976 101.264C85.0736 101.168 84.8762 101.067 84.7056 100.96C84.5456 100.843 84.4016 100.725 84.2736 100.608V100.224L85.6496 98.816C85.0309 98.2827 84.7216 97.584 84.7216 96.72C84.7216 96.1973 84.8442 95.7227 85.0896 95.296C85.3456 94.8587 85.7136 94.512 86.1936 94.256C86.6736 94 87.2496 93.872 87.9216 93.872C88.3696 93.872 88.7856 93.936 89.1696 94.064H92.1296V95.184L90.7216 95.264C90.9776 95.7013 91.1056 96.1867 91.1056 96.72C91.1056 97.2533 90.9776 97.7333 90.7216 98.16C90.4762 98.5867 90.1136 98.928 89.6336 99.184C89.1642 99.44 88.5936 99.568 87.9216 99.568ZM87.9216 98.24C88.4122 98.24 88.8069 98.112 89.1056 97.856C89.4149 97.5893 89.5696 97.216 89.5696 96.736C89.5696 96.2453 89.4149 95.872 89.1056 95.616C88.8069 95.36 88.4122 95.232 87.9216 95.232C87.4202 95.232 87.0149 95.36 86.7056 95.616C86.4069 95.872 86.2576 96.2453 86.2576 96.736C86.2576 97.216 86.4069 97.5893 86.7056 97.856C87.0149 98.112 87.4202 98.24 87.9216 98.24ZM85.7936 103.008C85.7936 103.467 85.9962 103.808 86.4016 104.032C86.8069 104.267 87.3136 104.384 87.9216 104.384C88.5082 104.384 88.9829 104.256 89.3456 104C89.7082 103.755 89.8896 103.424 89.8896 103.008C89.8896 102.699 89.7669 102.432 89.5216 102.208C89.2762 101.995 88.8122 101.861 88.1296 101.808C87.6176 101.776 87.1642 101.728 86.7696 101.664C86.3962 101.867 86.1402 102.085 86.0016 102.32C85.8629 102.555 85.7936 102.784 85.7936 103.008ZM101.002 102C100.223 102 99.6042 101.813 99.1456 101.44C98.6869 101.056 98.4576 100.379 98.4576 99.408V95.488H97.0976V94.064H98.4576L98.6656 92.048H100.154V94.064H102.394V95.488H100.154V99.408C100.154 99.8453 100.244 100.149 100.426 100.32C100.618 100.48 100.943 100.56 101.402 100.56H102.314V102H101.002ZM104.142 102V90.48H105.838V95.344C106.105 94.8853 106.473 94.528 106.942 94.272C107.422 94.0053 107.95 93.872 108.526 93.872C109.476 93.872 110.222 94.1707 110.766 94.768C111.31 95.3653 111.582 96.256 111.582 97.44V102H109.902V97.616C109.902 96.08 109.289 95.312 108.062 95.312C107.422 95.312 106.889 95.536 106.462 95.984C106.046 96.432 105.838 97.072 105.838 97.904V102H104.142ZM117.292 102.192C116.513 102.192 115.82 102.021 115.212 101.68C114.614 101.328 114.145 100.843 113.804 100.224C113.462 99.6053 113.292 98.8853 113.292 98.064C113.292 97.232 113.457 96.5013 113.788 95.872C114.129 95.2427 114.598 94.752 115.196 94.4C115.804 94.048 116.508 93.872 117.308 93.872C118.086 93.872 118.764 94.048 119.34 94.4C119.916 94.7413 120.364 95.2 120.684 95.776C121.004 96.352 121.164 96.9867 121.164 97.68C121.164 97.7867 121.158 97.904 121.148 98.032C121.148 98.1493 121.142 98.2827 121.132 98.432H114.956C115.009 99.2 115.26 99.7867 115.708 100.192C116.166 100.587 116.694 100.784 117.292 100.784C117.772 100.784 118.172 100.677 118.492 100.464C118.822 100.24 119.068 99.9413 119.228 99.568H120.924C120.71 100.315 120.284 100.939 119.644 101.44C119.014 101.941 118.23 102.192 117.292 102.192ZM117.292 95.264C116.726 95.264 116.225 95.4347 115.788 95.776C115.35 96.1067 115.084 96.608 114.988 97.28H119.468C119.436 96.6613 119.217 96.1707 118.812 95.808C118.406 95.4453 117.9 95.264 117.292 95.264ZM130.715 102.192C129.936 102.192 129.237 102.016 128.619 101.664C128.011 101.312 127.531 100.827 127.179 100.208C126.837 99.5787 126.667 98.8533 126.667 98.032C126.667 97.2107 126.837 96.4907 127.179 95.872C127.531 95.2427 128.011 94.752 128.619 94.4C129.237 94.048 129.936 93.872 130.715 93.872C131.696 93.872 132.517 94.128 133.179 94.64C133.851 95.152 134.283 95.8453 134.475 96.72H132.699C132.592 96.2827 132.357 95.9413 131.995 95.696C131.632 95.4507 131.205 95.328 130.715 95.328C130.299 95.328 129.915 95.4347 129.563 95.648C129.211 95.8507 128.928 96.1547 128.715 96.56C128.501 96.9547 128.395 97.4453 128.395 98.032C128.395 98.6187 128.501 99.1147 128.715 99.52C128.928 99.9147 129.211 100.219 129.563 100.432C129.915 100.645 130.299 100.752 130.715 100.752C131.205 100.752 131.632 100.629 131.995 100.384C132.357 100.139 132.592 99.792 132.699 99.344H134.475C134.293 100.197 133.867 100.885 133.195 101.408C132.523 101.931 131.696 102.192 130.715 102.192ZM140.026 102.192C139.269 102.192 138.586 102.021 137.978 101.68C137.381 101.328 136.906 100.843 136.554 100.224C136.202 99.5947 136.026 98.864 136.026 98.032C136.026 97.2 136.202 96.4747 136.554 95.856C136.917 95.2267 137.402 94.7413 138.01 94.4C138.618 94.048 139.296 93.872 140.042 93.872C140.8 93.872 141.477 94.048 142.074 94.4C142.682 94.7413 143.162 95.2267 143.514 95.856C143.877 96.4747 144.058 97.2 144.058 98.032C144.058 98.864 143.877 99.5947 143.514 100.224C143.162 100.843 142.682 101.328 142.074 101.68C141.466 102.021 140.784 102.192 140.026 102.192ZM140.026 100.736C140.432 100.736 140.805 100.635 141.146 100.432C141.498 100.229 141.781 99.9307 141.994 99.536C142.208 99.1307 142.314 98.6293 142.314 98.032C142.314 97.4347 142.208 96.9387 141.994 96.544C141.792 96.1387 141.514 95.8347 141.162 95.632C140.821 95.4293 140.448 95.328 140.042 95.328C139.637 95.328 139.258 95.4293 138.906 95.632C138.565 95.8347 138.288 96.1387 138.074 96.544C137.861 96.9387 137.754 97.4347 137.754 98.032C137.754 98.6293 137.861 99.1307 138.074 99.536C138.288 99.9307 138.565 100.229 138.906 100.432C139.248 100.635 139.621 100.736 140.026 100.736ZM145.892 102V94.064H147.396L147.524 95.456C147.77 94.9653 148.127 94.5813 148.596 94.304C149.076 94.016 149.626 93.872 150.244 93.872C151.204 93.872 151.956 94.1707 152.5 94.768C153.055 95.3653 153.332 96.256 153.332 97.44V102H151.652V97.616C151.652 96.08 151.023 95.312 149.764 95.312C149.135 95.312 148.612 95.536 148.196 95.984C147.791 96.432 147.588 97.072 147.588 97.904V102H145.892ZM159.09 102.192C158.311 102.192 157.612 102.016 156.994 101.664C156.386 101.312 155.906 100.827 155.554 100.208C155.212 99.5787 155.042 98.8533 155.042 98.032C155.042 97.2107 155.212 96.4907 155.554 95.872C155.906 95.2427 156.386 94.752 156.994 94.4C157.612 94.048 158.311 93.872 159.09 93.872C160.071 93.872 160.892 94.128 161.554 94.64C162.226 95.152 162.658 95.8453 162.85 96.72H161.074C160.967 96.2827 160.732 95.9413 160.37 95.696C160.007 95.4507 159.58 95.328 159.09 95.328C158.674 95.328 158.29 95.4347 157.938 95.648C157.586 95.8507 157.303 96.1547 157.09 96.56C156.876 96.9547 156.77 97.4453 156.77 98.032C156.77 98.6187 156.876 99.1147 157.09 99.52C157.303 99.9147 157.586 100.219 157.938 100.432C158.29 100.645 158.674 100.752 159.09 100.752C159.58 100.752 160.007 100.629 160.37 100.384C160.732 100.139 160.967 99.792 161.074 99.344H162.85C162.668 100.197 162.242 100.885 161.57 101.408C160.898 101.931 160.071 102.192 159.09 102.192ZM168.401 102.192C167.623 102.192 166.929 102.021 166.321 101.68C165.724 101.328 165.255 100.843 164.913 100.224C164.572 99.6053 164.401 98.8853 164.401 98.064C164.401 97.232 164.567 96.5013 164.897 95.872C165.239 95.2427 165.708 94.752 166.305 94.4C166.913 94.048 167.617 93.872 168.417 93.872C169.196 93.872 169.873 94.048 170.449 94.4C171.025 94.7413 171.473 95.2 171.793 95.776C172.113 96.352 172.273 96.9867 172.273 97.68C172.273 97.7867 172.268 97.904 172.257 98.032C172.257 98.1493 172.252 98.2827 172.241 98.432H166.065C166.119 99.2 166.369 99.7867 166.817 100.192C167.276 100.587 167.804 100.784 168.401 100.784C168.881 100.784 169.281 100.677 169.601 100.464C169.932 100.24 170.177 99.9413 170.337 99.568H172.033C171.82 100.315 171.393 100.939 170.753 101.44C170.124 101.941 169.34 102.192 168.401 102.192ZM168.401 95.264C167.836 95.264 167.335 95.4347 166.897 95.776C166.46 96.1067 166.193 96.608 166.097 97.28H170.577C170.545 96.6613 170.327 96.1707 169.921 95.808C169.516 95.4453 169.009 95.264 168.401 95.264ZM174.033 105.52V94.064H175.553L175.729 95.296C175.985 94.9227 176.337 94.592 176.785 94.304C177.233 94.016 177.809 93.872 178.513 93.872C179.281 93.872 179.958 94.0533 180.545 94.416C181.132 94.7787 181.59 95.2747 181.921 95.904C182.262 96.5333 182.433 97.248 182.433 98.048C182.433 98.848 182.262 99.5627 181.921 100.192C181.59 100.811 181.132 101.301 180.545 101.664C179.958 102.016 179.276 102.192 178.497 102.192C177.878 102.192 177.329 102.069 176.849 101.824C176.38 101.579 176.006 101.232 175.729 100.784V105.52H174.033ZM178.209 100.72C178.934 100.72 179.532 100.475 180.001 99.984C180.47 99.4827 180.705 98.832 180.705 98.032C180.705 97.5093 180.598 97.0453 180.385 96.64C180.172 96.2347 179.878 95.92 179.505 95.696C179.132 95.4613 178.7 95.344 178.209 95.344C177.484 95.344 176.886 95.5947 176.417 96.096C175.958 96.5973 175.729 97.2427 175.729 98.032C175.729 98.832 175.958 99.4827 176.417 99.984C176.886 100.475 177.484 100.72 178.209 100.72ZM187.283 102C186.504 102 185.885 101.813 185.427 101.44C184.968 101.056 184.739 100.379 184.739 99.408V95.488H183.379V94.064H184.739L184.947 92.048H186.435V94.064H188.675V95.488H186.435V99.408C186.435 99.8453 186.525 100.149 186.707 100.32C186.899 100.48 187.224 100.56 187.683 100.56H188.595V102H187.283Z" fill="black"/>
</svg>
