<svg width="228" height="130" viewBox="0 0 228 130" fill="none" xmlns="http://www.w3.org/2000/svg">
<path d="M109.66 49.2575C108.214 50.8441 107.49 52.5708 107.49 54.5541C107.467 58.3574 107.49 62.1608 107.49 65.9641C107.49 66.1275 107.49 66.2908 107.49 66.4308C107.467 67.1775 107.024 67.6441 106.394 67.6208C105.764 67.5974 105.344 67.1308 105.32 66.3841C105.32 66.1274 105.32 65.8941 105.32 65.6374C105.32 62.0208 105.32 58.3808 105.32 54.7641C105.32 51.4741 106.604 48.7908 109.217 46.7841C109.567 46.5274 109.684 46.2474 109.684 45.8274C109.66 40.7174 109.66 35.5841 109.684 30.4741C109.684 30.0541 109.567 29.7508 109.357 29.4008C107.21 26.1574 107.537 27.0908 107.514 23.2408C107.49 20.9074 107.514 18.5741 107.514 16.2408C107.49 12.5774 108.54 9.24078 110.687 6.27745C111.48 5.20411 112.227 4.10745 113.02 3.01078C113.65 2.14745 114.42 2.14745 115.05 3.01078C115.914 4.20078 116.777 5.39078 117.617 6.60411C119.554 9.45078 120.534 12.6008 120.534 16.0541C120.534 19.0874 120.51 22.1208 120.534 25.1541C120.534 26.1808 120.347 27.1141 119.694 27.8841C118.574 29.1674 118.294 30.6374 118.317 32.3174C118.41 36.8208 118.364 41.3241 118.34 45.8508C118.34 46.2941 118.48 46.5508 118.807 46.8074C121.374 48.7908 122.68 51.4274 122.704 54.6708C122.727 58.5208 122.704 62.3708 122.704 66.2208C122.704 66.2441 122.704 66.2674 122.704 66.2908C122.704 67.1541 122.307 67.6441 121.63 67.6441C120.954 67.6441 120.534 67.1541 120.534 66.2908C120.534 62.4874 120.534 58.6841 120.534 54.8808C120.534 54.1108 120.464 53.3408 120.254 52.5941C119.927 51.3808 119.32 50.3074 118.34 49.2808C118.34 49.6541 118.34 49.8874 118.34 50.1441C118.34 55.5341 118.34 60.9241 118.34 66.3141C118.34 67.3175 117.99 67.6674 117.01 67.6674C115.027 67.6674 113.02 67.6674 111.037 67.6674C109.987 67.6674 109.66 67.3408 109.66 66.3141C109.66 60.9475 109.66 55.5808 109.66 50.2141C109.66 49.9108 109.66 49.6774 109.66 49.2575ZM111.83 47.2974C111.83 53.1541 111.83 58.9874 111.807 64.8441C111.807 65.3574 111.924 65.4974 112.437 65.4741C113.534 65.4274 114.607 65.4508 115.704 65.4741C116.1 65.4741 116.194 65.3574 116.194 64.9841C116.17 60.9474 116.17 56.9108 116.194 52.8741C116.194 52.4775 116.054 52.3841 115.704 52.4074C115.144 52.4308 114.56 52.4308 114 52.4074C113.37 52.3841 112.927 51.9174 112.927 51.3108C112.927 50.7274 113.37 50.2608 114.024 50.2374C114.537 50.2141 115.074 50.1908 115.587 50.2374C116.124 50.2841 116.217 50.0975 116.217 49.6074C116.194 46.0608 116.217 42.4908 116.194 38.9441C116.194 38.3841 116.38 37.6608 116.1 37.3108C115.797 36.9374 115.05 37.2408 114.49 37.1941C114.35 37.1941 114.21 37.1941 114.094 37.1941C113.394 37.1474 112.95 36.7274 112.95 36.0974C112.95 35.4908 113.417 35.0475 114.117 35.0241C114.63 35.0008 115.167 34.9775 115.68 35.0241C116.147 35.0708 116.24 34.8841 116.217 34.4641C116.194 33.8341 116.264 33.1808 116.194 32.5741C115.914 30.2874 116.45 28.2808 117.99 26.5774C118.317 26.2274 118.387 25.7841 118.387 25.3174C118.364 22.5408 118.294 19.7408 118.41 16.9641C118.597 12.6008 116.917 8.98411 114.28 5.69411C114.07 5.43745 113.977 5.46078 113.79 5.71745C113.277 6.44078 112.764 7.16411 112.25 7.88745C110.547 10.3374 109.684 13.0441 109.684 16.0308C109.684 18.2941 109.8 20.5808 109.637 22.8208C109.497 25.0374 109.917 26.9741 111.41 28.6308C111.784 29.0274 111.854 29.5408 111.854 30.0774C111.83 35.7941 111.83 41.5574 111.83 47.2974Z" fill="#273339"/>
<path d="M98.1568 49.7468C96.4768 48.2068 95.3335 46.4102 94.7735 44.2402C93.5602 39.5735 95.5902 34.6268 99.7435 32.2002C100.21 31.9435 100.234 31.7102 100.094 31.2435C99.2535 28.2102 100.77 24.9435 103.617 23.6602C104.34 23.3335 104.97 23.4968 105.25 24.0802C105.53 24.6635 105.274 25.2468 104.574 25.6202C102.614 26.6468 101.68 28.5602 102.147 30.5668C102.24 30.9635 102.38 31.0802 102.777 30.9402C103.127 30.8235 103.524 30.8002 103.92 30.7535C104.714 30.6368 105.25 30.9868 105.344 31.6402C105.437 32.3168 105.064 32.7602 104.224 32.9002C102.217 33.2035 100.467 34.0435 99.0435 35.4902C95.1935 39.4102 96.0102 46.0135 100.677 48.8835C100.864 49.0002 101.074 49.0935 101.284 49.1868C101.844 49.4435 102.147 49.8868 102.007 50.4935C101.867 51.1002 101.447 51.3802 100.817 51.3802C98.4835 51.3802 96.5702 53.3635 96.5935 55.6968C96.5935 56.0702 96.7102 56.3268 97.0135 56.5602C97.4102 56.8402 97.7835 57.1902 98.1335 57.5402C98.6468 58.0535 98.6935 58.7068 98.2502 59.1735C97.7835 59.6402 97.1768 59.6168 96.6402 59.1035C95.1002 57.5868 93.2568 56.7935 91.0868 56.7935C86.2568 56.8168 82.7102 61.2968 83.7368 66.0802C83.9002 66.8502 83.7135 67.3168 83.1535 67.5735C82.5002 67.8768 81.8468 67.4802 81.6368 66.6868C80.3768 61.7168 83.4102 56.4668 88.3802 55.0202C90.2468 54.4602 92.1368 54.4602 94.0035 55.0435C94.3768 55.1602 94.4468 55.0668 94.5168 54.7402C95.0535 52.2435 95.9168 51.0768 98.1568 49.7468Z" fill="#29353B"/>
<path d="M125.573 40.4601C125.48 40.4601 125.223 40.5068 124.943 40.5068C124.337 40.5068 123.87 40.1101 123.8 39.5501C123.73 38.9901 124.08 38.5001 124.687 38.3601C125.223 38.2434 125.783 38.2201 126.32 38.2668C126.857 38.3368 127.02 38.1268 127.067 37.6134C127.3 34.5801 124.99 31.8968 121.933 31.7334C121.77 31.7334 121.607 31.7334 121.467 31.7101C120.883 31.6168 120.51 31.1034 120.557 30.5434C120.603 29.9601 121.07 29.5401 121.723 29.5634C123.777 29.6101 125.573 30.3334 127.02 31.8034C128.77 33.6001 129.517 35.7468 129.143 38.2668C129.097 38.6634 129.19 38.8034 129.54 38.9434C135.607 41.4401 137.66 48.5334 133.81 53.8768C133.577 54.2034 133.553 54.3434 133.927 54.5768C134.813 55.1134 135.513 55.8601 135.98 56.7934C136.19 57.1901 136.377 57.1901 136.773 57.0968C141.907 55.5801 146.853 59.4301 146.62 64.7734C146.597 65.4501 146.457 66.1268 146.223 66.7568C145.99 67.4101 145.453 67.7368 144.87 67.5734C144.263 67.3868 143.937 66.8034 144.17 66.1034C145.057 63.3268 143.727 60.7601 141.743 59.6401C140.343 58.8468 138.85 58.6834 137.287 59.1734C136.937 59.2901 136.797 59.4534 136.82 59.8501C136.867 60.7134 136.703 61.5534 136.377 62.3701C136.097 63.1168 135.513 63.4201 134.907 63.1868C134.277 62.9301 134.09 62.3934 134.347 61.6001C135.14 59.2201 134.137 56.8634 131.943 55.9768C130.847 55.5334 129.75 55.5568 128.63 55.9768C127.883 56.2568 127.23 55.8834 127.113 55.2068C127.02 54.6001 127.277 54.2034 127.837 53.9701C128.723 53.6201 129.657 53.4101 130.613 53.5034C131.08 53.5501 131.383 53.4101 131.663 53.0601C133.693 50.5634 134.137 47.8101 132.83 44.8701C131.617 42.0468 128.863 40.3901 125.573 40.4601Z" fill="#29353B"/>
<path d="M87.8668 2.38086C88.2634 2.38086 88.4968 2.54419 88.7301 2.73086C91.5534 5.08753 94.4001 7.42086 97.2468 9.77753C97.8301 10.2675 97.9234 10.9442 97.5034 11.4342C97.0834 11.9009 96.4301 11.9242 95.8701 11.4575C93.0001 9.10086 90.1301 6.72086 87.2834 4.36419C86.8868 4.03753 86.7001 3.61753 86.8868 3.10419C87.0734 2.61419 87.4234 2.38086 87.8668 2.38086Z" fill="#29353B"/>
<path d="M136.657 23.5434C136.027 23.4967 135.63 23.2167 135.537 22.6567C135.42 22.0734 135.7 21.6534 136.237 21.4201C137.73 20.7667 139.224 20.1367 140.717 19.5067C142.094 18.9234 143.447 18.3401 144.824 17.7567C145.547 17.4534 146.177 17.6634 146.434 18.2701C146.69 18.8767 146.41 19.4601 145.664 19.7634C142.84 20.9767 140.017 22.1667 137.17 23.3567C137.007 23.4501 136.797 23.4967 136.657 23.5434Z" fill="#29353B"/>
<path d="M98.6703 25.1308C98.647 25.9474 97.9003 26.3908 97.0603 26.0641C95.567 25.4574 94.097 24.8274 92.627 24.1974C91.3437 23.6608 90.0603 23.1008 88.7537 22.5408C88.007 22.2141 87.727 21.6541 87.9837 21.0474C88.2637 20.4408 88.847 20.2308 89.5703 20.5341C92.3237 21.7008 95.0537 22.8674 97.807 24.0108C98.3203 24.2208 98.6703 24.5241 98.6703 25.1308Z" fill="#29353B"/>
<path d="M127.184 16.6607C126.74 16.6374 126.414 16.4274 126.227 16.0307C126.017 15.5874 126.11 15.1674 126.414 14.8407C126.834 14.3974 127.3 14.0007 127.744 13.5807C129.424 11.9707 131.127 10.384 132.807 8.77403C133.437 8.16737 134.044 8.1207 134.534 8.6107C135.024 9.1007 134.93 9.77737 134.277 10.384C132.224 12.3207 130.17 14.2807 128.117 16.2174C127.884 16.4507 127.604 16.684 127.184 16.6607Z" fill="#29353B"/>
<path d="M141.09 3.47819C141.09 3.82819 140.95 4.08486 140.693 4.31819C140.063 4.92486 139.41 5.55486 138.757 6.13819C138.243 6.60486 137.613 6.60486 137.17 6.16152C136.727 5.69486 136.727 5.08819 137.24 4.59819C137.893 3.94486 138.57 3.31486 139.27 2.68486C139.62 2.38152 140.017 2.28819 140.46 2.52152C140.88 2.68486 141.067 3.03486 141.09 3.47819Z" fill="#29353B"/>
<path d="M82.5704 17.5938C83.2937 17.8504 84.1337 18.0838 84.8104 18.6204C85.2071 18.9238 85.2071 19.4137 84.9971 19.8571C84.7637 20.3004 84.3437 20.5571 83.8771 20.4171C83.1537 20.2304 82.4537 19.9504 81.8471 19.5304C81.4271 19.2737 81.3104 18.8071 81.4737 18.3404C81.6137 17.8737 81.9637 17.6171 82.5704 17.5938Z" fill="#29353B"/>
<path d="M85.7202 36.1675C85.7202 36.8675 85.2769 37.3808 84.6469 37.3808C84.0402 37.3808 83.5735 36.8908 83.5502 36.2375C83.5269 35.5375 83.9702 35.0241 84.6002 35.0008C85.2535 34.9775 85.7202 35.4675 85.7202 36.1675Z" fill="#29353B"/>
<path d="M142.28 36.1908C142.28 35.4908 142.747 34.9774 143.377 35.0008C144.007 35.0008 144.474 35.5141 144.45 36.2141C144.45 36.8674 143.984 37.3808 143.377 37.3808C142.77 37.4041 142.28 36.8908 142.28 36.1908Z" fill="#29353B"/>
<path d="M90.0835 42.7232C90.0835 43.4232 89.5935 43.9365 88.9635 43.9132C88.3568 43.8899 87.9135 43.3999 87.8901 42.7465C87.8901 42.0465 88.3335 41.5332 88.9635 41.5332C89.6168 41.5332 90.0835 42.0232 90.0835 42.7232Z" fill="#29353B"/>
<path d="M140.11 42.7945C140.087 43.4478 139.597 43.9378 138.99 43.9145C138.337 43.8911 137.894 43.3311 137.94 42.6078C137.987 41.9545 138.477 41.4878 139.084 41.5345C139.714 41.5811 140.157 42.0945 140.11 42.7945Z" fill="#29353B"/>
<path d="M85.7203 49.2805C85.697 49.9805 85.207 50.4705 84.577 50.4472C83.9703 50.4238 83.5503 49.9105 83.5503 49.2572C83.5503 48.5572 84.017 48.0438 84.647 48.0672C85.3003 48.0672 85.7436 48.5805 85.7203 49.2805Z" fill="#29353B"/>
<path d="M142.28 49.2349C142.28 48.5349 142.747 48.0449 143.4 48.0449C144.007 48.0683 144.45 48.5349 144.474 49.2116C144.474 49.9116 144.03 50.4249 143.4 50.4483C142.747 50.4483 142.28 49.9349 142.28 49.2349Z" fill="#29353B"/>
<path d="M114.117 17.5938C113.417 17.5938 112.904 17.1272 112.927 16.4972C112.95 15.8672 113.44 15.4238 114.164 15.4238C114.84 15.4472 115.307 15.8905 115.33 16.4972C115.33 17.1272 114.817 17.5938 114.117 17.5938Z" fill="#29353B"/>
<path d="M41.0266 102V90.8H44.6586C45.9706 90.8 47.048 91.0293 47.8906 91.488C48.744 91.9467 49.3733 92.5973 49.7786 93.44C50.1946 94.272 50.4026 95.264 50.4026 96.416C50.4026 97.5573 50.1946 98.5493 49.7786 99.392C49.3733 100.224 48.744 100.869 47.8906 101.328C47.048 101.776 45.9706 102 44.6586 102H41.0266ZM42.7226 100.56H44.5946C45.608 100.56 46.408 100.395 46.9946 100.064C47.592 99.7333 48.0186 99.2587 48.2746 98.64C48.5413 98.0213 48.6746 97.28 48.6746 96.416C48.6746 95.552 48.5413 94.8053 48.2746 94.176C48.0186 93.5467 47.592 93.0667 46.9946 92.736C46.408 92.3947 45.608 92.224 44.5946 92.224H42.7226V100.56ZM55.9246 102.192C55.146 102.192 54.4526 102.021 53.8446 101.68C53.2473 101.328 52.778 100.843 52.4366 100.224C52.0953 99.6053 51.9246 98.8853 51.9246 98.064C51.9246 97.232 52.09 96.5013 52.4206 95.872C52.762 95.2427 53.2313 94.752 53.8286 94.4C54.4366 94.048 55.1406 93.872 55.9406 93.872C56.7193 93.872 57.3966 94.048 57.9726 94.4C58.5486 94.7413 58.9966 95.2 59.3166 95.776C59.6366 96.352 59.7966 96.9867 59.7966 97.68C59.7966 97.7867 59.7913 97.904 59.7806 98.032C59.7806 98.1493 59.7753 98.2827 59.7646 98.432H53.5886C53.642 99.2 53.8926 99.7867 54.3406 100.192C54.7993 100.587 55.3273 100.784 55.9246 100.784C56.4046 100.784 56.8046 100.677 57.1246 100.464C57.4553 100.24 57.7006 99.9413 57.8606 99.568H59.5566C59.3433 100.315 58.9166 100.939 58.2766 101.44C57.6473 101.941 56.8633 102.192 55.9246 102.192ZM55.9246 95.264C55.3593 95.264 54.858 95.4347 54.4206 95.776C53.9833 96.1067 53.7166 96.608 53.6206 97.28H58.1006C58.0686 96.6613 57.85 96.1707 57.4446 95.808C57.0393 95.4453 56.5326 95.264 55.9246 95.264ZM61.5564 102V90.48H63.2524V102H61.5564ZM66.3601 92.56C66.0401 92.56 65.7735 92.464 65.5601 92.272C65.3575 92.0693 65.2561 91.8187 65.2561 91.52C65.2561 91.2213 65.3575 90.976 65.5601 90.784C65.7735 90.5813 66.0401 90.48 66.3601 90.48C66.6801 90.48 66.9415 90.5813 67.1441 90.784C67.3575 90.976 67.4641 91.2213 67.4641 91.52C67.4641 91.8187 67.3575 92.0693 67.1441 92.272C66.9415 92.464 66.6801 92.56 66.3601 92.56ZM65.5121 102V94.064H67.2081V102H65.5121ZM71.671 102L68.695 94.064H70.471L72.679 100.384L74.887 94.064H76.647L73.687 102H71.671ZM81.3465 102.192C80.5678 102.192 79.8745 102.021 79.2665 101.68C78.6692 101.328 78.1998 100.843 77.8585 100.224C77.5172 99.6053 77.3465 98.8853 77.3465 98.064C77.3465 97.232 77.5118 96.5013 77.8425 95.872C78.1838 95.2427 78.6532 94.752 79.2505 94.4C79.8585 94.048 80.5625 93.872 81.3625 93.872C82.1412 93.872 82.8185 94.048 83.3945 94.4C83.9705 94.7413 84.4185 95.2 84.7385 95.776C85.0585 96.352 85.2185 96.9867 85.2185 97.68C85.2185 97.7867 85.2132 97.904 85.2025 98.032C85.2025 98.1493 85.1972 98.2827 85.1865 98.432H79.0105C79.0638 99.2 79.3145 99.7867 79.7625 100.192C80.2212 100.587 80.7492 100.784 81.3465 100.784C81.8265 100.784 82.2265 100.677 82.5465 100.464C82.8772 100.24 83.1225 99.9413 83.2825 99.568H84.9785C84.7652 100.315 84.3385 100.939 83.6985 101.44C83.0692 101.941 82.2852 102.192 81.3465 102.192ZM81.3465 95.264C80.7812 95.264 80.2798 95.4347 79.8425 95.776C79.4052 96.1067 79.1385 96.608 79.0425 97.28H83.5225C83.4905 96.6613 83.2718 96.1707 82.8665 95.808C82.4612 95.4453 81.9545 95.264 81.3465 95.264ZM86.9783 102V94.064H88.4983L88.6423 95.568C88.9196 95.0453 89.3036 94.6347 89.7943 94.336C90.2956 94.0267 90.8983 93.872 91.6023 93.872V95.648H91.1383C90.6689 95.648 90.2476 95.728 89.8743 95.888C89.5116 96.0373 89.2183 96.2987 88.9943 96.672C88.7809 97.0347 88.6743 97.5413 88.6743 98.192V102H86.9783ZM93.9844 105.52L95.8884 101.344H95.4244L92.2884 94.064H94.1284L96.5604 99.936L99.1044 94.064H100.896L95.7764 105.52H93.9844ZM109.01 102.192C108.338 102.192 107.783 102.08 107.346 101.856C106.909 101.632 106.583 101.339 106.37 100.976C106.157 100.603 106.05 100.197 106.05 99.76C106.05 98.992 106.349 98.384 106.946 97.936C107.543 97.488 108.397 97.264 109.506 97.264H111.586V97.12C111.586 96.5013 111.415 96.0373 111.074 95.728C110.743 95.4187 110.311 95.264 109.778 95.264C109.309 95.264 108.898 95.3813 108.546 95.616C108.205 95.84 107.997 96.176 107.922 96.624H106.226C106.279 96.048 106.471 95.5573 106.802 95.152C107.143 94.736 107.57 94.4213 108.082 94.208C108.605 93.984 109.175 93.872 109.794 93.872C110.903 93.872 111.762 94.1653 112.37 94.752C112.978 95.328 113.282 96.1173 113.282 97.12V102H111.81L111.666 100.64C111.442 101.077 111.117 101.445 110.69 101.744C110.263 102.043 109.703 102.192 109.01 102.192ZM109.346 100.816C109.805 100.816 110.189 100.709 110.498 100.496C110.818 100.272 111.063 99.9787 111.234 99.616C111.415 99.2533 111.527 98.8533 111.57 98.416H109.682C109.01 98.416 108.53 98.5333 108.242 98.768C107.965 99.0027 107.826 99.296 107.826 99.648C107.826 100.011 107.959 100.299 108.226 100.512C108.503 100.715 108.877 100.816 109.346 100.816ZM115.26 102V94.064H116.764L116.892 95.456C117.137 94.9653 117.494 94.5813 117.964 94.304C118.444 94.016 118.993 93.872 119.612 93.872C120.572 93.872 121.324 94.1707 121.868 94.768C122.422 95.3653 122.7 96.256 122.7 97.44V102H121.02V97.616C121.02 96.08 120.39 95.312 119.132 95.312C118.502 95.312 117.98 95.536 117.564 95.984C117.158 96.432 116.956 97.072 116.956 97.904V102H115.26ZM128.313 102.192C127.545 102.192 126.868 102.011 126.281 101.648C125.694 101.285 125.236 100.789 124.905 100.16C124.574 99.5307 124.409 98.816 124.409 98.016C124.409 97.216 124.574 96.5067 124.905 95.888C125.236 95.2587 125.694 94.768 126.281 94.416C126.878 94.0533 127.561 93.872 128.329 93.872C128.958 93.872 129.508 93.9947 129.977 94.24C130.457 94.4853 130.83 94.832 131.097 95.28V90.48H132.793V102H131.273L131.097 100.768C130.841 101.141 130.489 101.472 130.041 101.76C129.593 102.048 129.017 102.192 128.313 102.192ZM128.617 100.72C129.342 100.72 129.934 100.469 130.393 99.968C130.862 99.4667 131.097 98.8213 131.097 98.032C131.097 97.232 130.862 96.5867 130.393 96.096C129.934 95.5947 129.342 95.344 128.617 95.344C127.892 95.344 127.294 95.5947 126.825 96.096C126.356 96.5867 126.121 97.232 126.121 98.032C126.121 98.5547 126.228 99.0187 126.441 99.424C126.654 99.8293 126.948 100.149 127.321 100.384C127.705 100.608 128.137 100.72 128.617 100.72ZM142.579 102.192C141.811 102.192 141.133 102.011 140.547 101.648C139.96 101.285 139.501 100.789 139.171 100.16C138.84 99.5307 138.675 98.816 138.675 98.016C138.675 97.216 138.84 96.5067 139.171 95.888C139.501 95.2587 139.96 94.768 140.547 94.416C141.144 94.0533 141.827 93.872 142.595 93.872C143.224 93.872 143.773 93.9947 144.243 94.24C144.723 94.4853 145.096 94.832 145.363 95.28V90.48H147.059V102H145.539L145.363 100.768C145.107 101.141 144.755 101.472 144.307 101.76C143.859 102.048 143.283 102.192 142.579 102.192ZM142.883 100.72C143.608 100.72 144.2 100.469 144.659 99.968C145.128 99.4667 145.363 98.8213 145.363 98.032C145.363 97.232 145.128 96.5867 144.659 96.096C144.2 95.5947 143.608 95.344 142.883 95.344C142.157 95.344 141.56 95.5947 141.091 96.096C140.621 96.5867 140.387 97.232 140.387 98.032C140.387 98.5547 140.493 99.0187 140.707 99.424C140.92 99.8293 141.213 100.149 141.587 100.384C141.971 100.608 142.403 100.72 142.883 100.72ZM152.909 102.192C152.13 102.192 151.437 102.021 150.829 101.68C150.232 101.328 149.762 100.843 149.421 100.224C149.08 99.6053 148.909 98.8853 148.909 98.064C148.909 97.232 149.074 96.5013 149.405 95.872C149.746 95.2427 150.216 94.752 150.813 94.4C151.421 94.048 152.125 93.872 152.925 93.872C153.704 93.872 154.381 94.048 154.957 94.4C155.533 94.7413 155.981 95.2 156.301 95.776C156.621 96.352 156.781 96.9867 156.781 97.68C156.781 97.7867 156.776 97.904 156.765 98.032C156.765 98.1493 156.76 98.2827 156.749 98.432H150.573C150.626 99.2 150.877 99.7867 151.325 100.192C151.784 100.587 152.312 100.784 152.909 100.784C153.389 100.784 153.789 100.677 154.109 100.464C154.44 100.24 154.685 99.9413 154.845 99.568H156.541C156.328 100.315 155.901 100.939 155.261 101.44C154.632 101.941 153.848 102.192 152.909 102.192ZM152.909 95.264C152.344 95.264 151.842 95.4347 151.405 95.776C150.968 96.1067 150.701 96.608 150.605 97.28H155.085C155.053 96.6613 154.834 96.1707 154.429 95.808C154.024 95.4453 153.517 95.264 152.909 95.264ZM161.709 102.192C160.706 102.192 159.879 101.947 159.229 101.456C158.578 100.965 158.205 100.315 158.109 99.504H159.821C159.906 99.8667 160.109 100.181 160.429 100.448C160.749 100.704 161.17 100.832 161.693 100.832C162.205 100.832 162.578 100.725 162.813 100.512C163.047 100.299 163.165 100.053 163.165 99.776C163.165 99.3707 162.999 99.0987 162.669 98.96C162.349 98.8107 161.901 98.6773 161.325 98.56C160.877 98.464 160.429 98.336 159.981 98.176C159.543 98.016 159.175 97.792 158.877 97.504C158.589 97.2053 158.445 96.8053 158.445 96.304C158.445 95.6107 158.711 95.0347 159.245 94.576C159.778 94.1067 160.525 93.872 161.485 93.872C162.37 93.872 163.085 94.0853 163.629 94.512C164.183 94.9387 164.509 95.5413 164.605 96.32H162.973C162.919 95.9787 162.759 95.712 162.493 95.52C162.237 95.328 161.89 95.232 161.453 95.232C161.026 95.232 160.695 95.3227 160.461 95.504C160.226 95.6747 160.109 95.8987 160.109 96.176C160.109 96.4533 160.269 96.672 160.589 96.832C160.919 96.992 161.351 97.136 161.885 97.264C162.418 97.3813 162.909 97.52 163.357 97.68C163.815 97.8293 164.183 98.0533 164.461 98.352C164.738 98.6507 164.877 99.088 164.877 99.664C164.887 100.389 164.605 100.992 164.029 101.472C163.463 101.952 162.69 102.192 161.709 102.192ZM167.688 92.56C167.368 92.56 167.102 92.464 166.888 92.272C166.686 92.0693 166.584 91.8187 166.584 91.52C166.584 91.2213 166.686 90.976 166.888 90.784C167.102 90.5813 167.368 90.48 167.688 90.48C168.008 90.48 168.27 90.5813 168.472 90.784C168.686 90.976 168.792 91.2213 168.792 91.52C168.792 91.8187 168.686 92.0693 168.472 92.272C168.27 92.464 168.008 92.56 167.688 92.56ZM166.84 102V94.064H168.536V102H166.84ZM174.023 99.568C173.607 99.568 173.223 99.52 172.871 99.424L172.183 100.096C172.3 100.171 172.444 100.235 172.615 100.288C172.786 100.341 173.026 100.389 173.335 100.432C173.644 100.475 174.066 100.517 174.599 100.56C175.655 100.656 176.418 100.912 176.887 101.328C177.356 101.733 177.591 102.277 177.591 102.96C177.591 103.429 177.463 103.872 177.207 104.288C176.962 104.715 176.572 105.056 176.039 105.312C175.516 105.579 174.844 105.712 174.023 105.712C172.914 105.712 172.012 105.499 171.319 105.072C170.636 104.656 170.295 104.021 170.295 103.168C170.295 102.837 170.38 102.507 170.551 102.176C170.732 101.856 171.015 101.552 171.399 101.264C171.175 101.168 170.978 101.067 170.807 100.96C170.647 100.843 170.503 100.725 170.375 100.608V100.224L171.751 98.816C171.132 98.2827 170.823 97.584 170.823 96.72C170.823 96.1973 170.946 95.7227 171.191 95.296C171.447 94.8587 171.815 94.512 172.295 94.256C172.775 94 173.351 93.872 174.023 93.872C174.471 93.872 174.887 93.936 175.271 94.064H178.231V95.184L176.823 95.264C177.079 95.7013 177.207 96.1867 177.207 96.72C177.207 97.2533 177.079 97.7333 176.823 98.16C176.578 98.5867 176.215 98.928 175.735 99.184C175.266 99.44 174.695 99.568 174.023 99.568ZM174.023 98.24C174.514 98.24 174.908 98.112 175.207 97.856C175.516 97.5893 175.671 97.216 175.671 96.736C175.671 96.2453 175.516 95.872 175.207 95.616C174.908 95.36 174.514 95.232 174.023 95.232C173.522 95.232 173.116 95.36 172.807 95.616C172.508 95.872 172.359 96.2453 172.359 96.736C172.359 97.216 172.508 97.5893 172.807 97.856C173.116 98.112 173.522 98.24 174.023 98.24ZM171.895 103.008C171.895 103.467 172.098 103.808 172.503 104.032C172.908 104.267 173.415 104.384 174.023 104.384C174.61 104.384 175.084 104.256 175.447 104C175.81 103.755 175.991 103.424 175.991 103.008C175.991 102.699 175.868 102.432 175.623 102.208C175.378 101.995 174.914 101.861 174.231 101.808C173.719 101.776 173.266 101.728 172.871 101.664C172.498 101.867 172.242 102.085 172.103 102.32C171.964 102.555 171.895 102.784 171.895 103.008ZM179.744 102V94.064H181.248L181.376 95.456C181.621 94.9653 181.979 94.5813 182.448 94.304C182.928 94.016 183.477 93.872 184.096 93.872C185.056 93.872 185.808 94.1707 186.352 94.768C186.907 95.3653 187.184 96.256 187.184 97.44V102H185.504V97.616C185.504 96.08 184.875 95.312 183.616 95.312C182.987 95.312 182.464 95.536 182.048 95.984C181.643 96.432 181.44 97.072 181.44 97.904V102H179.744ZM75.6601 126.192C74.8815 126.192 74.1828 126.016 73.5641 125.664C72.9561 125.312 72.4761 124.827 72.1241 124.208C71.7828 123.579 71.6121 122.853 71.6121 122.032C71.6121 121.211 71.7828 120.491 72.1241 119.872C72.4761 119.243 72.9561 118.752 73.5641 118.4C74.1828 118.048 74.8815 117.872 75.6601 117.872C76.6415 117.872 77.4628 118.128 78.1241 118.64C78.7961 119.152 79.2281 119.845 79.4201 120.72H77.6441C77.5375 120.283 77.3028 119.941 76.9401 119.696C76.5775 119.451 76.1508 119.328 75.6601 119.328C75.2441 119.328 74.8601 119.435 74.5081 119.648C74.1561 119.851 73.8735 120.155 73.6601 120.56C73.4468 120.955 73.3401 121.445 73.3401 122.032C73.3401 122.619 73.4468 123.115 73.6601 123.52C73.8735 123.915 74.1561 124.219 74.5081 124.432C74.8601 124.645 75.2441 124.752 75.6601 124.752C76.1508 124.752 76.5775 124.629 76.9401 124.384C77.3028 124.139 77.5375 123.792 77.6441 123.344H79.4201C79.2388 124.197 78.8121 124.885 78.1401 125.408C77.4681 125.931 76.6415 126.192 75.6601 126.192ZM84.9715 126.192C84.2142 126.192 83.5315 126.021 82.9235 125.68C82.3262 125.328 81.8515 124.843 81.4995 124.224C81.1475 123.595 80.9715 122.864 80.9715 122.032C80.9715 121.2 81.1475 120.475 81.4995 119.856C81.8622 119.227 82.3475 118.741 82.9555 118.4C83.5635 118.048 84.2408 117.872 84.9875 117.872C85.7448 117.872 86.4222 118.048 87.0195 118.4C87.6275 118.741 88.1075 119.227 88.4595 119.856C88.8222 120.475 89.0035 121.2 89.0035 122.032C89.0035 122.864 88.8222 123.595 88.4595 124.224C88.1075 124.843 87.6275 125.328 87.0195 125.68C86.4115 126.021 85.7288 126.192 84.9715 126.192ZM84.9715 124.736C85.3768 124.736 85.7502 124.635 86.0915 124.432C86.4435 124.229 86.7262 123.931 86.9395 123.536C87.1528 123.131 87.2595 122.629 87.2595 122.032C87.2595 121.435 87.1528 120.939 86.9395 120.544C86.7368 120.139 86.4595 119.835 86.1075 119.632C85.7662 119.429 85.3928 119.328 84.9875 119.328C84.5822 119.328 84.2035 119.429 83.8515 119.632C83.5102 119.835 83.2328 120.139 83.0195 120.544C82.8062 120.939 82.6995 121.435 82.6995 122.032C82.6995 122.629 82.8062 123.131 83.0195 123.536C83.2328 123.931 83.5102 124.229 83.8515 124.432C84.1928 124.635 84.5662 124.736 84.9715 124.736ZM90.8376 126V118.064H92.3416L92.4856 119.184C92.7416 118.779 93.0776 118.459 93.4936 118.224C93.9203 117.989 94.411 117.872 94.9656 117.872C96.2243 117.872 97.099 118.368 97.5896 119.36C97.8776 118.901 98.2616 118.539 98.7416 118.272C99.2323 118.005 99.7603 117.872 100.326 117.872C101.318 117.872 102.096 118.171 102.662 118.768C103.227 119.365 103.51 120.256 103.51 121.44V126H101.814V121.616C101.814 120.08 101.227 119.312 100.054 119.312C99.4563 119.312 98.9656 119.536 98.5816 119.984C98.2083 120.432 98.0216 121.072 98.0216 121.904V126H96.3256V121.616C96.3256 120.08 95.7336 119.312 94.5496 119.312C93.963 119.312 93.4776 119.536 93.0936 119.984C92.7203 120.432 92.5336 121.072 92.5336 121.904V126H90.8376ZM105.494 129.52V118.064H107.014L107.19 119.296C107.446 118.923 107.798 118.592 108.246 118.304C108.694 118.016 109.27 117.872 109.974 117.872C110.742 117.872 111.419 118.053 112.006 118.416C112.593 118.779 113.051 119.275 113.382 119.904C113.723 120.533 113.894 121.248 113.894 122.048C113.894 122.848 113.723 123.563 113.382 124.192C113.051 124.811 112.593 125.301 112.006 125.664C111.419 126.016 110.737 126.192 109.958 126.192C109.339 126.192 108.79 126.069 108.31 125.824C107.841 125.579 107.467 125.232 107.19 124.784V129.52H105.494ZM109.67 124.72C110.395 124.72 110.993 124.475 111.462 123.984C111.931 123.483 112.166 122.832 112.166 122.032C112.166 121.509 112.059 121.045 111.846 120.64C111.633 120.235 111.339 119.92 110.966 119.696C110.593 119.461 110.161 119.344 109.67 119.344C108.945 119.344 108.347 119.595 107.878 120.096C107.419 120.597 107.19 121.243 107.19 122.032C107.19 122.832 107.419 123.483 107.878 123.984C108.347 124.475 108.945 124.72 109.67 124.72ZM115.728 126V114.48H117.424V126H115.728ZM123.284 126.192C122.505 126.192 121.812 126.021 121.204 125.68C120.607 125.328 120.137 124.843 119.796 124.224C119.455 123.605 119.284 122.885 119.284 122.064C119.284 121.232 119.449 120.501 119.78 119.872C120.121 119.243 120.591 118.752 121.188 118.4C121.796 118.048 122.5 117.872 123.3 117.872C124.079 117.872 124.756 118.048 125.332 118.4C125.908 118.741 126.356 119.2 126.676 119.776C126.996 120.352 127.156 120.987 127.156 121.68C127.156 121.787 127.151 121.904 127.14 122.032C127.14 122.149 127.135 122.283 127.124 122.432H120.948C121.001 123.2 121.252 123.787 121.7 124.192C122.159 124.587 122.687 124.784 123.284 124.784C123.764 124.784 124.164 124.677 124.484 124.464C124.815 124.24 125.06 123.941 125.22 123.568H126.916C126.703 124.315 126.276 124.939 125.636 125.44C125.007 125.941 124.223 126.192 123.284 126.192ZM123.284 119.264C122.719 119.264 122.217 119.435 121.78 119.776C121.343 120.107 121.076 120.608 120.98 121.28H125.46C125.428 120.661 125.209 120.171 124.804 119.808C124.399 119.445 123.892 119.264 123.284 119.264ZM132.041 126C131.262 126 130.643 125.813 130.185 125.44C129.726 125.056 129.497 124.379 129.497 123.408V119.488H128.137V118.064H129.497L129.705 116.048H131.193V118.064H133.433V119.488H131.193V123.408C131.193 123.845 131.283 124.149 131.465 124.32C131.657 124.48 131.982 124.56 132.441 124.56H133.353V126H132.041ZM136.141 116.56C135.821 116.56 135.555 116.464 135.341 116.272C135.139 116.069 135.037 115.819 135.037 115.52C135.037 115.221 135.139 114.976 135.341 114.784C135.555 114.581 135.821 114.48 136.141 114.48C136.461 114.48 136.723 114.581 136.925 114.784C137.139 114.976 137.245 115.221 137.245 115.52C137.245 115.819 137.139 116.069 136.925 116.272C136.723 116.464 136.461 116.56 136.141 116.56ZM135.293 126V118.064H136.989V126H135.293ZM142.94 126.192C142.183 126.192 141.5 126.021 140.892 125.68C140.295 125.328 139.82 124.843 139.468 124.224C139.116 123.595 138.94 122.864 138.94 122.032C138.94 121.2 139.116 120.475 139.468 119.856C139.831 119.227 140.316 118.741 140.924 118.4C141.532 118.048 142.21 117.872 142.956 117.872C143.714 117.872 144.391 118.048 144.988 118.4C145.596 118.741 146.076 119.227 146.428 119.856C146.791 120.475 146.972 121.2 146.972 122.032C146.972 122.864 146.791 123.595 146.428 124.224C146.076 124.843 145.596 125.328 144.988 125.68C144.38 126.021 143.698 126.192 142.94 126.192ZM142.94 124.736C143.346 124.736 143.719 124.635 144.06 124.432C144.412 124.229 144.695 123.931 144.908 123.536C145.122 123.131 145.228 122.629 145.228 122.032C145.228 121.435 145.122 120.939 144.908 120.544C144.706 120.139 144.428 119.835 144.076 119.632C143.735 119.429 143.362 119.328 142.956 119.328C142.551 119.328 142.172 119.429 141.82 119.632C141.479 119.835 141.202 120.139 140.988 120.544C140.775 120.939 140.668 121.435 140.668 122.032C140.668 122.629 140.775 123.131 140.988 123.536C141.202 123.931 141.479 124.229 141.82 124.432C142.162 124.635 142.535 124.736 142.94 124.736ZM148.806 126V118.064H150.31L150.438 119.456C150.684 118.965 151.041 118.581 151.51 118.304C151.99 118.016 152.54 117.872 153.158 117.872C154.118 117.872 154.87 118.171 155.414 118.768C155.969 119.365 156.246 120.256 156.246 121.44V126H154.566V121.616C154.566 120.08 153.937 119.312 152.678 119.312C152.049 119.312 151.526 119.536 151.11 119.984C150.705 120.432 150.502 121.072 150.502 121.904V126H148.806Z" fill="black"/>
</svg>
