<svg width="298" height="127" viewBox="0 0 298 127" fill="none" xmlns="http://www.w3.org/2000/svg">
<path d="M100.886 100V88.8H102.582V100H100.886ZM104.791 100V92.064H106.295L106.423 93.456C106.668 92.9653 107.025 92.5813 107.495 92.304C107.975 92.016 108.524 91.872 109.143 91.872C110.103 91.872 110.855 92.1707 111.399 92.768C111.953 93.3653 112.231 94.256 112.231 95.44V100H110.551V95.616C110.551 94.08 109.921 93.312 108.663 93.312C108.033 93.312 107.511 93.536 107.095 93.984C106.689 94.432 106.487 95.072 106.487 95.904V100H104.791ZM117.556 100C116.778 100 116.159 99.8133 115.7 99.44C115.242 99.056 115.012 98.3787 115.012 97.408V93.488H113.652V92.064H115.012L115.22 90.048H116.708V92.064H118.948V93.488H116.708V97.408C116.708 97.8453 116.799 98.1493 116.98 98.32C117.172 98.48 117.498 98.56 117.956 98.56H118.868V100H117.556ZM124.206 100.192C123.427 100.192 122.734 100.021 122.126 99.68C121.529 99.328 121.059 98.8427 120.718 98.224C120.377 97.6053 120.206 96.8853 120.206 96.064C120.206 95.232 120.371 94.5013 120.702 93.872C121.043 93.2427 121.513 92.752 122.11 92.4C122.718 92.048 123.422 91.872 124.222 91.872C125.001 91.872 125.678 92.048 126.254 92.4C126.83 92.7413 127.278 93.2 127.598 93.776C127.918 94.352 128.078 94.9867 128.078 95.68C128.078 95.7867 128.073 95.904 128.062 96.032C128.062 96.1493 128.057 96.2827 128.046 96.432H121.87C121.923 97.2 122.174 97.7867 122.622 98.192C123.081 98.5867 123.609 98.784 124.206 98.784C124.686 98.784 125.086 98.6773 125.406 98.464C125.737 98.24 125.982 97.9413 126.142 97.568H127.838C127.625 98.3147 127.198 98.9387 126.558 99.44C125.929 99.9413 125.145 100.192 124.206 100.192ZM124.206 93.264C123.641 93.264 123.139 93.4347 122.702 93.776C122.265 94.1067 121.998 94.608 121.902 95.28H126.382C126.35 94.6613 126.131 94.1707 125.726 93.808C125.321 93.4453 124.814 93.264 124.206 93.264ZM129.838 100V92.064H131.358L131.502 93.568C131.779 93.0453 132.163 92.6347 132.654 92.336C133.155 92.0267 133.758 91.872 134.462 91.872V93.648H133.998C133.528 93.648 133.107 93.728 132.734 93.888C132.371 94.0373 132.078 94.2987 131.854 94.672C131.64 95.0347 131.534 95.5413 131.534 96.192V100H129.838ZM138.14 100L135.164 92.064H136.94L139.148 98.384L141.356 92.064H143.116L140.156 100H138.14ZM145.47 90.56C145.15 90.56 144.883 90.464 144.67 90.272C144.467 90.0693 144.366 89.8187 144.366 89.52C144.366 89.2213 144.467 88.976 144.67 88.784C144.883 88.5813 145.15 88.48 145.47 88.48C145.79 88.48 146.051 88.5813 146.254 88.784C146.467 88.976 146.574 89.2213 146.574 89.52C146.574 89.8187 146.467 90.0693 146.254 90.272C146.051 90.464 145.79 90.56 145.47 90.56ZM144.622 100V92.064H146.318V100H144.622ZM152.268 100.192C151.49 100.192 150.796 100.021 150.188 99.68C149.591 99.328 149.122 98.8427 148.78 98.224C148.439 97.6053 148.268 96.8853 148.268 96.064C148.268 95.232 148.434 94.5013 148.764 93.872C149.106 93.2427 149.575 92.752 150.172 92.4C150.78 92.048 151.484 91.872 152.284 91.872C153.063 91.872 153.74 92.048 154.316 92.4C154.892 92.7413 155.34 93.2 155.66 93.776C155.98 94.352 156.14 94.9867 156.14 95.68C156.14 95.7867 156.135 95.904 156.124 96.032C156.124 96.1493 156.119 96.2827 156.108 96.432H149.932C149.986 97.2 150.236 97.7867 150.684 98.192C151.143 98.5867 151.671 98.784 152.268 98.784C152.748 98.784 153.148 98.6773 153.468 98.464C153.799 98.24 154.044 97.9413 154.204 97.568H155.9C155.687 98.3147 155.26 98.9387 154.62 99.44C153.991 99.9413 153.207 100.192 152.268 100.192ZM152.268 93.264C151.703 93.264 151.202 93.4347 150.764 93.776C150.327 94.1067 150.06 94.608 149.964 95.28H154.444C154.412 94.6613 154.194 94.1707 153.788 93.808C153.383 93.4453 152.876 93.264 152.268 93.264ZM159.172 100L156.836 92.064H158.532L160.068 98.048L161.796 92.064H163.684L165.412 98.048L166.948 92.064H168.644L166.308 100H164.564L162.74 93.76L160.916 100H159.172ZM177.4 100C176.621 100 176.003 99.8133 175.544 99.44C175.085 99.056 174.856 98.3787 174.856 97.408V93.488H173.496V92.064H174.856L175.064 90.048H176.552V92.064H178.792V93.488H176.552V97.408C176.552 97.8453 176.643 98.1493 176.824 98.32C177.016 98.48 177.341 98.56 177.8 98.56H178.712V100H177.4ZM180.541 100V88.48H182.237V93.344C182.503 92.8853 182.871 92.528 183.341 92.272C183.821 92.0053 184.349 91.872 184.925 91.872C185.874 91.872 186.621 92.1707 187.165 92.768C187.709 93.3653 187.981 94.256 187.981 95.44V100H186.301V95.616C186.301 94.08 185.687 93.312 184.461 93.312C183.821 93.312 183.287 93.536 182.861 93.984C182.445 94.432 182.237 95.072 182.237 95.904V100H180.541ZM193.69 100.192C192.912 100.192 192.218 100.021 191.61 99.68C191.013 99.328 190.544 98.8427 190.202 98.224C189.861 97.6053 189.69 96.8853 189.69 96.064C189.69 95.232 189.856 94.5013 190.186 93.872C190.528 93.2427 190.997 92.752 191.594 92.4C192.202 92.048 192.906 91.872 193.706 91.872C194.485 91.872 195.162 92.048 195.738 92.4C196.314 92.7413 196.762 93.2 197.082 93.776C197.402 94.352 197.562 94.9867 197.562 95.68C197.562 95.7867 197.557 95.904 197.546 96.032C197.546 96.1493 197.541 96.2827 197.53 96.432H191.354C191.408 97.2 191.658 97.7867 192.106 98.192C192.565 98.5867 193.093 98.784 193.69 98.784C194.17 98.784 194.57 98.6773 194.89 98.464C195.221 98.24 195.466 97.9413 195.626 97.568H197.322C197.109 98.3147 196.682 98.9387 196.042 99.44C195.413 99.9413 194.629 100.192 193.69 100.192ZM193.69 93.264C193.125 93.264 192.624 93.4347 192.186 93.776C191.749 94.1067 191.482 94.608 191.386 95.28H195.866C195.834 94.6613 195.616 94.1707 195.21 93.808C194.805 93.4453 194.298 93.264 193.69 93.264ZM63.947 122.52V111.064H65.467L65.643 112.296C65.899 111.923 66.251 111.592 66.699 111.304C67.147 111.016 67.723 110.872 68.427 110.872C69.195 110.872 69.8723 111.053 70.459 111.416C71.0457 111.779 71.5043 112.275 71.835 112.904C72.1763 113.533 72.347 114.248 72.347 115.048C72.347 115.848 72.1763 116.563 71.835 117.192C71.5043 117.811 71.0457 118.301 70.459 118.664C69.8723 119.016 69.1897 119.192 68.411 119.192C67.7923 119.192 67.243 119.069 66.763 118.824C66.2937 118.579 65.9203 118.232 65.643 117.784V122.52H63.947ZM68.123 117.72C68.8483 117.72 69.4457 117.475 69.915 116.984C70.3843 116.483 70.619 115.832 70.619 115.032C70.619 114.509 70.5123 114.045 70.299 113.64C70.0857 113.235 69.7923 112.92 69.419 112.696C69.0457 112.461 68.6137 112.344 68.123 112.344C67.3977 112.344 66.8003 112.595 66.331 113.096C65.8723 113.597 65.643 114.243 65.643 115.032C65.643 115.832 65.8723 116.483 66.331 116.984C66.8003 117.475 67.3977 117.72 68.123 117.72ZM74.1814 119V111.064H75.7014L75.8454 112.568C76.1227 112.045 76.5067 111.635 76.9974 111.336C77.4987 111.027 78.1014 110.872 78.8054 110.872V112.648H78.3414C77.872 112.648 77.4507 112.728 77.0774 112.888C76.7147 113.037 76.4214 113.299 76.1974 113.672C75.984 114.035 75.8774 114.541 75.8774 115.192V119H74.1814ZM83.7528 119.192C82.9741 119.192 82.2808 119.021 81.6728 118.68C81.0754 118.328 80.6061 117.843 80.2648 117.224C79.9234 116.605 79.7528 115.885 79.7528 115.064C79.7528 114.232 79.9181 113.501 80.2488 112.872C80.5901 112.243 81.0594 111.752 81.6568 111.4C82.2648 111.048 82.9688 110.872 83.7688 110.872C84.5474 110.872 85.2248 111.048 85.8008 111.4C86.3768 111.741 86.8248 112.2 87.1448 112.776C87.4648 113.352 87.6248 113.987 87.6248 114.68C87.6248 114.787 87.6194 114.904 87.6088 115.032C87.6088 115.149 87.6034 115.283 87.5928 115.432H81.4168C81.4701 116.2 81.7208 116.787 82.1688 117.192C82.6274 117.587 83.1554 117.784 83.7528 117.784C84.2328 117.784 84.6328 117.677 84.9528 117.464C85.2834 117.24 85.5288 116.941 85.6888 116.568H87.3848C87.1714 117.315 86.7448 117.939 86.1048 118.44C85.4754 118.941 84.6914 119.192 83.7528 119.192ZM83.7528 112.264C83.1874 112.264 82.6861 112.435 82.2488 112.776C81.8114 113.107 81.5448 113.608 81.4488 114.28H85.9288C85.8968 113.661 85.6781 113.171 85.2728 112.808C84.8674 112.445 84.3608 112.264 83.7528 112.264ZM89.2245 115.064V113.64H95.7365V115.064H89.2245ZM99.921 119L96.945 111.064H98.721L100.929 117.384L103.137 111.064H104.897L101.937 119H99.921ZM109.597 119.192C108.818 119.192 108.125 119.021 107.517 118.68C106.919 118.328 106.45 117.843 106.109 117.224C105.767 116.605 105.597 115.885 105.597 115.064C105.597 114.232 105.762 113.501 106.093 112.872C106.434 112.243 106.903 111.752 107.501 111.4C108.109 111.048 108.813 110.872 109.613 110.872C110.391 110.872 111.069 111.048 111.645 111.4C112.221 111.741 112.669 112.2 112.989 112.776C113.309 113.352 113.469 113.987 113.469 114.68C113.469 114.787 113.463 114.904 113.453 115.032C113.453 115.149 113.447 115.283 113.437 115.432H107.261C107.314 116.2 107.565 116.787 108.013 117.192C108.471 117.587 108.999 117.784 109.597 117.784C110.077 117.784 110.477 117.677 110.797 117.464C111.127 117.24 111.373 116.941 111.533 116.568H113.229C113.015 117.315 112.589 117.939 111.949 118.44C111.319 118.941 110.535 119.192 109.597 119.192ZM109.597 112.264C109.031 112.264 108.53 112.435 108.093 112.776C107.655 113.107 107.389 113.608 107.293 114.28H111.773C111.741 113.661 111.522 113.171 111.117 112.808C110.711 112.445 110.205 112.264 109.597 112.264ZM118.353 119C117.574 119 116.956 118.813 116.497 118.44C116.038 118.056 115.809 117.379 115.809 116.408V112.488H114.449V111.064H115.809L116.017 109.048H117.505V111.064H119.745V112.488H117.505V116.408C117.505 116.845 117.596 117.149 117.777 117.32C117.969 117.48 118.294 117.56 118.753 117.56H119.665V119H118.353ZM124.822 119C124.043 119 123.425 118.813 122.966 118.44C122.507 118.056 122.278 117.379 122.278 116.408V112.488H120.918V111.064H122.278L122.486 109.048H123.974V111.064H126.214V112.488H123.974V116.408C123.974 116.845 124.065 117.149 124.246 117.32C124.438 117.48 124.763 117.56 125.222 117.56H126.134V119H124.822ZM131.472 119.192C130.693 119.192 130 119.021 129.392 118.68C128.794 118.328 128.325 117.843 127.984 117.224C127.642 116.605 127.472 115.885 127.472 115.064C127.472 114.232 127.637 113.501 127.968 112.872C128.309 112.243 128.778 111.752 129.376 111.4C129.984 111.048 130.688 110.872 131.488 110.872C132.266 110.872 132.944 111.048 133.52 111.4C134.096 111.741 134.544 112.2 134.864 112.776C135.184 113.352 135.344 113.987 135.344 114.68C135.344 114.787 135.338 114.904 135.328 115.032C135.328 115.149 135.322 115.283 135.312 115.432H129.136C129.189 116.2 129.44 116.787 129.888 117.192C130.346 117.587 130.874 117.784 131.472 117.784C131.952 117.784 132.352 117.677 132.672 117.464C133.002 117.24 133.248 116.941 133.408 116.568H135.104C134.89 117.315 134.464 117.939 133.824 118.44C133.194 118.941 132.41 119.192 131.472 119.192ZM131.472 112.264C130.906 112.264 130.405 112.435 129.968 112.776C129.53 113.107 129.264 113.608 129.168 114.28H133.648C133.616 113.661 133.397 113.171 132.992 112.808C132.586 112.445 132.08 112.264 131.472 112.264ZM140.719 119.192C139.951 119.192 139.274 119.011 138.687 118.648C138.101 118.285 137.642 117.789 137.311 117.16C136.981 116.531 136.815 115.816 136.815 115.016C136.815 114.216 136.981 113.507 137.311 112.888C137.642 112.259 138.101 111.768 138.687 111.416C139.285 111.053 139.967 110.872 140.735 110.872C141.365 110.872 141.914 110.995 142.383 111.24C142.863 111.485 143.237 111.832 143.503 112.28V107.48H145.199V119H143.679L143.503 117.768C143.247 118.141 142.895 118.472 142.447 118.76C141.999 119.048 141.423 119.192 140.719 119.192ZM141.023 117.72C141.749 117.72 142.341 117.469 142.799 116.968C143.269 116.467 143.503 115.821 143.503 115.032C143.503 114.232 143.269 113.587 142.799 113.096C142.341 112.595 141.749 112.344 141.023 112.344C140.298 112.344 139.701 112.595 139.231 113.096C138.762 113.587 138.527 114.232 138.527 115.032C138.527 115.555 138.634 116.019 138.847 116.424C139.061 116.829 139.354 117.149 139.727 117.384C140.111 117.608 140.543 117.72 141.023 117.72ZM155.129 119.192C154.35 119.192 153.652 119.016 153.033 118.664C152.425 118.312 151.945 117.827 151.593 117.208C151.252 116.579 151.081 115.853 151.081 115.032C151.081 114.211 151.252 113.491 151.593 112.872C151.945 112.243 152.425 111.752 153.033 111.4C153.652 111.048 154.35 110.872 155.129 110.872C156.11 110.872 156.932 111.128 157.593 111.64C158.265 112.152 158.697 112.845 158.889 113.72H157.113C157.006 113.283 156.772 112.941 156.409 112.696C156.046 112.451 155.62 112.328 155.129 112.328C154.713 112.328 154.329 112.435 153.977 112.648C153.625 112.851 153.342 113.155 153.129 113.56C152.916 113.955 152.809 114.445 152.809 115.032C152.809 115.619 152.916 116.115 153.129 116.52C153.342 116.915 153.625 117.219 153.977 117.432C154.329 117.645 154.713 117.752 155.129 117.752C155.62 117.752 156.046 117.629 156.409 117.384C156.772 117.139 157.006 116.792 157.113 116.344H158.889C158.708 117.197 158.281 117.885 157.609 118.408C156.937 118.931 156.11 119.192 155.129 119.192ZM163.416 119.192C162.744 119.192 162.19 119.08 161.752 118.856C161.315 118.632 160.99 118.339 160.776 117.976C160.563 117.603 160.456 117.197 160.456 116.76C160.456 115.992 160.755 115.384 161.352 114.936C161.95 114.488 162.803 114.264 163.912 114.264H165.992V114.12C165.992 113.501 165.822 113.037 165.48 112.728C165.15 112.419 164.718 112.264 164.184 112.264C163.715 112.264 163.304 112.381 162.952 112.616C162.611 112.84 162.403 113.176 162.328 113.624H160.632C160.686 113.048 160.878 112.557 161.208 112.152C161.55 111.736 161.976 111.421 162.488 111.208C163.011 110.984 163.582 110.872 164.2 110.872C165.31 110.872 166.168 111.165 166.776 111.752C167.384 112.328 167.688 113.117 167.688 114.12V119H166.216L166.072 117.64C165.848 118.077 165.523 118.445 165.096 118.744C164.67 119.043 164.11 119.192 163.416 119.192ZM163.752 117.816C164.211 117.816 164.595 117.709 164.904 117.496C165.224 117.272 165.47 116.979 165.64 116.616C165.822 116.253 165.934 115.853 165.976 115.416H164.088C163.416 115.416 162.936 115.533 162.648 115.768C162.371 116.003 162.232 116.296 162.232 116.648C162.232 117.011 162.366 117.299 162.632 117.512C162.91 117.715 163.283 117.816 163.752 117.816ZM169.666 119V111.064H171.17L171.298 112.456C171.543 111.965 171.9 111.581 172.37 111.304C172.85 111.016 173.399 110.872 174.018 110.872C174.978 110.872 175.73 111.171 176.274 111.768C176.828 112.365 177.106 113.256 177.106 114.44V119H175.426V114.616C175.426 113.08 174.796 112.312 173.538 112.312C172.908 112.312 172.386 112.536 171.97 112.984C171.564 113.432 171.362 114.072 171.362 114.904V119H169.666ZM182.719 119.192C181.951 119.192 181.274 119.011 180.687 118.648C180.101 118.285 179.642 117.789 179.311 117.16C178.981 116.531 178.815 115.816 178.815 115.016C178.815 114.216 178.981 113.507 179.311 112.888C179.642 112.259 180.101 111.768 180.687 111.416C181.285 111.053 181.967 110.872 182.735 110.872C183.365 110.872 183.914 110.995 184.383 111.24C184.863 111.485 185.237 111.832 185.503 112.28V107.48H187.199V119H185.679L185.503 117.768C185.247 118.141 184.895 118.472 184.447 118.76C183.999 119.048 183.423 119.192 182.719 119.192ZM183.023 117.72C183.749 117.72 184.341 117.469 184.799 116.968C185.269 116.467 185.503 115.821 185.503 115.032C185.503 114.232 185.269 113.587 184.799 113.096C184.341 112.595 183.749 112.344 183.023 112.344C182.298 112.344 181.701 112.595 181.231 113.096C180.762 113.587 180.527 114.232 180.527 115.032C180.527 115.555 180.634 116.019 180.847 116.424C181.061 116.829 181.354 117.149 181.727 117.384C182.111 117.608 182.543 117.72 183.023 117.72ZM190.298 109.56C189.978 109.56 189.711 109.464 189.498 109.272C189.295 109.069 189.194 108.819 189.194 108.52C189.194 108.221 189.295 107.976 189.498 107.784C189.711 107.581 189.978 107.48 190.298 107.48C190.618 107.48 190.879 107.581 191.082 107.784C191.295 107.976 191.402 108.221 191.402 108.52C191.402 108.819 191.295 109.069 191.082 109.272C190.879 109.464 190.618 109.56 190.298 109.56ZM189.45 119V111.064H191.146V119H189.45ZM197.001 119.192C196.233 119.192 195.555 119.011 194.969 118.648C194.382 118.285 193.923 117.789 193.593 117.16C193.262 116.531 193.097 115.816 193.097 115.016C193.097 114.216 193.262 113.507 193.593 112.888C193.923 112.259 194.382 111.768 194.969 111.416C195.566 111.053 196.249 110.872 197.016 110.872C197.646 110.872 198.195 110.995 198.665 111.24C199.145 111.485 199.518 111.832 199.785 112.28V107.48H201.481V119H199.961L199.785 117.768C199.529 118.141 199.177 118.472 198.729 118.76C198.281 119.048 197.705 119.192 197.001 119.192ZM197.305 117.72C198.03 117.72 198.622 117.469 199.081 116.968C199.55 116.467 199.785 115.821 199.785 115.032C199.785 114.232 199.55 113.587 199.081 113.096C198.622 112.595 198.03 112.344 197.305 112.344C196.579 112.344 195.982 112.595 195.513 113.096C195.043 113.587 194.809 114.232 194.809 115.032C194.809 115.555 194.915 116.019 195.129 116.424C195.342 116.829 195.635 117.149 196.009 117.384C196.393 117.608 196.825 117.72 197.305 117.72ZM206.307 119.192C205.635 119.192 205.08 119.08 204.643 118.856C204.206 118.632 203.88 118.339 203.667 117.976C203.454 117.603 203.347 117.197 203.347 116.76C203.347 115.992 203.646 115.384 204.243 114.936C204.84 114.488 205.694 114.264 206.803 114.264H208.883V114.12C208.883 113.501 208.712 113.037 208.371 112.728C208.04 112.419 207.608 112.264 207.075 112.264C206.606 112.264 206.195 112.381 205.843 112.616C205.502 112.84 205.294 113.176 205.219 113.624H203.523C203.576 113.048 203.768 112.557 204.099 112.152C204.44 111.736 204.867 111.421 205.379 111.208C205.902 110.984 206.472 110.872 207.091 110.872C208.2 110.872 209.059 111.165 209.667 111.752C210.275 112.328 210.579 113.117 210.579 114.12V119H209.107L208.963 117.64C208.739 118.077 208.414 118.445 207.987 118.744C207.56 119.043 207 119.192 206.307 119.192ZM206.643 117.816C207.102 117.816 207.486 117.709 207.795 117.496C208.115 117.272 208.36 116.979 208.531 116.616C208.712 116.253 208.824 115.853 208.867 115.416H206.979C206.307 115.416 205.827 115.533 205.539 115.768C205.262 116.003 205.123 116.296 205.123 116.648C205.123 117.011 205.256 117.299 205.523 117.512C205.8 117.715 206.174 117.816 206.643 117.816ZM215.728 119C214.949 119 214.331 118.813 213.872 118.44C213.413 118.056 213.184 117.379 213.184 116.408V112.488H211.824V111.064H213.184L213.392 109.048H214.88V111.064H217.12V112.488H214.88V116.408C214.88 116.845 214.971 117.149 215.152 117.32C215.344 117.48 215.669 117.56 216.128 117.56H217.04V119H215.728ZM222.378 119.192C221.599 119.192 220.906 119.021 220.298 118.68C219.7 118.328 219.231 117.843 218.89 117.224C218.548 116.605 218.378 115.885 218.378 115.064C218.378 114.232 218.543 113.501 218.874 112.872C219.215 112.243 219.684 111.752 220.282 111.4C220.89 111.048 221.594 110.872 222.394 110.872C223.172 110.872 223.85 111.048 224.426 111.4C225.002 111.741 225.45 112.2 225.77 112.776C226.09 113.352 226.25 113.987 226.25 114.68C226.25 114.787 226.244 114.904 226.234 115.032C226.234 115.149 226.228 115.283 226.218 115.432H220.042C220.095 116.2 220.346 116.787 220.794 117.192C221.252 117.587 221.78 117.784 222.378 117.784C222.858 117.784 223.258 117.677 223.578 117.464C223.908 117.24 224.154 116.941 224.314 116.568H226.01C225.796 117.315 225.37 117.939 224.73 118.44C224.1 118.941 223.316 119.192 222.378 119.192ZM222.378 112.264C221.812 112.264 221.311 112.435 220.874 112.776C220.436 113.107 220.17 113.608 220.074 114.28H224.554C224.522 113.661 224.303 113.171 223.898 112.808C223.492 112.445 222.986 112.264 222.378 112.264ZM231.178 119.192C230.175 119.192 229.348 118.947 228.698 118.456C228.047 117.965 227.674 117.315 227.578 116.504H229.289C229.375 116.867 229.578 117.181 229.898 117.448C230.218 117.704 230.639 117.832 231.161 117.832C231.674 117.832 232.047 117.725 232.282 117.512C232.516 117.299 232.634 117.053 232.634 116.776C232.634 116.371 232.468 116.099 232.138 115.96C231.818 115.811 231.37 115.677 230.794 115.56C230.346 115.464 229.898 115.336 229.45 115.176C229.012 115.016 228.644 114.792 228.346 114.504C228.058 114.205 227.914 113.805 227.914 113.304C227.914 112.611 228.18 112.035 228.714 111.576C229.247 111.107 229.994 110.872 230.954 110.872C231.839 110.872 232.554 111.085 233.098 111.512C233.652 111.939 233.978 112.541 234.074 113.32H232.442C232.388 112.979 232.228 112.712 231.962 112.52C231.706 112.328 231.359 112.232 230.922 112.232C230.495 112.232 230.164 112.323 229.93 112.504C229.695 112.675 229.578 112.899 229.578 113.176C229.578 113.453 229.738 113.672 230.058 113.832C230.388 113.992 230.82 114.136 231.354 114.264C231.887 114.381 232.378 114.52 232.826 114.68C233.284 114.829 233.652 115.053 233.93 115.352C234.207 115.651 234.346 116.088 234.346 116.664C234.356 117.389 234.074 117.992 233.498 118.472C232.932 118.952 232.159 119.192 231.178 119.192Z" fill="black"/>
<path d="M133.413 51.1467C133.413 49.1167 133.413 47.2034 133.413 45.3134C133.413 44.2401 133.786 43.8667 134.883 43.8667C142.023 43.8667 149.14 43.8667 156.28 43.8667C157.563 43.8667 157.866 43.5401 157.866 42.2801C157.866 35.2101 157.866 28.1634 157.866 21.0934C157.866 20.8834 157.843 20.6267 157.89 20.4167C157.983 19.8334 158.38 19.4601 158.986 19.4601C159.593 19.4601 159.966 19.8334 160.083 20.4167C160.106 20.5801 160.106 20.7901 160.106 20.9767C160.106 28.1167 160.106 35.2334 160.106 42.3734C160.106 44.8234 158.776 46.1301 156.326 46.1301C149.653 46.1301 143.003 46.1301 136.33 46.1067C135.793 46.1067 135.653 46.2467 135.676 46.7834C135.7 49.0001 135.676 51.1701 135.7 53.3867C135.7 53.9934 135.7 54.6234 135.023 54.9034C134.346 55.2067 133.903 54.7867 133.46 54.3434C130.893 51.7534 128.28 49.1634 125.713 46.5734C125.363 46.2234 125.06 46.1067 124.57 46.1067C122.796 46.1301 121.07 46.1301 119.296 46.1067C117.103 46.1067 115.703 44.7301 115.703 42.5834C115.703 31.5934 115.703 20.6034 115.703 9.59005C115.703 7.53672 117.126 6.13672 119.203 6.13672C131.663 6.13672 144.17 6.13672 156.63 6.13672C158.706 6.13672 160.106 7.53672 160.13 9.61339C160.13 10.2667 160.153 10.9667 160.13 11.6201C160.106 12.3434 159.64 12.7867 159.033 12.7867C158.403 12.7867 157.96 12.3201 157.936 11.6201C157.913 11.0134 157.936 10.4067 157.936 9.80005C157.936 8.72672 157.563 8.35339 156.49 8.35339C148.743 8.35339 140.973 8.35339 133.226 8.35339C128.63 8.35339 124.056 8.35339 119.483 8.35339C118.316 8.35339 117.966 8.70339 117.966 9.87005C117.966 20.6967 117.966 31.5467 117.966 42.3734C117.966 43.5867 118.316 43.9134 119.483 43.9134C121.443 43.9134 123.403 43.9367 125.386 43.9134C125.97 43.9134 126.39 44.0767 126.81 44.4967C128.91 46.6434 131.033 48.7201 133.133 50.8201C133.11 50.8667 133.226 50.9367 133.413 51.1467Z" fill="#273238"/>
<path d="M166.733 60.0606C169.02 57.7739 171.166 55.6272 173.313 53.4572C173.826 52.9439 174.34 52.6872 175.086 52.7106C176.3 52.7572 177.49 52.7339 178.703 52.7339C179.66 52.7339 180.08 52.3372 180.08 51.4039C180.08 40.4372 180.08 29.4706 180.08 18.5039C180.08 17.5939 179.66 17.1972 178.75 17.1972C167.06 17.1972 155.37 17.1972 143.68 17.1972C142.676 17.1972 142.303 17.5939 142.303 18.6672C142.303 25.7606 142.303 32.8306 142.303 39.9239C142.303 40.0406 142.303 40.1339 142.303 40.2739C142.303 41.1372 141.883 41.6506 141.206 41.6506C140.53 41.6506 140.11 41.1372 140.11 40.2739C140.11 32.9939 140.11 25.6906 140.11 18.4106C140.11 16.4506 141.556 15.0039 143.54 15.0039C155.323 15.0039 167.106 15.0039 178.89 15.0039C180.873 15.0039 182.32 16.4272 182.32 18.4106C182.32 29.4706 182.32 40.5539 182.32 51.6139C182.32 53.5506 180.873 54.9739 178.96 54.9972C177.863 55.0206 176.72 55.0206 175.623 54.9972C175.203 54.9972 174.9 55.1139 174.596 55.4172C171.96 58.0772 169.323 60.6906 166.686 63.3272C166.383 63.6306 166.126 63.8639 165.683 63.8872C165.006 63.9106 164.563 63.3972 164.54 62.6039C164.54 60.2706 164.516 57.9139 164.54 55.5806C164.54 55.0906 164.423 54.9739 163.933 54.9739C157.213 54.9972 150.516 54.9739 143.773 54.9739C141.416 54.9739 140.063 53.6206 140.063 51.2872C140.063 50.6806 140.04 50.0739 140.063 49.4672C140.086 48.7439 140.553 48.3006 141.16 48.3006C141.79 48.3006 142.233 48.7672 142.256 49.4672C142.28 50.0739 142.256 50.6806 142.256 51.2872C142.256 52.3606 142.63 52.7339 143.703 52.7339C150.82 52.7339 157.913 52.7339 165.03 52.7339C166.406 52.7339 166.71 53.0372 166.71 54.4139C166.733 56.2106 166.733 58.0539 166.733 60.0606Z" fill="#273238"/>
<path d="M124.523 38.2666C124.523 38.8499 124.033 39.3633 123.45 39.3866C122.867 39.4099 122.353 38.9199 122.33 38.3133C122.307 37.6833 122.82 37.1699 123.45 37.1699C124.01 37.1699 124.5 37.6833 124.523 38.2666Z" fill="#303B41"/>
<path d="M128.98 38.2667C128.98 38.85 128.49 39.3634 127.906 39.3867C127.276 39.41 126.763 38.8734 126.786 38.2667C126.81 37.66 127.3 37.1934 127.906 37.1934C128.49 37.1934 128.98 37.6834 128.98 38.2667Z" fill="#303B41"/>
<path d="M132.247 39.4092C131.663 39.3859 131.173 38.8725 131.197 38.2659C131.22 37.6359 131.757 37.1459 132.41 37.1925C132.993 37.2392 133.46 37.7759 133.437 38.3592C133.367 38.9659 132.853 39.4325 132.247 39.4092Z" fill="#303B41"/>
<path d="M165.683 46.0594C166.266 46.0828 166.756 46.5961 166.733 47.2028C166.71 47.8328 166.173 48.3228 165.52 48.2761C164.936 48.2294 164.47 47.6928 164.493 47.1094C164.563 46.5028 165.1 46.0361 165.683 46.0594Z" fill="#303B41"/>
<path d="M171.19 47.1571C171.19 47.7404 170.7 48.2538 170.116 48.2538C169.533 48.2538 169.02 47.7871 168.996 47.1804C168.973 46.5504 169.486 46.0371 170.116 46.0371C170.7 46.0838 171.19 46.5738 171.19 47.1571Z" fill="#303B41"/>
<path d="M175.623 47.2029C175.623 47.7862 175.11 48.2995 174.527 48.2762C173.897 48.2762 173.407 47.7395 173.43 47.1329C173.453 46.5262 173.967 46.0595 174.573 46.0829C175.157 46.0829 175.647 46.5962 175.623 47.2029Z" fill="#303B41"/>
</svg>
