<svg width="297" height="129" viewBox="0 0 297 129" fill="none" xmlns="http://www.w3.org/2000/svg">
<path d="M75.7219 102V90.8H79.9459C81.1086 90.8 81.9886 91.072 82.5859 91.616C83.1833 92.16 83.4819 92.8427 83.4819 93.664C83.4819 94.3787 83.2899 94.9493 82.9059 95.376C82.5219 95.792 82.0579 96.0747 81.5139 96.224C81.9406 96.3093 82.3193 96.48 82.6499 96.736C82.9913 96.992 83.2579 97.312 83.4499 97.696C83.6419 98.08 83.7379 98.496 83.7379 98.944C83.7379 99.52 83.5939 100.043 83.3059 100.512C83.0286 100.971 82.6179 101.333 82.0739 101.6C81.5299 101.867 80.8633 102 80.0739 102H75.7219ZM77.4179 95.6H79.7379C80.3886 95.6 80.8846 95.4507 81.2259 95.152C81.5673 94.8427 81.7379 94.4213 81.7379 93.888C81.7379 93.3653 81.5673 92.9493 81.2259 92.64C80.8953 92.3307 80.3886 92.176 79.7059 92.176H77.4179V95.6ZM77.4179 100.608H79.8499C80.5326 100.608 81.0606 100.448 81.4339 100.128C81.8179 99.808 82.0099 99.36 82.0099 98.784C82.0099 98.208 81.8126 97.7547 81.4179 97.424C81.0233 97.0827 80.4899 96.912 79.8179 96.912H77.4179V100.608ZM88.4609 102.192C87.5009 102.192 86.7436 101.893 86.1889 101.296C85.6449 100.699 85.3729 99.808 85.3729 98.624V94.064H87.0689V98.448C87.0689 99.984 87.6983 100.752 88.9569 100.752C89.5863 100.752 90.1036 100.528 90.5089 100.08C90.9143 99.632 91.1169 98.992 91.1169 98.16V94.064H92.8129V102H91.3089L91.1809 100.608C90.9356 101.099 90.5729 101.488 90.0929 101.776C89.6236 102.053 89.0796 102.192 88.4609 102.192ZM95.9304 92.56C95.6104 92.56 95.3438 92.464 95.1304 92.272C94.9278 92.0693 94.8264 91.8187 94.8264 91.52C94.8264 91.2213 94.9278 90.976 95.1304 90.784C95.3438 90.5813 95.6104 90.48 95.9304 90.48C96.2504 90.48 96.5118 90.5813 96.7144 90.784C96.9278 90.976 97.0344 91.2213 97.0344 91.52C97.0344 91.8187 96.9278 92.0693 96.7144 92.272C96.5118 92.464 96.2504 92.56 95.9304 92.56ZM95.0824 102V94.064H96.7784V102H95.0824ZM99.0173 102V90.48H100.713V102H99.0173ZM106.477 102.192C105.709 102.192 105.032 102.011 104.445 101.648C103.858 101.285 103.4 100.789 103.069 100.16C102.738 99.5307 102.573 98.816 102.573 98.016C102.573 97.216 102.738 96.5067 103.069 95.888C103.4 95.2587 103.858 94.768 104.445 94.416C105.042 94.0533 105.725 93.872 106.493 93.872C107.122 93.872 107.672 93.9947 108.141 94.24C108.621 94.4853 108.994 94.832 109.261 95.28V90.48H110.957V102H109.437L109.261 100.768C109.005 101.141 108.653 101.472 108.205 101.76C107.757 102.048 107.181 102.192 106.477 102.192ZM106.781 100.72C107.506 100.72 108.098 100.469 108.557 99.968C109.026 99.4667 109.261 98.8213 109.261 98.032C109.261 97.232 109.026 96.5867 108.557 96.096C108.098 95.5947 107.506 95.344 106.781 95.344C106.056 95.344 105.458 95.5947 104.989 96.096C104.52 96.5867 104.285 97.232 104.285 98.032C104.285 98.5547 104.392 99.0187 104.605 99.424C104.818 99.8293 105.112 100.149 105.485 100.384C105.869 100.608 106.301 100.72 106.781 100.72ZM120.839 102.192C120.081 102.192 119.399 102.021 118.791 101.68C118.193 101.328 117.719 100.843 117.367 100.224C117.015 99.5947 116.839 98.864 116.839 98.032C116.839 97.2 117.015 96.4747 117.367 95.856C117.729 95.2267 118.215 94.7413 118.823 94.4C119.431 94.048 120.108 93.872 120.855 93.872C121.612 93.872 122.289 94.048 122.887 94.4C123.495 94.7413 123.975 95.2267 124.327 95.856C124.689 96.4747 124.871 97.2 124.871 98.032C124.871 98.864 124.689 99.5947 124.327 100.224C123.975 100.843 123.495 101.328 122.887 101.68C122.279 102.021 121.596 102.192 120.839 102.192ZM120.839 100.736C121.244 100.736 121.617 100.635 121.959 100.432C122.311 100.229 122.593 99.9307 122.807 99.536C123.02 99.1307 123.127 98.6293 123.127 98.032C123.127 97.4347 123.02 96.9387 122.807 96.544C122.604 96.1387 122.327 95.8347 121.975 95.632C121.633 95.4293 121.26 95.328 120.855 95.328C120.449 95.328 120.071 95.4293 119.719 95.632C119.377 95.8347 119.1 96.1387 118.887 96.544C118.673 96.9387 118.567 97.4347 118.567 98.032C118.567 98.6293 118.673 99.1307 118.887 99.536C119.1 99.9307 119.377 100.229 119.719 100.432C120.06 100.635 120.433 100.736 120.839 100.736ZM129.633 102.192C128.673 102.192 127.915 101.893 127.361 101.296C126.817 100.699 126.545 99.808 126.545 98.624V94.064H128.241V98.448C128.241 99.984 128.87 100.752 130.129 100.752C130.758 100.752 131.275 100.528 131.681 100.08C132.086 99.632 132.289 98.992 132.289 98.16V94.064H133.985V102H132.481L132.353 100.608C132.107 101.099 131.745 101.488 131.265 101.776C130.795 102.053 130.251 102.192 129.633 102.192ZM139.47 102C138.692 102 138.073 101.813 137.614 101.44C137.156 101.056 136.926 100.379 136.926 99.408V95.488H135.566V94.064H136.926L137.134 92.048H138.622V94.064H140.862V95.488H138.622V99.408C138.622 99.8453 138.713 100.149 138.894 100.32C139.086 100.48 139.412 100.56 139.87 100.56H140.782V102H139.47ZM147.57 105.52L149.474 101.344H149.01L145.874 94.064H147.714L150.146 99.936L152.69 94.064H154.482L149.362 105.52H147.57ZM158.87 102.192C158.113 102.192 157.43 102.021 156.822 101.68C156.225 101.328 155.75 100.843 155.398 100.224C155.046 99.5947 154.87 98.864 154.87 98.032C154.87 97.2 155.046 96.4747 155.398 95.856C155.761 95.2267 156.246 94.7413 156.854 94.4C157.462 94.048 158.139 93.872 158.886 93.872C159.643 93.872 160.321 94.048 160.918 94.4C161.526 94.7413 162.006 95.2267 162.358 95.856C162.721 96.4747 162.902 97.2 162.902 98.032C162.902 98.864 162.721 99.5947 162.358 100.224C162.006 100.843 161.526 101.328 160.918 101.68C160.31 102.021 159.627 102.192 158.87 102.192ZM158.87 100.736C159.275 100.736 159.649 100.635 159.99 100.432C160.342 100.229 160.625 99.9307 160.838 99.536C161.051 99.1307 161.158 98.6293 161.158 98.032C161.158 97.4347 161.051 96.9387 160.838 96.544C160.635 96.1387 160.358 95.8347 160.006 95.632C159.665 95.4293 159.291 95.328 158.886 95.328C158.481 95.328 158.102 95.4293 157.75 95.632C157.409 95.8347 157.131 96.1387 156.918 96.544C156.705 96.9387 156.598 97.4347 156.598 98.032C156.598 98.6293 156.705 99.1307 156.918 99.536C157.131 99.9307 157.409 100.229 157.75 100.432C158.091 100.635 158.465 100.736 158.87 100.736ZM167.664 102.192C166.704 102.192 165.947 101.893 165.392 101.296C164.848 100.699 164.576 99.808 164.576 98.624V94.064H166.272V98.448C166.272 99.984 166.901 100.752 168.16 100.752C168.789 100.752 169.307 100.528 169.712 100.08C170.117 99.632 170.32 98.992 170.32 98.16V94.064H172.016V102H170.512L170.384 100.608C170.139 101.099 169.776 101.488 169.296 101.776C168.827 102.053 168.283 102.192 167.664 102.192ZM174.174 102V94.064H175.694L175.838 95.568C176.115 95.0453 176.499 94.6347 176.99 94.336C177.491 94.0267 178.094 93.872 178.798 93.872V95.648H178.334C177.864 95.648 177.443 95.728 177.07 95.888C176.707 96.0373 176.414 96.2987 176.19 96.672C175.976 97.0347 175.87 97.5413 175.87 98.192V102H174.174ZM187.611 102C186.832 102 186.214 101.813 185.755 101.44C185.296 101.056 185.067 100.379 185.067 99.408V95.488H183.707V94.064H185.067L185.275 92.048H186.763V94.064H189.003V95.488H186.763V99.408C186.763 99.8453 186.854 100.149 187.035 100.32C187.227 100.48 187.552 100.56 188.011 100.56H188.923V102H187.611ZM194.261 102.192C193.482 102.192 192.789 102.021 192.181 101.68C191.583 101.328 191.114 100.843 190.773 100.224C190.431 99.6053 190.261 98.8853 190.261 98.064C190.261 97.232 190.426 96.5013 190.757 95.872C191.098 95.2427 191.567 94.752 192.165 94.4C192.773 94.048 193.477 93.872 194.277 93.872C195.055 93.872 195.733 94.048 196.309 94.4C196.885 94.7413 197.333 95.2 197.653 95.776C197.973 96.352 198.133 96.9867 198.133 97.68C198.133 97.7867 198.127 97.904 198.117 98.032C198.117 98.1493 198.111 98.2827 198.101 98.432H191.925C191.978 99.2 192.229 99.7867 192.677 100.192C193.135 100.587 193.663 100.784 194.261 100.784C194.741 100.784 195.141 100.677 195.461 100.464C195.791 100.24 196.037 99.9413 196.197 99.568H197.893C197.679 100.315 197.253 100.939 196.613 101.44C195.983 101.941 195.199 102.192 194.261 102.192ZM194.261 95.264C193.695 95.264 193.194 95.4347 192.757 95.776C192.319 96.1067 192.053 96.608 191.957 97.28H196.437C196.405 96.6613 196.186 96.1707 195.781 95.808C195.375 95.4453 194.869 95.264 194.261 95.264ZM202.58 102.192C201.908 102.192 201.354 102.08 200.916 101.856C200.479 101.632 200.154 101.339 199.94 100.976C199.727 100.603 199.62 100.197 199.62 99.76C199.62 98.992 199.919 98.384 200.516 97.936C201.114 97.488 201.967 97.264 203.076 97.264H205.156V97.12C205.156 96.5013 204.986 96.0373 204.644 95.728C204.314 95.4187 203.882 95.264 203.348 95.264C202.879 95.264 202.468 95.3813 202.116 95.616C201.775 95.84 201.567 96.176 201.492 96.624H199.796C199.85 96.048 200.042 95.5573 200.372 95.152C200.714 94.736 201.14 94.4213 201.652 94.208C202.175 93.984 202.746 93.872 203.364 93.872C204.474 93.872 205.332 94.1653 205.94 94.752C206.548 95.328 206.852 96.1173 206.852 97.12V102H205.38L205.236 100.64C205.012 101.077 204.687 101.445 204.26 101.744C203.834 102.043 203.274 102.192 202.58 102.192ZM202.916 100.816C203.375 100.816 203.759 100.709 204.068 100.496C204.388 100.272 204.634 99.9787 204.804 99.616C204.986 99.2533 205.098 98.8533 205.14 98.416H203.252C202.58 98.416 202.1 98.5333 201.812 98.768C201.535 99.0027 201.396 99.296 201.396 99.648C201.396 100.011 201.53 100.299 201.796 100.512C202.074 100.715 202.447 100.816 202.916 100.816ZM208.83 102V94.064H210.334L210.478 95.184C210.734 94.7787 211.07 94.4587 211.486 94.224C211.912 93.9893 212.403 93.872 212.958 93.872C214.216 93.872 215.091 94.368 215.582 95.36C215.87 94.9013 216.254 94.5387 216.734 94.272C217.224 94.0053 217.752 93.872 218.318 93.872C219.31 93.872 220.088 94.1707 220.654 94.768C221.219 95.3653 221.502 96.256 221.502 97.44V102H219.806V97.616C219.806 96.08 219.219 95.312 218.046 95.312C217.448 95.312 216.958 95.536 216.574 95.984C216.2 96.432 216.014 97.072 216.014 97.904V102H214.318V97.616C214.318 96.08 213.726 95.312 212.542 95.312C211.955 95.312 211.47 95.536 211.086 95.984C210.712 96.432 210.526 97.072 210.526 97.904V102H208.83Z" fill="black"/>
<path d="M152.457 18.2469C152.48 10.7569 158.197 4.5736 165.78 3.8736C173.037 3.19693 179.803 8.40027 181.157 15.6803C181.67 18.4569 181.367 21.1636 180.317 23.7769C180.107 24.2903 179.78 24.5936 179.243 24.5936C178.753 24.5936 178.403 24.3603 178.217 23.8936C178.03 23.4736 178.217 23.0769 178.357 22.6803C179.5 19.6703 179.5 16.6369 178.24 13.6736C176.187 8.68027 170.983 5.50693 165.827 6.09027C160.157 6.7436 155.817 10.7103 154.813 16.1703C154.44 18.3169 154.627 20.4636 155.397 22.5403C155.443 22.7036 155.537 22.8436 155.56 23.0069C155.747 23.6836 155.513 24.2436 154.883 24.4536C154.323 24.6636 153.74 24.4069 153.483 23.7769C152.807 22.2369 152.48 20.6036 152.41 18.9236C152.457 18.7369 152.457 18.5036 152.457 18.2469Z" fill="#29353B"/>
<path d="M114.61 18.8772C114.633 10.7572 120.35 4.5739 127.957 3.8739C135.237 3.22057 141.933 8.40057 143.31 15.7506C143.823 18.4806 143.52 21.1406 142.517 23.7306C142.353 24.1506 142.12 24.5239 141.63 24.6172C141.233 24.6872 140.837 24.5939 140.557 24.2672C140.207 23.8706 140.23 23.4272 140.417 22.9839C141.047 21.4439 141.327 19.8339 141.327 18.1772C141.257 11.9239 136.38 6.7439 130.057 6.13723C124.013 5.60057 118.297 9.87057 117.083 15.8672C116.593 18.1772 116.78 20.4872 117.62 22.6806C117.667 22.7972 117.69 22.8906 117.737 23.0072C117.947 23.7072 117.713 24.2439 117.107 24.5006C116.5 24.7572 115.94 24.4772 115.66 23.8006C114.937 22.0272 114.61 20.1839 114.61 18.8772Z" fill="#29353B"/>
<path d="M133.51 52.3362C133.533 44.3328 139.017 38.3362 145.993 37.3562C153.577 36.3062 160.53 41.2995 162.14 48.6262C162.77 51.5195 162.513 54.3428 161.417 57.0728C161.253 57.4928 161.02 57.8662 160.53 57.9362C159.55 58.0995 158.967 57.2595 159.34 56.2562C159.923 54.7162 160.25 53.1528 160.227 51.5195C160.18 45.1495 155.093 39.8062 148.747 39.4328C142.33 39.0595 136.683 43.7262 135.843 50.0962C135.563 52.1262 135.82 54.0628 136.52 55.9762C136.567 56.1395 136.66 56.2795 136.683 56.4428C136.87 57.0962 136.613 57.6328 136.007 57.8662C135.447 58.0762 134.863 57.8428 134.607 57.2128C133.86 55.4395 133.51 53.5962 133.51 52.3362Z" fill="#29353B"/>
<path d="M129.404 22.7727C130.827 22.8894 132.624 22.5627 134.374 23.0527C136.614 23.6827 138.247 25.0594 139.344 27.0894C139.67 27.7427 139.577 28.256 139.064 28.7694C133.557 34.1127 124.55 34.1127 119.044 28.7694C118.507 28.256 118.39 27.7194 118.74 27.0894C120.187 24.3827 122.404 22.936 125.484 22.7727C126.697 22.726 127.887 22.7727 129.404 22.7727ZM129.054 30.5894C131.854 30.5427 134.374 29.7027 136.614 27.976C136.987 27.696 137.08 27.486 136.754 27.1127C135.68 25.8294 134.304 25.0594 132.6 25.036C130.22 24.9894 127.887 24.9894 125.507 25.036C123.804 25.0594 122.45 25.8527 121.377 27.136C121.074 27.5094 121.167 27.6727 121.494 27.9527C123.734 29.656 126.254 30.5194 129.054 30.5894Z" fill="#29353B"/>
<path d="M167.227 22.7743C168.464 22.8443 170.027 22.611 171.567 22.9143C174.134 23.381 176 24.8277 177.214 27.1143C177.564 27.7677 177.447 28.281 176.91 28.7943C171.404 34.1143 162.514 34.1377 156.96 28.841C156.307 28.211 156.237 27.8143 156.657 27.0677C158.104 24.4077 160.39 22.9377 163.424 22.7977C164.59 22.7277 165.757 22.7743 167.227 22.7743ZM167.274 24.991C165.734 24.991 164.567 24.9677 163.4 24.991C161.697 25.0377 160.344 25.7843 159.247 27.0677C158.967 27.3943 158.92 27.581 159.294 27.9077C163.564 31.4077 170.354 31.4077 174.53 27.8843C174.88 27.581 174.857 27.4177 174.577 27.091C173.714 26.041 172.664 25.341 171.334 25.0843C169.91 24.8277 168.417 25.0843 167.274 24.991Z" fill="#29353B"/>
<path d="M148.374 56.1867C149.54 56.2567 151.104 56.0234 152.644 56.3267C155.234 56.8167 157.1 58.2401 158.314 60.5967C158.617 61.1801 158.524 61.6934 158.034 62.1601C152.667 67.5501 143.334 67.5501 137.944 62.1601C137.454 61.6701 137.384 61.1801 137.664 60.5967C139.064 57.8901 141.28 56.4201 144.29 56.2334C145.527 56.0934 146.764 56.1867 148.374 56.1867ZM148.35 58.3801C146.857 58.3801 145.69 58.3567 144.5 58.3801C142.75 58.4267 141.35 59.1967 140.277 60.5734C140.067 60.8534 140.044 60.9934 140.324 61.2501C144.337 64.8201 151.57 64.8434 155.677 61.2734C156.004 60.9934 155.957 60.8534 155.724 60.5501C154.884 59.5001 153.81 58.8001 152.48 58.5201C151.01 58.2167 149.517 58.4734 148.35 58.3801Z" fill="#29353B"/>
<path d="M161.347 14.9576C161.347 11.901 163.867 9.4043 166.923 9.4043C170.003 9.4043 172.477 11.9243 172.477 14.981C172.477 18.0376 169.957 20.5343 166.9 20.5343C163.867 20.5576 161.347 18.0376 161.347 14.9576ZM163.587 14.981C163.587 16.7776 165.103 18.2943 166.9 18.2943C168.743 18.2943 170.26 16.7776 170.237 14.9343C170.237 13.1376 168.72 11.621 166.923 11.621C165.103 11.6443 163.563 13.161 163.587 14.981Z" fill="#29353B"/>
<path d="M129.1 9.4043C132.157 9.4043 134.653 11.9476 134.63 14.981C134.607 18.0376 132.087 20.5343 129.053 20.511C125.997 20.511 123.477 17.991 123.5 14.9343C123.5 11.8776 126.02 9.4043 129.1 9.4043ZM129.1 18.3176C130.897 18.3176 132.413 16.801 132.413 15.0043C132.413 13.1376 130.897 11.6443 129.077 11.6676C127.28 11.6676 125.763 13.1843 125.763 14.981C125.717 16.8243 127.233 18.341 129.1 18.3176Z" fill="#29353B"/>
<path d="M142.423 48.3697C142.423 45.2897 144.943 42.8164 147.977 42.8164C151.057 42.8164 153.53 45.3364 153.53 48.3697C153.53 51.4031 151.01 53.9464 147.977 53.9231C144.92 53.9464 142.423 51.4264 142.423 48.3697ZM151.313 48.3464C151.313 46.5497 149.797 45.0331 148 45.0331C146.157 45.0331 144.64 46.5497 144.663 48.3697C144.663 50.1664 146.18 51.6831 147.977 51.6831C149.843 51.7297 151.337 50.2131 151.313 48.3464Z" fill="#29353B"/>
<path d="M175.813 36.2136C175.183 36.2136 174.67 35.7003 174.717 35.047C174.717 34.417 175.23 33.9736 175.86 33.997C176.443 34.0203 176.957 34.5103 176.957 35.0936C176.91 35.677 176.373 36.2136 175.813 36.2136Z" fill="#29353B"/>
<path d="M126.347 50.2598C126.977 50.2598 127.42 50.7498 127.42 51.3564C127.42 51.9631 126.93 52.4531 126.347 52.4531C125.717 52.4531 125.18 51.9164 125.203 51.2864C125.227 50.7498 125.74 50.2598 126.347 50.2598Z" fill="#29353B"/>
<path d="M143.31 7.60603C142.727 7.60603 142.167 7.11603 142.167 6.5327C142.143 5.94937 142.633 5.38937 143.217 5.36603C143.87 5.3427 144.383 5.8327 144.383 6.4627C144.383 7.0927 143.893 7.55937 143.31 7.60603Z" fill="#29353B"/>
<path d="M175.114 43.7977C175.114 44.3811 174.6 44.8944 174.017 44.8944C173.387 44.8944 172.874 44.3811 172.92 43.7511C172.944 43.1677 173.457 42.6777 174.064 42.6777C174.624 42.7011 175.137 43.2144 175.114 43.7977Z" fill="#29353B"/>
<path d="M147.697 4.94727C148.28 4.94727 148.793 5.4606 148.793 6.04393C148.817 6.67393 148.28 7.2106 147.627 7.18727C146.997 7.16393 146.553 6.67393 146.553 6.04393C146.623 5.43727 147.113 4.94727 147.697 4.94727Z" fill="#29353B"/>
<path d="M169.584 52.5708C168.954 52.5708 168.487 52.1042 168.44 51.4975C168.417 50.9142 168.93 50.3542 169.514 50.3308C170.144 50.3075 170.68 50.8208 170.68 51.4742C170.68 52.0808 170.19 52.5708 169.584 52.5708Z" fill="#29353B"/>
<path d="M130.477 54.6004C130.477 55.2304 129.987 55.697 129.38 55.697C128.82 55.697 128.283 55.1837 128.283 54.6004C128.283 53.9704 128.797 53.457 129.427 53.457C130.01 53.5037 130.5 53.9937 130.477 54.6004Z" fill="#29353B"/>
<path d="M153.25 6.41761C153.25 7.00094 152.737 7.49094 152.107 7.49094C151.477 7.49094 151.01 6.97761 151.034 6.39428C151.034 5.76428 151.547 5.29761 152.13 5.29761C152.737 5.27428 153.25 5.81094 153.25 6.41761Z" fill="#29353B"/>
<path d="M121.307 34.9532C121.307 35.5832 120.84 36.0966 120.257 36.1199C119.673 36.1432 119.09 35.6299 119.09 34.9766C119.067 34.3932 119.58 33.9032 120.187 33.9032C120.793 33.8799 121.26 34.3232 121.307 34.9532Z" fill="#29353B"/>
<path d="M176.373 39.5037C176.397 40.087 175.883 40.6003 175.3 40.647C174.67 40.6703 174.203 40.227 174.133 39.597C174.11 39.0137 174.553 38.4537 175.16 38.407C175.79 38.3837 176.35 38.897 176.373 39.5037Z" fill="#29353B"/>
<path d="M121.937 42.5605C122.497 42.5605 123.01 43.0972 123.01 43.7039C123.01 44.3339 122.497 44.8005 121.844 44.8005C121.214 44.7772 120.794 44.2872 120.817 43.6572C120.864 43.0505 121.354 42.5605 121.937 42.5605Z" fill="#29353B"/>
<path d="M124.9 47.7177C124.9 48.3477 124.41 48.791 123.827 48.8143C123.197 48.8143 122.73 48.3477 122.683 47.7643C122.66 47.181 123.22 46.5977 123.827 46.5977C124.387 46.5977 124.9 47.111 124.9 47.7177Z" fill="#29353B"/>
<path d="M172.103 46.7129C172.733 46.7129 173.2 47.2262 173.177 47.8096C173.177 48.4396 172.687 48.9062 172.08 48.9062C171.497 48.9062 170.983 48.3696 170.983 47.7629C171.007 47.2029 171.52 46.7129 172.103 46.7129Z" fill="#29353B"/>
<path d="M167.6 54.6929C167.6 55.2763 167.087 55.7663 166.457 55.7663C165.827 55.7663 165.36 55.2996 165.36 54.6929C165.36 54.0396 165.873 53.5263 166.503 53.5496C167.133 53.5963 167.6 54.1329 167.6 54.6929Z" fill="#29353B"/>
<path d="M120.7 38.291C121.284 38.291 121.797 38.8043 121.797 39.3877C121.797 40.0177 121.284 40.4843 120.7 40.461C120.07 40.461 119.604 39.9943 119.604 39.3643C119.604 38.781 120.094 38.291 120.7 38.291Z" fill="#29353B"/>
</svg>
