<svg width="297" height="129" viewBox="0 0 297 129" fill="none" xmlns="http://www.w3.org/2000/svg">
<path d="M41.1751 100V88.8H44.8071C46.1191 88.8 47.1964 89.0293 48.0391 89.488C48.8924 89.9467 49.5217 90.5973 49.9271 91.44C50.3431 92.272 50.5511 93.264 50.5511 94.416C50.5511 95.5573 50.3431 96.5493 49.9271 97.392C49.5217 98.224 48.8924 98.8693 48.0391 99.328C47.1964 99.776 46.1191 100 44.8071 100H41.1751ZM42.8711 98.56H44.7431C45.7564 98.56 46.5564 98.3947 47.1431 98.064C47.7404 97.7333 48.1671 97.2587 48.4231 96.64C48.6897 96.0213 48.8231 95.28 48.8231 94.416C48.8231 93.552 48.6897 92.8053 48.4231 92.176C48.1671 91.5467 47.7404 91.0667 47.1431 90.736C46.5564 90.3947 45.7564 90.224 44.7431 90.224H42.8711V98.56ZM56.0731 100.192C55.2944 100.192 54.6011 100.021 53.9931 99.68C53.3957 99.328 52.9264 98.8427 52.5851 98.224C52.2437 97.6053 52.0731 96.8853 52.0731 96.064C52.0731 95.232 52.2384 94.5013 52.5691 93.872C52.9104 93.2427 53.3797 92.752 53.9771 92.4C54.5851 92.048 55.2891 91.872 56.0891 91.872C56.8677 91.872 57.5451 92.048 58.1211 92.4C58.6971 92.7413 59.1451 93.2 59.4651 93.776C59.7851 94.352 59.9451 94.9867 59.9451 95.68C59.9451 95.7867 59.9397 95.904 59.9291 96.032C59.9291 96.1493 59.9237 96.2827 59.9131 96.432H53.7371C53.7904 97.2 54.0411 97.7867 54.4891 98.192C54.9477 98.5867 55.4757 98.784 56.0731 98.784C56.5531 98.784 56.9531 98.6773 57.2731 98.464C57.6037 98.24 57.8491 97.9413 58.0091 97.568H59.7051C59.4917 98.3147 59.0651 98.9387 58.4251 99.44C57.7957 99.9413 57.0117 100.192 56.0731 100.192ZM56.0731 93.264C55.5077 93.264 55.0064 93.4347 54.5691 93.776C54.1317 94.1067 53.8651 94.608 53.7691 95.28H58.2491C58.2171 94.6613 57.9984 94.1707 57.5931 93.808C57.1877 93.4453 56.6811 93.264 56.0731 93.264ZM62.1048 100V93.488H60.9688V92.064H62.1048V90.912C62.1048 90.048 62.3181 89.4293 62.7448 89.056C63.1821 88.672 63.7955 88.48 64.5848 88.48H65.4168V89.92H64.8408C64.4675 89.92 64.2008 90 64.0408 90.16C63.8808 90.3093 63.8008 90.5653 63.8008 90.928V92.064H68.8248V100H67.1288V93.488H63.8008V100H62.1048ZM67.9928 90.736C67.6728 90.736 67.4061 90.64 67.1928 90.448C66.9901 90.2453 66.8888 89.9893 66.8888 89.68C66.8888 89.3813 66.9901 89.136 67.1928 88.944C67.4061 88.752 67.6728 88.656 67.9928 88.656C68.3128 88.656 68.5741 88.752 68.7768 88.944C68.9901 89.136 69.0968 89.3813 69.0968 89.68C69.0968 89.9893 68.9901 90.2453 68.7768 90.448C68.5741 90.64 68.3128 90.736 67.9928 90.736ZM71.0798 100V92.064H72.5838L72.7118 93.456C72.9571 92.9653 73.3145 92.5813 73.7838 92.304C74.2638 92.016 74.8131 91.872 75.4318 91.872C76.3918 91.872 77.1438 92.1707 77.6878 92.768C78.2425 93.3653 78.5198 94.256 78.5198 95.44V100H76.8398V95.616C76.8398 94.08 76.2105 93.312 74.9518 93.312C74.3225 93.312 73.7998 93.536 73.3838 93.984C72.9785 94.432 72.7758 95.072 72.7758 95.904V100H71.0798ZM84.2293 100.192C83.4506 100.192 82.7573 100.021 82.1493 99.68C81.552 99.328 81.0826 98.8427 80.7413 98.224C80.4 97.6053 80.2293 96.8853 80.2293 96.064C80.2293 95.232 80.3946 94.5013 80.7253 93.872C81.0666 93.2427 81.536 92.752 82.1333 92.4C82.7413 92.048 83.4453 91.872 84.2453 91.872C85.024 91.872 85.7013 92.048 86.2773 92.4C86.8533 92.7413 87.3013 93.2 87.6213 93.776C87.9413 94.352 88.1013 94.9867 88.1013 95.68C88.1013 95.7867 88.096 95.904 88.0853 96.032C88.0853 96.1493 88.08 96.2827 88.0693 96.432H81.8933C81.9466 97.2 82.1973 97.7867 82.6453 98.192C83.104 98.5867 83.632 98.784 84.2293 98.784C84.7093 98.784 85.1093 98.6773 85.4293 98.464C85.76 98.24 86.0053 97.9413 86.1653 97.568H87.8613C87.648 98.3147 87.2213 98.9387 86.5813 99.44C85.952 99.9413 85.168 100.192 84.2293 100.192ZM84.2293 93.264C83.664 93.264 83.1626 93.4347 82.7253 93.776C82.288 94.1067 82.0213 94.608 81.9253 95.28H86.4053C86.3733 94.6613 86.1546 94.1707 85.7493 93.808C85.344 93.4453 84.8373 93.264 84.2293 93.264ZM97.2203 100C96.4416 100 95.823 99.8133 95.3643 99.44C94.9056 99.056 94.6763 98.3787 94.6763 97.408V93.488H93.3163V92.064H94.6763L94.8843 90.048H96.3723V92.064H98.6123V93.488H96.3723V97.408C96.3723 97.8453 96.463 98.1493 96.6443 98.32C96.8363 98.48 97.1616 98.56 97.6203 98.56H98.5323V100H97.2203ZM100.361 100V88.48H102.057V93.344C102.324 92.8853 102.692 92.528 103.161 92.272C103.641 92.0053 104.169 91.872 104.745 91.872C105.694 91.872 106.441 92.1707 106.985 92.768C107.529 93.3653 107.801 94.256 107.801 95.44V100H106.121V95.616C106.121 94.08 105.508 93.312 104.281 93.312C103.641 93.312 103.108 93.536 102.681 93.984C102.265 94.432 102.057 95.072 102.057 95.904V100H100.361ZM113.511 100.192C112.732 100.192 112.039 100.021 111.431 99.68C110.833 99.328 110.364 98.8427 110.023 98.224C109.681 97.6053 109.511 96.8853 109.511 96.064C109.511 95.232 109.676 94.5013 110.007 93.872C110.348 93.2427 110.817 92.752 111.415 92.4C112.023 92.048 112.727 91.872 113.527 91.872C114.305 91.872 114.983 92.048 115.559 92.4C116.135 92.7413 116.583 93.2 116.903 93.776C117.223 94.352 117.383 94.9867 117.383 95.68C117.383 95.7867 117.377 95.904 117.367 96.032C117.367 96.1493 117.361 96.2827 117.351 96.432H111.175C111.228 97.2 111.479 97.7867 111.927 98.192C112.385 98.5867 112.913 98.784 113.511 98.784C113.991 98.784 114.391 98.6773 114.711 98.464C115.041 98.24 115.287 97.9413 115.447 97.568H117.143C116.929 98.3147 116.503 98.9387 115.863 99.44C115.233 99.9413 114.449 100.192 113.511 100.192ZM113.511 93.264C112.945 93.264 112.444 93.4347 112.007 93.776C111.569 94.1067 111.303 94.608 111.207 95.28H115.687C115.655 94.6613 115.436 94.1707 115.031 93.808C114.625 93.4453 114.119 93.264 113.511 93.264ZM123.174 100V92.064H124.694L124.838 93.568C125.115 93.0453 125.499 92.6347 125.99 92.336C126.491 92.0267 127.094 91.872 127.798 91.872V93.648H127.334C126.864 93.648 126.443 93.728 126.07 93.888C125.707 94.0373 125.414 94.2987 125.19 94.672C124.976 95.0347 124.87 95.5413 124.87 96.192V100H123.174ZM132.745 100.192C131.966 100.192 131.273 100.021 130.665 99.68C130.068 99.328 129.598 98.8427 129.257 98.224C128.916 97.6053 128.745 96.8853 128.745 96.064C128.745 95.232 128.91 94.5013 129.241 93.872C129.582 93.2427 130.052 92.752 130.649 92.4C131.257 92.048 131.961 91.872 132.761 91.872C133.54 91.872 134.217 92.048 134.793 92.4C135.369 92.7413 135.817 93.2 136.137 93.776C136.457 94.352 136.617 94.9867 136.617 95.68C136.617 95.7867 136.612 95.904 136.601 96.032C136.601 96.1493 136.596 96.2827 136.585 96.432H130.409C130.462 97.2 130.713 97.7867 131.161 98.192C131.62 98.5867 132.148 98.784 132.745 98.784C133.225 98.784 133.625 98.6773 133.945 98.464C134.276 98.24 134.521 97.9413 134.681 97.568H136.377C136.164 98.3147 135.737 98.9387 135.097 99.44C134.468 99.9413 133.684 100.192 132.745 100.192ZM132.745 93.264C132.18 93.264 131.678 93.4347 131.241 93.776C130.804 94.1067 130.537 94.608 130.441 95.28H134.921C134.889 94.6613 134.67 94.1707 134.265 93.808C133.86 93.4453 133.353 93.264 132.745 93.264ZM144.777 103.52V98.768C144.521 99.1413 144.169 99.472 143.721 99.76C143.273 100.048 142.697 100.192 141.993 100.192C141.225 100.192 140.547 100.011 139.961 99.648C139.374 99.2853 138.915 98.7893 138.585 98.16C138.254 97.5307 138.089 96.816 138.089 96.016C138.089 95.216 138.254 94.5067 138.585 93.888C138.915 93.2587 139.374 92.768 139.961 92.416C140.558 92.0533 141.241 91.872 142.009 91.872C142.638 91.872 143.187 91.9947 143.657 92.24C144.137 92.4853 144.51 92.832 144.777 93.28L144.953 92.064H146.473V103.52H144.777ZM142.297 98.72C143.022 98.72 143.614 98.4693 144.073 97.968C144.542 97.4667 144.777 96.8213 144.777 96.032C144.777 95.232 144.542 94.5867 144.073 94.096C143.614 93.5947 143.022 93.344 142.297 93.344C141.571 93.344 140.974 93.5947 140.505 94.096C140.035 94.5867 139.801 95.232 139.801 96.032C139.801 96.5547 139.907 97.0187 140.121 97.424C140.334 97.8293 140.627 98.1493 141.001 98.384C141.385 98.608 141.817 98.72 142.297 98.72ZM151.539 100.192C150.579 100.192 149.822 99.8933 149.267 99.296C148.723 98.6987 148.451 97.808 148.451 96.624V92.064H150.147V96.448C150.147 97.984 150.776 98.752 152.035 98.752C152.664 98.752 153.182 98.528 153.587 98.08C153.992 97.632 154.195 96.992 154.195 96.16V92.064H155.891V100H154.387L154.259 98.608C154.014 99.0987 153.651 99.488 153.171 99.776C152.702 100.053 152.158 100.192 151.539 100.192ZM159.009 90.56C158.689 90.56 158.422 90.464 158.209 90.272C158.006 90.0693 157.905 89.8187 157.905 89.52C157.905 89.2213 158.006 88.976 158.209 88.784C158.422 88.5813 158.689 88.48 159.009 88.48C159.329 88.48 159.59 88.5813 159.793 88.784C160.006 88.976 160.113 89.2213 160.113 89.52C160.113 89.8187 160.006 90.0693 159.793 90.272C159.59 90.464 159.329 90.56 159.009 90.56ZM158.161 100V92.064H159.857V100H158.161ZM162.095 100V92.064H163.615L163.759 93.568C164.037 93.0453 164.421 92.6347 164.911 92.336C165.413 92.0267 166.015 91.872 166.719 91.872V93.648H166.255C165.786 93.648 165.365 93.728 164.991 93.888C164.629 94.0373 164.335 94.2987 164.111 94.672C163.898 95.0347 163.791 95.5413 163.791 96.192V100H162.095ZM171.667 100.192C170.888 100.192 170.195 100.021 169.587 99.68C168.989 99.328 168.52 98.8427 168.179 98.224C167.837 97.6053 167.667 96.8853 167.667 96.064C167.667 95.232 167.832 94.5013 168.163 93.872C168.504 93.2427 168.973 92.752 169.571 92.4C170.179 92.048 170.883 91.872 171.683 91.872C172.461 91.872 173.139 92.048 173.715 92.4C174.291 92.7413 174.739 93.2 175.059 93.776C175.379 94.352 175.539 94.9867 175.539 95.68C175.539 95.7867 175.533 95.904 175.523 96.032C175.523 96.1493 175.517 96.2827 175.507 96.432H169.331C169.384 97.2 169.635 97.7867 170.083 98.192C170.541 98.5867 171.069 98.784 171.667 98.784C172.147 98.784 172.547 98.6773 172.867 98.464C173.197 98.24 173.443 97.9413 173.603 97.568H175.299C175.085 98.3147 174.659 98.9387 174.019 99.44C173.389 99.9413 172.605 100.192 171.667 100.192ZM171.667 93.264C171.101 93.264 170.6 93.4347 170.163 93.776C169.725 94.1067 169.459 94.608 169.363 95.28H173.843C173.811 94.6613 173.592 94.1707 173.187 93.808C172.781 93.4453 172.275 93.264 171.667 93.264ZM177.299 100V92.064H178.803L178.947 93.184C179.203 92.7787 179.539 92.4587 179.955 92.224C180.381 91.9893 180.872 91.872 181.427 91.872C182.685 91.872 183.56 92.368 184.051 93.36C184.339 92.9013 184.723 92.5387 185.203 92.272C185.693 92.0053 186.221 91.872 186.787 91.872C187.779 91.872 188.557 92.1707 189.123 92.768C189.688 93.3653 189.971 94.256 189.971 95.44V100H188.275V95.616C188.275 94.08 187.688 93.312 186.515 93.312C185.917 93.312 185.427 93.536 185.043 93.984C184.669 94.432 184.483 95.072 184.483 95.904V100H182.787V95.616C182.787 94.08 182.195 93.312 181.011 93.312C180.424 93.312 179.939 93.536 179.555 93.984C179.181 94.432 178.995 95.072 178.995 95.904V100H177.299ZM195.667 100.192C194.888 100.192 194.195 100.021 193.587 99.68C192.989 99.328 192.52 98.8427 192.179 98.224C191.837 97.6053 191.667 96.8853 191.667 96.064C191.667 95.232 191.832 94.5013 192.163 93.872C192.504 93.2427 192.973 92.752 193.571 92.4C194.179 92.048 194.883 91.872 195.683 91.872C196.461 91.872 197.139 92.048 197.715 92.4C198.291 92.7413 198.739 93.2 199.059 93.776C199.379 94.352 199.539 94.9867 199.539 95.68C199.539 95.7867 199.533 95.904 199.523 96.032C199.523 96.1493 199.517 96.2827 199.507 96.432H193.331C193.384 97.2 193.635 97.7867 194.083 98.192C194.541 98.5867 195.069 98.784 195.667 98.784C196.147 98.784 196.547 98.6773 196.867 98.464C197.197 98.24 197.443 97.9413 197.603 97.568H199.299C199.085 98.3147 198.659 98.9387 198.019 99.44C197.389 99.9413 196.605 100.192 195.667 100.192ZM195.667 93.264C195.101 93.264 194.6 93.4347 194.163 93.776C193.725 94.1067 193.459 94.608 193.363 95.28H197.843C197.811 94.6613 197.592 94.1707 197.187 93.808C196.781 93.4453 196.275 93.264 195.667 93.264ZM201.299 100V92.064H202.803L202.931 93.456C203.176 92.9653 203.533 92.5813 204.003 92.304C204.483 92.016 205.032 91.872 205.651 91.872C206.611 91.872 207.363 92.1707 207.907 92.768C208.461 93.3653 208.739 94.256 208.739 95.44V100H207.059V95.616C207.059 94.08 206.429 93.312 205.171 93.312C204.541 93.312 204.019 93.536 203.603 93.984C203.197 94.432 202.995 95.072 202.995 95.904V100H201.299ZM214.064 100C213.285 100 212.667 99.8133 212.208 99.44C211.749 99.056 211.52 98.3787 211.52 97.408V93.488H210.16V92.064H211.52L211.728 90.048H213.216V92.064H215.456V93.488H213.216V97.408C213.216 97.8453 213.307 98.1493 213.488 98.32C213.68 98.48 214.005 98.56 214.464 98.56H215.376V100H214.064ZM220.373 100.192C219.37 100.192 218.543 99.9467 217.893 99.456C217.242 98.9653 216.869 98.3147 216.773 97.504H218.485C218.57 97.8667 218.773 98.1813 219.093 98.448C219.413 98.704 219.834 98.832 220.357 98.832C220.869 98.832 221.242 98.7253 221.477 98.512C221.711 98.2987 221.829 98.0533 221.829 97.776C221.829 97.3707 221.663 97.0987 221.333 96.96C221.013 96.8107 220.565 96.6773 219.989 96.56C219.541 96.464 219.093 96.336 218.645 96.176C218.207 96.016 217.839 95.792 217.541 95.504C217.253 95.2053 217.109 94.8053 217.109 94.304C217.109 93.6107 217.375 93.0347 217.909 92.576C218.442 92.1067 219.189 91.872 220.149 91.872C221.034 91.872 221.749 92.0853 222.293 92.512C222.847 92.9387 223.173 93.5413 223.269 94.32H221.637C221.583 93.9787 221.423 93.712 221.157 93.52C220.901 93.328 220.554 93.232 220.117 93.232C219.69 93.232 219.359 93.3227 219.125 93.504C218.89 93.6747 218.773 93.8987 218.773 94.176C218.773 94.4533 218.933 94.672 219.253 94.832C219.583 94.992 220.015 95.136 220.549 95.264C221.082 95.3813 221.573 95.52 222.021 95.68C222.479 95.8293 222.847 96.0533 223.125 96.352C223.402 96.6507 223.541 97.088 223.541 97.664C223.551 98.3893 223.269 98.992 222.693 99.472C222.127 99.952 221.354 100.192 220.373 100.192ZM232.112 100.192C231.44 100.192 230.885 100.08 230.448 99.856C230.01 99.632 229.685 99.3387 229.472 98.976C229.258 98.6027 229.152 98.1973 229.152 97.76C229.152 96.992 229.45 96.384 230.048 95.936C230.645 95.488 231.498 95.264 232.608 95.264H234.688V95.12C234.688 94.5013 234.517 94.0373 234.176 93.728C233.845 93.4187 233.413 93.264 232.88 93.264C232.41 93.264 232 93.3813 231.648 93.616C231.306 93.84 231.098 94.176 231.024 94.624H229.328C229.381 94.048 229.573 93.5573 229.904 93.152C230.245 92.736 230.672 92.4213 231.184 92.208C231.706 91.984 232.277 91.872 232.896 91.872C234.005 91.872 234.864 92.1653 235.472 92.752C236.08 93.328 236.384 94.1173 236.384 95.12V100H234.912L234.768 98.64C234.544 99.0773 234.218 99.4453 233.792 99.744C233.365 100.043 232.805 100.192 232.112 100.192ZM232.448 98.816C232.906 98.816 233.29 98.7093 233.6 98.496C233.92 98.272 234.165 97.9787 234.336 97.616C234.517 97.2533 234.629 96.8533 234.672 96.416H232.784C232.112 96.416 231.632 96.5333 231.344 96.768C231.066 97.0027 230.928 97.296 230.928 97.648C230.928 98.0107 231.061 98.2987 231.328 98.512C231.605 98.7147 231.978 98.816 232.448 98.816ZM238.361 100V92.064H239.865L239.993 93.456C240.238 92.9653 240.596 92.5813 241.065 92.304C241.545 92.016 242.094 91.872 242.713 91.872C243.673 91.872 244.425 92.1707 244.969 92.768C245.524 93.3653 245.801 94.256 245.801 95.44V100H244.121V95.616C244.121 94.08 243.492 93.312 242.233 93.312C241.604 93.312 241.081 93.536 240.665 93.984C240.26 94.432 240.057 95.072 240.057 95.904V100H238.361ZM251.415 100.192C250.647 100.192 249.969 100.011 249.383 99.648C248.796 99.2853 248.337 98.7893 248.007 98.16C247.676 97.5307 247.511 96.816 247.511 96.016C247.511 95.216 247.676 94.5067 248.007 93.888C248.337 93.2587 248.796 92.768 249.383 92.416C249.98 92.0533 250.663 91.872 251.431 91.872C252.06 91.872 252.609 91.9947 253.079 92.24C253.559 92.4853 253.932 92.832 254.199 93.28V88.48H255.895V100H254.375L254.199 98.768C253.943 99.1413 253.591 99.472 253.143 99.76C252.695 100.048 252.119 100.192 251.415 100.192ZM251.719 98.72C252.444 98.72 253.036 98.4693 253.495 97.968C253.964 97.4667 254.199 96.8213 254.199 96.032C254.199 95.232 253.964 94.5867 253.495 94.096C253.036 93.5947 252.444 93.344 251.719 93.344C250.993 93.344 250.396 93.5947 249.927 94.096C249.457 94.5867 249.223 95.232 249.223 96.032C249.223 96.5547 249.329 97.0187 249.543 97.424C249.756 97.8293 250.049 98.1493 250.423 98.384C250.807 98.608 251.239 98.72 251.719 98.72ZM113.948 119.192C113.191 119.192 112.508 119.021 111.9 118.68C111.303 118.328 110.828 117.843 110.476 117.224C110.124 116.595 109.948 115.864 109.948 115.032C109.948 114.2 110.124 113.475 110.476 112.856C110.839 112.227 111.324 111.741 111.932 111.4C112.54 111.048 113.217 110.872 113.964 110.872C114.721 110.872 115.399 111.048 115.996 111.4C116.604 111.741 117.084 112.227 117.436 112.856C117.799 113.475 117.98 114.2 117.98 115.032C117.98 115.864 117.799 116.595 117.436 117.224C117.084 117.843 116.604 118.328 115.996 118.68C115.388 119.021 114.705 119.192 113.948 119.192ZM113.948 117.736C114.353 117.736 114.727 117.635 115.068 117.432C115.42 117.229 115.703 116.931 115.916 116.536C116.129 116.131 116.236 115.629 116.236 115.032C116.236 114.435 116.129 113.939 115.916 113.544C115.713 113.139 115.436 112.835 115.084 112.632C114.743 112.429 114.369 112.328 113.964 112.328C113.559 112.328 113.18 112.429 112.828 112.632C112.487 112.835 112.209 113.139 111.996 113.544C111.783 113.939 111.676 114.435 111.676 115.032C111.676 115.629 111.783 116.131 111.996 116.536C112.209 116.931 112.487 117.229 112.828 117.432C113.169 117.635 113.543 117.736 113.948 117.736ZM124.278 119.192C123.66 119.192 123.11 119.069 122.63 118.824C122.161 118.579 121.788 118.232 121.51 117.784L121.334 119H119.814V107.48H121.51V112.296C121.766 111.923 122.118 111.592 122.566 111.304C123.014 111.016 123.59 110.872 124.294 110.872C125.062 110.872 125.74 111.053 126.326 111.416C126.913 111.779 127.372 112.275 127.702 112.904C128.044 113.533 128.214 114.248 128.214 115.048C128.214 115.848 128.044 116.563 127.702 117.192C127.372 117.811 126.913 118.301 126.326 118.664C125.74 119.016 125.057 119.192 124.278 119.192ZM123.99 117.72C124.716 117.72 125.313 117.475 125.782 116.984C126.252 116.483 126.486 115.832 126.486 115.032C126.486 114.509 126.38 114.045 126.166 113.64C125.953 113.235 125.66 112.92 125.286 112.696C124.913 112.461 124.481 112.344 123.99 112.344C123.265 112.344 122.668 112.595 122.198 113.096C121.74 113.597 121.51 114.243 121.51 115.032C121.51 115.832 121.74 116.483 122.198 116.984C122.668 117.475 123.265 117.72 123.99 117.72ZM131.057 109.56C130.737 109.56 130.47 109.464 130.257 109.272C130.054 109.069 129.953 108.819 129.953 108.52C129.953 108.221 130.054 107.976 130.257 107.784C130.47 107.581 130.737 107.48 131.057 107.48C131.377 107.48 131.638 107.581 131.841 107.784C132.054 107.976 132.161 108.221 132.161 108.52C132.161 108.819 132.054 109.069 131.841 109.272C131.638 109.464 131.377 109.56 131.057 109.56ZM128.529 122.52V121.08H129.153C129.526 121.08 129.793 121 129.953 120.84C130.113 120.691 130.193 120.435 130.193 120.072V111.064H131.889V120.088C131.889 120.952 131.67 121.571 131.233 121.944C130.795 122.328 130.187 122.52 129.409 122.52H128.529ZM137.839 119.192C137.06 119.192 136.367 119.021 135.759 118.68C135.161 118.328 134.692 117.843 134.351 117.224C134.009 116.605 133.839 115.885 133.839 115.064C133.839 114.232 134.004 113.501 134.335 112.872C134.676 112.243 135.145 111.752 135.743 111.4C136.351 111.048 137.055 110.872 137.855 110.872C138.633 110.872 139.311 111.048 139.887 111.4C140.463 111.741 140.911 112.2 141.231 112.776C141.551 113.352 141.711 113.987 141.711 114.68C141.711 114.787 141.705 114.904 141.695 115.032C141.695 115.149 141.689 115.283 141.679 115.432H135.503C135.556 116.2 135.807 116.787 136.255 117.192C136.713 117.587 137.241 117.784 137.839 117.784C138.319 117.784 138.719 117.677 139.039 117.464C139.369 117.24 139.615 116.941 139.775 116.568H141.471C141.257 117.315 140.831 117.939 140.191 118.44C139.561 118.941 138.777 119.192 137.839 119.192ZM137.839 112.264C137.273 112.264 136.772 112.435 136.335 112.776C135.897 113.107 135.631 113.608 135.535 114.28H140.015C139.983 113.661 139.764 113.171 139.359 112.808C138.953 112.445 138.447 112.264 137.839 112.264ZM147.23 119.192C146.452 119.192 145.753 119.016 145.134 118.664C144.526 118.312 144.046 117.827 143.694 117.208C143.353 116.579 143.182 115.853 143.182 115.032C143.182 114.211 143.353 113.491 143.694 112.872C144.046 112.243 144.526 111.752 145.134 111.4C145.753 111.048 146.452 110.872 147.23 110.872C148.212 110.872 149.033 111.128 149.694 111.64C150.366 112.152 150.798 112.845 150.99 113.72H149.214C149.108 113.283 148.873 112.941 148.51 112.696C148.148 112.451 147.721 112.328 147.23 112.328C146.814 112.328 146.43 112.435 146.078 112.648C145.726 112.851 145.444 113.155 145.23 113.56C145.017 113.955 144.91 114.445 144.91 115.032C144.91 115.619 145.017 116.115 145.23 116.52C145.444 116.915 145.726 117.219 146.078 117.432C146.43 117.645 146.814 117.752 147.23 117.752C147.721 117.752 148.148 117.629 148.51 117.384C148.873 117.139 149.108 116.792 149.214 116.344H150.99C150.809 117.197 150.382 117.885 149.71 118.408C149.038 118.931 148.212 119.192 147.23 119.192ZM156.002 119C155.223 119 154.604 118.813 154.146 118.44C153.687 118.056 153.458 117.379 153.458 116.408V112.488H152.098V111.064H153.458L153.666 109.048H155.154V111.064H157.394V112.488H155.154V116.408C155.154 116.845 155.244 117.149 155.426 117.32C155.618 117.48 155.943 117.56 156.402 117.56H157.314V119H156.002ZM160.102 109.56C159.782 109.56 159.516 109.464 159.302 109.272C159.1 109.069 158.998 108.819 158.998 108.52C158.998 108.221 159.1 107.976 159.302 107.784C159.516 107.581 159.782 107.48 160.102 107.48C160.422 107.48 160.684 107.581 160.886 107.784C161.1 107.976 161.206 108.221 161.206 108.52C161.206 108.819 161.1 109.069 160.886 109.272C160.684 109.464 160.422 109.56 160.102 109.56ZM159.254 119V111.064H160.95V119H159.254ZM165.413 119L162.437 111.064H164.213L166.421 117.384L168.629 111.064H170.389L167.429 119H165.413ZM175.089 119.192C174.31 119.192 173.617 119.021 173.009 118.68C172.411 118.328 171.942 117.843 171.601 117.224C171.259 116.605 171.089 115.885 171.089 115.064C171.089 114.232 171.254 113.501 171.585 112.872C171.926 112.243 172.395 111.752 172.993 111.4C173.601 111.048 174.305 110.872 175.105 110.872C175.883 110.872 176.561 111.048 177.137 111.4C177.713 111.741 178.161 112.2 178.481 112.776C178.801 113.352 178.961 113.987 178.961 114.68C178.961 114.787 178.955 114.904 178.945 115.032C178.945 115.149 178.939 115.283 178.929 115.432H172.753C172.806 116.2 173.057 116.787 173.505 117.192C173.963 117.587 174.491 117.784 175.089 117.784C175.569 117.784 175.969 117.677 176.289 117.464C176.619 117.24 176.865 116.941 177.025 116.568H178.721C178.507 117.315 178.081 117.939 177.441 118.44C176.811 118.941 176.027 119.192 175.089 119.192ZM175.089 112.264C174.523 112.264 174.022 112.435 173.585 112.776C173.147 113.107 172.881 113.608 172.785 114.28H177.265C177.233 113.661 177.014 113.171 176.609 112.808C176.203 112.445 175.697 112.264 175.089 112.264ZM183.888 119.192C182.886 119.192 182.059 118.947 181.408 118.456C180.758 117.965 180.384 117.315 180.288 116.504H182C182.086 116.867 182.288 117.181 182.608 117.448C182.928 117.704 183.35 117.832 183.872 117.832C184.384 117.832 184.758 117.725 184.992 117.512C185.227 117.299 185.344 117.053 185.344 116.776C185.344 116.371 185.179 116.099 184.848 115.96C184.528 115.811 184.08 115.677 183.504 115.56C183.056 115.464 182.608 115.336 182.16 115.176C181.723 115.016 181.355 114.792 181.056 114.504C180.768 114.205 180.624 113.805 180.624 113.304C180.624 112.611 180.891 112.035 181.424 111.576C181.958 111.107 182.704 110.872 183.664 110.872C184.55 110.872 185.264 111.085 185.808 111.512C186.363 111.939 186.688 112.541 186.784 113.32H185.152C185.099 112.979 184.939 112.712 184.672 112.52C184.416 112.328 184.07 112.232 183.632 112.232C183.206 112.232 182.875 112.323 182.64 112.504C182.406 112.675 182.288 112.899 182.288 113.176C182.288 113.453 182.448 113.672 182.768 113.832C183.099 113.992 183.531 114.136 184.064 114.264C184.598 114.381 185.088 114.52 185.536 114.68C185.995 114.829 186.363 115.053 186.64 115.352C186.918 115.651 187.056 116.088 187.056 116.664C187.067 117.389 186.784 117.992 186.208 118.472C185.643 118.952 184.87 119.192 183.888 119.192Z" fill="black"/>
<path d="M162.606 21.9558C163.773 23.3325 164.706 24.6625 165.453 26.1325C171.59 38.1958 163.913 52.7558 150.52 54.5525C139.553 55.9991 129.496 48.0191 128.4 37.0058C127.35 26.4591 134.746 17.0325 145.316 15.5625C150.006 14.9325 154.416 15.8891 158.43 18.4091C159.2 18.9225 159.386 19.6691 158.85 20.2291C158.43 20.6725 157.94 20.6958 157.24 20.2525C155.14 18.9458 152.9 18.1291 150.473 17.7325C141.606 16.3325 132.833 22.3991 130.896 31.1958C128.726 41.2058 135.376 50.8191 145.48 52.3358C154.79 53.7125 163.633 47.2258 165.173 37.9158C166.013 32.7358 164.753 28.0925 161.51 23.9858C161.206 23.5891 160.996 23.4491 160.6 23.8925C159.923 24.6391 159.176 25.3625 158.43 26.0625C158.056 26.3891 158.033 26.6225 158.336 27.0425C161.533 31.4758 162 36.2125 159.503 41.0891C156.96 46.1058 151.313 48.8591 145.806 47.9258C140.23 46.9691 135.796 42.5825 135.026 37.0758C134.303 32.0125 135.936 27.7425 140.02 24.6158C144.01 21.5591 148.466 21.0691 153.156 22.9825C153.693 23.2158 154.136 23.4958 154.136 24.1491C154.136 24.9891 153.32 25.4325 152.433 25.0358C150.963 24.4058 149.423 24.0558 147.813 24.0791C142.19 24.1258 137.383 28.6991 137.08 34.3225C136.776 40.0625 140.86 45.0791 146.506 45.8025C153.366 46.6891 159.246 41.2525 158.896 34.3458C158.78 32.1991 158.056 30.2858 156.796 28.5125C156.563 28.2091 156.423 28.0691 156.096 28.4191C155.326 29.2591 154.51 30.0525 153.67 30.8458C153.366 31.1258 153.413 31.3125 153.576 31.6625C154.86 33.9025 154.883 36.1891 153.553 38.3825C152.223 40.5758 150.17 41.6491 147.603 41.5325C144.36 41.4158 141.606 38.6858 141.42 35.4658C141.233 32.1291 143.543 29.1425 146.763 28.5825C147.066 28.5358 147.393 28.4658 147.72 28.4658C148.536 28.4425 149.026 28.8625 149.05 29.4925C149.073 30.1225 148.606 30.5891 147.79 30.6358C145.783 30.7758 144.126 32.0825 143.73 33.9491C143.286 35.9091 144.126 37.8225 145.876 38.8025C147.556 39.7125 149.656 39.4325 151.033 38.0791C152.433 36.6791 152.713 34.6258 151.71 32.7825C150.87 33.6225 150.1 34.4158 149.283 35.2325C149.096 35.4191 148.863 35.6758 148.653 35.8391C148.186 36.2125 147.673 36.1658 147.23 35.7458C146.81 35.3491 146.786 34.7425 147.136 34.2758C147.276 34.1125 147.416 33.9725 147.556 33.8325C151.966 29.4225 156.33 25.0591 160.74 20.6725C160.996 20.4158 161.066 20.1591 161.066 19.8325C161.066 17.7091 161.066 15.5858 161.043 13.4858C161.043 12.9491 161.183 12.5291 161.58 12.1558C164.356 9.40247 167.133 6.62581 169.886 3.84914C170.283 3.45247 170.703 3.14914 171.286 3.40581C171.893 3.66247 172.01 4.15247 172.01 4.73581C171.986 6.25247 172.01 7.74581 172.01 9.30914C172.336 9.12248 172.593 8.79581 172.966 8.77247C173.363 8.74914 173.69 8.86581 173.946 9.16914C174.366 9.63581 174.273 10.1258 173.666 10.9425C174.833 10.9425 175.93 10.9425 177.003 10.9425C177.4 10.9425 177.773 10.9658 178.17 10.9425C178.776 10.9191 179.313 10.9891 179.593 11.6425C179.873 12.2725 179.476 12.6925 179.056 13.1125C177.96 14.2091 176.886 15.3058 175.766 16.3791C175.37 16.7525 175.346 16.9625 175.65 17.4291C186.476 34.5091 179.476 57.0725 160.88 65.0991C147.393 70.9325 131.363 66.8025 122.333 55.2058C117.363 48.8591 115.053 41.6258 115.31 33.5758C115.753 19.8091 125.6 7.25581 138.876 3.52247C147.066 1.21247 154.953 1.93581 162.63 5.62247C162.746 5.66914 162.886 5.73914 163.003 5.78581C163.61 6.15914 163.82 6.74247 163.54 7.30247C163.26 7.86247 162.676 8.04914 162.023 7.76914C161.136 7.37247 160.273 6.92914 159.34 6.57914C147.323 1.77247 133.44 5.15581 125.016 14.9325C120.84 19.7858 118.273 25.3858 117.69 31.7791C116.78 41.4858 119.79 49.8391 126.673 56.7691C130.966 61.0625 136.123 63.8858 142.096 64.9591C152.876 66.9425 162.28 64.0491 170.026 56.2558C174.646 51.6358 177.376 45.9658 178.333 39.5025C179.453 32.0125 177.913 25.0125 173.806 18.4558C173.083 19.1791 172.383 19.8791 171.683 20.5791C170.656 21.6058 170.656 21.6058 171.31 22.8658C178.31 36.0725 172.546 52.7558 158.85 58.8691C143.356 65.8225 125.483 56.4891 122.333 39.8525C119.79 26.6225 127.84 13.5091 140.813 9.82247C146.856 8.09581 152.783 8.51581 158.546 10.9658C159.293 11.2691 159.55 11.6891 159.433 12.2958C159.293 13.0191 158.57 13.3458 157.753 12.9958C155.886 12.1791 153.973 11.5725 151.943 11.2691C143.776 10.1025 136.66 12.3658 130.873 18.2458C126.02 23.1691 123.803 29.2358 124.06 36.1191C124.48 46.6891 132.226 55.9758 142.54 58.3325C153.996 60.9458 165.406 55.2991 170.05 44.4958C173.34 36.8891 172.663 29.4458 168.463 22.3058C168.276 21.9791 168.043 21.8625 167.646 21.8625C165.966 21.9791 164.356 21.9558 162.606 21.9558ZM163.213 18.1991C165.173 16.2391 166.97 14.3725 168.883 12.5991C169.583 11.9691 169.886 11.2925 169.793 10.3591C169.7 9.33248 169.77 8.30581 169.77 7.16247C167.6 9.33247 165.523 11.4091 163.47 13.4625C163.283 13.6491 163.19 13.8591 163.19 14.0925C163.213 15.3758 163.213 16.7058 163.213 18.1991ZM164.823 19.7858C166.27 19.7858 167.553 19.7858 168.813 19.7858C169.186 19.7858 169.443 19.6691 169.7 19.4125C171.59 17.5225 173.48 15.6091 175.393 13.7191C175.533 13.5791 175.65 13.4391 175.86 13.2058C175.02 13.2058 174.32 13.2991 173.62 13.1825C171.986 12.9258 170.843 13.5558 169.746 14.7691C168.253 16.5191 166.55 18.0591 164.823 19.7858Z" fill="#29353B"/>
</svg>
