<svg width="297" height="129" viewBox="0 0 297 129" fill="none" xmlns="http://www.w3.org/2000/svg">
<path d="M143.66 49.2575C142.213 50.8441 141.49 52.5708 141.49 54.5541C141.466 58.3574 141.49 62.1608 141.49 65.9641C141.49 66.1275 141.49 66.2908 141.49 66.4308C141.466 67.1775 141.023 67.6441 140.393 67.6208C139.763 67.5974 139.343 67.1308 139.32 66.3841C139.32 66.1274 139.32 65.8941 139.32 65.6374C139.32 62.0208 139.32 58.3808 139.32 54.7641C139.32 51.4741 140.603 48.7908 143.216 46.7841C143.566 46.5274 143.683 46.2474 143.683 45.8274C143.66 40.7174 143.66 35.5841 143.683 30.4741C143.683 30.0541 143.566 29.7508 143.356 29.4008C141.21 26.1574 141.536 27.0908 141.513 23.2408C141.49 20.9074 141.513 18.5741 141.513 16.2408C141.49 12.5774 142.54 9.24078 144.686 6.27745C145.48 5.20411 146.226 4.10745 147.02 3.01078C147.65 2.14745 148.42 2.14745 149.05 3.01078C149.913 4.20078 150.776 5.39078 151.616 6.60411C153.553 9.45078 154.533 12.6008 154.533 16.0541C154.533 19.0874 154.51 22.1208 154.533 25.1541C154.533 26.1808 154.346 27.1141 153.693 27.8841C152.573 29.1674 152.293 30.6374 152.316 32.3174C152.41 36.8208 152.363 41.3241 152.34 45.8508C152.34 46.2941 152.48 46.5508 152.806 46.8074C155.373 48.7908 156.68 51.4274 156.703 54.6708C156.726 58.5208 156.703 62.3708 156.703 66.2208C156.703 66.2441 156.703 66.2674 156.703 66.2908C156.703 67.1541 156.306 67.6441 155.63 67.6441C154.953 67.6441 154.533 67.1541 154.533 66.2908C154.533 62.4874 154.533 58.6841 154.533 54.8808C154.533 54.1108 154.463 53.3408 154.253 52.5941C153.926 51.3808 153.32 50.3074 152.34 49.2808C152.34 49.6541 152.34 49.8874 152.34 50.1441C152.34 55.5341 152.34 60.9241 152.34 66.3141C152.34 67.3175 151.99 67.6674 151.01 67.6674C149.026 67.6674 147.02 67.6674 145.036 67.6674C143.986 67.6674 143.66 67.3408 143.66 66.3141C143.66 60.9475 143.66 55.5808 143.66 50.2141C143.66 49.9108 143.66 49.6774 143.66 49.2575ZM145.83 47.2974C145.83 53.1541 145.83 58.9874 145.806 64.8441C145.806 65.3574 145.923 65.4974 146.436 65.4741C147.533 65.4274 148.606 65.4508 149.703 65.4741C150.1 65.4741 150.193 65.3574 150.193 64.9841C150.17 60.9474 150.17 56.9108 150.193 52.8741C150.193 52.4775 150.053 52.3841 149.703 52.4074C149.143 52.4308 148.56 52.4308 148 52.4074C147.37 52.3841 146.926 51.9174 146.926 51.3108C146.926 50.7274 147.37 50.2608 148.023 50.2374C148.536 50.2141 149.073 50.1908 149.586 50.2374C150.123 50.2841 150.216 50.0975 150.216 49.6074C150.193 46.0608 150.216 42.4908 150.193 38.9441C150.193 38.3841 150.38 37.6608 150.1 37.3108C149.796 36.9374 149.05 37.2408 148.49 37.1941C148.35 37.1941 148.21 37.1941 148.093 37.1941C147.393 37.1474 146.95 36.7274 146.95 36.0974C146.95 35.4908 147.416 35.0475 148.116 35.0241C148.63 35.0008 149.166 34.9775 149.68 35.0241C150.146 35.0708 150.24 34.8841 150.216 34.4641C150.193 33.8341 150.263 33.1808 150.193 32.5741C149.913 30.2874 150.45 28.2808 151.99 26.5774C152.316 26.2274 152.386 25.7841 152.386 25.3174C152.363 22.5408 152.293 19.7408 152.41 16.9641C152.596 12.6008 150.916 8.98411 148.28 5.69411C148.07 5.43745 147.976 5.46078 147.79 5.71745C147.276 6.44078 146.763 7.16411 146.25 7.88745C144.546 10.3374 143.683 13.0441 143.683 16.0308C143.683 18.2941 143.8 20.5808 143.636 22.8208C143.496 25.0374 143.916 26.9741 145.41 28.6308C145.783 29.0274 145.853 29.5408 145.853 30.0774C145.83 35.7941 145.83 41.5574 145.83 47.2974Z" fill="#273339"/>
<path d="M132.157 49.7468C130.477 48.2068 129.333 46.4102 128.773 44.2402C127.56 39.5735 129.59 34.6268 133.743 32.2002C134.21 31.9435 134.233 31.7102 134.093 31.2435C133.253 28.2102 134.77 24.9435 137.617 23.6602C138.34 23.3335 138.97 23.4968 139.25 24.0802C139.53 24.6635 139.273 25.2468 138.573 25.6202C136.613 26.6468 135.68 28.5602 136.147 30.5668C136.24 30.9635 136.38 31.0802 136.777 30.9402C137.127 30.8235 137.523 30.8002 137.92 30.7535C138.713 30.6368 139.25 30.9868 139.343 31.6402C139.437 32.3168 139.063 32.7602 138.223 32.9002C136.217 33.2035 134.467 34.0435 133.043 35.4902C129.193 39.4102 130.01 46.0135 134.677 48.8835C134.863 49.0002 135.073 49.0935 135.283 49.1868C135.843 49.4435 136.147 49.8868 136.007 50.4935C135.867 51.1002 135.447 51.3802 134.817 51.3802C132.483 51.3802 130.57 53.3635 130.593 55.6968C130.593 56.0702 130.71 56.3268 131.013 56.5602C131.41 56.8402 131.783 57.1902 132.133 57.5402C132.647 58.0535 132.693 58.7068 132.25 59.1735C131.783 59.6402 131.177 59.6168 130.64 59.1035C129.1 57.5868 127.257 56.7935 125.087 56.7935C120.257 56.8168 116.71 61.2968 117.737 66.0802C117.9 66.8502 117.713 67.3168 117.153 67.5735C116.5 67.8768 115.847 67.4802 115.637 66.6868C114.377 61.7168 117.41 56.4668 122.38 55.0202C124.247 54.4602 126.137 54.4602 128.003 55.0435C128.377 55.1602 128.447 55.0668 128.517 54.7402C129.053 52.2435 129.917 51.0768 132.157 49.7468Z" fill="#29353B"/>
<path d="M159.573 40.4601C159.48 40.4601 159.223 40.5068 158.943 40.5068C158.337 40.5068 157.87 40.1101 157.8 39.5501C157.73 38.9901 158.08 38.5001 158.687 38.3601C159.223 38.2434 159.783 38.2201 160.32 38.2668C160.857 38.3368 161.02 38.1268 161.067 37.6134C161.3 34.5801 158.99 31.8968 155.933 31.7334C155.77 31.7334 155.607 31.7334 155.467 31.7101C154.883 31.6168 154.51 31.1034 154.557 30.5434C154.603 29.9601 155.07 29.5401 155.723 29.5634C157.777 29.6101 159.573 30.3334 161.02 31.8034C162.77 33.6001 163.517 35.7468 163.143 38.2668C163.097 38.6634 163.19 38.8034 163.54 38.9434C169.607 41.4401 171.66 48.5334 167.81 53.8768C167.577 54.2034 167.553 54.3434 167.927 54.5768C168.813 55.1134 169.513 55.8601 169.98 56.7934C170.19 57.1901 170.377 57.1901 170.773 57.0968C175.907 55.5801 180.853 59.4301 180.62 64.7734C180.597 65.4501 180.457 66.1268 180.223 66.7568C179.99 67.4101 179.453 67.7368 178.87 67.5734C178.263 67.3868 177.937 66.8034 178.17 66.1034C179.057 63.3268 177.727 60.7601 175.743 59.6401C174.343 58.8468 172.85 58.6834 171.287 59.1734C170.937 59.2901 170.797 59.4534 170.82 59.8501C170.867 60.7134 170.703 61.5534 170.377 62.3701C170.097 63.1168 169.513 63.4201 168.907 63.1868C168.277 62.9301 168.09 62.3934 168.347 61.6001C169.14 59.2201 168.137 56.8634 165.943 55.9768C164.847 55.5334 163.75 55.5568 162.63 55.9768C161.883 56.2568 161.23 55.8834 161.113 55.2068C161.02 54.6001 161.277 54.2034 161.837 53.9701C162.723 53.6201 163.657 53.4101 164.613 53.5034C165.08 53.5501 165.383 53.4101 165.663 53.0601C167.693 50.5634 168.137 47.8101 166.83 44.8701C165.617 42.0468 162.863 40.3901 159.573 40.4601Z" fill="#29353B"/>
<path d="M121.867 2.38086C122.263 2.38086 122.497 2.54419 122.73 2.73086C125.553 5.08753 128.4 7.42086 131.247 9.77753C131.83 10.2675 131.923 10.9442 131.503 11.4342C131.083 11.9009 130.43 11.9242 129.87 11.4575C127 9.10086 124.13 6.72086 121.283 4.36419C120.887 4.03753 120.7 3.61753 120.887 3.10419C121.073 2.61419 121.423 2.38086 121.867 2.38086Z" fill="#29353B"/>
<path d="M170.657 23.5434C170.027 23.4967 169.63 23.2167 169.537 22.6567C169.42 22.0734 169.7 21.6534 170.237 21.4201C171.73 20.7667 173.223 20.1367 174.717 19.5067C176.093 18.9234 177.447 18.3401 178.823 17.7567C179.547 17.4534 180.177 17.6634 180.433 18.2701C180.69 18.8767 180.41 19.4601 179.663 19.7634C176.84 20.9767 174.017 22.1667 171.17 23.3567C171.007 23.4501 170.797 23.4967 170.657 23.5434Z" fill="#29353B"/>
<path d="M132.67 25.1308C132.647 25.9474 131.9 26.3908 131.06 26.0641C129.567 25.4574 128.097 24.8274 126.627 24.1974C125.343 23.6608 124.06 23.1008 122.753 22.5408C122.007 22.2141 121.727 21.6541 121.983 21.0474C122.263 20.4408 122.847 20.2308 123.57 20.5341C126.323 21.7008 129.053 22.8674 131.807 24.0108C132.32 24.2208 132.67 24.5241 132.67 25.1308Z" fill="#29353B"/>
<path d="M161.183 16.6607C160.74 16.6374 160.413 16.4274 160.227 16.0307C160.017 15.5874 160.11 15.1674 160.413 14.8407C160.833 14.3974 161.3 14.0007 161.743 13.5807C163.423 11.9707 165.127 10.384 166.807 8.77403C167.437 8.16737 168.043 8.1207 168.533 8.6107C169.023 9.1007 168.93 9.77737 168.277 10.384C166.223 12.3207 164.17 14.2807 162.117 16.2174C161.883 16.4507 161.603 16.684 161.183 16.6607Z" fill="#29353B"/>
<path d="M175.09 3.47819C175.09 3.82819 174.95 4.08486 174.693 4.31819C174.063 4.92486 173.41 5.55486 172.757 6.13819C172.243 6.60486 171.613 6.60486 171.17 6.16152C170.727 5.69486 170.727 5.08819 171.24 4.59819C171.893 3.94486 172.57 3.31486 173.27 2.68486C173.62 2.38152 174.017 2.28819 174.46 2.52152C174.88 2.68486 175.067 3.03486 175.09 3.47819Z" fill="#29353B"/>
<path d="M116.57 17.5938C117.293 17.8504 118.133 18.0838 118.81 18.6204C119.207 18.9238 119.207 19.4137 118.997 19.8571C118.763 20.3004 118.343 20.5571 117.877 20.4171C117.153 20.2304 116.453 19.9504 115.847 19.5304C115.427 19.2737 115.31 18.8071 115.473 18.3404C115.613 17.8737 115.963 17.6171 116.57 17.5938Z" fill="#29353B"/>
<path d="M119.72 36.1675C119.72 36.8675 119.277 37.3808 118.647 37.3808C118.04 37.3808 117.573 36.8908 117.55 36.2375C117.527 35.5375 117.97 35.0241 118.6 35.0008C119.253 34.9775 119.72 35.4675 119.72 36.1675Z" fill="#29353B"/>
<path d="M176.28 36.1908C176.28 35.4908 176.747 34.9774 177.377 35.0008C178.007 35.0008 178.473 35.5141 178.45 36.2141C178.45 36.8674 177.983 37.3808 177.377 37.3808C176.77 37.4041 176.28 36.8908 176.28 36.1908Z" fill="#29353B"/>
<path d="M124.083 42.7232C124.083 43.4232 123.593 43.9365 122.963 43.9132C122.357 43.8899 121.913 43.3999 121.89 42.7465C121.89 42.0465 122.333 41.5332 122.963 41.5332C123.617 41.5332 124.083 42.0232 124.083 42.7232Z" fill="#29353B"/>
<path d="M174.11 42.7945C174.087 43.4478 173.597 43.9378 172.99 43.9145C172.337 43.8911 171.893 43.3311 171.94 42.6078C171.987 41.9545 172.477 41.4878 173.083 41.5345C173.713 41.5811 174.157 42.0945 174.11 42.7945Z" fill="#29353B"/>
<path d="M119.72 49.2805C119.696 49.9805 119.206 50.4705 118.576 50.4472C117.97 50.4238 117.55 49.9105 117.55 49.2572C117.55 48.5572 118.016 48.0438 118.646 48.0672C119.3 48.0672 119.743 48.5805 119.72 49.2805Z" fill="#29353B"/>
<path d="M176.28 49.2349C176.28 48.5349 176.747 48.0449 177.4 48.0449C178.007 48.0683 178.45 48.5349 178.473 49.2116C178.473 49.9116 178.03 50.4249 177.4 50.4483C176.747 50.4483 176.28 49.9349 176.28 49.2349Z" fill="#29353B"/>
<path d="M148.117 17.5938C147.417 17.5938 146.903 17.1272 146.927 16.4972C146.95 15.8672 147.44 15.4238 148.163 15.4238C148.84 15.4472 149.307 15.8905 149.33 16.4972C149.33 17.1272 148.817 17.5938 148.117 17.5938Z" fill="#29353B"/>
<path d="M30.2209 102V92.176H26.9089V90.8H35.2129V92.176H31.9169V102H30.2209ZM35.8923 102V94.064H37.4123L37.5563 95.568C37.8336 95.0453 38.2176 94.6347 38.7083 94.336C39.2096 94.0267 39.8123 93.872 40.5163 93.872V95.648H40.0523C39.583 95.648 39.1616 95.728 38.7883 95.888C38.4256 96.0373 38.1323 96.2987 37.9083 96.672C37.695 97.0347 37.5883 97.5413 37.5883 98.192V102H35.8923ZM44.6584 102.192C43.9864 102.192 43.4318 102.08 42.9944 101.856C42.5571 101.632 42.2318 101.339 42.0184 100.976C41.8051 100.603 41.6984 100.197 41.6984 99.76C41.6984 98.992 41.9971 98.384 42.5944 97.936C43.1918 97.488 44.0451 97.264 45.1544 97.264H47.2344V97.12C47.2344 96.5013 47.0638 96.0373 46.7224 95.728C46.3918 95.4187 45.9598 95.264 45.4264 95.264C44.9571 95.264 44.5464 95.3813 44.1944 95.616C43.8531 95.84 43.6451 96.176 43.5704 96.624H41.8744C41.9278 96.048 42.1198 95.5573 42.4504 95.152C42.7918 94.736 43.2184 94.4213 43.7304 94.208C44.2531 93.984 44.8238 93.872 45.4424 93.872C46.5518 93.872 47.4104 94.1653 48.0184 94.752C48.6264 95.328 48.9304 96.1173 48.9304 97.12V102H47.4584L47.3144 100.64C47.0904 101.077 46.7651 101.445 46.3384 101.744C45.9118 102.043 45.3518 102.192 44.6584 102.192ZM44.9944 100.816C45.4531 100.816 45.8371 100.709 46.1464 100.496C46.4664 100.272 46.7118 99.9787 46.8824 99.616C47.0638 99.2533 47.1758 98.8533 47.2184 98.416H45.3304C44.6584 98.416 44.1784 98.5333 43.8904 98.768C43.6131 99.0027 43.4744 99.296 43.4744 99.648C43.4744 100.011 43.6078 100.299 43.8744 100.512C44.1518 100.715 44.5251 100.816 44.9944 100.816ZM50.9079 102V94.064H52.4119L52.5399 95.456C52.7853 94.9653 53.1426 94.5813 53.6119 94.304C54.0919 94.016 54.6413 93.872 55.2599 93.872C56.2199 93.872 56.9719 94.1707 57.5159 94.768C58.0706 95.3653 58.3479 96.256 58.3479 97.44V102H56.6679V97.616C56.6679 96.08 56.0386 95.312 54.7799 95.312C54.1506 95.312 53.6279 95.536 53.2119 95.984C52.8066 96.432 52.6039 97.072 52.6039 97.904V102H50.9079ZM63.5134 102.192C62.5108 102.192 61.6841 101.947 61.0334 101.456C60.3828 100.965 60.0094 100.315 59.9134 99.504H61.6254C61.7108 99.8667 61.9134 100.181 62.2334 100.448C62.5534 100.704 62.9748 100.832 63.4974 100.832C64.0094 100.832 64.3828 100.725 64.6174 100.512C64.8521 100.299 64.9694 100.053 64.9694 99.776C64.9694 99.3707 64.8041 99.0987 64.4734 98.96C64.1534 98.8107 63.7054 98.6773 63.1294 98.56C62.6814 98.464 62.2334 98.336 61.7854 98.176C61.3481 98.016 60.9801 97.792 60.6814 97.504C60.3934 97.2053 60.2494 96.8053 60.2494 96.304C60.2494 95.6107 60.5161 95.0347 61.0494 94.576C61.5828 94.1067 62.3294 93.872 63.2894 93.872C64.1748 93.872 64.8894 94.0853 65.4334 94.512C65.9881 94.9387 66.3134 95.5413 66.4094 96.32H64.7774C64.7241 95.9787 64.5641 95.712 64.2974 95.52C64.0414 95.328 63.6948 95.232 63.2574 95.232C62.8308 95.232 62.5001 95.3227 62.2654 95.504C62.0308 95.6747 61.9134 95.8987 61.9134 96.176C61.9134 96.4533 62.0734 96.672 62.3934 96.832C62.7241 96.992 63.1561 97.136 63.6894 97.264C64.2228 97.3813 64.7134 97.52 65.1614 97.68C65.6201 97.8293 65.9881 98.0533 66.2654 98.352C66.5428 98.6507 66.6814 99.088 66.6814 99.664C66.6921 100.389 66.4094 100.992 65.8334 101.472C65.2681 101.952 64.4948 102.192 63.5134 102.192ZM68.9329 102V95.488H67.7969V94.064H68.9329V92.912C68.9329 92.048 69.1463 91.4293 69.5729 91.056C70.0103 90.672 70.6236 90.48 71.4129 90.48H72.2449V91.92H71.6689C71.2956 91.92 71.0289 92 70.8689 92.16C70.7089 92.3093 70.6289 92.5653 70.6289 92.928V94.064H72.4529V95.488H70.6289V102H68.9329ZM77.4637 102.192C76.7064 102.192 76.0237 102.021 75.4157 101.68C74.8184 101.328 74.3437 100.843 73.9917 100.224C73.6397 99.5947 73.4637 98.864 73.4637 98.032C73.4637 97.2 73.6397 96.4747 73.9917 95.856C74.3544 95.2267 74.8397 94.7413 75.4477 94.4C76.0557 94.048 76.733 93.872 77.4797 93.872C78.237 93.872 78.9144 94.048 79.5117 94.4C80.1197 94.7413 80.5997 95.2267 80.9517 95.856C81.3144 96.4747 81.4957 97.2 81.4957 98.032C81.4957 98.864 81.3144 99.5947 80.9517 100.224C80.5997 100.843 80.1197 101.328 79.5117 101.68C78.9037 102.021 78.221 102.192 77.4637 102.192ZM77.4637 100.736C77.869 100.736 78.2424 100.635 78.5837 100.432C78.9357 100.229 79.2184 99.9307 79.4317 99.536C79.645 99.1307 79.7517 98.6293 79.7517 98.032C79.7517 97.4347 79.645 96.9387 79.4317 96.544C79.229 96.1387 78.9517 95.8347 78.5997 95.632C78.2584 95.4293 77.885 95.328 77.4797 95.328C77.0744 95.328 76.6957 95.4293 76.3437 95.632C76.0024 95.8347 75.725 96.1387 75.5117 96.544C75.2984 96.9387 75.1917 97.4347 75.1917 98.032C75.1917 98.6293 75.2984 99.1307 75.5117 99.536C75.725 99.9307 76.0024 100.229 76.3437 100.432C76.685 100.635 77.0584 100.736 77.4637 100.736ZM83.3298 102V94.064H84.8498L84.9938 95.568C85.2711 95.0453 85.6551 94.6347 86.1458 94.336C86.6471 94.0267 87.2498 93.872 87.9538 93.872V95.648H87.4898C87.0205 95.648 86.5991 95.728 86.2258 95.888C85.8631 96.0373 85.5698 96.2987 85.3458 96.672C85.1325 97.0347 85.0258 97.5413 85.0258 98.192V102H83.3298ZM89.4079 102V94.064H90.9119L91.0559 95.184C91.3119 94.7787 91.6479 94.4587 92.0639 94.224C92.4906 93.9893 92.9813 93.872 93.5359 93.872C94.7946 93.872 95.6693 94.368 96.1599 95.36C96.4479 94.9013 96.8319 94.5387 97.3119 94.272C97.8026 94.0053 98.3306 93.872 98.8959 93.872C99.8879 93.872 100.667 94.1707 101.232 94.768C101.797 95.3653 102.08 96.256 102.08 97.44V102H100.384V97.616C100.384 96.08 99.7973 95.312 98.6239 95.312C98.0266 95.312 97.5359 95.536 97.1519 95.984C96.7786 96.432 96.5919 97.072 96.5919 97.904V102H94.8959V97.616C94.8959 96.08 94.3039 95.312 93.1199 95.312C92.5333 95.312 92.0479 95.536 91.6639 95.984C91.2906 96.432 91.1039 97.072 91.1039 97.904V102H89.4079ZM109.023 105.52L110.927 101.344H110.463L107.327 94.064H109.167L111.599 99.936L114.143 94.064H115.935L110.815 105.52H109.023ZM120.323 102.192C119.566 102.192 118.883 102.021 118.275 101.68C117.678 101.328 117.203 100.843 116.851 100.224C116.499 99.5947 116.323 98.864 116.323 98.032C116.323 97.2 116.499 96.4747 116.851 95.856C117.214 95.2267 117.699 94.7413 118.307 94.4C118.915 94.048 119.592 93.872 120.339 93.872C121.096 93.872 121.774 94.048 122.371 94.4C122.979 94.7413 123.459 95.2267 123.811 95.856C124.174 96.4747 124.355 97.2 124.355 98.032C124.355 98.864 124.174 99.5947 123.811 100.224C123.459 100.843 122.979 101.328 122.371 101.68C121.763 102.021 121.08 102.192 120.323 102.192ZM120.323 100.736C120.728 100.736 121.102 100.635 121.443 100.432C121.795 100.229 122.078 99.9307 122.291 99.536C122.504 99.1307 122.611 98.6293 122.611 98.032C122.611 97.4347 122.504 96.9387 122.291 96.544C122.088 96.1387 121.811 95.8347 121.459 95.632C121.118 95.4293 120.744 95.328 120.339 95.328C119.934 95.328 119.555 95.4293 119.203 95.632C118.862 95.8347 118.584 96.1387 118.371 96.544C118.158 96.9387 118.051 97.4347 118.051 98.032C118.051 98.6293 118.158 99.1307 118.371 99.536C118.584 99.9307 118.862 100.229 119.203 100.432C119.544 100.635 119.918 100.736 120.323 100.736ZM129.117 102.192C128.157 102.192 127.4 101.893 126.845 101.296C126.301 100.699 126.029 99.808 126.029 98.624V94.064H127.725V98.448C127.725 99.984 128.355 100.752 129.613 100.752C130.243 100.752 130.76 100.528 131.165 100.08C131.571 99.632 131.773 98.992 131.773 98.16V94.064H133.469V102H131.965L131.837 100.608C131.592 101.099 131.229 101.488 130.749 101.776C130.28 102.053 129.736 102.192 129.117 102.192ZM135.627 102V94.064H137.147L137.291 95.568C137.568 95.0453 137.952 94.6347 138.443 94.336C138.944 94.0267 139.547 93.872 140.251 93.872V95.648H139.787C139.317 95.648 138.896 95.728 138.523 95.888C138.16 96.0373 137.867 96.2987 137.643 96.672C137.429 97.0347 137.323 97.5413 137.323 98.192V102H135.627ZM146.696 92.56C146.376 92.56 146.109 92.464 145.896 92.272C145.693 92.0693 145.592 91.8187 145.592 91.52C145.592 91.2213 145.693 90.976 145.896 90.784C146.109 90.5813 146.376 90.48 146.696 90.48C147.016 90.48 147.277 90.5813 147.48 90.784C147.693 90.976 147.8 91.2213 147.8 91.52C147.8 91.8187 147.693 92.0693 147.48 92.272C147.277 92.464 147.016 92.56 146.696 92.56ZM145.848 102V94.064H147.544V102H145.848ZM153.399 102.192C152.631 102.192 151.954 102.011 151.367 101.648C150.78 101.285 150.322 100.789 149.991 100.16C149.66 99.5307 149.495 98.816 149.495 98.016C149.495 97.216 149.66 96.5067 149.991 95.888C150.322 95.2587 150.78 94.768 151.367 94.416C151.964 94.0533 152.647 93.872 153.415 93.872C154.044 93.872 154.594 93.9947 155.063 94.24C155.543 94.4853 155.916 94.832 156.183 95.28V90.48H157.879V102H156.359L156.183 100.768C155.927 101.141 155.575 101.472 155.127 101.76C154.679 102.048 154.103 102.192 153.399 102.192ZM153.703 100.72C154.428 100.72 155.02 100.469 155.479 99.968C155.948 99.4667 156.183 98.8213 156.183 98.032C156.183 97.232 155.948 96.5867 155.479 96.096C155.02 95.5947 154.428 95.344 153.703 95.344C152.978 95.344 152.38 95.5947 151.911 96.096C151.442 96.5867 151.207 97.232 151.207 98.032C151.207 98.5547 151.314 99.0187 151.527 99.424C151.74 99.8293 152.034 100.149 152.407 100.384C152.791 100.608 153.223 100.72 153.703 100.72ZM163.729 102.192C162.951 102.192 162.257 102.021 161.649 101.68C161.052 101.328 160.583 100.843 160.241 100.224C159.9 99.6053 159.729 98.8853 159.729 98.064C159.729 97.232 159.895 96.5013 160.225 95.872C160.567 95.2427 161.036 94.752 161.633 94.4C162.241 94.048 162.945 93.872 163.745 93.872C164.524 93.872 165.201 94.048 165.777 94.4C166.353 94.7413 166.801 95.2 167.121 95.776C167.441 96.352 167.601 96.9867 167.601 97.68C167.601 97.7867 167.596 97.904 167.585 98.032C167.585 98.1493 167.58 98.2827 167.569 98.432H161.393C161.447 99.2 161.697 99.7867 162.145 100.192C162.604 100.587 163.132 100.784 163.729 100.784C164.209 100.784 164.609 100.677 164.929 100.464C165.26 100.24 165.505 99.9413 165.665 99.568H167.361C167.148 100.315 166.721 100.939 166.081 101.44C165.452 101.941 164.668 102.192 163.729 102.192ZM163.729 95.264C163.164 95.264 162.663 95.4347 162.225 95.776C161.788 96.1067 161.521 96.608 161.425 97.28H165.905C165.873 96.6613 165.655 96.1707 165.249 95.808C164.844 95.4453 164.337 95.264 163.729 95.264ZM172.049 102.192C171.377 102.192 170.822 102.08 170.385 101.856C169.948 101.632 169.622 101.339 169.409 100.976C169.196 100.603 169.089 100.197 169.089 99.76C169.089 98.992 169.388 98.384 169.985 97.936C170.582 97.488 171.436 97.264 172.545 97.264H174.625V97.12C174.625 96.5013 174.454 96.0373 174.113 95.728C173.782 95.4187 173.35 95.264 172.817 95.264C172.348 95.264 171.937 95.3813 171.585 95.616C171.244 95.84 171.036 96.176 170.961 96.624H169.265C169.318 96.048 169.51 95.5573 169.841 95.152C170.182 94.736 170.609 94.4213 171.121 94.208C171.644 93.984 172.214 93.872 172.833 93.872C173.942 93.872 174.801 94.1653 175.409 94.752C176.017 95.328 176.321 96.1173 176.321 97.12V102H174.849L174.705 100.64C174.481 101.077 174.156 101.445 173.729 101.744C173.302 102.043 172.742 102.192 172.049 102.192ZM172.385 100.816C172.844 100.816 173.228 100.709 173.537 100.496C173.857 100.272 174.102 99.9787 174.273 99.616C174.454 99.2533 174.566 98.8533 174.609 98.416H172.721C172.049 98.416 171.569 98.5333 171.281 98.768C171.004 99.0027 170.865 99.296 170.865 99.648C170.865 100.011 170.998 100.299 171.265 100.512C171.542 100.715 171.916 100.816 172.385 100.816ZM181.467 102.192C180.464 102.192 179.637 101.947 178.987 101.456C178.336 100.965 177.963 100.315 177.867 99.504H179.579C179.664 99.8667 179.867 100.181 180.187 100.448C180.507 100.704 180.928 100.832 181.451 100.832C181.963 100.832 182.336 100.725 182.571 100.512C182.805 100.299 182.923 100.053 182.923 99.776C182.923 99.3707 182.757 99.0987 182.427 98.96C182.107 98.8107 181.659 98.6773 181.083 98.56C180.635 98.464 180.187 98.336 179.739 98.176C179.301 98.016 178.933 97.792 178.635 97.504C178.347 97.2053 178.203 96.8053 178.203 96.304C178.203 95.6107 178.469 95.0347 179.003 94.576C179.536 94.1067 180.283 93.872 181.243 93.872C182.128 93.872 182.843 94.0853 183.387 94.512C183.941 94.9387 184.267 95.5413 184.363 96.32H182.731C182.677 95.9787 182.517 95.712 182.251 95.52C181.995 95.328 181.648 95.232 181.211 95.232C180.784 95.232 180.453 95.3227 180.219 95.504C179.984 95.6747 179.867 95.8987 179.867 96.176C179.867 96.4533 180.027 96.672 180.347 96.832C180.677 96.992 181.109 97.136 181.643 97.264C182.176 97.3813 182.667 97.52 183.115 97.68C183.573 97.8293 183.941 98.0533 184.219 98.352C184.496 98.6507 184.635 99.088 184.635 99.664C184.645 100.389 184.363 100.992 183.787 101.472C183.221 101.952 182.448 102.192 181.467 102.192ZM191.477 92.56C191.157 92.56 190.891 92.464 190.677 92.272C190.475 92.0693 190.373 91.8187 190.373 91.52C190.373 91.2213 190.475 90.976 190.677 90.784C190.891 90.5813 191.157 90.48 191.477 90.48C191.797 90.48 192.059 90.5813 192.261 90.784C192.475 90.976 192.581 91.2213 192.581 91.52C192.581 91.8187 192.475 92.0693 192.261 92.272C192.059 92.464 191.797 92.56 191.477 92.56ZM190.629 102V94.064H192.325V102H190.629ZM194.564 102V94.064H196.068L196.196 95.456C196.442 94.9653 196.799 94.5813 197.268 94.304C197.748 94.016 198.298 93.872 198.916 93.872C199.876 93.872 200.628 94.1707 201.172 94.768C201.727 95.3653 202.004 96.256 202.004 97.44V102H200.324V97.616C200.324 96.08 199.695 95.312 198.436 95.312C197.807 95.312 197.284 95.536 196.868 95.984C196.463 96.432 196.26 97.072 196.26 97.904V102H194.564ZM207.33 102C206.551 102 205.932 101.813 205.474 101.44C205.015 101.056 204.786 100.379 204.786 99.408V95.488H203.426V94.064H204.786L204.994 92.048H206.482V94.064H208.722V95.488H206.482V99.408C206.482 99.8453 206.572 100.149 206.754 100.32C206.946 100.48 207.271 100.56 207.73 100.56H208.642V102H207.33ZM213.979 102.192C213.222 102.192 212.539 102.021 211.931 101.68C211.334 101.328 210.859 100.843 210.507 100.224C210.155 99.5947 209.979 98.864 209.979 98.032C209.979 97.2 210.155 96.4747 210.507 95.856C210.87 95.2267 211.355 94.7413 211.963 94.4C212.571 94.048 213.249 93.872 213.995 93.872C214.753 93.872 215.43 94.048 216.027 94.4C216.635 94.7413 217.115 95.2267 217.467 95.856C217.83 96.4747 218.011 97.2 218.011 98.032C218.011 98.864 217.83 99.5947 217.467 100.224C217.115 100.843 216.635 101.328 216.027 101.68C215.419 102.021 214.737 102.192 213.979 102.192ZM213.979 100.736C214.385 100.736 214.758 100.635 215.099 100.432C215.451 100.229 215.734 99.9307 215.947 99.536C216.161 99.1307 216.267 98.6293 216.267 98.032C216.267 97.4347 216.161 96.9387 215.947 96.544C215.745 96.1387 215.467 95.8347 215.115 95.632C214.774 95.4293 214.401 95.328 213.995 95.328C213.59 95.328 213.211 95.4293 212.859 95.632C212.518 95.8347 212.241 96.1387 212.027 96.544C211.814 96.9387 211.707 97.4347 211.707 98.032C211.707 98.6293 211.814 99.1307 212.027 99.536C212.241 99.9307 212.518 100.229 212.859 100.432C213.201 100.635 213.574 100.736 213.979 100.736ZM223.877 102V94.064H225.397L225.541 95.568C225.818 95.0453 226.202 94.6347 226.693 94.336C227.194 94.0267 227.797 93.872 228.501 93.872V95.648H228.037C227.567 95.648 227.146 95.728 226.773 95.888C226.41 96.0373 226.117 96.2987 225.893 96.672C225.679 97.0347 225.573 97.5413 225.573 98.192V102H223.877ZM233.448 102.192C232.669 102.192 231.976 102.021 231.368 101.68C230.771 101.328 230.301 100.843 229.96 100.224C229.619 99.6053 229.448 98.8853 229.448 98.064C229.448 97.232 229.613 96.5013 229.944 95.872C230.285 95.2427 230.755 94.752 231.352 94.4C231.96 94.048 232.664 93.872 233.464 93.872C234.243 93.872 234.92 94.048 235.496 94.4C236.072 94.7413 236.52 95.2 236.84 95.776C237.16 96.352 237.32 96.9867 237.32 97.68C237.32 97.7867 237.315 97.904 237.304 98.032C237.304 98.1493 237.299 98.2827 237.288 98.432H231.112C231.165 99.2 231.416 99.7867 231.864 100.192C232.323 100.587 232.851 100.784 233.448 100.784C233.928 100.784 234.328 100.677 234.648 100.464C234.979 100.24 235.224 99.9413 235.384 99.568H237.08C236.867 100.315 236.44 100.939 235.8 101.44C235.171 101.941 234.387 102.192 233.448 102.192ZM233.448 95.264C232.883 95.264 232.381 95.4347 231.944 95.776C231.507 96.1067 231.24 96.608 231.144 97.28H235.624C235.592 96.6613 235.373 96.1707 234.968 95.808C234.563 95.4453 234.056 95.264 233.448 95.264ZM241.768 102.192C241.096 102.192 240.541 102.08 240.104 101.856C239.666 101.632 239.341 101.339 239.128 100.976C238.914 100.603 238.808 100.197 238.808 99.76C238.808 98.992 239.106 98.384 239.704 97.936C240.301 97.488 241.154 97.264 242.264 97.264H244.344V97.12C244.344 96.5013 244.173 96.0373 243.832 95.728C243.501 95.4187 243.069 95.264 242.536 95.264C242.066 95.264 241.656 95.3813 241.304 95.616C240.962 95.84 240.754 96.176 240.68 96.624H238.984C239.037 96.048 239.229 95.5573 239.56 95.152C239.901 94.736 240.328 94.4213 240.84 94.208C241.362 93.984 241.933 93.872 242.552 93.872C243.661 93.872 244.52 94.1653 245.128 94.752C245.736 95.328 246.04 96.1173 246.04 97.12V102H244.568L244.424 100.64C244.2 101.077 243.874 101.445 243.448 101.744C243.021 102.043 242.461 102.192 241.768 102.192ZM242.104 100.816C242.562 100.816 242.946 100.709 243.256 100.496C243.576 100.272 243.821 99.9787 243.992 99.616C244.173 99.2533 244.285 98.8533 244.328 98.416H242.44C241.768 98.416 241.288 98.5333 241 98.768C240.722 99.0027 240.584 99.296 240.584 99.648C240.584 100.011 240.717 100.299 240.984 100.512C241.261 100.715 241.634 100.816 242.104 100.816ZM248.017 102V90.48H249.713V102H248.017ZM252.821 92.56C252.501 92.56 252.234 92.464 252.021 92.272C251.818 92.0693 251.717 91.8187 251.717 91.52C251.717 91.2213 251.818 90.976 252.021 90.784C252.234 90.5813 252.501 90.48 252.821 90.48C253.141 90.48 253.402 90.5813 253.605 90.784C253.818 90.976 253.925 91.2213 253.925 91.52C253.925 91.8187 253.818 92.0693 253.605 92.272C253.402 92.464 253.141 92.56 252.821 92.56ZM251.973 102V94.064H253.669V102H251.973ZM259.236 102C258.457 102 257.839 101.813 257.38 101.44C256.921 101.056 256.692 100.379 256.692 99.408V95.488H255.332V94.064H256.692L256.9 92.048H258.388V94.064H260.628V95.488H258.388V99.408C258.388 99.8453 258.479 100.149 258.66 100.32C258.852 100.48 259.177 100.56 259.636 100.56H260.548V102H259.236ZM263.305 105.52L265.209 101.344H264.745L261.609 94.064H263.449L265.881 99.936L268.425 94.064H270.217L265.097 105.52H263.305Z" fill="black"/>
</svg>
