<svg width="12" height="15" viewBox="0 0 12 15" fill="none" xmlns="http://www.w3.org/2000/svg">
<path d="M6.21584 14.5889L11.4042 9.66412C11.6394 9.44084 11.6394 9.07786 11.4042 8.85458C11.169 8.6313 10.7867 8.6313 10.5515 8.85458L6.39313 12.8027L6.39313 0.572519C6.39313 0.256488 6.12298 -2.38559e-07 5.79011 -2.53109e-07C5.45725 -2.67659e-07 5.1871 0.256488 5.1871 0.572519L5.1871 12.8027L1.02871 8.85458C0.793531 8.6313 0.41122 8.6313 0.176044 8.85458C0.0578533 8.96679 -3.6638e-05 9.11336 -3.66444e-05 9.25992C-3.66508e-05 9.40649 0.0590587 9.55305 0.176044 9.66527L5.36318 14.5901C5.59956 14.8134 5.98067 14.8134 6.21584 14.5889Z" fill="white"/>
</svg>
