<svg width="80" height="80" viewBox="0 0 80 80" fill="none" xmlns="http://www.w3.org/2000/svg">
<g opacity="0.4">
<path d="M4.16702 52.2754C4.65123 52.2754 5.14246 52.3877 5.6393 52.6122C6.13614 52.8368 6.54877 53.1385 6.88 53.5161V52.5056H9.13123V61.46H6.88V59.9526C6.62035 60.4368 6.2414 60.8536 5.74596 61.2031C5.24912 61.5512 4.67088 61.7266 4.00842 61.7266C3.28702 61.7266 2.62175 61.5428 2.01404 61.1764C1.40491 60.8101 0.917895 60.2782 0.551579 59.5807C0.18386 58.8831 0 58.0368 0 57.0445C0 56.0522 0.186667 55.2003 0.558596 54.4915C0.930526 53.7828 1.43298 53.2354 2.06596 52.8508C2.69754 52.4677 3.39789 52.2754 4.16702 52.2754ZM4.62737 54.4733C4.15439 54.4733 3.75018 54.5954 3.41333 54.8368C3.07649 55.0796 2.81263 55.3954 2.62456 55.7856C2.43509 56.1757 2.34105 56.5954 2.34105 57.0445C2.34105 57.7182 2.54456 58.2922 2.95298 58.7652C3.3614 59.2382 3.90175 59.474 4.57544 59.474C4.97684 59.474 5.35298 59.3673 5.70105 59.1554C6.04912 58.9421 6.33404 58.6445 6.55158 58.2599C6.77053 57.8754 6.88 57.4122 6.88 56.8677V55.5905C6.5614 55.248 6.21474 54.9757 5.84281 54.775C5.46947 54.5743 5.06526 54.4733 4.62737 54.4733Z" fill="white"/>
<path d="M14.1487 48.6934V61.4597H11.8975V48.6934H14.1487Z" fill="white"/>
<path d="M22.1459 52.5063V54.3856H19.8231V61.4607H17.5719V54.3856H16.2063V52.5063H17.5719V51.7077C17.5719 51.0228 17.7165 50.4348 18.007 49.9435C18.2961 49.4537 18.6779 49.0776 19.1509 48.8179C19.6238 48.5583 20.1431 48.4277 20.7116 48.4277C21.0891 48.4277 21.4203 48.4698 21.7038 48.5512C21.9874 48.6341 22.2358 48.7463 22.4491 48.8881V50.7674C22.0589 50.5316 21.6098 50.4193 21.1017 50.4305C20.7467 50.4432 20.4463 50.5583 20.1979 50.7758C19.9495 50.9948 19.8259 51.3527 19.8259 51.8481V52.5035H22.1459V52.5063Z" fill="white"/>
<path d="M27.5538 52.2754C28.038 52.2754 28.5292 52.3877 29.0261 52.6122C29.5229 52.8368 29.9356 53.1385 30.2668 53.5161V52.5056H32.518V61.46H30.2668V59.9526C30.0071 60.4368 29.6282 60.8536 29.1327 61.2031C28.6359 61.5512 28.0577 61.7266 27.3952 61.7266C26.6738 61.7266 26.0085 61.5428 25.4008 61.1764C24.7917 60.8101 24.3047 60.2782 23.9384 59.5807C23.572 58.8831 23.3882 58.0382 23.3882 57.0445C23.3882 56.0522 23.5748 55.2003 23.9468 54.4915C24.3187 53.7828 24.8212 53.2354 25.4541 52.8508C26.0843 52.4677 26.7847 52.2754 27.5538 52.2754ZM28.0141 54.4733C27.5412 54.4733 27.137 54.5954 26.8001 54.8368C26.4633 55.0796 26.1994 55.3954 26.0113 55.7856C25.8219 56.1757 25.7278 56.5954 25.7278 57.0445C25.7278 57.7182 25.9313 58.2922 26.3398 58.7652C26.7482 59.2382 27.2885 59.474 27.9622 59.474C28.3636 59.474 28.7398 59.3673 29.0878 59.1554C29.4359 58.9435 29.7208 58.6445 29.9384 58.2599C30.1573 57.8754 30.2668 57.4122 30.2668 56.8677V55.5905C29.9482 55.248 29.6015 54.9757 29.2296 54.775C28.8563 54.5743 28.452 54.4733 28.0141 54.4733Z" fill="white"/>
<path d="M40.4084 52.2754C41.1172 52.2754 41.7768 52.4564 42.3859 52.8157C42.9951 53.1764 43.4849 53.7028 43.8582 54.3933C44.2301 55.0852 44.4168 55.9273 44.4168 56.9196C44.4168 57.9119 44.2301 58.7694 43.8582 59.4908C43.4863 60.2122 42.9838 60.7652 42.3508 61.1484C41.7179 61.5329 41.0175 61.7252 40.2498 61.7252C39.753 61.7252 39.2589 61.6031 38.7691 61.3617C38.2779 61.1189 37.868 60.8157 37.5368 60.448V65.714H35.2842V52.5056H37.5368V54.0129C37.7965 53.5287 38.1754 53.1175 38.6708 52.7807C39.1663 52.4438 39.7459 52.2754 40.4084 52.2754ZM39.84 54.5266C39.4386 54.5266 39.0596 54.6305 38.7059 54.8368C38.3508 55.0431 38.0645 55.3364 37.8456 55.714C37.6266 56.0929 37.5228 56.5477 37.5354 57.0796V58.3736C37.854 58.7049 38.2007 58.9799 38.5726 59.1989C38.9445 59.4178 39.3501 59.5273 39.7866 59.5273C40.247 59.5273 40.6498 59.4038 40.9923 59.1554C41.3347 58.907 41.6014 58.5856 41.7908 58.1898C41.9803 57.794 42.0744 57.3715 42.0744 56.9224C42.0744 56.2487 41.8708 55.6817 41.4624 55.22C41.0554 54.7568 40.5137 54.5266 39.84 54.5266Z" fill="white"/>
<path d="M50.7271 52.2754C51.6015 52.2754 52.4001 52.4859 53.1201 52.9056C53.8415 53.3252 54.424 53.8922 54.8661 54.608C55.3096 55.3238 55.5313 56.1238 55.5313 57.0108C55.5313 57.8978 55.3096 58.695 54.8661 59.4038C54.4226 60.1126 53.8401 60.6782 53.1201 61.0964C52.3987 61.5161 51.6015 61.7266 50.7271 61.7266C49.864 61.7266 49.0696 61.5161 48.3426 61.0964C47.6156 60.6768 47.0331 60.1126 46.5966 59.4038C46.1601 58.695 45.9412 57.8964 45.9412 57.0108C45.9412 56.1238 46.1601 55.3238 46.5966 54.608C47.0345 53.8936 47.6156 53.3252 48.3426 52.9056C49.0696 52.4845 49.864 52.2754 50.7271 52.2754ZM50.7271 54.455C50.3019 54.455 49.9061 54.5561 49.5398 54.7568C49.1734 54.9575 48.8801 55.248 48.6626 55.6256C48.4436 56.0045 48.3341 56.4649 48.3341 57.008C48.3341 57.5526 48.4436 58.0129 48.6626 58.3905C48.8815 58.7694 49.1734 59.0557 49.5398 59.2508C49.9061 59.4459 50.3019 59.5442 50.7271 59.5442C51.1524 59.5442 51.5482 59.4459 51.9145 59.2508C52.2808 59.0557 52.577 58.7694 52.8015 58.3905C53.0261 58.0129 53.1384 57.5512 53.1384 57.008C53.1384 56.4649 53.0261 56.0031 52.8015 55.6256C52.577 55.248 52.2808 54.9575 51.9145 54.7568C51.5482 54.5561 51.1524 54.455 50.7271 54.455Z" fill="white"/>
<path d="M60.8505 52.5057V61.46H58.5979V54.4214H57.1621V52.5071H60.8505V52.5057ZM59.5397 47.8418C59.9649 47.8418 60.3312 47.992 60.6386 48.2937C60.946 48.5955 61.0989 48.9534 61.0989 49.366C61.0989 49.7688 60.9446 50.1225 60.6386 50.4299C60.3312 50.7372 59.9649 50.8902 59.5397 50.8902C59.1144 50.8902 58.7509 50.7372 58.4491 50.4299C58.1474 50.1225 57.9972 49.7688 57.9972 49.366C57.9972 48.952 58.1474 48.5941 58.4491 48.2937C58.7495 47.9934 59.113 47.8418 59.5397 47.8418Z" fill="white"/>
<path d="M65.9396 52.5056V53.7828C66.2119 53.4164 66.581 53.074 67.0469 52.754C67.5143 52.4354 68.0491 52.2754 68.6512 52.2754C69.5606 52.2754 70.3241 52.5828 70.9389 53.1975C71.5536 53.8122 71.861 54.7343 71.861 55.9638V61.46H69.6098L69.5915 56.2642C69.5915 55.6621 69.4469 55.2129 69.1564 54.9168C68.8673 54.6221 68.4673 54.4733 67.9592 54.4733C67.5578 54.4733 67.1817 54.6038 66.8336 54.8635C66.4855 55.1231 66.1866 55.4305 65.9382 55.7856V61.46H63.6855V52.5056H65.9396Z" fill="white"/>
<path d="M77.4287 49.8984V52.5048H79.9115V54.3841H77.4287V58.2493C77.4287 58.6507 77.52 58.9679 77.7038 59.1981C77.8877 59.4283 78.1614 59.5434 78.5291 59.5434C78.8477 59.5434 79.1228 59.5083 79.353 59.4367C79.5831 59.3665 79.7993 59.2655 80 59.1349V60.9258C79.7754 61.1504 79.4947 61.3398 79.1579 61.4928C78.821 61.6458 78.3986 61.723 77.8905 61.723C77.0863 61.723 76.4337 61.4662 75.9312 60.9511C75.4287 60.4374 75.1775 59.73 75.1775 58.8318V54.3841H73.5635V53.2318C74.1305 53.0311 74.654 52.6521 75.1326 52.0977C75.6112 51.5419 75.9929 50.8093 76.2765 49.8984H77.4287Z" fill="white"/>
<path d="M52.1557 33.6259L49.927 28.5915C49.9242 28.5845 49.9214 28.5788 49.9185 28.5732L41.5157 9.59359C41.3108 9.12903 40.8505 8.83008 40.3438 8.83008C39.8357 8.83008 39.3768 9.12903 39.1719 9.59359L36.2975 16.0862L34.8884 19.2708C34.8884 19.2708 37.294 19.9641 38.9473 16.4371L39.1298 16.0245C39.1312 16.0217 39.1326 16.0189 39.134 16.0146C39.1354 16.0132 39.1354 16.0104 39.1368 16.009L40.3452 13.2792L44.7059 23.1276C43.3585 22.4666 41.8792 22.1101 40.3452 22.1101C36.2329 22.1101 32.5333 24.6546 30.682 28.7641L28.5319 33.6259L27.7361 35.4266H27.7417L27.7613 35.3704C27.7613 35.3704 30.1417 36.0553 31.795 32.5873L32.8715 30.155L33.0259 29.7999C33.0442 29.7592 33.0652 29.7213 33.0849 29.6806L33.2182 29.3789L33.2252 29.3943C34.7003 26.4722 37.3908 24.6729 40.3452 24.6729C43.3726 24.6729 46.1473 26.5774 47.5817 29.6231L49.8133 34.6631C50.0252 35.1417 50.494 35.4266 50.9866 35.4266C51.1592 35.4266 51.3361 35.3915 51.5045 35.3171C52.1501 35.0308 52.442 34.2743 52.1557 33.6259Z" fill="white"/>
</g>
</svg>
