<svg width="25" height="29" viewBox="0 0 25 29" fill="none" xmlns="http://www.w3.org/2000/svg">
<g clip-path="url(#clip0_924_499)">
<path d="M24.0161 0.228479C23.405 -0.102992 22.6595 -0.0714951 22.077 0.307972L0.849571 14.1833C0.217289 14.5972 -0.105642 15.3457 0.0301704 16.0866C0.165983 16.8275 0.734885 17.414 1.4728 17.579L13.0832 20.1678L21.5655 28.462C21.9246 28.8145 22.403 29.0005 22.8889 29.0005C23.1318 29.0005 23.3763 28.954 23.6102 28.858C24.3104 28.57 24.7691 27.8951 24.7751 27.1422L25 1.89184C25.006 1.2004 24.6273 0.55995 24.0161 0.228479Z" fill="#5E86EC"/>
<path d="M24.0161 0.228516L13.0833 20.1678L21.5655 28.4621C21.9246 28.8146 22.403 29.0005 22.8889 29.0005C23.1318 29.0005 23.3763 28.954 23.6102 28.858C24.3104 28.5701 24.7691 27.8951 24.7752 27.1422L25 1.89187C25.0061 1.20043 24.6273 0.559987 24.0161 0.228516Z" fill="#2C67FF"/>
</g>
<defs>
<clipPath id="clip0_924_499">
<rect width="25" height="29" fill="white"/>
</clipPath>
</defs>
</svg>
