<svg width="27" height="36" viewBox="0 0 27 36" fill="none" xmlns="http://www.w3.org/2000/svg">
<g clip-path="url(#clip0_1828_496)">
<path d="M13.3976 0.00392282C20.0715 0.000165305 25.6333 4.79551 26.8204 11.4095C27.2955 14.0563 26.7909 16.5099 25.7377 18.9072C24.4506 21.8366 22.77 24.527 20.9592 27.1369C18.9998 29.9611 16.8897 32.665 14.6671 35.2787C14.5869 35.3727 14.506 35.4674 14.4221 35.5575C13.869 36.1512 13.138 36.1535 12.5981 35.538C11.5206 34.31 10.4916 33.04 9.4877 31.7497C6.97525 28.522 4.58489 25.2071 2.61451 21.5969C1.82238 20.1457 1.13395 18.6465 0.599986 17.0736C-0.33924 14.3088 -0.128889 11.5696 0.907423 8.91149C2.80794 4.03499 6.35229 1.14395 11.3926 0.175266C12.0869 0.0422495 12.7982 -0.0163678 13.3976 0.00392282ZM13.427 2.40422C13.0335 2.38093 12.5554 2.42451 12.0862 2.49891C7.96743 3.15573 4.99162 5.40648 3.28748 9.294C2.34679 11.4395 2.02243 13.6933 2.73733 16.0079C3.36986 18.058 4.34733 19.9413 5.42998 21.7705C7.73943 25.6723 10.4689 29.2584 13.3277 32.7484C13.5212 32.9851 13.6013 32.8702 13.733 32.7108C15.6107 30.4383 17.4141 28.1056 19.0933 25.6753C20.8011 23.2043 22.4022 20.6672 23.6048 17.8904C24.3653 16.1327 24.8441 14.3366 24.5962 12.3714C23.8806 6.70057 19.1256 2.40197 13.427 2.40422Z" fill="#2C67FF"/>
<path d="M17.9865 12.9718C17.9277 15.415 16.1485 17.5094 13.5235 17.5116C10.9434 17.5139 9.07745 15.4743 9.05391 12.9463C9.03037 10.4475 11.089 8.39066 13.5485 8.40043C15.9801 8.41095 17.9916 10.4821 17.9865 12.9718ZM13.5147 10.8007C12.3585 10.8015 11.3935 11.7897 11.395 12.9711C11.3965 14.1246 12.3526 15.1399 13.4992 15.1226C14.8187 15.1031 15.6079 14.0968 15.6314 12.9681C15.6572 11.7882 14.6701 10.8 13.5147 10.8007Z" fill="#2C67FF"/>
</g>
<defs>
<clipPath id="clip0_1828_496">
<rect width="27" height="36" fill="white"/>
</clipPath>
</defs>
</svg>
