<svg width="130" height="30" viewBox="0 0 130 30" fill="none" xmlns="http://www.w3.org/2000/svg">
<g clip-path="url(#clip0_1009_7133)">
<path d="M44.0235 9.91992C44.5673 9.91992 45.1174 10.0485 45.6771 10.2991C46.2337 10.553 46.6975 10.8936 47.0717 11.3177V10.177H49.5985V20.2766H47.0717V18.5767C46.7806 19.123 46.3552 19.5922 45.7987 19.9874C45.2422 20.3794 44.5897 20.5787 43.8476 20.5787C43.0384 20.5787 42.29 20.373 41.6087 19.9585C40.9242 19.544 40.3773 18.9463 39.9679 18.159C39.5553 17.3717 39.3506 16.4174 39.3506 15.2991C39.3506 14.1808 39.5585 13.2201 39.9775 12.4199C40.3965 11.6198 40.9594 11.0028 41.6695 10.569C42.3763 10.1384 43.1632 9.91992 44.0235 9.91992ZM44.5417 12.4006C44.0107 12.4006 43.5566 12.5388 43.1791 12.812C42.8017 13.0851 42.5043 13.4418 42.2932 13.882C42.0821 14.3222 41.9733 14.7946 41.9733 15.3023C41.9733 16.0639 42.2036 16.7098 42.661 17.2432C43.1184 17.7766 43.7261 18.0433 44.4809 18.0433C44.9319 18.0433 45.3541 17.9244 45.7443 17.6834C46.1345 17.4424 46.4544 17.1082 46.7006 16.6744C46.9469 16.2406 47.0685 15.7168 47.0685 15.1031V13.6635C46.7102 13.2779 46.3232 12.9694 45.9042 12.7445C45.4884 12.5131 45.0343 12.4006 44.5417 12.4006Z" fill="white"/>
<path d="M55.2309 5.88086V20.28H52.7041V5.88086H55.2309Z" fill="white"/>
<path d="M64.209 10.1804V12.3012H61.6023V20.28H59.0755V12.3012H57.5435V10.1804H59.0755V9.28062C59.0755 8.5062 59.2386 7.84424 59.5617 7.29154C59.8879 6.73884 60.3133 6.31468 60.8443 6.02226C61.3752 5.72985 61.9573 5.58203 62.597 5.58203C63.0224 5.58203 63.3934 5.63023 63.7101 5.72342C64.0299 5.81661 64.3082 5.94193 64.5449 6.1026V8.22342C64.1067 7.95671 63.6013 7.83139 63.032 7.84424C62.6354 7.8571 62.2964 7.98884 62.0181 8.23306C61.7398 8.48049 61.5991 8.88216 61.5991 9.4445V10.1836H64.209V10.1804Z" fill="white"/>
<path d="M70.2828 9.91992C70.8266 9.91992 71.3767 10.0485 71.9364 10.2991C72.493 10.553 72.9567 10.8936 73.3309 11.3177V10.177H75.8577V20.2766H73.3309V18.5767C73.0399 19.123 72.6145 19.5922 72.058 19.9874C71.5014 20.3794 70.8489 20.5787 70.1069 20.5787C69.2977 20.5787 68.5492 20.373 67.868 19.9585C67.1835 19.544 66.6366 18.9463 66.2272 18.159C65.8146 17.3717 65.6099 16.4174 65.6099 15.2991C65.6099 14.1808 65.8178 13.2201 66.2368 12.4199C66.6558 11.6198 67.2187 11.0028 67.9287 10.569C68.6324 10.1384 69.4192 9.91992 70.2828 9.91992ZM70.7978 12.4006C70.2668 12.4006 69.8126 12.5388 69.4352 12.812C69.0578 13.0851 68.7603 13.4418 68.5493 13.882C68.3382 14.3222 68.2294 14.7946 68.2294 15.3023C68.2294 16.0639 68.4597 16.7098 68.9171 17.2432C69.3745 17.7766 69.9822 18.0433 70.737 18.0433C71.188 18.0433 71.6102 17.9244 72.0004 17.6834C72.3906 17.4424 72.7104 17.1082 72.9567 16.6744C73.203 16.2406 73.3246 15.7168 73.3246 15.1031V13.6635C72.9663 13.2779 72.5793 12.9694 72.1603 12.7445C71.7445 12.5131 71.2903 12.4006 70.7978 12.4006Z" fill="white"/>
<path d="M84.7145 9.91992C85.5109 9.91992 86.2497 10.1224 86.9342 10.5305C87.6187 10.9386 88.1688 11.5298 88.5878 12.3107C89.0068 13.0915 89.2147 14.0395 89.2147 15.1609C89.2147 16.2824 89.0068 17.2464 88.5878 18.0626C88.1688 18.8756 87.6059 19.499 86.8958 19.9328C86.1857 20.3666 85.3989 20.5819 84.5385 20.5819C83.982 20.5819 83.4255 20.4437 82.8753 20.1706C82.3252 19.8974 81.8646 19.5536 81.4904 19.1391V25.0774H78.9636V10.1802H81.4904V11.8801C81.7815 11.3338 82.2069 10.8711 82.7634 10.4887C83.3199 10.1095 83.9724 9.91992 84.7145 9.91992ZM84.078 12.4617C83.627 12.4617 83.2016 12.5774 82.805 12.812C82.4084 13.0465 82.0853 13.3743 81.839 13.8017C81.5928 14.229 81.4776 14.7432 81.4904 15.3409V16.7997C81.8486 17.1725 82.2357 17.4842 82.6547 17.7284C83.0736 17.9758 83.5278 18.0979 84.0172 18.0979C84.5353 18.0979 84.9863 17.9566 85.3701 17.677C85.754 17.3974 86.0546 17.0343 86.2657 16.5877C86.4768 16.141 86.5856 15.6654 86.5856 15.1577C86.5856 14.3994 86.3553 13.7567 85.8979 13.2393C85.4405 12.722 84.8328 12.4617 84.078 12.4617Z" fill="white"/>
<path d="M96.2992 9.91992C97.2811 9.91992 98.1767 10.1577 98.9859 10.6301C99.7951 11.1024 100.448 11.7419 100.947 12.5485C101.446 13.355 101.692 14.258 101.692 15.2573C101.692 16.2567 101.442 17.1564 100.947 17.9566C100.448 18.7567 99.7951 19.3929 98.9859 19.8653C98.1767 20.3377 97.2811 20.5754 96.2992 20.5754C95.3301 20.5754 94.4377 20.3377 93.6221 19.8653C92.8065 19.3929 92.1508 18.7567 91.6614 17.9566C91.1721 17.1564 90.9258 16.2567 90.9258 15.2573C90.9258 14.258 91.1721 13.355 91.6614 12.5485C92.154 11.7419 92.8065 11.1024 93.6221 10.6301C94.4377 10.1577 95.3301 9.91992 96.2992 9.91992ZM96.2992 12.3814C95.8226 12.3814 95.378 12.4938 94.9654 12.722C94.5528 12.9501 94.2266 13.2747 93.9803 13.7021C93.734 14.1294 93.6125 14.65 93.6125 15.2605C93.6125 15.8743 93.734 16.3949 93.9803 16.8222C94.2266 17.2496 94.5528 17.5709 94.9654 17.7927C95.378 18.0112 95.8226 18.1236 96.2992 18.1236C96.7758 18.1236 97.2204 18.0144 97.633 17.7927C98.0456 17.5742 98.375 17.2496 98.6277 16.8222C98.8804 16.3949 99.0051 15.8743 99.0051 15.2605C99.0051 14.6468 98.8804 14.1262 98.6277 13.7021C98.375 13.2747 98.0424 12.9501 97.633 12.722C97.2236 12.4938 96.779 12.3814 96.2992 12.3814Z" fill="white"/>
<path d="M107.667 10.1802V20.2798H105.14V12.3396H103.528V10.1802H107.667ZM106.192 4.91992C106.669 4.91992 107.081 5.09023 107.427 5.43085C107.772 5.77146 107.945 6.17314 107.945 6.64229C107.945 7.09537 107.772 7.49704 107.427 7.84087C107.081 8.18792 106.669 8.36144 106.192 8.36144C105.716 8.36144 105.306 8.18792 104.967 7.84087C104.628 7.49383 104.459 7.09537 104.459 6.64229C104.459 6.17635 104.628 5.77146 104.967 5.43085C105.306 5.09023 105.716 4.91992 106.192 4.91992Z" fill="white"/>
<path d="M113.379 10.1802V11.6198C113.683 11.2053 114.099 10.8197 114.623 10.4598C115.148 10.0999 115.749 9.91992 116.424 9.91992C117.444 9.91992 118.301 10.267 118.992 10.9611C119.683 11.6551 120.029 12.6931 120.029 14.0812V20.2798H117.502L117.483 14.4186C117.483 13.7374 117.32 13.2329 116.996 12.8987C116.67 12.5645 116.222 12.3974 115.653 12.3974C115.202 12.3974 114.78 12.5452 114.39 12.8377C114 13.1301 113.664 13.4771 113.385 13.8788V20.2798H110.859V10.1802H113.379Z" fill="white"/>
<path d="M126.278 7.24023V10.1805H129.064V12.3013H126.278V16.6618C126.278 17.1149 126.381 17.4716 126.585 17.7319C126.79 17.9922 127.1 18.1207 127.51 18.1207C127.868 18.1207 128.175 18.0789 128.434 18.0018C128.693 17.9247 128.936 17.809 129.16 17.6612V19.6824C128.907 19.9362 128.594 20.1483 128.213 20.3219C127.836 20.4954 127.359 20.5821 126.79 20.5821C125.888 20.5821 125.156 20.2929 124.59 19.7113C124.027 19.1297 123.745 18.336 123.745 17.3206V12.3013H121.935V10.9999C122.571 10.7717 123.16 10.3476 123.697 9.72095C124.235 9.09435 124.663 8.26851 124.98 7.24023H126.278Z" fill="white"/>
<path d="M27.4204 27.9692L24.916 22.2911C24.9128 22.2847 24.9096 22.2783 24.9064 22.2686L15.471 0.861183C15.2407 0.337404 14.7257 0 14.1564 0C13.5871 0 13.0721 0.337404 12.8386 0.861183L9.61138 8.18445L8.02814 11.777C8.02814 11.777 10.7276 12.5578 12.5859 8.57969L12.7906 8.11375C12.7906 8.11054 12.7938 8.10733 12.7938 8.10411C12.7938 8.1009 12.797 8.1009 12.797 8.09769L14.1532 5.01928L19.05 16.1279C17.5372 15.3824 15.8772 14.9807 14.1532 14.9807C9.53781 14.9807 5.38301 17.8503 3.30401 22.4871L0.895569 27.9692L0 30H0.00639692L0.0287862 29.9357C0.0287862 29.9357 2.7027 30.7069 4.55781 26.7963L5.76683 24.0521L5.93954 23.6504C5.95873 23.6054 5.98432 23.5604 6.00671 23.5154L6.15704 23.1748L6.16344 23.1909C7.82024 19.894 10.8396 17.8663 14.1564 17.8663C17.5564 17.8663 20.6717 20.0161 22.2805 23.4512L24.7849 29.1356C25.0216 29.6754 25.5493 29.9968 26.1026 29.9968C26.2978 29.9968 26.4961 29.9582 26.6848 29.8715C27.4108 29.5533 27.7403 28.6986 27.4204 27.9692Z" fill="white"/>
</g>
<defs>
<clipPath id="clip0_1009_7133">
<rect width="129.167" height="30" fill="white"/>
</clipPath>
</defs>
</svg>
