<svg width="15" height="12" viewBox="0 0 15 12" fill="none" xmlns="http://www.w3.org/2000/svg">
<path d="M14.5889 5.36472L9.66412 0.176382C9.44084 -0.058794 9.07786 -0.058794 8.85458 0.176382C8.6313 0.411558 8.6313 0.793869 8.85458 1.02905L12.8027 5.18744H0.572519C0.256489 5.18744 0 5.45759 0 5.79045C0 6.12332 0.256489 6.39347 0.572519 6.39347H12.8027L8.85458 10.5519C8.6313 10.787 8.6313 11.1693 8.85458 11.4045C8.96679 11.5227 9.11336 11.5806 9.25992 11.5806C9.40649 11.5806 9.55305 11.5215 9.66527 11.4045L14.5901 6.21739C14.8134 5.981 14.8134 5.5999 14.5889 5.36472Z" fill="#2C67FF"/>
</svg>
