<svg width="131" height="50" viewBox="0 0 131 50" fill="none" xmlns="http://www.w3.org/2000/svg">
<g clip-path="url(#clip0_826_2170)">
<path d="M112.03 37.9128C112.03 34.1092 112.037 30.3044 112.02 26.5008C112.017 26.0408 112.138 25.9071 112.605 25.9082C117.766 25.9249 122.926 25.9227 128.087 25.9093C128.46 25.9082 128.648 26.0363 128.814 26.3548C130.182 28.979 130.596 31.7936 130.495 34.7095C130.23 42.3001 124.481 48.6867 116.964 49.7849C115.504 49.9988 114.041 49.9665 112.577 49.9977C112.129 50.0077 112.018 49.8685 112.021 49.4363C112.037 46.1517 112.03 42.8671 112.03 39.5836C112.03 39.0267 112.03 38.4697 112.03 37.9128Z" fill="white" fill-opacity="0.9"/>
<path d="M71.1196 37.9507C71.1196 34.1304 71.1285 30.31 71.1084 26.4885C71.1062 26.0218 71.2354 25.9071 71.6944 25.9082C76.834 25.9249 81.9725 25.9238 87.1122 25.9082C87.5243 25.9071 87.7415 26.0363 87.9253 26.3972C89.3088 29.0993 89.7711 31.9907 89.5673 34.9746C89.066 42.3291 84.1269 48.0184 76.9465 49.6201C75.1364 50.0244 73.3006 49.9954 71.4638 49.9932C71.0193 49.9932 71.1218 49.7059 71.1218 49.4675C71.1185 46.7966 71.1196 44.1257 71.1196 41.4559C71.1196 40.2875 71.1196 39.1191 71.1196 37.9507Z" fill="white" fill-opacity="0.9"/>
<path d="M33.5291 25.7515C35.9229 25.7515 38.3167 25.7626 40.7094 25.7403C41.1316 25.7359 41.3232 25.8606 41.4647 26.2605C44.2082 33.9903 46.963 41.7168 49.7277 49.4389C49.8837 49.8744 49.8436 49.9991 49.3468 49.9969C45.506 49.9791 41.6652 49.9802 37.8244 49.998C37.4322 50.0002 37.2796 49.8655 37.1605 49.5157C36.0811 46.3235 34.9783 43.1392 33.9022 39.9459C33.7641 39.5349 33.587 39.3734 33.1247 39.3789C30.8055 39.4079 28.4863 39.3845 26.1671 39.4001C25.7884 39.4023 25.6592 39.3088 25.6603 38.9089C25.6737 34.6798 25.6748 30.4506 25.6592 26.2215C25.6581 25.8005 25.8218 25.7448 26.1805 25.7459C28.6311 25.7571 31.0795 25.7515 33.5291 25.7515Z" fill="white" fill-opacity="0.9"/>
<path d="M16.3356 25.7532C18.7472 25.7532 21.16 25.761 23.5716 25.7454C23.9827 25.7431 24.152 25.8166 24.1498 26.2856C24.1308 30.4779 24.1308 34.6692 24.1498 38.8616C24.152 39.3327 23.9793 39.4029 23.5705 39.4007C21.2513 39.3851 18.9322 39.4018 16.613 39.3839C16.2331 39.3806 16.0716 39.4953 15.9479 39.8595C14.863 43.0695 13.7502 46.2695 12.6596 49.4784C12.5393 49.8326 12.4023 50.0052 11.9757 50.003C8.13488 49.9818 4.29407 49.9818 0.453263 50.0019C-0.0624838 50.0041 -0.0635978 49.8571 0.0845542 49.4439C2.84263 41.7385 5.59291 34.031 8.32871 26.3179C8.48466 25.8779 8.69296 25.7398 9.15524 25.7442C11.5479 25.7665 13.9418 25.7532 16.3356 25.7532Z" fill="white" fill-opacity="0.9"/>
<path d="M95.3775 12.0916C95.3775 8.27008 95.3853 4.44971 95.3675 0.628236C95.3652 0.168233 95.4421 -0.00329364 95.9634 4.77881e-05C100.621 0.0234378 105.278 0.022324 109.935 0.0011616C110.442 -0.00106602 110.541 0.147071 110.54 0.623781C110.526 8.30238 110.526 15.9821 110.539 23.6607C110.54 24.1006 110.457 24.2666 109.97 24.2644C105.294 24.2454 100.619 24.2454 95.9423 24.2644C95.461 24.2666 95.3664 24.1118 95.3686 23.6651C95.3842 19.808 95.3775 15.9498 95.3775 12.0916Z" fill="white" fill-opacity="0.9"/>
<path d="M95.3775 37.8457C95.3775 34.0064 95.3853 30.1671 95.3675 26.3267C95.3652 25.8711 95.4822 25.7352 95.95 25.7363C100.626 25.7542 105.301 25.7519 109.978 25.7374C110.41 25.7363 110.54 25.8455 110.54 26.2921C110.527 34.0086 110.527 41.7251 110.54 49.4404C110.541 49.8793 110.423 49.9973 109.984 49.9962C105.308 49.9806 100.633 49.9795 95.9567 49.9973C95.5 49.9984 95.3652 49.8904 95.3675 49.4193C95.3853 45.5621 95.3775 41.7039 95.3775 37.8457Z" fill="white" fill-opacity="0.9"/>
<path d="M54.4476 12.0902C54.4476 8.26981 54.4554 4.45056 54.4375 0.630191C54.4353 0.162392 54.5267 -0.00133832 55.0402 0.00200311C59.6964 0.0242793 64.3526 0.0242793 69.0077 0.00200311C69.5156 -0.000224508 69.6148 0.156823 69.6136 0.627964C69.6003 8.28652 69.6003 15.9451 69.6136 23.6036C69.6148 24.087 69.5234 24.2708 68.982 24.2674C64.3448 24.2441 59.7075 24.2441 55.0702 24.2674C54.5322 24.2697 54.4353 24.0904 54.4375 23.6058C54.4554 19.7677 54.4476 15.9284 54.4476 12.0902Z" fill="white" fill-opacity="0.9"/>
<path d="M54.4475 37.8969C54.4475 34.0587 54.4575 30.2194 54.4363 26.3813C54.433 25.8667 54.5778 25.7352 55.0858 25.7364C59.723 25.7553 64.3603 25.7553 68.9976 25.7364C69.4944 25.7341 69.6158 25.8745 69.6147 26.359C69.6002 34.0365 69.5991 41.7128 69.6158 49.3903C69.6169 49.8893 69.4732 50.0007 68.992 49.9985C64.3358 49.9795 59.6796 49.9806 55.0245 49.9973C54.5644 49.9985 54.4352 49.8759 54.4375 49.4115C54.4553 45.5744 54.4475 41.7351 54.4475 37.8969Z" fill="white" fill-opacity="0.9"/>
<path d="M121.756 19.2505C124.043 20.5091 126.031 22.0528 127.566 24.1379C127.375 24.3172 127.181 24.2437 127.009 24.2437C122.221 24.2481 117.432 24.2404 112.645 24.2582C112.162 24.2604 112.017 24.1457 112.019 23.6445C112.035 15.9636 112.033 8.28281 112.021 0.603097C112.02 0.163143 112.102 -0.0195219 112.591 0.00164049C114.275 0.0729243 115.972 -0.13313 117.643 0.208809C121.598 1.02078 124.353 3.30965 125.671 7.11665C127.006 10.9738 126.198 14.4945 123.553 17.5954C123.036 18.2035 122.426 18.7125 121.756 19.2505Z" fill="white" fill-opacity="0.9"/>
<path d="M80.9066 19.2095C81.0246 19.4222 81.2352 19.4746 81.4067 19.5737C83.3059 20.6675 84.9813 22.0252 86.3514 23.7449C86.4506 23.8697 86.6444 23.9967 86.5753 24.1604C86.4985 24.3397 86.2768 24.2473 86.1208 24.2473C81.2975 24.2517 76.4742 24.2439 71.651 24.2617C71.1887 24.264 71.1118 24.1036 71.1118 23.6892C71.123 15.975 71.123 8.26076 71.1118 0.545402C71.1118 0.152228 71.1764 -0.012616 71.6198 0.00520497C73.3218 0.0753749 75.0373 -0.135135 76.7249 0.21126C80.725 1.03214 83.4897 3.35554 84.7908 7.216C86.1041 11.1099 85.2297 14.6306 82.5351 17.7103C82.2912 17.9888 82.0205 18.2449 81.7464 18.4944C81.478 18.7428 81.1884 18.9711 80.9066 19.2095Z" fill="white" fill-opacity="0.9"/>
<path d="M25.6692 12.0893C25.6692 8.24887 25.6748 4.40957 25.6614 0.569152C25.6603 0.154815 25.7383 -0.00557352 26.2005 0.00222314C28.0374 0.0311822 29.8743 0.0244993 31.7122 0.00445076C32.0731 -4.47547e-06 32.228 0.123628 32.3449 0.452202C35.103 8.21768 37.8667 15.9809 40.6448 23.7386C40.8074 24.1919 40.696 24.2576 40.2638 24.2565C35.5686 24.2443 30.8734 24.2432 26.1794 24.2588C25.7472 24.2599 25.6614 24.1229 25.6625 23.7208C25.6748 19.8436 25.6692 15.9664 25.6692 12.0893Z" fill="white" fill-opacity="0.9"/>
<path d="M24.1386 12.1524C24.1386 15.9939 24.1308 19.8344 24.1487 23.6759C24.1509 24.1392 24.0183 24.2629 23.5583 24.2606C18.8987 24.2439 14.2403 24.245 9.58077 24.2584C9.11292 24.2595 9.01155 24.1693 9.17975 23.7026C11.9523 15.9605 14.7115 8.21287 17.4651 0.462992C17.581 0.137759 17.7269 0.00187459 18.0934 0.00632983C19.9302 0.0263784 21.7693 0.0319474 23.6062 0.00410221C24.0696 -0.00258064 24.1487 0.161149 24.1476 0.574372C24.1342 4.43261 24.1386 8.29307 24.1386 12.1524Z" fill="white" fill-opacity="0.9"/>
</g>
<defs>
<clipPath id="clip0_826_2170">
<rect width="130.508" height="50" fill="white"/>
</clipPath>
</defs>
</svg>
