<svg width="50" height="50" viewBox="0 0 50 50" fill="none" xmlns="http://www.w3.org/2000/svg">
<path d="M45.7623 30.7012H4.24097V31.814H45.7623V30.7012Z" fill="white"/>
<path d="M4.24072 31.8184C4.24072 33.0501 5.23767 34.047 6.46938 34.047H43.5334C44.7651 34.047 45.7621 33.0501 45.7621 31.8184H4.24072Z" fill="white"/>
<path d="M43.5334 34.6533H6.46634C4.90232 34.6533 3.62793 33.3819 3.62793 31.8148V31.2051H46.3688V31.8148C46.3688 33.3819 45.0974 34.6533 43.5334 34.6533ZM4.96939 32.4276C5.21025 33.0191 5.79256 33.4368 6.46939 33.4368H43.5334C44.2102 33.4368 44.7895 33.0191 45.0334 32.4276H4.96939Z" fill="white"/>
<path d="M37.5853 33.609H12.4146V0.84375H37.5822V33.609H37.5853ZM13.3292 32.6944H36.6676V1.75838H13.3292V32.6944Z" fill="white"/>
<path d="M17.9757 15.9038V12.3123L17.2288 12.4861V11.8519L18.3233 11.3672H18.8355V15.9038H17.9757Z" fill="white"/>
<path d="M21.5795 15.9822C21.1587 15.9822 20.802 15.8847 20.5032 15.6865C20.2045 15.4883 19.9758 15.217 19.8142 14.8633C19.6526 14.5127 19.5703 14.1011 19.5703 13.6347C19.5703 13.1713 19.6526 12.7627 19.8142 12.4091C19.9758 12.0554 20.2075 11.778 20.5032 11.5828C20.802 11.3847 21.1587 11.2871 21.5795 11.2871C21.9971 11.2871 22.3569 11.3847 22.6557 11.5828C22.9545 11.781 23.1831 12.0554 23.3447 12.4091C23.5063 12.7627 23.5886 13.1713 23.5886 13.6347C23.5886 14.1011 23.5063 14.5097 23.3447 14.8633C23.1831 15.217 22.9514 15.4914 22.6557 15.6865C22.3599 15.8816 22.0002 15.9822 21.5795 15.9822ZM21.5795 15.2353C21.9209 15.2353 22.1984 15.092 22.4148 14.8085C22.6313 14.5249 22.738 14.1316 22.738 13.6347C22.738 13.1377 22.6313 12.7475 22.4148 12.4609C22.1984 12.1743 21.9209 12.0341 21.5795 12.0341C21.2349 12.0341 20.9545 12.1774 20.741 12.4609C20.5276 12.7444 20.4209 13.1377 20.4209 13.6347C20.4209 14.1316 20.5276 14.5219 20.741 14.8085C20.9545 15.095 21.2349 15.2353 21.5795 15.2353Z" fill="white"/>
<path d="M24.8141 15.9038V12.3123L24.0671 12.4861V11.8519L25.1616 11.3672H25.6738V15.9038H24.8141Z" fill="white"/>
<path d="M28.4208 15.9822C28 15.9822 27.6433 15.8847 27.3445 15.6865C27.0458 15.4883 26.8171 15.217 26.6555 14.8633C26.4939 14.5127 26.4116 14.1011 26.4116 13.6347C26.4116 13.1713 26.4939 12.7627 26.6555 12.4091C26.8171 12.0554 27.0488 11.778 27.3445 11.5828C27.6433 11.3847 28 11.2871 28.4208 11.2871C28.8385 11.2871 29.1982 11.3847 29.497 11.5828C29.7958 11.781 30.0244 12.0554 30.186 12.4091C30.3476 12.7627 30.4299 13.1713 30.4299 13.6347C30.4299 14.1011 30.3476 14.5097 30.186 14.8633C30.0244 15.217 29.7927 15.4914 29.497 15.6865C29.1982 15.8816 28.8385 15.9822 28.4208 15.9822ZM28.4208 15.2353C28.7622 15.2353 29.0397 15.092 29.2561 14.8085C29.4726 14.5249 29.5793 14.1316 29.5793 13.6347C29.5793 13.1377 29.4726 12.7475 29.2561 12.4609C29.0397 12.1743 28.7622 12.0341 28.4208 12.0341C28.0763 12.0341 27.7958 12.1774 27.5824 12.4609C27.3689 12.7444 27.2622 13.1377 27.2622 13.6347C27.2622 14.1316 27.3689 14.5219 27.5824 14.8085C27.7958 15.095 28.0732 15.2353 28.4208 15.2353Z" fill="white"/>
<path d="M31.6556 15.9038V12.3123L30.9087 12.4861V11.8519L32.0032 11.3672H32.5154V15.9038H31.6556Z" fill="white"/>
<path d="M17.9757 23.6831V20.0916L17.2288 20.2654V19.6312L18.3233 19.1465H18.8355V23.6831H17.9757Z" fill="white"/>
<path d="M20.2135 23.6831V20.0916L19.4666 20.2654V19.6312L20.5611 19.1465H21.0733V23.6831H20.2135Z" fill="white"/>
<path d="M23.8173 23.7596C23.3965 23.7596 23.0398 23.662 22.741 23.4638C22.4423 23.2657 22.2136 22.9943 22.052 22.6407C21.8904 22.2901 21.8081 21.8785 21.8081 21.412C21.8081 20.9486 21.8904 20.5401 22.052 20.1864C22.2136 19.8327 22.4453 19.5553 22.741 19.3602C23.0398 19.162 23.3965 19.0645 23.8173 19.0645C24.2349 19.0645 24.5947 19.162 24.8935 19.3602C25.1923 19.5584 25.4209 19.8327 25.5825 20.1864C25.7441 20.5401 25.8264 20.9486 25.8264 21.412C25.8264 21.8785 25.7441 22.287 25.5825 22.6407C25.4209 22.9943 25.1892 23.2687 24.8935 23.4638C24.5947 23.662 24.2349 23.7596 23.8173 23.7596ZM23.8173 23.0157C24.1587 23.0157 24.4362 22.8724 24.6526 22.5888C24.8691 22.3053 24.9758 21.912 24.9758 21.4151C24.9758 20.9181 24.8691 20.5279 24.6526 20.2413C24.4362 19.9547 24.1587 19.8145 23.8173 19.8145C23.4727 19.8145 23.1923 19.9577 22.9788 20.2413C22.7654 20.5248 22.6587 20.9181 22.6587 21.4151C22.6587 21.912 22.7654 22.3023 22.9788 22.5888C23.1923 22.8754 23.4727 23.0157 23.8173 23.0157Z" fill="white"/>
<path d="M28.4208 23.7596C28 23.7596 27.6433 23.662 27.3445 23.4638C27.0458 23.2657 26.8171 22.9943 26.6555 22.6407C26.4939 22.2901 26.4116 21.8785 26.4116 21.412C26.4116 20.9486 26.4939 20.5401 26.6555 20.1864C26.8171 19.8327 27.0488 19.5553 27.3445 19.3602C27.6433 19.162 28 19.0645 28.4208 19.0645C28.8385 19.0645 29.1982 19.162 29.497 19.3602C29.7958 19.5584 30.0244 19.8327 30.186 20.1864C30.3476 20.5401 30.4299 20.9486 30.4299 21.412C30.4299 21.8785 30.3476 22.287 30.186 22.6407C30.0244 22.9943 29.7927 23.2687 29.497 23.4638C29.1982 23.662 28.8385 23.7596 28.4208 23.7596ZM28.4208 23.0157C28.7622 23.0157 29.0397 22.8724 29.2561 22.5888C29.4726 22.3053 29.5793 21.912 29.5793 21.4151C29.5793 20.9181 29.4726 20.5279 29.2561 20.2413C29.0397 19.9547 28.7622 19.8145 28.4208 19.8145C28.0763 19.8145 27.7958 19.9577 27.5824 20.2413C27.3689 20.5248 27.2622 20.9181 27.2622 21.4151C27.2622 21.912 27.3689 22.3023 27.5824 22.5888C27.7958 22.8754 28.0732 23.0157 28.4208 23.0157Z" fill="white"/>
<path d="M31.6556 23.6831V20.0916L30.9087 20.2654V19.6312L32.0032 19.1465H32.5154V23.6831H31.6556Z" fill="white"/>
<path d="M33.0398 45.4395H16.9606C15.1587 45.4395 13.6953 46.8998 13.6953 48.7047H36.302C36.302 46.9029 34.8417 45.4395 33.0398 45.4395Z" fill="white"/>
<path d="M36.3019 49.1623H13.6983C13.4452 49.1623 13.241 48.958 13.241 48.705C13.241 46.6532 14.9117 44.9824 16.9635 44.9824H33.0428C35.0946 44.9824 36.7654 46.6532 36.7654 48.705C36.7593 48.958 36.555 49.1623 36.3019 49.1623ZM14.1922 48.2477H35.808C35.5885 46.9184 34.43 45.8971 33.0397 45.8971H16.9605C15.5702 45.8971 14.4117 46.9184 14.1922 48.2477Z" fill="white"/>
<path d="M30.3811 45.8969H19.6189L20.5823 33.5859H29.4146L30.3811 45.8969ZM20.6067 44.9823H29.3902L28.5671 34.5006H21.4299L20.6067 44.9823Z" fill="white"/>
<path d="M43.8841 9.16211H36.6676V10.0767H43.8841C44.6645 10.0767 45.3017 10.5737 45.3017 11.1865V31.3816H4.69808V11.1865C4.69808 10.5737 5.33528 10.0767 6.11576 10.0767H13.3322V9.16211H6.11576C4.82918 9.16211 3.78345 10.0706 3.78345 11.1865V32.2963H46.2194V11.1865C46.2164 10.0706 45.1706 9.16211 43.8841 9.16211Z" fill="white"/>
</svg>
