<svg width="50" height="50" viewBox="0 0 50 50" fill="none" xmlns="http://www.w3.org/2000/svg">
<path d="M19.4331 39.7847C19.4331 37.1013 19.4331 34.418 19.4498 31.7347C19.4498 31.3847 19.3498 31.268 19.0331 31.168C17.3831 30.6513 16.2665 29.168 16.2665 27.4347C16.2665 26.3513 16.1665 25.2513 16.3498 24.1513C16.7165 21.968 18.6331 20.268 20.8498 20.2347C23.3831 20.2013 25.9165 20.1847 28.4665 20.2347C31.2665 20.2847 33.6331 22.6347 33.7665 25.4347C33.8165 26.3013 33.8831 27.2013 33.7165 28.068C33.4165 29.6347 32.4831 30.6847 30.9665 31.168C30.6498 31.268 30.5998 31.418 30.5998 31.718C30.6165 37.0347 30.5998 42.368 30.5998 47.6847C30.5998 47.8513 30.6165 48.018 30.5831 48.1847C30.4998 48.618 30.2331 48.868 29.7998 48.868C29.3665 48.868 29.0998 48.6013 29.0165 48.168C28.9831 48.0013 28.9998 47.8347 28.9998 47.668C28.9998 42.4013 28.9998 37.118 29.0165 31.8513C29.0165 31.418 28.8998 31.3347 28.4998 31.3513C26.8665 31.368 25.2165 31.368 23.5831 31.3513C22.9665 31.3513 22.5831 30.968 22.6498 30.4513C22.7165 30.018 23.0498 29.768 23.5831 29.768C25.5165 29.768 27.4665 29.768 29.3998 29.768C31.2665 29.768 32.1831 28.8513 32.1831 27.0013C32.1831 26.3513 32.2331 25.718 32.1165 25.068C31.7665 23.218 30.1831 21.8347 28.3165 21.818C25.8831 21.7847 23.4498 21.8013 20.9998 21.818C19.2665 21.8347 17.8998 23.2347 17.8665 24.968C17.8498 25.7847 17.8498 26.5847 17.8665 27.4013C17.8831 28.668 18.8331 29.6513 20.0998 29.768C20.8165 29.8347 21.0498 30.068 21.0498 30.818C21.0498 36.4847 21.0498 42.1513 21.0498 47.8347C21.0498 48.2847 20.9831 48.668 20.4998 48.8347C19.9498 49.0347 19.4498 48.618 19.4498 47.9513C19.4498 46.218 19.4498 44.468 19.4498 42.7347C19.4331 41.7513 19.4331 40.768 19.4331 39.7847Z" fill="#273339"/>
<path d="M8.30005 38.5673C8.30005 41.6173 8.30005 44.6673 8.30005 47.7173C8.30005 47.8173 8.30005 47.9173 8.30005 48.0173C8.28338 48.5507 7.95005 48.9007 7.48338 48.884C7.03338 48.8673 6.71671 48.534 6.71671 48.0173C6.71671 46.2507 6.71671 44.4673 6.71671 42.7007C6.71671 42.1673 6.70005 41.634 6.71671 41.1173C6.71671 40.8673 6.65005 40.834 6.40005 40.8673C4.81671 41.1507 3.53338 40.0673 3.53338 38.4673C3.53338 34.7673 3.48338 31.0673 3.55005 27.384C3.60005 25.084 4.65005 23.3007 6.73338 22.2007C7.21671 21.934 7.76671 21.834 8.31671 21.834C10.1 21.834 11.9 21.834 13.6834 21.834C14.3 21.834 14.6667 22.134 14.6667 22.634C14.6667 23.134 14.3 23.4173 13.6667 23.4173C11.9667 23.4173 10.25 23.434 8.55005 23.4173C7.71671 23.4007 7.03338 23.7007 6.46671 24.3007C5.61671 25.184 5.13338 26.234 5.11671 27.4673C5.10005 31.1007 5.11671 34.734 5.11671 38.3507C5.11671 38.4673 5.11671 38.584 5.13338 38.7007C5.21671 39.1007 5.56671 39.3673 5.95005 39.3507C6.38338 39.3173 6.68338 39.0007 6.70005 38.5173C6.71671 37.1173 6.70005 35.734 6.70005 34.334C6.70005 32.684 6.70005 31.0173 6.70005 29.3673C6.70005 28.6007 6.95005 28.2173 7.48338 28.2173C8.01671 28.2007 8.30005 28.584 8.30005 29.3507C8.30005 32.4007 8.30005 35.484 8.30005 38.5673Z" fill="#273339"/>
<path d="M41.7168 38.5169C41.7168 35.4669 41.7168 32.4169 41.7168 29.3669C41.7168 29.2335 41.7168 29.1002 41.7168 28.9669C41.7502 28.5002 42.0835 28.1835 42.5168 28.1835C42.9502 28.1835 43.2668 28.5002 43.3002 28.9835C43.3168 29.1169 43.3002 29.2502 43.3002 29.3835C43.3002 32.3169 43.3002 35.2502 43.3002 38.1835C43.3002 38.3002 43.3002 38.4169 43.3002 38.5335C43.3335 39.0002 43.6668 39.3169 44.1002 39.3169C44.5335 39.3169 44.8668 39.0002 44.8835 38.5169C44.9002 37.8169 44.8835 37.1169 44.8835 36.4335C44.8835 33.4669 44.8835 30.5002 44.8835 27.5335C44.8835 26.4502 44.5168 25.4835 43.8668 24.6335C43.2168 23.8002 42.4002 23.3502 41.3002 23.3835C39.6502 23.4335 37.9835 23.4002 36.3335 23.4002C35.7002 23.4002 35.3502 23.1002 35.3335 22.6169C35.3335 22.1169 35.6835 21.8169 36.3168 21.8169C38.0168 21.8169 39.7335 21.8335 41.4335 21.8169C42.6668 21.8002 43.7002 22.2335 44.5668 23.0835C45.7835 24.2835 46.4668 25.7502 46.4668 27.4669C46.4835 31.1335 46.4835 34.8002 46.4668 38.4502C46.4668 40.0502 45.1668 41.1502 43.6002 40.8502C43.2002 40.7835 43.3002 41.0002 43.3002 41.2002C43.3002 43.3835 43.3002 45.5835 43.3002 47.7669C43.3002 47.9169 43.3168 48.0669 43.2835 48.2169C43.1835 48.6335 42.9168 48.8835 42.4835 48.8835C42.0668 48.8669 41.8168 48.6169 41.7335 48.2169C41.7002 48.0502 41.7168 47.8835 41.7168 47.7169C41.7168 44.6502 41.7168 41.5835 41.7168 38.5169Z" fill="#273339"/>
<path d="M12.2833 20.218C9.66667 20.2346 7.5 18.0846 7.5 15.468C7.5 12.8346 9.63333 10.6846 12.2667 10.668C14.9 10.668 17.05 12.8013 17.05 15.4346C17.05 18.068 14.9167 20.218 12.2833 20.218ZM15.45 15.4513C15.45 13.7013 14.0167 12.268 12.25 12.268C10.5167 12.268 9.1 13.7013 9.08333 15.4346C9.06667 17.1846 10.5 18.6346 12.25 18.6346C14.0167 18.6346 15.45 17.2013 15.45 15.4513Z" fill="#29353B"/>
<path d="M24.9834 9.08398C27.6167 9.08398 29.7667 11.2173 29.7834 13.834C29.7834 16.4673 27.6501 18.6173 25.0334 18.634C22.3834 18.6507 20.2334 16.484 20.2334 13.8173C20.2501 11.234 22.4001 9.08398 24.9834 9.08398ZM25.0334 10.6673C23.2667 10.6673 21.8334 12.084 21.8334 13.834C21.8334 15.584 23.2501 17.0173 25.0167 17.0173C26.7501 17.0173 28.1834 15.6007 28.2001 13.8673C28.2001 12.1173 26.7834 10.684 25.0334 10.6673Z" fill="#29353B"/>
<path d="M42.5168 15.4504C42.5168 18.0837 40.3668 20.2337 37.7501 20.2337C35.1335 20.2337 32.9668 18.0837 32.9668 15.467C32.9668 12.8504 35.1168 10.6837 37.7335 10.6837C40.3668 10.667 42.5168 12.817 42.5168 15.4504ZM37.7168 18.6337C39.4668 18.6504 40.9168 17.217 40.9168 15.467C40.9168 13.7337 39.5168 12.3004 37.7835 12.2837C36.0168 12.267 34.5668 13.6837 34.5501 15.4337C34.5501 17.167 35.9668 18.617 37.7168 18.6337Z" fill="#29353B"/>
<path d="M22.6166 5.11719C22.6 7.30052 20.8 9.08385 18.6166 9.06719C16.4333 9.05052 14.65 7.25052 14.6666 5.06719C14.6666 2.88385 16.4666 1.11719 18.6666 1.11719C20.85 1.13385 22.6333 2.93385 22.6166 5.11719ZM21.0333 5.10052C21.0333 3.78385 19.95 2.70052 18.6333 2.70052C17.3333 2.70052 16.2666 3.78385 16.2666 5.08385C16.2666 6.40052 17.35 7.48385 18.6666 7.48385C19.95 7.48385 21.0333 6.40052 21.0333 5.10052Z" fill="#29353B"/>
<path d="M27.3999 5.1181C27.3999 2.93477 29.1832 1.13477 31.3666 1.13477C33.5666 1.13477 35.3499 2.9181 35.3499 5.10143C35.3499 7.28477 33.5666 9.08477 31.3832 9.08477C29.1999 9.08477 27.3999 7.30143 27.3999 5.1181ZM31.4166 2.7181C30.0999 2.70143 28.9999 3.7681 28.9832 5.08477C28.9666 6.38477 30.0332 7.4681 31.3332 7.48477C32.6499 7.50143 33.7499 6.43477 33.7666 5.1181C33.7666 3.8181 32.7166 2.73477 31.4166 2.7181Z" fill="#29353B"/>
<path d="M30.5665 27.851C30.5665 28.001 30.5832 28.151 30.5665 28.301C30.4832 28.7344 30.2165 28.9844 29.7832 28.9844C29.3498 28.9844 29.0832 28.7177 28.9998 28.301C28.9665 28.151 28.9998 28.001 28.9832 27.851C28.9665 27.1344 28.5998 26.8177 27.8998 26.9344C26.0332 27.251 24.1832 27.551 22.3165 27.8677C20.8165 28.1177 19.4332 27.051 19.4165 25.6177C19.4165 25.101 19.7498 24.7344 20.2165 24.7344C20.6165 24.7344 20.9332 25.0177 20.9998 25.4844C21.1165 26.1844 21.4332 26.401 22.1498 26.2844C24.0165 25.9677 25.8665 25.651 27.7332 25.351C29.3332 25.0677 30.5832 26.1844 30.5665 27.851Z" fill="#29353B"/>
<path d="M24.2168 42.9164C24.2168 41.2664 24.2168 39.5997 24.2168 37.9497C24.2168 37.3164 24.5001 36.9497 25.0001 36.9497C25.5168 36.9331 25.8168 37.3164 25.8168 37.9664C25.8168 41.2664 25.8168 44.5497 25.8168 47.8497C25.8168 48.1331 25.8168 48.4164 25.5835 48.6331C25.3335 48.8664 25.0501 48.9664 24.7168 48.8164C24.3501 48.6664 24.2168 48.3664 24.2168 47.9831C24.2168 46.2831 24.2168 44.5997 24.2168 42.9164Z" fill="#273339"/>
<path d="M11.4834 44.8999C11.4834 43.8832 11.4834 42.8832 11.4834 41.8666C11.4834 41.2832 11.7834 40.9166 12.2667 40.9166C12.7667 40.8999 13.0834 41.2666 13.0834 41.8832C13.0834 43.8832 13.0834 45.8832 13.0834 47.8832C13.0834 48.4999 12.7834 48.8666 12.2834 48.8666C11.7834 48.8666 11.5001 48.4999 11.5001 47.8666C11.4834 46.8832 11.4834 45.8999 11.4834 44.8999Z" fill="#273339"/>
<path d="M38.5335 44.8836C38.5335 45.9003 38.5335 46.9003 38.5335 47.9169C38.5335 48.5336 38.2169 48.9003 37.7169 48.8836C37.2335 48.8669 36.9502 48.5169 36.9502 47.9169C36.9502 45.9003 36.9502 43.8836 36.9502 41.8669C36.9502 41.2836 37.2669 40.9336 37.7502 40.9336C38.2335 40.9336 38.5335 41.2836 38.5502 41.8669C38.5502 42.8669 38.5335 43.8669 38.5335 44.8836Z" fill="#273339"/>
</svg>
