<svg width="60" height="80" viewBox="0 0 60 80" fill="none" xmlns="http://www.w3.org/2000/svg">
<g clip-path="url(#clip0_826_2352)">
<path d="M47.8862 34.5442C47.9454 34.5464 48.005 34.5488 48.0642 34.551C47.8577 34.5864 47.7812 34.7279 47.7348 34.9169C47.6523 35.2528 47.5239 35.5751 47.4068 35.9006C46.7942 37.6034 46.0183 39.2275 45.0686 40.7685C45.0338 40.825 44.9466 40.8798 44.9924 40.9569C45.039 41.0353 45.121 40.9865 45.1915 40.9769C45.2814 40.9648 45.373 40.9582 45.4635 40.9602C46.0551 40.9719 46.6455 40.9549 47.2382 40.9942C47.9005 41.038 48.5603 41.0896 49.2196 41.1656C50.0686 41.2635 50.9078 41.4146 51.7426 41.5923C51.8364 41.6123 51.9209 41.6244 51.9988 41.5569C52.0054 41.5915 52.012 41.626 52.0185 41.6606C51.9135 41.6707 51.8726 41.7549 51.8161 41.827C50.9841 42.8892 50.0958 43.9017 49.1307 44.8457C48.9223 45.0494 48.7048 45.2436 48.4884 45.4389C48.0156 45.8653 47.5363 46.2841 47.019 46.6571C46.9828 46.6535 46.9447 46.6562 46.9107 46.6455C46.1807 46.4146 45.4388 46.232 44.6877 46.0833C44.0355 45.9542 43.3787 45.8549 42.7183 45.7896C42.293 45.7477 41.8654 45.701 41.4357 45.718C41.2939 45.7238 41.1576 45.6947 40.9837 45.6435C41.7713 44.9548 42.4879 44.2536 43.1376 43.4893C43.7914 42.7203 44.3992 41.9156 44.9449 41.0038C43.8756 41.0082 42.8722 41.1546 41.8723 41.3389C40.8729 41.5232 39.901 41.8114 38.9019 42.1537C38.9376 42.0714 38.9488 42.0368 38.9664 42.0061C39.8881 40.3949 40.5252 38.6721 40.9719 36.8753C41.0004 36.7606 41.0265 36.6446 41.0446 36.5281C41.0605 36.4263 41.0067 36.3901 40.9149 36.4288C40.7215 36.5102 40.529 36.5936 40.339 36.6825C38.8372 37.3845 37.4188 38.2221 36.1243 39.2634C36.0251 39.3435 35.9359 39.4513 35.7791 39.4992C35.8084 39.2489 35.8257 39.0226 35.8633 38.7994C35.9422 38.3315 35.9634 37.8584 36.0012 37.387C36.0223 37.1235 36.01 36.8574 36.0146 36.5925C36.0316 35.625 36.002 34.6594 35.894 33.697C35.8814 33.5846 35.8608 33.4752 35.8106 33.3523C35.0438 34.0744 34.3269 34.8017 33.6822 35.5967C33.0415 36.3866 32.4612 37.2208 31.9111 38.0896C31.4959 36.0619 30.8295 34.1402 29.8548 32.2756C28.9136 34.1397 28.2198 36.0276 27.8561 38.0235C27.7799 38.015 27.7596 37.9838 27.7412 37.9525C27.2484 37.1073 26.6755 36.3194 26.0584 35.5603C25.4526 34.8149 24.7845 34.129 24.094 33.4639C24.0449 33.4167 23.9969 33.3518 23.8949 33.3849C23.806 34.0478 23.7314 34.7169 23.7298 35.3919C23.7279 36.0769 23.7103 36.7631 23.7438 37.4468C23.7761 38.111 23.8636 38.7722 23.9327 39.4441C22.3095 38.1716 20.5732 37.1311 18.6261 36.3641C18.7994 37.0818 18.9618 37.7438 19.1748 38.3932C19.3882 39.0437 19.6279 39.6833 19.8983 40.3124C20.1649 40.9327 20.4904 41.5246 20.8165 42.1663C18.8383 41.4722 16.8577 41.1047 14.7631 41.0123C15.1415 41.646 15.543 42.1838 15.9519 42.717C16.3688 43.2605 16.8314 43.7643 17.2864 44.2747C17.7323 44.7749 18.2539 45.1997 18.7621 45.7164C17.6808 45.7227 16.6696 45.8162 15.6645 45.9849C14.6566 46.1541 13.6655 46.3825 12.6579 46.7155C14.3182 47.9989 16.0846 48.9829 18.0688 49.7146C17.0659 50.1249 16.1381 50.5407 15.2457 51.0338C14.3465 51.5307 12.9064 52.4944 12.7202 52.7714C13.694 53.0643 14.6715 53.2985 15.6681 53.4595C16.6718 53.6215 17.6794 53.7334 18.7103 53.7609C17.1476 55.1197 15.8321 56.6747 14.697 58.4414C15.4174 58.4422 16.0841 58.3605 16.7491 58.2717C17.4257 58.1812 18.0957 58.052 18.7599 57.8929C19.4104 57.7371 20.0489 57.5364 20.7062 57.3612C19.7217 59.1662 19.0215 61.0602 18.5764 63.0992C19.5665 62.6974 20.4709 62.2293 21.3507 61.7115C22.2338 61.1918 23.0576 60.5857 23.8987 59.9149C23.5614 61.997 23.5296 64.0182 23.8233 66.0871C24.2462 65.7141 24.6211 65.3716 24.9628 64.9904C25.3037 64.61 25.6531 64.2376 25.9794 63.8441C26.3058 63.4505 26.6138 63.043 26.9067 62.625C27.1949 62.2137 27.4601 61.7861 27.7653 61.3199C27.9005 62.0502 28.0552 62.7065 28.2507 63.3512C28.4493 64.0056 28.6654 64.655 28.9311 65.2863C29.1903 65.902 29.4443 66.5201 29.8115 67.1504C30.3021 66.1943 30.7017 65.2688 31.0404 64.3158C31.381 63.3575 31.6248 62.3722 31.8497 61.3188C32.4113 62.24 32.9829 63.0737 33.6271 63.8547C34.2754 64.6407 34.9788 65.3735 35.7582 66.0835C35.8973 65.5436 35.8989 65.0326 35.9401 64.5297C35.9809 64.0303 35.9592 63.5257 35.9595 63.0232C35.9595 62.5126 35.9485 62.0028 35.9047 61.4927C35.8619 60.9944 35.7615 60.5007 35.7374 59.9388C35.9677 60.122 36.1413 60.266 36.321 60.402C37.5551 61.3366 38.8805 62.1193 40.2847 62.7696C40.523 62.8798 40.7734 62.964 40.9963 63.1063C41.0158 63.2045 41.0353 63.3024 41.0545 63.4006C41.2215 64.2483 41.3539 65.1001 41.4455 65.9604C41.516 66.6219 41.553 67.285 41.5854 67.9473C41.6197 68.6486 41.589 69.3534 41.5868 70.0565C41.5015 70.1298 41.4324 70.0623 41.3646 70.0258C41.0117 69.8352 40.6576 69.6466 40.3091 69.448C38.7681 68.5696 37.3203 67.5604 36.0031 66.3685C35.9244 66.2972 35.8457 66.2264 35.7152 66.1864C35.5492 67.3478 35.3189 68.4769 35.009 69.5881C34.6958 70.7114 34.3242 71.815 33.8492 72.9238C33.0292 72.0517 32.295 71.1511 31.6111 70.2077C30.9235 69.259 30.3276 68.2528 29.7413 67.1967C29.5605 67.5192 29.407 67.7981 29.2484 68.0743C28.5661 69.2626 27.7853 70.3837 26.9245 71.4486C26.5639 71.8948 26.1892 72.33 25.8176 72.7675C25.7628 72.8322 25.7077 72.887 25.7502 72.9784C25.7186 72.9773 25.6874 72.9759 25.6558 72.9748C25.6322 72.8966 25.6147 72.816 25.5837 72.7406C25.2667 71.965 24.9795 71.179 24.7374 70.3769C24.3745 69.1748 24.0718 67.9594 23.8845 66.716C23.8587 66.5448 23.8768 66.3534 23.7696 66.1993C23.6566 66.2152 23.5998 66.2906 23.534 66.3518C23.0541 66.7996 22.5407 67.2071 22.0174 67.602C20.8302 68.498 19.5761 69.2895 18.2575 69.9778C18.1653 70.0258 18.0927 70.087 18.0356 70.1712C18.0162 70.152 17.9967 70.1325 17.9772 70.1133C17.9687 68.6198 17.9358 67.1262 18.1338 65.639C18.2117 65.0538 18.2948 64.4699 18.3949 63.8879C18.4374 63.6408 18.529 63.3995 18.5147 63.1233C18.1409 63.2643 17.7861 63.4039 17.4274 63.5322C16.0109 64.0388 14.5601 64.4186 13.0792 64.6789C12.6333 64.7573 12.1898 64.8708 11.7307 64.8538C12.4067 62.6017 13.368 60.4771 14.6284 58.465C14.4833 58.434 14.3733 58.434 14.2705 58.4568C14.1167 58.4908 13.9628 58.4905 13.8081 58.4883C13.3987 58.4823 12.9895 58.4735 12.5801 58.4562C11.8703 58.4261 11.1652 58.3696 10.4604 58.2843C9.7833 58.2025 9.11167 58.0975 8.44251 57.9659C8.17731 57.9138 7.91623 57.812 7.63732 57.8441C7.628 57.8101 7.6184 57.7761 7.60907 57.7418C7.70917 57.7251 7.7558 57.648 7.81284 57.5751C8.61391 56.5466 9.47641 55.5725 10.4017 54.6546C10.5953 54.4624 10.8005 54.2814 11.002 54.0974C11.4455 53.6923 11.8977 53.2971 12.3744 52.931C12.4353 52.8844 12.5175 52.8484 12.5247 52.7494C12.4868 52.7039 12.4322 52.6957 12.381 52.6779C12.0285 52.5553 11.6753 52.4349 11.3254 52.306C9.79948 51.7441 8.3553 51.0132 6.95171 50.1965C6.70187 50.0511 6.4822 49.8474 6.19067 49.7766C6.19396 49.7412 6.19753 49.7059 6.20082 49.6705C6.28721 49.7108 6.3555 49.6719 6.42653 49.6255C6.76988 49.4012 7.1253 49.1974 7.481 48.9936C8.91531 48.1728 10.402 47.4675 11.9655 46.9261C12.1572 46.8597 12.3656 46.8271 12.5389 46.716C12.5156 46.631 12.4586 46.5984 12.4084 46.5603C11.8056 46.1028 11.2382 45.6026 10.6889 45.0843C10.1988 44.6216 9.72378 44.1428 9.27155 43.6406C8.75323 43.065 8.25163 42.4765 7.77472 41.8671C7.70259 41.7747 7.6269 41.7097 7.50486 41.7165C7.54545 41.6702 7.5992 41.6625 7.65652 41.6655C7.71109 41.6639 7.76759 41.6705 7.82024 41.6592C8.85278 41.4384 9.8919 41.2659 10.9436 41.1595C11.6232 41.091 12.3028 41.0331 12.9848 41.0147C13.4686 41.0016 13.9529 41.0134 14.437 41.0106C14.5058 41.0103 14.5807 41.0364 14.6531 40.9777C14.6449 40.8941 14.5842 40.8351 14.5428 40.7668C14.2305 40.2521 13.9291 39.7307 13.6485 39.1979C13.0095 37.9849 12.4824 36.7228 12.0222 35.433C11.9252 35.161 11.7905 34.8955 11.7845 34.596C11.8426 34.6232 11.9018 34.6407 11.9671 34.6484C12.735 34.737 13.4949 34.8733 14.2502 35.0359C15.6497 35.3373 17.0228 35.7273 18.3472 36.2788C18.4075 36.304 18.4736 36.3531 18.5633 36.3109C18.5147 36.0544 18.4613 35.7986 18.4182 35.5408C18.3027 34.8508 18.2007 34.1594 18.127 33.4628C18.057 32.8019 18.0233 32.1393 17.989 31.477C17.9605 30.9217 17.9852 30.3638 17.9819 29.8071C17.9808 29.642 17.992 29.4794 18.0304 29.319C18.6713 29.6294 19.2898 29.9813 19.8967 30.3526C21.1278 31.1062 22.2996 31.9413 23.3837 32.8971C23.5238 33.0207 23.6706 33.137 23.8321 33.2717C23.8579 33.1614 23.882 33.0827 23.8941 33.0026C23.938 32.715 23.967 32.4245 24.0213 32.139C24.272 30.8227 24.5986 29.526 25.0338 28.2571C25.2261 27.6968 25.4575 27.1516 25.6506 26.5921C25.6879 26.591 25.7255 26.5897 25.7628 26.5886C25.7897 26.625 25.8132 26.6645 25.844 26.6975C26.382 27.2693 26.8828 27.8723 27.3622 28.4935C28.1046 29.4553 28.7803 30.4609 29.3815 31.5176C29.5147 31.7521 29.6159 32.0071 29.8107 32.2619C30.1968 31.5447 30.5758 30.8611 31.0039 30.2067C31.4287 29.5576 31.8702 28.9208 32.3496 28.3106C32.8301 27.6987 33.321 27.0957 33.8876 26.5156C34.2101 27.2698 34.4811 27.9938 34.7229 28.7296C34.9678 29.4747 35.1708 30.2308 35.3543 30.993C35.5339 31.7384 35.6477 32.4972 35.7851 33.2522C35.8915 33.2311 35.9244 33.1707 35.9721 33.1304C36.3898 32.7778 36.7987 32.4133 37.2265 32.0735C38.264 31.2497 39.3637 30.5158 40.5136 29.8581C40.8688 29.6549 41.2198 29.4418 41.5983 29.2817C41.5939 30.6123 41.643 31.9443 41.4919 33.2711C41.4466 33.6685 41.4159 34.0681 41.3561 34.4635C41.2719 35.0205 41.1886 35.5781 41.0638 36.1282C41.029 36.2821 41.072 36.3147 41.2179 36.2637C41.2522 36.2516 41.2846 36.2338 41.3186 36.2204C42.4213 35.784 43.549 35.4267 44.7 35.1412C45.7501 34.8807 46.8158 34.7008 47.8862 34.5442Z" fill="#AEAEAE" fill-opacity="0.9"/>
<path d="M41.5865 70.0587C41.5887 69.3556 41.6195 68.651 41.5852 67.9495C41.5528 67.2872 41.5155 66.6241 41.4453 65.9626C41.3537 65.1023 41.2212 64.2505 41.0542 63.4028C41.0348 63.3046 41.0153 63.2067 40.9961 63.1085C41.0136 63.1044 41.0312 63.1011 41.049 63.0981C41.0693 63.1154 41.0871 63.1398 41.1105 63.1491C41.9066 63.462 42.7101 63.7511 43.5342 63.985C44.5317 64.2683 45.5417 64.4935 46.5619 64.6734C46.9193 64.7364 47.2785 64.7891 47.6375 64.8428C47.773 64.8631 47.8015 64.8269 47.767 64.6939C47.7532 64.6413 47.7335 64.59 47.7165 64.5379C47.4628 63.7585 47.1792 62.9903 46.8551 62.2375C46.4731 61.3503 46.0625 60.4771 45.5765 59.6409C45.3478 59.2474 45.124 58.8511 44.8983 58.4562C44.9121 58.4515 44.9255 58.4466 44.9389 58.4417C46.1867 58.4606 47.4313 58.4365 48.6739 58.2895C49.5224 58.1891 50.3654 58.0646 51.2049 57.9063C51.4531 57.8594 51.6939 57.7528 51.9555 57.7854L51.9593 57.7887C52.029 57.8693 52.1033 57.9464 52.1672 58.0311C53.7387 60.1179 55.018 62.373 56.0453 64.7732C56.0522 64.7896 56.0544 64.808 56.0681 64.864C53.3495 65.2021 50.6375 65.2158 47.892 64.8681C48.689 67.418 49.136 69.9978 49.3189 72.6254C49.3252 72.7148 49.3458 72.8067 49.3025 72.9188C48.8129 72.7899 48.3198 72.6674 47.8311 72.5305C45.7205 71.939 43.6799 71.165 41.7264 70.1668C41.702 70.1544 41.6792 70.1391 41.6557 70.1251C41.6326 70.1032 41.6096 70.0809 41.5865 70.0587Z" fill="white" fill-opacity="0.9"/>
<path d="M41.5868 70.0579C41.6098 70.0802 41.6328 70.1021 41.6562 70.1243C41.5953 70.1934 41.6117 70.2795 41.6073 70.3596C41.4592 72.9378 41.0144 75.4641 40.2833 77.9406C40.2608 78.0171 40.2336 78.0925 40.2016 78.191C37.8842 76.6999 35.7933 74.9661 33.9131 72.9252C33.3684 74.2089 32.7709 75.4238 32.0954 76.5993C31.4177 77.7785 30.6732 78.9142 29.8597 79.9985C29.7819 80.0103 29.7629 79.95 29.7333 79.9099C28.1501 77.7785 26.8181 75.5014 25.7743 73.0582C25.7636 73.0332 25.7587 73.0058 25.751 72.9795C25.7085 72.8882 25.7633 72.833 25.8184 72.7686C26.1901 72.3312 26.5647 71.8959 26.9253 71.4497C27.7862 70.3848 28.5669 69.2637 29.2493 68.0754C29.4078 67.7992 29.5611 67.5203 29.7421 67.1978C30.3284 68.2539 30.9241 69.2604 31.6119 70.2088C32.2959 71.1522 33.03 72.0528 33.85 72.9249C34.3247 71.8161 34.6966 70.7128 35.0098 69.5892C35.3197 68.478 35.5501 67.3489 35.716 66.1875C35.8465 66.2278 35.9252 66.2986 36.0039 66.3696C37.3211 67.5615 38.7689 68.571 40.3099 69.4491C40.6584 69.6477 41.0125 69.8363 41.3654 70.0269C41.4324 70.064 41.5012 70.1314 41.5868 70.0579Z" fill="white" fill-opacity="0.9"/>
<path d="M41.5973 29.2821C41.2186 29.442 40.8678 29.6553 40.5127 29.8586C39.363 30.5162 38.2633 31.2501 37.2256 32.0739C36.7975 32.4137 36.3888 32.7779 35.9712 33.1309C35.9234 33.1712 35.8908 33.2315 35.7841 33.2526C35.6464 32.4979 35.5326 31.7388 35.3533 30.9934C35.1695 30.2313 34.9669 29.4752 34.722 28.73C34.4801 27.9942 34.2091 27.2702 33.8866 26.516C33.3203 27.0961 32.8294 27.6991 32.3486 28.311C31.8693 28.9212 31.4277 29.5583 31.0029 30.2071C30.5748 30.8615 30.1958 31.5449 29.8097 32.2623C29.615 32.0073 29.5138 31.7522 29.3805 31.518C28.7793 30.4613 28.1033 29.4557 27.3612 28.4939C26.8818 27.8727 26.3811 27.2697 25.843 26.6979C25.8123 26.6652 25.7887 26.6255 25.7618 26.589C25.7593 26.5498 25.7569 26.5103 25.7544 26.4708C25.7475 26.4527 25.7528 26.4387 25.7695 26.4291C25.8071 26.4052 25.8147 26.3677 25.8164 26.3271C25.9927 25.8181 26.2376 25.3393 26.4713 24.856C27.3631 23.0109 28.4223 21.2664 29.6394 19.6179C29.6874 19.5529 29.7378 19.4893 29.8034 19.4043C31.4497 21.598 32.8294 23.9283 33.9124 26.4856C35.7937 24.4735 37.878 22.7416 40.1463 21.2365C40.2058 21.2758 40.2137 21.3306 40.2294 21.3835C40.6896 22.9426 41.0406 24.5256 41.2764 26.1343C41.4276 27.1646 41.5356 28.1988 41.591 29.2385C41.5778 29.2552 41.5806 29.2692 41.5984 29.2802L41.5973 29.2821Z" fill="white" fill-opacity="0.9"/>
<path d="M40.029 13.1038C40.0205 13.4192 40.0164 13.7181 40.0024 14.0165C39.9933 14.2057 40.0693 14.4484 39.9404 14.5688C39.8247 14.6772 39.5905 14.5976 39.4089 14.5998C39.0529 14.6042 38.6967 14.6023 38.3405 14.6006C38.0511 14.5993 38.0827 14.6327 38.0898 14.3313C38.0988 13.9479 38.115 13.5645 38.1254 13.1812C38.1326 12.9256 38.1392 12.6697 38.1392 12.4141C38.14 8.37691 38.1394 4.33946 38.1405 0.302289C38.1405 -0.0457286 38.0914 0.00363565 38.4463 0.00144168C38.912 -0.00157502 39.3779 0.00116743 39.8436 0.000618943C40.1099 0.000344697 40.0967 -0.0155616 40.0965 0.252377C40.0959 1.89648 40.0962 3.54058 40.0962 5.18469C40.0962 5.2804 40.0962 5.37611 40.0962 5.45126C40.1499 5.48252 40.1587 5.47374 40.1713 5.4529C40.6932 4.5904 41.4608 4.07783 42.441 3.88257C43.3891 3.69389 44.3344 3.71665 45.2506 4.0367C46.5909 4.50483 47.4117 5.48033 47.8406 6.80685C48.0644 7.49905 48.1351 8.21703 48.1428 8.94076C48.1524 9.87566 48.1031 10.8084 47.7844 11.6964C47.178 13.3871 45.9793 14.398 44.2069 14.7043C43.4409 14.8368 42.6785 14.8014 41.938 14.5389C41.2217 14.285 40.6318 13.858 40.1848 13.2396C40.1582 13.2025 40.1329 13.1644 40.1058 13.1279C40.1014 13.1225 40.089 13.1225 40.029 13.1038ZM46.0808 9.03812C46.0651 8.8264 46.0555 8.6347 46.0358 8.4441C45.9746 7.85146 45.8518 7.27362 45.5992 6.72979C45.1453 5.75183 44.3991 5.19045 43.3049 5.13724C42.0505 5.07636 41.0944 5.5733 40.5446 6.74762C40.4398 6.97113 40.3534 7.20177 40.2912 7.43981C40.0309 8.43395 40.0043 9.44208 40.1401 10.4549C40.2158 11.0182 40.3732 11.5604 40.6666 12.0551C40.965 12.5581 41.3717 12.9415 41.9251 13.1417C42.6456 13.4025 43.3748 13.406 44.0941 13.1373C44.8618 12.8501 45.3367 12.266 45.6491 11.5346C45.9919 10.7305 46.0832 9.8817 46.0808 9.03812Z" fill="white" fill-opacity="0.9"/>
<path d="M51.7162 5.71133C51.7367 5.68527 51.7595 5.66032 51.7779 5.63262C52.396 4.70731 53.2777 4.18213 54.3522 3.97507C55.3069 3.79133 56.2431 3.86675 57.1333 4.28634C58.1719 4.77615 58.8413 5.60217 59.2426 6.65802C59.6657 7.77256 59.7442 8.93289 59.6564 10.1091C59.6005 10.8592 59.451 11.5912 59.1378 12.2803C58.3326 14.052 56.9362 14.9422 55.0099 15.0272C54.3547 15.056 53.7179 14.9496 53.1129 14.6912C52.574 14.4611 52.119 14.1189 51.7686 13.6439C51.7392 13.6041 51.7274 13.5399 51.6325 13.5353C51.6325 13.6228 51.6325 13.71 51.6325 13.7972C51.6325 15.3132 51.6325 16.8293 51.6325 18.3453C51.6325 18.4001 51.627 18.4555 51.6336 18.5096C51.649 18.636 51.5845 18.6596 51.474 18.6587C50.9261 18.6549 50.3784 18.6546 49.8305 18.659C49.7117 18.6598 49.6637 18.6195 49.6744 18.5008C49.681 18.4284 49.6761 18.3549 49.6763 18.2817C49.6865 14.2083 49.695 10.1352 49.7092 6.06181C49.7114 5.46752 49.6643 4.8757 49.6566 4.28196C49.6536 4.05982 49.6544 4.05762 49.8727 4.05707C50.3748 4.0557 50.877 4.05598 51.3794 4.0568C51.6619 4.05735 51.6306 4.03294 51.6358 4.30088C51.6451 4.76545 51.655 5.23002 51.6646 5.6946C51.6813 5.70063 51.6986 5.70584 51.7162 5.71133ZM57.5922 9.23292C57.6026 8.93042 57.5716 8.63012 57.5387 8.3312C57.4797 7.79422 57.3607 7.27151 57.1174 6.78308C56.7478 6.04097 56.168 5.57612 55.3469 5.4198C54.9569 5.34548 54.5645 5.34219 54.1751 5.39265C53.2662 5.51058 52.5751 5.96528 52.1251 6.77183C51.9509 7.0842 51.8275 7.41713 51.7422 7.76323C51.5165 8.67839 51.5176 9.60863 51.5939 10.5386C51.6418 11.1225 51.7801 11.6891 52.0606 12.2126C52.3766 12.8017 52.8425 13.2172 53.4793 13.425C54.027 13.6038 54.5897 13.6285 55.1555 13.526C56.1085 13.3532 56.7329 12.7833 57.1024 11.9054C57.4624 11.0501 57.5746 10.1503 57.5922 9.23292Z" fill="white" fill-opacity="0.9"/>
<path d="M47.8862 34.5455C46.8158 34.7021 45.7501 34.882 44.6992 35.1425C43.5481 35.4278 42.4204 35.7854 41.3177 36.2217C41.2837 36.2351 41.2516 36.253 41.2171 36.265C41.0712 36.316 41.0281 36.2837 41.0629 36.1295C41.1874 35.5791 41.2711 35.0216 41.3553 34.4649C41.4151 34.0697 41.4455 33.6701 41.491 33.2725C41.6424 31.9457 41.5933 30.6136 41.5974 29.283L41.5985 29.2816C41.669 29.3123 41.7176 29.2808 41.7573 29.2251C42.8101 28.6602 43.9077 28.1959 45.025 27.7774C46.3734 27.2722 47.7493 26.8567 49.1504 26.5249C49.1847 26.5167 49.2176 26.4969 49.2654 26.5222C49.2873 26.9064 49.2333 27.2961 49.2001 27.685C49.0854 29.0211 48.8981 30.3473 48.6206 31.6604C48.4284 32.5701 48.1999 33.4702 47.9292 34.3596C47.9109 34.4204 47.9002 34.4835 47.8862 34.5455Z" fill="white" fill-opacity="0.9"/>
<path d="M11.7838 34.5976C11.7898 34.8971 11.9248 35.1626 12.0216 35.4346C12.4815 36.7247 13.0089 37.9865 13.6479 39.1995C13.9284 39.7323 14.2298 40.2537 14.5422 40.7684C14.5836 40.8367 14.6442 40.8957 14.6524 40.9793C14.58 41.038 14.5049 41.012 14.4363 41.0122C13.9523 41.015 13.4679 41.0032 12.9842 41.0163C12.3021 41.035 11.6225 41.0926 10.943 41.1611C9.89151 41.2673 8.85212 41.4401 7.81958 41.6608C7.76692 41.6721 7.7107 41.6655 7.65585 41.6671C7.63748 41.5731 7.56618 41.5119 7.5127 41.4412C5.96732 39.3936 4.70442 37.1821 3.68148 34.8316C3.67051 34.8066 3.66037 34.7811 3.65049 34.7556C3.577 34.5696 3.57727 34.5705 3.7846 34.5472C5.36426 34.3689 6.94885 34.2905 8.53838 34.3272C9.56982 34.3511 10.5977 34.424 11.6212 34.5543C11.6656 34.6069 11.7235 34.6116 11.7857 34.5998L11.7838 34.5976Z" fill="white" fill-opacity="0.9"/>
<path d="M47.0193 46.6586C47.5365 46.2856 48.0159 45.8668 48.4887 45.4404C48.7051 45.2451 48.9226 45.051 49.131 44.8472C50.0961 43.9035 50.9843 42.8907 51.8164 41.8286C51.8729 41.7564 51.9138 41.6723 52.0188 41.6621C52.8777 41.8299 53.7175 42.0721 54.5517 42.3324C56.2408 42.8595 57.8734 43.5281 59.458 44.3143C59.5139 44.342 59.5671 44.3758 59.625 44.4084C59.6055 44.5027 59.5331 44.5477 59.4802 44.6039C57.7138 46.4759 55.7669 48.1343 53.6157 49.5505C53.5447 49.5974 53.4377 49.6141 53.4306 49.7296C53.3988 49.7296 53.367 49.7296 53.3352 49.7299C53.3261 49.629 53.2381 49.607 53.1704 49.5648C51.8789 48.7577 50.5337 48.0537 49.1282 47.4682C48.441 47.1819 47.7515 46.8972 47.0267 46.7132C47.0242 46.6948 47.0218 46.6767 47.0193 46.6586Z" fill="white" fill-opacity="0.9"/>
<path d="M18.0292 29.3203C17.9908 29.4807 17.9798 29.6434 17.9806 29.8085C17.9839 30.3652 17.9592 30.9233 17.9878 31.4784C18.022 32.1407 18.0558 32.8032 18.1257 33.4642C18.1995 34.1608 18.3015 34.8521 18.417 35.5421C18.46 35.7999 18.5135 36.0558 18.562 36.3122C18.4724 36.3544 18.4063 36.3051 18.3459 36.2801C17.0216 35.7286 15.6487 35.3386 14.249 35.0372C13.494 34.8746 12.7338 34.7383 11.9659 34.6497C11.9009 34.6423 11.8414 34.6248 11.7832 34.5974L11.7854 34.5998C11.7832 34.5787 11.781 34.5573 11.7788 34.5362C11.3447 33.1238 11.0046 31.6887 10.7644 30.2308C10.6059 29.2679 10.4822 28.3004 10.4109 27.3265C10.3912 27.0553 10.3429 26.7849 10.3651 26.498C11.142 26.6711 11.8946 26.882 12.6419 27.1113C14.4294 27.6595 16.1621 28.3456 17.8303 29.1925C17.8945 29.2251 17.9631 29.2493 18.0297 29.2773C18.0314 29.2921 18.0308 29.3063 18.0292 29.3203Z" fill="white" fill-opacity="0.9"/>
<path d="M53.3348 49.7288C53.3666 49.7288 53.3984 49.7288 53.4302 49.7285L53.4349 49.7318C53.4552 49.7469 53.4754 49.7617 53.4957 49.7768C53.8646 49.9759 54.2066 50.2159 54.5392 50.4693C54.5469 50.4813 54.5579 50.4898 54.5716 50.4948C54.5716 50.4948 54.5875 50.5041 54.5872 50.5041C54.6056 50.5181 54.6237 50.5318 54.6421 50.5458C54.7493 50.5902 54.8393 50.6599 54.9213 50.7402C54.9295 50.7539 54.9413 50.7635 54.9564 50.769C54.9564 50.769 54.9706 50.7778 54.9706 50.7775C54.9887 50.7915 55.0068 50.8058 55.0249 50.82C55.3 50.9881 55.5531 51.1856 55.7969 51.3957C55.8054 51.4105 55.8175 51.4209 55.8337 51.4269L55.8471 51.436C55.8644 51.4502 55.8814 51.4645 55.8987 51.4788C56.0619 51.5769 56.2097 51.6946 56.3435 51.8298C56.3523 51.8465 56.3657 51.8583 56.3835 51.8649L56.3953 51.8737C56.4123 51.8882 56.4293 51.9027 56.4461 51.9175L56.4516 51.9219C56.4708 51.9378 56.4902 51.954 56.5094 51.9699C56.5596 51.9809 56.592 52.0149 56.6189 52.0555C56.6263 52.0692 56.6375 52.0793 56.652 52.0851L56.6668 52.0832C56.6668 52.0832 56.669 52.098 56.6688 52.098C56.6839 52.1114 56.6992 52.1249 56.7143 52.1383C56.7143 52.1383 56.7242 52.146 56.7239 52.146C56.7412 52.1611 56.7584 52.1762 56.7757 52.1912C56.8651 52.2337 56.9353 52.299 56.9968 52.3753C56.9896 52.5341 57.0736 52.5897 57.2211 52.5738C57.2919 52.6012 57.342 52.6525 57.3851 52.7126C57.3922 52.7266 57.4032 52.7367 57.4177 52.743L57.4323 52.7419L57.4334 52.7565C57.4284 52.9109 57.5066 52.9739 57.6555 52.9591C57.7833 53.0409 57.8916 53.144 57.9876 53.2605C57.9947 53.2745 58.0054 53.2847 58.0197 53.2912L58.0362 53.2918C58.0362 53.2918 58.0386 53.3082 58.0384 53.308C58.0512 53.3203 58.0644 53.3327 58.0773 53.3453L58.091 53.3579C58.1176 53.6118 58.1332 53.6266 58.4195 53.6724L58.4237 53.6763C58.4409 53.693 58.4582 53.7097 58.4755 53.7265C58.7544 53.9612 59.0103 54.219 59.2459 54.4971C59.2626 54.5144 59.2796 54.5319 59.2963 54.5492L59.2999 54.553C59.313 54.8051 59.313 54.8051 59.5615 54.827L59.5722 54.8383C59.5859 54.8525 59.5996 54.8665 59.6133 54.8808L59.6246 54.8934C59.626 54.9076 59.6271 54.9222 59.6276 54.9364C59.5802 55.0237 59.4844 55.0398 59.4071 55.0782C57.1136 56.2114 54.7244 57.0846 52.2446 57.7118C52.1489 57.7359 52.0453 57.7318 51.958 57.7883L51.9542 57.785C51.949 57.7063 51.8958 57.6553 51.8505 57.598C51.3245 56.9343 50.7788 56.2885 50.2064 55.6632C49.4542 54.8416 48.6457 54.0827 47.7964 53.3642C47.5745 53.1766 47.3274 53.0192 47.1294 52.8036C47.1302 52.7669 47.131 52.7304 47.1319 52.6937C47.8737 52.4414 48.6087 52.1709 49.3272 51.8569C50.0962 51.5207 50.8498 51.1521 51.5826 50.7432C52.1473 50.4281 52.7067 50.1034 53.2684 49.7831C53.2876 49.7669 53.3065 49.751 53.3257 49.7348L53.3348 49.7288Z" fill="white" fill-opacity="0.9"/>
<path d="M7.50447 41.7173C7.62651 41.7104 7.7022 41.7754 7.77432 41.8679C8.25151 42.4775 8.75283 43.066 9.27116 43.6414C9.72339 44.1435 10.1984 44.6224 10.6885 45.085C11.2378 45.6034 11.8052 46.1036 12.408 46.561C12.4582 46.5991 12.5152 46.6315 12.5385 46.7168C12.3655 46.8279 12.157 46.8605 11.9651 46.9269C10.4019 47.4685 8.91491 48.1736 7.48061 48.9944C7.12463 49.1982 6.76949 49.4019 6.42613 49.6263C6.3551 49.6726 6.28681 49.7113 6.20043 49.6712C4.30182 48.4747 2.56859 47.0703 0.970008 45.498C0.638993 45.1722 0.318125 44.8355 0 44.511C0.0274246 44.4178 0.099277 44.4096 0.153029 44.3827C2.45916 43.23 4.8654 42.3497 7.36899 41.7357C7.41314 41.725 7.45922 41.7233 7.50447 41.7173Z" fill="white" fill-opacity="0.9"/>
<path d="M18.0361 70.1731C18.0932 70.0892 18.1659 70.028 18.258 69.9797C19.5766 69.2914 20.8304 68.4999 22.0179 67.6039C22.5412 67.209 23.0543 66.8015 23.5345 66.3537C23.6003 66.2922 23.6571 66.2171 23.7701 66.2012C23.8773 66.3553 23.8592 66.5467 23.885 66.7179C24.0723 67.9613 24.3751 69.1767 24.7379 70.3788C24.98 71.1809 25.2672 71.9672 25.5842 72.7425C25.6149 72.8179 25.6325 72.8985 25.6563 72.9767C24.6605 74.0866 23.5614 75.0865 22.4082 76.0288C21.5245 76.7509 20.6042 77.4233 19.6569 78.0596C19.598 78.0991 19.5459 78.1528 19.4548 78.1679C19.3223 77.8314 19.239 77.4779 19.1449 77.1288C18.7198 75.551 18.4025 73.9514 18.2106 72.3281C18.1258 71.6123 18.0638 70.8938 18.0361 70.1731Z" fill="white" fill-opacity="0.9"/>
<path d="M51.9987 41.5572C51.9208 41.6247 51.8366 41.6126 51.7425 41.5926C50.9075 41.4149 50.0685 41.2638 49.2195 41.1659C48.5602 41.0899 47.9004 41.0384 47.238 40.9945C46.6454 40.9553 46.0547 40.9723 45.4634 40.9605C45.3726 40.9585 45.281 40.9651 45.1914 40.9772C45.1209 40.9868 45.0391 41.0356 44.9922 40.9572C44.9465 40.8801 45.0337 40.8253 45.0685 40.7688C46.0185 39.2278 46.7943 37.6037 47.4067 35.9009C47.5238 35.5754 47.6522 35.2531 47.7347 34.9172C47.7811 34.728 47.8576 34.5864 48.0641 34.5513C50.7169 34.2209 53.3694 34.2277 56.0178 34.5404C56.0298 34.6344 55.9923 34.6882 55.9665 34.7461C54.9172 37.1016 53.651 39.3317 52.1172 41.4069C52.079 41.4582 52.0382 41.5073 51.9987 41.5572Z" fill="white" fill-opacity="0.9"/>
<path d="M18.0293 29.32C18.0312 29.3058 18.0315 29.2915 18.0304 29.2772C18.196 26.5784 18.9244 22.51 19.4631 21.2813C19.5511 21.2786 19.6062 21.3463 19.6709 21.3891C21.7941 22.793 23.7427 24.4055 25.4828 26.2663C25.5442 26.3321 25.6188 26.3881 25.6558 26.4745C25.6536 26.5139 25.6517 26.5534 25.6495 26.5929C25.4562 27.1524 25.2247 27.6976 25.0327 28.2579C24.5975 29.5271 24.2709 30.8234 24.0202 32.1398C23.9659 32.4253 23.9368 32.7157 23.8929 33.0034C23.8806 33.0838 23.8567 33.1622 23.831 33.2725C23.6694 33.1378 23.523 33.0215 23.3826 32.8978C22.2985 31.9421 21.1266 31.107 19.8955 30.3534C19.2884 29.9823 18.6702 29.6305 18.0293 29.32Z" fill="white" fill-opacity="0.9"/>
<path d="M11.7309 64.8555C12.19 64.8725 12.6334 64.759 13.0793 64.6805C14.5603 64.42 16.011 64.0404 17.4275 63.5339C17.7865 63.4056 18.1414 63.266 18.5149 63.125C18.5292 63.4014 18.4376 63.6428 18.395 63.8896C18.2949 64.4715 18.2119 65.0551 18.134 65.6407C17.936 67.1279 17.9689 68.6214 17.9774 70.115C17.8855 70.1712 17.7972 70.2346 17.7015 70.2828C15.4326 71.4314 13.0494 72.2642 10.5815 72.8637C10.5201 72.8786 10.4586 72.8945 10.3692 72.917C10.3421 72.7477 10.3624 72.5879 10.3734 72.431C10.4968 70.6824 10.7329 68.95 11.1248 67.2401C11.2896 66.5207 11.4797 65.8079 11.693 65.1015C11.7141 65.0313 11.7399 64.9635 11.7402 64.8892L11.7471 64.8689L11.7292 64.8566L11.7309 64.8555Z" fill="white" fill-opacity="0.9"/>
<path d="M6.1905 49.7773C6.48202 49.8481 6.70169 50.0519 6.95153 50.1972C8.35512 51.0142 9.7993 51.7451 11.3252 52.3067C11.6751 52.4356 12.0286 52.5557 12.3808 52.6786C12.4321 52.6964 12.4869 52.7049 12.5245 52.7502C12.5174 52.8492 12.4351 52.8848 12.3742 52.9317C11.8976 53.2978 11.4453 53.693 11.0019 54.0981C10.8003 54.2824 10.5952 54.4631 10.4015 54.6554C9.47624 55.5735 8.61373 56.5477 7.81266 57.5758C7.75562 57.649 7.709 57.7261 7.6089 57.7425C6.58239 57.5308 5.5781 57.2371 4.58369 56.9083C3.0778 56.41 1.61772 55.7998 0.197948 55.0925C0.143373 55.0654 0.0750861 55.0547 0.0438221 54.9962C0.0317552 54.948 0.064939 54.9255 0.0885241 54.9003C1.88758 52.9838 3.87065 51.2846 6.0723 49.8445C6.11042 49.8204 6.151 49.7998 6.1905 49.7773Z" fill="white" fill-opacity="0.9"/>
<path d="M7.63724 57.846C7.91615 57.8139 8.17723 57.9156 8.44243 57.9677C9.11159 58.0994 9.78349 58.2044 10.4603 58.2861C11.1651 58.3712 11.8702 58.4279 12.58 58.4581C12.9894 58.4754 13.3986 58.4841 13.808 58.4902C13.9627 58.4924 14.1163 58.4929 14.2704 58.4586C14.3733 58.4359 14.4832 58.4359 14.6283 58.4669C13.3679 60.479 12.4067 62.6036 11.7306 64.8557L11.7295 64.8571C11.6338 64.8453 11.537 64.8266 11.455 64.9004C8.84529 65.19 6.23776 65.1842 3.60034 64.8637C3.75255 64.5299 3.88803 64.2244 4.03091 63.9219C5.00942 61.8483 6.15823 59.8754 7.52124 58.0294C7.56402 57.9713 7.59885 57.9071 7.63724 57.846Z" fill="white" fill-opacity="0.9"/>
<path d="M58.4206 53.672C58.1343 53.6262 58.1186 53.6114 58.092 53.3574C58.2187 53.4441 58.3284 53.5488 58.4206 53.672Z" fill="white" fill-opacity="0.9"/>
<path d="M59.5627 54.8267C59.3142 54.8048 59.3142 54.8048 59.301 54.5527C59.4074 54.6254 59.4916 54.7197 59.5627 54.8267Z" fill="white" fill-opacity="0.9"/>
<path d="M57.2221 52.5736C57.0745 52.5897 56.9906 52.5338 56.9977 52.375C57.0891 52.4224 57.1642 52.4883 57.2221 52.5736Z" fill="white" fill-opacity="0.9"/>
<path d="M57.6565 52.9585C57.5073 52.9733 57.4291 52.9103 57.4343 52.7559C57.5243 52.806 57.6 52.8719 57.6565 52.9585Z" fill="white" fill-opacity="0.9"/>
<path d="M11.4551 64.9002C11.5374 64.8264 11.6339 64.845 11.7296 64.8568L11.7474 64.8692L11.7406 64.8895C11.6451 64.8826 11.5513 64.9257 11.4551 64.9002Z" fill="#AEAEAE" fill-opacity="0.9"/>
<path d="M25.6494 26.5922C25.6516 26.5527 25.6535 26.5132 25.6557 26.4737C25.6886 26.4726 25.7213 26.4715 25.7542 26.4707C25.7566 26.5102 25.7591 26.5494 25.7616 26.5889C25.724 26.59 25.6867 26.5911 25.6494 26.5922Z" fill="white" fill-opacity="0.9"/>
<path d="M11.7793 34.5352C11.7815 34.5563 11.7837 34.5777 11.7859 34.5988C11.7236 34.6103 11.6658 34.6056 11.6213 34.5533C11.674 34.5472 11.7266 34.5412 11.7793 34.5352Z" fill="#AEAEAE" fill-opacity="0.9"/>
<path d="M41.7573 29.2248C41.7175 29.2805 41.6692 29.3123 41.5985 29.2813C41.5804 29.2701 41.5779 29.2564 41.5911 29.2396C41.6509 29.2868 41.7 29.2089 41.7573 29.2248Z" fill="#AEAEAE" fill-opacity="0.9"/>
<path d="M25.8158 26.3281C25.8142 26.3684 25.8065 26.4063 25.7689 26.4301C25.7626 26.386 25.7835 26.3542 25.8158 26.3281Z" fill="white" fill-opacity="0.9"/>
<path d="M55.8992 51.4786C55.8819 51.4643 55.8649 51.4501 55.8477 51.4358C55.8786 51.4333 55.8948 51.449 55.8992 51.4786Z" fill="white" fill-opacity="0.9"/>
<path d="M56.3838 51.8655C56.366 51.8589 56.3525 51.8471 56.3438 51.8304C56.3698 51.8279 56.3819 51.8411 56.3838 51.8655Z" fill="white" fill-opacity="0.9"/>
<path d="M57.4186 52.7434C57.4041 52.7371 57.3934 52.727 57.386 52.713C57.4077 52.7119 57.4183 52.722 57.4186 52.7434Z" fill="white" fill-opacity="0.9"/>
<path d="M55.8344 51.4263C55.8182 51.4202 55.8061 51.4098 55.7976 51.395C55.8215 51.392 55.8324 51.4038 55.8344 51.4263Z" fill="white" fill-opacity="0.9"/>
<path d="M58.0209 53.2905C58.0066 53.2839 57.9959 53.2735 57.9888 53.2598C58.0102 53.259 58.0209 53.2691 58.0209 53.2905Z" fill="white" fill-opacity="0.9"/>
<path d="M58.0785 53.3459C58.0656 53.3336 58.0524 53.3212 58.0396 53.3086C58.0651 53.3083 58.0777 53.3209 58.0785 53.3459Z" fill="white" fill-opacity="0.9"/>
<path d="M55.0255 50.8202C55.0074 50.806 54.9893 50.792 54.9712 50.7777C55.0027 50.7747 55.0197 50.7901 55.0255 50.8202Z" fill="white" fill-opacity="0.9"/>
<path d="M58.4766 53.726C58.4594 53.7092 58.4421 53.6925 58.4248 53.6758C58.4569 53.6772 58.4736 53.6944 58.4766 53.726Z" fill="white" fill-opacity="0.9"/>
<path d="M54.957 50.7693C54.9416 50.7639 54.9301 50.7543 54.9219 50.7405C54.943 50.7384 54.9548 50.7477 54.957 50.7693Z" fill="white" fill-opacity="0.9"/>
<path d="M54.6425 50.5461C54.6241 50.5321 54.606 50.5184 54.5876 50.5044C54.6192 50.5009 54.6367 50.5159 54.6425 50.5461Z" fill="white" fill-opacity="0.9"/>
<path d="M59.6144 54.8804C59.6007 54.8661 59.587 54.8522 59.5732 54.8379C59.6001 54.8393 59.6141 54.8532 59.6144 54.8804Z" fill="white" fill-opacity="0.9"/>
<path d="M59.6288 54.9356C59.6279 54.9214 59.6268 54.9068 59.6257 54.8926C59.6477 54.8934 59.657 54.9044 59.6493 54.9238C59.6469 54.9296 59.6359 54.9318 59.6288 54.9356Z" fill="white" fill-opacity="0.9"/>
<path d="M54.5719 50.495C54.5582 50.4901 54.5472 50.4816 54.5396 50.4695C54.5596 50.466 54.5705 50.4745 54.5719 50.495Z" fill="white" fill-opacity="0.9"/>
<path d="M53.4959 49.7774C53.4756 49.7623 53.4554 49.7475 53.4351 49.7324C53.466 49.7332 53.4872 49.747 53.4959 49.7774Z" fill="white" fill-opacity="0.9"/>
<path d="M56.4467 51.917C56.4297 51.9025 56.4127 51.8877 56.396 51.8731C56.4267 51.8718 56.4426 51.8874 56.4467 51.917Z" fill="white" fill-opacity="0.9"/>
<path d="M56.51 51.9699C56.4908 51.954 56.4713 51.9378 56.4521 51.9219C56.484 51.9227 56.5032 51.9386 56.51 51.9699Z" fill="white" fill-opacity="0.9"/>
<path d="M56.6526 52.0845C56.6378 52.0784 56.6268 52.0686 56.6194 52.0549C56.6405 52.0532 56.6517 52.0631 56.6526 52.0845Z" fill="white" fill-opacity="0.9"/>
<path d="M56.7152 52.1381C56.6998 52.1246 56.6848 52.1112 56.6697 52.0977C56.6982 52.0964 56.7122 52.1112 56.7152 52.1381Z" fill="white" fill-opacity="0.9"/>
<path d="M56.7769 52.1918C56.7597 52.1767 56.7424 52.1616 56.7251 52.1465C56.7564 52.1454 56.7728 52.1613 56.7769 52.1918Z" fill="white" fill-opacity="0.9"/>
<path d="M59.2975 54.5482C59.2808 54.5309 59.2638 54.5134 59.2471 54.4961C59.2792 54.4986 59.2959 54.5161 59.2975 54.5482Z" fill="white" fill-opacity="0.9"/>
<path d="M47.0191 46.6583C47.0216 46.6764 47.024 46.6945 47.0265 46.7126C46.6985 46.9426 46.3713 47.1741 46.042 47.4026C44.9743 48.1433 43.84 48.765 42.6506 49.2866C42.3298 49.4273 42.007 49.5636 41.6228 49.7287C42.6383 50.0943 43.5595 50.5276 44.4464 51.0289C45.3306 51.5286 46.1843 52.0768 47.0229 52.758C45.0097 53.397 43.0168 53.7398 40.9649 53.7423C40.9731 53.829 41.017 53.8493 41.0491 53.8783C41.278 54.0876 41.512 54.2916 41.7355 54.5063C42.5327 55.2726 43.2663 56.0959 43.9358 56.9759C44.2945 57.4476 44.6455 57.9248 44.9392 58.4412C44.9258 58.4464 44.9124 58.4511 44.8986 58.4558C44.4264 58.4327 43.9561 58.3894 43.4855 58.3417C42.8969 58.2819 42.3158 58.1845 41.7352 58.077C40.839 57.9114 39.9647 57.664 39.0992 57.3818C39.0427 57.3634 38.984 57.3168 38.9206 57.3964C38.9785 57.5746 39.0972 57.7271 39.185 57.8952C39.5953 58.6795 39.9551 59.4861 40.2554 60.3182C40.5831 61.2262 40.8574 62.1504 41.0488 63.0976C41.031 63.1007 41.0134 63.1042 40.9958 63.1081C40.7729 62.9657 40.5222 62.8815 40.2842 62.7713C38.88 62.1211 37.5549 61.3384 36.3205 60.4037C36.1409 60.2677 35.967 60.1237 35.7369 59.9405C35.761 60.5025 35.8611 60.9961 35.9042 61.4944C35.9481 62.0045 35.9593 62.5143 35.959 63.025C35.959 63.5274 35.9804 64.032 35.9396 64.5314C35.8984 65.0344 35.8968 65.5456 35.7577 66.0853C34.9783 65.3755 34.2749 64.6425 33.6266 63.8565C32.9824 63.0754 32.4109 62.242 31.8492 61.3205C31.6243 62.3739 31.3805 63.3593 31.0399 64.3175C30.7012 65.2702 30.3016 66.1961 29.811 67.1521C29.4438 66.5219 29.1898 65.9037 28.9307 65.288C28.6649 64.6567 28.4488 64.0076 28.2503 63.353C28.0547 62.7082 27.9001 62.0522 27.7649 61.3216C27.4596 61.7879 27.1944 62.2157 26.9062 62.6268C26.6133 63.0447 26.3053 63.4522 25.979 63.8458C25.6526 64.2393 25.3032 64.6118 24.9623 64.9921C24.6209 65.3733 24.246 65.7159 23.8228 66.0889C23.5291 64.0199 23.5609 61.9987 23.8983 59.9167C23.0571 60.5872 22.2333 61.1936 21.3502 61.7133C20.4705 62.231 19.566 62.6989 18.576 63.1009C19.0213 61.0619 19.7215 59.168 20.7058 57.3629C20.0484 57.5381 19.4102 57.7389 18.7594 57.8947C18.0949 58.0534 17.425 58.1829 16.7487 58.2734C16.0836 58.3622 15.4169 58.444 14.6965 58.4431C15.8316 56.6765 17.1471 55.1215 18.7098 53.7626C17.6789 53.7354 16.6713 53.6236 15.6676 53.4612C14.671 53.3002 13.6936 53.066 12.7197 52.7731C12.9062 52.4961 14.346 51.5322 15.2453 51.0355C16.1377 50.5424 17.0654 50.1266 18.0683 49.7164C16.0842 48.9847 14.3178 48.0007 12.6575 46.7172C13.6651 46.3843 14.6562 46.1558 15.664 45.9866C16.6694 45.818 17.6803 45.7244 18.7616 45.7181C18.2535 45.2012 17.7318 44.7764 17.2859 44.2764C16.8309 43.7658 16.3683 43.2623 15.9514 42.7187C15.5425 42.1856 15.1413 41.6478 14.7626 41.014C16.8573 41.1064 18.8379 41.4736 20.816 42.168C20.4897 41.5263 20.1641 40.9345 19.8978 40.3141C19.6274 39.685 19.3877 39.0455 19.1744 38.3949C18.9613 37.7455 18.7989 37.0838 18.6256 36.3658C20.5728 37.1329 22.309 38.1736 23.9323 39.4459C23.8632 38.774 23.7754 38.1127 23.7433 37.4485C23.7101 36.7648 23.7277 36.0787 23.7293 35.3936C23.7312 34.7187 23.8056 34.0498 23.8944 33.3867C23.9964 33.3532 24.0444 33.4182 24.0935 33.4657C24.7841 34.1307 25.4519 34.8163 26.0579 35.562C26.6747 36.3208 27.2476 37.109 27.7407 37.9542C27.7591 37.9855 27.7794 38.0168 27.8556 38.0253C28.2193 36.0293 28.9131 34.1414 29.8543 32.2773C30.829 34.1419 31.4954 36.0639 31.9106 38.0914C32.4608 37.2225 33.0408 36.3886 33.6817 35.5985C34.3265 34.8037 35.0436 34.0764 35.8101 33.354C35.8603 33.4769 35.8809 33.5863 35.8935 33.6988C36.0013 34.6611 36.0312 35.6267 36.0142 36.5942C36.0095 36.8592 36.0221 37.1252 36.0007 37.3887C35.9629 37.8602 35.9418 38.3332 35.8628 38.8011C35.8252 39.0241 35.8079 39.2506 35.7786 39.501C35.9357 39.453 36.0246 39.3452 36.1239 39.2651C37.4183 38.2238 38.8367 37.386 40.3385 36.6842C40.5285 36.5953 40.7211 36.5117 40.9144 36.4305C41.0063 36.3919 41.06 36.4281 41.0441 36.5298C41.0257 36.6464 41 36.7624 40.9714 36.877C40.5247 38.6739 39.8876 40.3964 38.9659 42.0079C38.9483 42.0386 38.9371 42.0731 38.9014 42.1554C39.9008 41.8131 40.8727 41.5249 41.8718 41.3406C42.8717 41.1561 43.8752 41.0099 44.9444 41.0055C44.3987 41.9174 43.791 42.722 43.1372 43.491C42.4872 44.2553 41.7706 44.9566 40.9832 45.6452C41.1571 45.6965 41.2934 45.7253 41.4352 45.7198C41.8652 45.7028 42.2925 45.7491 42.7178 45.7914C43.3782 45.8566 44.035 45.9562 44.6872 46.0851C45.4384 46.2337 46.1802 46.4161 46.9102 46.6473C46.9445 46.6574 46.9829 46.6547 47.0191 46.6583ZM27.6776 55.484L27.6746 55.4807C27.6968 55.6 27.6768 55.7174 27.6595 55.8348C27.586 56.3315 27.5279 56.8295 27.5131 57.3316C27.4827 58.3548 27.487 59.3772 27.6307 60.3933C27.6664 60.6459 27.6749 60.9061 27.778 61.1952C28.7584 59.5023 29.4205 57.7416 29.7984 55.863C30.1804 57.7455 30.8391 59.5157 31.8215 61.2171C31.9375 60.8721 31.9501 60.5697 31.9869 60.2732C32.1846 58.69 32.1531 57.1092 31.9145 55.5246C32.4342 56.3232 32.9667 57.1046 33.5876 57.8228C34.2044 58.5364 34.8596 59.2075 35.6184 59.779C35.3228 57.8944 34.6813 56.1387 33.7887 54.4636C34.5513 55.0507 35.3351 55.5841 36.1645 56.0487C36.9946 56.5138 37.8516 56.9205 38.8071 57.2502C38.4615 56.6452 38.1141 56.1203 37.7403 55.6132C37.3607 55.0984 36.9472 54.6119 36.5196 54.1358C36.106 53.6751 35.6313 53.2758 35.2136 52.8134C36.1263 53.1069 37.0456 53.3296 37.9797 53.4936C39.0114 53.6746 40.4986 53.7722 40.8022 53.6704C40.0651 53.0534 39.2909 52.5087 38.4725 52.0244C37.6596 51.5431 36.8045 51.1485 35.9382 50.7659C36.3243 50.7237 36.7034 50.7168 37.0807 50.6875C37.4622 50.6579 37.8428 50.6162 38.2213 50.5547C38.5904 50.495 38.9593 50.4357 39.3227 50.3471C39.6945 50.2564 40.0667 50.1656 40.435 50.0619C40.7943 49.961 41.1519 49.8516 41.5424 49.6881C39.7028 49.0085 37.8513 48.6789 35.942 48.6106C37.7224 47.9044 39.3399 46.947 40.7822 45.6918C38.857 45.6682 36.9908 45.9751 35.1668 46.5886C35.8773 45.951 36.5388 45.2758 37.1452 44.5479C37.8538 43.6972 38.6604 42.4837 38.727 42.1568C36.9244 42.8136 35.2962 43.7491 33.8027 44.9343C34.7173 43.2422 35.3458 41.4649 35.6947 39.5166C34.1671 40.7971 32.9371 42.247 31.9205 43.8881C32.0384 42.9359 32.1259 41.9928 32.1138 41.0425C32.1018 40.0876 32.0201 39.1401 31.8259 38.1991C30.8523 39.8306 30.2092 41.58 29.8294 43.4424C29.4449 41.5625 28.7905 39.7931 27.8024 38.149C27.4462 40.036 27.4284 41.9226 27.7086 43.8193C26.7049 42.1941 25.4988 40.7592 24.0173 39.5536C24.3094 41.4383 24.9393 43.1992 25.8501 44.8724C24.3478 43.6884 22.7143 42.7577 20.9114 42.1225C21.8455 43.8003 23.0547 45.2467 24.4841 46.5252C22.6694 45.9257 20.8179 45.6079 18.9073 45.6364C20.3495 46.8966 21.9829 47.8301 23.7493 48.5541C21.8258 48.6221 19.9645 48.9515 18.1682 49.6374C19.9675 50.3016 21.8176 50.6738 23.7425 50.7031C21.9415 51.4109 20.3111 52.384 18.845 53.6403C20.7543 53.6444 22.6129 53.3641 24.4295 52.7556C22.9954 54.0314 21.803 55.4873 20.8706 57.1591C22.6886 56.5179 24.3423 55.5915 25.8402 54.3796C24.9116 56.0783 24.2817 57.8681 23.9482 59.7724C24.0343 59.773 24.0614 59.7318 24.0952 59.7033C25.0186 58.9212 25.8416 58.0441 26.579 57.0851C26.9745 56.5711 27.3165 56.021 27.6776 55.484Z" fill="#888888" fill-opacity="0.9"/>
<path d="M44.9392 58.4416C44.6455 57.9252 44.2945 57.448 43.9358 56.9763C43.2663 56.0962 42.5327 55.2729 41.7355 54.5067C41.512 54.2919 41.278 54.0876 41.049 53.8787C41.017 53.8493 40.9731 53.8293 40.9648 53.7426C43.017 53.7402 45.0097 53.3971 47.0229 52.7584C46.184 52.0771 45.3303 51.5289 44.4464 51.0292C43.5598 50.5279 42.6383 50.0949 41.6228 49.729C42.007 49.564 42.3298 49.4277 42.6506 49.287C43.84 48.7653 44.9743 48.1436 46.042 47.4029C46.3711 47.1744 46.6982 46.943 47.0265 46.7129C47.7513 46.8969 48.4408 47.1816 49.128 47.4679C50.5333 48.0534 51.8787 48.7577 53.1702 49.5645C53.2376 49.6067 53.3259 49.6284 53.335 49.7296L53.327 49.7351C53.3078 49.7513 53.2889 49.7672 53.2697 49.7833C52.7081 50.1037 52.1486 50.4284 51.5839 50.7435C50.8509 51.1527 50.0975 51.5212 49.3285 51.8572C48.6103 52.1712 47.8753 52.4416 47.1332 52.6939C47.1104 52.7005 47.0712 52.7024 47.0674 52.7148C47.052 52.7649 47.0931 52.7852 47.1307 52.8039C47.3287 53.0194 47.5761 53.1769 47.7977 53.3644C48.647 54.0827 49.4558 54.8415 50.2078 55.6635C50.7801 56.2887 51.3259 56.9346 51.8519 57.5983C51.8974 57.6556 51.9506 57.7066 51.9555 57.7853C51.6939 57.7527 51.4531 57.8593 51.2049 57.9062C50.3654 58.0645 49.5227 58.189 48.6739 58.2894C47.4316 58.4364 46.187 58.4602 44.9392 58.4416Z" fill="#AEAEAE" fill-opacity="0.9"/>
<path d="M41.049 63.0978C40.8576 62.1505 40.5834 61.2263 40.2557 60.3183C39.9551 59.4862 39.5955 58.6794 39.1853 57.8953C39.0975 57.7275 38.9788 57.5747 38.9209 57.3965C38.9842 57.3169 39.0429 57.3636 39.0994 57.3819C39.965 57.6639 40.8392 57.9112 41.7355 58.0771C42.3161 58.1846 42.8975 58.2817 43.4857 58.3418C43.9563 58.3898 44.4267 58.4328 44.8989 58.4559C45.1249 58.8508 45.3487 59.2471 45.5771 59.6406C46.0631 60.4768 46.4736 61.35 46.8557 62.2372C47.1798 62.99 47.4631 63.7584 47.7171 64.5375C47.7341 64.5894 47.7538 64.6407 47.7675 64.6936C47.8021 64.8269 47.7736 64.8628 47.6381 64.8425C47.2791 64.7888 46.9198 64.7361 46.5625 64.673C45.542 64.4931 44.5322 64.268 43.5348 63.9847C42.711 63.7507 41.9072 63.4617 41.111 63.1488C41.0869 63.1394 41.0693 63.115 41.049 63.0978Z" fill="#AEAEAE" fill-opacity="0.9"/>
<path d="M47.1306 52.8033C47.093 52.7847 47.0519 52.7647 47.0673 52.7142C47.0711 52.7016 47.1103 52.6999 47.1331 52.6934C47.1323 52.7301 47.1314 52.7669 47.1306 52.8033Z" fill="white" fill-opacity="0.9"/>
<path d="M53.2695 49.7826C53.2887 49.7665 53.3077 49.7503 53.3268 49.7344C53.3077 49.7506 53.2887 49.7665 53.2695 49.7826Z" fill="white" fill-opacity="0.9"/>
<path d="M27.6778 55.4841C27.6825 55.4775 27.6896 55.4643 27.6912 55.4649C27.7061 55.4709 27.7003 55.4772 27.6751 55.4808C27.6748 55.4808 27.6778 55.4841 27.6778 55.4841Z" fill="#888888" fill-opacity="0.9"/>
</g>
<defs>
<clipPath id="clip0_826_2352">
<rect width="59.6883" height="80" fill="white"/>
</clipPath>
</defs>
</svg>
