<svg width="50" height="50" viewBox="0 0 50 50" fill="none" xmlns="http://www.w3.org/2000/svg">
<path d="M28.05 22.7003C28.05 20.7503 28.05 18.8169 28.05 16.8669C28.05 15.8836 28.2166 15.7003 29.2 15.6503C31.9166 15.4836 34.6 15.0836 37.25 14.4003C38.9333 13.9669 40.5666 13.4336 42.15 12.7003C42.65 12.4669 42.8166 12.1503 42.7 11.7336C42.55 11.2336 42.1 11.0336 41.5666 11.2503C39.5333 12.1169 37.4166 12.7336 35.25 13.2003C30.7833 14.1336 26.2666 14.4169 21.7166 14.2503C18.0666 14.1003 14.4666 13.6503 10.9333 12.6836C9.58331 12.3169 8.26664 11.8669 6.98331 11.3169C6.39997 11.0669 5.98331 11.2003 5.78331 11.6669C5.59997 12.1169 5.79997 12.5003 6.34997 12.7503C9.21664 14.0503 12.2166 14.7836 15.3166 15.2669C16.7333 15.4836 18.1666 15.6003 19.5833 15.7169C20.1666 15.7669 20.4 16.0336 20.4 16.6003C20.4 20.6336 20.45 24.6503 20.3666 28.6836C20.35 29.9669 19.9833 31.2669 19.7833 32.5503C19 37.2503 18.2166 41.9669 17.4333 46.6669C17.4 46.8503 17.3666 47.0503 17.3333 47.2336C17.2333 47.7169 16.9 48.0003 16.4666 47.9336C16.0166 47.8669 15.7333 47.4836 15.8166 46.9836C16.05 45.5836 16.2833 44.2003 16.5166 42.8003C17.2 38.6669 17.8666 34.5169 18.5833 30.3836C18.8166 29.0669 18.85 27.7669 18.85 26.4503C18.8333 23.5169 18.8333 20.5836 18.85 17.6669C18.85 17.3169 18.7666 17.2003 18.4 17.1669C13.9833 16.8003 9.68331 15.9669 5.61664 14.1336C4.43331 13.5336 3.89997 12.3336 4.33331 11.1503C4.79997 9.90026 6.13331 9.28359 7.36664 9.80026C10.0666 10.9503 12.9 11.6836 15.7833 12.1336C19.3 12.6836 22.8333 12.8336 26.4 12.7003C29.9166 12.5669 33.4 12.1336 36.8166 11.2336C38.2166 10.8669 39.5833 10.4003 40.9166 9.85026C42.2333 9.30026 43.55 9.78359 44.0666 11.0169C44.6 12.2336 44.0333 13.5169 42.7333 14.1003C39.45 15.5836 35.9666 16.3836 32.4166 16.8669C31.5833 16.9836 30.7333 17.0669 29.9 17.1336C29.6833 17.1503 29.5666 17.1836 29.5666 17.4503C29.5833 21.2169 29.5166 25.0003 29.6 28.7669C29.6333 30.2169 30.05 31.6503 30.2833 33.1003C31.05 37.7169 31.8333 42.3169 32.6 46.9336C32.6833 47.4336 32.4333 47.8336 31.9833 47.9169C31.55 48.0003 31.1666 47.7169 31.0833 47.2003C30.45 43.4003 29.8166 39.6169 29.1666 35.8169C28.8 33.6336 28.4333 31.4503 28.0833 29.2836C28.05 29.0503 28.0166 28.8169 28.0166 28.5669C28.05 26.6169 28.05 24.6503 28.05 22.7003Z" fill="#29343A"/>
<path d="M24.1834 33.5827C23.7501 35.216 23.3334 36.866 22.9001 38.4993C22.1501 41.366 21.4168 44.216 20.6668 47.0827C20.6001 47.3493 20.5501 47.616 20.3001 47.7827C20.0168 47.966 19.7334 47.9993 19.4501 47.7993C19.1334 47.5827 19.0334 47.266 19.1334 46.8827C19.5834 45.216 20.0001 43.5327 20.4334 41.8493C21.4168 38.066 22.4001 34.2827 23.3834 30.516C23.5501 29.8493 23.7501 29.666 24.2334 29.666C24.6834 29.666 24.9001 29.916 25.0168 30.3493C25.6501 32.8327 26.3168 35.3327 26.9668 37.816C27.7501 40.816 28.5334 43.816 29.3001 46.7993C29.4501 47.3827 29.2668 47.7993 28.8168 47.916C28.3668 48.0327 28.0001 47.766 27.8501 47.1827C26.6834 42.716 25.5168 38.2494 24.3334 33.766C24.3168 33.716 24.3001 33.6494 24.2834 33.5993C24.2501 33.5827 24.2168 33.5827 24.1834 33.5827Z" fill="#29353B"/>
<path d="M28.8166 6.66651C28.7999 9.18317 26.7499 11.2498 24.2166 11.2332C21.6999 11.2332 19.6499 9.16651 19.6499 6.63317C19.6499 4.11651 21.7332 2.04984 24.2499 2.06651C26.7832 2.08317 28.8332 4.14984 28.8166 6.66651ZM21.1832 6.61651C21.1666 8.29984 22.5332 9.68317 24.2166 9.69984C25.8832 9.71651 27.2666 8.34984 27.2832 6.69984C27.2999 4.99984 25.9499 3.61651 24.2666 3.59984C22.5832 3.58317 21.1999 4.93317 21.1832 6.61651Z" fill="#29353B"/>
<path d="M44.0998 37.1669C44.0998 37.5002 43.9498 37.7169 43.7498 37.8836C40.9998 40.1336 38.2331 42.4002 35.4831 44.6502C35.0664 44.9836 34.6331 44.9502 34.3498 44.6002C34.0664 44.2502 34.1164 43.8002 34.5164 43.4669C37.2664 41.2002 40.0331 38.9502 42.7831 36.7002C43.0498 36.4836 43.3331 36.3836 43.6664 36.5502C43.9498 36.6836 44.0831 36.9169 44.0998 37.1669Z" fill="#2A363C"/>
<path d="M14.2998 44.1003C14.2998 44.6503 13.7165 45.017 13.2165 44.7836C13.0498 44.7003 12.9331 44.5836 12.8165 44.4503C10.6498 42.2836 8.46645 40.1003 6.29979 37.9336C6.16645 37.8003 6.01645 37.667 5.94979 37.4836C5.83312 37.167 5.89979 36.8836 6.13312 36.6503C6.34979 36.4336 6.63312 36.367 6.93312 36.5003C7.11645 36.567 7.24979 36.717 7.38312 36.8503C9.54979 39.017 11.7331 41.2003 13.8998 43.367C14.0998 43.5836 14.2998 43.7836 14.2998 44.1003Z" fill="#2A363C"/>
<path d="M43.9668 45.3328C44.4834 45.3161 44.8334 45.5828 44.8668 46.0161C44.9001 46.4328 44.6168 46.7828 44.1334 46.8494C42.0501 47.1494 39.9834 47.4328 37.9001 47.7161C37.5001 47.7661 37.1168 47.8328 36.7168 47.8828C36.1834 47.9494 35.7834 47.6994 35.7001 47.2494C35.6334 46.7994 35.9334 46.4494 36.4834 46.3661C38.8834 46.0161 41.3001 45.6828 43.7001 45.3328C43.8001 45.3494 43.9001 45.3494 43.9668 45.3328Z" fill="#2A363C"/>
<path d="M6.0166 45.334C6.89994 45.484 7.8666 45.6507 8.84994 45.8173C9.9166 46.0007 10.9833 46.184 12.0333 46.384C12.5666 46.484 12.8666 46.8673 12.7666 47.3173C12.6666 47.7673 12.2666 47.984 11.7333 47.9007C9.79994 47.5673 7.84994 47.2173 5.9166 46.884C5.39994 46.8006 5.09994 46.4507 5.14994 46.0173C5.18327 45.6007 5.49994 45.334 6.0166 45.334Z" fill="#2A363C"/>
<path d="M11.2333 20.4334C11.2333 20.7001 11.2499 20.9668 11.2333 21.2334C11.1999 21.6501 10.8666 21.9334 10.4666 21.9334C10.0666 21.9334 9.73327 21.6334 9.7166 21.2168C9.69993 20.6834 9.69993 20.1334 9.7166 19.6001C9.73327 19.1834 10.0666 18.8834 10.4499 18.8834C10.8666 18.8668 11.1999 19.1834 11.2333 19.6168C11.2499 19.8834 11.2499 20.1501 11.2333 20.4334Z" fill="#2A363C"/>
<path d="M8.18324 23.4667C7.93324 23.4667 7.68324 23.4833 7.41657 23.4667C6.96657 23.4333 6.6499 23.1333 6.6499 22.7167C6.6499 22.3 6.9499 21.9667 7.38324 21.95C7.8999 21.9333 8.43324 21.9333 8.9499 21.95C9.3999 21.9667 9.6999 22.3 9.6999 22.7167C9.6999 23.1333 9.38324 23.4333 8.93324 23.4667C8.6999 23.4833 8.43324 23.4667 8.18324 23.4667Z" fill="#2A363C"/>
<path d="M12.7667 23.4665C12.5 23.4665 12.2333 23.4832 11.9667 23.4665C11.55 23.4332 11.2667 23.0998 11.25 22.7165C11.25 22.3165 11.5333 21.9832 11.95 21.9665C12.4833 21.9332 13.0333 21.9498 13.5667 21.9665C14 21.9832 14.3167 22.3332 14.3 22.7498C14.2833 23.1498 14 23.4498 13.5667 23.4832C13.5333 23.4832 13.5 23.4832 13.4667 23.4832C13.2333 23.4665 13 23.4665 12.7667 23.4665Z" fill="#2A363C"/>
<path d="M9.71664 24.9501C9.71664 24.7168 9.69997 24.4668 9.71664 24.2335C9.7333 23.7835 10.05 23.4668 10.4666 23.4668C10.8833 23.4668 11.2166 23.7668 11.2333 24.2001C11.25 24.7168 11.25 25.2501 11.2333 25.7668C11.2166 26.2168 10.8833 26.5168 10.4666 26.5168C10.05 26.5168 9.7333 26.2001 9.71664 25.7501C9.69997 25.4835 9.71664 25.2168 9.71664 24.9501Z" fill="#2A363C"/>
<path d="M37.2333 26.533C37.2333 26.783 37.2499 27.033 37.2333 27.2996C37.1999 27.7496 36.8999 28.0496 36.4833 28.0663C36.0666 28.0663 35.7333 27.7663 35.7166 27.3163C35.6999 26.7996 35.6999 26.2663 35.7166 25.7496C35.7333 25.2996 36.0833 24.9996 36.4833 25.0163C36.8833 25.033 37.1999 25.3163 37.2166 25.733C37.2499 25.983 37.2333 26.2496 37.2333 26.533Z" fill="#2A363C"/>
<path d="M34.1666 28.0504C34.4166 28.0504 34.6666 28.0337 34.9332 28.0504C35.3832 28.0837 35.6999 28.3837 35.6999 28.8004C35.6999 29.217 35.3999 29.5504 34.9666 29.567C34.4499 29.5837 33.9166 29.5837 33.3999 29.567C32.9499 29.5504 32.6499 29.217 32.6499 28.8004C32.6499 28.3837 32.9666 28.0837 33.4166 28.0504C33.6666 28.0337 33.9166 28.0504 34.1666 28.0504Z" fill="#2A363C"/>
<path d="M38.7164 29.5839C38.4664 29.5839 38.1998 29.6005 37.9498 29.5839C37.5164 29.5505 37.1998 29.2172 37.2164 28.8005C37.2331 28.4005 37.5331 28.0839 37.9498 28.0672C38.4831 28.0505 39.0331 28.0505 39.5664 28.0672C39.9831 28.0839 40.2664 28.4172 40.2664 28.8172C40.2664 29.2172 39.9664 29.5339 39.5664 29.5672C39.2998 29.6005 38.9998 29.5839 38.7164 29.5839Z" fill="#2A363C"/>
<path d="M37.2167 31.1162C37.2167 31.3828 37.2333 31.6495 37.2167 31.9162C37.1833 32.3328 36.85 32.6162 36.45 32.6162C36.05 32.6162 35.7167 32.3162 35.7 31.8995C35.6833 31.3662 35.6833 30.8162 35.7 30.2828C35.7167 29.8662 36.0333 29.5662 36.4333 29.5495C36.85 29.5328 37.1833 29.8328 37.2167 30.2828C37.25 30.5828 37.2333 30.8495 37.2167 31.1162C37.2333 31.1162 37.2167 31.1162 37.2167 31.1162Z" fill="#2A363C"/>
<path d="M34.9499 5.11682C34.5333 5.11682 34.1833 4.80016 34.1666 4.38349C34.1499 3.95016 34.4999 3.58349 34.9333 3.60016C35.3499 3.60016 35.6833 3.95016 35.6833 4.36682C35.6999 4.76682 35.3666 5.11682 34.9499 5.11682Z" fill="#303B41"/>
<path d="M13.55 8.18323C13.1334 8.18323 12.7834 7.86656 12.7667 7.4499C12.75 7.01656 13.1 6.6499 13.5334 6.66656C13.95 6.66656 14.2834 7.01656 14.2834 7.43323C14.3 7.83323 13.9667 8.16656 13.55 8.18323Z" fill="#303B41"/>
<path d="M35.6999 19.6324C35.7165 20.049 35.3832 20.399 34.9665 20.4157C34.5499 20.4324 34.1999 20.099 34.1832 19.699C34.1665 19.2657 34.4999 18.899 34.9332 18.899C35.3499 18.8824 35.6832 19.2157 35.6999 19.6324Z" fill="#303B41"/>
<path d="M41.0499 23.4664C40.6332 23.4664 40.2999 23.1331 40.2832 22.7164C40.2832 22.2998 40.6165 21.9498 41.0332 21.9498C41.4665 21.9331 41.8332 22.2998 41.8165 22.7331C41.7999 23.1331 41.4499 23.4664 41.0499 23.4664Z" fill="#303B41"/>
<path d="M5.89979 26.5156C6.31646 26.5156 6.64979 26.8656 6.64979 27.2823C6.64979 27.7156 6.28312 28.0656 5.84979 28.049C5.43312 28.0323 5.11646 27.6823 5.11646 27.2656C5.14979 26.849 5.48312 26.5156 5.89979 26.5156Z" fill="#303B41"/>
<path d="M14.2997 33.4322C14.2831 33.8489 13.9164 34.1656 13.5164 34.1656C13.0831 34.1489 12.7497 33.7656 12.7831 33.3489C12.8164 32.9322 13.1831 32.6156 13.5997 32.6489C13.9997 32.6656 14.3164 33.0156 14.2997 33.4322Z" fill="#303B41"/>
<path d="M4.36645 34.166C4.78312 34.166 5.11645 34.516 5.11645 34.9327C5.11645 35.366 4.74978 35.716 4.31645 35.6993C3.89979 35.6827 3.56645 35.3327 3.58312 34.916C3.61645 34.4993 3.96645 34.166 4.36645 34.166Z" fill="#303B41"/>
<path d="M46.4001 34.9333C46.4001 35.3499 46.0501 35.6833 45.6501 35.6999C45.2167 35.6999 44.8667 35.3333 44.8834 34.8999C44.9001 34.4833 45.2501 34.1499 45.6667 34.1666C46.0667 34.1666 46.4001 34.5166 46.4001 34.9333Z" fill="#303B41"/>
<path d="M2.86655 44.8658C3.28321 44.8825 3.61655 45.2325 3.59988 45.6325C3.59988 46.0658 3.21655 46.4158 2.78321 46.3825C2.36655 46.3492 2.04988 45.9992 2.06655 45.5825C2.09988 45.1825 2.44988 44.8492 2.86655 44.8658Z" fill="#303B41"/>
<path d="M46.4 45.5829C46.4167 45.1663 46.7667 44.8496 47.1834 44.8496C47.6 44.8663 47.9334 45.2163 47.9167 45.6329C47.9167 46.0663 47.5334 46.4163 47.1 46.3829C46.7 46.3663 46.3834 45.9996 46.4 45.5829Z" fill="#303B41"/>
</svg>
