<svg width="70" height="70" viewBox="0 0 70 70" fill="none" xmlns="http://www.w3.org/2000/svg">
<path d="M60.935 64.0912H5.57901C3.43001 64.0912 1.68701 62.3482 1.68701 60.1992V4.84317C1.68701 2.69417 3.43001 0.951172 5.57901 0.951172H60.935C63.084 0.951172 64.827 2.69417 64.827 4.84317V60.1992C64.827 62.3482 63.084 64.0912 60.935 64.0912Z" fill="#F5FBFF"/>
<path d="M60.9349 64.4416H5.57891C3.23741 64.4416 1.33691 62.5376 1.33691 60.1996V4.84356C1.33691 2.50206 3.24091 0.601562 5.57891 0.601562H60.9349C63.2764 0.601562 65.1769 2.50556 65.1769 4.84356V60.1996C65.1769 62.5376 63.2729 64.4416 60.9349 64.4416ZM5.57891 1.30156C3.62591 1.30156 2.03691 2.89056 2.03691 4.84356V60.1996C2.03691 62.1526 3.62591 63.7416 5.57891 63.7416H60.9349C62.8879 63.7416 64.4769 62.1526 64.4769 60.1996V4.84356C64.4769 2.89056 62.8879 1.30156 60.9349 1.30156H5.57891Z" fill="#3D8CFF"/>
<path d="M60.0111 0.951172H6.49959C3.83959 0.951172 1.68359 3.10717 1.68359 5.76717V12.5257H64.8271V5.76717C64.8271 3.10717 62.6711 0.951172 60.0111 0.951172Z" fill="#B6DEFF"/>
<path d="M64.827 12.8726H1.6835C1.491 12.8726 1.3335 12.7151 1.3335 12.5226V5.76756C1.3335 2.91856 3.6505 0.601562 6.4995 0.601562H60.011C62.86 0.601562 65.177 2.91856 65.177 5.76756V12.5261C65.177 12.7151 65.0195 12.8726 64.827 12.8726ZM2.0335 12.1726H64.477V5.76756C64.477 3.30356 62.475 1.30156 60.011 1.30156H6.4995C4.0355 1.30156 2.0335 3.30356 2.0335 5.76756V12.1726Z" fill="#3D8CFF"/>
<path d="M7.40969 7.73833C7.96253 7.73833 8.41069 7.29017 8.41069 6.73733C8.41069 6.18449 7.96253 5.73633 7.40969 5.73633C6.85685 5.73633 6.40869 6.18449 6.40869 6.73733C6.40869 7.29017 6.85685 7.73833 7.40969 7.73833Z" fill="#3D8CFF"/>
<path d="M7.40959 8.08872C6.66409 8.08872 6.05859 7.48322 6.05859 6.73772C6.05859 5.99222 6.66409 5.38672 7.40959 5.38672C8.15509 5.38672 8.76059 5.99222 8.76059 6.73772C8.76059 7.48322 8.15509 8.08872 7.40959 8.08872ZM7.40959 6.08672C7.05259 6.08672 6.75859 6.37722 6.75859 6.73772C6.75859 7.09822 7.04909 7.38872 7.40959 7.38872C7.77009 7.38872 8.06059 7.09822 8.06059 6.73772C8.06059 6.37722 7.77009 6.08672 7.40959 6.08672Z" fill="#3D8CFF"/>
<path d="M13.6885 7.73833C14.2413 7.73833 14.6895 7.29017 14.6895 6.73733C14.6895 6.18449 14.2413 5.73633 13.6885 5.73633C13.1357 5.73633 12.6875 6.18449 12.6875 6.73733C12.6875 7.29017 13.1357 7.73833 13.6885 7.73833Z" fill="#3D8CFF"/>
<path d="M13.6884 8.08872C12.9429 8.08872 12.3374 7.48322 12.3374 6.73772C12.3374 5.99222 12.9429 5.38672 13.6884 5.38672C14.4339 5.38672 15.0394 5.99222 15.0394 6.73772C15.0359 7.48322 14.4304 8.08872 13.6884 8.08872ZM13.6884 6.08672C13.3314 6.08672 13.0374 6.37722 13.0374 6.73772C13.0374 7.09822 13.3279 7.38872 13.6884 7.38872C14.0489 7.38872 14.3394 7.09822 14.3394 6.73772C14.3394 6.37722 14.0454 6.08672 13.6884 6.08672Z" fill="#3D8CFF"/>
<path d="M19.9644 7.73833C20.5172 7.73833 20.9654 7.29017 20.9654 6.73733C20.9654 6.18449 20.5172 5.73633 19.9644 5.73633C19.4115 5.73633 18.9634 6.18449 18.9634 6.73733C18.9634 7.29017 19.4115 7.73833 19.9644 7.73833Z" fill="#3D8CFF"/>
<path d="M19.9643 8.08872C19.2188 8.08872 18.6133 7.48322 18.6133 6.73772C18.6133 5.99222 19.2188 5.38672 19.9643 5.38672C20.7098 5.38672 21.3153 5.99222 21.3153 6.73772C21.3153 7.48322 20.7098 8.08872 19.9643 8.08872ZM19.9643 6.08672C19.6073 6.08672 19.3133 6.37722 19.3133 6.73772C19.3133 7.09822 19.6038 7.38872 19.9643 7.38872C20.3248 7.38872 20.6153 7.09822 20.6153 6.73772C20.6153 6.37722 20.3248 6.08672 19.9643 6.08672Z" fill="#3D8CFF"/>
<path d="M17.8675 19.9148H10.4545C10.262 19.9148 10.1045 19.7573 10.1045 19.5648C10.1045 19.3723 10.262 19.2148 10.4545 19.2148H17.8675C18.06 19.2148 18.2175 19.3723 18.2175 19.5648C18.2175 19.7573 18.06 19.9148 17.8675 19.9148Z" fill="#3D8CFF"/>
<path d="M22.8934 24.0633H15.4804C15.2879 24.0633 15.1304 23.9058 15.1304 23.7133C15.1304 23.5208 15.2879 23.3633 15.4804 23.3633H22.8934C23.0859 23.3633 23.2434 23.5208 23.2434 23.7133C23.2434 23.9058 23.0859 24.0633 22.8934 24.0633Z" fill="#3D8CFF"/>
<path d="M46.2664 24.0633H27.3314C27.1389 24.0633 26.9814 23.9058 26.9814 23.7133C26.9814 23.5208 27.1389 23.3633 27.3314 23.3633H46.2629C46.4554 23.3633 46.6129 23.5208 46.6129 23.7133C46.6129 23.9058 46.4589 24.0633 46.2664 24.0633Z" fill="#3D8CFF"/>
<path d="M22.8934 28.2059H15.4804C15.2879 28.2059 15.1304 28.0484 15.1304 27.8559C15.1304 27.6634 15.2879 27.5059 15.4804 27.5059H22.8934C23.0859 27.5059 23.2434 27.6634 23.2434 27.8559C23.2434 28.0484 23.0859 28.2059 22.8934 28.2059Z" fill="#3D8CFF"/>
<path d="M42.0142 28.2059H32.7777C32.5852 28.2059 32.4277 28.0484 32.4277 27.8559C32.4277 27.6634 32.5852 27.5059 32.7777 27.5059H42.0107C42.2032 27.5059 42.3607 27.6634 42.3607 27.8559C42.3607 28.0484 42.2067 28.2059 42.0142 28.2059Z" fill="#3D8CFF"/>
<path d="M37.0862 40.1414H29.6767C29.4842 40.1414 29.3267 39.9839 29.3267 39.7914C29.3267 39.5989 29.4842 39.4414 29.6767 39.4414H37.0897C37.2822 39.4414 37.4397 39.5989 37.4397 39.7914C37.4397 39.9839 37.2822 40.1414 37.0862 40.1414Z" fill="#3D8CFF"/>
<path d="M56.0562 40.1414H41.5277C41.3352 40.1414 41.1777 39.9839 41.1777 39.7914C41.1777 39.5989 41.3352 39.4414 41.5277 39.4414H56.0562C56.2487 39.4414 56.4062 39.5989 56.4062 39.7914C56.4062 39.9839 56.2522 40.1414 56.0562 40.1414Z" fill="#3D8CFF"/>
<path d="M37.0862 44.7898H29.6767C29.4842 44.7898 29.3267 44.6323 29.3267 44.4398C29.3267 44.2473 29.4842 44.0898 29.6767 44.0898H37.0897C37.2822 44.0898 37.4397 44.2473 37.4397 44.4398C37.4397 44.6323 37.2822 44.7898 37.0862 44.7898Z" fill="#3D8CFF"/>
<path d="M56.0562 44.7898H41.5277C41.3352 44.7898 41.1777 44.6323 41.1777 44.4398C41.1777 44.2473 41.3352 44.0898 41.5277 44.0898H56.0562C56.2487 44.0898 56.4062 44.2473 56.4062 44.4398C56.4062 44.6323 56.2522 44.7898 56.0562 44.7898Z" fill="#3D8CFF"/>
<path d="M56.0562 49.657H41.5277C41.3352 49.657 41.1777 49.4995 41.1777 49.307C41.1777 49.1145 41.3352 48.957 41.5277 48.957H56.0562C56.2487 48.957 56.4062 49.1145 56.4062 49.307C56.4062 49.4995 56.2522 49.657 56.0562 49.657Z" fill="#3D8CFF"/>
<path d="M37.0862 49.657H29.6767C29.4842 49.657 29.3267 49.4995 29.3267 49.307C29.3267 49.1145 29.4842 48.957 29.6767 48.957H37.0897C37.2822 48.957 37.4397 49.1145 37.4397 49.307C37.4397 49.4995 37.2822 49.657 37.0862 49.657Z" fill="#3D8CFF"/>
<path d="M56.0562 40.1414H41.5277C41.3352 40.1414 41.1777 39.9839 41.1777 39.7914C41.1777 39.5989 41.3352 39.4414 41.5277 39.4414H56.0562C56.2487 39.4414 56.4062 39.5989 56.4062 39.7914C56.4062 39.9839 56.2522 40.1414 56.0562 40.1414Z" fill="#3D8CFF"/>
<path d="M37.0862 54.3055H29.6767C29.4842 54.3055 29.3267 54.148 29.3267 53.9555C29.3267 53.763 29.4842 53.6055 29.6767 53.6055H37.0897C37.2822 53.6055 37.4397 53.763 37.4397 53.9555C37.4397 54.148 37.2822 54.3055 37.0862 54.3055Z" fill="#3D8CFF"/>
<path d="M56.0562 54.3055H41.5277C41.3352 54.3055 41.1777 54.148 41.1777 53.9555C41.1777 53.763 41.3352 53.6055 41.5277 53.6055H56.0562C56.2487 53.6055 56.4062 53.763 56.4062 53.9555C56.4062 54.148 56.2522 54.3055 56.0562 54.3055Z" fill="#3D8CFF"/>
<path d="M27.482 69.0482H9.97504C8.44554 69.0482 7.20654 67.8092 7.20654 66.2797V29.1552C7.20654 27.6257 8.44554 26.3867 9.97504 26.3867H27.482C29.0115 26.3867 30.2505 27.6257 30.2505 29.1552V66.2797C30.254 67.8092 29.0115 69.0482 27.482 69.0482Z" fill="#B6DEFF"/>
<path d="M27.4819 69.3986H9.97495C8.25645 69.3986 6.85645 67.9986 6.85645 66.2801V29.1556C6.85645 27.4371 8.25645 26.0371 9.97495 26.0371H27.4819C29.2004 26.0371 30.6004 27.4371 30.6004 29.1556V66.2801C30.6039 68.0021 29.2039 69.3986 27.4819 69.3986ZM9.97495 26.7371C8.64145 26.7371 7.55645 27.8221 7.55645 29.1556V66.2801C7.55645 67.6136 8.64145 68.6986 9.97495 68.6986H27.4819C28.8154 68.6986 29.9004 67.6136 29.9004 66.2801V29.1556C29.9004 27.8221 28.8154 26.7371 27.4819 26.7371H9.97495Z" fill="#3D8CFF"/>
<path d="M18.7287 26.3867H12.9292L13.9757 27.9197H18.7287H23.4852L24.5282 26.3867H18.7287Z" fill="#3D8CFF"/>
<path d="M23.4851 28.2701H13.9756C13.8601 28.2701 13.7516 28.2141 13.6851 28.1161L12.6386 26.5831C12.5651 26.4746 12.5581 26.3381 12.6176 26.2226C12.6771 26.1071 12.7961 26.0371 12.9256 26.0371H24.5281C24.6576 26.0371 24.7766 26.1106 24.8361 26.2226C24.8956 26.3381 24.8886 26.4746 24.8151 26.5831L23.7686 28.1161C23.7091 28.2106 23.6006 28.2701 23.4851 28.2701ZM14.1611 27.5701H23.2996L23.8666 26.7371H13.5906L14.1611 27.5701Z" fill="#3D8CFF"/>
<path d="M14.9242 50.8605L10.3427 48.806C10.2132 48.7465 10.1117 48.6625 10.0382 48.561C9.96469 48.456 9.92969 48.3405 9.92969 48.211V48.12C9.92969 47.9905 9.96469 47.8715 10.0382 47.77C10.1117 47.665 10.2132 47.5845 10.3427 47.525L14.9242 45.4705C14.9837 45.446 15.0467 45.4355 15.1062 45.4355C15.2357 45.4355 15.3442 45.481 15.4317 45.5685C15.5192 45.656 15.5647 45.7645 15.5647 45.8975C15.5647 45.9885 15.5367 46.076 15.4772 46.1565C15.4212 46.237 15.3442 46.2965 15.2532 46.335L11.1197 48.1725L15.2532 50.01C15.3442 50.0485 15.4212 50.108 15.4772 50.1885C15.5332 50.269 15.5647 50.3565 15.5647 50.4475C15.5647 50.577 15.5192 50.6856 15.4317 50.7766C15.3442 50.8641 15.2357 50.9095 15.1062 50.9095C15.0467 50.8955 14.9837 50.8815 14.9242 50.8605Z" fill="#3D8CFF"/>
<path d="M16.8703 52.5121C16.7828 52.4211 16.7373 52.3091 16.7373 52.1796C16.7373 52.1341 16.7478 52.0746 16.7723 52.0081L19.8138 43.1111C19.8453 43.0201 19.8978 42.9431 19.9748 42.8801C20.0518 42.8206 20.1463 42.7891 20.2618 42.7891C20.3983 42.7891 20.5138 42.8346 20.6013 42.9256C20.6888 43.0166 20.7343 43.1286 20.7343 43.2581C20.7343 43.3036 20.7238 43.3631 20.6993 43.4296L17.6578 52.3266C17.6263 52.4176 17.5738 52.4946 17.4968 52.5576C17.4198 52.6171 17.3253 52.6486 17.2098 52.6486C17.0698 52.6486 16.9578 52.6031 16.8703 52.5121Z" fill="#3D8CFF"/>
<path d="M22.0256 50.7629C21.9381 50.6754 21.8926 50.5669 21.8926 50.4339C21.8926 50.3429 21.9206 50.2554 21.9801 50.1749C22.0361 50.0944 22.1131 50.0349 22.2041 49.9964L26.3376 48.1589L22.2041 46.3214C22.1131 46.2829 22.0361 46.2234 21.9801 46.1429C21.9241 46.0624 21.8926 45.9749 21.8926 45.8839C21.8926 45.7544 21.9381 45.6459 22.0256 45.5549C22.1131 45.4674 22.2216 45.4219 22.3511 45.4219C22.4211 45.4219 22.4806 45.4324 22.5366 45.4569L27.1181 47.5114C27.2476 47.5709 27.3491 47.6549 27.4226 47.7564C27.4961 47.8614 27.5311 47.9769 27.5311 48.1064V48.1974C27.5311 48.3269 27.4961 48.4459 27.4226 48.5474C27.3491 48.6524 27.2476 48.7329 27.1181 48.7924L22.5366 50.8469C22.4841 50.8714 22.4211 50.8819 22.3511 50.8819C22.2216 50.8959 22.1131 50.8504 22.0256 50.7629Z" fill="#3D8CFF"/>
<path d="M54.6177 31.0911L66.4687 42.9421C67.1407 43.6141 68.2292 43.6141 68.8977 42.9421C69.5697 42.2701 69.5697 41.1816 68.8977 40.5131L57.0467 28.6621L54.6177 31.0911Z" fill="#F5FBFF"/>
<path d="M67.683 43.7919C67.1545 43.7919 66.6225 43.5889 66.22 43.1864L54.369 31.3354C54.2325 31.1989 54.2325 30.9784 54.369 30.8419L56.798 28.4129C56.9345 28.2764 57.155 28.2764 57.2915 28.4129L69.1425 40.2639C69.5345 40.6559 69.748 41.1739 69.748 41.7269C69.748 42.2799 69.5345 42.7979 69.1425 43.1899C68.7435 43.5924 68.2115 43.7919 67.683 43.7919ZM55.111 31.0904L66.7135 42.6929C67.2455 43.2249 68.1135 43.2249 68.649 42.6929C68.908 42.4339 69.0515 42.0909 69.0515 41.7269C69.0515 41.3629 68.908 41.0164 68.649 40.7609L57.0465 29.1549L55.111 31.0904Z" fill="#3D8CFF"/>
<path d="M51.8667 35.7577C57.308 35.7577 61.7192 31.3466 61.7192 25.9052C61.7192 20.4638 57.308 16.0527 51.8667 16.0527C46.4253 16.0527 42.0142 20.4638 42.0142 25.9052C42.0142 31.3466 46.4253 35.7577 51.8667 35.7577Z" fill="#B6DEFF"/>
<path d="M51.8666 36.1052C49.2556 36.1052 46.6411 35.1112 44.6531 33.1232C40.6736 29.1437 40.6736 22.6722 44.6531 18.6962C48.6326 14.7202 55.1041 14.7167 59.0801 18.6962C63.0596 22.6757 63.0596 29.1472 59.0801 33.1232C57.0921 35.1112 54.4776 36.1052 51.8666 36.1052ZM51.8666 16.4107C49.4341 16.4107 46.9981 17.3382 45.1466 19.1897C41.4401 22.8962 41.4401 28.9232 45.1466 32.6297C48.8531 36.3362 54.8801 36.3362 58.5866 32.6297C62.2931 28.9232 62.2931 22.8962 58.5866 19.1897C56.7316 17.3347 54.2991 16.4107 51.8666 16.4107Z" fill="#3D8CFF"/>
<path d="M49.3396 24.5914H42.6336C42.2486 24.5914 41.9336 24.2764 41.9336 23.8914C41.9336 23.5064 42.2486 23.1914 42.6336 23.1914H49.3396C49.7246 23.1914 50.0396 23.5064 50.0396 23.8914C50.0396 24.2764 49.7246 24.5914 49.3396 24.5914Z" fill="#3D8CFF"/>
<path d="M56.0561 28.6187H42.6336C42.2486 28.6187 41.9336 28.3038 41.9336 27.9187C41.9336 27.5337 42.2486 27.2188 42.6336 27.2188H56.0561C56.4411 27.2188 56.7561 27.5337 56.7561 27.9187C56.7561 28.3038 56.4446 28.6187 56.0561 28.6187Z" fill="#3D8CFF"/>
</svg>
