<svg width="55" height="55" viewBox="0 0 55 55" fill="none" xmlns="http://www.w3.org/2000/svg">
<rect width="55" height="55" fill="#2C67FF"/>
<g clip-path="url(#clip0_1229_147)">
<path d="M18.7691 40.3393C18.7109 40.3393 18.6527 40.3276 18.6062 40.3042C18.4432 40.234 18.3385 40.0819 18.3385 39.8948V35.3329C16.1622 35.2159 14.4282 33.4028 14.4282 31.1921V17.717C14.4282 15.436 16.2786 13.5762 18.548 13.5762H37.5524C39.8218 13.5762 41.6722 15.436 41.6722 17.717V31.1921C41.6722 33.473 39.8218 35.3329 37.5524 35.3329H23.9246L19.0717 40.2106C18.9902 40.2925 18.8855 40.3393 18.7691 40.3393ZM18.548 14.4535C16.7558 14.4535 15.3011 15.9156 15.3011 17.717V31.1921C15.3011 32.9934 16.7558 34.4556 18.548 34.4556H18.7691C19.0135 34.4556 19.1997 34.6544 19.1997 34.8884V38.8303L23.4242 34.5843C23.5057 34.5024 23.622 34.4556 23.7268 34.4556H37.5292C39.3214 34.4556 40.7761 32.9934 40.7761 31.1921V17.717C40.7761 15.9156 39.3214 14.4535 37.5292 14.4535H18.548Z" fill="white"/>
<path d="M24.4134 29.4839H21.7367C21.4924 29.4839 21.3062 29.2851 21.3062 29.0511V23.3195C21.3062 23.0739 21.504 22.8867 21.7367 22.8867H24.4134C24.6578 22.8867 24.844 23.0856 24.844 23.3195V29.0511C24.844 29.2851 24.6462 29.4839 24.4134 29.4839ZM22.1673 28.6066H23.9712V23.7523H22.1673V28.6066Z" fill="white"/>
<path d="M33.1303 29.484H26.4618C26.2175 29.484 26.0312 29.2851 26.0312 29.0512V23.3196C26.0312 23.2026 26.0778 23.0973 26.1593 23.0154L29.4411 19.7168C29.4644 19.6935 29.4877 19.6701 29.5226 19.6584C29.5924 19.6116 30.1976 19.2607 30.7795 19.5414C31.1868 19.7402 31.4312 20.1847 31.501 20.8632C31.501 20.8749 31.501 20.8983 31.501 20.91V22.8868H33.3979C33.9915 22.8868 34.3173 23.1558 34.4919 23.3664C34.969 23.9863 34.7363 24.9104 34.713 25.0157L33.5376 29.1681C33.5027 29.3553 33.3281 29.484 33.1303 29.484ZM26.9041 28.6067H32.8044L33.8867 24.7817C33.9333 24.5946 33.9798 24.115 33.8169 23.8927C33.7936 23.8576 33.7005 23.7524 33.4096 23.7524H31.0704C30.826 23.7524 30.6398 23.5535 30.6398 23.3196V20.9217C30.6049 20.6058 30.5118 20.3719 30.3954 20.3134C30.2907 20.2666 30.1161 20.3134 30.0114 20.3719L26.9041 23.495V28.6067Z" fill="white"/>
</g>
<defs>
<clipPath id="clip0_1229_147">
<rect width="27.5" height="27.5" fill="white" transform="translate(14.3003 13.2012)"/>
</clipPath>
</defs>
</svg>
