<svg width="70" height="70" viewBox="0 0 70 70" fill="none" xmlns="http://www.w3.org/2000/svg">
<path d="M16.2153 65.0889L17.6503 55.9609H23.2923L19.7538 65.0889H16.2153Z" fill="#B6DEFF"/>
<path d="M19.7538 65.4393H16.2153C16.1138 65.4393 16.0158 65.3938 15.9493 65.3168C15.8828 65.2398 15.8548 65.1348 15.8688 65.0333L17.3073 55.9053C17.3353 55.7338 17.4823 55.6113 17.6538 55.6113H23.2957C23.4112 55.6113 23.5198 55.6673 23.5863 55.7653C23.6528 55.8598 23.6668 55.9823 23.6248 56.0908L20.0863 65.2188C20.0268 65.3483 19.8973 65.4393 19.7538 65.4393ZM16.6248 64.7393H19.5158L22.7847 56.3113H17.9548L16.6248 64.7393Z" fill="#3D8CFF"/>
<path d="M47.8412 65.0889L46.4027 55.9609H40.7642L44.3027 65.0889H47.8412Z" fill="#B6DEFF"/>
<path d="M47.8414 65.4389H44.3029C44.1594 65.4389 44.0299 65.3514 43.9774 65.2149L40.4389 56.0869C40.3969 55.9784 40.4109 55.8594 40.4774 55.7614C40.5439 55.6669 40.6524 55.6074 40.7679 55.6074H46.4099C46.5814 55.6074 46.7284 55.7334 46.7564 55.9014L48.1949 65.0294C48.2124 65.1309 48.1809 65.2324 48.1144 65.3129C48.0479 65.3934 47.9429 65.4389 47.8414 65.4389ZM44.5409 64.7389H47.4319L46.1054 56.3109H41.2754L44.5409 64.7389Z" fill="#3D8CFF"/>
<path d="M56.2137 55.9581H7.84366C5.69466 55.9581 3.95166 54.2151 3.95166 52.0661V8.80606C3.95166 6.65706 5.69466 4.91406 7.84366 4.91406H56.2137C58.3627 4.91406 60.1057 6.65706 60.1057 8.80606V52.0661C60.1057 54.2151 58.3627 55.9581 56.2137 55.9581Z" fill="#F5FBFF"/>
<path d="M56.2136 56.3081H7.84356C5.50206 56.3081 3.60156 54.404 3.60156 52.066V8.80605C3.60156 6.46455 5.50556 4.56055 7.84356 4.56055H56.2136C58.5551 4.56055 60.4556 6.46455 60.4556 8.80605V52.066C60.4556 54.404 58.5516 56.3081 56.2136 56.3081ZM7.84356 5.26055C5.89056 5.26055 4.30156 6.84955 4.30156 8.80605V52.066C4.30156 54.0191 5.89056 55.6081 7.84356 55.6081H56.2136C58.1666 55.6081 59.7556 54.0191 59.7556 52.066V8.80605C59.7556 6.85305 58.1666 5.26055 56.2136 5.26055H7.84356Z" fill="#3D8CFF"/>
<path d="M62.965 51.8145H1.09204V57.306H62.965V51.8145Z" fill="#B6DEFF"/>
<path d="M62.9649 57.6563H1.09194C0.899443 57.6563 0.741943 57.4988 0.741943 57.3063V51.8148C0.741943 51.6223 0.899443 51.4648 1.09194 51.4648H62.9649C63.1574 51.4648 63.3149 51.6223 63.3149 51.8148V57.3063C63.3149 57.4988 63.1574 57.6563 62.9649 57.6563ZM1.44194 56.9563H62.6149V52.1648H1.44194V56.9563Z" fill="#3D8CFF"/>
<g opacity="0.5">
<path d="M16.9538 18.3158C15.9038 18.3158 15.0498 17.4618 15.0498 16.4118C15.0498 15.3618 15.9038 14.5078 16.9538 14.5078C18.0038 14.5078 18.8578 15.3618 18.8578 16.4118C18.8578 17.4618 18.0038 18.3158 16.9538 18.3158ZM16.9538 15.2078C16.2888 15.2078 15.7498 15.7468 15.7498 16.4118C15.7498 17.0768 16.2888 17.6158 16.9538 17.6158C17.6188 17.6158 18.1578 17.0768 18.1578 16.4118C18.1578 15.7468 17.6188 15.2078 16.9538 15.2078Z" fill="#3D8CFF"/>
</g>
<path d="M34.5307 18.455C36.3013 18.455 37.7367 17.0196 37.7367 15.249C37.7367 13.4783 36.3013 12.043 34.5307 12.043C32.7601 12.043 31.3247 13.4783 31.3247 15.249C31.3247 17.0196 32.7601 18.455 34.5307 18.455Z" fill="#B6DEFF"/>
<path d="M34.5306 18.805C32.5706 18.805 30.9746 17.209 30.9746 15.249C30.9746 13.289 32.5671 11.6895 34.5306 11.6895C36.4941 11.6895 38.0866 13.2855 38.0866 15.2455C38.0866 17.2055 36.4906 18.805 34.5306 18.805ZM34.5306 12.3895C32.9556 12.3895 31.6746 13.6705 31.6746 15.2455C31.6746 16.8205 32.9556 18.1015 34.5306 18.1015C36.1056 18.1015 37.3866 16.8205 37.3866 15.2455C37.3866 13.6705 36.1056 12.3895 34.5306 12.3895Z" fill="#3D8CFF"/>
<path d="M34.5307 16.4099C35.1724 16.4099 35.6927 15.8897 35.6927 15.2479C35.6927 14.6062 35.1724 14.0859 34.5307 14.0859C33.8889 14.0859 33.3687 14.6062 33.3687 15.2479C33.3687 15.8897 33.8889 16.4099 34.5307 16.4099Z" fill="#B6DEFF"/>
<path d="M34.5306 16.7603C33.6976 16.7603 33.0186 16.0813 33.0186 15.2483C33.0186 14.4153 33.6976 13.7363 34.5306 13.7363C35.3636 13.7363 36.0426 14.4153 36.0426 15.2483C36.0426 16.0813 35.3636 16.7603 34.5306 16.7603ZM34.5306 14.4328C34.0826 14.4328 33.7186 14.7968 33.7186 15.2448C33.7186 15.6928 34.0826 16.0568 34.5306 16.0568C34.9786 16.0568 35.3426 15.6928 35.3426 15.2448C35.3426 14.7968 34.9786 14.4328 34.5306 14.4328Z" fill="#3D8CFF"/>
<g opacity="0.5">
<path d="M16.9538 31.6363C16.8628 31.6363 16.7753 31.6013 16.7053 31.5348L12.2113 27.0373C12.0748 26.9008 12.0748 26.6803 12.2113 26.5438C12.3478 26.4073 12.5683 26.4073 12.7048 26.5438L17.1988 31.0378C17.3353 31.1743 17.3353 31.3948 17.1988 31.5313C17.1358 31.6013 17.0448 31.6363 16.9538 31.6363Z" fill="#3D8CFF"/>
<path d="M12.4598 31.6367C12.3688 31.6367 12.2813 31.6017 12.2113 31.5352C12.0748 31.3987 12.0748 31.1782 12.2113 31.0417L16.7053 26.5477C16.8418 26.4112 17.0623 26.4112 17.1988 26.5477C17.3353 26.6842 17.3353 26.9047 17.1988 27.0412L12.7083 31.5317C12.6383 31.6017 12.5508 31.6367 12.4598 31.6367Z" fill="#3D8CFF"/>
</g>
<g opacity="0.5">
<path d="M41.4049 29.3886C41.3139 29.3886 41.2264 29.3536 41.1564 29.2871L36.6624 24.7931C36.5259 24.6566 36.5259 24.4361 36.6624 24.2996C36.7989 24.1631 37.0194 24.1631 37.1559 24.2996L41.6499 28.7936C41.7864 28.9301 41.7864 29.1506 41.6499 29.2871C41.5869 29.3536 41.4959 29.3886 41.4049 29.3886Z" fill="#3D8CFF"/>
<path d="M36.9109 29.3886C36.8199 29.3886 36.7324 29.3536 36.6624 29.2871C36.5259 29.1506 36.5259 28.9301 36.6624 28.7936L41.1564 24.2996C41.2929 24.1631 41.5134 24.1631 41.6499 24.2996C41.7864 24.4361 41.7864 24.6566 41.6499 24.7931L37.1559 29.2871C37.0894 29.3536 37.0019 29.3886 36.9109 29.3886Z" fill="#3D8CFF"/>
</g>
<g opacity="0.5">
<path d="M27.4782 45.0195C27.3872 45.0195 27.2997 44.9845 27.2297 44.918L22.7357 40.424C22.5992 40.2875 22.5992 40.067 22.7357 39.9305C22.8722 39.794 23.0927 39.794 23.2292 39.9305L27.7232 44.4245C27.8597 44.561 27.8597 44.7815 27.7232 44.918C27.6567 44.988 27.5692 45.0195 27.4782 45.0195Z" fill="#3D8CFF"/>
<path d="M22.9842 45.0195C22.8932 45.0195 22.8057 44.9845 22.7357 44.918C22.5992 44.7815 22.5992 44.561 22.7357 44.4245L27.2297 39.9305C27.3662 39.794 27.5867 39.794 27.7232 39.9305C27.8597 40.067 27.8597 40.2875 27.7232 40.424L23.2292 44.918C23.1627 44.988 23.0717 45.0195 22.9842 45.0195Z" fill="#3D8CFF"/>
</g>
<path d="M22.9844 34.6951C22.8864 34.6951 22.7884 34.6531 22.7219 34.5761C22.5959 34.4291 22.6099 34.2086 22.7569 34.0826C24.7799 32.3221 26.6139 30.1626 28.2064 27.6671C29.3509 25.8751 30.3974 23.8696 31.3284 21.6961L29.3124 23.0331C29.1514 23.1416 28.9344 23.0961 28.8259 22.9351C28.7174 22.7741 28.7629 22.5571 28.9239 22.4486L31.8954 20.4781C32.0214 20.3941 32.1894 20.4011 32.3084 20.4991C32.4274 20.5971 32.4694 20.7581 32.4134 20.9016C31.3634 23.5266 30.1454 25.9276 28.7979 28.0451C27.1704 30.5966 25.2909 32.8086 23.2189 34.6111C23.1489 34.6671 23.0649 34.6951 22.9844 34.6951Z" fill="#3D8CFF"/>
<path d="M9.17338 39.0976C9.16288 39.0976 9.15238 39.0976 9.14188 39.0976C9.02288 39.0871 8.90388 39.0731 8.78488 39.0591C8.59238 39.0346 8.45588 38.8631 8.48038 38.6706C8.50488 38.4781 8.67988 38.3416 8.86888 38.3661C8.98088 38.3801 9.09288 38.3906 9.20838 38.4011C9.40088 38.4186 9.54088 38.5901 9.52338 38.7826C9.50588 38.9646 9.35538 39.0976 9.17338 39.0976Z" fill="#3D8CFF"/>
<path d="M10.7661 39.1599C10.5771 39.1599 10.4196 39.0059 10.4161 38.8169C10.4126 38.6244 10.5666 38.4634 10.7591 38.4599C10.9656 38.4564 11.1721 38.4494 11.3821 38.4389C11.5816 38.4319 11.7391 38.5754 11.7496 38.7679C11.7601 38.9604 11.6131 39.1249 11.4206 39.1354C11.2036 39.1459 10.9866 39.1564 10.7696 39.1599H10.7661ZM12.9816 38.9744C12.8101 38.9744 12.6631 38.8484 12.6351 38.6769C12.6071 38.4844 12.7401 38.3094 12.9291 38.2779C13.1356 38.2464 13.3386 38.2114 13.5451 38.1764C13.7376 38.1414 13.9161 38.2674 13.9511 38.4564C13.9861 38.6454 13.8601 38.8274 13.6711 38.8624C13.4576 38.9009 13.2441 38.9359 13.0306 38.9674C13.0166 38.9744 12.9991 38.9744 12.9816 38.9744ZM15.1621 38.5194C15.0081 38.5194 14.8646 38.4179 14.8226 38.2604C14.7736 38.0749 14.8821 37.8824 15.0711 37.8334C15.2741 37.7809 15.4736 37.7214 15.6731 37.6619C15.8586 37.6059 16.0546 37.7109 16.1106 37.8964C16.1666 38.0819 16.0616 38.2779 15.8761 38.3339C15.6696 38.3969 15.4631 38.4564 15.2531 38.5124C15.2216 38.5159 15.1901 38.5194 15.1621 38.5194ZM17.2796 37.8334C17.1396 37.8334 17.0066 37.7459 16.9541 37.6094C16.8841 37.4274 16.9751 37.2279 17.1571 37.1579C17.3531 37.0844 17.5456 37.0074 17.7381 36.9269C17.9166 36.8534 18.1231 36.9374 18.1966 37.1159C18.2701 37.2944 18.1861 37.5009 18.0076 37.5744C17.8081 37.6584 17.6086 37.7354 17.4056 37.8124C17.3636 37.8229 17.3216 37.8334 17.2796 37.8334ZM19.3166 36.9374C19.1871 36.9374 19.0646 36.8674 19.0016 36.7449C18.9141 36.5734 18.9841 36.3634 19.1591 36.2759C19.3446 36.1814 19.5301 36.0869 19.7156 35.9889C19.8871 35.8979 20.0971 35.9609 20.1881 36.1324C20.2791 36.3039 20.2161 36.5139 20.0446 36.6049C19.8556 36.7064 19.6631 36.8044 19.4706 36.9024C19.4251 36.9234 19.3691 36.9374 19.3166 36.9374Z" fill="#3D8CFF"/>
<path d="M21.2591 35.8387C21.1436 35.8387 21.0281 35.7827 20.9616 35.6742C20.8566 35.5097 20.9056 35.2962 21.0701 35.1912C21.1681 35.1317 21.2626 35.0687 21.3606 35.0057C21.5216 34.9007 21.7386 34.9462 21.8436 35.1072C21.9486 35.2682 21.9031 35.4852 21.7421 35.5902C21.6441 35.6567 21.5426 35.7197 21.4446 35.7827C21.3886 35.8212 21.3221 35.8387 21.2591 35.8387Z" fill="#3D8CFF"/>
<path d="M32.7356 24.6468C32.5711 24.6468 32.4241 24.5278 32.3926 24.3598L31.7451 20.8318C31.7101 20.6428 31.8361 20.4608 32.0251 20.4258C32.2176 20.3908 32.3961 20.5168 32.4311 20.7058L33.0786 24.2338C33.1136 24.4228 32.9876 24.6048 32.7986 24.6398C32.7776 24.6468 32.7566 24.6468 32.7356 24.6468Z" fill="#3D8CFF"/>
<path d="M62.9789 21.8222C62.5764 21.8222 62.1879 21.8642 61.8099 21.9412C61.0399 19.6347 58.8629 17.9688 56.2974 17.9688C53.0879 17.9688 50.4839 20.5727 50.4839 23.7822C47.8134 23.7822 45.6504 25.9453 45.6504 28.6158C45.6504 31.2863 47.8134 33.4492 50.4839 33.4492H62.9824C66.1919 33.4492 68.7959 30.8452 68.7959 27.6357C68.7924 24.4262 66.1884 21.8222 62.9789 21.8222Z" fill="#B6DEFF"/>
<path d="M62.9789 33.7996H50.4804C47.6209 33.7996 45.2969 31.4756 45.2969 28.6161C45.2969 25.8721 47.4389 23.6181 50.1409 23.4431C50.3159 20.2021 53.0109 17.6191 56.2939 17.6191C58.8489 17.6191 61.1204 19.1836 62.0374 21.5461C62.3489 21.4971 62.6639 21.4761 62.9789 21.4761C66.3774 21.4761 69.1424 24.2411 69.1424 27.6396C69.1424 31.0381 66.3774 33.7996 62.9789 33.7996ZM56.2939 18.3191C53.2804 18.3191 50.8304 20.7691 50.8304 23.7826C50.8304 23.9751 50.6729 24.1326 50.4804 24.1326C48.0094 24.1326 45.9969 26.1451 45.9969 28.6161C45.9969 31.0871 48.0094 33.0996 50.4804 33.0996H62.9789C65.9924 33.0996 68.4424 30.6496 68.4424 27.6361C68.4424 24.6226 65.9924 22.1726 62.9789 22.1726C62.6079 22.1726 62.2369 22.2111 61.8799 22.2846C61.7049 22.3196 61.5334 22.2216 61.4774 22.0536C60.7319 19.8206 58.6494 18.3191 56.2939 18.3191Z" fill="#3D8CFF"/>
<path d="M52.5278 34.7836L57.2178 37.5311V32.0361L52.5278 29.3691V34.7836Z" fill="#F5FBFF"/>
<path d="M57.2177 37.8804C57.1582 37.8804 57.0952 37.8629 57.0392 37.8314L52.3492 35.0839C52.2407 35.0209 52.1777 34.9054 52.1777 34.7829V29.3684C52.1777 29.2424 52.2442 29.1269 52.3527 29.0674C52.4612 29.0079 52.5942 29.0044 52.7027 29.0674L57.3927 31.7344C57.5012 31.7974 57.5712 31.9129 57.5712 32.0389V37.5339C57.5712 37.6599 57.5047 37.7754 57.3962 37.8384C57.3402 37.8664 57.2772 37.8804 57.2177 37.8804ZM52.8777 34.5834L56.8677 36.9214V32.2384L52.8777 29.9704V34.5834Z" fill="#3D8CFF"/>
<path d="M61.9083 34.7817L57.2183 37.5292V32.0342L61.9083 29.3672V34.7817Z" fill="#F5FBFF"/>
<path d="M57.2182 37.88C57.1587 37.88 57.0992 37.866 57.0432 37.8345C56.9347 37.7715 56.8682 37.656 56.8682 37.53V32.035C56.8682 31.909 56.9347 31.7935 57.0467 31.7305L61.7367 29.0635C61.8452 29.0005 61.9782 29.004 62.0867 29.0635C62.1952 29.1265 62.2617 29.242 62.2617 29.3645V34.779C62.2617 34.9015 62.1952 35.017 62.0902 35.08L57.4002 37.8275C57.3407 37.866 57.2812 37.88 57.2182 37.88ZM57.5682 32.238V36.9175L61.5582 34.5795V29.97L57.5682 32.238Z" fill="#3D8CFF"/>
<path d="M52.5278 29.3679L57.2178 26.8164L61.9078 29.3679L57.2178 32.0349L52.5278 29.3679Z" fill="#F5FBFF"/>
<path d="M57.2177 32.3853C57.1582 32.3853 57.0987 32.3713 57.0462 32.3398L52.3562 29.6728C52.2442 29.6098 52.1777 29.4908 52.1777 29.3648C52.1777 29.2388 52.2477 29.1198 52.3597 29.0603L57.0497 26.5088C57.1547 26.4528 57.2807 26.4528 57.3857 26.5088L62.0757 29.0603C62.1877 29.1198 62.2577 29.2388 62.2577 29.3648C62.2577 29.4908 62.1912 29.6098 62.0792 29.6728L57.3892 32.3398C57.3367 32.3713 57.2772 32.3853 57.2177 32.3853ZM53.2487 29.3753L57.2177 31.6328L61.1867 29.3753L57.2177 27.2158L53.2487 29.3753Z" fill="#3D8CFF"/>
<path d="M52.528 40.6377H49.518C49.3255 40.6377 49.168 40.4802 49.168 40.2877C49.168 40.0952 49.3255 39.9377 49.518 39.9377H52.178V37.5297C52.178 37.3372 52.3355 37.1797 52.528 37.1797C52.7205 37.1797 52.878 37.3372 52.878 37.5297V40.2877C52.878 40.4802 52.724 40.6377 52.528 40.6377Z" fill="#3D8CFF"/>
<path d="M50.5154 41.8792C50.4244 41.8792 50.3369 41.8442 50.2669 41.7777L49.0244 40.5352C48.9579 40.4687 48.9229 40.3812 48.9229 40.2867C48.9229 40.1922 48.9614 40.1047 49.0244 40.0382L50.2669 38.7957C50.4034 38.6592 50.6239 38.6592 50.7604 38.7957C50.8969 38.9322 50.8969 39.1527 50.7604 39.2892L49.7664 40.2832L50.7604 41.2772C50.8969 41.4137 50.8969 41.6342 50.7604 41.7707C50.6939 41.8442 50.6064 41.8792 50.5154 41.8792Z" fill="#3D8CFF"/>
<path d="M57.2179 44.9535C57.1269 44.9535 57.0394 44.9185 56.9694 44.852L55.7269 43.6095C55.5904 43.473 55.5904 43.2525 55.7269 43.116C55.8634 42.9795 56.0839 42.9795 56.2204 43.116L57.2144 44.11L58.2084 43.116C58.3449 42.9795 58.5654 42.9795 58.7019 43.116C58.8384 43.2525 58.8384 43.473 58.7019 43.6095L57.4594 44.852C57.3964 44.9185 57.3089 44.9535 57.2179 44.9535Z" fill="#3D8CFF"/>
<path d="M64.9176 40.6377H61.9076C61.7151 40.6377 61.5576 40.4802 61.5576 40.2877V37.5297C61.5576 37.3372 61.7151 37.1797 61.9076 37.1797C62.1001 37.1797 62.2576 37.3372 62.2576 37.5297V39.9377H64.9176C65.1101 39.9377 65.2676 40.0952 65.2676 40.2877C65.2676 40.4802 65.1101 40.6377 64.9176 40.6377Z" fill="#3D8CFF"/>
<path d="M63.9202 41.88C63.8292 41.88 63.7417 41.845 63.6717 41.7785C63.5352 41.642 63.5352 41.4215 63.6717 41.285L64.6657 40.291L63.6717 39.297C63.5352 39.1605 63.5352 38.94 63.6717 38.8035C63.8082 38.667 64.0287 38.667 64.1652 38.8035L65.4077 40.046C65.5442 40.1825 65.5442 40.403 65.4077 40.5395L64.1652 41.782C64.1022 41.845 64.0112 41.88 63.9202 41.88Z" fill="#3D8CFF"/>
<path d="M57.2177 44.5129C57.0252 44.5129 56.8677 44.3554 56.8677 44.1629V39.5219C56.8677 39.3294 57.0252 39.1719 57.2177 39.1719C57.4102 39.1719 57.5677 39.3294 57.5677 39.5219V44.1629C57.5677 44.3589 57.4137 44.5129 57.2177 44.5129Z" fill="#3D8CFF"/>
<path d="M56.0173 29.7319C56.2184 29.7319 56.3813 29.5689 56.3813 29.3679C56.3813 29.1669 56.2184 29.0039 56.0173 29.0039C55.8163 29.0039 55.6533 29.1669 55.6533 29.3679C55.6533 29.5689 55.8163 29.7319 56.0173 29.7319Z" fill="#3D8CFF"/>
<path d="M56.0174 29.862C55.7444 29.862 55.5239 29.6415 55.5239 29.3685C55.5239 29.0955 55.7444 28.875 56.0174 28.875C56.2904 28.875 56.5109 29.0955 56.5109 29.3685C56.5109 29.6415 56.2904 29.862 56.0174 29.862ZM56.0174 29.1305C55.8879 29.1305 55.7794 29.2355 55.7794 29.3685C55.7794 29.5015 55.8844 29.6065 56.0174 29.6065C56.1504 29.6065 56.2554 29.5015 56.2554 29.3685C56.2554 29.2355 56.1504 29.1305 56.0174 29.1305Z" fill="#3D8CFF"/>
<path d="M58.3064 29.7319C58.5074 29.7319 58.6704 29.5689 58.6704 29.3679C58.6704 29.1669 58.5074 29.0039 58.3064 29.0039C58.1053 29.0039 57.9424 29.1669 57.9424 29.3679C57.9424 29.5689 58.1053 29.7319 58.3064 29.7319Z" fill="#3D8CFF"/>
<path d="M58.3065 29.862C58.0335 29.862 57.813 29.6415 57.813 29.3685C57.813 29.0955 58.0335 28.875 58.3065 28.875C58.5795 28.875 58.8 29.0955 58.8 29.3685C58.8 29.6415 58.576 29.862 58.3065 29.862ZM58.3065 29.1305C58.177 29.1305 58.0685 29.2355 58.0685 29.3685C58.0685 29.5015 58.1735 29.6065 58.3065 29.6065C58.4395 29.6065 58.5445 29.5015 58.5445 29.3685C58.5445 29.2355 58.436 29.1305 58.3065 29.1305Z" fill="#3D8CFF"/>
</svg>
