<svg width="50" height="50" viewBox="0 0 50 50" fill="none" xmlns="http://www.w3.org/2000/svg">
<path d="M21.3018 19.3079H5.52438C3.85365 19.3079 2.4939 17.9482 2.4939 16.2774V13.0305C2.4939 11.3598 3.85365 10 5.52438 10H21.2988C22.9695 10 24.3293 11.3598 24.3293 13.0305V16.2744C24.3323 17.9482 22.9726 19.3079 21.3018 19.3079ZM5.52438 10.9146C4.3567 10.9146 3.40853 11.8628 3.40853 13.0305V16.2744C3.40853 17.4421 4.3567 18.3902 5.52438 18.3902H21.2988C22.4665 18.3902 23.4146 17.4421 23.4146 16.2744V13.0305C23.4146 11.8628 22.4665 10.9146 21.2988 10.9146H5.52438V10.9146Z" fill="white"/>
<path d="M6.63116 15.3409C7.0117 15.3409 7.32019 15.0325 7.32019 14.6519C7.32019 14.2714 7.0117 13.9629 6.63116 13.9629C6.25063 13.9629 5.94214 14.2714 5.94214 14.6519C5.94214 15.0325 6.25063 15.3409 6.63116 15.3409Z" fill="white"/>
<path d="M6.6312 15.7985C6.00011 15.7985 5.48486 15.2833 5.48486 14.6522C5.48486 14.0211 6.00011 13.5059 6.6312 13.5059C7.2623 13.5059 7.77755 14.0211 7.77755 14.6522C7.77755 15.2833 7.2623 15.7985 6.6312 15.7985ZM6.6312 14.4205C6.50316 14.4205 6.3995 14.5242 6.3995 14.6522C6.3995 14.7803 6.50316 14.8839 6.6312 14.8839C6.75925 14.8839 6.86291 14.7803 6.86291 14.6522C6.86291 14.5242 6.75925 14.4205 6.6312 14.4205Z" fill="white"/>
<path d="M21.3018 29.6525H5.52438C3.85365 29.6525 2.4939 28.2928 2.4939 26.622V23.3781C2.4939 21.7074 3.85365 20.3477 5.52438 20.3477H21.2988C22.9695 20.3477 24.3293 21.7074 24.3293 23.3781V26.6251C24.3323 28.2928 22.9726 29.6525 21.3018 29.6525ZM5.52438 21.2623C4.3567 21.2623 3.40853 22.2105 3.40853 23.3781V26.6251C3.40853 27.7928 4.3567 28.7409 5.52438 28.7409H21.2988C22.4665 28.7409 23.4146 27.7928 23.4146 26.6251V23.3781C23.4146 22.2105 22.4665 21.2623 21.2988 21.2623H5.52438V21.2623Z" fill="white"/>
<path d="M6.63116 25.6886C7.0117 25.6886 7.32019 25.3801 7.32019 24.9996C7.32019 24.619 7.0117 24.3105 6.63116 24.3105C6.25063 24.3105 5.94214 24.619 5.94214 24.9996C5.94214 25.3801 6.25063 25.6886 6.63116 25.6886Z" fill="white"/>
<path d="M6.6312 26.1462C6.00011 26.1462 5.48486 25.631 5.48486 24.9999C5.48486 24.3688 6.00011 23.8535 6.6312 23.8535C7.2623 23.8535 7.77755 24.3688 7.77755 24.9999C7.77755 25.631 7.2623 26.1462 6.6312 26.1462ZM6.6312 24.7681C6.50316 24.7681 6.3995 24.8718 6.3995 24.9999C6.3995 25.1279 6.50316 25.2316 6.6312 25.2316C6.75925 25.2316 6.86291 25.1279 6.86291 24.9999C6.86291 24.8718 6.75925 24.7681 6.6312 24.7681Z" fill="white"/>
<path d="M21.3018 29.6525H5.52438C3.85365 29.6525 2.4939 28.2928 2.4939 26.622V23.3781C2.4939 21.7074 3.85365 20.3477 5.52438 20.3477H21.2988C22.9695 20.3477 24.3293 21.7074 24.3293 23.3781V26.6251C24.3323 28.2928 22.9726 29.6525 21.3018 29.6525ZM5.52438 21.2623C4.3567 21.2623 3.40853 22.2105 3.40853 23.3781V26.6251C3.40853 27.7928 4.3567 28.7409 5.52438 28.7409H21.2988C22.4665 28.7409 23.4146 27.7928 23.4146 26.6251V23.3781C23.4146 22.2105 22.4665 21.2623 21.2988 21.2623H5.52438V21.2623Z" fill="white"/>
<path d="M6.63116 25.6886C7.0117 25.6886 7.32019 25.3801 7.32019 24.9996C7.32019 24.619 7.0117 24.3105 6.63116 24.3105C6.25063 24.3105 5.94214 24.619 5.94214 24.9996C5.94214 25.3801 6.25063 25.6886 6.63116 25.6886Z" fill="white"/>
<path d="M6.6312 26.1462C6.00011 26.1462 5.48486 25.631 5.48486 24.9999C5.48486 24.3688 6.00011 23.8535 6.6312 23.8535C7.2623 23.8535 7.77755 24.3688 7.77755 24.9999C7.77755 25.631 7.2623 26.1462 6.6312 26.1462ZM6.6312 24.7681C6.50316 24.7681 6.3995 24.8718 6.3995 24.9999C6.3995 25.1279 6.50316 25.2316 6.6312 25.2316C6.75925 25.2316 6.86291 25.1279 6.86291 24.9999C6.86291 24.8718 6.75925 24.7681 6.6312 24.7681Z" fill="white"/>
<path d="M21.3018 39.9993H5.52438C3.85365 39.9993 2.4939 38.6396 2.4939 36.9688V33.7219C2.4939 32.0512 3.85365 30.6914 5.52438 30.6914H21.2988C22.9695 30.6914 24.3293 32.0512 24.3293 33.7219V36.9688C24.3323 38.6396 22.9726 39.9993 21.3018 39.9993ZM5.52438 31.606C4.3567 31.606 3.40853 32.5542 3.40853 33.7219V36.9688C3.40853 38.1365 4.3567 39.0847 5.52438 39.0847H21.2988C22.4665 39.0847 23.4146 38.1365 23.4146 36.9688V33.7219C23.4146 32.5542 22.4665 31.606 21.2988 31.606H5.52438V31.606Z" fill="white"/>
<path d="M6.63116 36.0363C7.0117 36.0363 7.32019 35.7278 7.32019 35.3472C7.32019 34.9667 7.0117 34.6582 6.63116 34.6582C6.25063 34.6582 5.94214 34.9667 5.94214 35.3472C5.94214 35.7278 6.25063 36.0363 6.63116 36.0363Z" fill="white"/>
<path d="M6.6312 36.4939C6.00011 36.4939 5.48486 35.9786 5.48486 35.3475C5.48486 34.7164 6.00011 34.2012 6.6312 34.2012C7.2623 34.2012 7.77755 34.7164 7.77755 35.3475C7.77755 35.9786 7.2623 36.4939 6.6312 36.4939ZM6.6312 35.1158C6.50316 35.1158 6.3995 35.2195 6.3995 35.3475C6.3995 35.4756 6.50316 35.5792 6.6312 35.5792C6.75925 35.5792 6.86291 35.4756 6.86291 35.3475C6.86291 35.2195 6.75925 35.1158 6.6312 35.1158Z" fill="white"/>
<path d="M21.3017 10H12.3078C10.6371 10 9.27734 11.3598 9.27734 13.0305V16.2744C9.27734 17.9451 10.6371 19.3049 12.3078 19.3049H21.3017C22.9725 19.3049 24.3322 17.9451 24.3322 16.2744V13.0305C24.3322 11.3598 22.9725 10 21.3017 10ZM21.3383 15.0579H12.3719C12.1188 15.0579 11.9145 14.8537 11.9145 14.6006C11.9145 14.3476 12.1188 14.1433 12.3719 14.1433H21.3383C21.5914 14.1433 21.7956 14.3476 21.7956 14.6006C21.7956 14.8537 21.5914 15.0579 21.3383 15.0579Z" fill="white"/>
<path d="M21.3017 20.3477H12.3078C10.6371 20.3477 9.27734 21.7074 9.27734 23.3781V26.6251C9.27734 28.2958 10.6371 29.6556 12.3078 29.6556H21.3017C22.9725 29.6556 24.3322 28.2958 24.3322 26.6251V23.3781C24.3322 21.7074 22.9725 20.3477 21.3017 20.3477ZM21.3383 25.4574H12.3719C12.1188 25.4574 11.9145 25.2531 11.9145 25.0001C11.9145 24.747 12.1188 24.5428 12.3719 24.5428H21.3383C21.5914 24.5428 21.7956 24.747 21.7956 25.0001C21.7956 25.2531 21.5914 25.4574 21.3383 25.4574Z" fill="white"/>
<path d="M21.3017 30.6914H12.3078C10.6371 30.6914 9.27734 32.0512 9.27734 33.7219V36.9688C9.27734 38.6396 10.6371 39.9993 12.3078 39.9993H21.3017C22.9725 39.9993 24.3322 38.6396 24.3322 36.9688V33.7219C24.3322 32.0512 22.9725 30.6914 21.3017 30.6914ZM21.3383 35.856H12.3719C12.1188 35.856 11.9145 35.6518 11.9145 35.3987C11.9145 35.1457 12.1188 34.9414 12.3719 34.9414H21.3383C21.5914 34.9414 21.7956 35.1457 21.7956 35.3987C21.7956 35.6518 21.5914 35.856 21.3383 35.856Z" fill="white"/>
<path d="M34.3109 24.543H24.3779V25.4576H34.3109V24.543Z" fill="white"/>
<path d="M34.311 44.5127H26.9177V5.48828H34.311V6.40292H27.8324V43.598H34.311V44.5127Z" fill="white"/>
<path d="M45.244 11.2834H36.116C34.869 11.2834 33.8538 10.2681 33.8538 9.0212V2.86571C33.8538 1.61876 34.869 0.603516 36.116 0.603516H40.1861C40.308 0.603516 40.4239 0.652296 40.5092 0.737662L42.2166 2.44498H47.0519C47.305 2.44498 47.5092 2.64925 47.5092 2.9023V9.02425C47.5062 10.2681 46.491 11.2834 45.244 11.2834ZM36.116 1.51815C35.3721 1.51815 34.7684 2.12181 34.7684 2.86571V9.0212C34.7684 9.7651 35.3721 10.3688 36.116 10.3688H45.244C45.9879 10.3688 46.5916 9.7651 46.5916 9.0212V3.35961H42.0245C41.9025 3.35961 41.7867 3.31083 41.7013 3.22547L39.994 1.51815H36.116Z" fill="white"/>
<path d="M47.0489 6.40292H34.3111C34.058 6.40292 33.8538 6.19865 33.8538 5.9456C33.8538 5.69255 34.058 5.48828 34.3111 5.48828H47.0489C47.3019 5.48828 47.5062 5.69255 47.5062 5.9456C47.5062 6.19865 47.3019 6.40292 47.0489 6.40292Z" fill="white"/>
<path d="M45.244 30.3411H36.116C34.869 30.3411 33.8538 29.3259 33.8538 28.0789V21.9204C33.8538 20.6734 34.869 19.6582 36.116 19.6582H40.1861C40.308 19.6582 40.4239 19.707 40.5092 19.7923L42.2166 21.4997H47.0519C47.305 21.4997 47.5092 21.7039 47.5092 21.957V28.0789C47.5062 29.3259 46.491 30.3411 45.244 30.3411ZM36.116 20.5728C35.3721 20.5728 34.7684 21.1765 34.7684 21.9204V28.0789C34.7684 28.8228 35.3721 29.4265 36.116 29.4265H45.244C45.9879 29.4265 46.5916 28.8228 46.5916 28.0789V22.4143H42.0245C41.9025 22.4143 41.7867 22.3655 41.7013 22.2802L39.994 20.5728H36.116Z" fill="white"/>
<path d="M47.0489 25.4576H34.3111C34.058 25.4576 33.8538 25.2533 33.8538 25.0003C33.8538 24.7472 34.058 24.543 34.3111 24.543H47.0489C47.3019 24.543 47.5062 24.7472 47.5062 25.0003C47.5062 25.2533 47.3019 25.4576 47.0489 25.4576Z" fill="white"/>
<path d="M45.244 49.3967H36.116C34.869 49.3967 33.8538 48.3814 33.8538 47.1345V40.979C33.8538 39.732 34.869 38.7168 36.116 38.7168H40.1861C40.308 38.7168 40.4239 38.7656 40.5092 38.8509L42.2166 40.5583H47.0519C47.305 40.5583 47.5092 40.7625 47.5092 41.0156V47.1375C47.5062 48.3814 46.491 49.3967 45.244 49.3967ZM36.116 39.6314C35.3721 39.6314 34.7684 40.2351 34.7684 40.979V47.1345C34.7684 47.8784 35.3721 48.482 36.116 48.482H45.244C45.9879 48.482 46.5916 47.8784 46.5916 47.1345V41.4698H42.0245C41.9025 41.4698 41.7867 41.4211 41.7013 41.3357L39.994 39.6284H36.116V39.6314Z" fill="white"/>
<path d="M47.0489 44.5123H34.3111C34.058 44.5123 33.8538 44.308 33.8538 44.055C33.8538 43.8019 34.058 43.5977 34.3111 43.5977H47.0489C47.3019 43.5977 47.5062 43.8019 47.5062 44.055C47.5062 44.308 47.3019 44.5123 47.0489 44.5123Z" fill="white"/>
</svg>
