<svg width="70" height="70" viewBox="0 0 70 70" fill="none" xmlns="http://www.w3.org/2000/svg">
<g clip-path="url(#clip0_1134_6964)">
<path d="M35.0003 8.13672L13.9058 18.2937L8.69434 41.1242L23.2928 59.4292H46.7078L61.3063 41.1242L56.0948 18.2937L35.0003 8.13672Z" fill="#F5FBFF"/>
<path d="M46.7078 59.8636H23.2928C23.1598 59.8636 23.0373 59.8041 22.9533 59.6991L8.35477 41.3941C8.27427 41.2926 8.24277 41.1561 8.27077 41.0266L13.4823 18.1996C13.5103 18.0701 13.5978 17.9616 13.7168 17.9056L34.8113 7.74512C34.9303 7.68913 35.0668 7.68913 35.1858 7.74512L56.2803 17.9056C56.3993 17.9616 56.4868 18.0701 56.5148 18.1996L61.7263 41.0266C61.7543 41.1561 61.7263 41.2891 61.6423 41.3941L47.0438 59.6991C46.9633 59.8041 46.8408 59.8636 46.7078 59.8636ZM23.5028 58.9956H46.5013L60.8408 41.0161L55.7203 18.5951L35.0003 8.61663L14.2803 18.5951L9.16327 41.0161L23.5028 58.9956Z" fill="#3D8CFF"/>
<path d="M43.036 9.44925C43.036 11.8537 41.979 14.0132 40.3025 15.4797C39.3575 12.3368 34.9965 12.6097 34.9965 12.6097C34.9965 12.6097 30.6355 12.3368 29.6905 15.4797C28.014 14.0132 26.957 11.8502 26.957 9.44925C26.957 5.01125 30.555 1.40625 34.993 1.40625C39.431 1.40625 43.036 5.01125 43.036 9.44925Z" fill="#B6DEFF"/>
<path d="M29.6943 15.9146C29.5893 15.9146 29.4878 15.8761 29.4108 15.8061C27.5803 14.2031 26.5303 11.8861 26.5303 9.45006C26.5303 4.77756 30.3313 0.976562 35.0003 0.976562C39.6693 0.976562 43.4703 4.77756 43.4703 9.45006C43.4703 11.8861 42.4203 14.2031 40.5898 15.8096C40.4778 15.9076 40.3273 15.9391 40.1838 15.9006C40.0438 15.8586 39.9318 15.7501 39.8898 15.6101C39.0568 12.8381 35.0668 13.0446 35.0283 13.0481C35.0108 13.0481 34.9933 13.0481 34.9758 13.0481C34.9373 13.0481 30.9438 12.8381 30.1108 15.6101C30.0688 15.7501 29.9568 15.8621 29.8168 15.9006C29.7748 15.9076 29.7363 15.9146 29.6943 15.9146ZM35.0003 1.84106C30.8073 1.84106 27.3948 5.25356 27.3948 9.45006C27.3948 11.4276 28.1648 13.3176 29.5263 14.7246C30.8458 12.0401 34.6048 12.1556 34.9968 12.1766C35.3923 12.1556 39.1513 12.0401 40.4673 14.7246C41.8288 13.3176 42.5988 11.4276 42.5988 9.45006C42.6058 5.25356 39.1933 1.84106 35.0003 1.84106Z" fill="#3D8CFF"/>
<path d="M29.7019 15.4845H29.6979V15.4805C29.6939 15.4805 29.6939 15.4845 29.7019 15.4845Z" fill="#B6DEFF"/>
<path d="M29.7012 15.918H29.6977C29.4597 15.918 29.2637 15.7255 29.2637 15.484C29.2637 15.484 29.2637 15.484 29.2637 15.4805C29.2637 15.477 29.2637 15.4805 29.2637 15.477C29.2637 15.239 29.4562 15.043 29.6977 15.043C29.8132 15.043 29.9217 15.0885 29.9987 15.1655C30.0827 15.246 30.1352 15.358 30.1352 15.4805C30.1317 15.7255 29.9392 15.918 29.7012 15.918Z" fill="#3D8CFF"/>
<path d="M40.3062 15.4795C40.3062 15.4795 40.3062 15.483 40.3027 15.483C38.8922 16.729 37.0372 17.485 35.0037 17.485C32.9702 17.485 31.1152 16.7325 29.7047 15.483C29.7012 15.483 29.7012 15.4795 29.7012 15.4795C30.6462 12.3365 35.0072 12.6095 35.0072 12.6095C35.0072 12.6095 39.3612 12.3365 40.3062 15.4795Z" fill="#3D8CFF"/>
<path d="M35.0002 17.9193C32.9387 17.9193 30.9542 17.1703 29.4142 15.8088C29.3232 15.7283 29.2637 15.6093 29.2637 15.4798C29.2637 15.4378 29.2707 15.3958 29.2812 15.3538C30.2822 12.0183 34.5802 12.1513 35.0002 12.1723C35.4202 12.1513 39.7182 12.0183 40.7192 15.3538C40.7297 15.3958 40.7367 15.4378 40.7367 15.4798C40.7367 15.6093 40.6772 15.7283 40.5862 15.8088C39.0462 17.1703 37.0617 17.9193 35.0002 17.9193ZM30.2017 15.3433C31.5492 16.4458 33.2432 17.0513 35.0002 17.0513C36.7572 17.0513 38.4512 16.4458 39.7987 15.3433C38.8012 12.8443 35.0632 13.0403 35.0282 13.0403C35.0107 13.0403 34.9932 13.0403 34.9757 13.0403C34.9337 13.0403 31.1992 12.8443 30.2017 15.3433Z" fill="#3D8CFF"/>
<path d="M40.3067 15.4805V15.4845H40.3027C40.3067 15.4845 40.3067 15.4805 40.3067 15.4805Z" fill="#B6DEFF"/>
<path d="M40.3062 15.9184H40.3027C40.0647 15.9184 39.8687 15.7259 39.8687 15.4844C39.8687 15.3654 39.9177 15.2534 39.9982 15.1764C40.0752 15.0959 40.1872 15.0469 40.3062 15.0469C40.5442 15.0469 40.7367 15.2394 40.7402 15.4739C40.7402 15.4739 40.7402 15.4774 40.7402 15.4809V15.4844C40.7367 15.7259 40.5442 15.9184 40.3062 15.9184Z" fill="#3D8CFF"/>
<path d="M35.0001 10.4113C36.2565 10.4113 37.2751 9.39278 37.2751 8.13633C37.2751 6.87988 36.2565 5.86133 35.0001 5.86133C33.7436 5.86133 32.7251 6.87988 32.7251 8.13633C32.7251 9.39278 33.7436 10.4113 35.0001 10.4113Z" fill="#F5FBFF"/>
<path d="M34.9999 10.8426C33.5089 10.8426 32.2944 9.62814 32.2944 8.13714C32.2944 6.64614 33.5089 5.43164 34.9999 5.43164C36.4909 5.43164 37.7054 6.64614 37.7054 8.13714C37.7054 9.62814 36.4909 10.8426 34.9999 10.8426ZM34.9999 6.29614C33.9849 6.29614 33.1589 7.12214 33.1589 8.13714C33.1589 9.15214 33.9849 9.97814 34.9999 9.97814C36.0149 9.97814 36.8409 9.15214 36.8409 8.13714C36.8409 7.12214 36.0149 6.29614 34.9999 6.29614Z" fill="#3D8CFF"/>
<path d="M47.3202 35.6864C47.3202 39.3719 45.6997 42.6829 43.1307 44.9334C41.6852 40.1139 35.0002 40.5339 35.0002 40.5339C35.0002 40.5339 28.3152 40.1139 26.8697 44.9334C24.3007 42.6829 22.6802 39.3719 22.6802 35.6864C22.6802 28.8824 28.1962 23.3594 35.0002 23.3594C41.8042 23.3594 47.3202 28.8824 47.3202 35.6864Z" fill="#B6DEFF"/>
<path d="M43.1305 45.3678C43.092 45.3678 43.05 45.3608 43.0115 45.3503C42.8715 45.3083 42.7595 45.1998 42.7175 45.0598C41.3875 40.6288 35.091 40.9648 35.028 40.9648C35.0105 40.9648 34.993 40.9648 34.9755 40.9648C34.9125 40.9613 28.616 40.6288 27.286 45.0598C27.244 45.1998 27.132 45.3118 26.992 45.3503C26.8485 45.3923 26.698 45.3573 26.586 45.2593C23.8315 42.8443 22.2495 39.3548 22.2495 35.6868C22.2495 28.6518 27.972 22.9258 35.0035 22.9258C42.035 22.9258 47.7575 28.6483 47.7575 35.6868C47.7575 39.3548 46.1755 42.8443 43.421 45.2593C43.337 45.3328 43.2355 45.3678 43.1305 45.3678ZM35 23.7938C28.4445 23.7938 23.114 29.1278 23.114 35.6868C23.114 38.8928 24.409 41.9483 26.684 44.1708C28.518 39.8483 34.482 40.0688 35 40.0968C35.5215 40.0688 41.482 39.8448 43.316 44.1708C45.591 41.9483 46.886 38.8893 46.886 35.6868C46.886 29.1313 41.5555 23.7938 35 23.7938Z" fill="#3D8CFF"/>
<path d="M26.8766 44.9406H26.8696V44.9336C26.8696 44.9336 26.8696 44.9406 26.8766 44.9406Z" fill="#B6DEFF"/>
<path d="M26.8765 45.375H26.8695C26.6315 45.375 26.4355 45.1825 26.4355 44.941V44.9375V44.934C26.4355 44.696 26.628 44.5 26.8695 44.5C26.9885 44.5 27.097 44.549 27.174 44.626C27.258 44.7065 27.3105 44.815 27.3105 44.941C27.307 45.1825 27.1145 45.375 26.8765 45.375Z" fill="#3D8CFF"/>
<path d="M43.1306 44.9341C43.1306 44.9341 43.1306 44.9411 43.1236 44.9411C40.9606 46.8521 38.1186 48.0071 35.0001 48.0071C31.8816 48.0071 29.0396 46.8521 26.8766 44.9411C26.8696 44.9411 26.8696 44.9341 26.8696 44.9341C28.3151 40.1146 35.0001 40.5346 35.0001 40.5346C35.0001 40.5346 41.6851 40.1146 43.1306 44.9341Z" fill="#3D8CFF"/>
<path d="M35 48.441C31.892 48.441 28.9065 47.314 26.5895 45.2665C26.495 45.186 26.4355 45.067 26.4355 44.934C26.4355 44.892 26.4425 44.85 26.453 44.808C27.9475 39.8275 34.454 40.069 35 40.097C35.546 40.0655 42.049 39.824 43.547 44.808C43.561 44.85 43.5645 44.892 43.5645 44.934C43.5645 45.0635 43.505 45.1825 43.4105 45.2665C41.0935 47.314 38.108 48.441 35 48.441ZM27.37 44.7975C29.498 46.593 32.1965 47.5765 35 47.5765C37.8035 47.5765 40.502 46.593 42.63 44.7975C41.1355 40.643 35.091 40.965 35.028 40.9685C35.0105 40.9685 34.993 40.9685 34.9755 40.9685C34.9125 40.965 28.8645 40.643 27.37 44.7975Z" fill="#3D8CFF"/>
<path d="M43.1305 44.9316V44.9386H43.1235C43.1305 44.9386 43.1305 44.9316 43.1305 44.9316Z" fill="#B6DEFF"/>
<path d="M43.1305 45.3735C43.127 45.3735 43.127 45.3735 43.1235 45.3735C42.8855 45.3735 42.6895 45.181 42.6895 44.9395C42.6895 44.817 42.7385 44.7085 42.819 44.6315C42.896 44.551 43.008 44.502 43.127 44.502C43.365 44.502 43.561 44.6945 43.561 44.936V44.943C43.5645 45.181 43.372 45.3735 43.1305 45.3735Z" fill="#3D8CFF"/>
<path d="M35.0002 37.1615C36.9254 37.1615 38.4862 35.6007 38.4862 33.6755C38.4862 31.7502 36.9254 30.1895 35.0002 30.1895C33.0749 30.1895 31.5142 31.7502 31.5142 33.6755C31.5142 35.6007 33.0749 37.1615 35.0002 37.1615Z" fill="#F5FBFF"/>
<path d="M35 37.5928C32.8405 37.5928 31.0835 35.8358 31.0835 33.6763C31.0835 31.5168 32.8405 29.7598 35 29.7598C37.1595 29.7598 38.9165 31.5168 38.9165 33.6763C38.9165 35.8358 37.1595 37.5928 35 37.5928ZM35 30.6243C33.3165 30.6243 31.948 31.9928 31.948 33.6763C31.948 35.3598 33.3165 36.7283 35 36.7283C36.6835 36.7283 38.052 35.3598 38.052 33.6763C38.052 31.9928 36.6835 30.6243 35 30.6243Z" fill="#3D8CFF"/>
<path d="M21.9415 19.6055C21.9415 22.01 20.8845 24.1695 19.208 25.636C18.263 22.493 13.902 22.766 13.902 22.766C13.902 22.766 9.54105 22.493 8.59605 25.636C6.91955 24.1695 5.86255 22.0065 5.86255 19.6055C5.86255 15.1675 9.46055 11.5625 13.8985 11.5625C18.3365 11.5625 21.9415 15.1675 21.9415 19.6055Z" fill="#F5FBFF"/>
<path d="M8.59955 26.0708C8.49455 26.0708 8.39305 26.0323 8.31605 25.9623C6.48555 24.3593 5.43555 22.0423 5.43555 19.6063C5.43555 14.9338 9.23655 11.1328 13.9055 11.1328C18.5745 11.1328 22.3755 14.9338 22.3755 19.6063C22.3755 22.0423 21.3255 24.3593 19.495 25.9623C19.383 26.0603 19.2325 26.0918 19.089 26.0533C18.949 26.0113 18.837 25.9028 18.795 25.7628C17.962 22.9908 13.972 23.1973 13.93 23.2008C13.9125 23.2008 13.895 23.2008 13.8775 23.2008C13.839 23.2008 9.84905 22.9908 9.01255 25.7628C8.97055 25.9028 8.85855 26.0148 8.71855 26.0533C8.68005 26.0673 8.63805 26.0708 8.59955 26.0708ZM14.1925 22.3293C15.1865 22.3293 18.221 22.5288 19.376 24.8843C20.7375 23.4773 21.5075 21.5873 21.5075 19.6098C21.5075 15.4133 18.095 12.0008 13.902 12.0008C9.70905 12.0008 6.30005 15.4133 6.30005 19.6063C6.30005 21.5838 7.07005 23.4738 8.43155 24.8808C9.75105 22.1963 13.51 22.3118 13.902 22.3328C13.951 22.3328 14.0525 22.3293 14.1925 22.3293Z" fill="#3D8CFF"/>
<path d="M8.60361 25.6446H8.59961V25.6406C8.59961 25.6406 8.59961 25.6446 8.60361 25.6446Z" fill="#B6DEFF"/>
<path d="M8.60303 26.0781H8.59953C8.36153 26.0781 8.16553 25.8856 8.16553 25.6441C8.16553 25.6441 8.16553 25.6441 8.16553 25.6406C8.16553 25.6406 8.16553 25.6406 8.16553 25.6371C8.16553 25.3991 8.35803 25.2031 8.59953 25.2031C8.71853 25.2031 8.83053 25.2521 8.90753 25.3326C8.98803 25.4096 9.03703 25.5216 9.03703 25.6406C9.03703 25.8821 8.84453 26.0781 8.60303 26.0781Z" fill="#3D8CFF"/>
<path d="M19.208 25.6416C19.208 25.6416 19.208 25.6451 19.2045 25.6451C17.794 26.8911 15.939 27.6471 13.9055 27.6471C11.872 27.6471 10.017 26.8946 8.60653 25.6451C8.60303 25.6451 8.60303 25.6416 8.60303 25.6416C9.54803 22.4986 13.909 22.7716 13.909 22.7716C13.909 22.7716 18.263 22.4986 19.208 25.6416Z" fill="#3D8CFF"/>
<path d="M13.9054 28.0775C11.8439 28.0775 9.85945 27.3285 8.31945 25.967C8.22845 25.8865 8.16895 25.7675 8.16895 25.638C8.16895 25.596 8.17595 25.554 8.18645 25.512C9.18745 22.1765 13.4819 22.3095 13.9054 22.3305C14.3254 22.3095 18.6234 22.1765 19.6244 25.512C19.6384 25.554 19.6419 25.596 19.6419 25.638C19.6419 25.7675 19.5824 25.8865 19.4914 25.967C17.9514 27.3285 15.9669 28.0775 13.9054 28.0775ZM9.10695 25.505C10.4544 26.611 12.1484 27.213 13.9054 27.213C15.6624 27.213 17.3564 26.6075 18.7039 25.505C17.7064 23.006 13.9684 23.202 13.9334 23.202C13.9159 23.202 13.8984 23.202 13.8809 23.202C13.8389 23.1985 10.1044 23.006 9.10695 25.505Z" fill="#3D8CFF"/>
<path d="M19.2086 25.6406V25.6446H19.2046C19.2086 25.6446 19.2086 25.6406 19.2086 25.6406Z" fill="#B6DEFF"/>
<path d="M19.208 26.0785H19.2045C18.9665 26.0785 18.7705 25.886 18.7705 25.6445C18.7705 25.529 18.816 25.4205 18.893 25.3435C18.9735 25.2595 19.0855 25.207 19.208 25.207C19.446 25.207 19.642 25.3995 19.642 25.641V25.6445C19.642 25.8825 19.446 26.0785 19.208 26.0785Z" fill="#3D8CFF"/>
<path d="M13.9059 20.5695C15.1623 20.5695 16.1809 19.551 16.1809 18.2945C16.1809 17.0381 15.1623 16.0195 13.9059 16.0195C12.6494 16.0195 11.6309 17.0381 11.6309 18.2945C11.6309 19.551 12.6494 20.5695 13.9059 20.5695Z" fill="#F5FBFF"/>
<path d="M13.9057 21.0028C12.4147 21.0028 11.2002 19.7883 11.2002 18.2973C11.2002 16.8063 12.4147 15.5918 13.9057 15.5918C15.3967 15.5918 16.6112 16.8063 16.6112 18.2973C16.6112 19.7883 15.3967 21.0028 13.9057 21.0028ZM13.9057 16.4563C12.8907 16.4563 12.0647 17.2823 12.0647 18.2973C12.0647 19.3123 12.8907 20.1383 13.9057 20.1383C14.9207 20.1383 15.7467 19.3123 15.7467 18.2973C15.7432 17.2823 14.9172 16.4563 13.9057 16.4563Z" fill="#3D8CFF"/>
<path d="M31.3002 60.7285C31.3002 63.133 30.2432 65.2925 28.5667 66.759C27.6217 63.616 23.2607 63.889 23.2607 63.889C23.2607 63.889 18.8997 63.616 17.9547 66.759C16.2782 65.2925 15.2212 63.1295 15.2212 60.7285C15.2212 56.2905 18.8192 52.6855 23.2572 52.6855C27.6952 52.6855 31.3002 56.2905 31.3002 60.7285Z" fill="#F5FBFF"/>
<path d="M28.5704 67.1939C28.5319 67.1939 28.4899 67.1869 28.4514 67.1764C28.3114 67.1344 28.1994 67.0259 28.1574 66.8859C27.3244 64.1139 23.3344 64.3204 23.2924 64.3239C23.2749 64.3239 23.2574 64.3239 23.2399 64.3239C23.2014 64.3239 19.2079 64.1139 18.3749 66.8859C18.3329 67.0259 18.2209 67.1379 18.0809 67.1764C17.9374 67.2184 17.7869 67.1834 17.6749 67.0854C15.8444 65.4824 14.7944 63.1654 14.7944 60.7294C14.7944 56.0569 18.5954 52.2559 23.2644 52.2559C27.9334 52.2559 31.7344 56.0569 31.7344 60.7294C31.7344 63.1654 30.6844 65.4824 28.8539 67.0854C28.7734 67.1554 28.6719 67.1939 28.5704 67.1939ZM23.5514 63.4489C24.5454 63.4489 27.5799 63.6484 28.7349 66.0039C30.0964 64.5969 30.8664 62.7069 30.8664 60.7294C30.8664 56.5329 27.4539 53.1204 23.2609 53.1204C19.0679 53.1204 15.6554 56.5329 15.6554 60.7294C15.6554 62.7069 16.4254 64.5969 17.7869 66.0039C19.1064 63.3194 22.8654 63.4349 23.2574 63.4559C23.3134 63.4524 23.4114 63.4489 23.5514 63.4489Z" fill="#3D8CFF"/>
<path d="M17.9666 66.7638H17.9626V66.7598C17.9586 66.7598 17.9586 66.7638 17.9666 66.7638Z" fill="#B6DEFF"/>
<path d="M17.9658 67.1973H17.9623C17.7243 67.1973 17.5283 67.0048 17.5283 66.7633C17.5283 66.7633 17.5283 66.7633 17.5283 66.7598C17.5283 66.7598 17.5283 66.7598 17.5283 66.7563C17.5283 66.5183 17.7208 66.3223 17.9623 66.3223C18.0883 66.3223 18.2003 66.3748 18.2773 66.4588C18.3543 66.5358 18.3998 66.6443 18.3998 66.7598C18.3963 67.0048 18.2038 67.1973 17.9658 67.1973Z" fill="#3D8CFF"/>
<path d="M28.5708 66.7588C28.5708 66.7588 28.5708 66.7623 28.5673 66.7623C27.1568 68.0083 25.3018 68.7643 23.2683 68.7643C21.2348 68.7643 19.3798 68.0118 17.9693 66.7623C17.9658 66.7623 17.9658 66.7588 17.9658 66.7588C18.9108 63.6158 23.2718 63.8888 23.2718 63.8888C23.2718 63.8888 27.6258 63.6158 28.5708 66.7588Z" fill="#3D8CFF"/>
<path d="M23.2648 69.1986C21.2033 69.1986 19.2188 68.4496 17.6788 67.0881C17.5878 67.0076 17.5283 66.8886 17.5283 66.7591C17.5283 66.7171 17.5353 66.6751 17.5458 66.6331C18.5468 63.2976 22.8413 63.4306 23.2648 63.4516C23.6848 63.4306 27.9828 63.2976 28.9838 66.6331C28.9978 66.6751 29.0013 66.7171 29.0013 66.7591C29.0013 66.8886 28.9418 67.0076 28.8508 67.0881C27.3108 68.4496 25.3298 69.1986 23.2648 69.1986ZM18.4663 66.6226C19.8138 67.7286 21.5078 68.3306 23.2648 68.3306C25.0218 68.3306 26.7158 67.7251 28.0633 66.6226C27.0658 64.1236 23.3313 64.3196 23.2928 64.3196C23.2753 64.3196 23.2578 64.3196 23.2403 64.3196C23.2018 64.3196 19.4638 64.1236 18.4663 66.6226Z" fill="#3D8CFF"/>
<path d="M28.5704 66.7578V66.7608H28.5674C28.5704 66.7608 28.5704 66.7578 28.5704 66.7578Z" fill="#B6DEFF"/>
<path d="M28.5708 67.1957H28.5673C28.3293 67.1957 28.1333 67.0032 28.1333 66.7617C28.1333 66.6427 28.1823 66.5307 28.2628 66.4537C28.3398 66.3732 28.4518 66.3242 28.5708 66.3242C28.8088 66.3242 29.0048 66.5167 29.0048 66.7582V66.7617C29.0013 67.0032 28.8088 67.1957 28.5708 67.1957Z" fill="#3D8CFF"/>
<path d="M23.2647 61.6906C24.5212 61.6906 25.5397 60.6721 25.5397 59.4156C25.5397 58.1592 24.5212 57.1406 23.2647 57.1406C22.0083 57.1406 20.9897 58.1592 20.9897 59.4156C20.9897 60.6721 22.0083 61.6906 23.2647 61.6906Z" fill="#F5FBFF"/>
<path d="M23.2646 62.1219C21.7736 62.1219 20.5591 60.9074 20.5591 59.4164C20.5591 57.9254 21.7736 56.7109 23.2646 56.7109C24.7556 56.7109 25.9701 57.9254 25.9701 59.4164C25.9701 60.9074 24.7556 62.1219 23.2646 62.1219ZM23.2646 57.5754C22.2496 57.5754 21.4236 58.4014 21.4236 59.4164C21.4236 60.4314 22.2496 61.2574 23.2646 61.2574C24.2796 61.2574 25.1056 60.4314 25.1056 59.4164C25.1056 58.4014 24.2796 57.5754 23.2646 57.5754Z" fill="#3D8CFF"/>
<path d="M38.6997 60.7285C38.6997 63.133 39.7567 65.2925 41.4332 66.759C42.3782 63.616 46.7392 63.889 46.7392 63.889C46.7392 63.889 51.1002 63.616 52.0452 66.759C53.7217 65.2925 54.7787 63.1295 54.7787 60.7285C54.7787 56.2905 51.1807 52.6855 46.7427 52.6855C42.3047 52.6855 38.6997 56.2905 38.6997 60.7285Z" fill="#F5FBFF"/>
<path d="M52.0416 67.1939C52.0031 67.1939 51.9611 67.1869 51.9226 67.1764C51.7826 67.1344 51.6706 67.0259 51.6286 66.8859C50.7956 64.1139 46.8056 64.3204 46.7636 64.3239C46.7461 64.3239 46.7286 64.3239 46.7111 64.3239C46.6726 64.3239 42.6791 64.1139 41.8461 66.8859C41.8041 67.0259 41.6921 67.1379 41.5521 67.1764C41.4086 67.2184 41.2581 67.1834 41.1461 67.0854C39.3156 65.4824 38.2656 63.1654 38.2656 60.7294C38.2656 56.0569 42.0666 52.2559 46.7356 52.2559C51.4046 52.2559 55.2056 56.0569 55.2056 60.7294C55.2056 63.1654 54.1556 65.4824 52.3251 67.0854C52.2446 67.1554 52.1431 67.1939 52.0416 67.1939ZM46.7356 53.1204C42.5426 53.1204 39.1301 56.5329 39.1301 60.7294C39.1301 62.7069 39.9001 64.5969 41.2616 66.0039C42.5811 63.3194 46.3401 63.4349 46.7321 63.4559C47.1241 63.4349 50.8831 63.3194 52.2026 66.0039C53.5641 64.5969 54.3341 62.7069 54.3341 60.7294C54.3376 56.5329 50.9286 53.1204 46.7356 53.1204Z" fill="#3D8CFF"/>
<path d="M52.0347 66.7618H52.0387V66.7578C52.0427 66.7578 52.0427 66.7618 52.0347 66.7618Z" fill="#B6DEFF"/>
<path d="M52.0415 67.1957H52.038C51.8 67.1957 51.604 67.0032 51.604 66.7617C51.604 66.6427 51.653 66.5307 51.7335 66.4537C51.8105 66.3732 51.9225 66.3242 52.0415 66.3242C52.2795 66.3242 52.4755 66.5167 52.4755 66.7582C52.472 66.9962 52.2795 67.1957 52.0415 67.1957Z" fill="#3D8CFF"/>
<path d="M41.4297 66.7588C41.4297 66.7588 41.4297 66.7623 41.4332 66.7623C42.8437 68.0083 44.6987 68.7643 46.7322 68.7643C48.7657 68.7643 50.6207 68.0118 52.0312 66.7623C52.0347 66.7623 52.0347 66.7588 52.0347 66.7588C51.0897 63.6158 46.7287 63.8888 46.7287 63.8888C46.7287 63.8888 42.3747 63.6158 41.4297 66.7588Z" fill="#3D8CFF"/>
<path d="M46.7355 69.1986C44.674 69.1986 42.6895 68.4496 41.1495 67.0881C41.0585 67.0076 40.999 66.8886 40.999 66.7591C40.999 66.7171 41.006 66.6751 41.0165 66.6331C42.0175 63.2976 46.312 63.4306 46.7355 63.4516C47.1555 63.4306 51.4535 63.2976 52.4545 66.6331C52.4685 66.6751 52.472 66.7171 52.472 66.7591C52.472 66.8886 52.4125 67.0076 52.3215 67.0881C50.7815 68.4496 48.797 69.1986 46.7355 69.1986ZM41.937 66.6226C43.2845 67.7286 44.9785 68.3306 46.7355 68.3306C48.4925 68.3306 50.1865 67.7251 51.534 66.6226C50.5365 64.1236 46.802 64.3196 46.7635 64.3196C46.746 64.3196 46.7285 64.3196 46.711 64.3196C46.669 64.3196 42.9345 64.1236 41.937 66.6226Z" fill="#3D8CFF"/>
<path d="M41.4297 66.7598V66.7628H41.4327C41.4297 66.7628 41.4297 66.7598 41.4297 66.7598Z" fill="#B6DEFF"/>
<path d="M41.4365 67.1973C41.1985 67.1973 40.999 67.0048 40.999 66.7633C40.999 66.7633 40.999 66.7633 40.999 66.7598C40.999 66.7598 40.999 66.7598 40.999 66.7563C40.999 66.5183 41.1915 66.3223 41.433 66.3223C41.559 66.3223 41.671 66.3748 41.748 66.4588C41.825 66.5358 41.8705 66.6443 41.8705 66.7598C41.867 67.0048 41.6745 67.1973 41.4365 67.1973Z" fill="#3D8CFF"/>
<path d="M46.7359 61.6906C47.9924 61.6906 49.0109 60.6721 49.0109 59.4156C49.0109 58.1592 47.9924 57.1406 46.7359 57.1406C45.4795 57.1406 44.4609 58.1592 44.4609 59.4156C44.4609 60.6721 45.4795 61.6906 46.7359 61.6906Z" fill="#F5FBFF"/>
<path d="M46.7358 62.1219C45.2448 62.1219 44.0303 60.9074 44.0303 59.4164C44.0303 57.9254 45.2448 56.7109 46.7358 56.7109C48.2268 56.7109 49.4413 57.9254 49.4413 59.4164C49.4413 60.9074 48.2268 62.1219 46.7358 62.1219ZM46.7358 57.5754C45.7208 57.5754 44.8948 58.4014 44.8948 59.4164C44.8948 60.4314 45.7208 61.2574 46.7358 61.2574C47.7508 61.2574 48.5768 60.4314 48.5768 59.4164C48.5768 58.4014 47.7508 57.5754 46.7358 57.5754Z" fill="#3D8CFF"/>
<path d="M16.7301 42.4375C16.7301 44.842 15.6731 47.0015 13.9966 48.468C13.0516 45.325 8.69062 45.598 8.69062 45.598C8.69062 45.598 4.32962 45.325 3.38462 48.468C1.70812 47.0015 0.651123 44.8385 0.651123 42.4375C0.651123 37.9995 4.24912 34.3945 8.68712 34.3945C13.1251 34.3945 16.7301 37.996 16.7301 42.4375Z" fill="#F5FBFF"/>
<path d="M3.38812 48.9028C3.28312 48.9028 3.18162 48.8643 3.10462 48.7943C1.27412 47.1913 0.224121 44.8743 0.224121 42.4383C0.224121 37.7658 4.02512 33.9648 8.69412 33.9648C13.3631 33.9648 17.1641 37.7658 17.1641 42.4383C17.1641 44.8743 16.1141 47.1913 14.2836 48.7943C14.1716 48.8923 14.0211 48.9238 13.8776 48.8853C13.7376 48.8433 13.6256 48.7348 13.5836 48.5948C12.7506 45.8228 8.76062 46.0293 8.71862 46.0328C8.70112 46.0328 8.68362 46.0328 8.66612 46.0328C8.62762 46.0328 4.63762 45.8228 3.80112 48.5948C3.75912 48.7348 3.64712 48.8468 3.50712 48.8853C3.46862 48.8958 3.43012 48.9028 3.38812 48.9028ZM8.69412 34.8293C4.50112 34.8293 1.08862 38.2418 1.08862 42.4383C1.08862 44.4158 1.85862 46.3058 3.22012 47.7128C4.53962 45.0283 8.29862 45.1438 8.69062 45.1648C9.08262 45.1438 12.8451 45.0283 14.1611 47.7128C15.5226 46.3058 16.2926 44.4158 16.2926 42.4383C16.2961 38.2418 12.8871 34.8293 8.69412 34.8293Z" fill="#3D8CFF"/>
<path d="M3.39618 48.4728H3.38818V48.4688C3.38818 48.4688 3.38818 48.4728 3.39618 48.4728Z" fill="#B6DEFF"/>
<path d="M3.3951 48.9062H3.3881C3.1501 48.9062 2.9541 48.7138 2.9541 48.4723C2.9541 48.4723 2.9541 48.4722 2.9541 48.4688C2.9541 48.4688 2.9541 48.4688 2.9541 48.4653C2.9541 48.2273 3.1466 48.0312 3.3881 48.0312C3.5071 48.0312 3.6191 48.0803 3.6961 48.1608C3.7766 48.2378 3.8256 48.3497 3.8256 48.4688C3.8256 48.7102 3.6331 48.9062 3.3951 48.9062Z" fill="#3D8CFF"/>
<path d="M14 48.4678C14 48.4678 14 48.4713 13.9965 48.4713C12.586 49.7173 10.731 50.4733 8.69752 50.4733C6.66402 50.4733 4.80902 49.7208 3.39852 48.4713C3.39502 48.4713 3.39502 48.4678 3.39502 48.4678C4.34002 45.3248 8.70102 45.5978 8.70102 45.5978C8.70102 45.5978 13.055 45.3248 14 48.4678Z" fill="#3D8CFF"/>
<path d="M8.69402 50.9075C6.63252 50.9075 4.64802 50.1585 3.10802 48.797C3.01702 48.7165 2.95752 48.5975 2.95752 48.468C2.95752 48.426 2.96452 48.384 2.97502 48.342C3.97602 45.0065 8.27052 45.1395 8.69402 45.1605C9.11752 45.1395 13.412 45.0065 14.413 48.342C14.427 48.384 14.4305 48.426 14.4305 48.468C14.4305 48.5975 14.371 48.7165 14.28 48.797C12.74 50.1585 10.7555 50.9075 8.69402 50.9075ZM3.89552 48.3315C5.24302 49.4375 6.93702 50.0395 8.69402 50.0395C10.451 50.0395 12.145 49.434 13.4925 48.3315C12.495 45.8325 8.76052 46.0285 8.72202 46.0285C8.70452 46.0285 8.68702 46.0285 8.66952 46.0285C8.62752 46.0285 4.89302 45.8325 3.89552 48.3315Z" fill="#3D8CFF"/>
<path d="M14.0006 48.4668V48.4708H13.9966C14.0006 48.4708 14.0006 48.4668 14.0006 48.4668Z" fill="#B6DEFF"/>
<path d="M14 48.9047H13.9965C13.7585 48.9047 13.5625 48.7122 13.5625 48.4707C13.5625 48.3552 13.608 48.2467 13.685 48.1697C13.7655 48.0857 13.8775 48.0332 14 48.0332C14.238 48.0332 14.434 48.2257 14.434 48.4672V48.4707C14.4305 48.7122 14.238 48.9047 14 48.9047Z" fill="#3D8CFF"/>
<path d="M8.69395 43.3996C9.95039 43.3996 10.9689 42.3811 10.9689 41.1246C10.9689 39.8682 9.95039 38.8496 8.69395 38.8496C7.4375 38.8496 6.41895 39.8682 6.41895 41.1246C6.41895 42.3811 7.4375 43.3996 8.69395 43.3996Z" fill="#F5FBFF"/>
<path d="M8.69403 43.8309C7.20303 43.8309 5.98853 42.6164 5.98853 41.1254C5.98853 39.6344 7.20303 38.4199 8.69403 38.4199C10.185 38.4199 11.3995 39.6344 11.3995 41.1254C11.3995 42.6164 10.185 43.8309 8.69403 43.8309ZM8.69403 39.2844C7.67903 39.2844 6.85303 40.1104 6.85303 41.1254C6.85303 42.1404 7.67903 42.9664 8.69403 42.9664C9.70903 42.9664 10.535 42.1404 10.535 41.1254C10.535 40.1104 9.70903 39.2844 8.69403 39.2844Z" fill="#3D8CFF"/>
<path d="M53.27 42.4375C53.27 44.842 54.327 47.0015 56.0035 48.468C56.9485 45.325 61.3095 45.598 61.3095 45.598C61.3095 45.598 65.6705 45.325 66.6155 48.468C68.292 47.0015 69.349 44.8385 69.349 42.4375C69.349 37.9995 65.751 34.3945 61.313 34.3945C56.875 34.3945 53.27 37.996 53.27 42.4375Z" fill="#B6DEFF"/>
<path d="M55.9999 48.9028C55.8949 48.9028 55.7934 48.8643 55.7164 48.7943C53.8859 47.1913 52.8359 44.8743 52.8359 42.4383C52.8359 37.7658 56.6369 33.9648 61.3059 33.9648C65.9749 33.9648 69.7759 37.7658 69.7759 42.4383C69.7759 44.8743 68.7259 47.1913 66.8954 48.7943C66.7834 48.8923 66.6329 48.9238 66.4894 48.8853C66.3494 48.8433 66.2374 48.7348 66.1954 48.5948C65.3624 45.8228 61.3724 46.0293 61.3304 46.0328C61.3129 46.0328 61.2954 46.0328 61.2779 46.0328C61.2394 46.0328 57.2494 45.8228 56.4129 48.5948C56.3709 48.7348 56.2589 48.8468 56.1189 48.8853C56.0804 48.8958 56.0419 48.9028 55.9999 48.9028ZM61.3059 34.8293C57.1129 34.8293 53.7004 38.2418 53.7004 42.4383C53.7004 44.4158 54.4704 46.3058 55.8319 47.7128C57.1514 45.0283 60.9104 45.1438 61.3024 45.1648C61.6944 45.1438 65.4569 45.0283 66.7729 47.7128C68.1344 46.3058 68.9044 44.4158 68.9044 42.4383C68.9114 38.2418 65.4989 34.8293 61.3059 34.8293Z" fill="#3D8CFF"/>
<path d="M66.605 48.4728H66.609V48.4688C66.613 48.4688 66.613 48.4728 66.605 48.4728Z" fill="#B6DEFF"/>
<path d="M66.6118 48.9067H66.6083C66.3703 48.9067 66.1743 48.7142 66.1743 48.4727C66.1743 48.3572 66.2198 48.2487 66.2968 48.1717C66.3773 48.0877 66.4893 48.0352 66.6118 48.0352C66.8498 48.0352 67.0458 48.2277 67.0458 48.4692C67.0423 48.7072 66.8498 48.9067 66.6118 48.9067Z" fill="#3D8CFF"/>
<path d="M56 48.4678C56 48.4678 56 48.4713 56.0035 48.4713C57.414 49.7173 59.269 50.4733 61.3025 50.4733C63.336 50.4733 65.191 49.7208 66.6015 48.4713C66.605 48.4713 66.605 48.4678 66.605 48.4678C65.66 45.3248 61.299 45.5978 61.299 45.5978C61.299 45.5978 56.945 45.3248 56 48.4678Z" fill="#3D8CFF"/>
<path d="M61.3058 50.9075C59.2443 50.9075 57.2598 50.1585 55.7198 48.797C55.6288 48.7165 55.5693 48.5975 55.5693 48.468C55.5693 48.426 55.5763 48.384 55.5868 48.342C56.5878 45.0065 60.8858 45.1395 61.3058 45.1605C61.7293 45.1395 66.0238 45.0065 67.0248 48.342C67.0388 48.384 67.0423 48.426 67.0423 48.468C67.0423 48.5975 66.9828 48.7165 66.8918 48.797C65.3518 50.1585 63.3708 50.9075 61.3058 50.9075ZM56.5073 48.3315C57.8548 49.4375 59.5488 50.0395 61.3058 50.0395C63.0628 50.0395 64.7568 49.434 66.1043 48.3315C65.1068 45.8325 61.3723 46.0285 61.3338 46.0285C61.3163 46.0285 61.2988 46.0285 61.2813 46.0285C61.2393 46.0285 57.5048 45.8325 56.5073 48.3315Z" fill="#3D8CFF"/>
<path d="M56 48.4688V48.4728H56.004C56 48.4728 56 48.4688 56 48.4688Z" fill="#B6DEFF"/>
<path d="M56.0068 48.9062C55.7688 48.9062 55.5693 48.7138 55.5693 48.4723C55.5693 48.4723 55.5693 48.4722 55.5693 48.4688C55.5693 48.4688 55.5693 48.4688 55.5693 48.4653C55.5693 48.2273 55.7618 48.0312 56.0033 48.0312C56.1223 48.0312 56.2343 48.0803 56.3113 48.1608C56.3918 48.2378 56.4408 48.3497 56.4408 48.4688C56.4373 48.7138 56.2448 48.9062 56.0068 48.9062Z" fill="#3D8CFF"/>
<path d="M61.3063 43.3996C62.5627 43.3996 63.5813 42.3811 63.5813 41.1246C63.5813 39.8682 62.5627 38.8496 61.3063 38.8496C60.0498 38.8496 59.0312 39.8682 59.0312 41.1246C59.0312 42.3811 60.0498 43.3996 61.3063 43.3996Z" fill="#F5FBFF"/>
<path d="M61.3061 43.8309C59.8151 43.8309 58.6006 42.6164 58.6006 41.1254C58.6006 39.6344 59.8151 38.4199 61.3061 38.4199C62.7971 38.4199 64.0116 39.6344 64.0116 41.1254C64.0116 42.6164 62.7971 43.8309 61.3061 43.8309ZM61.3061 39.2844C60.2911 39.2844 59.4651 40.1104 59.4651 41.1254C59.4651 42.1404 60.2911 42.9664 61.3061 42.9664C62.3211 42.9664 63.1471 42.1404 63.1471 41.1254C63.1471 40.1104 62.3211 39.2844 61.3061 39.2844Z" fill="#3D8CFF"/>
<path d="M48.0586 19.6055C48.0586 22.01 49.1156 24.1695 50.7921 25.636C51.7371 22.493 56.0981 22.766 56.0981 22.766C56.0981 22.766 60.4591 22.493 61.4041 25.636C63.0806 24.1695 64.1376 22.0065 64.1376 19.6055C64.1376 15.1675 60.5396 11.5625 56.1016 11.5625C51.6636 11.5625 48.0586 15.1675 48.0586 19.6055Z" fill="#B6DEFF"/>
<path d="M61.4005 26.0708C61.362 26.0708 61.32 26.0638 61.2815 26.0533C61.1415 26.0113 61.0295 25.9028 60.9875 25.7628C60.1545 22.9908 56.1645 23.1973 56.1225 23.2008C56.105 23.2008 56.0875 23.2008 56.07 23.2008C56.0315 23.2008 52.0415 22.9908 51.205 25.7628C51.163 25.9028 51.051 26.0148 50.911 26.0533C50.771 26.0953 50.617 26.0603 50.505 25.9623C48.6745 24.3593 47.6245 22.0423 47.6245 19.6063C47.6245 14.9338 51.4255 11.1328 56.0945 11.1328C60.7635 11.1328 64.5645 14.9338 64.5645 19.6063C64.5645 22.0423 63.5145 24.3593 61.684 25.9623C61.607 26.0358 61.5055 26.0708 61.4005 26.0708ZM56.0945 12.0008C51.9015 12.0008 48.489 15.4133 48.489 19.6098C48.489 21.5873 49.259 23.4773 50.6205 24.8843C51.94 22.1998 55.699 22.3153 56.091 22.3363C56.483 22.3153 60.242 22.1998 61.5615 24.8843C62.923 23.4773 63.693 21.5873 63.693 19.6098C63.7 15.4133 60.2875 12.0008 56.0945 12.0008Z" fill="#3D8CFF"/>
<path d="M61.397 25.6436H61.4V25.6406C61.4 25.6406 61.4 25.6436 61.397 25.6436Z" fill="#B6DEFF"/>
<path d="M61.4004 26.0785H61.3969C61.1589 26.0785 60.9629 25.886 60.9629 25.6445C60.9629 25.529 61.0084 25.4205 61.0854 25.3435C61.1659 25.2595 61.2779 25.207 61.4004 25.207C61.6384 25.207 61.8344 25.3995 61.8344 25.641C61.8344 25.879 61.6384 26.0785 61.4004 26.0785Z" fill="#3D8CFF"/>
<path d="M50.792 25.6397C50.792 25.6397 50.792 25.6432 50.7955 25.6432C52.206 26.8892 54.061 27.6452 56.0945 27.6452C58.128 27.6452 59.983 26.8927 61.3935 25.6432C61.397 25.6432 61.397 25.6397 61.397 25.6397C60.452 22.4967 56.091 22.7697 56.091 22.7697C56.091 22.7697 51.737 22.4967 50.792 25.6397Z" fill="#3D8CFF"/>
<path d="M56.0944 28.0755C54.0329 28.0755 52.0484 27.3265 50.5084 25.965C50.4174 25.8845 50.3579 25.7655 50.3579 25.636C50.3579 25.594 50.3649 25.552 50.3754 25.51C51.3764 22.1745 55.6744 22.3075 56.0944 22.3285C56.5144 22.3075 60.8124 22.1745 61.8134 25.51C61.8274 25.552 61.8309 25.5905 61.8309 25.636C61.8309 25.7655 61.7714 25.8845 61.6804 25.965C60.1439 27.3265 58.1594 28.0755 56.0944 28.0755ZM51.2959 25.503C52.6434 26.609 54.3374 27.211 56.0944 27.211C57.8514 27.211 59.5454 26.6055 60.8929 25.503C59.8954 23.004 56.1609 23.2 56.1224 23.2C56.1049 23.2 56.0874 23.2 56.0699 23.2C56.0314 23.1965 52.2934 23.004 51.2959 25.503Z" fill="#3D8CFF"/>
<path d="M50.792 25.6406V25.6446H50.796C50.792 25.6446 50.792 25.6406 50.792 25.6406Z" fill="#B6DEFF"/>
<path d="M50.7954 26.0781C50.5574 26.0781 50.3579 25.8856 50.3579 25.6441C50.3579 25.6441 50.3579 25.6441 50.3579 25.6406C50.3579 25.6406 50.3579 25.6406 50.3579 25.6371C50.3579 25.3991 50.5504 25.2031 50.7919 25.2031C50.9109 25.2031 51.0229 25.2521 51.0999 25.3326C51.1804 25.4096 51.2294 25.5216 51.2294 25.6406C51.2294 25.8821 51.0334 26.0781 50.7954 26.0781Z" fill="#3D8CFF"/>
<path d="M56.0948 20.5695C57.3513 20.5695 58.3698 19.551 58.3698 18.2945C58.3698 17.0381 57.3513 16.0195 56.0948 16.0195C54.8384 16.0195 53.8198 17.0381 53.8198 18.2945C53.8198 19.551 54.8384 20.5695 56.0948 20.5695Z" fill="#F5FBFF"/>
<path d="M56.0947 21.0028C54.6037 21.0028 53.3892 19.7883 53.3892 18.2973C53.3892 16.8063 54.6037 15.5918 56.0947 15.5918C57.5857 15.5918 58.8002 16.8063 58.8002 18.2973C58.8002 19.7883 57.5892 21.0028 56.0947 21.0028ZM56.0947 16.4563C55.0797 16.4563 54.2537 17.2823 54.2537 18.2973C54.2537 19.3123 55.0797 20.1383 56.0947 20.1383C57.1097 20.1383 57.9357 19.3123 57.9357 18.2973C57.9357 17.2823 57.1097 16.4563 56.0947 16.4563Z" fill="#3D8CFF"/>
</g>
<defs>
<clipPath id="clip0_1134_6964">
<rect width="70" height="70" fill="white"/>
</clipPath>
</defs>
</svg>
