<svg width="100" height="100" viewBox="0 0 100 100" fill="none" xmlns="http://www.w3.org/2000/svg">
<g clip-path="url(#clip0_995_55)">
<path d="M71.3508 15.4307L42.3345 0L27.8257 7.71477L56.842 23.1454L71.3508 15.4307Z" fill="#F3F3F3"/>
<path d="M56.8423 76.8711V99.9995L71.3511 92.2847V84.4882L56.8423 76.8711Z" fill="#D0D0D0"/>
<path d="M49.3053 72.7661L20.6538 88.0013V57.2581L49.3633 41.9922V50L42.7017 53.5422V69.2546L49.3053 72.7661Z" fill="#FBCE4E"/>
<path d="M92.5067 49.558V19.0488L71.3511 30.2989V38.3079L92.5067 49.558Z" fill="#FBCE4E"/>
<path d="M71.3511 68.7782L100 53.543V69.2554L71.3511 84.4895" fill="#3C70BC"/>
<path d="M21.0705 42.0397L0 30.835L27.8258 16.0371V38.4509L21.0705 42.0397Z" fill="#3D8CFF"/>
<path d="M42.7017 53.5427L71.3507 68.778L99.9998 53.5427L71.3507 38.3086V46.2631L56.8419 53.9778L49.3632 50.0006L42.7017 53.5427Z" fill="#3D8CFF"/>
<path d="M71.3507 84.4895L42.7017 69.2554V53.543L71.3507 68.7782V84.4895Z" fill="#5B9EFF"/>
<path d="M6.55558 49.8474L0 46.3609V46.4177V30.8359L21.0705 42.0406L6.55558 49.7622V49.8474Z" fill="#5B9EFF"/>
<path d="M6.55566 49.7617V80.5049L20.654 88.0016V57.2584L6.55566 49.7617Z" fill="#F6EB88"/>
<path d="M6.55566 49.7612L35.2651 34.4941L49.3635 41.9919L20.654 57.2579L6.55566 49.7612Z" fill="#FCEE21"/>
<path d="M71.3511 30.2995L92.5066 19.0494L78.4095 11.5527L71.2241 15.3732L71.3511 15.4311V30.2995Z" fill="#FCEE21"/>
<path d="M56.8423 53.9782V23.1464L71.3511 15.4316V46.2634L56.8423 53.9782Z" fill="#D0D0D0"/>
<path d="M27.4673 84.3781L56.8423 99.9996V76.8712L49.3057 72.7656L27.4673 84.3781Z" fill="#E6E6E6"/>
<path d="M27.8257 38.4512V7.71484L56.842 23.1455V53.9773L49.3633 50.0001V41.9922L35.265 34.4944L27.8257 38.4512Z" fill="#E6E6E6"/>
</g>
<defs>
<clipPath id="clip0_995_55">
<rect width="100" height="100" fill="white"/>
</clipPath>
</defs>
</svg>
