<svg width="236" height="50" viewBox="0 0 236 50" fill="none" xmlns="http://www.w3.org/2000/svg">
<g clip-path="url(#clip0_826_2548)">
<path d="M50.5569 22.7051V49.7247H91.6157V22.7051H50.5569ZM79.1843 29.9208L79.6157 31.1757H80.9098L79.851 31.96L80.2824 33.2149L79.2236 32.4306L78.1647 33.2149L78.5569 31.96L77.4981 31.1757H78.7922L79.1843 29.9208ZM75.3412 27.7247L75.7334 26.4698L76.2039 27.7247H77.4981L76.4392 28.4698L76.8314 29.7247L75.7726 28.9404L74.7138 29.7247L75.1059 28.4698L74.0471 27.7247H75.3412ZM62.4785 31.1757L62.949 29.9208L63.3412 31.1757H64.6353L63.5765 31.96L63.9686 33.2149L62.9098 32.4306L61.851 33.2149L62.2432 31.96L61.1843 31.1757H62.4785ZM59.9686 35.8423H61.2628L61.6941 34.5874L62.0863 35.8423H63.3804L62.3216 36.6266L62.7137 37.8815L61.6549 37.0972L60.5961 37.8815L61.0275 36.6266L59.9686 35.8423ZM62.949 41.7639L61.8902 42.5482L62.3216 41.2933L61.2628 40.509H62.5569L62.949 39.2541L63.3412 40.509H64.6353L63.5765 41.2933L64.0079 42.5482L62.949 41.7639ZM67.4196 45.9992L66.3608 45.2149L65.302 45.9992L65.6941 44.7443L64.6353 43.96H65.9294L66.4 42.7051L66.7922 43.96H68.0863L67.0275 44.7443L67.4196 45.9992ZM67.0275 28.4698L67.4196 29.7247L66.3608 28.9404L65.302 29.7247L65.6941 28.4698L64.6353 27.7247H65.9294L66.4 26.4698L66.7922 27.7247H68.0863L67.0275 28.4698ZM72.0863 47.2541L71.0275 46.4698L69.9686 47.2541L70.3608 45.9992L69.302 45.2149H70.5961L71.0667 43.96L71.4588 45.2149H72.753L71.6941 45.9992L72.0863 47.2541ZM71.6941 27.2149L72.0863 28.4698L71.0275 27.6855L69.9686 28.4698L70.3608 27.2149L69.302 26.4698H70.5961L71.0667 25.2149L71.4588 26.4698H72.753L71.6941 27.2149ZM76.8314 45.9992L75.7726 45.2149L74.7138 45.9992L75.1059 44.7443L74.0471 43.96H75.3412L75.7334 42.7051L76.2039 43.96H77.4981L76.4392 44.7443L76.8314 45.9992ZM80.2432 42.5482L79.1843 41.7639L78.1255 42.5482L78.5569 41.2933L77.4981 40.509H78.7922L79.1843 39.2541L79.6157 40.509H80.9098L79.851 41.2933L80.2432 42.5482ZM81.5373 37.8815L80.4785 37.0972L79.4196 37.8815L79.8118 36.6266L78.753 35.8423H80.0471L80.4392 34.5874L80.8706 35.8423H82.1647L81.1059 36.6266L81.5373 37.8815Z" fill="white" fill-opacity="0.9"/>
<path d="M56.7138 16.5483V14.2346C55.8511 13.5287 52.4785 12.0777 50.4393 11.6071V13.2542C52.7922 13.8032 55.7334 15.5287 56.7138 16.5483ZM58.4393 20.0385H60.4393C60.5177 17.0973 58.1256 15.2934 57.7726 15.0189V17.8032C58.557 19.0581 58.4393 20.0385 58.4393 20.0385ZM63.4197 14.1169V16.6267C64.4393 17.6855 65.0275 18.5091 65.4981 20.0385H67.6158C67.0668 17.7248 65.7334 15.8424 63.4197 14.1169ZM62.1256 15.4895V13.215C60.1648 11.9601 56.3217 10.2346 52.4785 9.45025V11.0973C56.204 11.9601 60.1256 13.8816 62.1256 15.4895ZM67.5766 14.1169V11.8816C65.2236 10.3914 60.4393 8.35221 54.753 7.13652V8.78358C60.204 10.0777 64.3609 11.9601 67.5766 14.1169ZM69.106 12.8228V15.2542C70.5962 16.4306 72.0471 17.9993 72.9883 20.0385H75.2236C74.4393 17.4895 71.5766 14.3914 69.106 12.8228ZM73.655 12.7052V10.4699C69.1844 7.8424 62.5177 5.48946 57.1844 4.5875V6.19535C63.1844 7.41103 70.3609 10.3522 73.655 12.7052ZM80.8707 20.0385H83.2236C81.5374 15.9601 77.2628 12.7051 75.3021 11.4895V13.8816C78.3217 16.0777 79.4197 17.6855 80.8707 20.0385ZM79.655 11.2934V8.97966C76.0471 6.78358 68.7138 3.45025 59.8119 1.72476V3.41103C66.5962 4.8228 75.2236 8.19534 79.655 11.2934ZM88.5177 20.0385H91.106C88.2432 15.1757 84.9883 12.3914 81.4197 10.0777V12.5091C84.0864 14.3522 86.8707 17.0973 88.5177 20.0385ZM48.753 12.7836V11.2542C46.4393 10.8228 42.3609 10.5483 40.557 10.7836V11.9993C43.2628 11.8032 47.2236 12.313 48.753 12.7836ZM38.753 12.0777V10.9404C34.4393 11.3718 31.4981 12.862 29.7726 14.1169V15.0973C32.2432 13.1365 35.6158 12.313 38.753 12.0777ZM28.7922 16.1561V15.0189C24.8315 19.4502 29.7726 23.1757 30.3217 23.5287V21.9993C27.5373 19.9208 27.8511 17.3718 28.7922 16.1561ZM31.8119 22.9797V24.6267C34.5177 26.1169 37.2236 27.0581 41.0668 27.764L41.0275 25.5679C38.4001 25.3326 34.8315 24.5875 31.8119 22.9797ZM42.3609 25.5679V27.8816C44.5962 28.0777 46.753 28.1169 47.8903 28.1169V25.5287C46.1648 25.6463 42.9883 25.6463 42.3609 25.5679ZM50.7923 10.6659V9.09731C48.0079 8.54829 42.6354 8.11691 39.4589 8.43064V9.64633C43.6942 9.48946 47.8511 10.0385 50.7923 10.6659ZM39.6158 32.1561V29.6855C35.4981 29.3326 29.1452 27.8816 25.2236 24.9797V26.6267C29.5373 29.8816 36.3609 31.6855 39.6158 32.1561ZM23.6942 25.411V23.764C20.204 20.4306 20.8707 17.0581 23.1452 14.9012V13.8816C18.8315 17.8032 20.4001 22.5875 23.6942 25.411ZM41.0668 29.8032V32.3522C43.5766 32.7052 45.7334 32.8228 47.8903 32.8228V29.9993C45.5766 30.0385 42.0864 29.9208 41.0668 29.8032ZM24.3217 12.9404V13.8816C28.0864 11.0973 33.6942 9.96005 37.655 9.76397V8.5875C32.753 8.90123 27.1452 10.7836 24.3217 12.9404ZM18.204 26.9012V28.6659C23.5766 33.5287 32.4393 36.1561 37.8119 37.0973V34.3522C32.8707 33.8032 23.9687 31.8816 18.204 26.9012ZM53.0668 8.35221V6.8228C49.5766 6.19535 43.5766 5.48946 37.9295 5.99927V7.21495C42.6746 6.90123 49.3805 7.52868 53.0668 8.35221ZM39.4197 34.5091V37.3718C41.8119 37.8424 45.7334 38.0777 47.8903 38.1561V34.9797C46.5962 35.0189 40.9883 34.7052 39.4197 34.5091ZM36.1256 7.3326V6.15613C31.9295 6.50907 24.4393 7.99927 19.4589 11.3718V12.3522C24.3217 9.05809 31.8119 7.56789 36.1256 7.3326ZM18.1256 13.3326V12.3522C15.8511 14.0777 10.2824 19.8424 16.7138 27.1757V25.411C15.302 23.764 11.8511 18.5875 18.1256 13.3326ZM55.4981 5.8424V4.27378C51.2628 3.45025 43.0668 2.74436 36.5962 3.37182V4.5875C42.3217 4.11691 50.4393 4.74436 55.4981 5.8424ZM37.655 39.3718V42.3914C40.8315 43.0189 44.7922 43.411 47.8903 43.4895V40.0777C44.204 40.0385 41.0275 39.8424 37.655 39.3718ZM35.9295 42.1169V39.215C27.0668 37.9601 17.3413 34.7444 11.302 28.8228V30.7052C18.4393 37.8032 30.3217 41.0973 35.9295 42.1169ZM14.5962 9.68554V10.6267C20.5177 6.86201 28.5962 5.25417 34.7922 4.70515V3.48946C28.8707 3.99927 20.1256 6.03848 14.5962 9.68554ZM9.81185 28.862V26.9404C7.49813 23.8032 5.22362 17.5679 13.2236 11.6071V10.6267C4.24323 17.0581 6.47852 24.9012 9.81185 28.862ZM3.57656 30.0777V32.1561C10.3609 40.9404 24.3609 46.1561 33.106 47.9601V44.7444C23.9687 43.215 10.0471 38.7444 3.57656 30.0777ZM58.0864 3.05809V1.41103C53.9295 0.548286 43.7726 -0.588968 34.8315 0.352208V1.60711C42.3217 0.940443 51.7334 1.76397 58.0864 3.05809ZM33.0668 1.76397V0.509071C25.3021 1.29338 15.6942 3.96005 10.0864 7.64633V8.62672C17.1452 4.31299 26.5177 2.39142 33.0668 1.76397ZM34.9883 45.0973V48.3914C36.9883 48.9012 44.5177 49.9993 47.8511 49.9993V46.2346C42.7922 46.0385 37.5766 45.4895 34.9883 45.0973ZM8.55695 9.64633V8.66593C6.28244 10.1169 -4.50187 18.2346 2.12558 29.8816V27.5287C-2.03129 18.9012 4.28244 12.6659 8.55695 9.64633Z" fill="white" fill-opacity="0.9"/>
<path d="M107.263 25.0194H104.479V28.7841H107.655V30.392H102.596V18.5488H107.459V20.1959H104.479V23.4508H107.263" fill="white" fill-opacity="0.9"/>
<path d="M115.302 27.9222C115.302 28.8634 115.341 29.6869 115.38 30.432H113.733L113.616 29.53H113.576C113.223 30.0398 112.557 30.5496 111.655 30.5496C110.086 30.5496 109.459 29.3732 109.459 27.1379V21.8438H111.341V26.9026C111.341 28.1183 111.537 28.981 112.321 28.981C112.91 28.981 113.184 28.4712 113.302 28.1575C113.38 27.9614 113.42 27.6869 113.42 27.4124V21.8438H115.302" fill="white" fill-opacity="0.9"/>
<path d="M117.733 24.2754C117.733 23.4911 117.694 22.5892 117.655 21.8833H119.302L119.419 23.1774H119.459C119.812 22.3146 120.478 21.7656 121.184 21.7656C121.341 21.7656 121.459 21.7656 121.576 21.8048V23.6872C121.459 23.6872 121.341 23.6872 121.184 23.6872C120.518 23.6872 119.89 24.2362 119.655 25.1774C119.616 25.3735 119.576 25.6872 119.576 26.0009V30.5499H117.733" fill="white" fill-opacity="0.9"/>
<path d="M126.047 29.0972C126.988 29.0972 127.184 27.4109 127.184 26.1168C127.184 24.8619 126.988 23.1364 126.008 23.1364C124.988 23.1364 124.792 24.8619 124.792 26.1168C124.831 27.5677 125.067 29.0972 126.047 29.0972ZM126.008 30.5481C124.204 30.5481 122.949 29.0187 122.949 26.156C122.949 23.0579 124.478 21.7246 126.086 21.7246C127.89 21.7246 129.106 23.2932 129.106 26.1168C129.067 29.5677 127.302 30.5481 126.008 30.5481Z" fill="white" fill-opacity="0.9"/>
<path d="M133.027 27.2542C133.027 27.5287 133.067 27.764 133.106 27.9601C133.341 28.7836 133.773 28.9797 134.086 28.9797C135.027 28.9797 135.341 27.6071 135.341 26.1169C135.341 24.4306 134.949 23.2542 134.086 23.2542C133.616 23.2542 133.184 23.8032 133.067 24.3522C133.027 24.5483 132.988 24.7444 132.988 24.9797M131.145 24.5483C131.145 23.3718 131.106 22.5875 131.067 21.8424H132.714L132.831 22.862H132.871C133.263 22.0385 133.929 21.6855 134.674 21.6855C136.361 21.6855 137.263 23.5287 137.263 26.0777C137.263 29.215 135.929 30.5091 134.557 30.5091C133.812 30.5091 133.341 30.0385 133.106 29.6071H133.027V33.7248H131.184V24.5483H131.145Z" fill="white" fill-opacity="0.9"/>
<path d="M143.184 25.2934C143.184 23.9208 142.753 23.0973 142.086 23.0973C141.263 23.0973 140.91 24.2738 140.871 25.2934M140.831 26.6267C140.831 28.5483 141.733 29.0581 142.714 29.0581C143.341 29.0581 143.89 28.9012 144.243 28.7444L144.518 30.0777C143.969 30.313 143.145 30.4699 142.361 30.4699C140.165 30.4699 138.988 28.862 138.988 26.2346C138.988 23.411 140.322 21.6855 142.165 21.6855C143.969 21.6855 144.871 23.3326 144.871 25.6071C144.871 26.1169 144.871 26.3914 144.831 26.6267H140.831Z" fill="white" fill-opacity="0.9"/>
<path d="M150.322 26.1171C149.577 26.1171 148.282 26.3132 148.282 27.8033C148.282 28.7837 148.792 29.1367 149.224 29.1367C149.694 29.1367 150.126 28.823 150.282 28.1563C150.322 28.0386 150.322 27.8818 150.322 27.7249M152.165 28.4308C152.165 29.0975 152.165 29.8033 152.282 30.3916H150.596L150.479 29.5288H150.439C150.008 30.1955 149.38 30.5484 148.635 30.5484C147.42 30.5484 146.479 29.5288 146.479 27.9994C146.479 25.8033 148.322 24.8622 150.282 24.8622V24.6269C150.282 23.7249 149.93 23.0975 148.988 23.0975C148.361 23.0975 147.851 23.2543 147.38 23.5681L147.028 22.2739C147.459 21.9994 148.361 21.6465 149.38 21.6465C151.577 21.6465 152.165 23.1759 152.165 24.9798V28.4308Z" fill="white" fill-opacity="0.9"/>
<path d="M154.557 24.2754C154.557 23.295 154.518 22.6284 154.479 21.8833H156.126L156.204 22.9029H156.243C156.635 22.2362 157.38 21.7656 158.243 21.7656C159.694 21.7656 160.439 22.8637 160.439 24.8637V30.4715H158.557V25.0597C158.557 24.197 158.4 23.3735 157.537 23.3735C157.067 23.3735 156.675 23.7264 156.479 24.4323C156.439 24.6284 156.4 24.9029 156.4 25.2166V30.5107H154.518" fill="white" fill-opacity="0.9"/>
<path d="M168.047 24.2353C168.204 24.2745 168.322 24.2745 168.518 24.2745C169.733 24.2745 170.439 23.4509 170.439 22.0784C170.439 20.9804 169.969 20.0392 168.714 20.0392C168.439 20.0392 168.204 20.0784 168.047 20.1176M166.165 18.7451C166.753 18.5882 167.537 18.5098 168.361 18.5098C169.616 18.5098 170.635 18.7451 171.341 19.4117C171.969 20 172.282 20.9019 172.282 21.9215C172.282 23.098 171.969 23.9215 171.42 24.549C170.714 25.3725 169.577 25.7647 168.557 25.7647C168.361 25.7647 168.204 25.7647 168.047 25.7255V30.3529H166.204V18.7451H166.165Z" fill="white" fill-opacity="0.9"/>
<path d="M177.498 26.1171C176.753 26.1171 175.459 26.3132 175.459 27.8033C175.459 28.7837 175.969 29.1367 176.4 29.1367C176.871 29.1367 177.302 28.823 177.459 28.1563C177.498 28.0386 177.498 27.8818 177.498 27.7249M179.341 28.4308C179.341 29.0975 179.341 29.8033 179.459 30.3916H177.733L177.616 29.5288H177.577C177.145 30.1955 176.518 30.5484 175.773 30.5484C174.557 30.5484 173.616 29.5288 173.616 27.9994C173.616 25.8033 175.459 24.8622 177.42 24.8622V24.6269C177.42 23.7249 177.067 23.0975 176.126 23.0975C175.498 23.0975 174.988 23.2543 174.518 23.5681L174.165 22.2739C174.596 21.9994 175.498 21.6465 176.518 21.6465C178.714 21.6465 179.302 23.1759 179.302 24.9798V28.4308H179.341Z" fill="white" fill-opacity="0.9"/>
<path d="M181.733 24.2754C181.733 23.4911 181.694 22.5892 181.655 21.8833H183.302L183.419 23.1774H183.459C183.772 22.3146 184.478 21.7656 185.184 21.7656C185.341 21.7656 185.459 21.7656 185.576 21.8048V23.6872C185.459 23.6872 185.341 23.6872 185.184 23.6872C184.518 23.6872 183.89 24.2362 183.655 25.1774C183.616 25.3735 183.576 25.6872 183.576 26.0009V30.5499H181.694" fill="white" fill-opacity="0.9"/>
<path d="M189.145 18.2344H187.263V30.3912H189.145V18.2344Z" fill="white" fill-opacity="0.9"/>
<path d="M191.576 21.8431H193.459V30.3921H191.576M192.478 20.7058C191.929 20.7058 191.498 20.2745 191.498 19.6078C191.498 18.9411 191.969 18.5098 192.518 18.5098C193.106 18.5098 193.537 18.9411 193.537 19.6078C193.498 20.2745 193.106 20.7058 192.478 20.7058Z" fill="white" fill-opacity="0.9"/>
<path d="M199.224 26.1171C198.478 26.1171 197.184 26.3132 197.184 27.8033C197.184 28.7837 197.694 29.1367 198.125 29.1367C198.596 29.1367 199.027 28.823 199.184 28.1563C199.224 28.0386 199.224 27.8818 199.224 27.7249M201.067 28.4308C201.067 29.0975 201.067 29.8033 201.184 30.3916H199.498L199.38 29.5288H199.341C198.91 30.1955 198.282 30.5484 197.537 30.5484C196.322 30.5484 195.38 29.5288 195.38 27.9994C195.38 25.8033 197.263 24.8622 199.184 24.8622V24.6269C199.184 23.7249 198.831 23.0975 197.89 23.0975C197.263 23.0975 196.753 23.2543 196.282 23.5681L195.929 22.2739C196.361 21.9994 197.263 21.6465 198.282 21.6465C200.478 21.6465 201.067 23.1759 201.067 24.9798V28.4308Z" fill="white" fill-opacity="0.9"/>
<path d="M203.459 24.2736C203.459 23.2932 203.42 22.6266 203.38 21.8815H205.027L205.106 22.9011H205.145C205.537 22.2344 206.243 21.7246 207.145 21.7246C208.008 21.7246 208.674 22.156 208.988 22.9403H209.027C209.224 22.5874 209.537 22.2344 209.851 22.0383C210.204 21.8423 210.596 21.7246 211.027 21.7246C212.4 21.7246 213.184 22.7834 213.184 24.9011V30.4305H211.302V25.254C211.302 24.2344 211.145 23.2932 210.322 23.2932C209.812 23.2932 209.459 23.6462 209.302 24.3128C209.263 24.4697 209.224 24.7442 209.224 24.9795V30.4305H207.38V24.9403C207.38 24.1952 207.263 23.2932 206.439 23.2932C205.969 23.2932 205.537 23.6462 205.38 24.3128C205.341 24.5089 205.302 24.7442 205.302 24.9795V30.3913H203.459" fill="white" fill-opacity="0.9"/>
<path d="M219.38 25.2934C219.38 23.9208 218.949 23.0973 218.282 23.0973C217.459 23.0973 217.106 24.2738 217.067 25.2934M217.067 26.6267C217.067 28.5483 217.969 29.0581 218.949 29.0581C219.577 29.0581 220.126 28.9012 220.479 28.7444L220.753 30.0777C220.204 30.313 219.38 30.4699 218.596 30.4699C216.4 30.4699 215.224 28.862 215.224 26.2346C215.224 23.411 216.596 21.6855 218.4 21.6855C220.204 21.6855 221.106 23.3326 221.106 25.6071C221.106 26.1169 221.106 26.3914 221.067 26.6267H217.067Z" fill="white" fill-opacity="0.9"/>
<path d="M223.145 24.2754C223.145 23.295 223.106 22.6284 223.067 21.8833H224.714L224.792 22.9029H224.831C225.224 22.2362 225.969 21.7656 226.871 21.7656C228.322 21.7656 229.067 22.8637 229.067 24.8637V30.4715H227.184V25.0597C227.184 24.197 227.027 23.3735 226.204 23.3735C225.733 23.3735 225.341 23.7264 225.145 24.4323C225.106 24.6284 225.067 24.9029 225.067 25.2166V30.5107H223.184" fill="white" fill-opacity="0.9"/>
<path d="M233.655 19.7246V21.8423H235.302V23.2148H233.655V27.6462C233.655 28.705 234.047 28.9795 234.518 28.9795C234.714 28.9795 234.91 28.9795 235.106 28.9403L235.145 30.3913C234.871 30.4697 234.439 30.5481 233.929 30.5481C233.341 30.5481 232.792 30.3913 232.4 30.0383C231.969 29.607 231.773 29.0187 231.773 27.7246V23.254H230.753V21.8815H231.773V20.3913" fill="white" fill-opacity="0.9"/>
</g>
<defs>
<clipPath id="clip0_826_2548">
<rect width="235.302" height="50" fill="white"/>
</clipPath>
</defs>
</svg>
