<svg width="55" height="55" viewBox="0 0 55 55" fill="none" xmlns="http://www.w3.org/2000/svg">
<rect width="55" height="55" fill="#2C67FF"/>
<g clip-path="url(#clip0_1229_177)">
<path d="M28.0438 40.523C27.9856 40.523 27.9274 40.5113 27.8692 40.4879C27.7063 40.4177 27.6016 40.2539 27.6016 40.0785V26.9543C27.6016 26.7086 27.7994 26.5098 28.0438 26.5098C28.2882 26.5098 28.486 26.7086 28.486 26.9543V39.014L29.5218 37.973C29.6964 37.7975 29.9757 37.7975 30.1502 37.973C30.3248 38.1484 30.3248 38.4292 30.1502 38.6046L28.358 40.406C28.2766 40.4762 28.1602 40.523 28.0438 40.523Z" fill="white"/>
<path d="M28.044 40.5233C27.9276 40.5233 27.8229 40.4766 27.7298 40.3947L25.9376 38.5933C25.763 38.4179 25.763 38.1371 25.9376 37.9617C26.1121 37.7862 26.3914 37.7862 26.566 37.9617L28.3582 39.763C28.5328 39.9385 28.5328 40.2192 28.3582 40.3947C28.2768 40.4883 28.1604 40.5233 28.044 40.5233Z" fill="white"/>
<path d="M28.0438 27.3999C27.7994 27.3999 27.6016 27.201 27.6016 26.9554V13.8195C27.6016 13.5739 27.7994 13.375 28.0438 13.375C28.2882 13.375 28.486 13.5739 28.486 13.8195V26.9554C28.486 27.201 28.2882 27.3999 28.0438 27.3999Z" fill="white"/>
<path d="M26.2518 16.0644C26.1354 16.0644 26.0307 16.0176 25.9376 15.9357C25.763 15.7602 25.763 15.4795 25.9376 15.304L27.7298 13.5027C27.9043 13.3272 28.1837 13.3272 28.3582 13.5027C28.5328 13.6781 28.5328 13.9589 28.3582 14.1343L26.566 15.9357C26.4845 16.0176 26.3682 16.0644 26.2518 16.0644Z" fill="white"/>
<path d="M29.836 16.0644C29.7196 16.0644 29.6149 16.0176 29.5218 15.9357L27.7296 14.1343C27.555 13.9589 27.555 13.6781 27.7296 13.5027C27.9041 13.3272 28.1834 13.3272 28.358 13.5027L30.1502 15.304C30.3248 15.4795 30.3248 15.7602 30.1502 15.9357C30.0687 16.0176 29.9524 16.0644 29.836 16.0644Z" fill="white"/>
<path d="M41.0084 20.8026C40.892 20.8026 40.7872 20.7559 40.6941 20.674L38.9019 18.8726C38.7274 18.6972 38.7274 18.4164 38.9019 18.241C39.0765 18.0655 39.3558 18.0655 39.5304 18.241L41.3226 20.0423C41.4971 20.2178 41.4971 20.4985 41.3226 20.674C41.2295 20.7559 41.1131 20.8026 41.0084 20.8026Z" fill="white"/>
<path d="M39.2161 22.6034C39.0998 22.6034 38.995 22.5566 38.9019 22.4748C38.7274 22.2993 38.7274 22.0186 38.9019 21.8431L40.6941 20.0417C40.8687 19.8663 41.148 19.8663 41.3226 20.0417C41.4971 20.2172 41.4971 20.4979 41.3226 20.6734L39.5304 22.4748C39.4373 22.5566 39.3209 22.6034 39.2161 22.6034Z" fill="white"/>
<path d="M41.0084 33.9608C40.892 33.9608 40.7872 33.9141 40.6941 33.8322L38.9019 32.0308C38.7274 31.8554 38.7274 31.5746 38.9019 31.3992C39.0765 31.2237 39.3558 31.2237 39.5304 31.3992L41.3226 33.2005C41.4971 33.376 41.4971 33.6567 41.3226 33.8322C41.2295 33.9141 41.1131 33.9608 41.0084 33.9608Z" fill="white"/>
<path d="M39.2161 35.7616C39.0998 35.7616 38.995 35.7148 38.9019 35.633C38.7274 35.4575 38.7274 35.1768 38.9019 35.0013L40.6941 33.2C40.8687 33.0245 41.148 33.0245 41.3226 33.2C41.4971 33.3754 41.4971 33.6561 41.3226 33.8316L39.5304 35.633C39.4373 35.7148 39.3209 35.7616 39.2161 35.7616Z" fill="white"/>
<path d="M15.0911 20.8026C14.9748 20.8026 14.87 20.7559 14.7769 20.674C14.6024 20.4985 14.6024 20.2178 14.7769 20.0423L16.5691 18.241C16.7437 18.0655 17.023 18.0655 17.1976 18.241C17.3721 18.4164 17.3721 18.6972 17.1976 18.8726L15.4054 20.674C15.3123 20.7559 15.2075 20.8026 15.0911 20.8026Z" fill="white"/>
<path d="M16.8834 22.6034C16.767 22.6034 16.6622 22.5566 16.5691 22.4748L14.7769 20.6734C14.6024 20.4979 14.6024 20.2172 14.7769 20.0417C14.9515 19.8663 15.2308 19.8663 15.4054 20.0417L17.1976 21.8431C17.3721 22.0186 17.3721 22.2993 17.1976 22.4748C17.1045 22.5566 16.9997 22.6034 16.8834 22.6034Z" fill="white"/>
<path d="M15.0911 33.9608C14.9748 33.9608 14.87 33.9141 14.7769 33.8322C14.6024 33.6567 14.6024 33.376 14.7769 33.2005L16.5691 31.3992C16.7437 31.2237 17.023 31.2237 17.1976 31.3992C17.3721 31.5746 17.3721 31.8554 17.1976 32.0308L15.4054 33.8322C15.3123 33.9141 15.2075 33.9608 15.0911 33.9608Z" fill="white"/>
<path d="M16.8834 35.7616C16.767 35.7616 16.6622 35.7148 16.5691 35.633L14.7769 33.8316C14.6024 33.6561 14.6024 33.3754 14.7769 33.2C14.9515 33.0245 15.2308 33.0245 15.4054 33.2L17.1976 35.0013C17.3721 35.1768 17.3721 35.4575 17.1976 35.633C17.1045 35.7148 16.9997 35.7616 16.8834 35.7616Z" fill="white"/>
<path d="M15.8012 33.9852C15.324 33.9852 15.0564 33.9501 15.0447 33.9501C14.8003 33.9267 14.6258 33.7045 14.6491 33.4589C14.6723 33.2132 14.8934 33.0378 15.1378 33.0612C15.1378 33.0612 15.3822 33.0845 15.8012 33.0845C16.0456 33.0845 16.3133 33.0729 16.5693 33.0612C16.8137 33.0495 17.0232 33.2249 17.0348 33.4706C17.0464 33.7162 16.8602 33.9267 16.6275 33.9384C16.3482 33.9852 16.0689 33.9852 15.8012 33.9852ZM18.4779 33.7162C18.2684 33.7162 18.0822 33.5641 18.0473 33.3536C18.0007 33.1079 18.152 32.8857 18.3964 32.8272C18.8736 32.7336 19.3507 32.6167 19.8162 32.4646C20.049 32.3944 20.2934 32.5231 20.3632 32.757C20.433 32.991 20.305 33.2366 20.0722 33.3068C19.5718 33.4589 19.0714 33.5875 18.5593 33.6928C18.5361 33.7162 18.5011 33.7162 18.4779 33.7162ZM21.7132 32.6751C21.5502 32.6751 21.3873 32.5816 21.3058 32.4178C21.2011 32.1956 21.3058 31.9265 21.527 31.833C21.9692 31.6341 22.4114 31.4119 22.8304 31.1662C23.0399 31.0492 23.3075 31.1194 23.4356 31.33C23.5519 31.5405 23.4821 31.8096 23.2726 31.9382C22.8188 32.1956 22.3532 32.4412 21.8877 32.6518C21.8412 32.6635 21.783 32.6751 21.7132 32.6751ZM24.6342 30.9323C24.5062 30.9323 24.3666 30.8738 24.2851 30.7568C24.1338 30.558 24.1804 30.2889 24.3666 30.1369C24.7506 29.8444 25.1347 29.5286 25.4954 29.1894C25.67 29.0256 25.9493 29.0373 26.1239 29.2128C26.2868 29.3882 26.2752 29.669 26.1006 29.8444C25.7166 30.1954 25.3209 30.5346 24.9135 30.8504C24.8204 30.9089 24.7273 30.9323 24.6342 30.9323ZM27.1131 28.5928C27.0083 28.5928 26.9036 28.5578 26.8221 28.4876C26.6359 28.3238 26.6127 28.0431 26.7756 27.8676C27.0898 27.4933 27.3924 27.1073 27.6833 26.6979C27.823 26.4991 28.1023 26.4523 28.3001 26.5926C28.498 26.733 28.5445 27.0137 28.4049 27.2126C28.1023 27.6337 27.7764 28.0431 27.4506 28.4408C27.3575 28.5461 27.2295 28.5928 27.1131 28.5928Z" fill="white"/>
<path d="M40.2868 33.9852C39.4722 33.9852 38.0756 33.9033 36.3998 33.4355C33.9791 32.757 30.5111 31.1311 27.6948 27.2126C27.5551 27.0137 27.6017 26.733 27.7995 26.5926C27.9973 26.4523 28.2766 26.4991 28.4163 26.6979C31.0697 30.3942 34.3399 31.9382 36.6093 32.5816C39.0765 33.2717 40.9502 33.0845 40.9734 33.0845C41.2178 33.0612 41.4273 33.2366 41.4622 33.4823C41.4855 33.7279 41.3109 33.9384 41.0665 33.9735C41.02 33.9618 40.7523 33.9852 40.2868 33.9852Z" fill="white"/>
<path d="M28.0441 27.3866C27.9044 27.3866 27.7764 27.3281 27.6833 27.1994C27.3924 26.79 27.0898 26.404 26.7756 26.0297C26.6127 25.8425 26.6359 25.5618 26.8221 25.4097C27.0083 25.246 27.2876 25.2694 27.4389 25.4565C27.7648 25.8425 28.0907 26.2519 28.3932 26.6847C28.5329 26.8836 28.4863 27.1643 28.2885 27.3047C28.2303 27.3632 28.1372 27.3866 28.0441 27.3866ZM25.798 24.8249C25.6933 24.8249 25.5885 24.7898 25.4954 24.7079C25.1347 24.3687 24.7506 24.0529 24.3666 23.7605C24.1687 23.6084 24.1338 23.3394 24.2851 23.1405C24.4364 22.9416 24.7041 22.9066 24.9019 23.0586C25.3092 23.3744 25.7166 23.7137 26.089 24.0646C26.2635 24.2283 26.2752 24.5091 26.1122 24.6962C26.0308 24.7781 25.9144 24.8249 25.798 24.8249ZM23.0631 22.8013C22.9933 22.8013 22.9119 22.7779 22.842 22.7428C22.4231 22.4972 21.9808 22.2749 21.5386 22.0761C21.3175 21.9708 21.2127 21.7134 21.3175 21.4912C21.4222 21.269 21.6783 21.1637 21.8994 21.269C22.3765 21.4795 22.842 21.7251 23.2843 21.9825C23.4937 22.0995 23.5636 22.3802 23.4472 22.5907C23.3657 22.7194 23.2144 22.8013 23.0631 22.8013ZM19.9442 21.4444C19.8977 21.4444 19.8628 21.4327 19.8162 21.421C19.3507 21.2807 18.8736 21.152 18.3964 21.0584C18.152 21.0116 18.0007 20.7777 18.0473 20.532C18.0938 20.2864 18.3266 20.1343 18.571 20.1811C19.083 20.2864 19.5835 20.4151 20.0839 20.5671C20.3166 20.6373 20.4447 20.883 20.3748 21.1169C20.305 21.3157 20.1304 21.4444 19.9442 21.4444ZM15.0913 20.8245C14.8702 20.8245 14.6723 20.6607 14.6491 20.4268C14.6258 20.1811 14.8003 19.9706 15.0447 19.9355C15.0564 19.9355 15.3357 19.9004 15.8012 19.9004C16.0689 19.9004 16.3482 19.9121 16.6275 19.9238C16.8719 19.9355 17.0581 20.146 17.0348 20.3917C17.0232 20.6373 16.8137 20.8245 16.5693 20.8011C16.3133 20.8128 16.0456 20.8011 15.8012 20.8011C15.3822 20.8011 15.1378 20.8245 15.1378 20.8245C15.1262 20.8245 15.1029 20.8245 15.0913 20.8245Z" fill="white"/>
<path d="M28.0438 27.3999C27.9507 27.3999 27.8692 27.3765 27.7878 27.318C27.5899 27.1776 27.5434 26.8969 27.683 26.698C30.4994 22.7678 33.9791 21.1419 36.3881 20.4751C39.0182 19.7499 40.9617 19.9488 41.0432 19.9488C41.2876 19.9722 41.4621 20.1944 41.4389 20.4401C41.4156 20.6857 41.1945 20.8611 40.9501 20.8378C40.9268 20.8378 39.0648 20.6506 36.5859 21.3407C34.3166 21.9841 31.0463 23.5164 28.3929 27.2244C28.3231 27.3297 28.1835 27.3999 28.0438 27.3999Z" fill="white"/>
</g>
<defs>
<clipPath id="clip0_1229_177">
<rect width="27.5" height="27.5" fill="white" transform="translate(14.2998 13.1992)"/>
</clipPath>
</defs>
</svg>
