<svg width="50" height="50" viewBox="0 0 50 50" fill="none" xmlns="http://www.w3.org/2000/svg">
<path d="M45.9727 38.5975H4.02759V10.692C4.02759 9.29259 5.06417 8.15234 6.33856 8.15234H43.6617C44.9361 8.15234 45.9727 9.29259 45.9727 10.692V38.5975ZM4.94222 37.6828H45.0581V10.692C45.0581 9.79564 44.4331 9.06698 43.6617 9.06698H6.33856C5.57027 9.06698 4.94222 9.79564 4.94222 10.692V37.6828Z" fill="white"/>
<path d="M49.4147 34.8906V39.54C49.4147 40.5614 48.5855 41.3937 47.558 41.3937H2.43911C1.41777 41.3937 0.585449 40.5644 0.585449 39.54V34.8906H13.3629V35.0034C13.3629 36.1681 14.308 37.1162 15.4757 37.1162H34.5275C35.6922 37.1162 36.6403 36.1711 36.6403 35.0034V34.8906H49.4147Z" fill="white"/>
<path d="M47.561 41.6948H2.43905C1.25003 41.6948 0.280518 40.7284 0.280518 39.5363V34.8869C0.280518 34.7192 0.417713 34.582 0.585396 34.582H13.3628C13.5305 34.582 13.6677 34.7192 13.6677 34.8869V34.9997C13.6677 35.9967 14.4787 36.8076 15.4756 36.8076H34.5275C35.5244 36.8076 36.3354 35.9967 36.3354 34.9997V34.8869C36.3354 34.7192 36.4726 34.582 36.6403 34.582H49.4177C49.5854 34.582 49.7226 34.7192 49.7226 34.8869V39.5363C49.7195 40.7284 48.75 41.6948 47.561 41.6948ZM0.890274 35.1948V39.5393C0.890274 40.393 1.5854 41.0881 2.43905 41.0881H47.561C48.4177 41.0881 49.1128 40.393 49.1128 39.5393V35.1948H36.936C36.8384 36.4387 35.7958 37.4174 34.5275 37.4174H15.4756C14.2073 37.4174 13.1647 36.4357 13.0671 35.1948H0.890274Z" fill="white"/>
</svg>
