<svg width="50" height="50" viewBox="0 0 50 50" fill="none" xmlns="http://www.w3.org/2000/svg">
<g clip-path="url(#clip0_941_4875)">
<path d="M14.811 41.1061H4.06098C2.23476 41.1061 0.75 39.6214 0.75 37.7952V36.85C0.75 35.0238 2.23476 33.5391 4.06098 33.5391H14.814C16.6402 33.5391 18.125 35.0238 18.125 36.85V37.7952C18.122 39.6214 16.6372 41.1061 14.811 41.1061ZM4.06098 34.5391C2.78659 34.5391 1.75 35.5756 1.75 36.85V37.7952C1.75 39.0695 2.78659 40.1061 4.06098 40.1061H14.814C16.0884 40.1061 17.125 39.0695 17.125 37.7952V36.85C17.125 35.5756 16.0884 34.5391 14.814 34.5391H4.06098V34.5391Z" fill="white"/>
<path d="M15.0487 40.6061H9.13103C7.7103 40.6061 6.55786 39.4537 6.55786 38.033V36.6122C6.55786 35.1915 7.7103 34.0391 9.13103 34.0391H15.0487C16.4694 34.0391 17.6219 35.1915 17.6219 36.6122V38.033C17.6219 39.4537 16.4694 40.6061 15.0487 40.6061Z" fill="white"/>
<path d="M14.8109 41.1061H9.36884C7.54262 41.1061 6.05786 39.6214 6.05786 37.7952V36.85C6.05786 35.0238 7.54262 33.5391 9.36884 33.5391H14.814C16.6402 33.5391 18.1249 35.0238 18.1249 36.85V37.7952C18.1219 39.6214 16.6371 41.1061 14.8109 41.1061ZM9.36884 34.5391C8.09445 34.5391 7.05786 35.5756 7.05786 36.85V37.7952C7.05786 39.0695 8.09445 40.1061 9.36884 40.1061H14.814C16.0883 40.1061 17.1249 39.0695 17.1249 37.7952V36.85C17.1249 35.5756 16.0883 34.5391 14.814 34.5391H9.36884V34.5391Z" fill="white"/>
<path d="M4.12801 37.8625C4.42604 37.8625 4.66765 37.6209 4.66765 37.3228C4.66765 37.0248 4.42604 36.7832 4.12801 36.7832C3.82998 36.7832 3.58838 37.0248 3.58838 37.3228C3.58838 37.6209 3.82998 37.8625 4.12801 37.8625Z" fill="white"/>
<path d="M4.12801 38.3625C3.55484 38.3625 3.08838 37.896 3.08838 37.3228C3.08838 36.7497 3.55484 36.2832 4.12801 36.2832C4.70118 36.2832 5.16765 36.7497 5.16765 37.3228C5.16765 37.896 4.70118 38.3625 4.12801 38.3625ZM4.12801 37.2832C4.10667 37.2832 4.08838 37.3015 4.08838 37.3228C4.08838 37.3655 4.16765 37.3655 4.16765 37.3228C4.16765 37.3015 4.14935 37.2832 4.12801 37.2832Z" fill="white"/>
<path d="M14.811 49.2038H4.06098C2.23476 49.2038 0.75 47.719 0.75 45.8928V44.9477C0.75 43.1215 2.23476 41.6367 4.06098 41.6367H14.814C16.6402 41.6367 18.125 43.1215 18.125 44.9477V45.8928C18.122 47.716 16.6372 49.2038 14.811 49.2038ZM4.06098 42.6367C2.78659 42.6367 1.75 43.6733 1.75 44.9477V45.8928C1.75 47.1672 2.78659 48.2038 4.06098 48.2038H14.814C16.0884 48.2038 17.125 47.1672 17.125 45.8928V44.9477C17.125 43.6733 16.0884 42.6367 14.814 42.6367H4.06098Z" fill="white"/>
<path d="M15.0487 48.7038H9.13103C7.7103 48.7038 6.55786 47.5514 6.55786 46.1306V44.7099C6.55786 43.2892 7.7103 42.1367 9.13103 42.1367H15.0487C16.4694 42.1367 17.6219 43.2892 17.6219 44.7099V46.1306C17.6219 47.5514 16.4694 48.7038 15.0487 48.7038Z" fill="white"/>
<path d="M14.8109 49.2038H9.36884C7.54262 49.2038 6.05786 47.719 6.05786 45.8928V44.9477C6.05786 43.1215 7.54262 41.6367 9.36884 41.6367H14.814C16.6402 41.6367 18.1249 43.1215 18.1249 44.9477V45.8928C18.1219 47.716 16.6371 49.2038 14.8109 49.2038ZM9.36884 42.6367C8.09445 42.6367 7.05786 43.6733 7.05786 44.9477V45.8928C7.05786 47.1672 8.09445 48.2038 9.36884 48.2038H14.814C16.0883 48.2038 17.1249 47.1672 17.1249 45.8928V44.9477C17.1249 43.6733 16.0883 42.6367 14.814 42.6367H9.36884Z" fill="white"/>
<path d="M4.12801 45.9621C4.42604 45.9621 4.66765 45.7205 4.66765 45.4224C4.66765 45.1244 4.42604 44.8828 4.12801 44.8828C3.82998 44.8828 3.58838 45.1244 3.58838 45.4224C3.58838 45.7205 3.82998 45.9621 4.12801 45.9621Z" fill="white"/>
<path d="M4.12801 46.4582C3.55484 46.4582 3.08838 45.9917 3.08838 45.4185C3.08838 44.8454 3.55484 44.3789 4.12801 44.3789C4.70118 44.3789 5.16765 44.8454 5.16765 45.4185C5.16765 45.9948 4.70118 46.4582 4.12801 46.4582ZM4.12801 45.382C4.10667 45.382 4.08838 45.4002 4.08838 45.4216C4.08838 45.4643 4.16765 45.4643 4.16765 45.4216C4.16765 45.4002 4.14935 45.382 4.12801 45.382Z" fill="white"/>
<path d="M14.811 49.2038H4.06098C2.23476 49.2038 0.75 47.719 0.75 45.8928V44.9477C0.75 43.1215 2.23476 41.6367 4.06098 41.6367H14.814C16.6402 41.6367 18.125 43.1215 18.125 44.9477V45.8928C18.122 47.716 16.6372 49.2038 14.811 49.2038ZM4.06098 42.6367C2.78659 42.6367 1.75 43.6733 1.75 44.9477V45.8928C1.75 47.1672 2.78659 48.2038 4.06098 48.2038H14.814C16.0884 48.2038 17.125 47.1672 17.125 45.8928V44.9477C17.125 43.6733 16.0884 42.6367 14.814 42.6367H4.06098Z" fill="white"/>
<path d="M15.0487 48.7038H9.13103C7.7103 48.7038 6.55786 47.5514 6.55786 46.1306V44.7099C6.55786 43.2892 7.7103 42.1367 9.13103 42.1367H15.0487C16.4694 42.1367 17.6219 43.2892 17.6219 44.7099V46.1306C17.6219 47.5514 16.4694 48.7038 15.0487 48.7038Z" fill="white"/>
<path d="M14.8109 49.2038H9.36884C7.54262 49.2038 6.05786 47.719 6.05786 45.8928V44.9477C6.05786 43.1215 7.54262 41.6367 9.36884 41.6367H14.814C16.6402 41.6367 18.1249 43.1215 18.1249 44.9477V45.8928C18.1219 47.716 16.6371 49.2038 14.8109 49.2038ZM9.36884 42.6367C8.09445 42.6367 7.05786 43.6733 7.05786 44.9477V45.8928C7.05786 47.1672 8.09445 48.2038 9.36884 48.2038H14.814C16.0883 48.2038 17.1249 47.1672 17.1249 45.8928V44.9477C17.1249 43.6733 16.0883 42.6367 14.814 42.6367H9.36884Z" fill="white"/>
<path d="M4.12801 45.9621C4.42604 45.9621 4.66765 45.7205 4.66765 45.4224C4.66765 45.1244 4.42604 44.8828 4.12801 44.8828C3.82998 44.8828 3.58838 45.1244 3.58838 45.4224C3.58838 45.7205 3.82998 45.9621 4.12801 45.9621Z" fill="white"/>
<path d="M4.12801 46.4582C3.55484 46.4582 3.08838 45.9917 3.08838 45.4185C3.08838 44.8454 3.55484 44.3789 4.12801 44.3789C4.70118 44.3789 5.16765 44.8454 5.16765 45.4185C5.16765 45.9948 4.70118 46.4582 4.12801 46.4582ZM4.12801 45.382C4.10667 45.382 4.08838 45.4002 4.08838 45.4216C4.08838 45.4643 4.16765 45.4643 4.16765 45.4216C4.16765 45.4002 4.14935 45.382 4.12801 45.382Z" fill="white"/>
<path d="M15.6373 37.7832H8.62207C8.34768 37.7832 8.12207 37.5606 8.12207 37.2832C8.12207 37.0088 8.34463 36.7832 8.62207 36.7832H15.6373C15.9117 36.7832 16.1373 37.0058 16.1373 37.2832C16.1373 37.5576 15.9148 37.7832 15.6373 37.7832Z" fill="#307DEC"/>
<path d="M15.6373 45.9199H8.62207C8.34768 45.9199 8.12207 45.6974 8.12207 45.4199C8.12207 45.1455 8.34463 44.9199 8.62207 44.9199H15.6373C15.9117 44.9199 16.1373 45.1425 16.1373 45.4199C16.1373 45.6943 15.9148 45.9199 15.6373 45.9199Z" fill="#307DEC"/>
<path d="M30.3322 24.689H19.5822C18.2194 24.689 16.9786 23.8354 16.4908 22.564C16.3444 22.1829 16.2712 21.7866 16.2712 21.3811V20.436C16.2712 18.6098 17.756 17.125 19.5822 17.125H30.3353C32.1615 17.125 33.6462 18.6098 33.6462 20.436V21.3811C33.6462 21.7866 33.5731 22.186 33.4267 22.564C32.9389 23.8323 31.695 24.689 30.3322 24.689ZM19.5822 18.122C18.3078 18.122 17.2712 19.1585 17.2712 20.4329V21.3781C17.2712 21.6616 17.3231 21.939 17.4237 22.2043C17.7621 23.0915 18.6279 23.689 19.5822 23.689H30.3353C31.2865 23.689 32.1523 23.0945 32.4938 22.2043C32.5944 21.939 32.6462 21.6585 32.6462 21.3781V20.4329C32.6462 19.1585 31.6097 18.122 30.3353 18.122H19.5822Z" fill="white"/>
<path d="M30.5702 24.1882H24.6525C23.2318 24.1882 22.0793 23.0357 22.0793 21.615V20.1943C22.0793 18.7735 23.2318 17.6211 24.6525 17.6211H30.5702C31.9909 17.6211 33.1434 18.7735 33.1434 20.1943V21.615C33.1434 23.0357 31.9909 24.1882 30.5702 24.1882Z" fill="white"/>
<path d="M30.3324 24.6882H24.8903C23.0641 24.6882 21.5793 23.2034 21.5793 21.3772V20.4321C21.5793 18.6058 23.0641 17.1211 24.8903 17.1211H30.3354C32.1617 17.1211 33.6464 18.6058 33.6464 20.4321V21.3772C33.6434 23.2034 32.1586 24.6882 30.3324 24.6882ZM24.8903 18.1211C23.6159 18.1211 22.5793 19.1577 22.5793 20.4321V21.3772C22.5793 22.6516 23.6159 23.6882 24.8903 23.6882H30.3354C31.6098 23.6882 32.6464 22.6516 32.6464 21.3772V20.4321C32.6464 19.1577 31.6098 18.1211 30.3354 18.1211H24.8903Z" fill="white"/>
<path d="M19.6495 21.4445C19.9475 21.4445 20.1891 21.2029 20.1891 20.9049C20.1891 20.6068 19.9475 20.3652 19.6495 20.3652C19.3515 20.3652 19.1099 20.6068 19.1099 20.9049C19.1099 21.2029 19.3515 21.4445 19.6495 21.4445Z" fill="white"/>
<path d="M19.6495 21.9445C19.0763 21.9445 18.6099 21.478 18.6099 20.9049C18.6099 20.3317 19.0763 19.8652 19.6495 19.8652C20.2227 19.8652 20.6891 20.3317 20.6891 20.9049C20.6891 21.478 20.2227 21.9445 19.6495 21.9445ZM19.6495 20.8652C19.6282 20.8652 19.6099 20.8835 19.6099 20.9049C19.6099 20.9476 19.6891 20.9476 19.6891 20.9049C19.6891 20.8835 19.6708 20.8652 19.6495 20.8652Z" fill="white"/>
<path d="M30.3322 32.7839H19.5822C17.756 32.7839 16.2712 31.2991 16.2712 29.4729V28.5278C16.2712 26.7016 17.756 25.2168 19.5822 25.2168H30.3353C32.1615 25.2168 33.6462 26.7016 33.6462 28.5278V29.4729C33.6432 31.2991 32.1584 32.7839 30.3322 32.7839ZM19.5822 26.2168C18.3078 26.2168 17.2712 27.2534 17.2712 28.5278V29.4729C17.2712 30.7473 18.3078 31.7839 19.5822 31.7839H30.3353C31.6097 31.7839 32.6462 30.7473 32.6462 29.4729V28.5278C32.6462 27.2534 31.6097 26.2168 30.3353 26.2168H19.5822Z" fill="white"/>
<path d="M30.5702 32.2878H24.6525C23.2318 32.2878 22.0793 31.1353 22.0793 29.7146V28.2939C22.0793 26.8731 23.2318 25.7207 24.6525 25.7207H30.5702C31.9909 25.7207 33.1434 26.8731 33.1434 28.2939V29.7146C33.1434 31.1353 31.9909 32.2878 30.5702 32.2878Z" fill="white"/>
<path d="M30.3324 32.7839H24.8903C23.0641 32.7839 21.5793 31.2991 21.5793 29.4729V28.5278C21.5793 26.7016 23.0641 25.2168 24.8903 25.2168H30.3354C32.1617 25.2168 33.6464 26.7016 33.6464 28.5278V29.4729C33.6434 31.2991 32.1586 32.7839 30.3324 32.7839ZM24.8903 26.2168C23.6159 26.2168 22.5793 27.2534 22.5793 28.5278V29.4729C22.5793 30.7473 23.6159 31.7839 24.8903 31.7839H30.3354C31.6098 31.7839 32.6464 30.7473 32.6464 29.4729V28.5278C32.6464 27.2534 31.6098 26.2168 30.3354 26.2168H24.8903Z" fill="white"/>
<path d="M19.6495 29.5441C19.9475 29.5441 20.1891 29.3025 20.1891 29.0045C20.1891 28.7064 19.9475 28.4648 19.6495 28.4648C19.3515 28.4648 19.1099 28.7064 19.1099 29.0045C19.1099 29.3025 19.3515 29.5441 19.6495 29.5441Z" fill="white"/>
<path d="M19.6495 30.0402C19.0763 30.0402 18.6099 29.5737 18.6099 29.0006C18.6099 28.4274 19.0763 27.9609 19.6495 27.9609C20.2227 27.9609 20.6891 28.4274 20.6891 29.0006C20.6891 29.5737 20.2227 30.0402 19.6495 30.0402ZM19.6495 28.9609C19.6282 28.9609 19.6099 28.9792 19.6099 29.0006C19.6099 29.0433 19.6891 29.0433 19.6891 29.0006C19.6891 28.9792 19.6708 28.9609 19.6495 28.9609Z" fill="white"/>
<path d="M30.3322 32.7839H19.5822C17.756 32.7839 16.2712 31.2991 16.2712 29.4729V28.5278C16.2712 26.7016 17.756 25.2168 19.5822 25.2168H30.3353C32.1615 25.2168 33.6462 26.7016 33.6462 28.5278V29.4729C33.6432 31.2991 32.1584 32.7839 30.3322 32.7839ZM19.5822 26.2168C18.3078 26.2168 17.2712 27.2534 17.2712 28.5278V29.4729C17.2712 30.7473 18.3078 31.7839 19.5822 31.7839H30.3353C31.6097 31.7839 32.6462 30.7473 32.6462 29.4729V28.5278C32.6462 27.2534 31.6097 26.2168 30.3353 26.2168H19.5822Z" fill="white"/>
<path d="M30.5702 32.2878H24.6525C23.2318 32.2878 22.0793 31.1353 22.0793 29.7146V28.2939C22.0793 26.8731 23.2318 25.7207 24.6525 25.7207H30.5702C31.9909 25.7207 33.1434 26.8731 33.1434 28.2939V29.7146C33.1434 31.1353 31.9909 32.2878 30.5702 32.2878Z" fill="white"/>
<path d="M30.3324 32.7839H24.8903C23.0641 32.7839 21.5793 31.2991 21.5793 29.4729V28.5278C21.5793 26.7016 23.0641 25.2168 24.8903 25.2168H30.3354C32.1617 25.2168 33.6464 26.7016 33.6464 28.5278V29.4729C33.6434 31.2991 32.1586 32.7839 30.3324 32.7839ZM24.8903 26.2168C23.6159 26.2168 22.5793 27.2534 22.5793 28.5278V29.4729C22.5793 30.7473 23.6159 31.7839 24.8903 31.7839H30.3354C31.6098 31.7839 32.6464 30.7473 32.6464 29.4729V28.5278C32.6464 27.2534 31.6098 26.2168 30.3354 26.2168H24.8903Z" fill="white"/>
<path d="M19.6495 29.5441C19.9475 29.5441 20.1891 29.3025 20.1891 29.0045C20.1891 28.7064 19.9475 28.4648 19.6495 28.4648C19.3515 28.4648 19.1099 28.7064 19.1099 29.0045C19.1099 29.3025 19.3515 29.5441 19.6495 29.5441Z" fill="white"/>
<path d="M19.6495 30.0402C19.0763 30.0402 18.6099 29.5737 18.6099 29.0006C18.6099 28.4274 19.0763 27.9609 19.6495 27.9609C20.2227 27.9609 20.6891 28.4274 20.6891 29.0006C20.6891 29.5737 20.2227 30.0402 19.6495 30.0402ZM19.6495 28.9609C19.6282 28.9609 19.6099 28.9792 19.6099 29.0006C19.6099 29.0433 19.6891 29.0433 19.6891 29.0006C19.6891 28.9792 19.6708 28.9609 19.6495 28.9609Z" fill="white"/>
<path d="M31.1616 21.3652H24.1433C23.8689 21.3652 23.6433 21.1427 23.6433 20.8652C23.6433 20.5908 23.8659 20.3652 24.1433 20.3652H31.1586C31.4329 20.3652 31.6586 20.5878 31.6586 20.8652C31.6586 21.1396 31.436 21.3652 31.1616 21.3652Z" fill="#307DEC"/>
<path d="M31.1616 29.5H24.1433C23.8689 29.5 23.6433 29.2774 23.6433 29C23.6433 28.7226 23.8659 28.5 24.1433 28.5H31.1586C31.4329 28.5 31.6586 28.7226 31.6586 29C31.6586 29.2774 31.436 29.5 31.1616 29.5Z" fill="#307DEC"/>
<path d="M45.939 41.1061H35.186C33.3598 41.1061 31.875 39.6214 31.875 37.7952V36.85C31.875 35.0238 33.3598 33.5391 35.186 33.5391H45.939C47.7652 33.5391 49.25 35.0238 49.25 36.85V37.7952C49.25 39.6214 47.7652 41.1061 45.939 41.1061ZM35.189 34.5391C33.9146 34.5391 32.878 35.5756 32.878 36.85V37.7952C32.878 39.0695 33.9146 40.1061 35.189 40.1061H45.9421C47.2165 40.1061 48.253 39.0695 48.253 37.7952V36.85C48.253 35.5756 47.2165 34.5391 45.9421 34.5391H35.189V34.5391Z" fill="white"/>
<path d="M46.1766 40.6061H40.259C38.8382 40.6061 37.6858 39.4537 37.6858 38.033V36.6122C37.6858 35.1915 38.8382 34.0391 40.259 34.0391H46.1766C47.5974 34.0391 48.7498 35.1915 48.7498 36.6122V38.033C48.7498 39.4537 47.5974 40.6061 46.1766 40.6061Z" fill="white"/>
<path d="M45.939 41.1061H40.4938C38.6676 41.1061 37.1829 39.6214 37.1829 37.7952V36.85C37.1829 35.0238 38.6676 33.5391 40.4938 33.5391H45.939C47.7652 33.5391 49.2499 35.0238 49.2499 36.85V37.7952C49.2499 39.6214 47.7652 41.1061 45.939 41.1061ZM40.4969 34.5391C39.2225 34.5391 38.1859 35.5756 38.1859 36.85V37.7952C38.1859 39.0695 39.2225 40.1061 40.4969 40.1061H45.942C47.2164 40.1061 48.253 39.0695 48.253 37.7952V36.85C48.253 35.5756 47.2164 34.5391 45.942 34.5391H40.4969V34.5391Z" fill="white"/>
<path d="M35.2562 37.8625C35.5542 37.8625 35.7958 37.6209 35.7958 37.3228C35.7958 37.0248 35.5542 36.7832 35.2562 36.7832C34.9582 36.7832 34.7166 37.0248 34.7166 37.3228C34.7166 37.6209 34.9582 37.8625 35.2562 37.8625Z" fill="white"/>
<path d="M35.2562 38.3625C34.683 38.3625 34.2166 37.896 34.2166 37.3228C34.2166 36.7497 34.683 36.2832 35.2562 36.2832C35.8294 36.2832 36.2958 36.7497 36.2958 37.3228C36.2958 37.896 35.8294 38.3625 35.2562 38.3625ZM35.2562 37.2832C35.2348 37.2832 35.2166 37.3015 35.2166 37.3228C35.2166 37.3655 35.2958 37.3655 35.2958 37.3228C35.2958 37.3015 35.2775 37.2832 35.2562 37.2832Z" fill="white"/>
<path d="M45.939 49.2038H35.186C33.3598 49.2038 31.875 47.719 31.875 45.8928V44.9477C31.875 43.1215 33.3598 41.6367 35.186 41.6367H45.939C47.7652 41.6367 49.25 43.1215 49.25 44.9477V45.8928C49.25 47.716 47.7652 49.2038 45.939 49.2038ZM35.189 42.6367C33.9146 42.6367 32.878 43.6733 32.878 44.9477V45.8928C32.878 47.1672 33.9146 48.2038 35.189 48.2038H45.9421C47.2165 48.2038 48.253 47.1672 48.253 45.8928V44.9477C48.253 43.6733 47.2165 42.6367 45.9421 42.6367H35.189Z" fill="white"/>
<path d="M46.1766 48.7038H40.259C38.8382 48.7038 37.6858 47.5514 37.6858 46.1306V44.7099C37.6858 43.2892 38.8382 42.1367 40.259 42.1367H46.1766C47.5974 42.1367 48.7498 43.2892 48.7498 44.7099V46.1306C48.7498 47.5514 47.5974 48.7038 46.1766 48.7038Z" fill="white"/>
<path d="M45.939 49.2038H40.4938C38.6676 49.2038 37.1829 47.719 37.1829 45.8928V44.9477C37.1829 43.1215 38.6676 41.6367 40.4938 41.6367H45.939C47.7652 41.6367 49.2499 43.1215 49.2499 44.9477V45.8928C49.2499 47.716 47.7652 49.2038 45.939 49.2038ZM40.4969 42.6367C39.2225 42.6367 38.1859 43.6733 38.1859 44.9477V45.8928C38.1859 47.1672 39.2225 48.2038 40.4969 48.2038H45.942C47.2164 48.2038 48.253 47.1672 48.253 45.8928V44.9477C48.253 43.6733 47.2164 42.6367 45.942 42.6367H40.4969Z" fill="white"/>
<path d="M35.2562 45.9621C35.5542 45.9621 35.7958 45.7205 35.7958 45.4224C35.7958 45.1244 35.5542 44.8828 35.2562 44.8828C34.9582 44.8828 34.7166 45.1244 34.7166 45.4224C34.7166 45.7205 34.9582 45.9621 35.2562 45.9621Z" fill="white"/>
<path d="M35.2562 46.4582C34.683 46.4582 34.2166 45.9917 34.2166 45.4185C34.2166 44.8454 34.683 44.3789 35.2562 44.3789C35.8294 44.3789 36.2958 44.8454 36.2958 45.4185C36.2958 45.9948 35.8294 46.4582 35.2562 46.4582ZM35.2562 45.382C35.2348 45.382 35.2166 45.4002 35.2166 45.4216C35.2166 45.4643 35.2958 45.4643 35.2958 45.4216C35.2958 45.4002 35.2775 45.382 35.2562 45.382Z" fill="white"/>
<path d="M45.939 49.2038H35.186C33.3598 49.2038 31.875 47.719 31.875 45.8928V44.9477C31.875 43.1215 33.3598 41.6367 35.186 41.6367H45.939C47.7652 41.6367 49.25 43.1215 49.25 44.9477V45.8928C49.25 47.716 47.7652 49.2038 45.939 49.2038ZM35.189 42.6367C33.9146 42.6367 32.878 43.6733 32.878 44.9477V45.8928C32.878 47.1672 33.9146 48.2038 35.189 48.2038H45.9421C47.2165 48.2038 48.253 47.1672 48.253 45.8928V44.9477C48.253 43.6733 47.2165 42.6367 45.9421 42.6367H35.189Z" fill="white"/>
<path d="M46.1766 48.7038H40.259C38.8382 48.7038 37.6858 47.5514 37.6858 46.1306V44.7099C37.6858 43.2892 38.8382 42.1367 40.259 42.1367H46.1766C47.5974 42.1367 48.7498 43.2892 48.7498 44.7099V46.1306C48.7498 47.5514 47.5974 48.7038 46.1766 48.7038Z" fill="white"/>
<path d="M45.939 49.2038H40.4938C38.6676 49.2038 37.1829 47.719 37.1829 45.8928V44.9477C37.1829 43.1215 38.6676 41.6367 40.4938 41.6367H45.939C47.7652 41.6367 49.2499 43.1215 49.2499 44.9477V45.8928C49.2499 47.716 47.7652 49.2038 45.939 49.2038ZM40.4969 42.6367C39.2225 42.6367 38.1859 43.6733 38.1859 44.9477V45.8928C38.1859 47.1672 39.2225 48.2038 40.4969 48.2038H45.942C47.2164 48.2038 48.253 47.1672 48.253 45.8928V44.9477C48.253 43.6733 47.2164 42.6367 45.942 42.6367H40.4969Z" fill="white"/>
<path d="M35.2562 45.9621C35.5542 45.9621 35.7958 45.7205 35.7958 45.4224C35.7958 45.1244 35.5542 44.8828 35.2562 44.8828C34.9582 44.8828 34.7166 45.1244 34.7166 45.4224C34.7166 45.7205 34.9582 45.9621 35.2562 45.9621Z" fill="white"/>
<path d="M35.2562 46.4582C34.683 46.4582 34.2166 45.9917 34.2166 45.4185C34.2166 44.8454 34.683 44.3789 35.2562 44.3789C35.8294 44.3789 36.2958 44.8454 36.2958 45.4185C36.2958 45.9948 35.8294 46.4582 35.2562 46.4582ZM35.2562 45.382C35.2348 45.382 35.2166 45.4002 35.2166 45.4216C35.2166 45.4643 35.2958 45.4643 35.2958 45.4216C35.2958 45.4002 35.2775 45.382 35.2562 45.382Z" fill="white"/>
<path d="M46.7683 37.7832H39.75C39.4756 37.7832 39.25 37.5606 39.25 37.2832C39.25 37.0088 39.4726 36.7832 39.75 36.7832H46.7683C47.0427 36.7832 47.2683 37.0058 47.2683 37.2832C47.2652 37.5576 47.0427 37.7832 46.7683 37.7832Z" fill="#307DEC"/>
<path d="M46.7683 45.9199H39.75C39.4756 45.9199 39.25 45.6974 39.25 45.4199C39.25 45.1455 39.4726 44.9199 39.75 44.9199H46.7683C47.0427 44.9199 47.2683 45.1425 47.2683 45.4199C47.2652 45.6943 47.0427 45.9199 46.7683 45.9199Z" fill="#307DEC"/>
<path d="M40.5641 34.5394C40.2897 34.5394 40.0641 34.3168 40.0641 34.0394V25.5059H9.86597V34.0394C9.86597 34.3138 9.64341 34.5394 9.36597 34.5394C9.09158 34.5394 8.86597 34.3168 8.86597 34.0394V25.0059C8.86597 24.7315 9.08853 24.5059 9.36597 24.5059H40.5641C40.8385 24.5059 41.0641 24.7284 41.0641 25.0059V34.0394C41.0641 34.3168 40.8416 34.5394 40.5641 34.5394Z" fill="white"/>
<path d="M24.9908 4.95173C26.8353 4.97612 28.4786 5.57064 29.9085 6.73832C30.0823 6.87856 30.2896 7.01271 30.3414 7.25051C30.4054 7.54929 30.3384 7.81454 30.064 7.98832C29.7713 8.17429 29.4969 8.10112 29.253 7.88771C28.692 7.3999 28.0884 6.98527 27.3871 6.72307C24.9756 5.81759 22.7621 6.17429 20.7621 7.80234C20.4999 8.01576 20.2438 8.19868 19.8932 8.01271C19.6249 7.86942 19.5335 7.63771 19.5487 7.34198C19.5609 7.14686 19.6798 7.0249 19.8109 6.90905C20.9603 5.87856 22.3048 5.25966 23.8262 5.03405C24.2134 4.97612 24.5975 4.9121 24.9908 4.95173Z" fill="white"/>
<path d="M25.3384 7.53127C26.1982 7.54346 27.2835 7.94285 28.2378 8.702C28.5823 8.97639 28.6524 9.34224 28.4238 9.65017C28.1951 9.96419 27.7957 9.99773 27.436 9.72334C26.0671 8.67456 24.6098 8.53127 23.0732 9.31785C22.8476 9.4337 22.6524 9.60139 22.4451 9.75078C22.1006 9.99468 21.7104 9.95505 21.4878 9.65322C21.2653 9.35444 21.3232 8.99773 21.6403 8.72944C22.5366 7.96419 23.7561 7.52822 25.3384 7.53127Z" fill="white"/>
<path d="M26.4938 11.0942C26.4999 11.3625 26.4085 11.5668 26.189 11.6857C25.9634 11.8107 25.7195 11.8351 25.5121 11.6583C25.1371 11.3351 24.7835 11.3412 24.3993 11.6522C24.1158 11.8808 23.814 11.8076 23.5731 11.5576C23.3445 11.3229 23.3688 10.9387 23.5975 10.6857C24.3048 9.90215 25.6036 9.90215 26.317 10.6826C26.4298 10.8107 26.506 10.9418 26.4938 11.0942Z" fill="white"/>
<path d="M25.6005 13.3197C25.6066 13.6764 25.3322 13.963 24.9755 13.9752C24.6036 13.9874 24.3048 13.6916 24.3109 13.3197C24.317 12.963 24.5975 12.6855 24.9542 12.6855C25.3109 12.6855 25.5944 12.963 25.6005 13.3197Z" fill="white"/>
<path d="M35.3292 22.8842H32.9542C32.7896 22.8842 32.6371 22.8019 32.5426 22.6677C32.4481 22.5336 32.4298 22.3598 32.4878 22.2074C32.5884 21.9421 32.6402 21.6616 32.6402 21.3811V20.436C32.6402 19.1616 31.6036 18.125 30.3292 18.125H19.5823C18.3079 18.125 17.2713 19.1616 17.2713 20.436V21.3811C17.2713 21.6647 17.3231 21.9421 17.4237 22.2074C17.4817 22.3598 17.4634 22.5336 17.3689 22.6677C17.2743 22.8019 17.1219 22.8842 16.9573 22.8842H12.9969C9.59446 22.8842 6.82617 20.1159 6.82617 16.7135C6.82617 13.308 9.59446 10.5397 12.9969 10.5397C13.1707 10.5397 13.3475 10.5488 13.5213 10.5641C14.1585 5.04578 18.878 0.798828 24.4939 0.798828C28.8414 0.798828 32.7408 3.31712 34.5396 7.247C34.7987 7.22261 35.064 7.20736 35.3292 7.20736C39.6524 7.20736 43.1676 10.7226 43.1676 15.0458C43.1676 19.3689 39.6524 22.8842 35.3292 22.8842ZM33.6036 21.8842H35.3292C39.1006 21.8842 42.1676 18.8171 42.1676 15.0458C42.1676 11.2744 39.1006 8.20736 35.3292 8.20736C34.9786 8.20736 34.6341 8.23175 34.3048 8.28054C34.0762 8.31407 33.8567 8.18907 33.7713 7.97871C32.2073 4.22261 28.564 1.79578 24.4969 1.79578C19.2256 1.79578 14.8231 5.90858 14.4725 11.1586C14.4634 11.3019 14.3932 11.4299 14.2804 11.5183C14.1676 11.6068 14.0243 11.6403 13.8841 11.6159C13.5914 11.5641 13.2926 11.5366 12.9969 11.5366C10.1463 11.5366 7.82617 13.8568 7.82617 16.7104C7.82617 19.561 10.1463 21.8811 12.9969 21.8811H16.3109C16.2865 21.7135 16.2713 21.5458 16.2713 21.375V20.4299C16.2713 18.6037 17.7561 17.1189 19.5823 17.1189H30.3353C32.1615 17.1189 33.6463 18.6037 33.6463 20.4299V21.375C33.6432 21.5488 33.628 21.7165 33.6036 21.8842Z" fill="white"/>
<path d="M17.2073 14.0375C17.0061 14.0375 16.8201 13.9156 16.7408 13.7204C16.0152 11.8607 14.0091 11.632 13.9237 11.6229C13.6493 11.5954 13.4512 11.3485 13.4786 11.0772C13.5061 10.8028 13.75 10.6046 14.0213 10.629C14.1311 10.6381 16.7195 10.9156 17.6707 13.3576C17.7713 13.6137 17.6432 13.9034 17.3871 14.004C17.3292 14.0284 17.2682 14.0375 17.2073 14.0375Z" fill="white"/>
<path d="M34.5397 11.04C34.5062 11.04 34.4696 11.0369 34.433 11.0278C34.1647 10.9699 33.9909 10.7046 34.0489 10.4333C34.3294 9.12534 33.7897 8.01558 33.7836 8.00644C33.6617 7.75949 33.7592 7.4607 34.0062 7.3357C34.2531 7.21375 34.5519 7.31131 34.6739 7.55522C34.7013 7.61314 35.3781 8.97595 35.0214 10.6406C34.9788 10.8814 34.7714 11.04 34.5397 11.04Z" fill="white"/>
</g>
<defs>
<clipPath id="clip0_941_4875">
<rect width="50" height="50" fill="white"/>
</clipPath>
</defs>
</svg>
