<svg width="114" height="50" viewBox="0 0 114 50" fill="none" xmlns="http://www.w3.org/2000/svg">
<g clip-path="url(#clip0_826_2183)">
<path d="M95.8965 49.9872C95.9036 47.2961 95.9348 44.605 95.9007 41.9139C95.8922 41.2404 96.0428 41.0173 96.7476 41.0486C98.1656 41.1097 99.5864 41.0699 101.007 41.0756C103.183 41.0827 104.561 39.8025 104.703 37.6215C104.733 37.1739 104.731 36.7235 104.731 36.2731C104.733 28.8676 104.731 21.4606 104.734 14.0551C104.734 13.5351 104.75 13.0151 104.771 12.495C104.845 10.5826 103.723 9.21569 101.827 8.95567C101.29 8.88178 100.743 8.85621 100.2 8.85479C91.7987 8.8491 83.3958 8.85053 74.9942 8.8491C74.5452 8.8491 74.0948 8.83774 73.6458 8.83063C71.4634 8.79795 70.0155 10.1364 69.9047 12.3259C69.8607 13.1998 69.8848 14.0764 69.882 14.9517C69.8791 15.7999 69.882 16.6496 69.882 17.5021C69.5779 17.5774 69.4912 17.3288 69.3577 17.1966C68.2352 16.077 67.1099 14.9602 66.0144 13.8136C65.6933 13.4768 65.5086 13.4768 65.1804 13.8051C63.9087 15.0739 62.6086 16.3115 61.3227 17.5575C61.2559 17.5149 61.1892 17.4922 61.1892 17.4695C61.2233 14.686 60.9363 11.8869 61.6538 9.13896C62.9283 4.26115 65.9135 1.18926 70.9604 0.275647C71.121 0.245808 71.2957 0.251492 71.4051 0.0980392C71.4094 0.0923558 71.3881 0.0639386 71.3753 0.04973C71.3597 0.0312589 71.3426 0.0156294 71.3256 0C81.8854 0 92.4438 0 103.004 0C102.974 0.0312589 102.941 0.0610969 102.917 0.0966184C102.913 0.102302 102.94 0.143507 102.958 0.14919C103.112 0.197499 103.265 0.255754 103.421 0.285592C108.653 1.26883 112.529 4.49275 113.399 10.0682C113.417 10.189 113.326 10.4831 113.657 10.368C113.657 20.3083 113.657 30.2486 113.657 40.1904C113.64 40.1748 113.623 40.1563 113.605 40.1421C113.589 40.1307 113.561 40.1122 113.555 40.1179C113.377 40.2771 113.406 40.5044 113.362 40.709C112.59 44.2668 110.74 47.0048 107.357 48.5635C105.949 49.2128 104.459 49.5624 102.918 49.7244C102.746 49.7428 102.415 49.5794 102.435 49.9901C100.253 49.9872 98.0746 49.9872 95.8965 49.9872Z" fill="white" fill-opacity="0.9"/>
<path d="M72.6002 49.9881C72.63 49.6869 72.3785 49.7466 72.2294 49.7267C66.6653 48.9907 61.1381 44.0702 61.141 36.6264C61.1438 31.0665 61.1424 25.5067 61.1367 19.9469C61.1367 19.6016 61.1893 19.316 61.4635 19.0589C62.7224 17.8767 63.9728 16.6846 65.2032 15.4726C65.5158 15.1643 65.6991 15.1728 65.9989 15.4854C67.1441 16.6818 68.3049 17.8639 69.4857 19.0248C69.804 19.3373 69.7954 19.6855 69.7954 20.0634C69.794 25.5522 69.7855 31.041 69.7997 36.5297C69.8068 39.2862 72.0006 41.328 74.6491 41.085C76.4351 40.9216 77.9171 39.6798 78.376 37.9634C78.8363 36.2427 78.1813 34.4141 76.7363 33.3797C75.3069 32.3567 73.322 32.3283 71.867 33.3158C71.6369 33.472 71.418 33.6454 71.2021 33.8045C71.0131 33.6937 71.077 33.5346 71.077 33.4067C71.0728 30.5437 71.087 27.6806 71.0614 24.819C71.0572 24.3104 71.2262 24.1228 71.7065 24.0276C79.156 22.5513 86.5076 28.0884 87.11 35.6431C87.6684 42.6281 83.0662 48.5445 76.168 49.721C76.0074 49.748 75.7076 49.6315 75.7232 49.9881C74.6832 49.9881 73.6417 49.9881 72.6002 49.9881Z" fill="white" fill-opacity="0.9"/>
<path d="M36.2348 49.9874C36.2377 47.8007 36.2434 45.6155 36.2434 43.4288C36.2448 39.3367 36.2533 35.2446 36.232 31.154C36.2292 30.597 36.3272 30.3739 36.9538 30.381C40.29 30.4151 43.6247 30.3981 46.9609 30.4023C47.7438 30.4038 48.5196 30.4748 49.284 30.6439C51.2334 31.0744 52.1541 32.0704 52.461 34.0468C52.6216 35.0869 52.6003 36.1227 52.417 37.1528C52.1868 38.4586 51.4551 39.3353 50.1536 39.6976C49.9958 39.7416 49.8396 39.7928 49.6847 39.8454C49.6662 39.851 49.6548 39.878 49.581 39.9676C49.8893 40.04 50.1621 40.1096 50.4363 40.1693C51.681 40.4379 52.4355 41.2151 52.687 42.4398C52.9754 43.8451 52.9654 45.2659 52.623 46.6626C52.1428 48.6277 50.8455 49.5541 48.4599 49.7061C47.687 49.7558 47.687 49.7558 47.4539 49.9874C43.7171 49.9874 39.976 49.9874 36.2348 49.9874ZM44.0197 41.7664C44.0197 41.7593 44.0197 41.7521 44.0197 41.745C43.3107 41.745 42.6003 41.7536 41.8913 41.7408C41.5801 41.7351 41.4011 41.8132 41.4053 42.1685C41.4167 43.1616 41.4096 44.1548 41.411 45.148C41.411 45.391 41.492 45.5643 41.7748 45.5572C43.3093 45.5188 44.8523 45.6879 46.3798 45.4478C47.3786 45.2901 47.7779 44.6251 47.7083 43.3734C47.6472 42.2736 47.2792 41.8459 46.2192 41.7763C45.4889 41.728 44.7529 41.7664 44.0197 41.7664ZM43.8918 38.1758C44.571 38.1574 45.4235 38.2227 46.2704 38.075C46.9154 37.9613 47.2877 37.6075 47.3374 36.9468C47.363 36.6172 47.4028 36.2847 47.3815 35.9579C47.3218 35.0514 47.012 34.699 46.1169 34.6706C44.6989 34.6251 43.2794 34.6578 41.86 34.6408C41.5162 34.6365 41.4011 34.7757 41.4053 35.1011C41.4153 35.9764 41.4139 36.8516 41.4068 37.7254C41.4039 38.0579 41.546 38.1886 41.8771 38.1801C42.4923 38.1645 43.1075 38.1758 43.8918 38.1758Z" fill="white" fill-opacity="0.9"/>
<path d="M21.8883 49.9872C21.9452 49.6789 21.688 49.7372 21.5402 49.7159C18.1202 49.2086 17.2677 46.7988 17.3103 43.6971C17.3146 43.3618 17.5107 43.3234 17.775 43.3234C19.1248 43.3277 20.4732 43.3348 21.823 43.3192C22.2137 43.3149 22.2791 43.501 22.3075 43.8349C22.4112 45.0341 22.8346 45.459 24.0168 45.5968C25.1719 45.7318 26.3285 45.7971 27.4837 45.6025C28.4726 45.4362 28.7767 44.9858 28.7653 43.7483C28.7554 42.6386 28.592 42.3956 27.5036 42.262C25.5314 42.0205 23.5451 41.8912 21.58 41.6099C18.7198 41.1992 17.559 39.8295 17.4752 36.9352C17.4595 36.3683 17.4624 35.7986 17.4879 35.2316C17.6201 32.2762 18.9457 30.7076 21.867 30.314C24.48 29.9617 27.1228 30.0441 29.7173 30.5016C32.3189 30.9605 33.4698 32.434 33.5507 35.0853C33.5962 36.5814 33.5962 36.5814 32.1427 36.5814C31.1481 36.5814 30.1535 36.5729 29.1603 36.5857C28.7838 36.59 28.5777 36.5402 28.5351 36.0671C28.4357 34.9489 28.0336 34.6036 26.9082 34.4914C26.0103 34.4033 25.1151 34.3848 24.2157 34.4885C23.0662 34.6207 22.6741 34.9844 22.6428 36.0017C22.6087 37.1342 22.9611 37.5789 24.1489 37.721C25.746 37.9114 27.3515 38.0279 28.95 38.2097C29.5823 38.2822 30.2132 38.4072 30.8284 38.5706C32.8957 39.1191 33.734 40.0739 33.9244 42.1896C34.0282 43.3419 33.9969 44.5027 33.8761 45.6621C33.6687 47.6457 32.5519 48.8363 30.6977 49.4018C30.2686 49.5326 29.8238 49.6079 29.3891 49.7187C29.2569 49.7528 29.0225 49.713 29.1333 49.9872C26.7178 49.9872 24.3024 49.9872 21.8883 49.9872Z" fill="white" fill-opacity="0.9"/>
<path d="M0.0113842 30.3885C1.47913 30.3899 2.94688 30.4183 4.4132 30.38C4.99291 30.3643 5.18757 30.5164 5.1762 31.1202C5.14068 33.2203 5.162 35.3217 5.162 37.5979C5.39786 37.2853 5.55273 37.0949 5.69055 36.8946C7.07305 34.8884 8.45981 32.8849 9.82383 30.8673C10.0625 30.5135 10.3197 30.3771 10.7474 30.3828C12.5661 30.407 14.3862 30.3928 16.2106 30.3928C16.2603 30.7366 16.0188 30.9014 15.8781 31.0989C13.9131 33.8525 11.948 36.6062 9.95739 39.3413C9.65617 39.7548 9.64054 40.0262 9.95881 40.4439C12.0944 43.2487 14.2001 46.0762 16.3143 48.8966C16.5644 49.2305 16.8628 49.5417 16.9153 49.9864C14.784 49.9864 12.6542 49.9864 10.5229 49.9864C10.7531 49.8557 10.5485 49.7562 10.4874 49.671C8.84628 47.3578 7.20093 45.0475 5.55131 42.74C5.4689 42.6249 5.42627 42.409 5.12505 42.5269C5.12505 44.9992 5.12505 47.4928 5.12505 49.9864C3.58626 49.9864 2.04747 49.9665 0.508685 49.9992C0.083848 50.0077 -0.00140353 49.9125 1.73327e-05 49.4891C0.0170676 43.1222 0.0113842 36.7554 0.0113842 30.3885Z" fill="white" fill-opacity="0.9"/>
<path d="M80.2715 49.9867C80.3894 49.7409 80.6025 49.6144 80.8384 49.4908C84.1646 47.7431 86.4764 45.106 87.7438 41.5667C87.8688 41.2171 87.991 41.014 88.4187 41.0196C90.3326 41.0424 92.2479 41.0395 94.1632 41.0225C94.5852 41.0182 94.7443 41.1418 94.7401 41.5823C94.7117 44.3231 94.7074 47.0626 94.6975 49.8034C94.6975 49.8645 94.7387 49.9256 94.7614 49.9881C89.9305 49.9867 85.101 49.9867 80.2715 49.9867Z" fill="white" fill-opacity="0.9"/>
</g>
<defs>
<clipPath id="clip0_826_2183">
<rect width="113.653" height="50" fill="white"/>
</clipPath>
</defs>
</svg>
