<svg width="50" height="50" viewBox="0 0 50 50" fill="none" xmlns="http://www.w3.org/2000/svg">
<rect width="50" height="50" fill="#3D8CFF"/>
<path d="M19.286 20.38C18.926 20.38 18.626 20.272 18.386 20.056C18.158 19.828 18.044 19.546 18.044 19.21C18.044 18.874 18.158 18.598 18.386 18.382C18.626 18.154 18.926 18.04 19.286 18.04C19.646 18.04 19.94 18.154 20.168 18.382C20.408 18.598 20.528 18.874 20.528 19.21C20.528 19.546 20.408 19.828 20.168 20.056C19.94 20.272 19.646 20.38 19.286 20.38ZM18.332 31V22.072H20.24V31H18.332ZM22.7587 31V22.072H24.4507L24.5947 23.638C24.8707 23.086 25.2727 22.654 25.8007 22.342C26.3407 22.018 26.9587 21.856 27.6547 21.856C28.7347 21.856 29.5807 22.192 30.1927 22.864C30.8167 23.536 31.1287 24.538 31.1287 25.87V31H29.2387V26.068C29.2387 24.34 28.5307 23.476 27.1147 23.476C26.4067 23.476 25.8187 23.728 25.3507 24.232C24.8947 24.736 24.6667 25.456 24.6667 26.392V31H22.7587Z" fill="white"/>
</svg>
