<svg width="28" height="50" viewBox="0 0 28 50" fill="none" xmlns="http://www.w3.org/2000/svg">
<path d="M27.4956 46.3553H0.00317383V2.35907C0.00317383 1.0349 0.803457 0 1.82872 0H25.6733C26.6953 0 27.4988 1.0349 27.4988 2.35907V46.3553H27.4956ZM1.28877 45.0697H26.2132V2.35907C26.2132 1.71306 25.8886 1.28559 25.6733 1.28559H1.82551C1.61017 1.28559 1.28556 1.71306 1.28556 2.35907V45.0697H1.28877Z" fill="white"/>
<path d="M26.8529 45.7129V47.6381C26.8529 48.5862 26.3258 49.3576 25.6701 49.3576H1.82557C1.17313 49.3576 0.642822 48.5862 0.642822 47.6381V45.7129H26.8529Z" fill="white"/>
<path d="M25.6733 50.0006H1.82555C0.803497 50.0006 0 48.9624 0 47.6383V45.7131C0 45.3596 0.289259 45.0703 0.642798 45.0703H26.8529C27.2064 45.0703 27.4957 45.3596 27.4957 45.7131V47.6383C27.4957 48.9657 26.6954 50.0006 25.6733 50.0006ZM1.28881 46.3559V47.6383C1.28881 48.2843 1.61342 48.715 1.82876 48.715H25.6733C25.8887 48.715 26.2133 48.2843 26.2133 47.6383V46.3559H1.28881Z" fill="white"/>
<path d="M13.7493 49.3576C14.7558 49.3576 15.5717 48.5417 15.5717 47.5352C15.5717 46.5288 14.7558 45.7129 13.7493 45.7129C12.7429 45.7129 11.927 46.5288 11.927 47.5352C11.927 48.5417 12.7429 49.3576 13.7493 49.3576Z" fill="#5C9EFF"/>
</svg>
