<svg width="100" height="100" viewBox="0 0 100 100" fill="none" xmlns="http://www.w3.org/2000/svg">
<path d="M65.7023 2.94531L98.9445 22.1231L1.05566 40.242L65.7023 2.94531Z" fill="#F3F3F3"/>
<path d="M60.2246 77.2112L98.9446 70.0445L85.7957 62.459" fill="#FCEE21"/>
<path d="M37.4937 90.326L98.9448 78.9516V70.0449L60.2248 77.2116L37.4937 90.326Z" fill="#FBCE4E"/>
<path d="M98.9445 22.123L1.05566 40.2419V49.1486L98.9445 31.0297V22.123Z" fill="#D0D0D0"/>
<path d="M34.2979 83.2638L98.9445 45.9671L79.3434 34.6582L59.259 38.376L34.2979 83.2638Z" fill="#3D8CFF"/>
<path d="M34.2979 92.1701V83.2635L98.9445 45.9668V54.8735L34.2979 92.1701Z" fill="#3C70BC"/>
<path d="M35.0734 81.8669L45.9879 62.2402L1.05566 88.1636L35.0734 81.8669Z" fill="#FCEE21"/>
<path d="M34.2979 90.9172V83.2627L35.0734 81.8672L1.05566 88.1639V97.0705" fill="#FBCE4E"/>
</svg>
