<svg width="50" height="50" viewBox="0 0 50 50" fill="none" xmlns="http://www.w3.org/2000/svg">
<path d="M20.2832 14.2501C22.2165 14.2501 24.0832 14.2501 25.9499 14.2501C27.5332 14.2501 29.1165 14.2335 30.6999 14.2668C31.0499 14.2668 31.1499 14.1835 31.1499 13.8168C31.1332 10.2001 31.1499 6.58346 31.1332 2.9668C31.1332 2.70013 31.1332 2.45013 31.3165 2.25013C31.5332 2.00013 31.8165 1.90013 32.1332 2.0168C32.4832 2.13346 32.6665 2.40013 32.6665 2.78346C32.6665 3.83346 32.6665 4.90013 32.6665 5.95013C32.6665 7.0668 32.6665 8.18346 32.6665 9.3168C32.6665 9.58346 32.7332 9.6668 32.9999 9.6668C36.8665 9.65013 40.7332 9.65013 44.6165 9.6668C44.8832 9.6668 44.9665 9.60013 44.9665 9.3168C44.9499 7.50013 44.9499 5.6668 44.9665 3.85013C44.9665 3.43346 44.7499 3.5168 44.5165 3.5168C41.1832 3.5168 37.8665 3.5168 34.5332 3.5168C34.3832 3.5168 34.2499 3.53346 34.0999 3.50013C33.6832 3.4168 33.4499 3.1668 33.4499 2.73346C33.4499 2.3168 33.6999 2.0668 34.1165 1.98346C34.2165 1.9668 34.3332 1.9668 34.4499 1.9668C38.1165 1.9668 41.7665 1.9668 45.4332 1.9668C46.2499 1.9668 46.4832 2.20013 46.4832 3.0168C46.4832 5.38346 46.4832 7.75013 46.4832 10.1168C46.4832 10.9335 46.2499 11.1835 45.4332 11.1835C41.3332 11.1835 37.2499 11.1835 33.1499 11.1668C32.7665 11.1668 32.6332 11.2335 32.6499 11.6501C32.6832 12.4001 32.6665 13.1501 32.6665 13.9001C32.6665 14.1001 32.6665 14.2335 32.9499 14.2501C34.4499 14.3668 35.6832 15.6335 35.7332 17.0501C35.7832 18.7835 34.7165 20.1168 33.0499 20.3501C32.6999 20.4001 32.6665 20.5168 32.6665 20.8168C32.6832 25.3168 32.6832 29.8001 32.6665 34.3001C32.6665 34.6168 32.7165 34.7501 33.0832 34.8001C37.3665 35.4668 41.5165 36.5501 45.3165 38.7168C46.1499 39.2001 46.9499 39.7335 47.6832 40.3501C48.0832 40.6835 48.1499 41.1335 47.8499 41.4835C47.5665 41.8335 47.1499 41.8835 46.7499 41.5501C43.8165 39.2168 40.3665 37.9835 36.7832 37.0835C35.5665 36.7668 34.3165 36.5668 33.0832 36.3335C32.7165 36.2668 32.6665 36.3835 32.6665 36.7168C32.6832 39.1335 32.6665 41.5501 32.6832 43.9668C32.6832 44.2668 32.6665 44.5501 32.4332 44.7668C32.2165 44.9668 31.9665 45.0335 31.6832 44.9335C31.3832 44.8335 31.1999 44.6168 31.1665 44.3001C31.1499 44.1501 31.1499 43.9835 31.1499 43.8168C31.1499 36.0335 31.1499 28.2335 31.1499 20.4501C31.1499 20.1335 31.0999 19.9335 30.8165 19.7501C30.3499 19.4501 30.0499 18.9835 29.8332 18.4835C29.6332 18.0001 29.7999 17.5835 30.2332 17.4001C30.6332 17.2335 31.0165 17.4001 31.2499 17.8668C31.6499 18.6668 32.3332 19.0335 33.0665 18.8335C33.7499 18.6501 34.2332 18.0335 34.2332 17.3668C34.2165 16.6335 33.7165 16.0335 32.9999 15.8668C32.7665 15.8168 32.6832 15.8335 32.6999 16.1001C32.7165 16.2835 32.7165 16.4835 32.6999 16.6668C32.6499 17.0835 32.3165 17.3835 31.9165 17.3501C31.4999 17.3168 31.2499 17.0668 31.1832 16.6501C31.1332 16.3835 31.2999 16.0001 31.1165 15.8835C30.8999 15.7501 30.5332 15.8168 30.2332 15.8168C24.1665 15.8168 18.1165 15.8168 12.0499 15.8168C10.6665 15.8168 9.68319 14.8335 9.68319 13.4335C9.68319 11.9335 9.66652 10.4335 9.68319 8.9168C9.66652 6.08346 11.7165 3.8168 14.5165 3.5168C17.1499 3.23346 19.6165 5.0168 20.2499 7.65013C20.3499 8.03346 20.3999 8.43346 20.3999 8.83346C20.3999 10.3668 20.3999 11.9001 20.3999 13.4335C20.3999 13.7001 20.3832 13.9501 20.2832 14.2501ZM18.0665 6.5668C17.9665 6.4168 17.9165 6.3668 17.8665 6.30013C16.7999 5.1168 15.1499 4.7168 13.6665 5.28346C12.1832 5.85013 11.1999 7.2168 11.1832 8.8168C11.1665 10.2835 11.1832 11.7501 11.1832 13.2335C11.1832 13.9501 11.4665 14.2501 12.1999 14.2501C14.0832 14.2501 15.9665 14.2501 17.8499 14.2501C18.5665 14.2501 18.8665 13.9501 18.8665 13.2335C18.8665 11.8835 18.8665 10.5168 18.8665 9.1668C18.8665 8.35013 18.6332 8.1168 17.8165 8.1168C16.4165 8.1168 14.9999 8.1168 13.5999 8.1168C13.2332 8.1168 12.9499 7.98346 12.7999 7.63346C12.6665 7.33346 12.7332 7.0668 12.9499 6.83346C13.1499 6.6168 13.4165 6.58346 13.6999 6.58346C15.0999 6.58346 16.5332 6.5668 18.0665 6.5668Z" fill="#273339"/>
<path d="M8.1166 32.2843C6.89993 32.851 5.78327 32.8177 4.73327 32.0343C3.93327 31.451 3.5166 30.6343 3.5166 29.651C3.49993 26.5177 3.49993 23.3843 3.5166 20.251C3.53327 17.8343 5.08327 15.6177 7.29993 14.7177C7.6166 14.5843 7.9166 14.551 8.19993 14.7677C8.69993 15.151 8.5666 15.851 7.9166 16.1343C6.64993 16.6843 5.7666 17.601 5.29993 18.901C5.1166 19.401 5.04993 19.9177 5.04993 20.451C5.04993 23.451 5.04993 26.4677 5.04993 29.4677C5.04993 30.451 5.68327 31.1343 6.5666 31.151C7.4666 31.1677 8.1166 30.4677 8.1166 29.451C8.1166 26.8843 8.1166 24.301 8.1166 21.7343C8.1166 21.5343 8.09993 21.351 8.1166 21.151C8.14993 20.701 8.48327 20.401 8.89993 20.401C9.29993 20.4177 9.6166 20.701 9.64993 21.1343C9.6666 21.4343 9.64993 21.7343 9.64993 22.051C9.64993 29.3843 9.64993 36.7343 9.64993 44.0677C9.64993 45.7343 11.0666 46.851 12.5999 46.401C13.5833 46.1177 14.2499 45.2343 14.2499 44.1343C14.2499 40.751 14.2499 37.351 14.2499 33.9677C14.2499 33.4177 14.2499 32.8843 14.2499 32.3343C14.2499 31.5177 14.4999 31.151 15.0333 31.151C15.5499 31.1677 15.7833 31.5177 15.7833 32.301C15.7833 36.2343 15.7833 40.1677 15.7833 44.101C15.7833 45.401 16.6999 46.401 17.9333 46.4843C19.2833 46.5677 20.3833 45.5177 20.3833 44.1177C20.3833 41.2177 20.3833 38.3343 20.3833 35.4343C20.3833 30.2677 20.3833 25.101 20.3833 19.9343C20.3833 19.0677 20.5999 18.8343 21.4999 18.8343C23.8166 18.8343 26.1333 18.8343 28.4499 18.8343C28.5666 18.8343 28.6666 18.8343 28.7833 18.8343C29.2333 18.8677 29.5666 19.1677 29.5666 19.5843C29.5833 20.0177 29.2499 20.3677 28.7666 20.3677C27.9333 20.3843 27.0999 20.3677 26.2666 20.3677C24.9333 20.3677 23.6166 20.3843 22.2833 20.3677C21.9666 20.3677 21.8833 20.451 21.8833 20.7677C21.8999 25.1343 21.8999 29.501 21.8833 33.8677C21.8833 34.201 21.9499 34.301 22.2999 34.2843C24.3999 34.1343 26.4833 34.201 28.5833 34.3177C28.6666 34.3177 28.7499 34.3177 28.8166 34.3343C29.2999 34.401 29.5999 34.7343 29.5666 35.1677C29.5333 35.601 29.1999 35.8843 28.6999 35.851C27.2499 35.7843 25.7999 35.701 24.3333 35.751C23.6499 35.7677 22.9666 35.8177 22.2666 35.8177C21.9499 35.8177 21.8833 35.9343 21.8833 36.2343C21.8999 38.8843 21.8999 41.551 21.8833 44.201C21.8666 46.4343 20.0499 48.151 17.8499 48.0343C16.8166 47.9843 15.9333 47.5677 15.2333 46.801C15.0499 46.5843 14.9666 46.551 14.7333 46.7843C13.5666 48.0177 11.9499 48.3677 10.4333 47.751C8.98327 47.1677 8.0666 45.7677 8.0666 44.1343C8.0666 42.501 8.04993 40.8677 8.0666 39.2343C8.0666 38.8677 8.0166 38.751 7.63327 38.9343C6.1166 39.6343 4.64993 40.401 3.34993 41.4677C3.28327 41.5177 3.23327 41.5677 3.1666 41.6177C2.7666 41.901 2.33327 41.851 2.0666 41.501C1.79993 41.151 1.8666 40.7177 2.24993 40.401C3.1666 39.651 4.14993 39.001 5.19993 38.451C6.03327 38.001 6.88327 37.601 7.74993 37.251C7.98327 37.151 8.0666 37.0677 8.0666 36.801C8.09993 35.301 8.1166 33.8343 8.1166 32.2843Z" fill="#273339"/>
<path d="M15.0167 17.316C15.5334 17.316 16.0334 17.2993 16.5501 17.316C17.8334 17.3327 18.8334 18.316 18.8501 19.5993C18.8667 20.6327 18.8667 21.6827 18.8501 22.716C18.8334 23.966 17.8501 24.966 16.6001 24.9827C15.5501 24.9993 14.4834 24.9993 13.4334 24.9827C12.2167 24.966 11.2167 23.966 11.1834 22.7493C11.1667 21.6827 11.1667 20.5993 11.1834 19.5327C11.2167 18.2993 12.2001 17.3327 13.4334 17.316C13.9667 17.316 14.5001 17.316 15.0167 17.316ZM15.0334 18.8493C14.5334 18.8493 14.0501 18.8493 13.5501 18.8493C13.0334 18.866 12.7334 19.1493 12.7167 19.6327C12.7001 20.6327 12.7001 21.6493 12.7167 22.6493C12.7167 23.1327 13.0167 23.4327 13.5001 23.4327C14.5001 23.4493 15.5167 23.4493 16.5167 23.4327C17.0167 23.4327 17.3167 23.1327 17.3167 22.616C17.3334 21.6327 17.3334 20.6327 17.3167 19.6493C17.3167 19.1327 17.0001 18.8493 16.4667 18.8327C15.9834 18.8493 15.5167 18.866 15.0334 18.8493Z" fill="#273339"/>
<path d="M44.9664 17.7169C44.9664 18.5003 44.7331 18.8503 44.1998 18.8669C43.6664 18.8669 43.4331 18.5169 43.4331 17.7336C43.4331 16.9169 43.6831 16.5503 44.2164 16.5669C44.7331 16.5669 44.9664 16.9169 44.9664 17.7169Z" fill="#2C373D"/>
<path d="M42.2667 18.8496C43.0834 18.8496 43.45 19.0996 43.4334 19.6329C43.4167 20.1496 43.0667 20.3829 42.2667 20.3829C41.4834 20.3829 41.1334 20.1329 41.1167 19.6163C41.1167 19.0996 41.4834 18.8496 42.2667 18.8496Z" fill="#2C373D"/>
<path d="M46.1001 20.3827C45.9501 20.3827 45.8168 20.3994 45.6668 20.3827C45.2501 20.3327 44.9668 20.016 44.9668 19.616C44.9668 19.216 45.2668 18.8993 45.6835 18.866C45.9335 18.8493 46.2001 18.8493 46.4501 18.866C46.9501 18.8827 47.2668 19.1827 47.2668 19.616C47.2835 20.066 46.9501 20.3827 46.4335 20.3993C46.3168 20.3993 46.2168 20.3994 46.1001 20.3827C46.1001 20.3994 46.1001 20.3994 46.1001 20.3827Z" fill="#2C373D"/>
<path d="M44.95 21.5837C44.95 21.7337 44.9666 21.8671 44.95 22.0171C44.9 22.4337 44.5666 22.7337 44.1666 22.7004C43.75 22.6671 43.4833 22.4337 43.4333 22.0171C43.4 21.7337 43.4166 21.4504 43.4333 21.1504C43.45 20.7004 43.7833 20.4004 44.2 20.4004C44.6166 20.4004 44.9333 20.7004 44.9666 21.1504C44.9666 21.2837 44.9666 21.4337 44.95 21.5837C44.9666 21.5837 44.9666 21.5837 44.95 21.5837Z" fill="#2C373D"/>
<path d="M37.2832 26.9161C37.2832 26.1328 37.5165 25.7828 38.0332 25.7661C38.5499 25.7495 38.8165 26.1328 38.8165 26.8995C38.8165 27.7161 38.5665 28.0828 38.0332 28.0661C37.5165 28.0661 37.2832 27.6995 37.2832 26.9161Z" fill="#2C373D"/>
<path d="M36.1167 29.5997C36.0501 29.5997 35.9834 29.5997 35.9334 29.5997C35.3334 29.5997 34.9834 29.3164 34.9834 28.8331C34.9834 28.3497 35.3334 28.0664 35.9334 28.0664C36.1167 28.0664 36.2834 28.0664 36.4667 28.0664C36.9501 28.0831 37.2834 28.3831 37.3001 28.8164C37.3167 29.2664 36.9834 29.5831 36.4667 29.5997C36.3334 29.6164 36.2334 29.5997 36.1167 29.5997Z" fill="#2C373D"/>
<path d="M39.9998 28.0674C40.1498 28.0674 40.2831 28.0508 40.4331 28.0674C40.8498 28.1174 41.1498 28.4508 41.1165 28.8508C41.0831 29.2674 40.8498 29.5341 40.4331 29.5841C40.1498 29.6174 39.8665 29.6008 39.5665 29.5841C39.1165 29.5674 38.8165 29.2341 38.7998 28.8174C38.7998 28.4008 39.0998 28.0841 39.5498 28.0508C39.7165 28.0674 39.8665 28.0674 39.9998 28.0674Z" fill="#2C373D"/>
<path d="M38.8166 30.7677C38.8166 31.5511 38.5833 31.9177 38.0499 31.9177C37.5333 31.9177 37.2666 31.5511 37.2666 30.7844C37.2666 29.9677 37.5166 29.6011 38.0499 29.6177C38.5833 29.6177 38.8166 29.9677 38.8166 30.7677Z" fill="#2C373D"/>
<path d="M24.3335 6.58411C23.8335 6.58411 23.4668 6.28411 23.4668 5.83411C23.4668 5.38411 23.8168 5.05078 24.3168 5.05078C24.7835 5.05078 25.1335 5.35078 25.1668 5.78411C25.1835 6.21745 24.8168 6.56745 24.3335 6.58411Z" fill="#2C383E"/>
<path d="M4.35 11.1836C4.85 11.1836 5.2 11.5169 5.18333 11.9669C5.16667 12.4003 4.81667 12.7169 4.35 12.7169C3.85 12.7169 3.5 12.4003 3.5 11.9503C3.5 11.5003 3.85 11.1836 4.35 11.1836Z" fill="#2C383E"/>
<path d="M27.2001 26.5333C26.7168 26.5333 26.3501 26.1833 26.3668 25.7333C26.3834 25.3 26.7334 25 27.2168 25C27.7168 25 28.0668 25.3167 28.0668 25.7833C28.0668 26.2333 27.7001 26.55 27.2001 26.5333Z" fill="#2C383E"/>
<path d="M47.1835 34.2169C46.7002 34.2169 46.3335 33.8669 46.3502 33.4336C46.3668 33.0003 46.7168 32.6836 47.1835 32.6836C47.6835 32.6836 48.0335 33.0003 48.0502 33.4503C48.0335 33.9003 47.6835 34.2169 47.1835 34.2169Z" fill="#2C383E"/>
<path d="M11.8666 35.75C12.3666 35.75 12.7166 36.0667 12.7166 36.5167C12.7166 36.9667 12.3499 37.2833 11.8499 37.2833C11.3833 37.2833 11.0333 36.9667 11.0166 36.5333C11.0166 36.0833 11.3666 35.75 11.8666 35.75Z" fill="#2C383E"/>
<path d="M18.1831 35.7506C18.6664 35.7506 19.0331 36.1006 19.0164 36.5506C18.9997 36.984 18.6497 37.284 18.1664 37.284C17.6664 37.284 17.3164 36.9673 17.3164 36.5006C17.3331 36.0506 17.6831 35.734 18.1831 35.7506Z" fill="#2C383E"/>
<path d="M28.9164 37.2832C29.3998 37.2832 29.7664 37.6165 29.7664 38.0665C29.7664 38.4999 29.4164 38.8165 28.9498 38.8332C28.4498 38.8499 28.0831 38.5332 28.0831 38.0832C28.0664 37.6165 28.4164 37.2832 28.9164 37.2832Z" fill="#2C383E"/>
<path d="M24.3168 40.3504C23.8168 40.3504 23.4668 40.017 23.4668 39.567C23.4668 39.117 23.8335 38.8004 24.3335 38.817C24.8001 38.817 25.1501 39.1504 25.1501 39.567C25.1668 40.017 24.8001 40.3504 24.3168 40.3504Z" fill="#2C383E"/>
<path d="M39.6831 41.884C39.1831 41.884 38.8331 41.5673 38.8164 41.1173C38.8164 40.6673 39.1664 40.334 39.6664 40.334C40.1331 40.334 40.4997 40.6507 40.5164 41.0673C40.5331 41.534 40.1664 41.884 39.6831 41.884Z" fill="#2C383E"/>
<path d="M5.71669 43.4337C5.23336 43.4337 4.86669 43.0837 4.88336 42.6504C4.90003 42.2171 5.25003 41.9004 5.71669 41.9004C6.21669 41.9004 6.56669 42.2171 6.58336 42.6671C6.58336 43.1004 6.21669 43.4337 5.71669 43.4337Z" fill="#2C383E"/>
<path d="M36.6167 44.966C36.1167 44.966 35.7667 44.666 35.75 44.1994C35.75 43.7494 36.1 43.416 36.6 43.416C37.0667 43.416 37.4333 43.7327 37.45 44.1493C37.4667 44.5993 37.1 44.9493 36.6167 44.966Z" fill="#2C383E"/>
<path d="M27.3666 46.5008C26.8666 46.5008 26.5166 46.1674 26.5333 45.7174C26.55 45.2674 26.9 44.9508 27.4 44.9674C27.8666 44.9841 28.2166 45.3008 28.2166 45.7341C28.2333 46.1674 27.8666 46.5008 27.3666 46.5008Z" fill="#2C383E"/>
</svg>
