<svg width="71" height="80" viewBox="0 0 71 80" fill="none" xmlns="http://www.w3.org/2000/svg">
<g clip-path="url(#clip0_826_2441)">
<path d="M48.3223 62.0629C45.645 62.0629 42.9676 62.0639 40.2903 62.0611C40.1043 62.0611 39.9426 62.0817 39.7782 62.2001C37.0454 64.1792 33.6821 64.2178 30.877 62.2979C30.6317 62.1306 30.3958 62.0573 30.1007 62.0573C24.8072 62.0639 19.5136 62.0592 14.221 62.0705C13.8949 62.0714 13.7934 61.9784 13.7558 61.6617C13.3123 57.9741 12.8283 54.2913 12.4205 50.6C12.3237 49.7242 12.0267 49.1537 11.2834 48.6256C7.91537 46.2349 4.60279 43.7662 1.26953 41.3276C1.13797 41.2317 1.03835 41.1406 1.01392 40.9564C0.343887 35.8405 0.273407 30.748 1.54581 25.6997C2.54476 21.7378 4.35188 18.1527 6.67209 14.8213C10.385 9.49111 15.3008 5.60622 21.207 2.97308C26.416 0.652859 31.8928 -0.387432 37.5745 0.130364C48.9547 1.1669 57.8851 6.43601 64.1992 15.9969C66.8802 20.0557 68.5718 24.526 69.3095 29.3431C69.8385 32.8004 69.8047 36.2596 69.3019 39.7169C69.2296 40.2121 69.1206 40.7027 69.0595 41.1988C69.0275 41.4573 68.8988 41.6095 68.7015 41.7542C65.3616 44.206 62.0274 46.6653 58.6867 49.1143C58.4611 49.2797 58.3559 49.4563 58.322 49.7373C57.8531 53.6184 57.372 57.4977 56.8889 61.3779C56.8034 62.0639 56.7931 62.0629 56.0977 62.0629C53.5059 62.0629 50.9141 62.0629 48.3223 62.0629ZM31.7857 42.7193C31.7631 42.663 31.7359 42.6075 31.718 42.5493C30.439 38.1926 29.1666 33.8332 27.8801 29.4784C25.9461 22.935 23.9999 16.3954 22.1195 9.83599C21.9607 9.28154 21.9504 9.27309 21.3922 9.46103C18.8304 10.3237 16.8551 11.9382 15.3562 14.1682C15.2247 14.3646 15.298 14.5037 15.375 14.6719C17.0882 18.3989 18.8107 22.1212 20.5098 25.8548C23.2547 31.8888 25.9762 37.9351 28.7898 43.9382C28.8659 44.1008 29.0003 44.2539 28.9674 44.4776C28.8217 44.3902 28.7823 44.2549 28.7156 44.143C25.3428 38.5046 22.0951 32.7938 18.7919 27.115C16.8758 23.8212 14.9493 20.5349 12.9749 17.2759C12.8622 17.0898 12.7879 17.0053 12.5774 17.1866C10.2976 19.1526 8.92465 21.6053 8.55251 24.6049C8.52902 24.7948 8.5807 24.9226 8.69629 25.0635C9.7206 26.3068 10.7374 27.5576 11.7589 28.8027C15.7302 33.6443 19.7025 38.4839 23.6729 43.3255C24.4454 44.268 25.2113 45.2162 25.98 46.1616C25.9555 46.187 25.9311 46.2124 25.9067 46.2377C25.8512 46.1917 25.7911 46.1494 25.7394 46.0996C24.061 44.4607 22.378 42.8265 20.7071 41.18C18.1566 38.6662 15.6146 36.144 13.0698 33.6255C11.5409 32.1125 10.0129 30.5976 8.48203 29.0865C8.17098 28.7793 7.8477 28.4842 7.5047 28.159C7.2115 28.7097 6.97469 29.2557 6.81023 29.8299C6.10073 32.3108 6.18907 34.7936 6.79708 37.2792C6.87132 37.5818 7.01698 37.7904 7.26883 37.9765C10.9507 40.6989 14.6251 43.4326 18.3042 46.1588C18.4536 46.2697 18.5363 46.3937 18.5589 46.577C18.7045 47.7498 18.8549 48.9226 19.0052 50.0954C19.2411 51.9335 19.4807 53.7707 19.711 55.6088C19.7373 55.8156 19.804 55.902 20.0286 55.8945C20.3819 55.8823 20.7362 55.9161 21.0896 55.9189C23.1175 55.934 25.1464 55.9443 27.1744 55.9593C28.7503 55.9706 30.3272 56.0082 31.9031 55.9828C32.389 55.9753 32.6944 56.1304 32.9707 56.5044C33.3297 56.9902 33.7714 57.383 34.3747 57.57C35.7194 57.9882 37.0642 57.3473 37.7399 56.2713C37.8808 56.0467 38.0237 55.9932 38.2633 55.9941C42.2732 55.9997 46.2821 55.996 50.292 56.0035C50.5344 56.0035 50.6603 55.9697 50.697 55.6887C51.0879 52.6909 51.4958 49.696 51.8895 46.6982C51.9196 46.4708 52.0154 46.3251 52.194 46.1926C55.8242 43.5021 59.4488 40.8042 63.0828 38.1193C63.3581 37.9163 63.5122 37.6842 63.5865 37.36C63.9943 35.5858 64.1484 33.7946 63.9642 31.9809C63.8411 30.7724 63.5742 29.5996 63.0696 28.4861C62.9709 28.268 62.9089 28.2718 62.7501 28.4278C62.0885 29.079 61.4119 29.7143 60.7484 30.3646C58.4461 32.6237 56.1437 34.8838 53.847 37.1495C51.1321 39.8278 48.4247 42.5126 45.7117 45.1927C45.3997 45.501 45.0717 45.7932 44.7513 46.0921C44.7259 46.0629 44.6996 46.0329 44.6742 46.0037C44.6986 45.9624 44.7184 45.9182 44.7494 45.8816C50.4639 39.0327 56.0544 32.0824 61.7201 25.1941C61.8733 25.0081 61.9607 24.8389 61.9165 24.572C61.4345 21.6626 60.0107 19.2738 57.9179 17.2449C57.7394 17.071 57.6576 17.0645 57.5261 17.2862C57.0167 18.148 56.4877 18.9984 55.9717 19.8564C52.022 26.4139 48.2311 33.0645 44.3462 39.6596C43.4112 41.2477 42.4555 42.8227 41.5082 44.4043C41.4885 44.377 41.4688 44.3507 41.4481 44.3235C41.4631 44.2774 41.4725 44.2295 41.4932 44.1863C43.1048 40.8154 44.6667 37.422 46.2173 34.023C49.1558 27.5811 52.0286 21.1091 55.0922 14.7245C55.1683 14.5657 55.1777 14.4473 55.0771 14.2894C53.598 11.9673 51.5606 10.3585 48.9538 9.47325C48.4942 9.31725 48.4924 9.32383 48.3608 9.76645C45.1328 20.6477 41.9602 31.5468 38.7971 42.4478C38.6993 42.7851 38.6411 43.1422 38.4484 43.4946C38.4155 43.4176 38.3864 43.3837 38.3911 43.3574C38.5809 42.4017 38.7792 41.4469 38.9653 40.4903C40.1231 34.5258 41.278 28.5594 42.4348 22.5948C43.3548 17.851 44.2758 13.1082 45.208 8.36718C45.2625 8.08996 45.1948 7.95275 44.9674 7.80803C42.603 6.31385 40.014 5.90788 37.2766 6.19732C37.1121 6.21518 37.0482 6.27344 37.0388 6.44541C37.0088 7.00456 36.9514 7.56276 36.9204 8.12191C36.8377 9.58414 36.7578 11.0454 36.6874 12.5077C36.5896 14.5309 36.4947 16.5542 36.4111 18.5774C36.3472 20.1261 36.3077 21.6758 36.2523 23.2245C36.163 25.7129 36.0681 28.2013 35.9769 30.6897C35.9384 31.7385 35.914 32.7882 35.866 33.8369C35.7815 35.6769 35.6931 37.516 35.5888 39.3551C35.4986 40.9526 35.4244 42.5521 35.2552 44.1449C35.1236 42.3312 34.9911 40.5194 34.8859 38.7057C34.7891 37.0377 34.7177 35.3678 34.6406 33.6988C34.5231 31.1634 34.4066 28.628 34.2957 26.0925C34.213 24.2027 34.1303 22.3138 34.0645 20.424C33.9696 17.6922 33.8531 14.9613 33.7074 12.2314C33.605 10.319 33.496 8.40759 33.4039 6.49522C33.3936 6.27344 33.3175 6.2086 33.1154 6.17289C31.7998 5.94359 30.4804 5.99152 29.1826 6.22739C27.8557 6.4689 26.6284 7.02805 25.4208 7.62384C25.122 7.77138 25.059 7.92738 25.1239 8.24689C25.8099 11.6187 26.4884 14.9914 27.1518 18.3679C28.3932 24.6895 29.6215 31.013 30.8563 37.3356C31.2068 39.1314 31.5601 40.9263 31.9125 42.7212C31.8703 42.7212 31.828 42.7203 31.7857 42.7193Z" fill="white" fill-opacity="0.9"/>
<path d="M8.76975 66.8801C10.5665 66.8378 12.3643 66.8162 14.1582 66.927C14.4608 66.9458 14.7643 67.0032 15.0613 67.0736C16.236 67.3509 16.9577 68.0763 17.1964 69.2698C17.2734 69.6542 17.3129 70.0413 17.328 70.4332C17.3355 70.6315 17.2951 70.7133 17.0733 70.7123C15.4109 70.7039 13.7485 70.7048 12.0861 70.7114C11.8944 70.7123 11.8324 70.6512 11.8352 70.4595C11.8408 70.1297 11.807 69.8017 11.7055 69.4831C11.5899 69.1213 11.3559 68.892 10.9716 68.8638C9.56759 68.7614 8.16174 68.7558 6.75965 68.8817C6.2738 68.9249 6.0041 69.2482 5.88945 69.704C5.77574 70.1522 5.79547 70.6042 5.9026 71.0487C6.01255 71.5073 6.32925 71.7178 6.93632 71.747C7.60729 71.7789 8.28014 71.7958 8.95206 71.8221C10.8325 71.8936 12.7167 71.8954 14.5867 72.1341C14.8517 72.168 15.1158 72.2319 15.3733 72.3052C16.5649 72.6416 17.2659 73.4028 17.4257 74.6526C17.5554 75.6694 17.5789 76.6768 17.2669 77.6654C16.9304 78.732 16.2745 79.3983 15.1008 79.5656C13.5248 79.7902 11.9536 79.9725 10.3579 79.9434C8.57334 79.9114 6.78878 79.9415 5.00421 79.9048C3.85303 79.8813 2.71971 79.6868 1.60612 79.3852C1.04791 79.2339 0.654161 78.8984 0.420166 78.3787C0.0442702 77.5442 0.0123191 76.6515 0.00198196 75.7568C0.000102478 75.5952 0.0903175 75.5867 0.212484 75.5867C2.05813 75.5886 3.90472 75.5905 5.75037 75.5839C5.93644 75.583 5.97215 75.6525 5.97215 75.8189C5.97215 76.0124 5.99188 76.2098 6.03229 76.3996C6.16761 77.0321 6.6309 77.4408 7.27368 77.501C8.42017 77.6081 9.56759 77.6232 10.7141 77.4925C11.4038 77.4136 11.651 77.1852 11.7779 76.4936C11.8709 75.9861 11.8934 75.4721 11.7534 74.9674C11.6125 74.46 11.307 74.2157 10.7817 74.1743C9.40219 74.0634 8.02078 74.1038 6.63936 74.1113C5.63666 74.117 4.63396 74.1066 3.63407 74.038C2.82026 73.9817 2.04967 73.7495 1.32138 73.3877C0.742496 73.1002 0.372239 72.635 0.200267 72.0101C-0.107968 70.8862 -0.0280897 69.7829 0.382576 68.7013C0.73028 67.7841 1.44824 67.3058 2.37012 67.0849C2.94337 66.9477 3.52882 66.8894 4.11522 66.8848C5.66485 66.8735 7.2173 66.8801 8.76975 66.8801Z" fill="white" fill-opacity="0.9"/>
<path d="M20.5774 73.4571C20.5774 71.4038 20.5831 69.3505 20.5708 67.2971C20.569 67.0143 20.6329 66.925 20.9308 66.9288C22.3968 66.9457 23.8637 66.9466 25.3306 66.9278C25.6501 66.9241 25.7056 67.0274 25.7018 67.3188C25.6858 68.5649 25.6962 69.8119 25.6934 71.0589C25.6924 71.2328 25.6924 71.3465 25.9245 71.2431C26.7252 70.886 27.5738 70.7065 28.4412 70.6313C29.8912 70.5064 31.344 70.4528 32.7931 70.6586C33.3992 70.7451 33.9358 71.0091 34.4386 71.338C34.978 71.6904 35.1453 72.2524 35.211 72.8519C35.2486 73.1912 35.2684 73.5342 35.2693 73.8763C35.2759 75.8074 35.2693 77.7386 35.2806 79.6688C35.2825 79.9225 35.2167 79.9977 34.9573 79.9958C33.4537 79.9836 31.9511 79.9836 30.4475 79.9958C30.1975 79.9977 30.1496 79.9169 30.1515 79.6867C30.1609 77.9876 30.1571 76.2895 30.1562 74.5905C30.1552 73.677 29.8423 73.2993 28.9449 73.1451C28.3143 73.0371 27.6771 73.0371 27.0475 73.1348C26.0561 73.2889 25.6971 73.7193 25.6962 74.7155C25.6943 76.3534 25.6896 77.9904 25.7009 79.6284C25.7028 79.8981 25.6567 80.0015 25.3513 79.9977C23.8731 79.9789 22.3939 79.9818 20.9148 79.9968C20.6376 79.9996 20.569 79.9272 20.5708 79.6528C20.5831 77.5882 20.5774 75.5227 20.5774 73.4571Z" fill="white" fill-opacity="0.9"/>
<path d="M48.2743 75.9081C46.7585 75.9081 45.2437 75.9156 43.7279 75.9015C43.4412 75.8987 43.383 75.9814 43.4036 76.2539C43.4967 77.4539 43.9938 77.9539 45.192 77.9595C45.7511 77.9623 46.3168 78.0112 46.8694 77.8599C47.5131 77.6832 47.9614 77.3195 48.045 76.6194C48.0638 76.4606 48.1221 76.4165 48.2724 76.4165C49.8493 76.4202 51.4253 76.4202 53.0021 76.4165C53.1769 76.4165 53.2192 76.4832 53.1628 76.6382C53.1544 76.6608 53.1487 76.6852 53.144 76.7087C52.7982 78.5506 52.1611 79.339 50.0777 79.6266C47.0357 80.0467 43.991 80.0861 40.9547 79.5477C40.6793 79.4988 40.4096 79.4133 40.1428 79.3268C39.4464 79.1032 38.9784 78.6418 38.72 77.9548C38.5245 77.4361 38.3986 76.9032 38.3497 76.3535C38.2482 75.207 38.2135 74.0633 38.4456 72.9234C38.6768 71.7892 39.3026 71.0834 40.4688 70.8429C41.5881 70.6117 42.7158 70.5046 43.8519 70.4773C46.002 70.4256 48.1531 70.4125 50.2891 70.7357C50.3493 70.7451 50.4103 70.7517 50.4695 70.7649C52.5764 71.2498 52.9401 71.7817 53.1826 74.2193C53.2296 74.692 53.1854 75.1722 53.2108 75.6477C53.2249 75.9071 53.1168 75.9419 52.8931 75.9409C51.3538 75.9325 49.8136 75.9362 48.2734 75.9362C48.2743 75.9287 48.2743 75.9184 48.2743 75.9081ZM45.722 74.0474C46.4165 74.0474 47.1119 74.0408 47.8063 74.0521C48.0102 74.0558 48.076 73.9985 48.0742 73.7889C48.0685 73.0738 47.6531 72.5532 46.891 72.3699C46.1571 72.1933 45.4156 72.2149 44.6779 72.3502C43.8679 72.4987 43.4845 72.9451 43.4074 73.7673C43.3858 74.0004 43.4469 74.0587 43.6752 74.054C44.3565 74.038 45.0397 74.0474 45.722 74.0474Z" fill="white" fill-opacity="0.9"/>
<path d="M56.095 73.475C56.095 71.4114 56.0997 69.3468 56.0894 67.2831C56.0884 67.0237 56.1345 66.9269 56.4249 66.9297C57.951 66.9457 59.4781 66.9457 61.0051 66.9297C61.2946 66.9269 61.3406 67.0209 61.3397 67.2831C61.3312 71.4114 61.3322 75.5396 61.3397 79.6679C61.3397 79.9151 61.2908 80.0006 61.0239 79.9978C59.4856 79.9846 57.9463 79.9846 56.407 79.9978C56.1411 79.9996 56.0884 79.9141 56.0894 79.667C56.0988 77.6033 56.095 75.5396 56.095 73.475Z" fill="white" fill-opacity="0.9"/>
<path d="M70.0077 73.4948C70.0077 75.5481 70.0021 77.6015 70.0143 79.6548C70.0162 79.9226 69.9579 80.0025 69.6769 79.9997C68.1621 79.9837 66.6463 79.9865 65.1305 79.9978C64.889 79.9997 64.8279 79.932 64.8279 79.6933C64.8354 75.55 64.8354 71.4077 64.8279 67.2643C64.8279 67.0181 64.8805 66.9298 65.1465 66.9317C66.6623 66.9448 68.1771 66.9448 69.6929 66.9317C69.957 66.9298 70.0134 67.0125 70.0124 67.2615C70.004 69.3393 70.0077 71.4171 70.0077 73.4948Z" fill="white" fill-opacity="0.9"/>
<path d="M31.9125 42.7226C32.0008 42.9942 32.0638 43.2695 32.0074 43.5693C31.9332 43.2864 31.8599 43.0036 31.7856 42.7207C31.8279 42.7207 31.8702 42.7216 31.9125 42.7226Z" fill="white" fill-opacity="0.9"/>
<path d="M41.5149 44.405C41.4209 44.5685 41.3269 44.733 41.2339 44.8965C41.2367 44.6729 41.3279 44.4906 41.4557 44.3242C41.4745 44.3505 41.4942 44.3778 41.5149 44.405Z" fill="white" fill-opacity="0.9"/>
<path d="M44.2484 46.5368C44.3509 46.3263 44.5078 46.16 44.6788 46.0059C44.7042 46.035 44.7305 46.0651 44.7559 46.0942C44.5952 46.254 44.5031 46.4926 44.24 46.5312C44.2409 46.5312 44.2484 46.5368 44.2484 46.5368Z" fill="white" fill-opacity="0.9"/>
<path d="M26.3626 46.5916C26.1117 46.6029 26.0478 46.3746 25.9097 46.2402C25.9341 46.2148 25.9585 46.1894 25.983 46.1641C26.138 46.2825 26.2452 46.4413 26.356 46.5973C26.3551 46.5982 26.3626 46.5916 26.3626 46.5916Z" fill="white" fill-opacity="0.9"/>
<path d="M44.1668 46.5996C44.2383 46.6598 44.1753 46.6926 44.1368 46.7246C44.1236 46.7359 44.0964 46.7293 44.0757 46.7312C44.0776 46.6663 44.1152 46.6297 44.1725 46.6071L44.1668 46.5996Z" fill="white" fill-opacity="0.9"/>
<path d="M41.0883 45.0684C41.0807 45.0825 41.0732 45.0975 41.0667 45.1116C41.0742 45.1088 41.0854 45.1078 41.0883 45.1031C41.092 45.0937 41.0911 45.0815 41.0911 45.0712L41.0883 45.0684Z" fill="white" fill-opacity="0.9"/>
<path d="M41.091 45.0699L41.1013 45.0586L41.0881 45.068L41.091 45.0699Z" fill="white" fill-opacity="0.9"/>
<path d="M44.1723 46.6064C44.1977 46.5829 44.2231 46.5594 44.2485 46.5349L44.2409 46.5293C44.2363 46.5584 44.2325 46.5876 44.2278 46.6167C44.2071 46.6101 44.1864 46.6045 44.1658 46.5979C44.1667 46.5979 44.1723 46.6064 44.1723 46.6064Z" fill="white" fill-opacity="0.9"/>
<path d="M26.4443 46.6604C26.3935 46.666 26.3475 46.6651 26.3616 46.5918L26.355 46.5984C26.3822 46.6209 26.4095 46.6435 26.4367 46.667L26.4443 46.6604Z" fill="white" fill-opacity="0.9"/>
<path d="M26.4377 46.6658C26.4452 46.6846 26.4527 46.7043 26.4603 46.7231C26.3964 46.7184 26.4387 46.6846 26.4434 46.6602C26.4443 46.6602 26.4377 46.6658 26.4377 46.6658Z" fill="white" fill-opacity="0.9"/>
</g>
<defs>
<clipPath id="clip0_826_2441">
<rect width="70.0143" height="80" fill="white"/>
</clipPath>
</defs>
</svg>
