<svg width="50" height="50" viewBox="0 0 50 50" fill="none" xmlns="http://www.w3.org/2000/svg">
<path d="M14.2001 31.9336C14.2001 26.9003 14.2001 21.8669 14.2001 16.8503C14.2001 15.9669 14.4167 15.7503 15.3167 15.7503C19.7001 15.7503 24.1001 15.7503 28.4834 15.7503C28.6334 15.7503 28.7667 15.7669 28.9167 15.7503C29.3334 15.7003 29.6334 15.3836 29.6334 14.9836C29.6334 14.5836 29.3334 14.2669 28.9167 14.2169C28.7834 14.2003 28.6667 14.2169 28.5334 14.2169C21.2667 14.2169 14.0001 14.2169 6.73341 14.2169C5.95008 14.2169 5.28341 14.4836 4.75008 15.0336C3.90008 15.8836 3.41675 16.9169 3.41675 18.1336C3.40008 21.6503 3.41675 25.1669 3.41675 28.7003C3.41675 28.8003 3.40008 28.9003 3.43341 28.9836C3.51675 29.4003 3.76675 29.6503 4.20008 29.6503C4.60008 29.6503 4.86675 29.4336 4.93341 29.0336C4.96675 28.8669 4.96675 28.6836 4.96675 28.5003C4.96675 25.6503 4.96675 22.8169 4.96675 19.9669C4.96675 19.8169 4.95008 19.6669 4.98341 19.5336C5.06675 19.1169 5.31675 18.8669 5.73341 18.8669C6.16675 18.8669 6.41675 19.1169 6.50008 19.5336C6.53341 19.6669 6.51675 19.8169 6.51675 19.9669C6.51675 22.2169 6.45008 24.4669 6.53341 26.7169C6.60008 28.7503 6.21675 30.7169 5.90008 32.6836C5.18341 37.0336 4.45008 41.3836 3.71675 45.7336C3.61675 46.3003 3.53341 46.8669 3.43341 47.4503C3.35008 47.9503 2.96675 48.2503 2.53341 48.1669C2.08341 48.0836 1.83341 47.6836 1.91675 47.1836C2.63341 42.9003 3.35008 38.6003 4.06675 34.3169C4.21675 33.3836 4.36675 32.4503 4.53341 31.5169C4.56675 31.3169 4.60008 31.2169 4.31675 31.2003C2.76675 31.1336 1.90008 30.2169 1.90008 28.6836C1.90008 25.1836 1.85008 21.6836 1.91675 18.1669C1.95008 15.9003 2.95008 14.1336 5.00008 13.0336C5.48341 12.7836 6.00008 12.6836 6.53341 12.6836C13.9667 12.6836 21.3834 12.6836 28.8167 12.6836C30.1834 12.6836 31.2167 13.6836 31.2167 14.9836C31.2334 16.3003 30.1834 17.3169 28.8001 17.3169C24.7334 17.3169 20.6667 17.3169 16.6001 17.3169C15.7834 17.3169 15.7834 17.3169 15.7834 18.1503C15.7834 27.7669 15.7834 37.3669 15.7834 46.9836C15.7834 47.0836 15.7834 47.1836 15.7834 47.2669C15.7667 47.8336 15.4667 48.1836 15.0001 48.1669C14.5334 48.1669 14.2334 47.8169 14.2334 47.2503C14.2001 42.1336 14.2001 37.0336 14.2001 31.9336Z" fill="#273339"/>
<path d="M45.9999 9.56616C44.8999 7.73283 43.8499 5.98283 42.7499 4.14949C41.6665 5.98283 40.6165 7.73283 39.4999 9.56616C40.0665 9.56616 40.5665 9.56616 41.0832 9.56616C41.7165 9.56616 41.9832 9.83283 41.9832 10.4662C41.9832 18.6162 42.0665 26.7662 41.9499 34.8995C41.8832 38.7662 40.1999 42.0328 37.2999 44.6162C34.6665 46.9662 31.5499 48.1162 28.0165 48.1328C24.7665 48.1495 21.5165 48.1328 18.2832 48.1328C17.6665 48.1328 17.3165 47.8662 17.2999 47.3828C17.2832 46.8828 17.6499 46.5995 18.2832 46.5995C21.4999 46.5995 24.7165 46.5995 27.9332 46.5995C33.9665 46.5995 38.9665 42.5495 40.1999 36.6495C40.3832 35.8162 40.4499 34.9662 40.4499 34.1162C40.4499 26.6162 40.4499 19.0995 40.4665 11.5995C40.4665 11.1995 40.3832 11.0662 39.9665 11.0995C39.4499 11.1328 38.9332 11.0995 38.4165 11.1162C38.0332 11.1328 37.6665 11.1162 37.4499 10.7328C37.2332 10.3328 37.4165 9.99949 37.6165 9.66616C38.9665 7.41616 40.3165 5.16616 41.6665 2.91616C41.7499 2.78283 41.8332 2.63283 41.9165 2.49949C42.4332 1.63283 43.0832 1.63283 43.6165 2.51616C44.7832 4.44949 45.9332 6.38283 47.0999 8.33283C47.3999 8.83283 47.7165 9.34949 48.0165 9.86616C48.3999 10.5495 48.0499 11.1162 47.2832 11.1328C46.6832 11.1328 46.0999 11.1495 45.4999 11.1328C45.1499 11.1162 45.0832 11.2328 45.0832 11.5662C45.0999 15.7495 45.0832 19.9162 45.0999 24.0995C45.0999 24.5328 44.9832 24.8662 44.5499 25.0162C44.0332 25.1995 43.5499 24.8162 43.5499 24.2495C43.5332 23.2328 43.5499 22.2328 43.5499 21.2162C43.5499 17.6662 43.5499 14.1162 43.5499 10.5662C43.5499 9.86616 43.7999 9.61616 44.4999 9.61616C44.9499 9.56616 45.4332 9.56616 45.9999 9.56616Z" fill="#273339"/>
<path d="M30.2332 23.4658C30.8165 23.4658 31.2832 23.4658 31.7665 23.4658C32.4499 23.4658 32.7165 23.7491 32.7165 24.4324C32.7165 29.9658 32.7165 35.4824 32.7165 41.0158C32.7165 41.6324 32.4332 41.9658 31.9499 41.9658C31.4665 41.9658 31.1832 41.6158 31.1832 41.0158C31.1832 35.8491 31.1832 30.6658 31.1999 25.4991C31.1999 25.0991 31.1165 24.9658 30.6999 24.9991C30.1165 25.0324 29.5499 25.0158 28.9665 24.9991C28.2332 24.9824 27.8832 24.4158 28.2499 23.7824C29.7499 21.2491 31.2832 18.7158 32.7999 16.1824C33.1332 15.6324 33.8499 15.6158 34.1832 16.1824C35.7165 18.6991 37.2332 21.2324 38.7332 23.7824C39.1165 24.4158 38.7665 24.9991 38.0332 25.0158C37.4499 25.0324 36.8665 25.0491 36.2999 25.0158C35.8999 24.9991 35.7832 25.0991 35.7999 25.4991C35.8165 28.0491 35.8165 30.6158 35.8165 33.1658C35.8165 33.3324 35.8332 33.4991 35.7999 33.6491C35.6999 34.0491 35.4332 34.2991 34.9999 34.2658C34.5999 34.2491 34.3499 33.9991 34.2832 33.6158C34.2665 33.4991 34.2665 33.3658 34.2665 33.2324C34.2665 30.3158 34.2665 27.4158 34.2665 24.4991C34.2665 23.7158 34.5165 23.4658 35.3165 23.4658C35.7665 23.4658 36.2165 23.4658 36.6499 23.4658C36.7332 23.3158 36.6165 23.2324 36.5665 23.1324C35.6165 21.5491 34.6665 19.9658 33.7165 18.3824C33.6499 18.2824 33.5832 17.8824 33.3665 18.2491C32.3165 19.9658 31.2999 21.6658 30.2332 23.4658Z" fill="#273339"/>
<path d="M9.88346 34.4492C9.58346 35.5826 9.28346 36.6992 9.00012 37.8326C8.18346 40.9659 7.36679 44.0992 6.55012 47.2326C6.53346 47.3326 6.50012 47.4159 6.48346 47.5159C6.33346 47.9826 5.95012 48.2326 5.53346 48.1326C5.08346 48.0159 4.86679 47.6159 5.00012 47.1159C5.38346 45.6326 5.76679 44.1659 6.15012 42.6992C7.26679 38.4159 8.38346 34.1326 9.50012 29.8659C9.50012 29.8326 9.51679 29.7992 9.53346 29.7659C9.71679 29.1159 9.98346 28.8326 10.4335 28.8826C10.8835 28.9159 11.1001 29.2159 11.1668 29.8992C11.6168 35.0659 12.0668 40.2326 12.5168 45.3992C12.5668 45.9992 12.6501 46.6159 12.6835 47.2159C12.7168 47.7659 12.4168 48.1492 11.9501 48.1492C11.5001 48.1659 11.1835 47.8326 11.1335 47.3159C10.7835 43.1826 10.4168 39.0659 10.0668 34.9326C10.0501 34.7826 10.0168 34.6159 10.0001 34.4659C9.95012 34.4659 9.91679 34.4492 9.88346 34.4492Z" fill="#29353B"/>
<path d="M27.4166 37.3493C27.2499 36.9326 24.5833 32.4493 24.1999 31.9493C23.1333 33.7326 22.0666 35.4993 20.9666 37.3493C21.5166 37.3493 21.9833 37.3493 22.4666 37.3493C23.1999 37.3493 23.4666 37.616 23.4666 38.316C23.4666 40.2493 23.4666 42.166 23.4666 44.0993C23.4666 44.6993 23.1833 45.066 22.6999 45.0493C22.2166 45.0493 21.9333 44.6993 21.9333 44.0826C21.9333 42.4826 21.9166 40.866 21.9333 39.266C21.9333 38.9493 21.8499 38.8493 21.5333 38.866C20.9166 38.8993 20.3166 38.8826 19.6999 38.866C18.9666 38.8493 18.6166 38.266 18.9833 37.6493C20.4833 35.116 22.0166 32.5826 23.5333 30.066C23.8833 29.4826 24.5833 29.4993 24.9333 30.0826C26.4499 32.5993 27.9666 35.116 29.4666 37.6326C29.8499 38.2826 29.4999 38.866 28.7499 38.8826C28.1166 38.8993 27.4999 38.8993 26.8666 38.8826C26.6166 38.8826 26.5333 38.9493 26.5333 39.1993C26.5499 39.8326 26.5499 40.4493 26.5333 41.0826C26.5333 41.6326 26.2166 41.9826 25.7499 41.966C25.2999 41.9493 24.9999 41.616 24.9999 41.0826C24.9999 40.1326 24.9999 39.1826 24.9999 38.2326C24.9999 37.616 25.2833 37.3326 25.9333 37.3326C26.4166 37.3326 26.9166 37.3493 27.4166 37.3493Z" fill="#273339"/>
<path d="M14.2001 6.532C14.1834 9.06533 12.0667 11.132 9.53338 11.1153C7.00005 11.0987 4.93338 8.982 4.95005 6.44867C4.96672 3.91533 7.08338 1.84867 9.61672 1.86533C12.1667 1.882 14.2167 3.982 14.2001 6.532ZM9.58338 9.56533C11.2834 9.56533 12.6667 8.16533 12.6667 6.46533C12.6667 4.782 11.2834 3.39867 9.60005 3.39867C7.88338 3.382 6.50005 4.782 6.48338 6.482C6.48338 8.182 7.88338 9.56533 9.58338 9.56533Z" fill="#29353B"/>
<path d="M45.0666 27.3328C45.0499 27.7494 44.7166 28.0828 44.2999 28.0828C43.8666 28.0828 43.5166 27.7161 43.5333 27.2828C43.55 26.8661 43.9166 26.5328 44.3333 26.5494C44.7333 26.5661 45.0666 26.9161 45.0666 27.3328Z" fill="#29353B"/>
<path d="M35.0166 35.7994C35.4333 35.7828 35.7833 36.1161 35.7999 36.5328C35.8166 36.9661 35.4666 37.3328 35.0333 37.3328C34.6166 37.3328 34.2666 36.9828 34.2666 36.5661C34.2666 36.1661 34.5999 35.8161 35.0166 35.7994Z" fill="#29353B"/>
</svg>
