<svg width="55" height="55" viewBox="0 0 55 55" fill="none" xmlns="http://www.w3.org/2000/svg">
<rect width="55" height="55" fill="#2C67FF"/>
<g clip-path="url(#clip0_1229_95)">
<path d="M40.8686 34.6643H20.9448C20.6655 34.6643 20.4443 34.442 20.4443 34.1613V14.1358C20.4443 13.8551 20.6655 13.6328 20.9448 13.6328H40.8686C41.1479 13.6328 41.369 13.8551 41.369 14.1358V34.1613C41.369 34.442 41.1479 34.6643 40.8686 34.6643ZM21.4452 33.6466H40.3565V14.6388H21.4452V33.6466Z" fill="white"/>
<path d="M35.1429 40.4067H34.2817C34.0024 40.4067 33.7812 40.1845 33.7812 39.9037C33.7812 39.623 34.0024 39.4007 34.2817 39.4007H34.6424V39.0381C34.6424 38.7574 34.8636 38.5352 35.1429 38.5352C35.4222 38.5352 35.6433 38.7574 35.6433 39.0381V39.9037C35.6549 40.1845 35.4222 40.4067 35.1429 40.4067Z" fill="white"/>
<path d="M30.9419 40.4063H29.3359C29.0566 40.4063 28.8354 40.1841 28.8354 39.9034C28.8354 39.6226 29.0566 39.4004 29.3359 39.4004H30.9419C31.2212 39.4004 31.4423 39.6226 31.4423 39.9034C31.4423 40.1841 31.2212 40.4063 30.9419 40.4063ZM25.9958 40.4063H24.3898C24.1105 40.4063 23.8894 40.1841 23.8894 39.9034C23.8894 39.6226 24.1105 39.4004 24.3898 39.4004H25.9958C26.2751 39.4004 26.4963 39.6226 26.4963 39.9034C26.4963 40.1841 26.2751 40.4063 25.9958 40.4063ZM21.0382 40.4063H19.4438C19.1645 40.4063 18.9434 40.1841 18.9434 39.9034C18.9434 39.6226 19.1645 39.4004 19.4438 39.4004H21.0498C21.3291 39.4004 21.5502 39.6226 21.5502 39.9034C21.5502 40.1841 21.3175 40.4063 21.0382 40.4063Z" fill="white"/>
<path d="M16.0921 40.4067H15.2309C14.9516 40.4067 14.7305 40.1845 14.7305 39.9037V39.0381C14.7305 38.7574 14.9516 38.5352 15.2309 38.5352C15.5102 38.5352 15.7313 38.7574 15.7313 39.0381V39.4007H16.0921C16.3714 39.4007 16.5925 39.623 16.5925 39.9037C16.5925 40.1845 16.3714 40.4067 16.0921 40.4067Z" fill="white"/>
<path d="M15.2309 36.1838C14.9516 36.1838 14.7305 35.9616 14.7305 35.6808V34.0666C14.7305 33.7859 14.9516 33.5637 15.2309 33.5637C15.5102 33.5637 15.7313 33.7859 15.7313 34.0666V35.6808C15.7313 35.9499 15.5102 36.1838 15.2309 36.1838ZM15.2309 31.2008C14.9516 31.2008 14.7305 30.9786 14.7305 30.6978V29.0836C14.7305 28.8029 14.9516 28.5807 15.2309 28.5807C15.5102 28.5807 15.7313 28.8029 15.7313 29.0836V30.6978C15.7313 30.9786 15.5102 31.2008 15.2309 31.2008ZM15.2309 26.2295C14.9516 26.2295 14.7305 26.0073 14.7305 25.7266V24.1124C14.7305 23.8316 14.9516 23.6094 15.2309 23.6094C15.5102 23.6094 15.7313 23.8316 15.7313 24.1124V25.7266C15.7313 26.0073 15.5102 26.2295 15.2309 26.2295Z" fill="white"/>
<path d="M15.2309 21.2583C14.9516 21.2583 14.7305 21.036 14.7305 20.7553V19.8897C14.7305 19.609 14.9516 19.3867 15.2309 19.3867H16.0921C16.3714 19.3867 16.5925 19.609 16.5925 19.8897C16.5925 20.1704 16.3714 20.3927 16.0921 20.3927H15.7313V20.7553C15.7313 21.036 15.5102 21.2583 15.2309 21.2583Z" fill="white"/>
<path d="M30.9419 20.3927H29.3359C29.0566 20.3927 28.8354 20.1704 28.8354 19.8897C28.8354 19.609 29.0566 19.3867 29.3359 19.3867H30.9419C31.2212 19.3867 31.4423 19.609 31.4423 19.8897C31.4423 20.1587 31.2212 20.3927 30.9419 20.3927ZM25.9958 20.3927H24.3898C24.1105 20.3927 23.8894 20.1704 23.8894 19.8897C23.8894 19.609 24.1105 19.3867 24.3898 19.3867H25.9958C26.2751 19.3867 26.4963 19.609 26.4963 19.8897C26.4963 20.1587 26.2751 20.3927 25.9958 20.3927ZM21.0382 20.3927H19.4438C19.1645 20.3927 18.9434 20.1704 18.9434 19.8897C18.9434 19.609 19.1645 19.3867 19.4438 19.3867H21.0498C21.3291 19.3867 21.5502 19.609 21.5502 19.8897C21.5502 20.1587 21.3175 20.3927 21.0382 20.3927Z" fill="white"/>
<path d="M35.1429 21.2583C34.8636 21.2583 34.6424 21.036 34.6424 20.7553V20.3927H34.2817C34.0024 20.3927 33.7812 20.1704 33.7812 19.8897C33.7812 19.609 34.0024 19.3867 34.2817 19.3867H35.1429C35.4222 19.3867 35.6433 19.609 35.6433 19.8897V20.7553C35.6549 21.036 35.4222 21.2583 35.1429 21.2583Z" fill="white"/>
<path d="M35.143 36.1838C34.8637 36.1838 34.6426 35.9616 34.6426 35.6808V34.0666C34.6426 33.7859 34.8637 33.5637 35.143 33.5637C35.4223 33.5637 35.6434 33.7859 35.6434 34.0666V35.6808C35.6551 35.9499 35.4223 36.1838 35.143 36.1838ZM35.143 31.2008C34.8637 31.2008 34.6426 30.9786 34.6426 30.6978V29.0836C34.6426 28.8029 34.8637 28.5807 35.143 28.5807C35.4223 28.5807 35.6434 28.8029 35.6434 29.0836V30.6978C35.6551 30.9786 35.4223 31.2008 35.143 31.2008ZM35.143 26.2295C34.8637 26.2295 34.6426 26.0073 34.6426 25.7266V24.1124C34.6426 23.8316 34.8637 23.6094 35.143 23.6094C35.4223 23.6094 35.6434 23.8316 35.6434 24.1124V25.7266C35.6551 26.0073 35.4223 26.2295 35.143 26.2295Z" fill="white"/>
</g>
<defs>
<clipPath id="clip0_1229_95">
<rect width="27.5" height="27.5" fill="white" transform="translate(14.2998 13.1992)"/>
</clipPath>
</defs>
</svg>
