<svg width="70" height="70" viewBox="0 0 70 70" fill="none" xmlns="http://www.w3.org/2000/svg">
<path d="M67.1089 67.6338H6.49941C6.30691 67.6338 6.14941 67.4763 6.14941 67.2838V23.0718C6.14941 22.8793 6.30691 22.7218 6.49941 22.7218C6.69191 22.7218 6.84941 22.8793 6.84941 23.0718V66.9338H66.7554V19.5648C66.7554 19.3723 66.9129 19.2148 67.1054 19.2148C67.2979 19.2148 67.4554 19.3723 67.4554 19.5648V67.2838C67.4589 67.4763 67.3014 67.6338 67.1089 67.6338Z" fill="#3D8CFF"/>
<path d="M13.9789 25.9419C7.63694 25.9419 2.48145 20.7829 2.48145 14.4444C2.48145 8.10586 7.63694 2.94336 13.9789 2.94336C20.3209 2.94336 25.4764 8.10236 25.4764 14.4409C25.4764 20.7794 20.3174 25.9419 13.9789 25.9419ZM13.9789 3.64336C8.02544 3.64336 3.18145 8.48736 3.18145 14.4409C3.18145 20.3944 8.02544 25.2384 13.9789 25.2384C19.9324 25.2384 24.7764 20.3944 24.7764 14.4409C24.7764 8.48736 19.9324 3.64336 13.9789 3.64336Z" fill="#3D8CFF"/>
<path d="M62.5064 8.50391H23.2959C24.4509 10.2609 25.1264 12.3644 25.1264 14.6254C25.1264 16.3999 24.7099 18.0764 23.9749 19.5639H67.1089C67.0144 15.7769 68.3164 8.50041 62.5064 8.50391Z" fill="#B6DEFF"/>
<path d="M67.109 19.9143H23.975C23.8525 19.9143 23.7405 19.8513 23.6775 19.7498C23.6145 19.6483 23.6075 19.5188 23.66 19.4103C24.402 17.9123 24.7765 16.3058 24.7765 14.6258C24.7765 12.5118 24.164 10.4608 23.002 8.6968C22.932 8.5883 22.925 8.4518 22.988 8.3398C23.051 8.2278 23.1665 8.1543 23.296 8.1543H62.5065C63.9275 8.1683 65.0615 8.5743 65.8735 9.4108C67.669 11.2588 67.5675 14.7553 67.4835 17.5623C67.4625 18.2833 67.4415 18.9658 67.4555 19.5538C67.459 19.6483 67.4205 19.7393 67.3575 19.8058C67.291 19.8758 67.2 19.9143 67.109 19.9143ZM24.521 19.2143H66.752C66.7485 18.6998 66.766 18.1363 66.7835 17.5448C66.8605 14.8673 66.9585 11.5353 65.3695 9.9008C64.687 9.1973 63.7525 8.8578 62.51 8.8578C62.5065 8.8578 62.5065 8.8578 62.503 8.8578H23.9225C24.941 10.6078 25.4765 12.5888 25.4765 14.6293C25.4765 16.2253 25.1545 17.7653 24.521 19.2143Z" fill="#3D8CFF"/>
<path d="M19.1872 13.9394L19.1907 13.9184C19.2467 13.7049 19.2782 13.4844 19.2782 13.2569C19.2782 11.7939 18.0917 10.6074 16.6287 10.6074C15.1657 10.6074 13.9792 11.7939 13.9792 13.2569C13.9792 11.7939 12.7927 10.6074 11.3297 10.6074C9.86668 10.6074 8.68018 11.7939 8.68018 13.2569C8.68018 13.4844 8.71168 13.7084 8.76768 13.9184L8.77118 13.9394C8.77468 13.9499 8.77818 13.9604 8.78168 13.9709C8.81318 14.0794 8.84818 14.1879 8.89368 14.2929C10.2167 17.7999 13.9792 18.2759 13.9792 18.2759C13.9792 18.2759 17.7417 17.7999 19.0647 14.2929C19.1102 14.1879 19.1452 14.0829 19.1767 13.9709C19.1767 13.9604 19.1837 13.9499 19.1872 13.9394Z" fill="#B6DEFF"/>
<path d="M13.979 18.6263C13.965 18.6263 13.951 18.6263 13.9335 18.6228C13.7725 18.6018 9.9435 18.0768 8.5645 14.4158C8.5225 14.3213 8.484 14.2023 8.4455 14.0658C8.442 14.0483 8.428 13.9993 8.4245 13.9853C8.365 13.7543 8.3335 13.5023 8.3335 13.2573C8.3335 11.6053 9.6775 10.2578 11.333 10.2578C12.4775 10.2578 13.4785 10.9053 13.9825 11.8503C14.4865 10.9018 15.484 10.2578 16.632 10.2578C18.284 10.2578 19.6315 11.6018 19.6315 13.2573C19.6315 13.4953 19.6 13.7438 19.537 13.9888C19.5335 14.0098 19.53 14.0308 19.5265 14.0448C19.5265 14.0518 19.516 14.0728 19.516 14.0763C19.481 14.2058 19.439 14.3248 19.3935 14.4333C18.018 18.0803 14.1925 18.6053 14.028 18.6263C14.007 18.6263 13.993 18.6263 13.979 18.6263ZM9.1105 13.8593C9.1105 13.8628 9.114 13.8663 9.114 13.8698C9.142 13.9748 9.1735 14.0693 9.212 14.1603C10.374 17.2438 13.559 17.8598 13.9755 17.9263C14.3885 17.8563 17.5805 17.2333 18.7355 14.1743C18.781 14.0693 18.809 13.9783 18.837 13.8803C18.837 13.8768 18.8405 13.8698 18.844 13.8628C18.844 13.8523 18.8475 13.8453 18.851 13.8348C18.9 13.6388 18.928 13.4463 18.928 13.2608C18.928 11.9938 17.8955 10.9613 16.6285 10.9613C15.3615 10.9613 14.329 11.9938 14.329 13.2608C14.329 13.4533 14.1715 13.6108 13.979 13.6108C13.7865 13.6108 13.629 13.4533 13.629 13.2608C13.629 11.9938 12.5965 10.9613 11.3295 10.9613C10.0625 10.9613 9.03 11.9938 9.03 13.2608C9.03 13.4463 9.0545 13.6388 9.107 13.8348C9.107 13.8418 9.1105 13.8488 9.1105 13.8593Z" fill="#3D8CFF"/>
<g opacity="0.4">
<path d="M5.74347 22.0821C5.55097 22.0821 5.39347 21.9246 5.39347 21.7321V19.7756C5.39347 19.7721 5.39347 19.7686 5.39347 19.7651C5.40747 19.1141 5.38647 18.3616 5.36197 17.5636C5.27097 14.4416 5.15547 10.5531 7.14697 8.50557C8.04297 7.58507 9.27847 7.11957 10.8605 7.12307H22.673C22.8655 7.12307 23.023 7.28057 23.023 7.47307C23.023 7.66557 22.8655 7.82307 22.673 7.82307H10.864C10.8605 7.82307 10.8535 7.82307 10.85 7.82307C9.46397 7.82307 8.41747 8.20457 7.65447 8.99207C5.86947 10.8261 5.97797 14.5501 6.06547 17.5426C6.08647 18.2111 6.10397 18.8446 6.10047 19.4256H23.772C23.9645 19.4256 24.122 19.5831 24.122 19.7756C24.122 19.9681 23.9645 20.1256 23.772 20.1256H6.09347V21.7321C6.09347 21.9246 5.93947 22.0821 5.74347 22.0821Z" fill="#3D8CFF"/>
</g>
<path d="M30.5058 14.2593C30.5233 15.4983 28.5773 15.4983 28.5948 14.2593C28.5773 13.0203 30.5233 13.0203 30.5058 14.2593Z" fill="#F5FBFF"/>
<path d="M29.5503 15.5405C29.3018 15.5405 29.0568 15.4775 28.8433 15.355C28.4548 15.1275 28.2378 14.7285 28.2448 14.256C28.2378 13.794 28.4548 13.395 28.8433 13.1675C29.2668 12.919 29.8338 12.9225 30.2573 13.1675C30.6423 13.395 30.8628 13.7905 30.8558 14.263C30.8628 14.732 30.6423 15.131 30.2573 15.3585C30.0473 15.4775 29.7988 15.5405 29.5503 15.5405ZM29.5503 13.682C29.4243 13.682 29.3018 13.7135 29.1968 13.773C29.0253 13.8745 28.9413 14.0355 28.9448 14.256C28.9413 14.487 29.0253 14.6515 29.1968 14.7495C29.4033 14.872 29.6938 14.872 29.9038 14.7495C30.0753 14.648 30.1593 14.487 30.1558 14.2665C30.1558 14.263 30.1558 14.2595 30.1558 14.256C30.1593 14.0355 30.0753 13.871 29.9038 13.773C29.7988 13.71 29.6763 13.682 29.5503 13.682Z" fill="#3D8CFF"/>
<path d="M36.5049 14.2593C36.5224 15.4983 34.5764 15.4983 34.5939 14.2593C34.5764 13.0203 36.5224 13.0203 36.5049 14.2593Z" fill="#F5FBFF"/>
<path d="M35.5493 15.5405C35.3008 15.5405 35.0558 15.4775 34.8423 15.355C34.4538 15.1275 34.2368 14.7285 34.2438 14.256C34.2368 13.794 34.4538 13.395 34.8423 13.1675C35.2658 12.919 35.8328 12.9225 36.2563 13.1675C36.6413 13.395 36.8618 13.7905 36.8548 14.263C36.8618 14.732 36.6413 15.131 36.2563 15.3585C36.0428 15.4775 35.7978 15.5405 35.5493 15.5405ZM35.5493 13.682C35.4233 13.682 35.3008 13.7135 35.1958 13.773C35.0243 13.8745 34.9403 14.0355 34.9438 14.256C34.9403 14.487 35.0243 14.6515 35.1958 14.7495C35.4023 14.872 35.6928 14.872 35.9028 14.7495C36.0743 14.648 36.1583 14.487 36.1548 14.2665C36.1548 14.263 36.1548 14.2595 36.1548 14.256C36.1583 14.0355 36.0743 13.871 35.9028 13.773C35.7978 13.71 35.6753 13.682 35.5493 13.682Z" fill="#3D8CFF"/>
<path d="M42.5039 14.2593C42.5214 15.4983 40.5754 15.4983 40.5929 14.2593C40.5754 13.0203 42.5214 13.0203 42.5039 14.2593Z" fill="#F5FBFF"/>
<path d="M41.5483 15.5405C41.2998 15.5405 41.0548 15.4775 40.8413 15.355C40.4528 15.1275 40.2358 14.7285 40.2428 14.256C40.2358 13.794 40.4528 13.395 40.8413 13.1675C41.2648 12.919 41.8318 12.9225 42.2553 13.1675C42.6403 13.395 42.8608 13.7905 42.8538 14.263C42.8608 14.732 42.6403 15.131 42.2553 15.3585C42.0418 15.4775 41.7933 15.5405 41.5483 15.5405ZM41.5483 13.682C41.4223 13.682 41.2998 13.7135 41.1948 13.773C41.0233 13.8745 40.9393 14.0355 40.9428 14.256C40.9393 14.487 41.0233 14.6515 41.1948 14.7495C41.4013 14.872 41.6918 14.872 41.9018 14.7495C42.0733 14.648 42.1573 14.487 42.1538 14.2665C42.1538 14.263 42.1538 14.2595 42.1538 14.256C42.1573 14.0355 42.0733 13.871 41.9018 13.773C41.7968 13.71 41.6708 13.682 41.5483 13.682Z" fill="#3D8CFF"/>
<g opacity="0.4">
<path d="M38.4157 53.977H14.9237C14.7312 53.977 14.5737 53.8195 14.5737 53.627V39.809C14.5737 39.6165 14.7312 39.459 14.9237 39.459H38.4157C38.6082 39.459 38.7657 39.6165 38.7657 39.809V53.627C38.7657 53.8195 38.6117 53.977 38.4157 53.977ZM15.2737 53.277H38.0657V40.159H15.2737V53.277Z" fill="#3D8CFF"/>
</g>
<g opacity="0.4">
<path d="M60.1826 53.977H45.3251C45.1326 53.977 44.9751 53.8195 44.9751 53.627V39.809C44.9751 39.6165 45.1326 39.459 45.3251 39.459H60.1791C60.3716 39.459 60.5291 39.6165 60.5291 39.809V53.627C60.5326 53.8195 60.3751 53.977 60.1826 53.977ZM45.6751 53.277H59.8291V40.159H45.6751V53.277Z" fill="#3D8CFF"/>
</g>
<g opacity="0.4">
<path d="M60.1824 34.8035H32.5429C32.3504 34.8035 32.1929 34.646 32.1929 34.4535C32.1929 34.261 32.3504 34.1035 32.5429 34.1035H60.1789C60.3714 34.1035 60.5289 34.261 60.5289 34.4535C60.5289 34.646 60.3749 34.8035 60.1824 34.8035Z" fill="#3D8CFF"/>
</g>
<g opacity="0.4">
<path d="M60.1824 30.0359H40.1063C39.9138 30.0359 39.7563 29.8784 39.7563 29.6859C39.7563 29.4934 39.9138 29.3359 40.1063 29.3359H60.1824C60.3748 29.3359 60.5323 29.4934 60.5323 29.6859C60.5323 29.8784 60.3748 30.0359 60.1824 30.0359Z" fill="#3D8CFF"/>
</g>
<g opacity="0.4">
<path d="M60.1822 59.3328H14.9237C14.7312 59.3328 14.5737 59.1753 14.5737 58.9828C14.5737 58.7903 14.7312 58.6328 14.9237 58.6328H60.1787C60.3712 58.6328 60.5287 58.7903 60.5287 58.9828C60.5287 59.1753 60.3747 59.3328 60.1822 59.3328Z" fill="#3D8CFF"/>
</g>
<path d="M26.7679 54.0504C26.8274 53.9699 26.8204 53.9034 26.8204 53.8334C26.8344 52.7554 26.8344 51.6774 26.8729 50.5994C26.8939 50.0079 26.8869 49.4164 26.9044 48.8249C26.9219 48.2019 27.1984 47.8239 27.7304 47.6804C28.2764 47.5299 28.9099 47.9289 29.0044 48.4889C29.0289 48.6289 29.0359 48.7689 29.0394 48.9124C29.0569 49.7454 29.0709 50.5749 29.0849 51.4079C29.0849 51.4429 29.0919 51.4779 29.0954 51.5339C29.2284 51.4814 29.3474 51.4149 29.4769 51.3869C29.9564 51.2784 30.4359 51.4499 30.7089 51.8594C30.7999 51.9959 30.8594 51.9994 30.9994 51.9259C31.6364 51.5864 32.4589 51.9469 32.6584 52.6539C32.6969 52.7834 32.7319 52.8044 32.8579 52.7659C33.5474 52.5559 34.1914 52.9969 34.2649 53.7074C34.3314 54.3444 34.4154 54.9779 34.4749 55.6114C34.5204 56.0909 34.4014 56.5529 34.2789 57.0114C34.0444 57.8794 33.7259 58.7194 33.5089 59.5909C33.4109 59.9724 33.3374 60.3574 33.3304 60.7529C33.3269 60.9979 33.2184 61.0924 32.9699 61.0924C31.0694 61.0924 29.1689 61.0924 27.2719 61.0924C26.9744 61.0924 26.8939 60.9769 26.9219 60.6759C26.9709 60.1474 26.8379 59.6399 26.5369 59.2199C25.7984 58.1909 25.3784 57.0079 24.8709 55.8704C24.4789 54.9954 24.1219 54.1029 23.7544 53.2139C23.5479 52.7204 23.7369 52.1954 24.2059 51.9259C24.6294 51.6844 25.1894 51.8034 25.4904 52.2199C25.8824 52.7659 26.2569 53.3224 26.6419 53.8719C26.6804 53.9279 26.7189 53.9839 26.7679 54.0504ZM30.1314 60.5009C30.9469 60.5009 31.7589 60.4974 32.5744 60.5044C32.6934 60.5044 32.7459 60.4799 32.7634 60.3504C32.7879 60.1264 32.8334 59.9024 32.8824 59.6784C33.0924 58.7229 33.4529 57.8059 33.7049 56.8644C33.8064 56.4864 33.9219 56.1014 33.8869 55.7024C33.8274 55.0584 33.7469 54.4214 33.6769 53.7774C33.6454 53.4729 33.4634 53.3014 33.1694 53.3119C32.9034 53.3189 32.7144 53.5254 32.7109 53.8124C32.7074 54.1204 32.7109 54.4284 32.7109 54.7364C32.7109 54.9429 32.5849 55.0899 32.4099 55.0864C32.2384 55.0829 32.1194 54.9394 32.1194 54.7294C32.1194 54.1554 32.1194 53.5814 32.1194 53.0074C32.1194 52.6539 31.8604 52.3949 31.5174 52.3914C31.1989 52.3879 30.9364 52.6644 30.9364 53.0074C30.9364 53.3784 30.9364 53.7459 30.9364 54.1169C30.9364 54.3444 30.8244 54.4914 30.6459 54.4949C30.4604 54.4984 30.3449 54.3514 30.3449 54.1099C30.3449 53.6024 30.3449 53.0984 30.3449 52.5909C30.3449 52.2094 30.0894 51.9434 29.7324 51.9469C29.4069 51.9504 29.1619 52.2269 29.1619 52.5909C29.1619 53.0669 29.1619 53.5394 29.1619 54.0154C29.1619 54.2079 29.0289 54.3514 28.8644 54.3479C28.7034 54.3444 28.5774 54.2079 28.5704 54.0259C28.5459 53.2314 28.5214 52.4369 28.5039 51.6424C28.4829 50.7534 28.4724 49.8679 28.4549 48.9789C28.4514 48.8564 28.4409 48.7339 28.4234 48.6114C28.3919 48.3979 28.1784 48.2334 27.9579 48.2439C27.7374 48.2544 27.5519 48.4224 27.5309 48.6324C27.5134 48.8109 27.5064 48.9894 27.4994 49.1679C27.4784 49.7419 27.4959 50.3124 27.4679 50.8864C27.4364 51.5514 27.4539 52.2164 27.4259 52.8814C27.3979 53.5954 27.3944 54.3094 27.3839 55.0269C27.3804 55.1704 27.3104 55.2579 27.1879 55.3104C27.0584 55.3664 26.9464 55.3209 26.8589 55.2159C26.8099 55.1599 26.7714 55.0969 26.7294 55.0374C26.1729 54.2324 25.6164 53.4274 25.0564 52.6224C24.9059 52.4054 24.6819 52.3459 24.4824 52.4614C24.2794 52.5769 24.2269 52.7729 24.3284 53.0214C24.8919 54.3934 25.4659 55.7619 26.0749 57.1164C26.3199 57.6659 26.5614 58.2189 26.9289 58.7089C27.2859 59.1849 27.4819 59.7379 27.5274 60.3329C27.5379 60.4764 27.5869 60.5044 27.7164 60.5009C28.5179 60.4974 29.3229 60.5009 30.1314 60.5009Z" fill="#3D8CFF"/>
<path d="M30.1316 60.5001C29.3231 60.5001 28.5146 60.4966 27.7061 60.5036C27.5766 60.5036 27.5311 60.4791 27.5171 60.3356C27.4716 59.7406 27.2756 59.1841 26.9186 58.7116C26.5511 58.2216 26.3096 57.6686 26.0646 57.1191C25.4556 55.7646 24.8816 54.3961 24.3181 53.0241C24.2166 52.7756 24.2726 52.5796 24.4721 52.4641C24.6751 52.3486 24.8991 52.4081 25.0461 52.6251C25.6026 53.4301 26.1591 54.2351 26.7191 55.0401C26.7611 55.0996 26.8031 55.1626 26.8486 55.2186C26.9361 55.3201 27.0481 55.3691 27.1776 55.3131C27.3001 55.2606 27.3736 55.1731 27.3736 55.0296C27.3841 54.3156 27.3876 53.5981 27.4156 52.8841C27.4401 52.2191 27.4226 51.5506 27.4576 50.8891C27.4856 50.3151 27.4681 49.7446 27.4891 49.1706C27.4961 48.9921 27.5031 48.8136 27.5206 48.6351C27.5381 48.4251 27.7271 48.2571 27.9476 48.2466C28.1681 48.2361 28.3816 48.4006 28.4131 48.6141C28.4306 48.7366 28.4411 48.8591 28.4446 48.9816C28.4621 49.8706 28.4761 50.7561 28.4936 51.6451C28.5111 52.4396 28.5356 53.2341 28.5601 54.0286C28.5636 54.2071 28.6931 54.3471 28.8541 54.3506C29.0186 54.3541 29.1516 54.2106 29.1516 54.0181C29.1551 53.5421 29.1516 53.0696 29.1516 52.5936C29.1516 52.2296 29.3966 51.9531 29.7221 51.9496C30.0791 51.9461 30.3346 52.2121 30.3346 52.5936C30.3346 53.1011 30.3346 53.6051 30.3346 54.1126C30.3346 54.3541 30.4501 54.5011 30.6356 54.4976C30.8141 54.4941 30.9261 54.3471 30.9261 54.1196C30.9261 53.7486 30.9261 53.3811 30.9261 53.0101C30.9261 52.6671 31.1886 52.3906 31.5071 52.3941C31.8501 52.3976 32.1091 52.6566 32.1091 53.0101C32.1126 53.5841 32.1091 54.1581 32.1091 54.7321C32.1091 54.9421 32.2281 55.0856 32.3996 55.0891C32.5711 55.0926 32.6971 54.9491 32.7006 54.7391C32.7006 54.4311 32.7006 54.1231 32.7006 53.8151C32.7041 53.5281 32.8931 53.3216 33.1591 53.3146C33.4531 53.3076 33.6351 53.4791 33.6666 53.7801C33.7366 54.4206 33.8171 55.0611 33.8766 55.7051C33.9116 56.1041 33.7996 56.4856 33.6946 56.8671C33.4426 57.8121 33.0821 58.7256 32.8721 59.6811C32.8231 59.9016 32.7776 60.1256 32.7531 60.3531C32.7391 60.4861 32.6866 60.5106 32.5641 60.5071C31.7626 60.4966 30.9471 60.5001 30.1316 60.5001Z" fill="#B6DEFF"/>
</svg>
