<svg width="65" height="65" viewBox="0 0 65 65" fill="none" xmlns="http://www.w3.org/2000/svg">
<path opacity="0.7" d="M32.2439 64.8363C32.5876 65.2118 32.8403 64.8406 33.0793 64.7175C41.8561 60.2119 50.626 55.6892 59.4051 51.1856C59.9059 50.929 60.1335 50.6108 60.1972 50.0847C60.9369 43.9329 61.6926 37.781 62.4551 31.6313C63.2837 24.9428 64.1099 18.2543 64.9794 11.5721C65.0636 10.9336 64.902 10.7024 64.2692 10.4945C54.0107 7.11312 43.7612 3.70628 33.5049 0.318538C33.102 0.184895 32.7037 -0.199064 32.2098 0.129741C32.599 0.441575 32.4897 0.86796 32.492 1.2604C32.5011 3.27354 32.4966 5.28667 32.4966 7.2998C32.5853 7.44405 32.69 7.57981 32.7629 7.73043C34.7272 11.8309 36.6824 15.9357 38.6513 20.0362C42.721 28.513 46.7998 36.9855 50.8719 45.4602C51.516 46.7988 52.1374 48.1479 52.8134 49.5862C50.3574 49.5862 48.0654 49.5692 45.7756 49.5968C45.1838 49.6031 45.0768 49.268 44.9084 48.8776C43.7612 46.1815 42.5958 43.4916 41.4373 40.7975C41.2916 40.4603 41.2347 40.1018 40.6679 40.1102C37.9411 40.1527 35.2143 40.1633 32.4852 40.1845C32.4875 48.0525 32.492 55.9183 32.492 63.7863C32.492 64.1511 32.5853 64.5415 32.2439 64.8363Z" fill="#D2D2D2"/>
<path d="M32.2439 64.8364C32.5853 64.5394 32.492 64.149 32.492 63.7863C32.4943 55.9183 32.4898 48.0525 32.4852 40.1845C29.7948 40.1633 27.1067 40.1506 24.4163 40.1124C23.8495 40.1039 23.7061 40.4136 23.5331 40.8209C22.3791 43.5468 21.1955 46.2621 20.0324 48.9837C19.8959 49.3019 19.823 49.5989 19.3246 49.5947C16.971 49.5756 14.6152 49.5862 12.2617 49.5862C12.2617 49.4441 12.2389 49.3698 12.264 49.3168C15.3732 42.8298 18.4892 36.3449 21.5961 29.8579C23.8655 25.1231 26.112 20.382 28.3904 15.6515C29.7356 12.8577 31.1241 10.083 32.492 7.29982C32.492 5.28669 32.4966 3.27356 32.4875 1.26042C32.4852 0.870101 32.5945 0.443716 32.2052 0.129761C28.6795 1.27739 25.1492 2.41442 21.6303 3.57903C14.6653 5.88702 7.70485 8.22047 0.726205 10.5073C0.0752287 10.7215 -0.0590637 10.94 0.0206012 11.5743C0.967476 18.9925 1.8711 26.415 2.78611 33.8375C3.45302 39.2448 4.12448 44.6499 4.78912 50.0571C4.85057 50.5535 5.03039 50.8993 5.54935 51.1666C14.292 55.6447 23.021 60.1419 31.7546 64.6348C31.9071 64.7154 32.08 64.7706 32.2439 64.8364Z" fill="#D2D2D2"/>
<path opacity="0.7" d="M32.4875 34.2109C34.4131 34.2109 36.3387 34.2109 38.2825 34.2109C38.4077 34.0221 38.2529 33.8418 38.1756 33.6636C36.4115 29.6988 34.643 25.7341 32.8403 21.7842C32.8266 21.7524 32.9245 20.7257 32.294 21.5233C32.5694 21.8075 32.4966 22.1575 32.4966 22.4863C32.4943 26.3959 32.4898 30.3034 32.4875 34.2109Z" fill="#D2D2D2"/>
<path d="M32.4875 34.2108C32.4898 30.3034 32.4943 26.3959 32.4943 22.4863C32.4943 22.1554 32.5694 21.8054 32.2917 21.5232C30.3934 25.7171 28.4929 29.9109 26.5445 34.2108C28.6135 34.2108 30.5505 34.2108 32.4875 34.2108Z" fill="#D2D2D2"/>
</svg>
