<svg width="65" height="65" viewBox="0 0 65 65" fill="none" xmlns="http://www.w3.org/2000/svg">
<path d="M32.7427 50.7603C24.9263 50.9557 17.9504 49.1445 11.3674 45.7868C8.10634 44.1227 5.07223 42.0782 2.38483 39.561C2.04023 39.2374 1.48132 38.8298 1.89525 38.3906C2.20623 38.0608 2.81977 38.1721 3.34927 38.4747C9.17164 41.8051 15.3638 44.1353 21.9993 45.2258C24.4472 45.6271 26.893 46.2469 29.3493 46.2974C30.8432 46.3289 32.4065 46.0116 33.9298 46.1062C38.7752 46.4066 43.4083 45.251 48.0687 44.2256C50.7981 43.6247 53.4162 42.7002 55.9649 41.5718C56.6373 41.2735 57.3097 41.431 57.6227 41.9353C57.9379 42.4417 57.7089 42.9691 57.0806 43.4482C53.6368 46.0831 49.7076 47.7136 45.6208 48.907C41.3155 50.1656 36.9093 51.0418 32.7427 50.7603Z" fill="#D2D2D2"/>
<path d="M28.3911 28.4353C29.3934 24.0648 30.3011 20.0347 31.255 16.0152C31.4168 15.3323 31.4273 14.3952 32.6376 14.6326C33.747 14.849 35.1968 14.0422 35.6129 15.9963C36.4176 19.7742 37.3611 23.5227 38.2393 27.2859C38.3276 27.6599 38.3843 28.036 38.8529 28.471C39.4139 26.2921 39.9434 24.2224 40.4771 22.1548C41.0297 20.0137 41.5781 17.8726 42.137 15.7336C42.4081 14.6935 43.7697 14.1956 45.1543 14.7167C46.2574 15.1306 45.6901 16.0089 45.501 16.6644C44.8286 18.9694 44.0764 21.2534 43.3599 23.5458C42.4984 26.3005 41.6117 29.0467 40.7986 31.8161C40.3636 33.2953 39.1681 32.9381 38.1931 32.9549C37.3337 32.9696 36.6298 32.7763 36.3756 31.5744C35.5309 27.5843 34.4866 23.6383 33.2574 19.6775C32.48 22.8587 31.6921 26.0378 30.9398 29.2253C30.839 29.6497 30.6961 30.0511 30.5763 30.4629C29.9334 32.6943 29.9481 32.6271 27.725 32.728C26.4832 32.7847 26.1996 32.2678 25.8235 31.1605C24.4325 27.0632 23.3819 22.8629 22.0035 18.7656C21.6673 17.7655 21.3837 16.7443 21.0643 15.7378C20.9487 15.3743 20.9929 15.0802 21.3122 14.8406C22.3796 14.0464 24.5901 14.7965 24.9431 16.1223C25.8928 19.6712 26.8152 23.2264 27.7166 26.7858C27.8343 27.2607 27.9499 27.704 28.3911 28.4353Z" fill="#D2D2D2"/>
<path d="M19.3434 24.277C19.4401 26.4707 18.9589 28.6979 20.1629 30.8012C20.8248 31.9568 19.4338 32.1838 18.8413 32.6523C18.0092 33.3079 17.1141 32.852 16.7779 32.0766C16.1475 30.6184 15.7567 30.9693 14.7271 31.8119C12.1637 33.9109 6.75737 34.0265 5.11635 30.9126C4.08467 28.9543 4.11829 26.7438 5.30546 24.8507C6.4506 23.0226 8.14415 21.8628 10.5164 22.1738C12.086 22.3797 13.7018 21.8985 15.2566 22.4889C15.6475 22.636 15.7336 22.3124 15.7609 21.9973C16.0047 18.9968 14.7124 16.8157 11.1699 17.1288C9.73264 17.2549 8.29123 17.5365 6.96539 18.1752C6.19636 18.5471 5.9148 18.2908 5.86227 17.4902C5.77822 16.1539 6.06398 15.326 7.58734 14.8112C9.64649 14.1157 11.7267 14.1367 13.727 14.3301C17.797 14.7209 18.961 16.9313 19.3245 20.6441C19.4443 21.8439 19.3455 23.0647 19.3434 24.277ZM12.4306 24.5082C11.0627 24.4809 9.8419 24.817 8.87116 25.834C7.98656 26.7585 7.99287 27.8511 8.4152 28.9333C8.83754 30.0154 9.75996 30.6898 10.8883 30.5953C12.6617 30.4461 14.2565 29.7422 15.3386 28.2294C15.9795 27.3322 15.9206 26.2479 15.6454 25.2961C15.4289 24.5439 14.4813 24.8444 13.8615 24.691C13.3971 24.5733 12.9075 24.5649 12.4306 24.5082Z" fill="#D2D2D2"/>
<path d="M53.5654 14.3574C55.1644 13.9497 56.9104 14.3027 58.6271 15.0571C59.3604 15.3806 59.621 15.9332 59.7197 16.6266C59.9088 17.9567 59.4781 18.2445 58.1943 17.7634C56.5028 17.1288 54.7777 16.7065 52.9518 17.1687C52.0336 17.3999 51.1007 17.7234 50.9767 18.7551C50.8569 19.77 51.1364 20.6336 52.271 21.2324C54.1264 22.2137 56.2381 22.3671 58.0871 23.342C59.8353 24.2644 60.5371 25.668 60.6274 27.5381C60.7262 29.5594 59.9719 31.2508 58.2384 32.1691C54.95 33.9088 51.4999 33.4634 48.1107 32.3582C47.2744 32.085 46.8773 30.2486 47.411 29.5846C47.8018 29.0992 48.2011 29.448 48.594 29.5636C50.5187 30.1288 52.4055 30.9735 54.4836 30.2738C54.8912 30.1372 55.3388 30.0763 55.7044 29.8704C56.4629 29.4396 57.2697 28.9711 57.0932 27.8911C56.9104 26.7816 56.1372 26.1261 55.1539 25.7647C53.7965 25.2667 52.3824 24.9221 51.0334 24.4094C48.0372 23.2706 46.9277 21.1505 47.5896 17.9966C48.0435 15.8261 50.5901 14.1977 53.5654 14.3574Z" fill="#D2D2D2"/>
<path d="M56.9062 39.4034C55.4144 39.3215 53.9688 39.8636 52.4664 39.7291C52.166 39.7018 51.8172 39.9918 51.6428 39.5337C51.4768 39.1009 51.6701 38.7731 52.0462 38.5672C53.6767 37.6805 55.4459 36.8064 57.2487 36.9661C58.8078 37.1026 60.4173 36.632 61.9659 37.3317C62.8169 37.7162 63.2812 38.1616 63.2476 39.0925C63.1278 42.3997 61.8251 45.2279 59.726 47.7199C59.3772 48.1338 58.8961 48.6234 58.2888 48.2368C57.6311 47.8187 58.1817 47.2892 58.335 46.8353C58.8624 45.2783 59.4865 43.7487 59.9572 42.1749C60.5476 40.204 59.6315 39.4034 56.9062 39.4034Z" fill="#D2D2D2"/>
</svg>
