<svg width="65" height="59" viewBox="0 0 65 59" fill="none" xmlns="http://www.w3.org/2000/svg">
<path d="M0 3.32829C0 2.60887 0 1.88944 0 1.17001C0.0196804 1.20281 0.0349874 1.25966 0.0590412 1.26185C0.0940286 1.26622 0.15307 1.24217 0.168377 1.21374C0.758789 0.107268 1.75374 -0.004255 2.87334 0.000118427C18.8123 0.0416659 34.7534 0.0591599 50.6945 0.0854005C54.6678 0.0919606 58.6432 0.120388 62.6165 0.116014C63.5568 0.116014 64.3177 0.367486 64.7901 1.23561C64.8229 1.29684 64.8775 1.46084 65 1.29684C65 2.01627 65 2.73569 65 3.45512C64.9847 3.43982 64.9716 3.42451 64.9541 3.41139C64.941 3.40046 64.9147 3.38077 64.9104 3.38515C64.7573 3.50323 64.7726 3.68254 64.7463 3.84654C63.8848 9.09028 63.0254 14.3362 62.1638 19.5799C55.6146 19.5821 49.0654 19.5865 42.5184 19.5887C35.9627 19.5887 29.4069 19.5909 22.8511 19.5821C22.3919 19.5821 22.2061 19.604 22.3154 20.1813C23.4612 26.1969 24.5721 32.2191 25.6807 38.2413C25.7551 38.6502 25.9169 38.764 26.3368 38.7618C30.2903 38.7443 34.2461 38.753 38.1997 38.7552C39.2165 38.7552 39.2165 38.7552 39.4942 37.863C39.7413 37.909 39.8987 38.0773 40.0452 38.2632C40.6422 39.0307 41.237 39.7983 41.834 40.5636C45.7766 45.6302 49.7127 50.7012 53.6728 55.7547C54.2173 56.4479 54.6765 57.2176 55.3653 57.7949C54.9652 58.4291 54.3288 58.44 53.686 58.44C47.55 58.44 41.4163 58.4422 35.2804 58.4422C27.452 58.4422 19.6257 58.4444 11.7973 58.44C10.1529 58.44 9.05517 57.5565 8.78402 56.028C8.63532 55.1971 8.51505 54.3596 8.37948 53.5243C7.38671 47.4365 6.39176 41.3465 5.39899 35.2587C4.40404 29.1709 3.4069 23.0809 2.41413 16.9931C1.69033 12.5518 0.968713 8.11063 0.240538 3.66942C0.216484 3.53166 0.293019 3.28675 0 3.32829Z" fill="#D2D2D2"/>
<path opacity="0.7" d="M62.1638 19.5778C61.3372 24.6356 60.5106 29.6935 59.6862 34.7514C59.2205 37.6138 58.7525 40.4762 58.2977 43.3408C57.6067 47.6857 56.9332 52.0329 56.2356 56.3779C56.1438 56.953 56.0147 57.5434 55.3631 57.7927C54.6743 57.2176 54.2129 56.4479 53.6706 55.7525C49.7104 50.699 45.7744 45.6281 41.8317 40.5614C41.2348 39.7939 40.64 39.0264 40.043 38.261C39.8987 38.0752 39.7412 37.9046 39.4919 37.8609C39.5138 37.0408 39.7216 36.2471 39.8571 35.4445C40.4694 31.8627 41.0861 28.2809 41.6918 24.6969C41.9782 22.9956 42.2428 21.29 42.5162 19.5865C49.0676 19.5843 55.6146 19.5821 62.1638 19.5778Z" fill="#D2D2D2"/>
</svg>
