<svg width="66" height="66" viewBox="0 0 66 66" fill="none" xmlns="http://www.w3.org/2000/svg">
<path d="M0 32.5193C0 31.8448 0 31.1682 0 30.4937C0.0147083 30.5483 0.0567319 30.5799 0.0861484 30.5273C0.115565 30.4748 0.111363 30.4013 0.117666 30.3361C0.210118 29.0355 0.371909 27.7433 0.613545 26.4616C1.14514 23.6355 2.03394 20.927 3.29675 18.3447C5.59544 13.6423 8.83756 9.71305 13.0084 6.55287C15.8492 4.39916 18.9674 2.76235 22.3524 1.64242C25.4705 0.608636 28.6769 0.0644305 31.9631 0.00559743C34.2219 -0.0364262 36.4597 0.158984 38.6806 0.564511C40.6011 0.915408 42.4859 1.41549 44.3181 2.09207C47.5833 3.29815 50.5712 4.998 53.2649 7.20214C58.1586 11.207 61.5646 16.2288 63.4619 22.2613C64.2268 24.6924 64.71 27.1823 64.9181 29.7247C65.0693 31.58 65.0756 33.4333 64.9181 35.2886C64.7773 36.9548 64.5125 38.6001 64.1133 40.2222C62.9261 45.0549 60.7388 49.3896 57.5702 53.2222C54.761 56.6198 51.3928 59.3345 47.4804 61.3706C43.8285 63.27 39.9518 64.4215 35.8587 64.8417C35.6171 64.8669 35.3734 64.8837 35.1296 64.911C35.096 64.9152 34.991 64.9068 35.0687 65.0014C34.224 65.0014 33.3793 65.0014 32.5347 65.0014C32.5389 64.8984 32.5452 64.7955 32.5452 64.6925C32.5452 60.7339 32.5452 56.7753 32.5452 52.8188C32.5452 52.4006 32.5851 52.4552 32.1901 52.4552C28.2588 52.4531 24.3296 52.4552 20.3983 52.4531C20.268 52.4531 20.1356 52.47 20.0074 52.4237L20.0137 52.43C20.0936 52.3313 20.0558 52.2136 20.0558 52.1044C20.0579 48.1835 20.0579 44.2627 20.06 40.3419C20.06 40.2579 20.0642 40.1739 20.06 40.0877C20.0558 39.9826 20.0999 39.9301 20.2091 39.9343C20.2659 39.9364 20.3226 39.9343 20.3772 39.9343C24.3464 39.9343 28.3134 39.9343 32.2825 39.9343C32.3393 39.9343 32.396 39.9364 32.4506 39.9343C32.541 39.9322 32.5893 39.97 32.5872 40.0667C32.5851 40.1423 32.5872 40.2159 32.5872 40.2915C32.5872 41.651 32.5872 43.0125 32.5872 44.372C32.5872 46.9607 32.5872 49.5493 32.5872 52.1401C32.5872 52.4027 32.5893 52.4027 32.8435 52.4027C33.4907 52.4027 34.1358 52.3565 34.7808 52.2851C36.5437 52.0917 38.2478 51.6631 39.8909 50.9991C43.4965 49.543 46.4487 47.2422 48.7159 44.082C51.1721 40.6571 52.4118 36.8246 52.4497 32.6117C52.4707 30.2668 52.0693 27.9849 51.3297 25.7598C50.2014 22.3664 48.283 19.5045 45.5473 17.1996C42.2652 14.4344 38.4222 13.0476 34.1883 12.6589C32.812 12.5328 31.4337 12.577 30.0616 12.7493C28.2273 12.9783 26.4476 13.4258 24.7582 14.176C19.23 16.6301 15.471 20.719 13.5484 26.4658C12.9349 28.3001 12.6428 30.1975 12.6134 32.1305C12.6071 32.5108 12.6806 32.4793 12.2772 32.4793C8.23452 32.4793 4.18975 32.4793 0.147083 32.4793C0.0966543 32.4793 0.0336189 32.452 0 32.5193Z" fill="#D2D2D2"/>
<path d="M20.0116 52.4216C20.0789 52.5036 20.0579 52.6002 20.0579 52.6927C20.0579 55.7394 20.0579 58.7861 20.0579 61.8328C20.0579 62.0955 20.0558 62.0997 19.8015 62.0997C16.7548 62.0997 13.7081 62.0997 10.6614 62.0997C10.4198 62.0997 10.4135 62.0955 10.4135 61.879C10.4135 58.7756 10.4135 55.6722 10.4135 52.5708C10.4135 52.5246 10.424 52.4784 10.4303 52.4321L10.4219 52.4405C10.5143 52.4447 10.6089 52.451 10.7013 52.451C13.7144 52.451 16.7296 52.451 19.7427 52.451C19.8351 52.451 19.9297 52.4721 20.0179 52.43C20.0179 52.4279 20.0116 52.4216 20.0116 52.4216Z" fill="#D2D2D2"/>
<path d="M10.4302 52.43C10.3399 52.4616 10.2453 52.449 10.1508 52.449C7.65458 52.449 5.16048 52.449 2.66428 52.449C2.32178 52.449 2.347 52.491 2.347 52.1338C2.347 49.6565 2.347 47.1813 2.347 44.704C2.347 44.3489 2.31548 44.3867 2.66218 44.3867C5.13947 44.3867 7.61466 44.3867 10.0919 44.3867C10.1487 44.3867 10.2054 44.3888 10.26 44.3867C10.3651 44.3804 10.4176 44.4203 10.4113 44.5317C10.4071 44.6073 10.4113 44.6809 10.4113 44.7565C10.4113 47.2149 10.4113 49.6712 10.4113 52.1296C10.4113 52.2325 10.4155 52.3355 10.4197 52.4384L10.4302 52.43Z" fill="#D2D2D2"/>
</svg>
