<svg width="65" height="65" viewBox="0 0 65 65" fill="none" xmlns="http://www.w3.org/2000/svg">
<path d="M39.5946 36.7937C39.1366 37.6174 38.6533 38.3717 38.0818 39.063C36.05 41.5172 33.4949 43.0469 30.3095 43.4944C27.5843 43.8789 25.0377 43.4587 22.7369 41.8912C20.1818 40.1493 18.8119 37.733 18.566 34.6421C18.3034 31.3307 19.4548 28.5298 21.5329 26.042C23.0458 24.2287 24.9074 22.8965 27.1473 22.1359C29.8158 21.2303 32.5158 20.9971 35.199 22.0687C37.5544 23.01 39.2564 24.6552 40.2817 26.9854C40.4435 27.351 40.3889 27.4876 40.0086 27.5885C38.3213 28.0381 36.632 28.4752 34.9447 28.9227C34.5917 29.0173 34.4047 28.7988 34.2261 28.5739C33.4928 27.6557 32.5032 27.204 31.3769 27.0001C30.0784 26.7648 28.8996 27.1241 27.8091 27.7986C25.6449 29.1413 24.5775 31.0869 24.6553 33.6483C24.7246 35.8986 26.5295 37.8044 28.7715 38.0187C31.1311 38.2436 32.8183 37.1741 34.1169 35.3166C34.1589 35.2578 34.2366 35.1926 34.1925 35.1212C34.1316 35.0183 34.0118 35.0687 33.9194 35.0687C32.333 35.0645 30.7487 35.0666 29.1623 35.0666C29.0614 35.0666 28.9627 35.0687 28.8618 35.0666C28.139 35.0435 27.931 34.7451 28.2 34.0832C28.6139 33.0663 29.0951 32.0787 29.5825 31.0954C29.7863 30.6835 30.0826 30.4986 30.5617 30.5007C33.4823 30.5154 36.4051 30.5049 39.3257 30.5154C39.6115 30.5154 39.7249 30.4209 39.83 30.1561C41.5971 25.7184 44.7404 22.8797 49.4765 21.9153C51.315 21.5413 53.162 21.4509 55.0047 21.9048C58.3057 22.72 61.7642 25.5377 62.2874 29.7149C62.5795 32.0514 62.3735 34.2996 61.3166 36.4197C60.1862 38.689 58.4843 40.4519 56.3158 41.7525C54.5677 42.801 52.6661 43.3746 50.6321 43.5764C47.9784 43.8411 45.5515 43.2675 43.3558 41.7693C41.637 40.5948 40.4015 39.0294 39.7312 37.0417C39.7144 36.9955 39.6997 36.9471 39.6808 36.9009C39.6745 36.882 39.6535 36.8652 39.5946 36.7937ZM50.2855 38.086C51.4453 38.0839 52.4917 37.7057 53.4561 37.0963C55.5825 35.7537 56.6919 33.8521 56.5028 31.3055C56.32 28.8408 54.2378 26.9077 51.7752 26.956C49.6887 26.998 47.9027 27.7902 46.6336 29.5006C45.6755 30.7907 45.1481 32.2678 45.3708 33.8878C45.7112 36.3756 47.7682 38.0881 50.2855 38.086Z" fill="#D2D2D2"/>
<path d="M9.5604 30.8033C7.36467 30.8033 5.17103 30.8033 2.9753 30.8012C2.84503 30.8012 2.66853 30.8621 2.60129 30.7108C2.54666 30.5869 2.70215 30.4986 2.76098 30.3936C3.06985 29.8326 3.52161 29.6666 4.17297 29.6729C7.7891 29.7086 11.4073 29.6918 15.0235 29.6876C15.5341 29.6876 16.0446 29.6519 16.5552 29.6477C17.0154 29.6434 17.0427 29.6876 16.9103 30.112C16.696 30.8054 16.696 30.8054 15.9606 30.8054C13.8258 30.8033 11.6931 30.8033 9.5604 30.8033Z" fill="#D2D2D2"/>
<path d="M12.3739 28.1201C10.6887 28.1201 9.00357 28.1201 7.32052 28.118C7.21336 28.118 7.07468 28.1705 7.00955 28.0528C6.93601 27.9184 7.07678 27.8301 7.13562 27.7272C7.4571 27.1682 7.90675 26.977 8.57913 26.9854C11.7225 27.0254 14.868 26.9981 18.0134 26.9981C18.1521 26.9981 18.3433 26.9161 18.419 27.0884C18.4799 27.225 18.316 27.3279 18.2677 27.4498C18.0449 28.0066 17.6394 28.1474 17.0553 28.1327C15.4941 28.0928 13.9329 28.1201 12.3739 28.1201Z" fill="#D2D2D2"/>
<path d="M12.9139 33.4445C11.9158 33.4445 10.9178 33.4403 9.91969 33.4466C9.62973 33.4487 9.54358 33.3667 9.71167 33.1041C9.79992 32.9675 9.88397 32.8288 9.95121 32.6817C10.071 32.4233 10.2664 32.3245 10.55 32.3266C12.3592 32.3329 14.1683 32.3329 15.9774 32.3266C16.2989 32.3245 16.4607 32.4254 16.3682 32.77C16.3514 32.8288 16.3409 32.8939 16.3451 32.9549C16.3787 33.3625 16.1665 33.4571 15.7967 33.4508C14.8344 33.4319 13.8741 33.4445 12.9139 33.4445Z" fill="#D2D2D2"/>
</svg>
