<svg width="65" height="65" viewBox="0 0 65 65" fill="none" xmlns="http://www.w3.org/2000/svg">
<path d="M32.1943 34.6989C31.5996 33.3415 30.7235 32.1817 29.8935 30.9924C29.0551 29.7884 28.2567 28.555 27.786 27.1578C26.7921 24.214 27.9058 21.8061 29.7968 19.6292C31.2593 17.9462 33.1188 16.7044 34.743 15.1978C37.422 12.7121 39.8258 10.031 40.5612 6.27413C40.9058 4.51964 40.6557 2.8345 39.8426 1.2376C39.6409 0.84258 39.5484 0.756432 39.0168 0.399231C40.2775 5.57023 37.7792 9.14644 34.1568 12.2646C31.9863 14.1346 29.6224 15.7673 27.5234 17.7256C26.4707 18.7089 25.502 19.77 24.7981 21.0307C23.8505 22.7285 23.9787 24.4724 24.7477 26.1975C25.9874 28.9711 28.1222 31.0386 30.2381 33.1146C30.8306 33.6987 31.3643 34.3669 32.1943 34.6989Z" fill="#D2D2D2"/>
<path d="M18.8392 54.8009C16.4964 54.3491 14.5129 54.9585 12.5461 55.6414C11.4367 56.0259 10.3588 56.5007 9.47002 57.2971C8.45935 58.2027 8.60013 58.9528 9.83983 59.5012C11.0816 60.0496 12.4222 60.1631 13.7396 60.3522C22.9764 61.678 32.2405 61.9638 41.5088 60.7703C44.9211 60.3312 48.3313 59.7702 51.502 58.2909C52.0357 58.043 52.5526 57.7678 52.9792 57.358C53.7083 56.6562 53.6515 56.1919 52.7186 55.5552C52.7291 57.2824 51.336 57.5009 50.1846 57.8413C46.7933 58.8415 43.2801 59.1461 39.7753 59.4067C34.7997 59.7744 29.8136 59.911 24.8275 59.6399C21.2198 59.4424 17.6058 59.2533 14.143 58.0703C13.664 57.9064 12.9811 57.8434 12.937 57.2425C12.8907 56.6352 13.5694 56.4965 14.0149 56.2612C15.4584 55.4943 17.0658 55.2484 18.8392 54.8009Z" fill="#D2D2D2"/>
<path d="M46.3962 13.6093C42.1539 14.8007 38.0692 16.3115 34.972 19.5851C31.9947 22.7306 32.0073 26.3698 34.8544 29.9859C35.5814 30.9084 36.3315 31.8161 36.5395 33.02C36.7812 34.4194 36.5059 35.5352 35.6192 36.8316C35.7117 36.8526 35.8062 36.9093 35.8755 36.8862C38.0209 36.1508 40.0779 33.0432 39.9203 30.8264C39.8552 29.9061 39.4181 29.1539 38.9391 28.4164C38.3192 27.4624 37.6195 26.5526 37.0606 25.5651C35.9344 23.5752 36.1718 21.8943 37.7309 20.1041C39.6829 17.8621 42.1623 16.2989 44.6333 14.7272C45.2195 14.3511 45.8078 13.9813 46.3962 13.6093Z" fill="#D2D2D2"/>
<path d="M45.7238 37.9998C43.3999 38.397 41.0697 38.6806 38.7374 38.9307C32.7973 39.5715 26.8489 39.8111 20.8878 39.2521C20.3436 39.2017 19.8078 39.0357 19.2699 38.916C18.9674 38.8487 18.6837 38.6953 18.6333 38.3801C18.5786 38.0398 18.8896 37.878 19.1354 37.7267C20.5621 36.8442 22.1864 36.4744 23.7517 35.9554C24.0858 35.844 24.4262 35.76 24.8212 35.6465C22.5667 35.4994 18.7803 36.2916 16.509 37.3632C16.0404 37.5838 15.5382 37.7477 15.0949 38.0103C14.6662 38.2646 14.0254 38.4369 14.0716 39.063C14.1157 39.6619 14.723 39.8342 15.202 40.0086C16.4648 40.4645 17.7865 40.6809 19.1144 40.8133C26.4497 41.5466 33.7513 41.2903 41.0213 40.0359C42.7758 39.7333 44.3244 39.0756 45.7238 37.9998Z" fill="#D2D2D2"/>
<path d="M42.7338 52.9708C41.5067 52.4181 40.475 52.0147 39.5505 51.4012C39.2101 51.1763 38.8802 51.2856 38.5272 51.357C33.9446 52.2816 29.3451 52.3887 24.7351 51.6008C23.6131 51.4096 23.508 51.273 23.3357 50.2203C22.8482 50.3002 22.4196 50.5187 22.0078 50.7771C20.7449 51.5672 20.7113 52.5379 21.9846 53.3385C23.6446 54.3806 25.5272 54.7778 27.4414 55.0215C32.6355 55.6792 37.6594 55.0278 42.7338 52.9708Z" fill="#D2D2D2"/>
<path d="M43.8054 46.1777C42.862 45.6692 42.0677 45.3057 41.429 44.7068C41.1579 44.4526 40.8806 44.6144 40.6011 44.669C35.0666 45.7721 29.4985 46.0516 23.8925 45.3372C23.7643 45.3204 23.632 45.3267 23.5038 45.3078C21.7703 45.0661 21.4825 44.6144 22.1086 43.0133C21.266 43.3474 20.4781 43.6541 19.7994 44.1899C18.8455 44.9422 18.8791 45.7007 19.9276 46.3415C21.7052 47.4258 23.7223 47.6695 25.7226 47.8691C31.7804 48.4742 37.7351 47.846 43.8054 46.1777Z" fill="#D2D2D2"/>
<path d="M18.1647 62.9325C19.7175 63.649 21.3711 63.9284 23.0352 64.0839C31.3664 64.8613 39.6808 64.8697 47.9447 63.3548C50.1867 62.943 52.3782 62.3378 54.3575 61.1443C55.4102 60.5098 55.883 59.9152 56.1225 58.936C51.6848 61.781 46.6147 62.3126 41.5866 62.943C34.806 63.7918 28.0108 63.775 21.2114 63.1384C20.6945 63.09 20.1797 62.9787 19.6607 62.9724C19.167 62.964 18.6858 62.6803 18.1647 62.9325Z" fill="#D2D2D2"/>
<path d="M47.6653 36.0289C48.6381 35.8188 49.5311 35.6213 50.4998 35.8797C53.0611 36.5605 54.2357 38.9517 53.101 41.3596C52.1009 43.4797 50.3002 44.8266 48.4028 46.0537C47.6779 46.5222 46.9194 46.9404 46.2092 47.4551C47.5077 47.2976 48.7033 46.829 49.882 46.3247C51.7773 45.5137 53.5528 44.503 54.8744 42.8599C56.0973 41.3407 56.6499 39.6703 55.7632 37.7897C54.8618 35.8734 53.1956 35.096 51.1953 34.9762C49.9009 34.8985 48.636 35.0876 47.6653 36.0289Z" fill="#D2D2D2"/>
</svg>
