<svg width="65" height="65" viewBox="0 0 65 65" fill="none" xmlns="http://www.w3.org/2000/svg">
<path d="M32.333 63.6069C28.4878 63.6069 24.6426 63.5544 20.7996 63.6279C18.8539 63.6658 17.4272 62.9198 16.24 61.4343C11.5439 55.5531 6.86246 49.6614 2.07387 43.8558C0.577827 42.0425 0.149187 40.2481 0.701797 37.9641C2.51091 30.4986 4.19606 23.0016 5.91062 15.513C6.24891 14.0401 7.05576 13.0021 8.41943 12.3507C15.7252 8.86069 23.0226 5.36012 30.32 1.85745C31.9022 1.09893 33.4235 1.28173 34.9615 2.02135C41.8345 5.3265 48.7012 8.64847 55.6098 11.8822C57.6102 12.8172 58.7406 14.1578 59.2218 16.3619C60.8439 23.8169 62.5963 31.2425 64.3633 38.6659C64.7752 40.3952 64.418 41.8345 63.3401 43.1709C58.4212 49.2706 53.4855 55.3556 48.6003 61.4805C47.3963 62.9892 45.9486 63.6616 44.0239 63.6279C40.1262 63.5628 36.2306 63.6069 32.333 63.6069ZM31.4315 14.0485C31.5177 15.5067 31.0218 16.3451 29.4144 16.5615C26.1408 17.0028 23.258 18.4021 20.8752 20.7008C19.8036 21.7346 18.8518 21.5308 17.8937 20.6861C17.1561 20.0348 16.5405 19.2468 15.8009 18.5997C15.1012 17.9861 14.2313 17.8222 13.5883 18.6102C12.9076 19.4443 13.4055 20.1966 14.1409 20.7218C14.9814 21.3228 15.9185 21.7934 16.7527 22.4028C17.6814 23.0815 18.0176 23.8946 17.3473 25.0461C15.6307 27.9982 14.8974 31.2277 15.1936 34.617C15.3281 36.155 14.5612 36.6635 13.3467 36.8925C12.4306 37.0648 11.483 37.0585 10.5647 37.2161C9.63811 37.3779 8.74091 37.8086 8.97204 38.9181C9.20107 40.017 10.1613 40.1157 11.0963 39.8405C12.0419 39.5631 12.9475 39.1492 13.8951 38.8886C14.9919 38.5882 15.8723 38.7857 16.3703 40.0149C17.6457 43.1709 19.6544 45.8036 22.491 47.6926C23.7034 48.4994 23.6824 49.403 23.176 50.4493C22.7495 51.3297 22.1086 52.1009 21.6359 52.9624C21.1862 53.7818 20.9257 54.7484 21.9804 55.2505C23.0836 55.7758 23.7244 55.0236 24.0942 54.0487C24.4241 53.1767 24.6468 52.2564 25.0398 51.418C25.563 50.3044 26.2332 49.7076 27.7146 50.2119C30.3557 51.1112 33.1125 51.0419 35.8797 50.6258C36.9156 50.4704 37.8906 49.403 39.0735 50.3527C40.0989 51.1763 40.1935 52.4097 40.6557 53.4855C40.7377 53.6747 40.7902 53.8785 40.8553 54.0739C41.2125 55.1224 41.8996 55.7275 42.9775 55.1707C44.0428 54.6202 43.7129 53.6999 43.2339 52.8888C42.759 52.0862 42.1434 51.3549 41.7462 50.5187C41.3575 49.7013 40.9667 48.7768 42.0173 48.0582C45.0115 46.0138 47.2345 43.3495 48.5667 39.9539C49.0247 38.7878 49.9366 38.4894 51.0902 38.8718C51.9265 39.1492 52.7564 39.4518 53.5885 39.7459C54.576 40.0947 55.6161 40.1031 55.8893 38.9496C56.1898 37.6826 55.1497 37.2833 54.0907 37.1405C53.267 37.0312 52.4286 37.0123 51.6134 36.8652C50.3779 36.6425 49.5963 36.1046 49.7097 34.5917C49.9682 31.1416 49.2412 27.8659 47.4173 24.9011C46.7597 23.8337 47.2198 23.1109 47.9804 22.5142C48.7915 21.8775 49.7538 21.4384 50.5859 20.8248C51.3276 20.2785 51.9811 19.5221 51.2625 18.5955C50.5544 17.6814 49.6782 18.0407 48.9617 18.6921C48.2326 19.3519 47.6022 20.123 46.8584 20.7618C45.9885 21.5077 45.0535 21.6989 44.1038 20.8038C41.6139 18.461 38.6701 16.9986 35.2893 16.5174C33.8248 16.3094 33.3814 15.4584 33.4655 14.1704C33.5306 13.1891 33.7239 12.2163 33.8059 11.235C33.8857 10.2685 33.4655 9.53517 32.4464 9.53517C31.4 9.53517 31.0491 10.3378 31.1059 11.2665C31.1605 12.1995 31.3181 13.1219 31.4315 14.0485Z" fill="#D2D2D2"/>
<path d="M18.6017 33.3415C18.6122 31.2341 19.1943 29.2674 20.0558 27.3637C20.3646 26.6829 20.6441 26.3152 21.3732 27.0086C22.7179 28.2903 24.1573 29.4754 25.5062 30.7508C26.6514 31.8329 26.5085 32.644 25.0671 33.123C23.2054 33.7408 21.3144 34.2703 19.4254 34.7956C18.6774 35.0057 18.5765 34.8019 18.6017 33.3415Z" fill="#D2D2D2"/>
<path d="M30.6457 21.7598C30.547 23.3105 30.4671 24.8612 30.341 26.4097C30.2171 27.9478 29.4375 28.3659 28.202 27.5297C26.6157 26.4581 25.086 25.3066 23.4996 24.2371C22.7642 23.7412 22.9827 23.384 23.5227 22.9491C25.0776 21.701 26.809 20.7933 28.7168 20.2281C30.7613 19.6229 30.7655 19.6334 30.6457 21.7598Z" fill="#D2D2D2"/>
<path d="M46.2701 32.2636C46.3352 35.0036 46.3373 34.9952 44.5303 34.4657C42.9397 33.9992 41.3197 33.6252 39.7585 33.0789C38.3549 32.5893 38.2226 31.835 39.2879 30.8201C40.599 29.5699 41.9879 28.4017 43.2948 27.1473C44.0218 26.4476 44.461 26.5001 44.8623 27.4393C45.6376 29.2631 46.2238 31.129 46.2701 32.2636Z" fill="#D2D2D2"/>
<path d="M38.4705 37.1426C40.6074 37.4956 42.6981 37.8444 44.7908 38.1848C45.2699 38.2625 45.4023 38.5104 45.2195 38.9454C44.2025 41.3365 42.5951 43.2591 40.5507 44.8329C40.0779 45.1964 39.8426 44.9506 39.6472 44.4715C38.8844 42.6056 38.0503 40.7692 37.3232 38.8887C36.9009 37.7939 37.3968 37.151 38.4705 37.1426Z" fill="#D2D2D2"/>
<path d="M32.4948 47.4993C31.3097 47.3018 30.1414 47.0895 28.969 46.9172C28.2336 46.808 28.1411 46.4907 28.492 45.8751C29.488 44.1248 30.4314 42.343 31.4463 40.6032C31.9527 39.7354 32.7658 39.6093 33.3058 40.4561C34.4678 42.2841 35.4847 44.2025 36.5458 46.0936C36.8568 46.6504 36.487 46.8227 36.0184 46.9025C34.8481 47.1021 33.6798 47.2997 32.4948 47.4993Z" fill="#D2D2D2"/>
<path d="M35.1149 19.9991C37.4661 20.5306 39.5988 21.514 41.45 23.092C41.9143 23.487 41.9711 23.7539 41.4121 24.1405C39.7564 25.2877 38.1511 26.5127 36.487 27.6473C35.5435 28.2903 34.619 27.8386 34.5119 26.6451C34.3354 24.6889 34.2933 22.7222 34.1673 20.7597C34.1211 20.0138 34.4614 19.8436 35.1149 19.9991Z" fill="#D2D2D2"/>
<path d="M27.6536 38.5041C27.5696 38.7521 27.4519 39.1471 27.2985 39.5295C26.7963 40.7797 26.271 42.0194 25.7731 43.2696C24.9473 45.3414 24.941 45.3582 23.2327 43.8432C21.8628 42.6267 20.808 41.1684 19.9885 39.5232C19.5683 38.6827 19.5557 38.2394 20.6777 38.0986C22.4742 37.8717 24.2476 37.4704 26.0399 37.1993C27.0905 37.0396 27.6263 37.4683 27.6536 38.5041Z" fill="#D2D2D2"/>
<path d="M32.3729 31.3244C33.5411 31.3097 34.8018 32.3981 34.7724 33.3941C34.7346 34.6022 33.6105 35.844 32.501 35.9029C31.3874 35.9617 30.0847 34.5938 30.0952 33.3751C30.1015 32.4779 31.3706 31.337 32.3729 31.3244Z" fill="#D2D2D2"/>
</svg>
