<svg width="66" height="66" viewBox="0 0 66 66" fill="none" xmlns="http://www.w3.org/2000/svg">
<path d="M14.593 0.687144C14.5444 0.775152 14.6328 0.773005 14.6747 0.796617C18.8289 3.12131 22.9808 5.44815 27.1394 7.76426C27.6253 8.03473 27.8417 8.40393 27.8417 8.947C27.8351 17.4709 27.8373 25.9969 27.8373 34.5208C27.8373 34.6324 27.8373 34.7419 27.8373 34.8964C28.3033 34.6367 28.7273 34.4006 29.1491 34.1645C32.1151 32.5052 35.0811 30.8438 38.0493 29.1888C38.2436 29.0815 38.3231 28.9677 38.3209 28.7402C38.3121 24.4471 38.3187 20.154 38.3077 15.861C38.3055 15.3115 38.5263 14.9509 39.01 14.6804C43.0979 12.4029 47.1814 10.119 51.2604 7.82651C51.7397 7.5582 52.1637 7.56893 52.6385 7.8351C56.7088 10.1233 60.7856 12.4029 64.8647 14.6761C65.3616 14.953 65.578 15.3286 65.578 15.8803C65.5692 20.3945 65.5692 24.9086 65.578 29.4228C65.578 29.9659 65.366 30.3329 64.8757 30.6055C60.991 32.7671 57.1173 34.9437 53.2348 37.1074C53.0427 37.2147 52.983 37.3328 52.983 37.5431C52.9897 41.8362 52.983 46.1292 52.9941 50.4223C52.9963 50.9697 52.7843 51.3346 52.2962 51.605C44.0321 56.2222 35.7701 60.8437 27.5148 65.4716C27.0003 65.7614 26.5542 65.7528 26.0396 65.4652C17.8218 60.8566 9.59965 56.2587 1.37747 51.6587C1.08154 51.4934 0.801059 51.3239 0.644257 51.0126C0.642049 51.0062 0.628798 51.0062 0.622173 51.0019C0.578003 50.9847 0.586837 51.0233 0.578003 51.0427C0.578003 36.8197 0.578003 22.5947 0.578003 8.37173C0.589045 8.38246 0.600088 8.3932 0.613339 8.40178C0.615547 8.40393 0.631006 8.39534 0.635423 8.3889C0.798851 8.01111 1.14779 7.8351 1.48569 7.64406C3.8068 6.34755 6.12571 5.05105 8.44682 3.75239C10.1761 2.78431 11.9075 1.81622 13.6345 0.843841C13.692 0.811643 13.8355 0.824522 13.7781 0.684998C14.0475 0.687144 14.3214 0.687144 14.593 0.687144ZM25.7304 62.9302C25.7304 62.7777 25.7304 62.6812 25.7304 62.5846C25.7304 58.9011 25.7282 55.2177 25.737 51.5321C25.737 51.2852 25.6553 51.1607 25.4389 51.0427C21.6182 48.9498 17.8086 46.8397 13.9835 44.7576C13.385 44.4313 13.1509 44.0171 13.1509 43.3559C13.1663 34.4607 13.1597 25.5633 13.1641 16.6681C13.1641 16.462 13.1111 16.3375 12.9146 16.228C9.59744 14.382 6.28693 12.5274 2.9742 10.675C2.67385 10.5075 2.67164 10.5075 2.67164 10.8402C2.67164 23.8096 2.67164 36.7789 2.66723 49.7462C2.66723 49.963 2.74231 50.0724 2.93003 50.1776C9.9508 54.1015 16.9693 58.0275 23.9857 61.9556C24.5511 62.2733 25.1164 62.5867 25.7304 62.9302ZM27.8373 62.9216C27.9565 62.8593 28.0449 62.8185 28.1288 62.7713C35.6332 58.5727 43.1376 54.3741 50.6465 50.1798C50.8364 50.0746 50.9071 49.963 50.9049 49.7483C50.8982 46.082 50.9004 42.4179 50.8982 38.7516C50.8982 38.6593 50.9247 38.5606 50.8607 38.4511C50.7812 38.4919 50.7017 38.5284 50.6266 38.5713C43.1222 42.7334 35.6178 46.8977 28.1089 51.0534C27.8925 51.1736 27.8329 51.3002 27.8329 51.5299C27.8395 55.222 27.8373 58.914 27.8373 62.606C27.8373 62.6983 27.8373 62.7928 27.8373 62.9216ZM49.8293 36.663C49.7277 36.6029 49.6593 36.56 49.5886 36.5192C46.2847 34.6689 42.9786 32.8229 39.6814 30.9661C39.4451 30.8331 39.2816 30.8395 39.0497 30.9704C31.9892 34.9308 24.9243 38.8804 17.8594 42.8343C17.358 43.1155 16.8567 43.3989 16.3355 43.6908C16.4194 43.7423 16.4769 43.7809 16.5387 43.8153C19.889 45.657 23.2392 47.4987 26.5851 49.3469C26.7617 49.4435 26.8766 49.4049 27.0268 49.3211C33.6942 45.6184 40.3638 41.9177 47.0334 38.2171C47.9499 37.7063 48.8731 37.1954 49.8293 36.663ZM25.7017 10.5612C25.6067 10.5548 25.5471 10.617 25.4808 10.6556C22.1372 12.5253 18.7958 14.397 15.4499 16.2624C15.2909 16.3525 15.2489 16.4513 15.2489 16.6187C15.2534 24.973 15.2511 33.3295 15.2534 41.6838C15.2534 41.7568 15.218 41.8405 15.2975 41.9092C15.3461 41.8855 15.3947 41.8619 15.4411 41.8362C18.8068 39.9537 22.1725 38.0669 25.5449 36.1908C25.7282 36.0899 25.7348 35.9654 25.7348 35.8023C25.7326 27.4823 25.7326 19.1624 25.7326 10.8424C25.7304 10.7479 25.7569 10.6513 25.7017 10.5612ZM41.4791 15.6592C41.563 15.7107 41.6204 15.7515 41.6845 15.7859C45.0436 17.6662 48.4049 19.5423 51.7595 21.4291C51.9296 21.5257 52.0378 21.4785 52.1747 21.4012C55.4698 19.553 58.7671 17.7091 62.0621 15.8631C62.1703 15.803 62.294 15.7622 62.3845 15.6528C62.3117 15.6077 62.2432 15.5648 62.1747 15.5261C58.8311 13.6543 55.4875 11.7847 52.146 9.90865C51.9848 9.8185 51.8766 9.83781 51.7308 9.91938C49.1447 11.3704 46.5542 12.8172 43.9658 14.2661C43.1421 14.7255 42.3183 15.187 41.4791 15.6592ZM24.6725 8.74952C24.5754 8.68942 24.5246 8.65722 24.4716 8.62717C21.1147 6.74681 17.7556 4.87074 14.4009 2.98393C14.2198 2.88305 14.1049 2.93886 13.957 3.02043C10.7657 4.80849 7.57226 6.59226 4.3788 8.37817C4.17783 8.48979 3.97906 8.60785 3.77809 8.72162C3.82447 8.82465 3.9106 8.84612 3.97685 8.88261C7.30945 10.7501 10.6465 12.6133 13.9769 14.4851C14.1535 14.5838 14.275 14.5731 14.4428 14.4786C17.0511 13.0125 19.6615 11.5529 22.2741 10.0911C23.0603 9.65107 23.8466 9.21317 24.6725 8.74952ZM50.8828 34.89C50.8916 34.802 50.8982 34.7591 50.8982 34.7183C50.8982 30.9726 50.8982 27.2269 50.9027 23.4812C50.9027 23.3352 50.8452 23.2601 50.7216 23.1914C47.3514 21.3089 43.9857 19.4242 40.6156 17.5417C40.5581 17.5095 40.5051 17.443 40.408 17.4966C40.408 17.5782 40.408 17.6662 40.408 17.7542C40.408 21.4205 40.4102 25.0868 40.4013 28.7531C40.4013 28.972 40.4808 29.0772 40.6663 29.1802C42.9676 30.4596 45.2644 31.7475 47.5612 33.0332C48.6566 33.645 49.7498 34.2568 50.8828 34.89ZM52.9897 34.8943C53.0846 34.8449 53.1398 34.817 53.1928 34.787C56.5519 32.9088 59.9088 31.0284 63.2701 29.1566C63.4292 29.0686 63.4733 28.9699 63.4733 28.8003C63.4689 25.1083 63.4689 21.4184 63.4689 17.7263C63.4689 17.6448 63.4998 17.5525 63.4269 17.4623C63.3695 17.4902 63.3143 17.516 63.2613 17.546C59.9022 19.4242 56.5453 21.3046 53.184 23.1785C53.0228 23.2687 52.9875 23.3696 52.9875 23.5348C52.9919 27.0144 52.9897 30.4939 52.9897 33.9713C52.9897 34.2632 52.9897 34.5551 52.9897 34.8943Z" fill="#D2D2D2"/>
</svg>
