<svg width="65" height="40" viewBox="0 0 65 40" fill="none" xmlns="http://www.w3.org/2000/svg">
<path d="M47.9899 11.7162C47.9899 8.88124 47.9747 6.04628 48.0008 3.21131C48.0073 2.57551 47.8048 2.17269 47.23 1.87656C46.2197 1.36052 45.2377 0.785688 44.2448 0.232629C43.5001 -0.181076 43.3259 -0.0743837 43.3238 0.807462C43.3238 3.70558 43.3238 6.60151 43.3238 9.49963C43.3238 10.2508 43.2454 10.29 42.6052 9.93946C40.7348 8.91173 41.3576 8.83552 39.411 9.93946C37.865 10.8148 36.3387 11.7271 34.7862 12.5872C34.231 12.8942 33.9958 13.2818 34.0045 13.9219C34.0328 16.0536 34.0263 18.1853 34.0089 20.3169C34.0045 20.8526 34.1896 21.2031 34.6621 21.4688C36.5695 22.5444 38.4682 23.6331 40.3581 24.7414C40.8023 25.0027 41.1812 25.0201 41.6254 24.7588C43.5698 23.6222 45.5208 22.4965 47.4782 21.386C47.9377 21.1247 47.9943 20.735 47.9921 20.2843C47.9877 17.4275 47.9899 14.5708 47.9899 11.7162ZM43.3151 16.8614C43.3151 18.4226 43.2715 18.3573 42.1305 19.1172C41.2857 19.6811 40.6586 19.5766 39.8029 19.1107C38.8906 18.612 38.6141 18.0437 38.6162 17.0356C38.6184 16.071 38.8884 15.5441 39.7354 15.0498C40.6216 14.5316 41.2727 14.4358 42.1741 15.0193C42.9688 15.5288 43.6242 15.9534 43.3151 16.8614Z" fill="#D2D2D2"/>
<path d="M51.0753 16.9594C51.0753 18.0568 51.0884 19.1542 51.0688 20.2494C51.0601 20.7567 51.2386 21.0921 51.6981 21.349C53.612 22.4137 55.515 23.5003 57.4094 24.5977C57.8078 24.8285 58.1453 24.8698 58.5612 24.6303C59.6695 23.988 60.7996 23.387 61.9166 22.7578C62.45 22.4573 62.4522 22.1938 61.9144 21.8825C60.0375 20.7959 58.1584 19.7116 56.2662 18.6534C55.8373 18.4139 55.7132 18.1221 55.637 17.6387C55.3887 16.1015 55.9549 15.1521 57.4072 14.5991C57.8644 14.4249 58.2041 14.3356 58.596 14.6274C58.6461 14.6644 58.6984 14.7036 58.755 14.7232C60.0222 15.1543 60.5666 15.9839 60.351 17.3513C60.253 17.9631 60.5601 18.109 61.0892 17.8064C62.2018 17.1706 63.3057 16.5195 64.4228 15.8946C64.8277 15.666 65.0085 15.3612 64.9998 14.893C64.9519 12.5131 65.3155 13.1598 63.3362 11.984C61.7903 11.0652 60.2182 10.1942 58.6722 9.27752C58.2455 9.02494 57.8906 9.01841 57.4638 9.26881C55.5194 10.4054 53.5684 11.5289 51.6088 12.6416C51.1864 12.8811 51.071 13.2295 51.0731 13.6737C51.0797 14.7646 51.0753 15.862 51.0753 16.9594Z" fill="#D2D2D2"/>
<path d="M13.9528 18.0677C13.9528 16.5784 13.9398 15.0868 13.9594 13.5975C13.9659 13.0923 13.8113 12.7548 13.3497 12.4936C11.4031 11.4049 9.46958 10.2922 7.54476 9.1665C7.13323 8.92481 6.79574 8.93787 6.39945 9.16868C4.47028 10.2879 2.53893 11.4005 0.594512 12.4936C0.161211 12.7374 -0.00427125 13.051 8.35407e-05 13.5409C0.0196801 16.5413 0.0131479 19.5418 0.0196801 22.5444C0.0218575 23.3152 0.230888 23.4284 0.910235 23.0387C1.94885 22.4443 2.97876 21.8302 4.03044 21.2576C4.4681 21.0202 4.65318 20.7132 4.64665 20.2211C4.62705 18.8973 4.65536 17.5712 4.63358 16.2474C4.62487 15.7248 4.82955 15.3786 5.28245 15.1565C5.31946 15.1391 5.36083 15.1282 5.39567 15.1064C7.29 14.0003 6.73259 14.131 8.71184 15.1805C9.14297 15.4091 9.31281 15.7531 9.3041 16.2409C9.2845 17.5451 9.30845 18.8494 9.29103 20.1515C9.2845 20.6566 9.44998 21.0028 9.91594 21.2554C10.9676 21.8281 11.9932 22.4508 13.0383 23.0387C13.7373 23.4328 13.9398 23.3 13.9419 22.4747C13.9463 21.005 13.9441 19.5353 13.9441 18.0677C13.9463 18.0677 13.9485 18.0677 13.9528 18.0677Z" fill="#D2D2D2"/>
<path d="M29.3623 38.3109C30.1244 38.7595 30.832 39.1841 31.5484 39.5934C31.9861 39.8416 32.4194 39.7698 32.8418 39.5259C34.7035 38.4503 36.5608 37.3725 38.429 36.3077C38.9886 35.9898 39.2433 35.5478 39.2368 34.8946C39.2172 32.7847 39.2215 30.6726 39.2346 28.5605C39.239 27.9356 38.9864 27.5045 38.4486 27.1975C36.6021 26.1393 34.7601 25.0724 32.9223 24.0011C32.3649 23.6766 31.8402 23.7071 31.2871 24.0316C29.5038 25.0767 27.7162 26.1132 25.9177 27.13C25.2927 27.4827 25.0053 27.9596 25.0162 28.6847C25.0423 30.6922 25.0445 32.6998 25.0162 34.7073C25.0053 35.4934 25.2492 36.053 25.9852 36.4057C26.5796 36.6909 27.1065 37.1046 27.7401 37.318C29.1816 37.8036 30.255 37.0698 30.2659 35.563C30.2833 33.4727 30.255 31.3824 30.2833 29.2921C30.2899 28.8066 30.0721 28.7739 29.6933 28.7652C29.2839 28.7543 29.1642 28.8959 29.1685 29.303C29.1881 31.2888 29.1794 33.2768 29.175 35.2626C29.1729 36.3447 28.6198 36.6583 27.653 36.1379C26.0701 35.2843 26.0701 35.2843 26.0701 33.4706C26.0701 31.9181 26.081 30.3656 26.0635 28.8131C26.0592 28.4168 26.1855 28.186 26.5469 27.9835C28.2605 27.0255 29.9611 26.0413 31.6507 25.0441C31.9991 24.8394 32.2582 24.8328 32.611 25.0419C34.3181 26.0522 36.0338 27.0451 37.7627 28.0184C38.0828 28.1991 38.1916 28.4038 38.1895 28.7543C38.1786 30.7401 38.172 32.7281 38.1938 34.7139C38.1982 35.1385 38.0066 35.3431 37.6756 35.5326C36.0055 36.4819 34.3376 37.4356 32.685 38.4154C32.2757 38.6571 31.936 38.7116 31.5702 38.3871C31.494 38.3196 31.3786 38.2979 31.3045 38.2282C30.6709 37.649 30.0547 37.7949 29.3623 38.3109Z" fill="#D2D2D2"/>
<path d="M33.9369 34.0541C33.5102 34.028 33.1161 34.0585 32.735 33.9213C32.3823 33.795 32.1275 33.586 32.0012 33.2246C31.8619 32.8348 31.3611 32.6258 30.9974 32.7782C30.8037 32.8587 30.8559 33.0068 30.8624 33.1396C30.9016 33.8712 31.2674 34.4287 31.925 34.6899C33.238 35.2125 34.5814 35.2844 35.8901 34.6595C36.6064 34.3176 36.9221 33.6731 36.8503 32.8718C36.785 32.1598 36.4344 31.7918 35.6048 31.5262C34.7709 31.2584 33.8912 31.2497 33.0486 31.0537C32.6893 30.9688 32.2037 30.9884 32.2146 30.4222C32.2255 29.8822 32.6479 29.7603 33.0681 29.6928C33.5385 29.6166 34.0197 29.6253 34.4922 29.6928C34.9276 29.756 35.3196 29.9585 35.4306 30.3939C35.5896 31.0319 36.0555 30.8076 36.4257 30.8011C36.7218 30.7968 36.6195 30.5246 36.5912 30.3656C36.4562 29.6166 36.0316 29.0723 35.3043 28.8349C34.318 28.5148 33.3098 28.4822 32.3169 28.8197C31.4612 29.1114 30.9887 29.7821 31.0301 30.5855C31.0693 31.3563 31.5157 31.8659 32.4476 32.0771C33.1509 32.236 33.8738 32.3057 34.588 32.4189C34.7709 32.4472 34.9516 32.4908 35.1301 32.5409C35.4502 32.6301 35.7224 32.7891 35.6941 33.1701C35.668 33.5229 35.4938 33.782 35.128 33.9061C34.7251 34.0454 34.3136 34.0367 33.9369 34.0541Z" fill="#D2D2D2"/>
<path opacity="0.5" d="M24.1518 24.7719C24.1104 24.7131 24.0669 24.6521 24.0255 24.5933C23.1001 22.9363 22.1747 21.2771 21.2471 19.6201C20.7333 18.7035 20.2129 17.789 19.6947 16.8745C18.9282 17.802 18.4296 18.8973 17.809 19.9141C17.1536 20.9919 17.1667 21.0071 18.2598 21.6495C19.9342 22.6315 21.6108 23.6091 23.2939 24.5781C23.5486 24.724 23.8121 24.9482 24.1518 24.7719Z" fill="#D2D2D2"/>
<path opacity="0.5" d="M24.4305 9.79574C25.186 10.8061 25.7282 11.9448 26.364 13.0292C27.0869 14.2638 27.8621 15.4657 28.6154 16.6807C29.2273 15.5571 29.8239 14.4249 30.4575 13.3122C30.6208 13.0248 30.5882 12.855 30.3269 12.7047C28.3955 11.5921 26.462 10.4794 24.5285 9.37115C24.4588 9.33196 24.3717 9.32542 24.2911 9.30365C24.3369 9.46695 24.3848 9.63244 24.4305 9.79574Z" fill="#D2D2D2"/>
<path d="M56.7104 16.9833C56.7975 17.2337 56.5623 17.5777 56.8737 17.7715C57.2569 18.0089 57.6183 18.3964 58.0691 18.3812C58.5111 18.366 58.8986 18.0306 59.2536 17.7541C59.5344 17.5342 59.369 17.1728 59.3755 16.8788C59.382 16.6066 59.5192 16.2626 59.2253 16.071C58.8486 15.8271 58.4349 15.4744 58.0364 15.4787C57.6358 15.4809 57.2068 15.8184 56.8497 16.0862C56.5732 16.2931 56.7713 16.6719 56.7104 16.9833Z" fill="#D2D2D2"/>
<path d="M30.6208 20.1841C30.1723 19.4547 29.7324 18.7209 29.2882 17.9893C29.064 17.5516 28.8397 17.1162 28.6132 16.6785C27.8599 15.4613 27.0847 14.2594 26.3618 13.027C25.7282 11.9427 25.186 10.8061 24.4283 9.79358C24.3826 9.63028 24.3347 9.4648 24.2889 9.30149C24.0255 9.08593 23.7576 9.1273 23.4855 9.28407C21.6129 10.3684 19.7425 11.4593 17.8613 12.5284C17.5325 12.7157 17.5521 12.8833 17.7088 13.1642C18.2924 14.2093 18.8629 15.2632 19.4333 16.3149C19.5313 16.4934 19.6075 16.685 19.6924 16.8701C20.2107 17.7846 20.7311 18.6991 21.2449 19.6158C22.1725 21.2728 23.0979 22.9298 24.0233 24.589C24.0647 24.6478 24.1082 24.7087 24.1496 24.7675C25.615 23.9379 27.0782 23.1105 28.5414 22.2788C28.7482 22.1612 28.9464 22.024 29.1489 21.8956C29.5386 21.6778 29.9262 21.4557 30.3203 21.2445C30.7993 20.9963 30.9104 20.6523 30.6208 20.1841Z" fill="#D2D2D2"/>
<path d="M41.78 28.9655C42.4049 28.5823 42.5922 27.9835 42.2612 27.4174C41.952 26.8883 41.301 26.6967 40.7632 26.9754C40.1905 27.2737 40.0185 27.8289 40.3059 28.4647C40.491 28.3972 40.369 28.271 40.3582 28.1751C40.2994 27.6547 40.5149 27.2737 40.9983 27.1148C41.3968 26.9841 41.7822 27.0952 42.026 27.474C42.3113 27.9182 42.2438 28.3276 41.8562 28.6847C41.7952 28.7413 41.7364 28.7979 41.6777 28.8545C41.7103 28.8915 41.7452 28.9285 41.78 28.9655Z" fill="#D2D2D2"/>
<path d="M41.6732 28.5975C41.7364 28.2688 41.6384 27.9291 41.6841 27.5894C41.7189 27.3194 41.3706 27.3499 41.1528 27.3303C40.9656 27.3129 40.8219 27.3651 40.8349 27.5894C40.8523 27.9247 40.7783 28.2666 40.8828 28.591C41.2486 28.6259 40.959 28.1338 41.2965 28.1773C41.5535 28.21 41.3357 28.6063 41.6732 28.5975Z" fill="#D2D2D2"/>
<path d="M40.5758 28.824C40.9373 29.2029 41.3488 29.1702 41.7799 28.9655C41.7451 28.9285 41.7102 28.8915 41.6754 28.8545C41.3118 28.996 40.9743 28.9198 40.6564 28.7217C40.6281 28.7543 40.6019 28.7892 40.5758 28.824Z" fill="#D2D2D2"/>
<path d="M40.6543 28.7195C40.6107 28.6738 40.565 28.6281 40.5214 28.5823C40.4975 28.6215 40.4735 28.6607 40.4496 28.6977C40.491 28.7391 40.5323 28.7805 40.5737 28.8219C40.602 28.7892 40.6281 28.7544 40.6543 28.7195Z" fill="#D2D2D2"/>
<path d="M40.5214 28.5823C40.4713 28.5606 40.3864 28.5105 40.3798 28.5192C40.3123 28.6085 40.3668 28.6607 40.4517 28.6977C40.4756 28.6607 40.4996 28.6215 40.5214 28.5823Z" fill="#D2D2D2"/>
</svg>
