<svg width="65" height="37" viewBox="0 0 65 37" fill="none" xmlns="http://www.w3.org/2000/svg">
<path d="M32.7019 36.1628C39.7992 36.0758 46.8774 34.9534 53.5355 31.8429C56.9176 30.2622 59.9963 28.238 62.3175 25.2463C66.0242 20.4703 65.8778 15.03 61.9504 10.4301C59.1709 7.17526 55.6021 5.06835 51.6938 3.49188C45.0251 0.803601 38.053 -0.166046 30.9026 0.0227912C25.002 0.17768 19.2499 1.16006 13.7312 3.32214C10.434 4.61429 7.35951 6.28837 4.72852 8.69233C2.59403 10.6444 0.936928 12.9125 0.272815 15.7896C-0.467682 19.0041 0.342833 21.9003 2.17604 24.5568C4.08987 27.3299 6.70601 29.2989 9.6192 30.903C13.8288 33.2199 18.3672 34.5651 23.0818 35.3735C26.205 35.9061 29.3516 36.131 32.7019 36.1628ZM33.0987 32.1251C30.7499 32.1187 28.9952 32.0296 27.2405 31.8663C22.7975 31.4525 18.4627 30.5656 14.3232 28.8703C11.3166 27.6397 8.51163 26.0738 6.34107 23.5829C4.58212 21.5672 3.63794 19.2757 4.2193 16.5577C4.65002 14.5442 5.81487 12.955 7.28737 11.5737C9.6298 9.37554 12.4305 7.95395 15.4095 6.85276C20.1898 5.08533 25.1548 4.27481 30.23 4.08173C36.869 3.82712 43.3765 4.57186 49.6442 6.87397C52.9945 8.10248 56.1156 9.73836 58.5556 12.4351C61.7425 15.9594 61.7531 20.1435 58.5917 23.6762C56.5654 25.9402 54.0172 27.4466 51.2589 28.6263C45.2712 31.1831 38.9632 32.0445 33.0987 32.1251Z" fill="#D2D2D2"/>
<path d="M46.7925 11.0624C45.7104 11.0624 44.6241 11.1006 43.5441 11.0475C42.9818 11.0199 42.7675 11.1939 42.6657 11.7392C42.1013 14.767 41.503 17.7862 40.9131 20.8098C40.5524 22.6621 40.1981 24.5165 39.8225 26.3667C39.727 26.8313 39.7589 27.0541 40.3381 27.0096C41.0998 26.9502 41.8743 26.9544 42.636 27.0096C43.124 27.0456 43.2428 26.8228 43.3128 26.4261C43.4953 25.4098 43.7138 24.3977 43.8836 23.3792C43.9578 22.9315 44.1106 22.7575 44.6135 22.7639C46.2557 22.7851 47.9107 22.8955 49.5338 22.5263C52.1542 21.9301 53.7307 20.2093 54.5497 17.7438C54.8828 16.7402 55.042 15.7069 54.8234 14.6248C54.3057 12.0723 51.9272 11.0751 49.9731 11.0539C48.9122 11.0433 47.8534 11.0518 46.7925 11.0518C46.7925 11.0539 46.7925 11.0581 46.7925 11.0624ZM47.4566 13.6C47.9128 13.6 48.3457 13.5597 48.7679 13.6064C50.8005 13.8334 51.2334 14.5187 51.2567 16.1079C51.2631 16.545 51.1337 16.9991 51 17.4234C50.6181 18.6307 49.9603 19.5664 48.6597 19.9908C47.4588 20.3833 46.2472 20.1711 45.0442 20.2602C44.5244 20.2984 44.518 20.099 44.6114 19.6746C44.9296 18.2042 45.2097 16.7232 45.5004 15.2465C45.6043 14.7203 45.5343 14.0159 45.8505 13.7125C46.2112 13.373 46.9262 13.6573 47.4566 13.6Z" fill="#D2D2D2"/>
<path d="M19.7337 11.0623C18.5837 11.0623 17.4337 11.0772 16.2858 11.0538C15.9039 11.0454 15.7384 11.1451 15.662 11.544C14.7029 16.528 13.7312 21.5099 12.7467 26.4897C12.6576 26.9416 12.8018 27.018 13.2113 27.0032C14.0219 26.9756 14.8345 26.9671 15.645 27.0074C16.0672 27.0286 16.1818 26.8462 16.2455 26.4876C16.4364 25.4267 16.6677 24.3722 16.8502 23.3092C16.9181 22.9103 17.0687 22.766 17.4973 22.7681C18.8701 22.7745 20.2429 22.8042 21.6178 22.679C25.821 22.2971 28.1146 18.1915 27.7794 15.0597C27.5248 12.6685 25.5452 11.056 22.9121 11.0517C21.8533 11.0496 20.7924 11.0517 19.7337 11.0517C19.7337 11.0538 19.7337 11.0581 19.7337 11.0623ZM20.3426 13.6106C20.9515 13.6106 21.448 13.5787 21.9403 13.6169C23.4192 13.7336 24.2339 14.5484 24.1894 15.9254C24.1618 16.7805 23.9602 17.6207 23.5316 18.3761C23.0967 19.142 22.4622 19.6619 21.6093 19.9631C20.419 20.3811 19.2011 20.1838 17.9959 20.2517C17.5461 20.2772 17.4167 20.1796 17.5249 19.6958C17.8474 18.2509 18.1126 16.7911 18.3991 15.3377C18.5073 14.7882 18.4351 14.0625 18.764 13.7315C19.1353 13.356 19.8779 13.6679 20.3426 13.6106Z" fill="#D2D2D2"/>
<path d="M35.1611 11.0623C34.48 11.0623 33.9156 11.0347 33.3533 11.0708C32.9183 11.0984 32.8101 10.9732 32.9014 10.5467C33.1326 9.471 33.313 8.38465 33.5421 7.30679C33.6207 6.93549 33.5294 6.84001 33.1581 6.85061C32.3243 6.87395 31.4883 6.87608 30.6565 6.84849C30.2895 6.83576 30.141 6.96731 30.0752 7.3174C29.4917 10.3855 28.8976 13.4514 28.3035 16.5174C27.9322 18.4376 27.5736 20.3578 27.1747 22.2716C27.092 22.6726 27.1429 22.7808 27.5566 22.7681C28.3672 22.7426 29.1798 22.7384 29.9903 22.7702C30.4147 22.7872 30.5717 22.6472 30.6502 22.2249C31.1488 19.5536 31.6941 16.8887 32.1863 14.2174C32.2754 13.7294 32.4622 13.5978 32.9332 13.6212C33.697 13.6594 34.4651 13.6297 35.2332 13.6233C36.6993 13.6106 37.2531 14.2747 36.9688 15.6941C36.5296 17.8986 36.1095 20.1053 35.6575 22.3077C35.579 22.6938 35.6872 22.7766 36.0458 22.7681C36.903 22.7511 37.7602 22.7533 38.6153 22.7681C38.942 22.7745 39.0884 22.6705 39.1542 22.3289C39.6295 19.8358 40.2278 17.3618 40.5907 14.8539C40.9153 12.5942 39.8586 11.7095 37.669 11.1917C36.8054 10.9838 35.9206 11.0772 35.1611 11.0623Z" fill="#D2D2D2"/>
</svg>
