<svg width="65" height="58" viewBox="0 0 65 58" fill="none" xmlns="http://www.w3.org/2000/svg">
<path d="M12.6757 10.0638C12.7361 12.4826 13.0683 14.8683 13.5997 17.2237C13.7719 17.9908 13.6058 18.2505 12.8448 18.486C9.26933 19.5973 5.81163 20.9713 2.93375 23.4778C1.6322 24.6102 0.566207 25.9238 0.158531 27.6391C-0.378997 29.91 0.505809 31.7823 1.97646 33.4251C4.73054 36.4993 8.32111 38.1994 12.1412 39.4979C13.6722 40.0204 13.6511 39.9962 13.3189 41.6179C12.5307 45.45 12.1382 49.2761 13.3521 53.1173C14.4876 56.717 17.4832 58.4292 21.1795 57.5897C24.8063 56.7683 27.8563 54.8839 30.6497 52.5375C32.6911 50.8223 32.6609 50.786 34.6932 52.5496C37.251 54.7661 40.0171 56.6203 43.3329 57.5142C47.7026 58.6919 50.9187 56.7109 51.9575 52.2959C52.8212 48.6208 52.5313 44.9759 51.8367 41.334C51.5378 39.7727 51.5045 39.7909 53.0114 39.3077C56.303 38.2508 59.3651 36.762 61.9954 34.476C62.9738 33.6274 63.8043 32.646 64.372 31.4864C65.586 29.0071 65.0333 26.3496 62.7715 24.0818C60.2107 21.5149 57.0036 20.0201 53.6275 18.8756C51.429 18.1297 51.4623 18.178 51.8518 15.9403C52.495 12.241 52.8393 8.52062 51.6495 4.86362C50.2845 0.669089 46.9114 -0.910278 42.7138 0.509038C39.1686 1.70791 36.2514 3.86406 33.5577 6.36447C32.8722 7.00165 32.4404 7.15868 31.6522 6.41883C29.2515 4.16 26.5729 2.28469 23.4866 1.04959C22.0009 0.454681 20.4487 0.0862624 18.8573 0.210075C15.9673 0.433542 14.3607 2.29375 13.4729 4.8455C12.8841 6.51546 12.6425 8.27602 12.6757 10.0638ZM32.6367 39.2654C32.6367 39.2684 32.6367 39.2715 32.6367 39.2745C30.9396 39.2745 29.2424 39.2594 27.5483 39.2835C27.0047 39.2896 26.6393 39.1205 26.3343 38.6524C24.4107 35.7262 22.6713 32.6913 21.0285 29.599C20.7899 29.149 20.7718 28.7866 21.0104 28.3367C22.6351 25.2746 24.3413 22.2638 26.2649 19.3799C26.5034 19.0205 26.745 18.7608 27.2312 18.7186C30.8067 18.4045 34.3791 18.3501 37.9516 18.7095C38.4106 18.7548 38.7035 18.9662 38.9481 19.3406C40.7963 22.1823 42.5055 25.1025 44.0516 28.1193C44.3415 28.684 44.3355 29.149 44.0546 29.7077C42.5357 32.7396 40.8295 35.6567 38.9995 38.5074C38.6582 39.0359 38.2415 39.2775 37.6164 39.2714C35.9555 39.2533 34.2976 39.2654 32.6367 39.2654ZM2.93375 28.7685C3.0334 27.3885 3.82459 26.3889 4.78792 25.5252C7.36382 23.212 10.5044 21.9769 13.7387 20.9291C14.3064 20.7449 14.5903 20.8475 14.7926 21.4726C15.5264 23.7617 16.3931 26.0054 17.3987 28.1917C17.6131 28.6568 17.6373 29.1369 17.4108 29.611C16.3538 31.8185 15.5113 34.1076 14.7654 36.4328C14.5631 37.064 14.2641 37.1364 13.6964 36.9673C10.2991 35.9587 7.21585 34.3673 4.54029 32.0269C3.57093 31.1753 3.05756 30.064 2.93375 28.7685ZM20.0561 54.9957C17.6493 55.0047 16.4988 54.0444 15.9009 51.692C15.01 48.192 15.4932 44.7313 16.2059 41.2796C16.3146 40.7512 16.6105 40.6908 17.1178 40.7693C19.573 41.1528 22.01 41.6813 24.5043 41.7839C24.9422 41.8021 25.2472 42.0497 25.519 42.409C26.9927 44.3659 28.4965 46.3016 30.1906 48.0772C30.6406 48.5483 30.7252 48.8624 30.1484 49.3426C28.874 50.4055 27.657 51.547 26.2317 52.4046C24.2356 53.6005 22.2213 54.7994 20.0561 54.9957ZM49.6624 47.3857C49.6051 48.4004 49.6051 49.4211 49.4843 50.4267C48.9951 54.5004 46.6698 55.8956 42.8407 54.437C39.9054 53.3197 37.4956 51.4021 35.1613 49.3697C34.6388 48.9137 34.6902 48.5483 35.125 48.0591C36.6772 46.3137 38.1267 44.4867 39.4524 42.5631C39.8208 42.0285 40.2617 41.7688 40.9412 41.7235C43.2332 41.5665 45.5011 41.183 47.7418 40.6817C48.4998 40.5126 48.8562 40.6636 49.0011 41.4487C49.3605 43.4116 49.75 45.3685 49.6624 47.3857ZM15.4871 10.254C15.4871 9.49904 15.3935 8.73201 15.5022 7.99215C16.1606 3.50168 17.6795 1.84682 22.4629 3.67381C25.3227 4.76698 27.6782 6.65437 29.9672 8.63235C30.4805 9.07627 30.4594 9.40241 30.0064 9.92484C28.4784 11.6914 26.9594 13.4701 25.6217 15.3907C25.362 15.7652 25.0811 16.1004 24.5647 16.1547C22.1277 16.4205 19.7028 16.7557 17.3021 17.269C16.683 17.4019 16.2995 17.1996 16.1847 16.5201C15.8314 14.4485 15.3543 12.386 15.4871 10.254ZM49.6111 9.92182C49.5477 12.3286 49.3454 14.5754 48.8139 16.7829C48.6961 17.269 48.5783 17.4955 47.9985 17.3778C45.5645 16.8825 43.1185 16.4295 40.6392 16.2212C40.1379 16.1789 39.8118 15.9282 39.537 15.5417C38.1539 13.609 36.7255 11.7126 35.0979 9.97618C34.6177 9.46281 34.6872 9.07627 35.1854 8.65953C35.9947 7.98611 36.7678 7.26136 37.6103 6.63323C39.8571 4.96327 42.1673 3.39297 45.0391 3.01247C46.8872 2.76786 47.9472 3.38995 48.7263 5.09011C49.448 6.67551 49.5145 8.37265 49.6111 9.92182ZM62.1403 28.8048C62.1343 30.3298 61.3371 31.1995 60.4945 32.0088C57.9066 34.5062 54.6572 35.8047 51.3445 36.9854C50.6771 37.224 50.5412 36.7922 50.4053 36.3724C49.6836 34.1106 48.7595 31.9303 47.7932 29.7681C47.5999 29.3332 47.4701 28.9225 47.6754 28.4696C48.684 26.2409 49.5839 23.967 50.3389 21.6387C50.5231 21.068 50.8281 20.9774 51.3596 21.1465C54.5455 22.1491 57.5955 23.4355 60.1654 25.6219C61.2042 26.5037 62.1192 27.5304 62.1403 28.8048ZM45.7608 32.2383C46.6758 34.0139 47.2164 35.6839 47.8083 37.3327C47.9472 37.7162 47.7086 37.8974 47.3734 37.9578C45.6582 38.2719 43.952 38.6524 42.0344 38.7822C43.351 36.611 44.6012 34.5726 45.7608 32.2383ZM22.931 38.8245C21.0678 38.7309 19.3555 38.3776 17.6403 38.0363C17.2568 37.9608 17.2024 37.683 17.3172 37.3448C17.8758 35.7081 18.4133 34.0623 19.2559 32.3893C20.5091 34.5877 21.6899 36.6502 22.931 38.8245ZM36.3028 42.1826C35.2881 43.6592 34.2251 44.9125 33.1501 46.1597C32.7756 46.5945 32.4978 46.6791 32.078 46.1899C30.9849 44.9155 29.8373 43.6894 28.8257 42.1826C31.3563 42.1826 33.7782 42.1826 36.3028 42.1826ZM45.7578 25.6309C44.6586 23.5231 43.6107 21.6206 42.439 19.7906C42.0948 19.25 42.285 19.1202 42.8346 19.2168C44.3113 19.4795 45.785 19.7423 47.2647 19.999C47.5878 20.0563 47.9109 20.1469 47.772 20.5516C47.2104 22.2064 46.7393 23.9006 45.7578 25.6309ZM29.8162 15.7803C29.7105 15.732 29.3421 15.9705 29.1579 15.6263C28.9978 15.3303 29.2847 15.137 29.4357 14.9468C30.2903 13.8989 31.1781 12.8752 32.0267 11.8243C32.4525 11.2989 32.7847 11.3623 33.1833 11.8575C34.0047 12.8843 34.8683 13.8778 35.6897 14.9045C35.8589 15.1159 36.2182 15.3394 36.0038 15.6655C35.8136 15.9524 35.4482 15.8195 35.1643 15.7893C33.437 15.6112 31.7096 15.6716 29.8162 15.7803ZM19.1985 25.5705C18.4979 23.9006 17.8788 22.4178 17.4319 20.8656C17.3111 20.4399 17.1299 20.0745 17.8003 19.9627C19.28 19.7181 20.7507 19.4282 22.2274 19.1745C22.6562 19.1021 22.931 19.2138 22.6381 19.7151C21.5238 21.6206 20.4064 23.5201 19.1985 25.5705Z" fill="#D2D2D2"/>
<path d="M38.3834 28.8591C38.3653 25.6219 35.7833 23.0973 32.525 23.1335C29.3058 23.1668 26.7601 25.7849 26.8024 29.0192C26.8447 32.1477 29.4689 34.7176 32.6276 34.7176C35.8226 34.7145 38.4015 32.0903 38.3834 28.8591Z" fill="#D2D2D2"/>
</svg>
