<svg width="65" height="65" viewBox="0 0 65 65" fill="none" xmlns="http://www.w3.org/2000/svg">
<path d="M44.9316 26.3803C44.5156 26.3572 43.9378 26.4034 43.402 26.2752C42.53 26.0672 42.3472 26.5106 42.2211 27.2229C41.3323 32.2111 40.5234 37.2203 39.0525 42.0845C37.3191 47.8207 34.6842 53.0632 30.528 57.4463C27.1514 61.0056 23.2075 63.5355 18.1437 63.7582C15.6916 63.8654 13.3992 63.3064 11.6742 61.3671C10.1865 59.6945 10.0142 57.089 11.2434 55.3241C12.4915 53.5318 14.7671 52.7375 16.6918 53.4288C18.171 53.9583 19.2111 55.3598 19.2804 56.9294C19.3309 58.0703 18.9274 58.9528 17.9105 59.5663C17.3326 59.9151 16.5762 60.3291 16.9796 61.1885C17.3641 62.0037 18.1542 61.9092 18.9106 61.7579C21.1316 61.3166 22.7432 59.9698 24.1089 58.2678C26.2395 55.6161 27.2964 52.4686 28.2125 49.2622C29.5993 44.4126 30.4146 39.4433 31.3265 34.4951C31.9926 30.8852 32.8015 27.3069 33.8311 23.7811C34.0055 23.1865 33.9088 22.8419 33.4319 22.4448C32.1943 21.4173 31.0218 20.3121 29.8094 19.2552C28.0318 17.7045 26.0063 16.6434 23.6551 16.282C20.5874 15.8114 18.0071 17.8138 18.0785 20.5937C18.1101 21.8523 18.7026 22.8482 19.5305 23.758C21.3165 25.7247 23.2033 27.6137 24.5292 29.9502C26.3026 33.081 26.1849 36.1592 24.2014 39.1492C23.0436 40.8953 21.4467 42.1581 19.5031 42.8725C14.5149 44.7068 9.84612 43.9378 5.62485 40.7755C3.67496 39.3152 2.65378 37.2623 2.77775 34.7598C2.89332 32.4359 4.36835 31.0491 6.45062 31.2424C8.51818 31.4336 9.88395 33.2028 9.65912 35.3881C9.56667 36.2769 9.23048 37.0732 8.76402 37.8275C8.0181 39.0336 8.17358 39.7522 9.33764 40.5465C11.4157 41.9627 14.0191 42.0215 15.9458 40.6956C18.1899 39.1513 18.5597 36.4576 16.7737 34.4152C15.8534 33.3625 14.8742 32.3603 13.9161 31.3412C12.9979 30.3662 12.2331 29.282 11.6258 28.0928C8.60433 22.1674 11.7771 15.6118 18.5261 13.9602C23.1928 12.8193 27.2187 14.2985 30.7886 17.2885C31.9127 18.2319 32.9885 19.2384 34.0454 20.2554C34.6064 20.7954 34.8228 20.684 35.0687 19.9843C36.5857 15.6622 38.6239 11.6174 41.5571 8.06852C44.6984 4.26749 48.5078 1.59269 53.6074 1.2607C55.9229 1.10942 58.1522 1.48343 60.1042 2.8534C62.1487 4.2864 62.7917 6.72587 61.7327 8.87328C60.7682 10.8337 58.4086 11.5817 56.4629 10.5437C54.7715 9.64231 54.3596 7.69451 55.4459 5.72571C56.4482 3.90609 55.9754 3.12655 53.8553 3.11604C51.4978 3.10344 49.7034 4.19185 48.2914 5.99676C46.7071 8.0202 45.8688 10.3987 45.167 12.8235C44.1521 16.3199 43.5617 19.9108 42.9124 23.4891C42.8346 23.9198 42.7989 24.2266 43.3789 24.2791C45.8477 24.5019 48.283 24.4661 50.5649 23.3315C52.0651 22.5856 52.2416 21.9552 51.4306 20.4991C50.5901 18.9884 50.6027 18.1731 51.4789 17.1393C52.29 16.1854 53.7062 15.7336 54.7925 16.0845C55.8914 16.4396 56.7466 17.6688 56.8348 19.0136C56.9735 21.182 55.8031 22.6633 54.2041 23.8652C51.502 25.8928 48.3565 26.4013 44.9316 26.3803Z" fill="#D2D2D2"/>
</svg>
