<svg width="65" height="65" viewBox="0 0 65 65" fill="none" xmlns="http://www.w3.org/2000/svg">
<path d="M12.9979 4.50912C8.74298 4.50912 4.48809 4.50912 0.0419922 4.50912C10.8736 23.2411 21.6421 41.8618 32.4989 60.6358C43.341 41.887 54.0969 23.2874 64.9579 4.50702C60.5202 4.50702 56.257 4.50702 51.9958 4.50702C51.8025 4.8243 51.6028 5.13737 51.4179 5.45885C45.3077 16.0341 39.1975 26.6114 33.0893 37.1867C32.5514 38.1196 32.4485 38.1343 31.9505 37.2728C29.0992 32.335 26.2584 27.3931 23.405 22.4574C19.9402 16.4711 16.4669 10.4912 12.9979 4.50912Z" fill="#D2D2D2"/>
<path opacity="0.7" d="M12.9979 4.50912C16.467 10.4912 19.9402 16.4711 23.403 22.4574C26.2585 27.3931 29.0972 32.335 31.9485 37.2728C32.4464 38.1343 32.5473 38.1196 33.0873 37.1867C39.1954 26.6093 45.3057 16.0341 51.4159 5.45885C51.6008 5.13737 51.8004 4.8243 51.9937 4.50702C48.8567 4.32632 45.7091 4.60788 42.5846 4.38095C40.6326 4.24017 39.5842 4.86842 38.6848 6.6124C36.9262 10.0226 34.8691 13.2794 32.9675 16.6182C32.5851 17.2885 32.4107 17.299 32.0241 16.6203C29.8347 12.7857 27.6032 8.97413 25.4075 5.14368C25.128 4.6562 24.8402 4.40826 24.235 4.41457C20.6882 4.44398 17.1415 4.42717 13.5947 4.43138C13.395 4.43348 13.1954 4.4818 12.9979 4.50912Z" fill="#D2D2D2"/>
</svg>
