<svg width="80" height="80" viewBox="0 0 80 80" fill="none" xmlns="http://www.w3.org/2000/svg">
<path d="M55.3658 48.7317C68.2705 48.7317 78.7317 38.2705 78.7317 25.3659C78.7317 12.4612 68.2705 2 55.3658 2C42.4612 2 32 12.4612 32 25.3659C32 38.2705 42.4612 48.7317 55.3658 48.7317Z" fill="#3DFFAE"/>
<path d="M47.3 32.0879C47.0081 32.7663 47.2794 33.4816 47.9043 33.7653C48.5169 34.0448 49.2445 33.7817 49.5405 33.1774C49.8365 32.5689 49.6022 31.8536 48.9979 31.5247C48.9609 31.5042 48.9198 31.4877 48.8828 31.4672C48.6566 31.3356 48.5785 31.1342 48.6731 30.9204C48.7718 30.6984 48.9938 30.6079 49.2404 30.7148C49.8776 30.9944 50.2888 31.4754 50.445 32.1537C50.6588 33.0705 50.2435 33.9914 49.446 34.4395C48.6361 34.8958 47.6371 34.7643 46.9711 34.1188C46.3051 33.4734 46.1447 32.4949 46.5805 31.6563C46.6545 31.5124 46.6586 31.4302 46.5353 31.3274C46.4284 31.241 46.3256 31.1424 46.2393 31.0355C46.1077 30.8669 46.042 30.9286 45.9515 31.0766C45.3307 32.0715 45.3636 33.3583 46.0461 34.3079C46.745 35.2823 47.9578 35.7427 49.0924 35.4632C50.2435 35.1836 51.111 34.2504 51.2919 33.091C51.6084 31.0643 49.8489 29.3746 47.8303 29.7651C47.5055 29.8268 47.2959 29.724 47.2342 29.4733C47.1766 29.2266 47.3329 29.0293 47.6494 28.9594C49.7214 28.4907 51.8304 29.9584 52.1223 32.0715C52.3978 34.0777 51.0822 35.9483 49.1418 36.3059C47.1026 36.6801 45.1827 35.4097 44.7511 33.3829C44.5291 32.3305 44.7387 31.3479 45.3595 30.4681C45.4746 30.3078 45.4541 30.2297 45.3225 30.1105C45.1786 29.983 45.0594 29.835 44.9155 29.6829C44.3605 30.3407 44.0193 31.0725 43.9001 31.8947C43.5301 34.3778 45.0841 36.5978 47.5425 37.1241C50.0668 37.6626 52.6527 35.8085 52.9569 33.2432C53.2529 30.7395 51.666 28.5729 49.187 28.1125C48.3483 27.9563 47.5302 28.059 46.7367 28.3674C46.6874 28.3879 46.6422 28.4085 46.5929 28.429C46.3215 28.5236 46.1036 28.4373 46.0132 28.2029C45.9269 27.9809 46.0255 27.7795 46.2804 27.6603C46.7326 27.4547 47.2095 27.319 47.7029 27.2615C50.6711 26.9285 53.183 28.7661 53.7586 31.6933C54.3094 34.4806 52.3484 37.3872 49.5488 37.9298C46.4901 38.5218 43.6781 36.6348 43.1066 33.5762C42.8106 32.0098 43.1847 30.5833 44.155 29.3211C44.2906 29.1444 44.2906 29.0621 44.1262 28.9141C43.8014 28.614 43.7644 28.3674 43.9782 28.1659C44.1879 27.9727 44.4016 28.0179 44.7141 28.3263C46.0009 29.613 47.2918 30.9039 48.5785 32.1907C48.6196 32.2318 48.6649 32.2729 48.706 32.3182C48.8828 32.5196 48.891 32.7539 48.7224 32.9225C48.5539 33.0869 48.3072 33.0869 48.1181 32.906C47.8385 32.6429 47.5836 32.3757 47.3 32.0879Z" fill="black"/>
<path d="M58.1739 21.5518C58.178 21.4695 58.2027 21.3873 58.2479 21.3133C58.2931 21.2393 58.3383 21.1653 58.3877 21.0954C58.7988 20.4623 58.7947 20.4623 58.4576 19.8004C58.4082 19.7018 58.326 19.6976 58.2479 19.6771C58.0136 19.6195 57.7751 19.5702 57.5367 19.5209C57.29 19.4674 57.1667 19.3112 57.1708 19.0604C57.1708 18.6616 57.1708 18.2629 57.1708 17.8641C57.1708 17.6256 57.2859 17.4735 57.5202 17.416C57.5778 17.4036 57.6395 17.3872 57.697 17.3749C58.437 17.2186 58.4329 17.2186 58.7083 16.528C58.7453 16.4293 58.7289 16.3676 58.6755 16.2895C58.5357 16.0799 58.4 15.8702 58.2643 15.6564C58.1287 15.4426 58.1492 15.2494 58.326 15.0685C58.6056 14.7849 58.8892 14.5012 59.1688 14.2175C59.3456 14.0366 59.5429 14.0161 59.7567 14.1476C59.8101 14.1805 59.8595 14.2134 59.9088 14.2463C60.5337 14.6492 60.5337 14.6451 61.2244 14.3532C61.3395 14.3039 61.3518 14.2175 61.3724 14.1312C61.4299 13.8968 61.4792 13.6584 61.5286 13.42C61.582 13.1692 61.7382 13.05 61.9849 13.05C62.3837 13.0458 62.7825 13.0458 63.1813 13.05C63.4156 13.05 63.5759 13.1651 63.6294 13.4035C63.6417 13.4611 63.6623 13.5227 63.6746 13.5803C63.8349 14.3409 63.8349 14.3367 64.542 14.604C64.6448 14.641 64.7024 14.604 64.7764 14.5587C64.9819 14.4272 65.1834 14.2997 65.3889 14.1682C65.5986 14.0325 65.7959 14.0366 65.9768 14.2175C66.2646 14.5053 66.5524 14.7931 66.8401 15.0809C67.0087 15.2535 67.0293 15.4426 66.8977 15.6482C66.762 15.862 66.6305 16.0716 66.4866 16.2813C66.4208 16.3759 66.4373 16.454 66.4619 16.565C66.5853 17.1159 66.9388 17.3296 67.4733 17.3872C67.9173 17.4365 67.9872 17.5681 67.9872 18.0121C67.9872 18.3492 67.9872 18.6904 67.9872 19.0275C67.983 19.3359 67.8844 19.4633 67.5802 19.5373C67.539 19.5496 67.4938 19.5538 67.4527 19.562C66.7209 19.7264 66.725 19.7264 66.4414 20.4171C66.4003 20.5158 66.4249 20.5774 66.4743 20.6555C66.6099 20.857 66.7415 21.0584 66.8689 21.264C67.0293 21.523 67.0169 21.6792 66.8073 21.893C66.54 22.1684 66.2728 22.4357 65.9974 22.7029C65.7795 22.9167 65.6274 22.9331 65.3725 22.7769C65.3273 22.7481 65.2861 22.7193 65.2409 22.6905C64.6037 22.2794 64.6037 22.2835 63.9254 22.5919C63.8144 22.6412 63.7979 22.7234 63.7774 22.8098C63.7198 23.0523 63.6705 23.299 63.6129 23.5457C63.5595 23.7677 63.4115 23.8828 63.1813 23.8828C62.766 23.8828 62.3467 23.8869 61.9315 23.8828C61.7136 23.8828 61.5738 23.7677 61.5204 23.558C61.4628 23.3154 61.4094 23.0688 61.36 22.8221C61.3354 22.6947 61.2942 22.5919 61.1421 22.5754C61.101 22.5713 61.0558 22.5549 61.0229 22.5302C60.6324 22.2424 60.2952 22.3699 59.9664 22.6494C59.8882 22.7152 59.7937 22.7645 59.7032 22.818C59.5265 22.9208 59.3456 22.9084 59.2017 22.7687C58.8892 22.4685 58.585 22.1561 58.2808 21.8519C58.2191 21.7614 58.1862 21.6628 58.1739 21.5518ZM64.6695 21.3832C64.7517 21.3955 64.8421 21.4325 64.9203 21.4819C65.1011 21.6011 65.282 21.7162 65.467 21.8313C65.5287 21.8724 65.578 21.9218 65.6726 21.8519C66.022 21.597 66.0467 21.4983 65.8124 21.1365C65.7425 21.0255 65.6726 20.9145 65.5986 20.8118C65.4711 20.6268 65.467 20.45 65.5863 20.2568C65.763 19.969 65.8987 19.6606 65.9768 19.3276C66.0303 19.0974 66.1741 18.9741 66.4044 18.933C66.6017 18.896 66.7949 18.859 66.9881 18.8096C67.0498 18.7932 67.1485 18.8055 67.1567 18.7192C67.169 18.5465 67.1937 18.3656 67.1485 18.2012C67.1156 18.0861 66.9429 18.1108 66.8319 18.0861C66.6798 18.0491 66.5277 18.0162 66.3756 17.9874C66.1824 17.9463 66.0467 17.8435 65.9933 17.6421C65.9028 17.2885 65.763 16.9555 65.5698 16.6431C65.467 16.4786 65.4753 16.3183 65.5821 16.1539C65.7096 15.9606 65.8329 15.7592 65.9645 15.566C66.0262 15.4796 66.0261 15.418 65.9439 15.344C65.8658 15.2782 65.7877 15.2042 65.7219 15.122C65.6397 15.0151 65.5657 15.0274 65.4629 15.1014C65.3026 15.2165 65.1258 15.3152 64.9614 15.4262C64.7599 15.566 64.5667 15.5783 64.357 15.4426C64.1761 15.3275 63.9829 15.2001 63.7691 15.1713C63.2141 15.0973 62.9963 14.752 62.9593 14.2381C62.9551 14.2052 62.9428 14.1682 62.9428 14.1353C62.9346 13.9174 62.8236 13.8722 62.6098 13.864C62.3385 13.8516 62.2151 13.9256 62.1987 14.2011C62.1905 14.345 62.1329 14.4889 62.1082 14.6327C62.0671 14.8753 61.9356 15.0192 61.693 15.0685C61.4464 15.122 61.1956 15.1919 60.9941 15.3357C60.6282 15.6071 60.3117 15.566 59.991 15.2823C59.954 15.2494 59.8965 15.233 59.8595 15.196C59.6498 14.9863 59.4853 15.0192 59.2921 15.2412C59.1606 15.3933 59.1195 15.4879 59.251 15.6482C59.3702 15.7962 59.4566 15.9689 59.5635 16.1251C59.6786 16.2936 59.6909 16.4622 59.584 16.6349C59.399 16.9391 59.2551 17.2639 59.177 17.6133C59.1277 17.8189 58.992 17.934 58.7823 17.9751C58.5603 18.0203 58.3425 18.0696 58.1246 18.1231C58.0793 18.1354 58.0053 18.119 58.0053 18.193C58.0012 18.3656 57.9725 18.5465 58.0136 18.711C58.0465 18.8261 58.2191 18.8014 58.3301 18.8261C58.4822 18.8631 58.6343 18.896 58.7865 18.9289C58.992 18.9741 59.1277 19.0892 59.177 19.2989C59.2592 19.6401 59.3949 19.9566 59.5758 20.2526C59.695 20.4459 59.6827 20.6268 59.5552 20.8076C59.436 20.9803 59.3332 21.1571 59.214 21.3298C59.1441 21.4284 59.1236 21.5065 59.2346 21.5929C59.3086 21.6504 59.3785 21.7203 59.436 21.7943C59.5182 21.8971 59.5922 21.9012 59.6991 21.8231C59.8759 21.6998 60.065 21.5888 60.2459 21.4695C60.4145 21.3585 60.5789 21.3462 60.7557 21.449C61.064 21.6299 61.3888 21.7697 61.7341 21.856C61.9561 21.9094 62.0671 22.0574 62.1082 22.2712C62.1494 22.4768 62.1905 22.6782 62.2398 22.8797C62.2521 22.9331 62.2357 23.0194 62.322 23.0235C62.4947 23.0318 62.6797 23.0564 62.84 23.0112C62.951 22.9783 62.9305 22.8057 62.9551 22.6905C62.988 22.5549 63.025 22.4233 63.0456 22.2835C63.0826 22.041 63.2141 21.893 63.4526 21.8395C63.7733 21.7614 64.0734 21.6299 64.3611 21.4654C64.4557 21.4325 64.5503 21.3873 64.6695 21.3832Z" fill="black"/>
<path d="M47.9043 21.308C48.2866 21.2833 48.6649 21.3244 49.0349 21.4354C49.3103 21.5136 49.4542 21.7191 49.4008 21.9493C49.3432 22.196 49.113 22.3276 48.8252 22.2453C48.484 22.1467 48.1427 22.1384 47.7933 22.1467C45.0347 22.2248 42.897 20.0664 43.0038 17.3079C43.0861 15.1906 44.8538 13.2872 46.967 13.0364C49.4501 12.7404 51.5838 14.2739 52.0894 16.72C52.1634 17.0859 52.1675 17.46 52.1675 17.8341C52.1675 18.7591 52.4594 19.5649 53.1624 20.2021C53.3803 20.3994 53.5818 20.6173 53.7873 20.8311C54.256 21.3286 54.2724 22.0521 53.8079 22.5496C53.405 22.9812 52.9857 23.3965 52.554 23.7952C52.0565 24.2557 51.3576 24.2433 50.8561 23.7829C50.6629 23.6061 50.482 23.4211 50.297 23.2402C50.0462 22.9977 50.0421 22.7757 50.2929 22.5249C50.9054 21.9082 51.5139 21.2916 52.1346 20.6872C52.2662 20.5557 52.2785 20.4858 52.1552 20.3337C51.5838 19.6142 51.3248 18.7797 51.3371 17.8711C51.3453 17.1763 51.2508 16.5103 50.9301 15.8813C50.1161 14.2821 48.299 13.4845 46.5846 13.9738C44.8415 14.4671 43.6822 16.1239 43.8466 17.9081C44.0234 19.8321 45.7131 21.4601 47.9043 21.308ZM53.3104 21.7068C53.3145 21.4766 53.1419 21.3614 53.0062 21.2134C52.9281 21.1271 52.8746 21.1353 52.7965 21.2134C52.2785 21.7356 51.7564 22.2536 51.2343 22.7757C51.1932 22.8168 51.1439 22.8456 51.1809 22.9278C51.3618 23.2978 51.7852 23.3759 52.0812 23.084C52.4265 22.7428 52.7678 22.4016 53.1131 22.0603C53.2241 21.9617 53.3022 21.8548 53.3104 21.7068Z" fill="black"/>
<path d="M62.5892 38.0405C59.8965 38.0569 57.586 36.0383 57.216 33.3702C56.8296 30.5911 58.6426 27.9271 61.471 27.3269C62.8976 27.0268 64.2419 27.2858 65.4835 28.0545C65.6603 28.1655 65.7671 28.3094 65.7219 28.5273C65.6808 28.7205 65.5493 28.8233 65.3643 28.8562C65.2163 28.8809 65.1011 28.7945 64.9819 28.7246C64.2543 28.2806 63.4649 28.0586 62.6139 28.0422C60.2295 28.0011 58.178 29.9045 58.0094 32.3096C57.8409 34.6776 59.584 36.84 61.9109 37.1525C64.7928 37.5389 67.243 35.3394 67.1608 32.437C67.1526 32.2232 67.1197 32.0053 67.0909 31.7915C67.0539 31.5202 67.1896 31.3064 67.4321 31.2694C67.6624 31.2324 67.8515 31.3763 67.9049 31.6435C68.2873 33.5922 67.5185 35.8492 65.5616 37.1483C64.6571 37.7403 63.6664 38.0363 62.5892 38.0405Z" fill="black"/>
<path d="M62.581 34.3805C62.4577 34.3722 62.3467 34.3147 62.2521 34.2201C61.5368 33.5007 60.8173 32.7854 60.102 32.0659C59.8965 31.8603 59.8923 31.6219 60.0732 31.4451C60.2541 31.2683 60.4843 31.2766 60.694 31.4821C61.2613 32.0412 61.8287 32.6045 62.3837 33.1759C62.5358 33.3321 62.6139 33.3527 62.7825 33.1841C64.0487 31.9015 65.3273 30.6311 66.6017 29.3567C66.6634 29.295 66.7209 29.2292 66.7908 29.1799C66.9717 29.0607 67.1567 29.073 67.3129 29.2251C67.4691 29.3772 67.4815 29.5622 67.3705 29.7472C67.3294 29.813 67.2718 29.8665 67.2143 29.9199C65.8041 31.33 64.394 32.7401 62.988 34.1502C62.8729 34.2612 62.7619 34.3681 62.581 34.3805Z" fill="black"/>
<path d="M50.9548 20.5229C50.9383 20.6915 50.8684 20.8271 50.7081 20.8929C50.5066 20.9792 50.3381 20.9176 50.1901 20.7614C49.5858 20.1324 49.0801 19.4335 48.7183 18.6359C48.5868 18.3399 48.5868 18.3399 48.3524 18.5742C48.2003 18.7263 48.0482 18.8867 47.892 19.0306C47.6946 19.2115 47.4562 19.2074 47.2876 19.0347C47.1191 18.862 47.1273 18.6318 47.3164 18.4345C47.6905 18.048 48.0687 17.6657 48.4511 17.2875C48.7019 17.0408 49.076 17.123 49.1705 17.4601C49.4665 18.5126 50.038 19.3965 50.7862 20.1776C50.9013 20.2927 50.9548 20.4201 50.9548 20.5229Z" fill="black"/>
<path d="M57.549 14.0608C56.9159 13.9498 56.2746 13.8923 55.6332 13.8882C54.6753 13.8758 53.7298 13.9827 52.7966 14.1965C52.4923 14.2664 52.2744 14.1595 52.2169 13.9211C52.1552 13.658 52.2909 13.4688 52.6116 13.3948C54.2437 13.0002 55.8881 12.9549 57.5408 13.2181C57.8532 13.2674 58.0177 13.4442 57.993 13.6867C57.9766 13.9046 57.7792 14.0691 57.549 14.0608Z" fill="black"/>
<path d="M67.9954 25.4851C67.9995 26.2374 67.9337 26.9199 67.8309 27.5941C67.7816 27.9107 67.5925 28.0751 67.3335 28.034C67.0868 27.9929 66.9594 27.8038 67.0087 27.479C67.1855 26.3238 67.2184 25.1685 67.0621 24.0092C67.0416 23.8735 67.021 23.7338 67.0046 23.5981C66.9717 23.2733 67.1074 23.0719 67.3705 23.0472C67.6089 23.0225 67.7857 23.1993 67.835 23.5076C67.9337 24.1819 68.0036 24.8643 67.9954 25.4851Z" fill="black"/>
<path d="M55.5058 38.0308C54.811 38.0514 54.1203 37.9732 53.4338 37.8705C53.1501 37.8294 52.9815 37.6485 53.0021 37.4141C53.0226 37.1634 53.2241 37.003 53.5242 37.0441C54.2642 37.151 55.0042 37.2168 55.7524 37.2004C56.2828 37.188 56.809 37.1428 57.3311 37.0565C57.3928 37.0482 57.4503 37.04 57.512 37.0359C57.7833 37.0236 57.9683 37.1634 57.9971 37.3977C58.0218 37.6238 57.8655 37.8211 57.6024 37.8622C57.0639 37.9486 56.5212 38.0102 55.9744 38.0267C55.8182 38.0349 55.662 38.0308 55.5058 38.0308Z" fill="black"/>
<path d="M43.0038 25.6284C42.9997 24.5883 43.1189 23.6469 43.3245 22.7095C43.3656 22.5163 43.4232 22.3354 43.637 22.2655C43.9535 22.1586 44.2372 22.4341 44.1591 22.7835C43.9617 23.6756 43.8343 24.576 43.8425 25.4886C43.8466 25.8874 43.8754 26.2862 43.8918 26.685C43.9042 27.0015 43.7685 27.1865 43.5136 27.203C43.2587 27.2194 43.0861 27.0468 43.0614 26.7425C43.0326 26.3479 42.9874 25.9491 43.0038 25.6284Z" fill="black"/>
<path d="M62.5687 21.0162C61.1544 21.0121 60.0239 19.8651 60.028 18.4385C60.0321 17.0531 61.1832 15.9102 62.5687 15.9102C63.987 15.9061 65.1381 17.0531 65.134 18.4673C65.134 19.8856 63.9952 21.0162 62.5687 21.0162ZM62.581 20.1816C63.5307 20.1816 64.2995 19.417 64.3036 18.4714C64.3036 17.5217 63.543 16.7447 62.5974 16.7406C61.6354 16.7365 60.8626 17.5053 60.8626 18.4673C60.8626 19.4128 61.6272 20.1775 62.581 20.1816Z" fill="black"/>
<path d="M37.6878 31.1751C37.6878 31.1751 37.3707 32.1117 36.2098 32.1702C36.1366 32.18 36.0585 32.18 35.9805 32.1751C35.9805 32.1751 36.2049 30.6336 35.8683 29.8775C35.8683 29.8775 35.3951 27.78 33.122 27.78H32.9902C30.6098 27.858 22.3707 27.8287 22.3707 27.8287C22.3707 27.8287 21.4439 27.9068 19.9805 27.7117C19.9658 27.7068 19.961 27.7068 19.961 27.7068C17.8585 27.419 14.6585 26.5556 11.4829 24.0726C11.4829 24.0726 11.3171 27.4922 9.39512 29.8239C9.34146 29.8922 9.26341 29.9312 9.18048 29.9507C8.85853 30.0385 8.37073 29.8141 8.1317 29.697C7.65365 29.4678 7.36097 29.1995 7.26341 28.6531C7.02439 27.3068 7.10244 25.6922 7.30244 24.3458C7.53658 22.7605 8.22926 21.1409 9.85366 20.5897C10.039 20.5263 10.2293 20.4775 10.4195 20.4434C10.7707 20.38 11.1268 20.3702 11.4732 20.3897C11.4732 20.3897 17.1854 13.4434 31.1415 17.7409C33.1805 18.3702 35.078 19.658 36.361 21.3702C38.4049 24.0922 38.7415 28.0141 37.6878 31.1751Z" fill="#3D8CFF"/>
<path d="M36.0829 32.5992C36.0439 32.5992 36 32.5992 35.961 32.5943C35.8439 32.5895 35.7317 32.5309 35.6585 32.4431C35.5854 32.3504 35.5512 32.2334 35.5659 32.1163C35.6244 31.7212 35.7171 30.5748 35.4829 30.0529C35.4732 30.0285 35.4634 29.9992 35.4585 29.9748C35.4439 29.9065 35.0195 28.2041 33.122 28.2041H32.9902C30.6439 28.2821 22.4537 28.2529 22.3707 28.2529C22.3707 28.2529 21.4195 28.3309 19.9219 28.1309C19.9122 28.1309 19.8976 28.126 19.8878 28.126C17.8488 27.8431 14.8537 27.0431 11.8195 24.8578C11.6537 26.0334 11.161 28.3358 9.71707 30.0968C9.60488 30.2382 9.4439 30.3309 9.25854 30.37C8.86829 30.4773 8.39512 30.2968 7.95122 30.087C7.48293 29.8626 6.99024 29.526 6.84878 28.7358C6.5561 27.087 6.74634 25.248 6.88293 24.2968C7.20488 22.1407 8.18536 20.7212 9.71707 20.2041C9.93171 20.1309 10.1415 20.0773 10.3463 20.0431C10.6293 19.9895 10.9415 19.97 11.2927 19.9748C12.278 18.9114 18.2244 13.3358 31.2683 17.3504C33.4488 18.0236 35.3805 19.3651 36.6976 21.1309C38.7073 23.8139 39.2439 27.809 38.078 31.3114C38.0634 31.3602 37.6537 32.5212 36.2244 32.5943C36.1951 32.5992 36.1415 32.5992 36.0829 32.5992ZM36.2683 29.7504C36.5024 30.3163 36.4927 31.1699 36.4537 31.7163C37.0732 31.5748 37.2683 31.1065 37.2927 31.0382C38.3756 27.7895 37.8829 24.0968 36.039 21.6285C34.8439 20.0334 33.0195 18.7651 31.0341 18.1504C17.5463 13.9943 11.8683 20.5992 11.8146 20.6675C11.7317 20.77 11.6049 20.8236 11.4683 20.8187C11.1024 20.7992 10.7854 20.8187 10.5073 20.8675C10.3415 20.8968 10.1707 20.9407 10 20.9992C8.46341 21.5212 7.91707 23.1456 7.72683 24.4187C7.59512 25.3163 7.41463 27.0578 7.6878 28.5895C7.75122 28.9456 7.90732 29.126 8.32195 29.326C8.8 29.5504 8.99512 29.5748 9.07317 29.5504C10.878 27.37 11.0634 24.0919 11.0634 24.0578C11.0732 23.9017 11.1659 23.7602 11.3073 23.6968C11.4488 23.6334 11.6195 23.6529 11.7415 23.7456C14.8293 26.1602 17.9463 27.009 20.0195 27.2919C20.0293 27.2919 20.039 27.2968 20.0488 27.2968C21.439 27.4821 22.3268 27.4139 22.3366 27.409C22.3902 27.409 23.7854 27.4139 25.5756 27.4139C28.1659 27.4139 31.5902 27.4041 32.9756 27.3602H33.122C35.1512 27.3602 36.0585 28.9017 36.2683 29.7504Z" fill="#3D8CFF"/>
<path d="M14.6098 22.555C14.5024 22.555 14.4 22.5159 14.3171 22.4379C13.0244 21.1793 11.4098 20.8135 11.3951 20.8135C11.1707 20.7647 11.0244 20.5403 11.0732 20.3159C11.122 20.0867 11.3463 19.9452 11.5707 19.994C11.6439 20.0086 13.4293 20.4037 14.9024 21.8379C15.0683 21.9989 15.0732 22.2672 14.9122 22.433C14.8293 22.5159 14.722 22.555 14.6098 22.555Z" fill="#3D8CFF"/>
<path d="M31.4976 30.1648C31.4878 30.1648 31.478 30.1648 31.4634 30.1648C26.9902 29.8234 19.9512 28.1453 19.878 28.1258C19.6537 28.0722 19.5122 27.8429 19.5659 27.6185C19.6195 27.3941 19.8488 27.2526 20.0732 27.3063C20.1415 27.3209 27.1171 28.9892 31.5268 29.3209C31.7561 29.3404 31.9317 29.5404 31.9122 29.7746C31.9024 29.9941 31.7171 30.1648 31.4976 30.1648Z" fill="#3D8CFF"/>
<path d="M35.9805 32.1747C35.9805 32.1747 36.2049 30.6332 35.8683 29.8771C35.8683 29.8771 35.3951 27.7796 33.1219 27.7796H32.9902C30.6097 27.8576 22.3707 27.8284 22.3707 27.8284C22.3707 27.8284 21.4439 27.9064 19.9805 27.7113C19.9658 27.7064 19.961 27.7064 19.961 27.7064C17.8585 27.4186 14.6585 26.5552 11.4829 24.0723C11.4829 24.0723 11.3171 27.4918 9.39512 29.8235C9.34146 29.8918 9.26341 29.9308 9.18048 29.9503V44.1454C9.18048 46.3357 10.7122 48.1162 12.2244 49.5259C13.2537 50.4869 14.2341 51.5162 15.3171 52.4186C15.7268 52.7698 16.1561 53.0918 16.6 53.3942C16.8537 53.5649 17.1122 53.721 17.3854 53.8625C18.3024 54.3357 19.3073 54.5845 20.3268 54.7308C22.1122 54.9893 23.8439 54.9747 25.6244 54.643C26.7512 54.4332 27.8341 54.0381 28.7854 53.3942C29.2293 53.0918 29.6585 52.7698 30.0683 52.4186C31.1512 51.5162 32.1317 50.4869 33.161 49.5259C34.6732 48.1113 36.2097 46.3357 36.2097 44.1454V32.1747C36.1415 32.1796 36.0634 32.1796 35.9805 32.1747ZM16.4049 38.5796C15.9415 38.5796 15.5658 38.204 15.5658 37.7406C15.5658 37.2771 15.9463 36.9015 16.4049 36.9015C16.8683 36.9015 17.2439 37.282 17.2439 37.7406C17.2439 38.2089 16.8683 38.5796 16.4049 38.5796ZM28.9902 38.5796C28.5268 38.5796 28.1512 38.204 28.1512 37.7406C28.1512 37.2771 28.5317 36.9015 28.9902 36.9015C29.4585 36.9015 29.8293 37.282 29.8293 37.7406C29.8293 38.2089 29.4537 38.5796 28.9902 38.5796Z" fill="#ECF4FF"/>
<path d="M22.7512 55.34C21.9366 55.34 21.1122 55.2766 20.2732 55.1546C19.0634 54.979 18.0585 54.6815 17.2049 54.2424C16.9219 54.101 16.6439 53.9351 16.3756 53.7498C15.9073 53.4278 15.4634 53.0912 15.0585 52.7449C14.3268 52.1351 13.6341 51.462 12.961 50.8083C12.6244 50.4815 12.2878 50.1546 11.9463 49.8376C10.4683 48.4571 8.77072 46.5644 8.77072 44.1498V29.9546C8.77072 29.7546 8.91219 29.5839 9.10731 29.54C10.8829 27.3644 11.0683 24.0864 11.0683 24.0522C11.078 23.8961 11.1707 23.7546 11.3122 23.6912C11.4536 23.6278 11.6244 23.6473 11.7463 23.74C14.8341 26.1546 17.9512 27.0034 20.0244 27.2864C20.0341 27.2864 20.0439 27.2912 20.0536 27.2912C21.4439 27.4766 22.3317 27.4083 22.3415 27.4034C22.3951 27.4034 23.7902 27.4083 25.5805 27.4083C28.1707 27.4083 31.5951 27.3986 32.9805 27.3546H33.1268C35.1561 27.3546 36.0634 28.8912 36.2732 29.74C36.5268 30.3449 36.4927 31.2717 36.4488 31.8132C36.4634 31.8229 36.4829 31.8376 36.4975 31.8522C36.5854 31.9303 36.639 32.0473 36.639 32.1644V44.1449C36.639 46.5546 34.9366 48.4522 33.4585 49.8327C33.1268 50.1449 32.8 50.462 32.4732 50.779C31.7951 51.4376 31.0927 52.1205 30.3512 52.74C29.9512 53.0815 29.5073 53.4181 29.0341 53.74C28.0878 54.379 26.9707 54.8181 25.7122 55.0522C24.7219 55.2473 23.7415 55.34 22.7512 55.34ZM9.60487 30.2132V44.1498C9.60487 46.2376 11.161 47.9595 12.5171 49.2229C12.8634 49.5449 13.2 49.8766 13.5415 50.2034C14.2 50.8425 14.8829 51.5059 15.5951 52.101C15.9805 52.4278 16.4 52.7498 16.8439 53.0522C17.0878 53.2181 17.3317 53.3644 17.5854 53.4912C18.3561 53.8864 19.2732 54.1595 20.3951 54.3205C22.1707 54.579 23.8585 54.5498 25.5561 54.2327C26.7024 54.0181 27.7122 53.6229 28.561 53.0473C29.0049 52.7449 29.4244 52.4278 29.8049 52.101C30.5268 51.4961 31.2146 50.8278 31.8829 50.179C32.2146 49.8571 32.5463 49.5351 32.878 49.2229C34.2341 47.9546 35.7951 46.2327 35.7951 44.1498V32.5498C35.7415 32.5254 35.6975 32.4864 35.6585 32.4425C35.5854 32.3498 35.5512 32.2327 35.5658 32.1156C35.6244 31.7205 35.7171 30.5742 35.4829 30.0522C35.4732 30.0278 35.4634 29.9985 35.4585 29.9742C35.4439 29.9059 35.0195 28.2034 33.1219 28.2034H32.9902C30.6439 28.2815 22.4536 28.2522 22.3707 28.2522C22.3707 28.2522 21.4195 28.3303 19.9219 28.1303C19.9122 28.1303 19.8976 28.1254 19.8878 28.1254C17.8488 27.8425 14.8536 27.0425 11.8195 24.8571C11.6536 26.0327 11.161 28.3351 9.71706 30.0961C9.68779 30.14 9.64877 30.179 9.60487 30.2132ZM28.9902 38.9985C28.2927 38.9985 27.7268 38.4327 27.7268 37.7351C27.7268 37.0376 28.2927 36.4717 28.9902 36.4717C29.6878 36.4717 30.2536 37.0376 30.2536 37.7351C30.2536 38.4327 29.6829 38.9985 28.9902 38.9985ZM28.9902 37.3205C28.7561 37.3205 28.5707 37.5107 28.5707 37.74C28.5707 37.9742 28.761 38.1595 28.9902 38.1595C29.2244 38.1595 29.4097 37.9742 29.4097 37.74C29.4097 37.5059 29.2195 37.3205 28.9902 37.3205ZM16.4049 38.9985C15.7073 38.9985 15.1415 38.4327 15.1415 37.7351C15.1415 37.0376 15.7073 36.4717 16.4049 36.4717C17.1024 36.4717 17.6683 37.0376 17.6683 37.7351C17.6683 38.4327 17.0976 38.9985 16.4049 38.9985ZM16.4049 37.3205C16.1707 37.3205 15.9854 37.5107 15.9854 37.74C15.9854 37.9742 16.1756 38.1595 16.4049 38.1595C16.639 38.1595 16.8244 37.9693 16.8244 37.74C16.8244 37.5059 16.6341 37.3205 16.4049 37.3205Z" fill="#3D8CFF"/>
<path d="M9.18538 34.8868V41.4234L8.92684 41.2624C6.73172 40.0575 7.9366 38.9795 7.9366 38.9795C7.14147 38.2136 6.29757 36.4819 6.71221 35.3599C7.08781 34.3648 8.43416 34.3112 9.18538 34.8868Z" fill="#ECF4FF"/>
<path d="M9.18537 41.8433C9.10732 41.8433 9.03415 41.8238 8.96586 41.7799L8.70732 41.6189C7.78537 41.1116 7.2683 40.5214 7.19513 39.8823C7.15122 39.5165 7.26342 39.214 7.38537 39.0043C6.59513 38.0726 5.8683 36.4238 6.31708 35.214C6.5122 34.7018 6.91708 34.3311 7.46342 34.175C8.12196 33.9848 8.89757 34.136 9.43903 34.5506C9.54147 34.6287 9.60488 34.7555 9.60488 34.8823V41.4189C9.60488 41.5701 9.52196 41.7116 9.39025 41.7848C9.32683 41.8287 9.25366 41.8433 9.18537 41.8433ZM8.05854 34.936C7.93659 34.936 7.80976 34.9506 7.69756 34.9848C7.49756 35.0433 7.22927 35.1799 7.10732 35.5067C6.76098 36.4482 7.53659 38.014 8.22927 38.6775C8.3122 38.7604 8.36098 38.8726 8.3561 38.9897C8.3561 39.1067 8.30244 39.2189 8.21464 39.297C8.20976 39.3018 7.99025 39.5116 8.02927 39.7994C8.06342 40.0726 8.32195 40.3799 8.76586 40.6775V35.1116C8.55122 34.9994 8.30244 34.936 8.05854 34.936Z" fill="#3D8CFF"/>
<path d="M36.4683 41.2624L36.2097 41.4282V34.8868C36.9561 34.3112 38.3073 34.3648 38.678 35.3599C39.0976 36.4819 38.2536 38.2136 37.4585 38.9795C37.4634 38.9795 38.6683 40.0575 36.4683 41.2624Z" fill="#ECF4FF"/>
<path d="M36.2146 41.8472C36.1463 41.8472 36.078 41.8326 36.0146 41.7936C35.878 41.7204 35.7951 41.5789 35.7951 41.4228V34.8862C35.7951 34.7545 35.8536 34.6326 35.961 34.5545C36.5024 34.1399 37.278 33.9887 37.9366 34.1789C38.4829 34.335 38.8878 34.7058 39.078 35.2179C39.5317 36.4277 38.8049 38.0814 38.0146 39.0131C38.1366 39.2228 38.2488 39.5253 38.2049 39.8911C38.1317 40.5301 37.6195 41.1155 36.6829 41.6326L36.439 41.7887C36.3707 41.8277 36.2927 41.8472 36.2146 41.8472ZM36.6341 35.1106V40.6716C37.078 40.3692 37.3366 40.0619 37.3707 39.7887C37.4049 39.5058 37.1854 39.296 37.1854 39.296C37.0975 39.2179 37.0488 39.1058 37.0439 38.9887C37.0439 38.8716 37.0878 38.7594 37.1707 38.6765C37.8634 38.0131 38.639 36.4472 38.2878 35.5058C38.1658 35.1789 37.9024 35.0423 37.7024 34.9838C37.361 34.8862 36.9512 34.9399 36.6341 35.1106Z" fill="#3D8CFF"/>
<path d="M22.6976 44.2283C21.4 44.2283 20.8634 43.2283 20.839 43.1844C20.7317 42.9795 20.8098 42.7259 21.0146 42.6186C21.2195 42.5113 21.4732 42.5893 21.5805 42.7942C21.5902 42.8137 21.9171 43.3893 22.6927 43.3893C23.4683 43.3893 23.7951 42.8137 23.8098 42.7893C23.9219 42.5893 24.1756 42.5113 24.3805 42.6186C24.5854 42.7259 24.6634 42.9795 24.5561 43.1844C24.5317 43.2283 23.9902 44.2283 22.6976 44.2283Z" fill="#3D8CFF"/>
<path d="M22.6976 48.535C20.0829 48.535 18.9658 47.8716 18.9219 47.8424C18.7219 47.7204 18.6634 47.4619 18.7805 47.2619C18.9024 47.0619 19.161 47.0033 19.361 47.1204C19.3658 47.1253 20.3561 47.6911 22.6976 47.6911C25.039 47.6911 26.0293 47.1253 26.039 47.1204C26.239 47.0033 26.4976 47.0668 26.6146 47.2668C26.7317 47.4668 26.6732 47.7204 26.4732 47.8424C26.4244 47.8716 25.3122 48.535 22.6976 48.535Z" fill="#3D8CFF"/>
<path d="M18.6244 37.1164H13.6244C13.3902 37.1164 13.2049 36.9261 13.2049 36.6969C13.2049 36.4676 13.3951 36.2773 13.6244 36.2773H18.6244C18.8585 36.2773 19.0439 36.4676 19.0439 36.6969C19.0439 36.9261 18.8536 37.1164 18.6244 37.1164Z" fill="#3D8CFF"/>
<path d="M16.4049 38.5804C16.8683 38.5804 17.2439 38.2047 17.2439 37.7414C17.2439 37.278 16.8683 36.9023 16.4049 36.9023C15.9415 36.9023 15.5659 37.278 15.5659 37.7414C15.5659 38.2047 15.9415 38.5804 16.4049 38.5804Z" fill="#3D8CFF"/>
<path d="M16.4049 38.9995C15.7073 38.9995 15.1415 38.4336 15.1415 37.7361C15.1415 37.0385 15.7073 36.4727 16.4049 36.4727C17.1025 36.4727 17.6683 37.0385 17.6683 37.7361C17.6683 38.4336 17.0976 38.9995 16.4049 38.9995ZM16.4049 37.3214C16.1707 37.3214 15.9854 37.5117 15.9854 37.741C15.9854 37.9751 16.1756 38.1605 16.4049 38.1605C16.639 38.1605 16.8244 37.9702 16.8244 37.741C16.8244 37.5068 16.6342 37.3214 16.4049 37.3214Z" fill="#3D8CFF"/>
<path d="M31.7707 37.1164H26.7707C26.5366 37.1164 26.3512 36.9261 26.3512 36.6969C26.3512 36.4676 26.5415 36.2773 26.7707 36.2773H31.7707C32.0049 36.2773 32.1902 36.4676 32.1902 36.6969C32.1902 36.9261 32 37.1164 31.7707 37.1164Z" fill="#3D8CFF"/>
<path d="M28.9902 38.5804C29.4536 38.5804 29.8293 38.2047 29.8293 37.7414C29.8293 37.278 29.4536 36.9023 28.9902 36.9023C28.5269 36.9023 28.1512 37.278 28.1512 37.7414C28.1512 38.2047 28.5269 38.5804 28.9902 38.5804Z" fill="#3D8CFF"/>
<path d="M28.9903 38.9995C28.2927 38.9995 27.7268 38.4336 27.7268 37.7361C27.7268 37.0385 28.2927 36.4727 28.9903 36.4727C29.6878 36.4727 30.2537 37.0385 30.2537 37.7361C30.2537 38.4336 29.6829 38.9995 28.9903 38.9995ZM28.9903 37.3214C28.7561 37.3214 28.5707 37.5117 28.5707 37.741C28.5707 37.9751 28.761 38.1605 28.9903 38.1605C29.2244 38.1605 29.4098 37.9751 29.4098 37.741C29.4098 37.5068 29.2195 37.3214 28.9903 37.3214Z" fill="#3D8CFF"/>
<path d="M25.7317 35.5215C25.639 35.5215 25.5512 35.4923 25.4732 35.4337C25.2927 35.2923 25.2586 35.0289 25.4 34.8484C25.4927 34.7313 27.722 31.9557 32.8586 33.7606C33.0781 33.8386 33.1951 34.0776 33.1171 34.2971C33.039 34.5167 32.8 34.6337 32.5805 34.5557C28.039 32.9654 26.1415 35.2679 26.0634 35.3654C25.9756 35.4679 25.8537 35.5215 25.7317 35.5215Z" fill="#3D8CFF"/>
<path d="M18.439 35.624C17.4976 35.624 16.5561 35.302 15.6927 35.0045C15.4097 34.9069 15.1317 34.8094 14.8585 34.7313C13.9854 34.4679 13.278 34.3069 12.8146 34.8045C12.6585 34.9752 12.3902 34.985 12.2195 34.8289C12.0488 34.6728 12.039 34.4045 12.1951 34.2338C13.0488 33.3118 14.2829 33.6825 15.0976 33.9264C15.3756 34.0094 15.6683 34.1118 15.961 34.2094C17.2049 34.6337 18.4878 35.0777 19.5854 34.5264C19.7951 34.424 20.0439 34.5069 20.1512 34.7167C20.2536 34.9264 20.1707 35.1752 19.961 35.2825C19.4683 35.5264 18.9512 35.624 18.439 35.624Z" fill="#3D8CFF"/>
<path d="M13.1512 56.4278C13.0097 56.4278 12.8732 56.3595 12.7951 56.2326L12.7317 56.1302C12.6097 55.9351 12.6683 55.6717 12.8683 55.5497C13.0634 55.4278 13.3268 55.4863 13.4488 55.6863L13.5122 55.7839C13.6341 55.979 13.5756 56.2424 13.3805 56.3644C13.3024 56.4083 13.2244 56.4278 13.1512 56.4278Z" fill="#3D8CFF"/>
<path d="M22.6976 78.1353C22.4634 78.1353 22.278 77.945 22.278 77.7158V61.0621C22.278 60.8279 22.4683 60.6426 22.6976 60.6426C22.9317 60.6426 23.1171 60.8328 23.1171 61.0621V77.7158C23.1171 77.945 22.9317 78.1353 22.6976 78.1353Z" fill="#3D8CFF"/>
<path d="M32.2488 56.4276C32.1707 56.4276 32.0976 56.4081 32.0293 56.3642C31.8341 56.2422 31.7707 55.9837 31.8927 55.7837L31.9561 55.6812C32.078 55.4861 32.3366 55.4227 32.5366 55.5447C32.7317 55.6666 32.7951 55.9251 32.6732 56.1251L32.6098 56.2276C32.5268 56.3593 32.3854 56.4276 32.2488 56.4276Z" fill="#3D8CFF"/>
<path d="M32.2488 56.0102C29.3708 60.7126 22.6976 60.9614 22.6976 60.9614C22.6976 60.9614 16.0195 60.7126 13.1464 56.0102C14.4976 55.2053 15.6586 54.1224 15.322 52.4297C15.7317 52.7809 16.161 53.1029 16.6049 53.4053C16.8586 53.576 17.1171 53.7321 17.3903 53.8736C18.3073 54.3468 19.3122 54.5955 20.3317 54.7419C22.1171 55.0004 23.8488 54.9858 25.6293 54.6541C26.7561 54.4443 27.839 54.0492 28.7903 53.4053C29.2342 53.1029 29.6634 52.7809 30.0732 52.4297C29.7366 54.1224 30.8976 55.2053 32.2488 56.0102Z" fill="#ECF4FF"/>
<path d="M22.7122 61.3804C22.4 61.3706 15.7464 61.0682 12.7903 56.2291C12.7317 56.1316 12.7122 56.0194 12.7415 55.9072C12.7659 55.7999 12.839 55.7023 12.9317 55.6486C14.5415 54.6877 15.1512 53.7169 14.9073 52.5072C14.8732 52.3316 14.9512 52.1511 15.1073 52.0633C15.2634 51.9706 15.4585 51.9901 15.5951 52.1072C15.9756 52.434 16.3951 52.7511 16.839 53.0535C17.0829 53.2194 17.3268 53.3657 17.5805 53.4925C18.3512 53.8877 19.2683 54.1608 20.3903 54.3218C22.1659 54.5804 23.8537 54.5511 25.5512 54.234C26.6976 54.0194 27.7073 53.6243 28.5561 53.0486C29 52.7462 29.4195 52.4291 29.8 52.1023C29.9366 51.9852 30.1317 51.9706 30.2878 52.0584C30.4439 52.1511 30.522 52.3267 30.4878 52.5023C30.2488 53.7121 30.8585 54.6828 32.4634 55.6438C32.561 55.7023 32.6293 55.795 32.6537 55.9023C32.6781 56.0096 32.6634 56.1267 32.6049 56.2243C29.6488 61.0682 22.9951 61.3706 22.7122 61.3804ZM13.7366 56.1413C16.5707 60.2633 22.6537 60.5364 22.7171 60.5413C22.7512 60.5413 28.8293 60.2584 31.6634 56.1413C30.7415 55.5364 29.7512 54.6535 29.6098 53.3364C29.4195 53.4779 29.2244 53.6145 29.0293 53.7511C28.0829 54.3901 26.9659 54.8291 25.7073 55.0633C23.9171 55.3999 22.1415 55.4291 20.2732 55.156C19.0634 54.9804 18.0585 54.6828 17.2049 54.2438C16.922 54.1023 16.6439 53.9364 16.3756 53.7511C16.1756 53.6145 15.9805 53.4779 15.7951 53.3364C15.6439 54.6535 14.6585 55.5364 13.7366 56.1413Z" fill="#3D8CFF"/>
<path d="M43.8586 68.8663C43.8586 68.8663 41.522 71.4615 37.5025 73.842C33.8195 76.0273 28.7122 78.0371 22.7025 77.7151C16.6829 78.0371 11.5805 76.0273 7.89758 73.842C3.87806 71.4566 1.54636 68.8663 1.54636 68.8663C1.98538 62.9834 6.53172 59.3883 11.4049 56.9346C11.9561 56.6566 12.5707 56.359 13.1561 56.0078C16.0293 60.7103 22.7073 60.959 22.7073 60.959C22.7073 60.959 29.3805 60.7103 32.2586 56.0078C32.839 56.359 33.4586 56.6566 34.0098 56.9346C38.8683 59.3883 43.4195 62.9834 43.8586 68.8663Z" fill="#B4D3FF"/>
<path d="M24 78.1696C23.5659 78.1696 23.1317 78.1598 22.6976 78.1354C17.5805 78.4037 12.5268 77.0818 7.67805 74.2037C3.64878 71.8135 1.32195 69.2574 1.22439 69.15C1.14634 69.0671 1.10732 68.95 1.11707 68.8379C1.49268 63.8086 4.79024 59.794 11.2049 56.5598L11.439 56.4427C11.9317 56.1988 12.4341 55.9452 12.9268 55.6525C13.1268 55.5354 13.3805 55.5988 13.5024 55.794C16.2244 60.2525 22.6439 60.5403 22.7073 60.5403C22.7415 60.5354 29.161 60.2427 31.8829 55.794C32.0049 55.5988 32.2585 55.5354 32.4585 55.6525C32.9366 55.9403 33.4341 56.1891 33.9171 56.433L34.1805 56.5647C40.5951 59.7988 43.8976 63.8135 44.2683 68.8427C44.278 68.9549 44.239 69.072 44.161 69.1549C44.0634 69.2622 41.7317 71.8232 37.7073 74.2086C33.2732 76.8379 28.6683 78.1696 24 78.1696ZM22.6976 77.2964C22.7073 77.2964 22.7122 77.2964 22.722 77.2964C27.6732 77.5647 32.5756 76.2818 37.2878 73.4818C40.6976 71.4622 42.8976 69.2671 43.4244 68.7159C43.0049 64.0915 39.8585 60.3598 33.8098 57.311L33.5512 57.1793C33.1854 56.9988 32.7854 56.794 32.3854 56.5744C29.3268 61.0818 22.9902 61.3696 22.7171 61.3793C22.4098 61.3696 16.0683 61.0818 13.0146 56.5744C12.6098 56.7988 12.2 57.0086 11.8244 57.194L11.5902 57.311C5.54146 60.3598 2.39024 64.0915 1.97561 68.7159C2.50244 69.2671 4.70244 71.4574 8.10732 73.4818C12.8195 76.2769 17.722 77.5598 22.6732 77.2964C22.6829 77.2964 22.6927 77.2964 22.6976 77.2964Z" fill="#3D8CFF"/>
<path d="M22.6976 78.1353C22.4634 78.1353 22.278 77.945 22.278 77.7158V61.0621C22.278 60.8279 22.4683 60.6426 22.6976 60.6426C22.9317 60.6426 23.1171 60.8328 23.1171 61.0621V77.7158C23.1171 77.945 22.9317 78.1353 22.6976 78.1353Z" fill="#3D8CFF"/>
<path d="M7.89278 74.0001C7.65863 74.0001 7.47327 73.8119 7.47327 73.5851V66.7861C7.47327 66.5545 7.66351 66.3711 7.89278 66.3711C8.12693 66.3711 8.31229 66.5593 8.31229 66.7861V73.5851C8.31229 73.8119 8.12693 74.0001 7.89278 74.0001Z" fill="#3D8CFF"/>
<path d="M37.5002 74C37.2211 74 37.0002 73.8027 37.0002 73.5648V66.4352C37.0002 66.1923 37.2269 66 37.5002 66C37.7792 66 38.0002 66.1973 38.0002 66.4352V73.5648C38.0002 73.8027 37.7734 74 37.5002 74Z" fill="#3D8CFF"/>
</svg>
