<svg width="80" height="80" viewBox="0 0 80 80" fill="none" xmlns="http://www.w3.org/2000/svg">
<path d="M56.3659 47.7317C69.2705 47.7317 79.7317 37.2705 79.7317 24.3659C79.7317 11.4612 69.2705 1 56.3659 1C43.4612 1 33 11.4612 33 24.3659C33 37.2705 43.4612 47.7317 56.3659 47.7317Z" fill="#3DFFAE"/>
<path d="M35.6586 45.4154C35.6586 47.0739 35.122 50.8788 31.0244 54.2447C30.1951 54.9276 29.1707 55.6105 28 56.2447C26.4878 57.0739 24.9756 58.1959 23.2195 58.2447C21.4634 58.2934 19.5122 57.2691 18.1464 56.2447C16.9756 55.6105 16 54.9276 15.122 54.2447C11.0732 50.8788 10.5366 47.0739 10.4878 45.4154C10.4878 44.83 10.5366 44.5373 10.5366 44.5373V33.1715C14.1951 34.4398 23.3171 36.4886 30.9756 28.7812C30.9756 28.7812 29.7073 33.4154 35.5122 33.513V44.5373C35.6098 44.5373 35.6586 44.83 35.6586 45.4154Z" fill="#ECF4FF"/>
<path d="M23.122 58.732C20.9268 58.732 18.7805 57.3174 17.9024 56.6345C16.7805 56.0003 15.7561 55.3174 14.8781 54.5857C10.5854 51.0247 10.0976 46.9759 10.0976 45.3662C10.0976 44.8784 10.1463 44.5369 10.1463 44.4393V33.171C10.1463 33.0247 10.2439 32.8784 10.3415 32.7808C10.4878 32.6832 10.6341 32.6832 10.7805 32.732C14.2927 33.9515 23.2683 36.0003 30.6829 28.4393C30.8293 28.293 31.0732 28.2442 31.2683 28.3418C31.4634 28.4393 31.561 28.6832 31.5122 28.8784C31.5122 28.8784 31.122 30.4881 32 31.6588C32.6341 32.5369 33.8537 32.9759 35.6098 32.9759C35.8537 32.9759 36.0976 33.2198 36.0976 33.4637V44.4393C36.0976 44.5369 36.1463 44.8784 36.1463 45.3662C36.1463 46.9271 35.6585 51.0247 31.3659 54.5857C30.439 55.3174 29.4146 56.0491 28.2927 56.6345C28 56.7808 27.7073 56.9759 27.4146 57.1223C26.1463 57.854 24.8293 58.6345 23.2683 58.6832C23.2195 58.732 23.1707 58.732 23.122 58.732ZM11.122 33.854V44.4881C11.122 44.5369 11.122 44.5369 11.122 44.5857C11.122 44.5857 11.0732 44.8784 11.0732 45.4149C11.0732 46.8784 11.5122 50.5857 15.5122 53.854C16.3902 54.5857 17.3659 55.2198 18.439 55.8052C18.439 55.8052 18.4878 55.8052 18.4878 55.854C20.0976 57.0735 21.9024 57.8052 23.2195 57.7564C24.5366 57.7076 25.7073 57.0247 26.878 56.3418C27.1707 56.1467 27.4634 56.0003 27.7561 55.8052C28.8293 55.2198 29.8049 54.5369 30.6829 53.854C34.6341 50.5857 35.122 46.8296 35.122 45.4149C35.122 44.9271 35.0732 44.5857 35.0732 44.5857C35.0732 44.5369 35.0732 44.5369 35.0732 44.4881V33.9515C33.2683 33.854 31.9512 33.2686 31.1707 32.2442C30.6341 31.5125 30.439 30.6832 30.3902 30.0003C23.2683 36.4881 15.0244 35.0735 11.122 33.854Z" fill="#3D8CFF"/>
<path d="M45.3659 69.8052C45.3659 69.8052 42.9268 72.5369 38.6829 75.0247C34.8293 77.3174 29.4634 79.4149 23.122 79.0735C16.7805 79.4149 11.4146 77.3174 7.56098 75.0247C3.31708 72.5369 0.878052 69.8052 0.878052 69.8052C1.21952 65.2686 3.90244 62.0003 7.36586 59.5613C8.58537 58.6832 9.90244 57.9515 11.2683 57.2686C11.8537 56.9759 12.4878 56.6832 13.122 56.293C16.1463 61.2198 23.1707 61.5125 23.1707 61.5125C23.1707 61.5125 30.1951 61.2686 33.2195 56.293C33.8049 56.6832 34.4878 56.9759 35.0732 57.2686C36.3902 57.9515 37.7073 58.6832 38.9756 59.5613C42.3415 62.0003 45.0244 65.2686 45.3659 69.8052Z" fill="#B4D3FF"/>
<path d="M24.4878 79.6587C24.0488 79.6587 23.561 79.6587 23.122 79.6099C17.8049 79.9026 12.3415 78.4392 7.31709 75.4636C3.07319 72.927 0.634161 70.2441 0.5366 70.1465C0.439039 70.049 0.390259 69.9026 0.390259 69.8051C0.682942 65.6099 2.87806 62.1465 7.07319 59.2197C8.24392 58.3904 9.51221 57.6587 11.0244 56.8782L11.3171 56.7319C11.8049 56.488 12.3415 56.2441 12.8293 55.9026C13.0732 55.7563 13.3659 55.8539 13.5122 56.049C16.3415 60.6831 23.0732 61.0246 23.1707 61.0246C23.2195 61.0246 29.9025 60.7319 32.7805 56.049C32.9268 55.8051 33.2195 55.7563 33.4634 55.9026C33.9512 56.1953 34.439 56.4392 34.9756 56.6831L35.2683 56.8295C36.7805 57.5612 38.0488 58.3417 39.2195 59.1709C39.2195 59.1709 39.2683 59.1709 39.2683 59.2197C43.4146 62.1465 45.6098 65.6099 45.9025 69.8051C45.9025 69.9514 45.8537 70.049 45.7561 70.1465C45.6586 70.2441 43.2195 72.9758 38.9756 75.4636C34.2439 78.2441 29.4146 79.6587 24.4878 79.6587ZM1.41465 69.6587C1.95123 70.2441 4.2927 72.5368 7.80489 74.6343C12.7317 77.5612 17.9025 78.927 23.0732 78.6343H23.122C28.2927 78.927 33.4634 77.5612 38.3903 74.6343C41.9512 72.5368 44.2439 70.2441 44.8293 69.6587C44.4878 65.8539 42.439 62.7319 38.5854 60.0002C38.5854 60.0002 38.5366 60.0002 38.5366 59.9514C37.4146 59.1709 36.1951 58.4392 34.7805 57.7075L34.4878 57.5612C34.0976 57.366 33.7073 57.1709 33.3171 56.9758C30.0976 61.7075 23.4146 62.0002 23.122 62.0002C22.7805 62.0002 16.1464 61.7075 12.9268 56.9758C12.5366 57.1709 12.1464 57.4148 11.7561 57.5612L11.4634 57.7075C10 58.4392 8.73172 59.1709 7.65855 59.9514C3.80489 62.6831 1.75611 65.8539 1.41465 69.6587Z" fill="#3D8CFF"/>
<path d="M33.1707 56.2929C30.1463 61.2198 23.1219 61.5124 23.1219 61.5124C23.1219 61.5124 16.0975 61.2685 13.0732 56.2929C14 55.7563 14.7805 55.0734 15.1707 54.2441C16 54.9271 17.0244 55.61 18.1951 56.2441C19.561 57.2685 21.5122 58.2929 23.2683 58.2441C25.0244 58.1954 26.5853 57.0734 28.0488 56.2441C29.2195 55.61 30.1951 54.9271 31.0732 54.2441C31.4146 55.1222 32.2439 55.7563 33.1707 56.2929Z" fill="#ECF4FF"/>
<path d="M23.1219 61.9994C22.7805 61.9994 15.7561 61.6579 12.6341 56.5847C12.5854 56.4872 12.5366 56.3408 12.5854 56.1945C12.6341 56.0481 12.6829 55.9506 12.8293 55.9018C13.8537 55.3164 14.439 54.7311 14.7317 54.0482C14.7805 53.9018 14.9268 53.8042 15.0732 53.7555C15.2195 53.7067 15.3658 53.7555 15.5122 53.853C16.3902 54.5847 17.3658 55.2189 18.439 55.8042C18.439 55.8042 18.4878 55.8042 18.4878 55.853C20.0976 57.0725 21.9024 57.8042 23.2195 57.7555C24.5366 57.7067 25.7073 57.0238 26.878 56.3408C27.1707 56.1457 27.4634 55.9994 27.7561 55.8042C28.8293 55.2189 29.8049 54.536 30.6829 53.853C30.7805 53.7555 30.9756 53.7067 31.1219 53.7555C31.2683 53.8042 31.4146 53.9018 31.4634 54.0482C31.7561 54.6823 32.3415 55.2677 33.3658 55.9018C33.4634 55.9506 33.561 56.0969 33.6098 56.1945C33.6585 56.3408 33.6098 56.4384 33.561 56.5847C30.439 61.6579 23.4634 61.9994 23.1219 61.9994ZM13.7561 56.4384C16.7317 60.6823 23.0732 61.0238 23.1219 61.0238C23.1707 61.0238 29.4634 60.7311 32.439 56.4384C31.7073 55.9506 31.2195 55.5116 30.878 54.975C30.0976 55.6091 29.2195 56.1457 28.2439 56.6823C27.9512 56.8286 27.6585 57.0238 27.3658 57.1701C26.0976 57.9018 24.7805 58.6823 23.2195 58.7311C20.9756 58.7799 18.7805 57.3164 17.9024 56.6823C16.9756 56.1457 16.0976 55.6091 15.3171 54.975C14.9756 55.5116 14.4878 55.9994 13.7561 56.4384Z" fill="#3D8CFF"/>
<path d="M38.6829 74.9998C38.3902 74.9998 38.1951 74.8146 38.1951 74.5367V67.6819C38.1951 67.404 38.3902 67.2188 38.6829 67.2188C38.9756 67.2188 39.1707 67.404 39.1707 67.6819V74.5367C39.1707 74.8146 38.9268 74.9998 38.6829 74.9998Z" fill="#3D8CFF"/>
<path d="M7.56105 74.9998C7.26836 74.9998 7.07324 74.8146 7.07324 74.5367V67.6819C7.07324 67.404 7.26836 67.2188 7.56105 67.2188C7.85373 67.2188 8.04885 67.404 8.04885 67.6819V74.5367C8.04885 74.8146 7.85373 74.9998 7.56105 74.9998Z" fill="#3D8CFF"/>
<path d="M28.9756 42.3423C29.3797 42.3423 29.7073 42.0147 29.7073 41.6106C29.7073 41.2065 29.3797 40.8789 28.9756 40.8789C28.5715 40.8789 28.2439 41.2065 28.2439 41.6106C28.2439 42.0147 28.5715 42.3423 28.9756 42.3423Z" fill="#3D8CFF"/>
<path d="M28.9756 42.8296C28.2927 42.8296 27.7561 42.2931 27.7561 41.6101C27.7561 40.9272 28.2927 40.3906 28.9756 40.3906C29.6585 40.3906 30.1951 40.9272 30.1951 41.6101C30.1951 42.2931 29.6585 42.8296 28.9756 42.8296ZM28.9756 41.3175C28.8293 41.3175 28.7317 41.4638 28.7317 41.5614C28.7317 41.6589 28.8781 41.8053 28.9756 41.8053C29.122 41.8053 29.2195 41.7077 29.2195 41.5614C29.2195 41.415 29.122 41.3175 28.9756 41.3175Z" fill="#3D8CFF"/>
<path d="M23.122 46.0967C22.3903 46.0967 22 45.6577 21.8537 45.365C21.7073 45.1211 21.8049 44.8284 22.0488 44.7309C22.2927 44.5845 22.5854 44.6821 22.6829 44.926C22.6829 44.9748 22.8293 45.1211 23.122 45.1211C23.4146 45.1211 23.561 44.926 23.561 44.926C23.7073 44.6821 24 44.5845 24.1951 44.7309C24.439 44.8772 24.5366 45.1699 24.3903 45.365C24.2439 45.6577 23.8537 46.0967 23.122 46.0967Z" fill="#3D8CFF"/>
<path d="M23.122 52.39C21.2683 52.39 20.4878 51.3168 20.439 51.268C20.2927 51.0729 20.3415 50.7314 20.5366 50.5851C20.7317 50.4387 21.0732 50.4875 21.2195 50.6827C21.2195 50.6827 21.7561 51.3656 23.122 51.3656C24.439 51.3656 24.9756 50.6827 25.0244 50.6827C25.1707 50.4875 25.5122 50.4387 25.7073 50.5851C25.9024 50.7314 25.9512 51.0241 25.8049 51.268C25.7561 51.3168 24.9756 52.39 23.122 52.39Z" fill="#3D8CFF"/>
<path d="M26.8293 40.6836C26.8293 40.6836 28.6829 39.708 31.9512 40.6836H26.8293Z" fill="#3D8CFF"/>
<path d="M31.9512 41.1711C31.9024 41.1711 31.8536 41.1711 31.8049 41.1711C28.8293 40.2931 27.0732 41.1224 27.0732 41.1224C26.8293 41.2199 26.5366 41.1224 26.439 40.9272C26.3415 40.6833 26.3902 40.3907 26.6341 40.2931C26.7317 40.2443 28.7317 39.2687 32.0976 40.2443C32.3415 40.3419 32.4878 40.5858 32.439 40.8297C32.3415 41.0736 32.1463 41.1711 31.9512 41.1711Z" fill="#3D8CFF"/>
<path d="M17.2683 42.3423C17.6724 42.3423 18 42.0147 18 41.6106C18 41.2065 17.6724 40.8789 17.2683 40.8789C16.8642 40.8789 16.5366 41.2065 16.5366 41.6106C16.5366 42.0147 16.8642 42.3423 17.2683 42.3423Z" fill="#3D8CFF"/>
<path d="M17.2683 42.8296C16.5854 42.8296 16.0488 42.2931 16.0488 41.6101C16.0488 40.9272 16.5854 40.3906 17.2683 40.3906C17.9512 40.3906 18.4878 40.9272 18.4878 41.6101C18.4878 42.2931 17.9512 42.8296 17.2683 42.8296ZM17.2683 41.3175C17.1219 41.3175 17.0244 41.415 17.0244 41.5614C17.0244 41.7077 17.1219 41.8053 17.2683 41.8053C17.4146 41.8053 17.5122 41.6589 17.5122 41.5614C17.5122 41.4638 17.4146 41.3175 17.2683 41.3175Z" fill="#3D8CFF"/>
<path d="M19.4146 40.6836C19.4146 40.6836 17.561 39.708 14.2927 40.6836H19.4146Z" fill="#3D8CFF"/>
<path d="M14.2927 41.1712C14.0976 41.1712 13.9024 41.0248 13.8049 40.8297C13.7073 40.5858 13.8537 40.2931 14.1463 40.2443C17.561 39.2687 19.5122 40.2443 19.6098 40.2931C19.8537 40.4394 19.9512 40.7321 19.8049 40.9272C19.6585 41.1712 19.4146 41.2687 19.1707 41.1224C19.122 41.1224 17.4146 40.2931 14.439 41.1712C14.3902 41.1712 14.3415 41.1712 14.2927 41.1712Z" fill="#3D8CFF"/>
<path d="M13.9024 39.512C13.7561 39.512 13.561 39.4145 13.4634 39.2681C13.3171 39.0242 13.4146 38.7316 13.6097 38.5852C13.7561 38.4877 16.9756 36.5852 20.6341 38.195C20.878 38.2925 20.9756 38.5852 20.878 38.8291C20.7805 39.073 20.4878 39.1706 20.2439 39.073C17.0732 37.6584 14.1463 39.3657 14.1463 39.3657C14.0976 39.4633 14 39.512 13.9024 39.512Z" fill="#3D8CFF"/>
<path d="M32.2439 39.5115C32.1464 39.5115 32.0976 39.5115 32 39.4627C31.122 38.9749 30.3415 38.7798 29.4634 38.8774C29.122 38.8774 28.8293 38.9262 28.5366 38.9749C27.8049 39.0725 27.0732 39.1701 26.2927 39.0725C26.0488 39.0237 25.8537 38.7798 25.8537 38.5359C25.8537 38.292 26.1464 38.0969 26.3903 38.0969C27.0244 38.1944 27.6585 38.0969 28.3415 37.9993C28.6829 37.9505 29.0244 37.9018 29.3659 37.9018C30.439 37.8042 31.3659 38.0481 32.439 38.6335C32.6829 38.7798 32.7805 39.0725 32.6342 39.3164C32.5854 39.414 32.439 39.5115 32.2439 39.5115Z" fill="#3D8CFF"/>
<path d="M35.8049 34.001C35.7561 34.001 35.6585 34.001 35.6098 34.001C35.3171 34.001 35.1219 33.757 35.1219 33.5131C35.1219 33.2205 35.3659 33.0253 35.6098 33.0253C36 33.0253 36.3902 33.0253 36.8293 32.9766C37.1219 32.9766 37.3171 33.1717 37.3658 33.4156C37.4146 33.6595 37.1707 33.9034 36.9268 33.9522C36.5366 34.001 36.1463 34.001 35.8049 34.001Z" fill="#3D8CFF"/>
<path d="M10.6342 33.6594C10.5854 33.6594 10.5366 33.6594 10.4878 33.6106C9.95123 33.4155 9.65855 33.2691 9.60977 33.2691C9.36586 33.1716 9.2683 32.8789 9.41464 32.635C9.56099 32.3911 9.80489 32.2935 10.0488 32.4399C10.0488 32.4399 10.3415 32.5862 10.7805 32.7325C11.0244 32.8301 11.1707 33.1228 11.0732 33.3667C11.0244 33.5618 10.8293 33.6594 10.6342 33.6594Z" fill="#3D8CFF"/>
<path d="M10.6341 39.4145V44.4877C10.6341 44.4877 10.5854 44.8291 10.5854 45.3657C10.2927 45.3657 9.70732 45.2682 9.65854 45.2194C9.21951 45.0243 8.78049 44.4877 8.73171 43.9999C8.73171 43.8047 8.73171 43.6096 8.82927 43.4633C8.82927 43.4145 9.17073 43.073 9.21951 43.1218C8.87805 42.5852 8.63415 41.9999 8.4878 41.4145C8.34146 40.8291 8.14634 40.0974 8.39024 39.5121C8.58537 39.0243 9.17073 38.6828 9.70732 38.7804C10.0976 38.9755 10.3902 39.2194 10.6341 39.4145Z" fill="#ECF4FF"/>
<path d="M10.5854 45.9028C10.2927 45.9028 9.60975 45.8052 9.46341 45.7077C8.87804 45.415 8.34146 44.7321 8.29267 44.0979C8.24389 43.8053 8.34145 43.5126 8.4878 43.2687C8.4878 43.2687 8.53658 43.1711 8.63414 43.0735C8.39024 42.6345 8.19511 42.1467 8.04877 41.6589C7.85365 40.976 7.65853 40.1467 7.99999 39.415C8.29267 38.7809 9.02438 38.1955 9.90243 38.4394C10.3902 38.5857 10.7805 38.8784 11.0244 39.0735C11.1219 39.1711 11.1707 39.3174 11.1707 39.415V44.4882C11.1707 44.537 11.1707 44.537 11.1707 44.5857C11.1707 44.5857 11.1219 44.8784 11.1219 45.415C11.1219 45.5613 11.0732 45.6589 10.9756 45.7565C10.8293 45.854 10.7317 45.9028 10.5854 45.9028ZM9.26828 43.854C9.26828 43.9028 9.2195 43.9516 9.2195 44.0492C9.26828 44.3418 9.56097 44.7321 9.85365 44.8784C9.85365 44.8784 9.95121 44.8784 10.0976 44.9272C10.0976 44.7321 10.1463 44.5857 10.1463 44.537V39.7077C9.95121 39.5613 9.80487 39.4638 9.60975 39.415C9.31707 39.3174 8.9756 39.5613 8.87804 39.854C8.68292 40.2931 8.82926 40.8784 8.9756 41.415C9.12194 42.0004 9.36584 42.537 9.65853 42.976C9.65853 42.976 9.65853 42.976 9.65853 43.0248C9.80487 43.2687 9.70731 43.5613 9.46341 43.6589C9.46341 43.6589 9.41463 43.6589 9.41463 43.7077C9.36584 43.7077 9.31706 43.8053 9.26828 43.854Z" fill="#3D8CFF"/>
<path d="M37.7561 41.5617C37.6097 42.1471 37.3658 42.7325 37.0244 43.2691C37.0244 43.2203 37.4146 43.5617 37.4146 43.6105C37.5122 43.7569 37.561 43.952 37.5122 44.1471C37.4634 44.6349 37.0244 45.1715 36.5854 45.3666C36.5366 45.4154 35.9512 45.513 35.6585 45.513C35.6585 44.9276 35.6097 44.6349 35.6097 44.6349V39.4154C35.8536 39.1715 36.1951 38.9764 36.4878 38.8788C37.0244 38.7325 37.561 39.1227 37.8049 39.6105C38.0975 40.2447 37.9024 40.9276 37.7561 41.5617Z" fill="#ECF4FF"/>
<path d="M35.6585 45.9025C35.5122 45.9025 35.4146 45.8537 35.3171 45.7562C35.2195 45.6586 35.1707 45.5611 35.1707 45.4147C35.1707 44.9269 35.1219 44.5855 35.1219 44.5855C35.1219 44.5367 35.1219 44.5367 35.1219 44.4879V39.4147C35.1219 39.2684 35.1707 39.1708 35.2683 39.0733C35.5122 38.8294 35.9024 38.5367 36.3902 38.4391C37.2195 38.244 38 38.7806 38.2439 39.4147C38.5854 40.1464 38.3902 40.9757 38.1951 41.6586C38.0488 42.1952 37.8537 42.683 37.6098 43.0733C37.7073 43.1708 37.7561 43.2684 37.7561 43.2684C37.9024 43.5123 37.9512 43.805 37.9512 44.0976C37.9024 44.7318 37.3659 45.4147 36.7805 45.7074C36.6341 45.805 35.9512 45.9025 35.6585 45.9025ZM36.0976 44.4879C36.0976 44.5367 36.1463 44.683 36.1463 44.8781C36.2439 44.8781 36.3415 44.8294 36.3902 44.8294C36.6829 44.683 36.9756 44.2928 36.9756 44.0001C36.9756 43.9513 36.9756 43.8537 36.9756 43.805C36.9268 43.7562 36.878 43.7074 36.7805 43.6586C36.7805 43.6586 36.7317 43.6586 36.7317 43.6098C36.4878 43.4635 36.439 43.1708 36.5366 42.9757C36.5366 42.9757 36.5366 42.9757 36.5366 42.9269C36.8293 42.4879 37.0732 41.9513 37.2195 41.3659C37.3659 40.7806 37.5122 40.1952 37.3171 39.805C37.1707 39.5123 36.878 39.2684 36.5854 39.3659C36.439 39.4147 36.2439 39.5123 36.0488 39.6586V44.4879H36.0976Z" fill="#3D8CFF"/>
<path d="M38.878 39.2209V59.5624C37.6585 58.6843 36.3415 57.9526 34.9756 57.2697C34.3902 56.977 33.7561 56.6843 33.1219 56.2941C32.1951 55.7575 31.4146 55.0745 31.0244 54.2453C35.0732 50.8794 35.6097 47.0746 35.6585 45.416C35.9512 45.416 36.4878 45.3185 36.5854 45.2697C37.0244 45.0746 37.4634 44.538 37.5122 44.0502C37.5122 43.855 37.5122 43.6599 37.4146 43.5136C37.4146 43.4648 37.0732 43.1233 37.0244 43.1721C37.3658 42.6355 37.6098 42.0502 37.7561 41.4648C37.9024 40.8794 38.0976 40.1477 37.8537 39.5624C37.6585 39.0746 37.0732 38.7331 36.5366 38.8306C36.1951 38.9282 35.9024 39.1233 35.6585 39.3672V33.5136C29.8537 33.416 31.1219 28.7819 31.1219 28.7819C23.5122 36.4892 14.3415 34.4404 10.6829 33.1721V39.416C10.439 39.1721 10.0976 38.977 9.80487 38.8794C9.26829 38.7331 8.7317 39.1233 8.4878 39.6111C8.2439 40.1965 8.39024 40.9282 8.58536 41.5136C8.7317 42.0989 8.9756 42.6843 9.31707 43.2209C9.31707 43.1721 8.9756 43.5136 8.92682 43.5624C8.82926 43.7087 8.78048 43.9038 8.82926 44.0989C8.87804 44.5867 9.31707 45.1233 9.75609 45.3185C9.80487 45.3672 10.3902 45.4648 10.6829 45.4648C10.6829 47.1233 11.2195 50.9282 15.3171 54.2941C14.9268 55.1721 14.0976 55.8063 13.2195 56.3428C12.5854 56.7331 11.9512 57.0258 11.3658 57.3185C10.0488 58.0014 8.68292 58.7331 7.46341 59.6111V39.2209C7.46341 35.2209 7.75609 31.6599 9.60975 28.0989C10.9268 25.5624 12.8293 23.2697 15.2683 21.7087C17.6585 20.1965 20.3902 19.5136 23.2195 19.416C26 19.4648 28.7805 20.1965 31.1707 21.7087C33.6098 23.2697 35.5122 25.5136 36.8293 28.0989C38.5854 31.6599 38.878 35.2697 38.878 39.2209Z" fill="#3D8CFF"/>
<path d="M7.36586 60.0497C7.2683 60.0497 7.21952 60.0497 7.12195 60.0009C6.97561 59.9033 6.87805 59.757 6.87805 59.5619V39.2204C6.87805 34.8302 7.2683 31.3668 9.07317 27.8546C10.5366 25.0253 12.5366 22.7814 14.9268 21.2692C17.2683 19.8058 20.0976 18.9765 23.122 18.9277C26.1951 18.9765 29.0244 19.8058 31.3171 21.2692C33.6585 22.7814 35.7073 25.0253 37.1707 27.8546C39.0244 31.3668 39.3659 34.8302 39.3659 39.2204V59.5619C39.3659 59.757 39.2683 59.9033 39.122 60.0009C38.9756 60.0985 38.7805 60.0497 38.6341 59.9521C37.5122 59.1716 36.2439 58.4399 34.8293 57.7082L34.5366 57.5619C34.0488 57.318 33.5122 57.0253 32.9756 56.7326C31.7561 56.0009 31.0244 55.2692 30.6829 54.4399C30.5854 54.2448 30.6341 54.0009 30.8293 53.8546C34.7805 50.5863 35.2683 46.8302 35.2683 45.4155C35.2683 45.1716 35.5122 44.9277 35.7561 44.9277C35.9512 44.9277 36.3902 44.879 36.4878 44.8302C36.7805 44.6838 37.0732 44.2936 37.0732 44.0009C37.0732 43.9521 37.0732 43.8546 37.0732 43.8058C37.0244 43.757 36.9756 43.7082 36.8781 43.6594C36.8781 43.6594 36.8293 43.6594 36.8293 43.6107C36.5854 43.4643 36.5366 43.1716 36.6341 42.9765C36.6341 42.9765 36.6341 42.9765 36.6341 42.9277C36.9268 42.4887 37.1707 41.9521 37.3171 41.3668C37.4634 40.7814 37.6098 40.196 37.4146 39.8058C37.2683 39.5131 36.9756 39.2692 36.6829 39.3668C36.4878 39.4155 36.2439 39.5619 36 39.757C35.8537 39.9033 35.6585 39.9521 35.4634 39.8546C35.2683 39.757 35.1707 39.6107 35.1707 39.4155V33.9521C33.3659 33.8546 32.0488 33.2692 31.2683 32.2448C30.7317 31.5131 30.5366 30.6838 30.4878 30.0009C23.3171 36.4887 15.0244 35.0253 11.1707 33.8058V39.3668C11.1707 39.5619 11.0732 39.757 10.8781 39.8058C10.6829 39.9033 10.4878 39.8546 10.3415 39.7082C10.1463 39.5131 9.90244 39.3668 9.65854 39.318C9.36586 39.2204 9.02439 39.4643 8.92683 39.757C8.73171 40.196 8.87805 40.7814 9.02439 41.318C9.17073 41.9033 9.41464 42.4399 9.70732 42.879C9.70732 42.879 9.70732 42.879 9.70732 42.9277C9.85366 43.1716 9.7561 43.4643 9.5122 43.5619C9.5122 43.5619 9.46342 43.5619 9.46342 43.6107C9.41464 43.6594 9.31708 43.7082 9.2683 43.757C9.2683 43.8058 9.21951 43.8546 9.21951 43.9521C9.2683 44.2448 9.56098 44.6351 9.85366 44.7814C9.90244 44.7814 10.3415 44.879 10.5854 44.879C10.8293 44.879 11.0732 45.0741 11.0732 45.3668C11.0732 46.8302 11.5122 50.5375 15.5122 53.8058C15.6585 53.9521 15.7561 54.196 15.6585 54.3911C15.2683 55.2204 14.5366 55.9521 13.3659 56.6838C12.8293 56.9765 12.2927 57.2692 11.8049 57.5131L11.5122 57.6594C10.0488 58.3911 8.78049 59.1229 7.70732 59.9033C7.56098 60.0497 7.46342 60.0497 7.36586 60.0497ZM7.85366 40.879V58.635C8.82927 58.0009 9.85366 57.4155 11.0244 56.8302L11.3171 56.6838C11.8049 56.4399 12.3415 56.196 12.8293 55.8546C13.6585 55.3668 14.2439 54.879 14.5854 54.3424C10.9268 51.1716 10.1951 47.6107 10.0976 45.8546C9.80488 45.8058 9.56098 45.757 9.41464 45.7082C8.82927 45.4155 8.29269 44.7326 8.24391 44.0985C8.19512 43.8058 8.29269 43.5131 8.43903 43.2692C8.43903 43.2692 8.48781 43.1716 8.58537 43.0741C8.34147 42.6351 8.14634 42.1472 8 41.6594C7.95122 41.4155 7.90244 41.1716 7.85366 40.879ZM31.6585 54.3424C32 54.879 32.5366 55.3668 33.4146 55.8546C33.9024 56.1472 34.439 56.3911 34.9268 56.6351L35.2195 56.7814C36.3902 57.3668 37.4146 57.9521 38.3902 58.5863V40.879C38.3415 41.1229 38.2927 41.4155 38.1951 41.6594C38.0488 42.196 37.8537 42.6838 37.6098 43.1229C37.7073 43.2204 37.7561 43.318 37.7561 43.318C37.9024 43.5619 37.9512 43.8546 37.9512 44.1472C37.9024 44.7814 37.3659 45.4643 36.7805 45.757C36.6829 45.8058 36.3902 45.8546 36.1463 45.9033C36.0488 47.6107 35.3171 51.1716 31.6585 54.3424ZM36.7317 38.3911C37.4146 38.3911 38 38.879 38.2439 39.4155C38.2927 39.5619 38.3415 39.7082 38.3902 39.8058V39.2204C38.3902 34.9765 38.0488 31.6594 36.2927 28.2936C34.9268 25.6594 33.0244 23.5131 30.7805 22.0985C28.5854 20.7326 25.9512 19.9521 23.0732 19.9033C20.2439 19.9521 17.561 20.7326 15.4146 22.0985C13.2195 23.5131 11.3171 25.6594 9.90244 28.2936C8.14634 31.6107 7.80488 34.9277 7.80488 39.2204V39.8058C7.85366 39.6594 7.85366 39.5131 7.95122 39.4155C8.2439 38.7814 8.97561 38.196 9.85366 38.4399C9.95122 38.4887 10.0488 38.4887 10.1463 38.5375V33.1716C10.1463 33.0253 10.2439 32.879 10.3415 32.7814C10.4878 32.6838 10.6341 32.6838 10.7805 32.7326C14.2927 33.9521 23.2683 36.0009 30.6829 28.4399C30.8293 28.2936 31.0732 28.2448 31.2683 28.3424C31.4634 28.4399 31.561 28.6838 31.5122 28.879C31.5122 28.879 31.122 30.4887 32 31.6594C32.6341 32.5375 33.8537 32.9765 35.6098 32.9765C35.8537 32.9765 36.0976 33.2204 36.0976 33.4643V38.5375C36.1951 38.4887 36.2927 38.4887 36.3902 38.4399C36.4878 38.3911 36.6342 38.3911 36.7317 38.3911Z" fill="#3D8CFF"/>
<path d="M38.8781 60.0479C38.5854 60.0479 38.3903 59.8528 38.3903 59.5601C38.3903 59.2674 38.5854 59.0723 38.8781 59.0723C39.1707 59.0723 39.3659 59.2674 39.3659 59.5601C39.3659 59.8528 39.1707 60.0479 38.8781 60.0479Z" fill="#3D8CFF"/>
<path d="M50.3001 17.8558C51.0156 17.9353 51.6517 18.0148 52.3274 18.0943C52.3672 18.0148 52.3672 17.8956 52.3672 17.8161C52.3672 16.703 52.3672 15.59 52.3672 14.477C52.3672 14.1193 52.4864 14 52.8442 14C55.3087 14 57.7335 14 60.1981 14C60.3968 14 60.5161 14.0795 60.6353 14.1988C61.7086 15.3913 62.7421 16.5838 63.8154 17.7763C64.0539 18.0546 64.0539 18.2136 63.8154 18.4918C61.5098 21.3539 59.2043 24.2159 56.859 27.078C56.6205 27.3562 56.3422 27.396 56.1037 27.1177C54.0765 24.6134 52.0492 22.0694 49.9821 19.5651C49.6641 19.2073 49.3859 18.8098 49.0679 18.4521C48.9089 18.2533 48.9089 18.0546 49.0679 17.8558C49.6641 17.1801 50.2604 16.5043 50.8566 15.8285C50.9759 15.6695 51.1349 15.59 51.3337 15.6695C51.6119 15.7888 51.6914 16.1068 51.4927 16.385C51.1349 16.8223 50.7374 17.2596 50.3399 17.6571C50.4194 17.6968 50.3796 17.7763 50.3001 17.8558ZM58.4093 23.8979C58.449 23.8582 58.4888 23.8582 58.4888 23.8184C59.8403 22.1886 61.1521 20.5191 62.5036 18.8893C62.5433 18.8496 62.5831 18.8098 62.5434 18.7701C61.9073 18.8496 61.3111 18.9291 60.6751 19.0086C60.5558 19.0086 60.5161 19.0881 60.5161 19.1676C59.7608 20.6781 59.0453 22.2681 58.4093 23.8979C58.3695 23.8979 58.3695 23.9377 58.3695 23.9377C58.3695 23.9377 58.3695 23.8979 58.4093 23.8979ZM59.6018 19.0086C57.5348 19.0086 55.5075 19.0086 53.4404 19.0086C54.474 21.2744 55.4677 23.5402 56.541 25.8855C57.5348 23.5402 58.5683 21.2744 59.6018 19.0086ZM59.3235 18.1738C58.4093 17.1403 57.5348 16.1863 56.6205 15.1925C56.5012 15.0733 56.4615 15.1528 56.382 15.2323C55.7062 15.9875 55.0305 16.7428 54.3547 17.4981C54.156 17.7366 53.9572 17.9353 53.7187 18.1738C55.587 18.1738 57.4155 18.1738 59.3235 18.1738ZM54.7125 23.9774C54.7125 23.8582 54.7125 23.8582 54.7125 23.8184C53.9969 22.2284 53.2814 20.6781 52.6057 19.0881C52.5659 18.9688 52.4864 18.9291 52.3274 18.9291C52.0889 18.8893 51.8504 18.8496 51.6119 18.8496C51.2541 18.8098 50.8964 18.7701 50.4591 18.7303C51.8902 20.4794 53.2814 22.2284 54.7125 23.9774ZM55.587 14.8348C54.792 14.8348 54.1162 14.8348 53.4007 14.8348C53.2417 14.8348 53.2019 14.8745 53.2019 15.0335C53.2019 15.3515 53.2019 15.7093 53.2019 16.0273C53.2019 16.5043 53.2019 16.9416 53.2019 17.4583C53.9969 16.5838 54.7522 15.749 55.587 14.8348ZM57.4553 14.8348C58.2503 15.749 59.0055 16.5838 59.8403 17.4583C59.8403 16.5838 59.8403 15.749 59.8403 14.954C59.8403 14.8348 59.7608 14.8348 59.6813 14.8348C58.9658 14.8348 58.2503 14.8348 57.4553 14.8348ZM62.7421 17.8558C62.0266 17.0608 61.3906 16.3453 60.6751 15.5503C60.6751 16.4248 60.6751 17.2596 60.6751 18.1341C61.3508 18.0148 62.0266 17.9353 62.7421 17.8558Z" fill="#28343A"/>
<path d="M68.0289 32.2852C67.9494 32.2852 67.8699 32.2852 67.7507 32.2852C65.0476 32.2852 62.3048 32.2852 59.6018 32.2852C59.5223 32.2852 59.4428 32.2852 59.3235 32.2852C59.1248 32.2455 59.0055 32.0865 59.0055 31.8877C59.0055 31.689 59.1248 31.53 59.3235 31.4902C59.403 31.4902 59.4825 31.4902 59.562 31.4902C62.5036 31.4902 65.4452 31.4902 68.3867 31.4902C68.8637 31.4902 69.0625 31.689 68.983 32.166C68.824 33.2393 67.9892 33.9945 66.8762 33.9945C59.9596 33.9945 53.0429 33.9945 46.1263 33.9945C45.053 33.9945 44.1785 33.2393 44.0195 32.166C43.94 31.689 44.099 31.4902 44.576 31.4902C47.5176 31.4902 50.4591 31.4902 53.4007 31.4902C53.4802 31.4902 53.5597 31.4902 53.5994 31.4902C53.8379 31.53 53.9572 31.689 53.9572 31.8877C53.9572 32.1262 53.7982 32.2455 53.5994 32.2852C53.5199 32.2852 53.4404 32.2852 53.3212 32.2852C50.6181 32.2852 47.8753 32.2852 45.1723 32.2852C45.0928 32.2852 44.9735 32.2455 44.9338 32.325C44.894 32.4045 44.9735 32.484 45.0133 32.5635C45.2915 32.961 45.6493 33.12 46.1263 33.12C49.7436 33.12 53.3609 33.12 56.9782 33.12C60.2378 33.12 63.4974 33.12 66.7569 33.12C67.2737 33.12 67.6712 32.8815 67.9494 32.4442C68.0289 32.4045 68.0687 32.3647 68.0289 32.2852Z" fill="black"/>
<path d="M45.689 23.5001C45.689 21.3536 45.689 19.207 45.689 17.1003C45.689 16.186 46.166 15.709 47.1201 15.709C47.5971 15.709 48.0741 15.709 48.5113 15.709C48.8293 15.709 49.0281 15.868 49.0281 16.1462C49.0281 16.3847 48.8293 16.5437 48.5113 16.5437C48.0343 16.5437 47.5573 16.5437 47.1201 16.5437C46.643 16.5437 46.5238 16.663 46.5238 17.14C46.5238 21.4331 46.5238 25.7659 46.5238 30.059C46.5238 30.0987 46.5238 30.1782 46.5238 30.218C46.5238 30.536 46.3648 30.695 46.0865 30.695C45.848 30.695 45.689 30.4962 45.689 30.218C45.689 27.9124 45.689 25.6864 45.689 23.5001Z" fill="black"/>
<path d="M67.3134 23.5008C67.3134 25.6871 67.3134 27.8734 67.3134 30.0597C67.3134 30.1392 67.3134 30.1789 67.3134 30.2584C67.2737 30.4969 67.1147 30.6559 66.9159 30.6559C66.7172 30.6559 66.5184 30.4969 66.5184 30.2584C66.5184 30.1789 66.5184 30.0994 66.5184 29.9802C66.5184 25.6871 66.5184 21.394 66.5184 17.1009C66.5184 16.6239 66.3992 16.5047 65.9222 16.5047C65.4452 16.5047 65.0079 16.5047 64.5309 16.5047C64.2129 16.5047 64.0539 16.3457 64.0141 16.1072C64.0141 15.8289 64.2129 15.6699 64.5309 15.6699C65.0476 15.6699 65.5644 15.6699 66.0812 15.6699C66.8364 15.6699 67.3532 16.2264 67.3532 16.9817C67.3134 19.168 67.3134 21.3145 67.3134 23.5008Z" fill="black"/>
<path d="M58.4093 23.897C58.4093 23.9368 58.4093 23.9368 58.3695 23.9368C58.3298 23.897 58.3695 23.8572 58.4093 23.897C58.3695 23.8572 58.3695 23.8572 58.4093 23.897Z" fill="#FDFDFD"/>
<path d="M23.1218 79C22.8292 79 22.634 78.8417 22.634 78.6042V64.3958C22.634 64.1583 22.8292 64 23.1218 64C23.4145 64 23.6096 64.1583 23.6096 64.3958V78.6042C23.6096 78.8021 23.4145 79 23.1218 79Z" fill="#3D8CFF"/>
</svg>
