<svg width="295" height="184" viewBox="0 0 295 184" fill="none" xmlns="http://www.w3.org/2000/svg">
<circle cx="287.5" cy="16.5" r="7.5" fill="white" fill-opacity="0.5"/>
<circle cx="242.5" cy="16.5" r="7.5" fill="white" fill-opacity="0.5"/>
<rect width="214" height="33" rx="16.5" fill="#FCFCFC"/>
<path d="M16.6943 22V12.72L14.8863 13.136V11.888L17.3663 10.8H18.4543V22H16.6943Z" fill="#2D64B6"/>
<path d="M58.3339 22V20.784C59.0592 20.208 59.7525 19.6267 60.4139 19.04C61.0752 18.4533 61.6619 17.8773 62.1739 17.312C62.6965 16.736 63.1072 16.176 63.4059 15.632C63.7045 15.0773 63.8539 14.544 63.8539 14.032C63.8539 13.6907 63.7952 13.3707 63.6779 13.072C63.5605 12.7627 63.3685 12.5173 63.1019 12.336C62.8352 12.144 62.4779 12.048 62.0299 12.048C61.3579 12.048 60.8512 12.2613 60.5099 12.688C60.1792 13.1147 60.0192 13.6267 60.0299 14.224H58.3819C58.3925 13.4347 58.5579 12.7733 58.8779 12.24C59.2085 11.7067 59.6459 11.3013 60.1899 11.024C60.7445 10.7467 61.3685 10.608 62.0619 10.608C63.1179 10.608 63.9605 10.9067 64.5899 11.504C65.2299 12.0907 65.5499 12.912 65.5499 13.968C65.5499 14.5973 65.3952 15.2213 65.0859 15.84C64.7872 16.4587 64.3925 17.056 63.9019 17.632C63.4219 18.1973 62.9045 18.7307 62.3499 19.232C61.7952 19.7333 61.2672 20.1867 60.7659 20.592H65.8859V22H58.3339Z" fill="#2D64B6"/>
<path d="M106.986 22.192C106.26 22.192 105.599 22.064 105.002 21.808C104.415 21.5413 103.946 21.1413 103.594 20.608C103.242 20.0747 103.055 19.408 103.034 18.608H104.714C104.735 19.2053 104.938 19.712 105.322 20.128C105.716 20.5333 106.271 20.736 106.986 20.736C107.668 20.736 108.191 20.5493 108.554 20.176C108.916 19.792 109.098 19.3173 109.098 18.752C109.098 18.0693 108.852 17.5627 108.362 17.232C107.882 16.9013 107.29 16.736 106.586 16.736H105.754V15.328H106.602C107.231 15.328 107.738 15.1787 108.122 14.88C108.516 14.5813 108.714 14.16 108.714 13.616C108.714 13.1573 108.559 12.784 108.25 12.496C107.951 12.208 107.524 12.064 106.97 12.064C106.394 12.064 105.94 12.2347 105.61 12.576C105.279 12.9067 105.098 13.3227 105.066 13.824H103.386C103.407 13.1733 103.567 12.608 103.866 12.128C104.175 11.648 104.596 11.2747 105.13 11.008C105.663 10.7413 106.276 10.608 106.97 10.608C107.716 10.608 108.34 10.7413 108.842 11.008C109.354 11.264 109.738 11.616 109.994 12.064C110.26 12.5013 110.394 12.9813 110.394 13.504C110.394 14.1013 110.228 14.624 109.898 15.072C109.567 15.52 109.124 15.8187 108.57 15.968C109.21 16.1067 109.738 16.4213 110.154 16.912C110.57 17.392 110.778 18.016 110.778 18.784C110.778 19.4027 110.634 19.9733 110.346 20.496C110.058 21.008 109.631 21.4187 109.066 21.728C108.5 22.0373 107.807 22.192 106.986 22.192Z" fill="#2D64B6"/>
<path d="M153.256 22V19.76H147.64V18.416L152.984 10.8H154.936V18.288H156.504V19.76H154.936V22H153.256ZM149.48 18.288H153.352V12.672L149.48 18.288Z" fill="#2D64B6"/>
<path d="M197.11 22.192C196.321 22.192 195.638 22.0533 195.062 21.776C194.486 21.488 194.028 21.0987 193.686 20.608C193.356 20.1067 193.153 19.5413 193.078 18.912H194.742C194.849 19.4453 195.116 19.888 195.542 20.24C195.969 20.5813 196.497 20.752 197.126 20.752C197.596 20.752 198.001 20.64 198.342 20.416C198.684 20.1813 198.95 19.872 199.142 19.488C199.334 19.104 199.43 18.672 199.43 18.192C199.43 17.4347 199.217 16.832 198.79 16.384C198.364 15.9253 197.825 15.696 197.174 15.696C196.62 15.696 196.145 15.8293 195.75 16.096C195.356 16.352 195.068 16.6773 194.886 17.072H193.27L194.23 10.8H200.278V12.288H195.51L194.934 15.28C195.18 15.0027 195.516 14.7733 195.942 14.592C196.38 14.4 196.87 14.304 197.414 14.304C198.172 14.304 198.822 14.48 199.366 14.832C199.91 15.1733 200.326 15.6373 200.614 16.224C200.913 16.8107 201.062 17.4613 201.062 18.176C201.062 18.9227 200.902 19.6 200.582 20.208C200.262 20.816 199.804 21.3013 199.206 21.664C198.62 22.016 197.921 22.192 197.11 22.192Z" fill="#2D64B6"/>
<circle cx="287.5" cy="56.5" r="7.5" fill="white" fill-opacity="0.5"/>
<circle cx="242.5" cy="56.5" r="7.5" fill="white" fill-opacity="0.5"/>
<rect y="40" width="214" height="33" rx="16.5" fill="#FCFCFC"/>
<path d="M17.6933 62.192C16.872 62.192 16.1786 62.0373 15.6133 61.728C15.048 61.4187 14.5893 61.008 14.2373 60.496C13.896 59.984 13.6506 59.408 13.5013 58.768C13.352 58.128 13.2773 57.472 13.2773 56.8C13.2773 55.5627 13.448 54.48 13.7893 53.552C14.1413 52.624 14.6426 51.904 15.2933 51.392C15.944 50.8693 16.7333 50.608 17.6613 50.608C18.3973 50.608 19.0266 50.752 19.5493 51.04C20.072 51.328 20.4773 51.712 20.7653 52.192C21.064 52.672 21.2453 53.1947 21.3093 53.76H19.7253C19.6293 53.2053 19.4 52.7787 19.0373 52.48C18.6746 52.1813 18.2106 52.032 17.6453 52.032C16.8666 52.032 16.2213 52.4 15.7093 53.136C15.208 53.8613 14.9413 54.9813 14.9093 56.496C15.1653 56.0267 15.56 55.6267 16.0933 55.296C16.6373 54.9653 17.2613 54.8 17.9653 54.8C18.5946 54.8 19.1813 54.9493 19.7253 55.248C20.28 55.5467 20.728 55.968 21.0693 56.512C21.4213 57.0453 21.5973 57.68 21.5973 58.416C21.5973 59.0667 21.4373 59.68 21.1173 60.256C20.7973 60.832 20.344 61.3013 19.7573 61.664C19.1813 62.016 18.4933 62.192 17.6933 62.192ZM17.5973 60.72C18.0453 60.72 18.4453 60.624 18.7973 60.432C19.1493 60.24 19.4266 59.9787 19.6293 59.648C19.832 59.3067 19.9333 58.9227 19.9333 58.496C19.9333 57.8133 19.7093 57.2693 19.2613 56.864C18.824 56.4587 18.264 56.256 17.5813 56.256C17.1333 56.256 16.728 56.3573 16.3653 56.56C16.0133 56.7627 15.736 57.0347 15.5333 57.376C15.3306 57.7067 15.2293 58.0747 15.2293 58.48C15.2293 58.9173 15.3306 59.3067 15.5333 59.648C15.7466 59.9787 16.0293 60.24 16.3813 60.432C16.744 60.624 17.1493 60.72 17.5973 60.72Z" fill="#2D64B6"/>
<path d="M60.1466 62L64.4826 52.256H58.6586V50.8H66.2266V52.032L61.9226 62H60.1466Z" fill="#2D64B6"/>
<path d="M106.999 62.192C106.252 62.192 105.575 62.0587 104.967 61.792C104.37 61.5147 103.89 61.1307 103.527 60.64C103.175 60.1493 102.999 59.5733 102.999 58.912C102.999 58.24 103.186 57.6373 103.559 57.104C103.943 56.5707 104.45 56.208 105.079 56.016C104.514 55.792 104.076 55.4667 103.767 55.04C103.458 54.6027 103.303 54.1227 103.303 53.6C103.303 53.056 103.447 52.56 103.735 52.112C104.023 51.6533 104.439 51.2907 104.983 51.024C105.538 50.7467 106.21 50.608 106.999 50.608C107.788 50.608 108.455 50.7467 108.999 51.024C109.554 51.2907 109.975 51.6533 110.263 52.112C110.551 52.56 110.695 53.056 110.695 53.6C110.695 54.112 110.535 54.592 110.215 55.04C109.906 55.4773 109.468 55.8027 108.903 56.016C109.532 56.2187 110.034 56.5867 110.407 57.12C110.791 57.6427 110.983 58.24 110.983 58.912C110.983 59.5733 110.807 60.1493 110.455 60.64C110.103 61.1307 109.623 61.5147 109.015 61.792C108.418 62.0587 107.746 62.192 106.999 62.192ZM106.999 55.472C107.618 55.472 108.103 55.312 108.455 54.992C108.818 54.672 108.999 54.2613 108.999 53.76C108.999 53.1947 108.823 52.7627 108.471 52.464C108.119 52.1653 107.628 52.016 106.999 52.016C106.37 52.016 105.879 52.1653 105.527 52.464C105.175 52.7627 104.999 53.1947 104.999 53.76C104.999 54.2613 105.175 54.672 105.527 54.992C105.879 55.312 106.37 55.472 106.999 55.472ZM106.999 60.752C107.767 60.752 108.343 60.5707 108.727 60.208C109.111 59.8347 109.303 59.36 109.303 58.784C109.303 58.144 109.095 57.6533 108.679 57.312C108.274 56.96 107.714 56.784 106.999 56.784C106.284 56.784 105.719 56.96 105.303 57.312C104.887 57.6533 104.679 58.144 104.679 58.784C104.679 59.36 104.871 59.8347 105.255 60.208C105.65 60.5707 106.231 60.752 106.999 60.752Z" fill="#2D64B6"/>
<path d="M152.341 62.192C151.605 62.192 150.976 62.048 150.453 61.76C149.931 61.472 149.52 61.088 149.221 60.608C148.933 60.128 148.757 59.6053 148.693 59.04H150.277C150.373 59.5947 150.603 60.0213 150.965 60.32C151.328 60.6187 151.792 60.768 152.357 60.768C153.136 60.768 153.776 60.4053 154.277 59.68C154.789 58.944 155.061 57.8187 155.093 56.304C154.837 56.7733 154.437 57.1733 153.893 57.504C153.36 57.8347 152.741 58 152.037 58C151.408 58 150.816 57.8507 150.261 57.552C149.707 57.2533 149.259 56.8373 148.917 56.304C148.576 55.76 148.405 55.12 148.405 54.384C148.405 53.7333 148.565 53.12 148.885 52.544C149.205 51.968 149.653 51.504 150.229 51.152C150.816 50.7893 151.509 50.608 152.309 50.608C153.131 50.608 153.824 50.7627 154.389 51.072C154.955 51.3813 155.408 51.792 155.749 52.304C156.091 52.816 156.336 53.392 156.485 54.032C156.645 54.672 156.725 55.328 156.725 56C156.725 57.2373 156.549 58.32 156.197 59.248C155.856 60.176 155.36 60.9013 154.709 61.424C154.059 61.936 153.269 62.192 152.341 62.192ZM152.421 56.544C152.869 56.544 153.269 56.4427 153.621 56.24C153.973 56.0373 154.251 55.7707 154.453 55.44C154.667 55.0987 154.773 54.7253 154.773 54.32C154.773 53.8827 154.667 53.4987 154.453 53.168C154.251 52.8267 153.968 52.56 153.605 52.368C153.253 52.176 152.853 52.08 152.405 52.08C151.957 52.08 151.557 52.176 151.205 52.368C150.853 52.56 150.571 52.8267 150.357 53.168C150.155 53.4987 150.053 53.8773 150.053 54.304C150.053 54.9867 150.277 55.5307 150.725 55.936C151.173 56.3413 151.739 56.544 152.421 56.544Z" fill="#2D64B6"/>
<path d="M191.577 62V52.72L189.769 53.136V51.888L192.249 50.8H193.337V62H191.577ZM200.093 62.192C199.079 62.192 198.205 61.952 197.469 61.472C196.743 60.9813 196.183 60.304 195.789 59.44C195.405 58.5653 195.213 57.552 195.213 56.4C195.213 55.248 195.405 54.24 195.789 53.376C196.183 52.5013 196.743 51.824 197.469 51.344C198.205 50.8533 199.079 50.608 200.093 50.608C201.106 50.608 201.975 50.8533 202.701 51.344C203.426 51.824 203.981 52.5013 204.365 53.376C204.759 54.24 204.957 55.248 204.957 56.4C204.957 57.552 204.759 58.5653 204.365 59.44C203.981 60.304 203.426 60.9813 202.701 61.472C201.975 61.952 201.106 62.192 200.093 62.192ZM200.093 60.672C200.701 60.672 201.239 60.5013 201.709 60.16C202.189 59.8187 202.562 59.328 202.829 58.688C203.095 58.048 203.229 57.2853 203.229 56.4C203.229 55.5147 203.095 54.752 202.829 54.112C202.562 53.472 202.189 52.9813 201.709 52.64C201.239 52.2987 200.701 52.128 200.093 52.128C199.474 52.128 198.93 52.2987 198.461 52.64C197.991 52.9813 197.623 53.472 197.357 54.112C197.09 54.752 196.957 55.5147 196.957 56.4C196.957 57.2853 197.09 58.048 197.357 58.688C197.623 59.328 197.991 59.8187 198.461 60.16C198.93 60.5013 199.474 60.672 200.093 60.672Z" fill="#2D64B6"/>
<circle cx="17.5" cy="96.5" r="7.5" fill="white" fill-opacity="0.5"/>
<circle cx="287.5" cy="96.5" r="7.5" fill="white" fill-opacity="0.5"/>
<circle cx="107.5" cy="96.5" r="7.5" fill="white" fill-opacity="0.5"/>
<circle cx="62.5" cy="96.5" r="7.5" fill="white" fill-opacity="0.5"/>
<circle cx="152.5" cy="96.5" r="7.5" fill="white" fill-opacity="0.5"/>
<circle cx="197.5" cy="96.5" r="7.5" fill="white" fill-opacity="0.5"/>
<circle cx="242.5" cy="96.5" r="7.5" fill="white" fill-opacity="0.5"/>
<circle cx="17.5" cy="136.5" r="7.5" fill="white" fill-opacity="0.5"/>
<circle cx="287.5" cy="136.5" r="7.5" fill="white" fill-opacity="0.5"/>
<circle cx="107.5" cy="136.5" r="7.5" fill="white" fill-opacity="0.5"/>
<circle cx="62.5" cy="136.5" r="7.5" fill="white" fill-opacity="0.5"/>
<circle cx="152.5" cy="136.5" r="7.5" fill="white" fill-opacity="0.5"/>
<circle cx="197.5" cy="136.5" r="7.5" fill="white" fill-opacity="0.5"/>
<circle cx="242.5" cy="136.5" r="7.5" fill="white" fill-opacity="0.5"/>
<circle cx="17.5" cy="176.5" r="7.5" fill="white" fill-opacity="0.5"/>
<circle cx="107.5" cy="176.5" r="7.5" fill="white" fill-opacity="0.5"/>
<circle cx="62.5" cy="176.5" r="7.5" fill="white" fill-opacity="0.5"/>
</svg>
