<svg width="295" height="184" viewBox="0 0 295 184" fill="none" xmlns="http://www.w3.org/2000/svg">
<circle cx="287.5" cy="16.5" r="7.5" fill="white" fill-opacity="0.5"/>
<circle cx="242.5" cy="16.5" r="7.5" fill="white" fill-opacity="0.5"/>
<rect width="214" height="33" rx="16.5" fill="#FCFCFC"/>
<path d="M16.6943 22V12.72L14.8863 13.136V11.888L17.3663 10.8H18.4543V22H16.6943Z" fill="#2D64B6"/>
<path d="M58.3339 22V20.784C59.0592 20.208 59.7525 19.6267 60.4139 19.04C61.0752 18.4533 61.6619 17.8773 62.1739 17.312C62.6965 16.736 63.1072 16.176 63.4059 15.632C63.7045 15.0773 63.8539 14.544 63.8539 14.032C63.8539 13.6907 63.7952 13.3707 63.6779 13.072C63.5605 12.7627 63.3685 12.5173 63.1019 12.336C62.8352 12.144 62.4779 12.048 62.0299 12.048C61.3579 12.048 60.8512 12.2613 60.5099 12.688C60.1792 13.1147 60.0192 13.6267 60.0299 14.224H58.3819C58.3925 13.4347 58.5579 12.7733 58.8779 12.24C59.2085 11.7067 59.6459 11.3013 60.1899 11.024C60.7445 10.7467 61.3685 10.608 62.0619 10.608C63.1179 10.608 63.9605 10.9067 64.5899 11.504C65.2299 12.0907 65.5499 12.912 65.5499 13.968C65.5499 14.5973 65.3952 15.2213 65.0859 15.84C64.7872 16.4587 64.3925 17.056 63.9019 17.632C63.4219 18.1973 62.9045 18.7307 62.3499 19.232C61.7952 19.7333 61.2672 20.1867 60.7659 20.592H65.8859V22H58.3339Z" fill="#2D64B6"/>
<path d="M106.986 22.192C106.26 22.192 105.599 22.064 105.002 21.808C104.415 21.5413 103.946 21.1413 103.594 20.608C103.242 20.0747 103.055 19.408 103.034 18.608H104.714C104.735 19.2053 104.938 19.712 105.322 20.128C105.716 20.5333 106.271 20.736 106.986 20.736C107.668 20.736 108.191 20.5493 108.554 20.176C108.916 19.792 109.098 19.3173 109.098 18.752C109.098 18.0693 108.852 17.5627 108.362 17.232C107.882 16.9013 107.29 16.736 106.586 16.736H105.754V15.328H106.602C107.231 15.328 107.738 15.1787 108.122 14.88C108.516 14.5813 108.714 14.16 108.714 13.616C108.714 13.1573 108.559 12.784 108.25 12.496C107.951 12.208 107.524 12.064 106.97 12.064C106.394 12.064 105.94 12.2347 105.61 12.576C105.279 12.9067 105.098 13.3227 105.066 13.824H103.386C103.407 13.1733 103.567 12.608 103.866 12.128C104.175 11.648 104.596 11.2747 105.13 11.008C105.663 10.7413 106.276 10.608 106.97 10.608C107.716 10.608 108.34 10.7413 108.842 11.008C109.354 11.264 109.738 11.616 109.994 12.064C110.26 12.5013 110.394 12.9813 110.394 13.504C110.394 14.1013 110.228 14.624 109.898 15.072C109.567 15.52 109.124 15.8187 108.57 15.968C109.21 16.1067 109.738 16.4213 110.154 16.912C110.57 17.392 110.778 18.016 110.778 18.784C110.778 19.4027 110.634 19.9733 110.346 20.496C110.058 21.008 109.631 21.4187 109.066 21.728C108.5 22.0373 107.807 22.192 106.986 22.192Z" fill="#2D64B6"/>
<path d="M153.256 22V19.76H147.64V18.416L152.984 10.8H154.936V18.288H156.504V19.76H154.936V22H153.256ZM149.48 18.288H153.352V12.672L149.48 18.288Z" fill="#2D64B6"/>
<path d="M197.11 22.192C196.321 22.192 195.638 22.0533 195.062 21.776C194.486 21.488 194.028 21.0987 193.686 20.608C193.356 20.1067 193.153 19.5413 193.078 18.912H194.742C194.849 19.4453 195.116 19.888 195.542 20.24C195.969 20.5813 196.497 20.752 197.126 20.752C197.596 20.752 198.001 20.64 198.342 20.416C198.684 20.1813 198.95 19.872 199.142 19.488C199.334 19.104 199.43 18.672 199.43 18.192C199.43 17.4347 199.217 16.832 198.79 16.384C198.364 15.9253 197.825 15.696 197.174 15.696C196.62 15.696 196.145 15.8293 195.75 16.096C195.356 16.352 195.068 16.6773 194.886 17.072H193.27L194.23 10.8H200.278V12.288H195.51L194.934 15.28C195.18 15.0027 195.516 14.7733 195.942 14.592C196.38 14.4 196.87 14.304 197.414 14.304C198.172 14.304 198.822 14.48 199.366 14.832C199.91 15.1733 200.326 15.6373 200.614 16.224C200.913 16.8107 201.062 17.4613 201.062 18.176C201.062 18.9227 200.902 19.6 200.582 20.208C200.262 20.816 199.804 21.3013 199.206 21.664C198.62 22.016 197.921 22.192 197.11 22.192Z" fill="#2D64B6"/>
<circle cx="287.5" cy="56.5" r="7.5" fill="white" fill-opacity="0.5"/>
<circle cx="242.5" cy="56.5" r="7.5" fill="white" fill-opacity="0.5"/>
<rect y="40" width="214" height="33" rx="16.5" fill="#FCFCFC"/>
<path d="M17.6933 62.192C16.872 62.192 16.1786 62.0373 15.6133 61.728C15.048 61.4187 14.5893 61.008 14.2373 60.496C13.896 59.984 13.6506 59.408 13.5013 58.768C13.352 58.128 13.2773 57.472 13.2773 56.8C13.2773 55.5627 13.448 54.48 13.7893 53.552C14.1413 52.624 14.6426 51.904 15.2933 51.392C15.944 50.8693 16.7333 50.608 17.6613 50.608C18.3973 50.608 19.0266 50.752 19.5493 51.04C20.072 51.328 20.4773 51.712 20.7653 52.192C21.064 52.672 21.2453 53.1947 21.3093 53.76H19.7253C19.6293 53.2053 19.4 52.7787 19.0373 52.48C18.6746 52.1813 18.2106 52.032 17.6453 52.032C16.8666 52.032 16.2213 52.4 15.7093 53.136C15.208 53.8613 14.9413 54.9813 14.9093 56.496C15.1653 56.0267 15.56 55.6267 16.0933 55.296C16.6373 54.9653 17.2613 54.8 17.9653 54.8C18.5946 54.8 19.1813 54.9493 19.7253 55.248C20.28 55.5467 20.728 55.968 21.0693 56.512C21.4213 57.0453 21.5973 57.68 21.5973 58.416C21.5973 59.0667 21.4373 59.68 21.1173 60.256C20.7973 60.832 20.344 61.3013 19.7573 61.664C19.1813 62.016 18.4933 62.192 17.6933 62.192ZM17.5973 60.72C18.0453 60.72 18.4453 60.624 18.7973 60.432C19.1493 60.24 19.4266 59.9787 19.6293 59.648C19.832 59.3067 19.9333 58.9227 19.9333 58.496C19.9333 57.8133 19.7093 57.2693 19.2613 56.864C18.824 56.4587 18.264 56.256 17.5813 56.256C17.1333 56.256 16.728 56.3573 16.3653 56.56C16.0133 56.7627 15.736 57.0347 15.5333 57.376C15.3306 57.7067 15.2293 58.0747 15.2293 58.48C15.2293 58.9173 15.3306 59.3067 15.5333 59.648C15.7466 59.9787 16.0293 60.24 16.3813 60.432C16.744 60.624 17.1493 60.72 17.5973 60.72Z" fill="#2D64B6"/>
<path d="M60.1466 62L64.4826 52.256H58.6586V50.8H66.2266V52.032L61.9226 62H60.1466Z" fill="#2D64B6"/>
<path d="M106.999 62.192C106.252 62.192 105.575 62.0587 104.967 61.792C104.37 61.5147 103.89 61.1307 103.527 60.64C103.175 60.1493 102.999 59.5733 102.999 58.912C102.999 58.24 103.186 57.6373 103.559 57.104C103.943 56.5707 104.45 56.208 105.079 56.016C104.514 55.792 104.076 55.4667 103.767 55.04C103.458 54.6027 103.303 54.1227 103.303 53.6C103.303 53.056 103.447 52.56 103.735 52.112C104.023 51.6533 104.439 51.2907 104.983 51.024C105.538 50.7467 106.21 50.608 106.999 50.608C107.788 50.608 108.455 50.7467 108.999 51.024C109.554 51.2907 109.975 51.6533 110.263 52.112C110.551 52.56 110.695 53.056 110.695 53.6C110.695 54.112 110.535 54.592 110.215 55.04C109.906 55.4773 109.468 55.8027 108.903 56.016C109.532 56.2187 110.034 56.5867 110.407 57.12C110.791 57.6427 110.983 58.24 110.983 58.912C110.983 59.5733 110.807 60.1493 110.455 60.64C110.103 61.1307 109.623 61.5147 109.015 61.792C108.418 62.0587 107.746 62.192 106.999 62.192ZM106.999 55.472C107.618 55.472 108.103 55.312 108.455 54.992C108.818 54.672 108.999 54.2613 108.999 53.76C108.999 53.1947 108.823 52.7627 108.471 52.464C108.119 52.1653 107.628 52.016 106.999 52.016C106.37 52.016 105.879 52.1653 105.527 52.464C105.175 52.7627 104.999 53.1947 104.999 53.76C104.999 54.2613 105.175 54.672 105.527 54.992C105.879 55.312 106.37 55.472 106.999 55.472ZM106.999 60.752C107.767 60.752 108.343 60.5707 108.727 60.208C109.111 59.8347 109.303 59.36 109.303 58.784C109.303 58.144 109.095 57.6533 108.679 57.312C108.274 56.96 107.714 56.784 106.999 56.784C106.284 56.784 105.719 56.96 105.303 57.312C104.887 57.6533 104.679 58.144 104.679 58.784C104.679 59.36 104.871 59.8347 105.255 60.208C105.65 60.5707 106.231 60.752 106.999 60.752Z" fill="#2D64B6"/>
<path d="M152.341 62.192C151.605 62.192 150.976 62.048 150.453 61.76C149.931 61.472 149.52 61.088 149.221 60.608C148.933 60.128 148.757 59.6053 148.693 59.04H150.277C150.373 59.5947 150.603 60.0213 150.965 60.32C151.328 60.6187 151.792 60.768 152.357 60.768C153.136 60.768 153.776 60.4053 154.277 59.68C154.789 58.944 155.061 57.8187 155.093 56.304C154.837 56.7733 154.437 57.1733 153.893 57.504C153.36 57.8347 152.741 58 152.037 58C151.408 58 150.816 57.8507 150.261 57.552C149.707 57.2533 149.259 56.8373 148.917 56.304C148.576 55.76 148.405 55.12 148.405 54.384C148.405 53.7333 148.565 53.12 148.885 52.544C149.205 51.968 149.653 51.504 150.229 51.152C150.816 50.7893 151.509 50.608 152.309 50.608C153.131 50.608 153.824 50.7627 154.389 51.072C154.955 51.3813 155.408 51.792 155.749 52.304C156.091 52.816 156.336 53.392 156.485 54.032C156.645 54.672 156.725 55.328 156.725 56C156.725 57.2373 156.549 58.32 156.197 59.248C155.856 60.176 155.36 60.9013 154.709 61.424C154.059 61.936 153.269 62.192 152.341 62.192ZM152.421 56.544C152.869 56.544 153.269 56.4427 153.621 56.24C153.973 56.0373 154.251 55.7707 154.453 55.44C154.667 55.0987 154.773 54.7253 154.773 54.32C154.773 53.8827 154.667 53.4987 154.453 53.168C154.251 52.8267 153.968 52.56 153.605 52.368C153.253 52.176 152.853 52.08 152.405 52.08C151.957 52.08 151.557 52.176 151.205 52.368C150.853 52.56 150.571 52.8267 150.357 53.168C150.155 53.4987 150.053 53.8773 150.053 54.304C150.053 54.9867 150.277 55.5307 150.725 55.936C151.173 56.3413 151.739 56.544 152.421 56.544Z" fill="#2D64B6"/>
<path d="M191.577 62V52.72L189.769 53.136V51.888L192.249 50.8H193.337V62H191.577ZM200.093 62.192C199.079 62.192 198.205 61.952 197.469 61.472C196.743 60.9813 196.183 60.304 195.789 59.44C195.405 58.5653 195.213 57.552 195.213 56.4C195.213 55.248 195.405 54.24 195.789 53.376C196.183 52.5013 196.743 51.824 197.469 51.344C198.205 50.8533 199.079 50.608 200.093 50.608C201.106 50.608 201.975 50.8533 202.701 51.344C203.426 51.824 203.981 52.5013 204.365 53.376C204.759 54.24 204.957 55.248 204.957 56.4C204.957 57.552 204.759 58.5653 204.365 59.44C203.981 60.304 203.426 60.9813 202.701 61.472C201.975 61.952 201.106 62.192 200.093 62.192ZM200.093 60.672C200.701 60.672 201.239 60.5013 201.709 60.16C202.189 59.8187 202.562 59.328 202.829 58.688C203.095 58.048 203.229 57.2853 203.229 56.4C203.229 55.5147 203.095 54.752 202.829 54.112C202.562 53.472 202.189 52.9813 201.709 52.64C201.239 52.2987 200.701 52.128 200.093 52.128C199.474 52.128 198.93 52.2987 198.461 52.64C197.991 52.9813 197.623 53.472 197.357 54.112C197.09 54.752 196.957 55.5147 196.957 56.4C196.957 57.2853 197.09 58.048 197.357 58.688C197.623 59.328 197.991 59.8187 198.461 60.16C198.93 60.5013 199.474 60.672 200.093 60.672Z" fill="#2D64B6"/>
<circle cx="287.5" cy="96.5" r="7.5" fill="white" fill-opacity="0.5"/>
<circle cx="242.5" cy="96.5" r="7.5" fill="white" fill-opacity="0.5"/>
<rect y="80" width="214" height="33" rx="16.5" fill="#FCFCFC"/>
<path d="M14.6005 102V92.72L12.7925 93.136V91.888L15.2725 90.8H16.3605V102H14.6005ZM19.788 102V92.72L17.98 93.136V91.888L20.46 90.8H21.548V102H19.788Z" fill="#2D64B6"/>
<path d="M57.6161 102V92.72L55.8081 93.136V91.888L58.2881 90.8H59.3761V102H57.6161ZM61.4276 102V100.784C62.153 100.208 62.8463 99.6267 63.5076 99.04C64.169 98.4533 64.7556 97.8773 65.2676 97.312C65.7903 96.736 66.201 96.176 66.4996 95.632C66.7983 95.0773 66.9476 94.544 66.9476 94.032C66.9476 93.6907 66.889 93.3707 66.7716 93.072C66.6543 92.7627 66.4623 92.5173 66.1956 92.336C65.929 92.144 65.5716 92.048 65.1236 92.048C64.4516 92.048 63.945 92.2613 63.6036 92.688C63.273 93.1147 63.113 93.6267 63.1236 94.224H61.4756C61.4863 93.4347 61.6516 92.7733 61.9716 92.24C62.3023 91.7067 62.7396 91.3013 63.2836 91.024C63.8383 90.7467 64.4623 90.608 65.1556 90.608C66.2116 90.608 67.0543 90.9067 67.6836 91.504C68.3236 92.0907 68.6436 92.912 68.6436 93.968C68.6436 94.5973 68.489 95.2213 68.1796 95.84C67.881 96.4587 67.4863 97.056 66.9956 97.632C66.5156 98.1973 65.9983 98.7307 65.4436 99.232C64.889 99.7333 64.361 100.187 63.8596 100.592H68.9796V102H61.4276Z" fill="#2D64B6"/>
<path d="M102.46 102V92.72L100.652 93.136V91.888L103.132 90.8H104.22V102H102.46ZM110.079 102.192C109.354 102.192 108.693 102.064 108.095 101.808C107.509 101.541 107.039 101.141 106.687 100.608C106.335 100.075 106.149 99.408 106.127 98.608H107.807C107.829 99.2053 108.031 99.712 108.415 100.128C108.81 100.533 109.365 100.736 110.079 100.736C110.762 100.736 111.285 100.549 111.647 100.176C112.01 99.792 112.191 99.3173 112.191 98.752C112.191 98.0693 111.946 97.5627 111.455 97.232C110.975 96.9013 110.383 96.736 109.679 96.736H108.847V95.328H109.695C110.325 95.328 110.831 95.1787 111.215 94.88C111.61 94.5813 111.807 94.16 111.807 93.616C111.807 93.1573 111.653 92.784 111.343 92.496C111.045 92.208 110.618 92.064 110.063 92.064C109.487 92.064 109.034 92.2347 108.703 92.576C108.373 92.9067 108.191 93.3227 108.159 93.824H106.479C106.501 93.1733 106.661 92.608 106.959 92.128C107.269 91.648 107.69 91.2747 108.223 91.008C108.757 90.7413 109.37 90.608 110.063 90.608C110.81 90.608 111.434 90.7413 111.935 91.008C112.447 91.264 112.831 91.616 113.087 92.064C113.354 92.5013 113.487 92.9813 113.487 93.504C113.487 94.1013 113.322 94.624 112.991 95.072C112.661 95.52 112.218 95.8187 111.663 95.968C112.303 96.1067 112.831 96.4213 113.247 96.912C113.663 97.392 113.871 98.016 113.871 98.784C113.871 99.4027 113.727 99.9733 113.439 100.496C113.151 101.008 112.725 101.419 112.159 101.728C111.594 102.037 110.901 102.192 110.079 102.192Z" fill="#2D64B6"/>
<path d="M146.71 102V92.72L144.902 93.136V91.888L147.382 90.8H148.47V102H146.71ZM155.849 102V99.76H150.233V98.416L155.577 90.8H157.529V98.288H159.097V99.76H157.529V102H155.849ZM152.073 98.288H155.945V92.672L152.073 98.288Z" fill="#2D64B6"/>
<path d="M191.765 102V92.72L189.957 93.136V91.888L192.437 90.8H193.525V102H191.765ZM199.704 102.192C198.915 102.192 198.232 102.053 197.656 101.776C197.08 101.488 196.621 101.099 196.28 100.608C195.949 100.107 195.747 99.5413 195.672 98.912H197.336C197.443 99.4453 197.709 99.888 198.136 100.24C198.563 100.581 199.091 100.752 199.72 100.752C200.189 100.752 200.595 100.64 200.936 100.416C201.277 100.181 201.544 99.872 201.736 99.488C201.928 99.104 202.024 98.672 202.024 98.192C202.024 97.4347 201.811 96.832 201.384 96.384C200.957 95.9253 200.419 95.696 199.768 95.696C199.213 95.696 198.739 95.8293 198.344 96.096C197.949 96.352 197.661 96.6773 197.48 97.072H195.864L196.824 90.8H202.872V92.288H198.104L197.528 95.28C197.773 95.0027 198.109 94.7733 198.536 94.592C198.973 94.4 199.464 94.304 200.008 94.304C200.765 94.304 201.416 94.48 201.96 94.832C202.504 95.1733 202.92 95.6373 203.208 96.224C203.507 96.8107 203.656 97.4613 203.656 98.176C203.656 98.9227 203.496 99.6 203.176 100.208C202.856 100.816 202.397 101.301 201.8 101.664C201.213 102.016 200.515 102.192 199.704 102.192Z" fill="#2D64B6"/>
<circle cx="287.5" cy="136.5" r="7.5" fill="white" fill-opacity="0.5"/>
<circle cx="242.5" cy="136.5" r="7.5" fill="white" fill-opacity="0.5"/>
<rect y="120" width="214" height="33" rx="16.5" fill="#FCFCFC"/>
<path d="M11.6396 142V132.72L9.83156 133.136V131.888L12.3116 130.8H13.3996V142H11.6396ZM19.7871 142.192C18.9657 142.192 18.2724 142.037 17.7071 141.728C17.1417 141.419 16.6831 141.008 16.3311 140.496C15.9897 139.984 15.7444 139.408 15.5951 138.768C15.4457 138.128 15.3711 137.472 15.3711 136.8C15.3711 135.563 15.5417 134.48 15.8831 133.552C16.2351 132.624 16.7364 131.904 17.3871 131.392C18.0377 130.869 18.8271 130.608 19.7551 130.608C20.4911 130.608 21.1204 130.752 21.6431 131.04C22.1657 131.328 22.5711 131.712 22.8591 132.192C23.1577 132.672 23.3391 133.195 23.4031 133.76H21.8191C21.7231 133.205 21.4937 132.779 21.1311 132.48C20.7684 132.181 20.3044 132.032 19.7391 132.032C18.9604 132.032 18.3151 132.4 17.8031 133.136C17.3017 133.861 17.0351 134.981 17.0031 136.496C17.2591 136.027 17.6537 135.627 18.1871 135.296C18.7311 134.965 19.3551 134.8 20.0591 134.8C20.6884 134.8 21.2751 134.949 21.8191 135.248C22.3737 135.547 22.8217 135.968 23.1631 136.512C23.5151 137.045 23.6911 137.68 23.6911 138.416C23.6911 139.067 23.5311 139.68 23.2111 140.256C22.8911 140.832 22.4377 141.301 21.8511 141.664C21.2751 142.016 20.5871 142.192 19.7871 142.192ZM19.6911 140.72C20.1391 140.72 20.5391 140.624 20.8911 140.432C21.2431 140.24 21.5204 139.979 21.7231 139.648C21.9257 139.307 22.0271 138.923 22.0271 138.496C22.0271 137.813 21.8031 137.269 21.3551 136.864C20.9177 136.459 20.3577 136.256 19.6751 136.256C19.2271 136.256 18.8217 136.357 18.4591 136.56C18.1071 136.763 17.8297 137.035 17.6271 137.376C17.4244 137.707 17.3231 138.075 17.3231 138.48C17.3231 138.917 17.4244 139.307 17.6271 139.648C17.8404 139.979 18.1231 140.24 18.4751 140.432C18.8377 140.624 19.2431 140.72 19.6911 140.72Z" fill="#2D64B6"/>
<path d="M57.4208 142V132.72L55.6128 133.136V131.888L58.0928 130.8H59.1808V142H57.4208ZM62.2403 142L66.5763 132.256H60.7523V130.8H68.3203V132.032L64.0163 142H62.2403Z" fill="#2D64B6"/>
<path d="M101.733 142V132.72L99.9253 133.136V131.888L102.405 130.8H103.493V142H101.733ZM109.593 142.192C108.846 142.192 108.169 142.059 107.561 141.792C106.963 141.515 106.483 141.131 106.121 140.64C105.769 140.149 105.593 139.573 105.593 138.912C105.593 138.24 105.779 137.637 106.153 137.104C106.537 136.571 107.043 136.208 107.673 136.016C107.107 135.792 106.67 135.467 106.361 135.04C106.051 134.603 105.897 134.123 105.897 133.6C105.897 133.056 106.041 132.56 106.329 132.112C106.617 131.653 107.033 131.291 107.577 131.024C108.131 130.747 108.803 130.608 109.593 130.608C110.382 130.608 111.049 130.747 111.593 131.024C112.147 131.291 112.569 131.653 112.857 132.112C113.145 132.56 113.289 133.056 113.289 133.6C113.289 134.112 113.129 134.592 112.809 135.04C112.499 135.477 112.062 135.803 111.497 136.016C112.126 136.219 112.627 136.587 113.001 137.12C113.385 137.643 113.577 138.24 113.577 138.912C113.577 139.573 113.401 140.149 113.049 140.64C112.697 141.131 112.217 141.515 111.609 141.792C111.011 142.059 110.339 142.192 109.593 142.192ZM109.593 135.472C110.211 135.472 110.697 135.312 111.049 134.992C111.411 134.672 111.593 134.261 111.593 133.76C111.593 133.195 111.417 132.763 111.065 132.464C110.713 132.165 110.222 132.016 109.593 132.016C108.963 132.016 108.473 132.165 108.121 132.464C107.769 132.763 107.593 133.195 107.593 133.76C107.593 134.261 107.769 134.672 108.121 134.992C108.473 135.312 108.963 135.472 109.593 135.472ZM109.593 140.752C110.361 140.752 110.937 140.571 111.321 140.208C111.705 139.835 111.897 139.36 111.897 138.784C111.897 138.144 111.689 137.653 111.273 137.312C110.867 136.96 110.307 136.784 109.593 136.784C108.878 136.784 108.313 136.96 107.897 137.312C107.481 137.653 107.273 138.144 107.273 138.784C107.273 139.36 107.465 139.835 107.849 140.208C108.243 140.571 108.825 140.752 109.593 140.752Z" fill="#2D64B6"/>
<path d="M146.64 142V132.72L144.832 133.136V131.888L147.312 130.8H148.4V142H146.64ZM154.435 142.192C153.699 142.192 153.07 142.048 152.547 141.76C152.024 141.472 151.614 141.088 151.315 140.608C151.027 140.128 150.851 139.605 150.787 139.04H152.371C152.467 139.595 152.696 140.021 153.059 140.32C153.422 140.619 153.886 140.768 154.451 140.768C155.23 140.768 155.87 140.405 156.371 139.68C156.883 138.944 157.155 137.819 157.187 136.304C156.931 136.773 156.531 137.173 155.987 137.504C155.454 137.835 154.835 138 154.131 138C153.502 138 152.91 137.851 152.355 137.552C151.8 137.253 151.352 136.837 151.011 136.304C150.67 135.76 150.499 135.12 150.499 134.384C150.499 133.733 150.659 133.12 150.979 132.544C151.299 131.968 151.747 131.504 152.323 131.152C152.91 130.789 153.603 130.608 154.403 130.608C155.224 130.608 155.918 130.763 156.483 131.072C157.048 131.381 157.502 131.792 157.843 132.304C158.184 132.816 158.43 133.392 158.579 134.032C158.739 134.672 158.819 135.328 158.819 136C158.819 137.237 158.643 138.32 158.291 139.248C157.95 140.176 157.454 140.901 156.803 141.424C156.152 141.936 155.363 142.192 154.435 142.192ZM154.515 136.544C154.963 136.544 155.363 136.443 155.715 136.24C156.067 136.037 156.344 135.771 156.547 135.44C156.76 135.099 156.867 134.725 156.867 134.32C156.867 133.883 156.76 133.499 156.547 133.168C156.344 132.827 156.062 132.56 155.699 132.368C155.347 132.176 154.947 132.08 154.499 132.08C154.051 132.08 153.651 132.176 153.299 132.368C152.947 132.56 152.664 132.827 152.451 133.168C152.248 133.499 152.147 133.877 152.147 134.304C152.147 134.987 152.371 135.531 152.819 135.936C153.267 136.341 153.832 136.544 154.515 136.544Z" fill="#2D64B6"/>
<path d="M188.279 142V140.784C189.005 140.208 189.698 139.627 190.359 139.04C191.021 138.453 191.607 137.877 192.119 137.312C192.642 136.736 193.053 136.176 193.351 135.632C193.65 135.077 193.799 134.544 193.799 134.032C193.799 133.691 193.741 133.371 193.623 133.072C193.506 132.763 193.314 132.517 193.047 132.336C192.781 132.144 192.423 132.048 191.975 132.048C191.303 132.048 190.797 132.261 190.455 132.688C190.125 133.115 189.965 133.627 189.975 134.224H188.327C188.338 133.435 188.503 132.773 188.823 132.24C189.154 131.707 189.591 131.301 190.135 131.024C190.69 130.747 191.314 130.608 192.007 130.608C193.063 130.608 193.906 130.907 194.535 131.504C195.175 132.091 195.495 132.912 195.495 133.968C195.495 134.597 195.341 135.221 195.031 135.84C194.733 136.459 194.338 137.056 193.847 137.632C193.367 138.197 192.85 138.731 192.295 139.232C191.741 139.733 191.213 140.187 190.711 140.592H195.831V142H188.279ZM202.014 142.192C201.001 142.192 200.126 141.952 199.39 141.472C198.665 140.981 198.105 140.304 197.71 139.44C197.326 138.565 197.134 137.552 197.134 136.4C197.134 135.248 197.326 134.24 197.71 133.376C198.105 132.501 198.665 131.824 199.39 131.344C200.126 130.853 201.001 130.608 202.014 130.608C203.028 130.608 203.897 130.853 204.622 131.344C205.348 131.824 205.902 132.501 206.286 133.376C206.681 134.24 206.878 135.248 206.878 136.4C206.878 137.552 206.681 138.565 206.286 139.44C205.902 140.304 205.348 140.981 204.622 141.472C203.897 141.952 203.028 142.192 202.014 142.192ZM202.014 140.672C202.622 140.672 203.161 140.501 203.63 140.16C204.11 139.819 204.484 139.328 204.75 138.688C205.017 138.048 205.15 137.285 205.15 136.4C205.15 135.515 205.017 134.752 204.75 134.112C204.484 133.472 204.11 132.981 203.63 132.64C203.161 132.299 202.622 132.128 202.014 132.128C201.396 132.128 200.852 132.299 200.382 132.64C199.913 132.981 199.545 133.472 199.278 134.112C199.012 134.752 198.878 135.515 198.878 136.4C198.878 137.285 199.012 138.048 199.278 138.688C199.545 139.328 199.913 139.819 200.382 140.16C200.852 140.501 201.396 140.672 202.014 140.672Z" fill="#2D64B6"/>
<circle cx="17.5" cy="176.5" r="7.5" fill="white" fill-opacity="0.5"/>
<circle cx="107.5" cy="176.5" r="7.5" fill="white" fill-opacity="0.5"/>
<circle cx="62.5" cy="176.5" r="7.5" fill="white" fill-opacity="0.5"/>
</svg>
