<svg width="50" height="50" viewBox="0 0 50 50" fill="none" xmlns="http://www.w3.org/2000/svg">
<g clip-path="url(#clip0_1861_92)">
<path d="M10.1678 17.4705C8.9692 17.8434 7.78992 18.2134 6.60849 18.5741C6.36563 18.6484 6.38277 18.8577 6.33777 19.0312C5.89992 20.717 5.48349 22.4084 5.02634 24.0891C4.74277 25.1334 3.80991 25.8241 2.7292 25.8655C1.65991 25.9062 0.694915 25.2598 0.314915 24.2462C0.140629 23.7812 0.101343 23.3091 0.224201 22.8227C0.782772 20.6155 1.34063 18.4084 1.89349 16.1998C2.07206 15.487 2.46991 14.9205 3.12849 14.6205C5.37206 13.5998 7.61992 12.5862 9.89134 11.6305C11.4663 10.9677 13.1321 11.0634 14.7963 11.2198C17.0842 11.4348 19.3742 11.6262 21.6656 11.8027C22.3671 11.857 22.9678 12.0841 23.5028 12.537C24.5442 13.4191 25.6106 14.2734 26.6392 15.1705C26.9171 15.4134 27.1078 15.3927 27.3971 15.2305C28.5406 14.5905 29.6956 13.9691 30.8492 13.347C32.1763 12.6312 33.6463 13.0184 34.3421 14.2605C35.0321 15.4927 34.5721 16.9748 33.2535 17.7077C31.5499 18.6555 29.8335 19.5798 28.1313 20.5291C27.0906 21.1098 26.1121 21.0734 25.1199 20.392C24.3528 19.8648 23.5328 19.4155 22.7428 18.9205C22.2392 18.6055 22.1071 18.1741 22.3549 17.7427C22.6113 17.2977 23.0906 17.2012 23.6092 17.5134C24.4371 18.012 25.2649 18.5112 26.0771 19.0355C26.4806 19.2962 26.8421 19.3434 27.2792 19.0977C28.9792 18.1441 30.6949 17.2177 32.4006 16.2755C32.9321 15.982 33.1163 15.5162 32.8956 15.0834C32.6671 14.6355 32.1571 14.5284 31.5992 14.8291C30.2328 15.567 28.8642 16.2998 27.5106 17.0598C26.9999 17.347 26.5913 17.302 26.1478 16.9227C24.9263 15.8784 23.6799 14.8634 22.4506 13.8284C22.1885 13.6077 21.9135 13.4898 21.5663 13.462C18.8621 13.2441 16.1599 13.0084 13.4563 12.7841C12.2821 12.687 11.1463 12.8684 10.0671 13.3427C8.0942 14.2091 6.12849 15.0934 4.15563 15.9591C3.77634 16.1255 3.55563 16.3727 3.45491 16.782C2.9342 18.892 2.39134 20.9955 1.86206 23.1034C1.73277 23.617 1.96777 24.0498 2.41634 24.1698C2.90277 24.2998 3.32634 24.0498 3.46849 23.5077C3.92991 21.7391 4.39706 19.9712 4.81992 18.1934C4.9692 17.5655 5.28277 17.2255 5.9092 17.0448C7.54849 16.572 9.17063 16.037 10.8013 15.5334C11.7142 15.2512 12.2278 15.7091 12.0642 16.6384C11.5249 19.6977 10.9871 22.7577 10.4549 25.8184C10.0663 28.052 11.6192 29.8077 13.9006 29.8591C16.3528 29.9148 18.8035 30.0727 21.2535 30.2041C21.9892 30.2434 22.2992 30.7598 22.0435 31.4755C21.2435 33.7155 20.4292 35.9512 19.6292 38.1912C18.9585 40.0698 20.0892 41.6827 22.0792 41.6941C22.9956 41.6991 23.9121 41.6855 24.8278 41.7012C25.0849 41.7055 25.2128 41.6262 25.3392 41.3927C26.0356 40.0998 27.4328 39.6755 28.7463 40.3577C28.9785 40.4784 29.1285 40.4784 29.3413 40.3355C31.1463 39.1212 32.9571 37.9155 34.7713 36.7148C34.9799 36.577 35.0535 36.4412 35.0328 36.172C34.9171 34.6977 35.8363 33.5648 37.2949 33.4198C37.6599 33.3834 37.6978 33.1605 37.7878 32.9348C40.3563 26.517 42.9171 20.0955 45.4963 13.6812C45.6999 13.1755 45.7906 12.8148 45.3849 12.3077C44.7078 11.4605 44.8506 10.2134 45.5599 9.38696C46.2935 8.53267 47.4578 8.26696 48.4771 8.72124C49.4556 9.15767 50.0663 10.237 49.9342 11.2948C49.7956 12.3991 48.9228 13.3227 47.7985 13.447C47.4135 13.4898 47.2806 13.6498 47.1563 13.962C44.5528 20.4948 41.9442 27.0255 39.3242 33.5512C39.1921 33.8805 39.2113 34.0805 39.4478 34.3627C40.1878 35.2462 40.1656 36.5241 39.4499 37.4255C38.7156 38.3505 37.4606 38.6627 36.4242 38.1134C36.0742 37.9284 35.8592 37.9712 35.5571 38.1762C33.8285 39.3484 32.0885 40.5041 30.3428 41.652C30.0835 41.822 29.9835 41.9805 30.0113 42.312C30.1142 43.5241 29.3649 44.5898 28.2349 44.9127C27.0785 45.2441 25.9278 44.7598 25.3428 43.6684C25.2213 43.4427 25.1035 43.347 24.8385 43.3491C23.2135 43.3627 21.5885 43.3612 19.9635 43.352C19.7185 43.3505 19.5535 43.4198 19.3892 43.6084C17.6892 45.5662 15.9728 47.5091 14.2778 49.4705C13.9571 49.842 13.6106 50.0112 13.1149 50.0034C11.6113 49.9791 10.1071 49.9962 8.60277 49.9941C5.65992 49.9898 3.71491 47.5312 4.43991 44.6784C5.51777 40.4327 6.63063 36.1962 7.73134 31.9562C7.89277 31.3355 8.30134 31.0641 8.8192 31.2141C9.29134 31.3505 9.48706 31.7898 9.33134 32.3941C8.23849 36.6362 7.13849 40.8762 6.05277 45.1198C5.60634 46.8648 6.74992 48.3255 8.54992 48.3327C9.93277 48.3384 11.3163 48.3291 12.6992 48.3377C12.9392 48.3391 13.1099 48.2841 13.2771 48.0912C14.9985 46.1062 16.7278 44.1284 18.4663 42.1591C18.6563 41.9441 18.6828 41.8184 18.5071 41.5677C17.6613 40.3598 17.5499 39.047 18.0421 37.6727C18.6878 35.8712 19.3278 34.0684 19.9971 32.2755C20.1363 31.9027 20.0778 31.807 19.6878 31.7905C18.1163 31.7248 16.5449 31.6484 14.9756 31.5448C14.6121 31.5205 14.5542 31.7127 14.4642 31.9712C13.2999 35.3255 12.1292 38.6777 10.9599 42.0305C10.5056 43.3327 10.0549 44.6362 9.59849 45.9377C9.38492 46.547 8.95563 46.812 8.47634 46.6427C7.99706 46.4734 7.82349 46.0027 8.03491 45.392C9.59492 40.8977 11.1521 36.402 12.7299 31.9141C12.8671 31.5234 12.8121 31.4155 12.4121 31.3112C9.8942 30.6591 8.34349 28.1512 8.80777 25.572C9.28134 22.9391 9.73063 20.3012 10.1885 17.6655C10.1971 17.6191 10.1792 17.5684 10.1678 17.4705ZM48.2813 10.9998C48.2871 10.552 47.9135 10.1705 47.4649 10.1662C47.0185 10.162 46.6356 10.5362 46.6306 10.9841C46.6256 11.432 46.9992 11.8134 47.4478 11.8177C47.8963 11.8212 48.2756 11.4491 48.2813 10.9998ZM37.4828 35.0598C37.0335 35.0684 36.6635 35.452 36.6721 35.9005C36.6806 36.3498 37.0642 36.7198 37.5128 36.7127C37.9585 36.7048 38.3335 36.3162 38.3242 35.8712C38.3142 35.422 37.9299 35.0512 37.4828 35.0598ZM27.5606 43.3505C28.0085 43.3384 28.3778 42.9505 28.3663 42.5034C28.3549 42.0555 27.9671 41.687 27.5192 41.6977C27.0713 41.7084 26.7013 42.0977 26.7142 42.5441C26.7271 42.9941 27.1142 43.3627 27.5606 43.3505Z" fill="#29353A"/>
<path d="M22.0662 40.0323C21.3584 40.0423 20.9812 39.3987 21.2891 38.7716C21.7534 37.828 22.2462 36.8987 22.7277 35.963C23.7305 34.0166 24.7348 32.0709 25.7362 30.1237C26.3698 28.8909 25.8362 27.7716 24.4662 27.5387C22.4077 27.1894 20.3434 26.8744 18.2805 26.5537C17.4205 26.4201 17.1491 26.023 17.3941 25.1901C18.2884 22.1473 19.1855 19.1059 20.0841 16.0644C20.2648 15.453 20.6334 15.1644 21.102 15.2544C21.6484 15.3594 21.882 15.853 21.6862 16.5223C21.2355 18.0601 20.777 19.5966 20.3241 21.1337C19.9834 22.2909 19.6634 23.4551 19.2977 24.6044C19.1812 24.9701 19.3012 25.0423 19.6198 25.0909C21.3598 25.358 23.097 25.6444 24.8362 25.9159C27.0598 26.2623 28.3384 28.6109 27.3305 30.6259C25.842 33.6016 24.2905 36.5466 22.7691 39.5059C22.6048 39.8266 22.3562 40.0044 22.0662 40.0323Z" fill="#29353A"/>
<path d="M48.2863 35.0524C48.2855 39.6302 48.2863 44.2081 48.2855 48.786C48.2855 48.9588 48.3041 49.1367 48.2677 49.3024C48.1755 49.7195 47.907 49.9781 47.4734 49.9838C47.0155 49.9902 46.7341 49.7302 46.642 49.286C46.6113 49.136 46.6277 48.976 46.6277 48.821C46.627 39.6302 46.627 30.4402 46.627 21.2495C46.627 21.146 46.622 21.0417 46.6298 20.9388C46.6691 20.4531 47.0141 20.1181 47.4648 20.1231C47.9155 20.1281 48.2484 20.4631 48.2841 20.956C48.2941 21.0938 48.2877 21.2324 48.2877 21.3702C48.287 25.931 48.287 30.4917 48.2863 35.0524Z" fill="#263238"/>
<path d="M18.4319 0.205112C21.1698 0.215112 23.4005 2.4644 23.3898 5.20297C23.3791 7.94154 21.1348 10.168 18.3919 10.1615C15.6598 10.1551 13.4248 7.90154 13.4334 5.16225C13.4412 2.4294 15.6948 0.195112 18.4319 0.205112ZM18.4291 1.86511C16.5948 1.8594 15.0991 3.34511 15.0941 5.17797C15.0891 7.00297 16.5919 8.5044 18.4198 8.50082C20.2241 8.49725 21.7169 7.0144 21.7298 5.21297C21.7419 3.38011 20.2541 1.87083 18.4291 1.86511Z" fill="#29353A"/>
<path d="M41.647 41.6987C41.647 39.3158 41.647 36.9329 41.647 34.5501C41.647 34.4294 41.6399 34.3072 41.6513 34.1879C41.6949 33.7322 42.0299 33.4079 42.4585 33.3987C42.9085 33.3887 43.2706 33.7208 43.2999 34.2051C43.322 34.5837 43.3063 34.9644 43.3063 35.3444C43.3063 39.8337 43.307 44.3229 43.307 48.8122C43.307 48.9329 43.3135 49.0544 43.3035 49.1744C43.2635 49.6594 42.917 49.9951 42.4685 49.9901C42.0177 49.9851 41.6642 49.6494 41.6535 49.1579C41.6349 48.2779 41.647 47.3972 41.6463 46.5165C41.647 44.9101 41.647 43.3044 41.647 41.6987Z" fill="#263238"/>
<path d="M36.6686 44.9599C36.6686 43.6656 36.6657 42.372 36.6693 41.0785C36.6707 40.4206 36.97 40.047 37.4879 40.0392C38.0064 40.0313 38.3264 40.4106 38.3271 41.0578C38.33 43.697 38.33 46.337 38.3271 48.9763C38.3264 49.6178 38 50.0006 37.4828 49.9899C36.9814 49.9799 36.6728 49.6106 36.6707 48.997C36.6657 47.6513 36.6686 46.3056 36.6686 44.9599Z" fill="#263238"/>
<path d="M33.3498 46.6598C33.3498 47.4526 33.3562 48.2462 33.3477 49.039C33.3412 49.6326 32.997 50.0055 32.4941 49.9905C32.0112 49.9762 31.6941 49.614 31.692 49.0405C31.6855 47.454 31.6848 45.8676 31.6912 44.2812C31.6934 43.719 32.032 43.3562 32.5184 43.3555C33.0048 43.3548 33.3405 43.7155 33.3484 44.279C33.3577 45.0726 33.3498 45.8662 33.3498 46.6598Z" fill="#29353A"/>
<path d="M21.7314 47.5124C21.7306 46.9781 21.7214 46.4439 21.7335 45.9103C21.7449 45.3817 22.0735 45.0296 22.5385 45.016C23.0242 45.0024 23.3828 45.3639 23.3885 45.9174C23.3999 46.9853 23.4006 48.0539 23.3864 49.1224C23.3792 49.6446 23.0249 49.9931 22.5564 49.9903C22.0842 49.9874 21.7485 49.6431 21.7342 49.1146C21.7206 48.581 21.7314 48.046 21.7314 47.5124Z" fill="#29353A"/>
<path d="M28.3656 48.3466C28.3663 48.6395 28.3856 48.9338 28.3613 49.2238C28.3242 49.6752 27.9692 49.9916 27.5406 49.9916C27.1127 49.9909 26.7406 49.6731 26.7206 49.2245C26.6935 48.6231 26.6842 48.0181 26.7249 47.4181C26.7556 46.9695 27.0585 46.7102 27.5127 46.6795C27.9385 46.6509 28.3163 46.9745 28.3592 47.4173C28.3892 47.7252 28.3649 48.0373 28.3656 48.3466Z" fill="#29353A"/>
<path d="M17.6028 49.9922C17.1571 50.0037 16.7742 49.6451 16.755 49.1972C16.735 48.7501 17.0871 48.3622 17.5342 48.3372C18 48.3108 18.4042 48.6894 18.41 49.1558C18.415 49.5994 18.0471 49.9808 17.6028 49.9922Z" fill="#29353A"/>
</g>
<defs>
<clipPath id="clip0_1861_92">
<rect width="50" height="50" fill="white"/>
</clipPath>
</defs>
</svg>
