<svg width="35" height="35" viewBox="0 0 35 35" fill="none" xmlns="http://www.w3.org/2000/svg">
<path d="M15.7457 15.3295C15.8653 15.3295 15.9954 15.3018 16.1043 15.3338C16.5332 15.4661 16.7957 15.257 17.0817 14.9667C18.7207 13.3021 20.3747 11.6567 22.0329 10.0091C22.2037 9.83838 22.3082 9.65698 22.3445 9.42222C22.3872 9.15332 22.4512 8.88869 22.4939 8.61978C22.5707 8.1396 22.7927 7.74905 23.1427 7.40545C24.1244 6.44295 25.1061 5.48045 26.0579 4.48808C27.4622 3.02619 29.1781 2.22588 31.1714 1.97192C31.6579 1.91003 32.1381 1.80972 32.6226 1.73289C33.0046 1.67314 33.3354 1.94417 33.2714 2.30484C33.0707 3.42954 32.9768 4.57771 32.6119 5.66826C32.2299 6.81216 31.6131 7.81948 30.7637 8.6774C29.671 9.77649 28.5656 10.8628 27.4814 11.9683C27.0845 12.3737 26.5787 12.489 26.0622 12.5594C25.4988 12.6362 25.0677 12.8667 24.6643 13.2808C23.0808 14.907 21.4653 16.5012 19.8561 18.1018C19.679 18.2768 19.6171 18.4305 19.647 18.693C19.8134 20.1741 19.4037 21.4844 18.3579 22.5579C17.0092 23.9408 15.6348 25.2981 14.2689 26.664C13.9979 26.935 13.7162 26.9244 13.4409 26.6491C11.7442 24.9524 10.0454 23.2558 8.34879 21.5591C8.06708 21.2774 8.06709 20.9957 8.3552 20.7076C9.69117 19.3737 11.025 18.0378 12.3653 16.7082C13.2979 15.782 14.4653 15.3061 15.7457 15.3295ZM21.1131 13.3234C21.1366 13.1484 21.2177 12.9798 21.4183 12.8902C21.6296 12.7942 21.8259 12.8262 21.9924 12.9798C22.1994 13.1719 22.4043 13.3704 22.5942 13.5817C22.7116 13.7097 22.7842 13.7055 22.9037 13.5817C23.3198 13.1506 23.7723 12.7494 24.1671 12.2991C24.5171 11.8978 24.9268 11.6716 25.4497 11.6119C25.7079 11.582 25.9619 11.5094 26.2201 11.4689C26.4549 11.4305 26.6427 11.328 26.8134 11.1573C27.7738 10.1884 28.7214 9.20667 29.7095 8.26551C31.022 7.0149 31.7646 5.49966 31.9738 3.71125C32.0058 3.44448 32.1104 3.18838 32.0741 2.91521C31.8073 2.95362 31.5406 2.99631 31.2717 3.02619C29.432 3.24173 27.8954 4.03777 26.632 5.39509C25.9342 6.14631 25.2128 6.88045 24.4531 7.56551C23.8427 8.11612 23.4137 8.72009 23.3796 9.56308C23.3732 9.72314 23.3049 9.88106 23.2814 10.0433C23.2579 10.214 23.1747 10.3463 23.0552 10.4658C21.0555 12.4634 19.0579 14.4631 17.0604 16.4606C15.0692 18.4518 13.0802 20.4451 11.0826 22.4277C10.9162 22.592 10.9567 22.6731 11.0976 22.8097C11.4689 23.164 11.836 23.5225 12.1839 23.8981C12.3439 24.071 12.4335 24.0518 12.5915 23.8939C13.7802 22.6923 14.9796 21.4994 16.1747 20.3021C16.3817 20.0951 16.7232 19.8923 16.7445 19.664C16.768 19.4228 16.3817 19.2457 16.1918 19.0259C16.1704 19.0003 16.1448 18.9789 16.1235 18.9555C15.8823 18.6951 15.8674 18.3878 16.0872 18.1722C16.3092 17.9545 16.6037 17.9695 16.8704 18.2213C17.0454 18.3856 17.2247 18.55 17.3762 18.7335C17.5235 18.9085 17.6174 18.8744 17.7582 18.725C18.104 18.36 18.4646 18.0122 18.8189 17.6579C19.822 16.6548 20.8229 15.6497 21.8323 14.653C21.9753 14.51 21.9881 14.4289 21.8323 14.2945C21.6424 14.1301 21.4759 13.9423 21.2988 13.7652C21.19 13.65 21.1195 13.5198 21.1131 13.3234ZM15.6454 16.3795C14.6979 16.3731 13.8143 16.7487 13.0994 17.4594C12.0451 18.503 11.0015 19.5552 9.95154 20.6052C9.41587 21.1408 9.4244 21.1323 9.94513 21.6765C10.1159 21.8558 10.1991 21.8451 10.3677 21.6744C12.0579 19.9713 13.7567 18.2768 15.4534 16.5802C15.5067 16.5289 15.5558 16.4756 15.6454 16.3795ZM18.629 19.4271C18.5948 19.3994 18.5607 19.3695 18.5265 19.3417C18.4625 19.4399 18.4113 19.5509 18.3302 19.6341C16.7851 21.1856 15.2335 22.7329 13.6863 24.2844C13.5028 24.468 13.1698 24.6408 13.1869 24.85C13.2018 25.0506 13.5262 25.217 13.6927 25.4176C13.8357 25.5905 13.9232 25.5308 14.0491 25.4006C14.4503 24.9844 14.8643 24.5811 15.272 24.1734C16.0339 23.4094 16.8021 22.6518 17.5598 21.8835C18.232 21.2006 18.597 20.3832 18.629 19.4271Z" fill="black"/>
<path d="M25.3003 24.3361C25.2982 24.5965 25.1552 24.7331 25.0165 24.8739C22.9912 26.9483 20.968 29.0249 18.9427 31.0993C18.7293 31.3169 18.5202 31.5389 18.3046 31.7544C18.0314 32.0276 17.7263 32.0596 17.4979 31.8462C17.2525 31.6157 17.2717 31.3148 17.5619 31.0182C19.5381 28.9886 21.5165 26.959 23.4948 24.9294C23.8 24.6178 24.0988 24.2999 24.4104 23.9947C24.5811 23.8282 24.7881 23.7855 25.0101 23.9008C25.2043 24.0032 25.2939 24.1654 25.3003 24.3361Z" fill="black"/>
<path d="M10.579 14.6974C10.3079 14.6952 10.1457 14.5992 10.054 14.405C9.94085 14.1681 10.0049 13.9611 10.182 13.7797C10.7668 13.1778 11.3515 12.576 11.9384 11.9742C13.5966 10.2733 15.2549 8.57022 16.9131 6.8693C16.9963 6.78394 17.0796 6.69003 17.1799 6.63028C17.4018 6.49583 17.6259 6.5257 17.8073 6.70711C17.9908 6.88638 18.0271 7.10619 17.8948 7.33241C17.8415 7.42418 17.7604 7.50314 17.6857 7.58211C15.464 9.86351 13.2424 12.1428 11.0207 14.422C10.882 14.565 10.7454 14.7059 10.579 14.6974Z" fill="black"/>
<path d="M11.7955 26.7008C11.7805 26.8587 11.7144 26.991 11.6034 27.1041C9.67412 29.091 7.74699 31.0801 5.81558 33.0669C5.56375 33.3252 5.25644 33.338 5.03449 33.1246C4.81254 32.9112 4.81254 32.5974 5.06223 32.3413C6.98936 30.3502 8.91863 28.3654 10.8479 26.3764C11.0357 26.1822 11.2534 26.1203 11.5009 26.2291C11.6952 26.3145 11.7805 26.4895 11.7955 26.7008Z" fill="black"/>
<path d="M5.67899 16.3103C5.49332 16.3018 5.32259 16.1993 5.23296 15.9881C5.13906 15.7618 5.19881 15.5612 5.36528 15.3905C5.86893 14.8762 6.37259 14.364 6.87625 13.8497C8.13326 12.5649 9.38814 11.278 10.6452 9.99325C10.7134 9.92282 10.7796 9.84813 10.8607 9.79477C11.0891 9.64325 11.3195 9.65605 11.5159 9.84813C11.7101 10.0381 11.7378 10.2664 11.5927 10.5012C11.5415 10.5823 11.4689 10.6527 11.4006 10.7231C9.67198 12.4923 7.94119 14.2594 6.21253 16.0286C6.07595 16.1695 5.93936 16.3103 5.67899 16.3103Z" fill="black"/>
<path d="M23.3369 22.7748C23.1491 22.762 22.9826 22.6745 22.8823 22.4846C22.7671 22.2626 22.8119 22.0556 22.9741 21.8827C23.2344 21.6032 23.5055 21.3364 23.7723 21.0611C24.9887 19.8105 26.2073 18.5599 27.4238 17.3093C27.539 17.1919 27.6521 17.0702 27.8229 17.0404C28.0213 17.0062 28.1921 17.0681 28.318 17.2239C28.4503 17.3882 28.493 17.5782 28.3863 17.7702C28.3351 17.8641 28.2646 17.9495 28.1899 18.0263C26.7366 19.5202 25.2832 21.0099 23.8299 22.5038C23.6976 22.6425 23.561 22.7599 23.3369 22.7748Z" fill="black"/>
<path d="M8.82257 23.7384C8.82257 23.9006 8.75215 24.0307 8.6369 24.1417C7.42257 25.3198 6.21251 26.5 4.99391 27.6716C4.75489 27.9021 4.44117 27.8914 4.23416 27.678C4.02501 27.4625 4.02715 27.1551 4.2683 26.9204C5.4869 25.7317 6.70977 24.5472 7.93263 23.3649C8.1055 23.1984 8.31251 23.1536 8.53446 23.2625C8.72867 23.3585 8.82257 23.5228 8.82257 23.7384Z" fill="black"/>
<path d="M2.65918 18.3797C2.67198 18.226 2.72747 18.0895 2.84058 17.9764C3.08601 17.7288 3.32503 17.4748 3.57473 17.2294C3.83296 16.9776 4.13387 16.9669 4.35369 17.191C4.5607 17.4001 4.55644 17.7074 4.32808 17.9507C4.07412 18.2218 3.81375 18.4843 3.55125 18.7446C3.38692 18.9068 3.17991 18.9282 2.97503 18.8449C2.77656 18.766 2.68479 18.5931 2.65918 18.3797Z" fill="black"/>
<path d="M21 25.1743C20.7845 25.1722 20.6244 25.074 20.5284 24.8798C20.4345 24.6834 20.4516 24.4871 20.5967 24.3313C20.8763 24.0261 21.1622 23.7252 21.4653 23.4456C21.6787 23.2493 21.9305 23.2664 22.1439 23.4627C22.3574 23.6612 22.3915 23.9216 22.2101 24.1371C21.9305 24.47 21.6104 24.7688 21.3031 25.0761C21.2241 25.1572 21.111 25.17 21 25.1743Z" fill="black"/>
<path d="M2.27501 30.1304C2.05306 30.1197 1.8994 30.0344 1.7991 29.8615C1.69666 29.6865 1.69025 29.4966 1.80977 29.3386C2.01464 29.0697 2.2558 28.8307 2.53111 28.6386C2.74239 28.4914 2.97074 28.5319 3.15641 28.7112C3.33141 28.8819 3.38263 29.1081 3.25458 29.3045C3.04757 29.6225 2.768 29.885 2.44361 30.0856C2.38812 30.1176 2.31769 30.1197 2.27501 30.1304Z" fill="black"/>
<path d="M28.9028 6.76998C28.9006 7.06022 28.6744 7.28217 28.3842 7.28431C28.0683 7.28644 27.7781 6.98979 27.7887 6.67394C27.7994 6.38796 28.0384 6.15961 28.3223 6.17028C28.6125 6.17668 28.9049 6.47973 28.9028 6.76998Z" fill="black"/>
</svg>
