<svg width="32" height="32" viewBox="0 0 32 32" fill="none" xmlns="http://www.w3.org/2000/svg">
<circle cx="16" cy="16" r="16" fill="#3DFFAE"/>
<path d="M16.0524 24.9627C15.5255 24.3517 15.006 23.7505 14.4865 23.1481C11.8572 20.1017 9.23041 17.0542 6.59748 14.0103C6.47797 13.8725 6.44626 13.7847 6.56334 13.6115C7.55846 12.1408 8.54138 10.6603 9.52187 9.17979C9.59382 9.07248 9.66821 9.03833 9.7926 9.03833C13.9182 9.04077 18.0426 9.04199 22.1682 9.03711C22.317 9.03711 22.3999 9.08345 22.4804 9.20662C23.4682 10.6981 24.4597 12.1859 25.456 13.6713C25.5329 13.7847 25.5231 13.8505 25.4365 13.9505C22.8402 16.992 20.2487 20.0371 17.6548 23.081C17.1828 23.6347 16.7109 24.1895 16.2389 24.7432C16.1816 24.8139 16.1207 24.8835 16.0524 24.9627ZM18.4914 14.6164C16.8182 14.6164 15.1646 14.6164 13.4938 14.6164C14.3231 17.103 15.1487 19.5798 15.9743 22.0566C15.9865 22.0542 15.9999 22.053 16.0121 22.0505C16.8365 19.5798 17.6609 17.1091 18.4914 14.6164ZM22.778 14.6127C22.6816 14.6127 22.6219 14.6127 22.5621 14.6127C21.5792 14.6127 20.5963 14.6213 19.6133 14.6066C19.3877 14.603 19.3036 14.6798 19.2377 14.881C18.5597 16.9359 17.8719 18.9871 17.1914 21.042C17.1816 21.07 17.1182 21.1091 17.2024 21.1603C19.0511 18.9871 20.9024 16.8152 22.778 14.6127ZM14.7426 21.0066C14.7694 20.9383 14.7499 20.9054 14.7377 20.87C14.0633 18.8469 13.3865 16.8249 12.717 14.8005C12.6707 14.6603 12.606 14.6078 12.4548 14.6091C11.4414 14.6164 10.4268 14.6127 9.41334 14.6139C9.36212 14.6139 9.30358 14.5895 9.25114 14.6408C11.078 16.7603 12.9048 18.8761 14.7426 21.0066ZM10.4511 10.6322C11.2487 11.6298 12.0231 12.5981 12.8072 13.5774C13.5914 12.5969 14.367 11.6261 15.1621 10.6322C13.5743 10.6322 12.0341 10.6322 10.4511 10.6322ZM19.178 13.5774C19.9633 12.5956 20.7402 11.6249 21.5255 10.642C19.9438 10.642 18.4011 10.642 16.828 10.642C17.6219 11.6322 18.3975 12.6005 19.178 13.5774ZM18.3365 13.8139C18.2889 13.7481 18.2621 13.7078 18.2316 13.67C17.5219 12.7822 16.8085 11.8956 16.1036 11.0042C16.0121 10.8883 15.9743 10.8895 15.8828 11.0042C15.1731 11.9005 14.456 12.7908 13.7438 13.6847C13.7158 13.7188 13.6646 13.7481 13.6841 13.8139C15.2231 13.8139 16.7621 13.8139 18.3365 13.8139ZM11.9816 13.82C11.306 12.9761 10.6572 12.1664 9.9987 11.3432C9.48529 12.1139 8.98651 12.8603 8.48895 13.6091C8.41577 13.7188 8.47797 13.8152 8.62553 13.8176C8.8987 13.8225 9.17187 13.8188 9.44504 13.8188C10.2755 13.82 11.106 13.82 11.9816 13.82ZM20.0048 13.82C21.1548 13.82 22.2597 13.8213 23.3646 13.8188C23.5316 13.8188 23.5731 13.7249 23.478 13.581C23.017 12.8883 22.556 12.1969 22.0938 11.5054C22.0609 11.4554 22.0243 11.4091 21.9816 11.3493C21.3243 12.1688 20.678 12.9786 20.0048 13.82Z" fill="#020202"/>
</svg>
