<svg width="80" height="80" viewBox="0 0 80 80" fill="none" xmlns="http://www.w3.org/2000/svg">
<path d="M56.3659 47.7317C69.2705 47.7317 79.7318 37.2705 79.7318 24.3659C79.7318 11.4613 69.2705 1 56.3659 1C43.4613 1 33.0001 11.4613 33.0001 24.3659C33.0001 37.2705 43.4613 47.7317 56.3659 47.7317Z" fill="#3DFFAE"/>
<g clip-path="url(#clip0_1112_1594)">
<path d="M56.513 18.6671C53.3613 18.6671 50.2096 18.6671 47.0631 18.6671C46.636 18.6671 46.5057 18.7974 46.5057 19.2245C46.5057 23.5535 46.5057 27.8878 46.5057 32.2168C46.5057 32.295 46.5109 32.3731 46.5005 32.4512C46.4745 32.6752 46.2974 32.8419 46.0786 32.8263C45.8494 32.8159 45.7139 32.6857 45.6774 32.4564C45.667 32.3783 45.6722 32.3002 45.6722 32.222C45.6722 27.9086 45.6722 23.5952 45.6722 19.2818C45.6722 18.3077 46.1463 17.8284 47.1257 17.8284C49.3501 17.8284 51.5693 17.8284 53.7937 17.8336C53.9656 17.8336 54.0386 17.8284 54.0229 17.6044C53.9135 16.1405 55.0492 14.9163 56.4922 14.9163C57.956 14.9163 59.0917 16.1353 58.9875 17.6148C58.9771 17.8024 59.0136 17.8388 59.1959 17.8388C59.7585 17.8284 60.3263 17.8284 60.8889 17.8388C61.0556 17.844 61.0869 17.7919 61.0869 17.6356C61.0869 17.1095 61.0921 17.0887 60.5607 17.0053C60.1648 16.9428 59.9044 16.7865 59.8366 16.3593C59.8002 16.1197 59.6856 15.8957 59.5501 15.6925C59.3834 15.4373 59.399 15.2081 59.5814 14.9788C59.6387 14.9059 59.6856 14.8174 59.7377 14.7392C59.9669 14.3798 59.9408 14.2756 59.5918 14.0203C59.498 13.9526 59.4511 14.0047 59.3886 14.0464C59.2063 14.161 59.024 14.2756 58.8416 14.3954C58.6749 14.51 58.5082 14.5256 58.3311 14.4214C58.0133 14.2391 57.6799 14.0932 57.3257 14.0151C57.1277 13.9682 57.0183 13.8276 56.9767 13.6348C56.9298 13.4212 56.8829 13.2129 56.8464 12.9993C56.8256 12.8795 56.7735 12.8169 56.6433 12.8378C56.5495 12.8482 56.4505 12.8534 56.3567 12.8378C56.2161 12.8169 56.1796 12.8899 56.1588 13.0045C56.1171 13.2076 56.0702 13.4108 56.0286 13.614C55.9869 13.8328 55.8671 13.9734 55.6483 14.0255C55.3044 14.1037 54.9919 14.2391 54.6897 14.4162C54.5022 14.5256 54.3303 14.5152 54.1532 14.3954C54.0438 14.3225 53.9344 14.2547 53.825 14.187C53.4499 13.9474 53.3822 13.9682 53.1061 14.3225C53.0383 14.4162 53.08 14.4631 53.1217 14.5256C53.2363 14.708 53.3509 14.8903 53.4759 15.0726C53.5958 15.2497 53.6062 15.4216 53.4968 15.6092C53.3144 15.9165 53.179 16.2447 53.1009 16.5938C53.054 16.7917 52.9185 16.9011 52.7258 16.9428C52.3611 17.0209 51.9965 17.0991 51.6318 17.172C51.3609 17.2241 51.1421 17.0939 51.0952 16.8542C51.0484 16.6302 51.189 16.4323 51.4495 16.3646C51.6839 16.3072 51.9235 16.2552 52.158 16.2083C52.2882 16.1822 52.3403 16.1041 52.408 15.9895C52.7154 15.5154 52.5903 15.1247 52.2674 14.7132C51.9808 14.3433 52.0225 14.2235 52.3559 13.8901C52.5903 13.6557 52.8196 13.4212 53.054 13.192C53.2832 12.968 53.4343 12.9524 53.6999 13.1139C53.7468 13.1399 53.7937 13.166 53.8302 13.1972C54.2053 13.5515 54.6012 13.6036 55.0596 13.3327C55.1794 13.2597 55.2628 13.2024 55.2888 13.0618C55.3357 12.8221 55.3878 12.5877 55.4451 12.3533C55.4972 12.1137 55.6535 12.0043 55.8931 12.0043C56.2994 12.0043 56.711 11.9991 57.1173 12.0043C57.3465 12.0043 57.4924 12.1189 57.5445 12.3481C57.5601 12.4054 57.5862 12.4679 57.5862 12.5252C57.5966 13.0774 57.8623 13.4108 58.4093 13.5306C58.5187 13.5567 58.5968 13.5671 58.6958 13.5046C58.9042 13.3639 59.1177 13.2337 59.3313 13.0982C59.5345 12.968 59.7272 12.9888 59.8992 13.1556C60.1909 13.4421 60.4774 13.7286 60.7639 14.0203C60.9306 14.1922 60.9567 14.3798 60.8264 14.5881C60.79 14.6454 60.7535 14.708 60.717 14.7653C60.3159 15.3852 60.3211 15.3852 60.6181 16.0624C60.6701 16.177 60.7483 16.1874 60.8368 16.2083C61.0661 16.2604 61.2953 16.3072 61.5193 16.3646C61.8162 16.4375 61.91 16.5573 61.91 16.8542C61.9152 17.1147 61.9256 17.3752 61.9048 17.6356C61.8944 17.818 61.9621 17.844 62.1236 17.844C63.3895 17.8388 64.6554 17.8388 65.9265 17.8388C66.8225 17.8388 67.3226 18.3389 67.3278 19.2402C67.3278 23.5796 67.3278 27.919 67.3278 32.2585C67.3278 32.3106 67.3278 32.3627 67.3278 32.4148C67.3122 32.6648 67.1455 32.8315 66.9162 32.8367C66.6766 32.8419 66.5099 32.6648 66.4943 32.4044C66.4891 32.3366 66.4943 32.2637 66.4943 32.196C66.4943 27.8826 66.4943 23.5692 66.4943 19.2558C66.4943 18.7974 66.3693 18.6723 65.9056 18.6723C62.78 18.6671 59.6439 18.6671 56.513 18.6671ZM56.4974 17.8336C56.8725 17.8336 57.2424 17.8336 57.6174 17.8336C58.1748 17.8336 58.2374 17.7555 58.154 17.1981C58.1436 17.1303 58.128 17.0626 58.1123 16.9949C57.9092 16.1718 57.0496 15.6196 56.2213 15.7759C55.3357 15.9478 54.7418 16.7396 54.8408 17.6044C54.8616 17.7815 54.9242 17.8492 55.1169 17.8388C55.5753 17.8232 56.0338 17.8336 56.4974 17.8336Z" fill="#273339"/>
<path d="M56.4922 36.1621C53.0383 36.1621 49.5845 36.1621 46.1307 36.1621C45.0315 36.1621 44.1875 35.4328 44.0156 34.3545C43.9375 33.8491 44.0938 33.6616 44.6043 33.6616C47.5268 33.6616 50.4545 33.6616 53.377 33.6616C53.4655 33.6616 53.5541 33.6512 53.6374 33.6668C53.8614 33.7085 53.9969 33.8491 53.9917 34.0784C53.9917 34.3076 53.8562 34.4482 53.6322 34.4847C53.5228 34.5055 53.4082 34.4899 53.2936 34.4899C50.5951 34.4899 47.8966 34.4899 45.1982 34.4951C45.1148 34.4951 44.9846 34.4326 44.9429 34.542C44.9116 34.6253 45.0002 34.7191 45.0575 34.792C45.3284 35.1619 45.6983 35.3286 46.1567 35.3286C49.2563 35.3234 52.3507 35.3286 55.4503 35.3286C59.2428 35.3286 63.0352 35.3286 66.8277 35.3286C67.3174 35.3286 67.7029 35.1515 67.9737 34.7347C68.0154 34.6722 68.0936 34.5993 68.0519 34.5264C68.0102 34.4534 67.9112 34.4951 67.8383 34.4951C65.1034 34.4951 62.3736 34.4951 59.6387 34.4951C59.2011 34.4951 58.9927 34.3597 59.0031 34.0679C59.0083 33.7866 59.2063 33.6616 59.6335 33.6616C62.5559 33.6616 65.4836 33.6616 68.4061 33.6616C68.901 33.6616 69.0573 33.8491 68.9844 34.344C68.8229 35.4276 67.9685 36.1621 66.8537 36.1621C63.3999 36.1673 59.946 36.1621 56.4922 36.1621Z" fill="#273339"/>
<path d="M58.0602 22.7774C58.0394 22.8452 58.0133 22.9389 57.9821 23.0275C57.258 25.1998 56.5339 27.3774 55.8097 29.5497C55.7889 29.607 55.7733 29.6643 55.7472 29.7216C55.6483 29.9456 55.4347 30.0446 55.2159 29.9716C55.0023 29.8987 54.8929 29.6799 54.9658 29.4455C55.2159 28.6745 55.4763 27.9035 55.7316 27.1273C56.2109 25.6843 56.6953 24.2361 57.1746 22.7931C57.2059 22.7045 57.2319 22.6107 57.284 22.5274C57.3934 22.3555 57.5601 22.2982 57.7581 22.3555C57.956 22.418 58.0394 22.5638 58.0602 22.7774Z" fill="#2A363B"/>
<path d="M54.049 28.4199C54.0386 28.5709 53.9604 28.696 53.8041 28.7741C53.6218 28.8627 53.4655 28.8106 53.3249 28.6855C52.9081 28.3209 52.4914 27.9562 52.0694 27.5916C51.6735 27.2425 51.2724 26.8935 50.8764 26.5445C50.5899 26.2892 50.5847 26.0548 50.8712 25.8047C51.6735 25.1015 52.4757 24.3982 53.278 23.6949C53.5333 23.4709 53.7625 23.4657 53.9396 23.6689C54.1115 23.8668 54.0802 24.1012 53.8302 24.32C53.1998 24.8774 52.5695 25.4349 51.9287 25.9766C51.7568 26.1225 51.7308 26.1954 51.9183 26.3569C52.5643 26.8987 53.1894 27.4613 53.825 28.0135C53.95 28.1125 54.049 28.2271 54.049 28.4199Z" fill="#2A363B"/>
<path d="M62.3319 26.1593C62.3371 26.3104 62.259 26.425 62.1496 26.5188C61.3265 27.2377 60.5034 27.9618 59.6803 28.6755C59.4563 28.8682 59.2219 28.8578 59.0604 28.6703C58.8885 28.4775 58.9198 28.2379 59.1542 28.0347C59.7845 27.4773 60.4149 26.9199 61.0556 26.3781C61.2432 26.2166 61.2744 26.1385 61.066 25.9614C60.4201 25.4248 59.7949 24.857 59.1594 24.3048C59.0031 24.1693 58.9041 24.0183 58.9771 23.8047C59.0813 23.4973 59.4199 23.4244 59.696 23.664C60.4045 24.2787 61.1077 24.8987 61.811 25.5134C61.936 25.6228 62.061 25.7322 62.1809 25.8416C62.2746 25.9249 62.3319 26.0291 62.3319 26.1593Z" fill="#2A363B"/>
<path d="M61.4984 31.5509C61.4932 31.8166 61.3109 32.0093 61.066 31.9989C60.8212 31.9885 60.6597 31.7905 60.6649 31.5196C60.6701 31.2696 60.8525 31.082 61.0869 31.082C61.3265 31.082 61.5036 31.2852 61.4984 31.5509Z" fill="#2A363B"/>
<path d="M63.1654 31.5243C63.1707 31.7952 62.9987 31.9879 62.7539 31.9931C62.5091 31.9983 62.3319 31.8056 62.3319 31.5347C62.3319 31.269 62.5143 31.0711 62.7539 31.0763C62.9883 31.0815 63.1602 31.269 63.1654 31.5243Z" fill="#2A363B"/>
<path d="M64.8325 31.5406C64.8325 31.8115 64.6553 32.0042 64.4105 31.999C64.1657 31.9938 63.9937 31.801 63.999 31.5301C64.0042 31.2749 64.1761 31.0873 64.4105 31.0821C64.6501 31.0769 64.8325 31.2749 64.8325 31.5406Z" fill="#2A363B"/>
</g>
<path d="M35.7561 33.4142C35.7561 33.4142 35.9512 31.902 35.6585 31.1703C35.6585 31.1703 35.1707 29.1215 32.9756 29.1215H32.8293C30.4878 29.219 22.3902 29.1703 22.3902 29.1703C22.3902 29.1703 21.4634 29.2678 20.0488 29.0727C18 28.78 14.8293 27.9507 11.7073 25.5117C11.7073 25.5117 11.561 28.8776 9.65853 31.1703C9.60975 31.219 9.51219 31.2678 9.46341 31.3166V45.2678C9.46341 47.4142 10.9756 49.1703 12.439 50.5361C13.4634 51.4629 14.3902 52.4873 15.4634 53.3654C15.8537 53.7068 16.2927 54.0483 16.7317 54.341C16.9756 54.4873 17.2195 54.6825 17.5122 54.78C18.3902 55.219 19.4146 55.5117 20.3902 55.6581C22.1463 55.902 23.8537 55.902 25.6098 55.5605C26.7317 55.3654 27.7561 54.9751 28.7317 54.341C29.1707 54.0483 29.6098 53.7068 30 53.3654C31.0732 52.4873 32.0488 51.4629 33.0244 50.5361C34.4878 49.1703 36 47.4142 36 45.2678V33.4142C35.9024 33.4142 35.8049 33.4142 35.7561 33.4142Z" fill="#ECF4FF"/>
<path d="M22.7805 56.2433C22 56.2433 21.1707 56.1946 20.3415 56.0482C19.1219 55.8531 18.1463 55.5604 17.3171 55.1214C17.0244 54.9751 16.7805 54.8287 16.4878 54.6336C16 54.3409 15.6097 53.9994 15.1707 53.658C14.439 53.0726 13.7561 52.3897 13.1219 51.7555C12.7805 51.4141 12.439 51.1214 12.1463 50.7799C10.6829 49.4141 9.02438 47.5604 9.02438 45.1214V31.219C9.02438 31.0238 9.17073 30.8287 9.36585 30.7312C11.0732 28.5848 11.2683 25.4141 11.2683 25.4141C11.2683 25.219 11.3658 25.0726 11.561 24.9751C11.7073 24.8775 11.9024 24.9263 12.0488 25.0238C15.0732 27.3653 18.0976 28.1946 20.1463 28.4872C20.1463 28.4872 20.1463 28.4872 20.1951 28.4872C21.561 28.6824 22.439 28.5848 22.439 28.5848C22.4878 28.5848 23.8537 28.5848 25.6097 28.5848C28.1463 28.5848 31.5122 28.5848 32.878 28.536H33.0244C35.0732 28.536 35.9512 30.097 36.1951 30.9263C36.439 31.5116 36.439 32.3897 36.3902 32.9263C36.4878 33.0238 36.5366 33.1702 36.5366 33.2677V45.0238C36.5366 47.4141 34.878 49.3165 33.3658 50.6824C33.0244 50.9751 32.7317 51.3165 32.3902 51.6092C31.7073 52.2433 31.0244 52.9263 30.2927 53.5116C29.9024 53.8531 29.4634 54.1946 28.9756 54.4872C28.0488 55.1214 26.9268 55.5604 25.7073 55.8043C24.7317 56.1458 23.7561 56.2433 22.7805 56.2433ZM9.95121 31.5116V45.1702C9.95121 47.1702 11.4634 48.8775 12.7805 50.097C13.1219 50.4385 13.4634 50.7311 13.8049 51.0726C14.439 51.7068 15.1219 52.3409 15.8049 52.9263C16.1951 53.2677 16.5854 53.5604 17.0244 53.8531C17.2683 53.9994 17.5122 54.1458 17.7561 54.2921C18.4878 54.6824 19.4146 54.9263 20.4878 55.1214C22.2439 55.3653 23.8537 55.3653 25.5122 55.0238C26.6341 54.8287 27.6097 54.4385 28.439 53.8531C28.878 53.5604 29.2683 53.2677 29.6585 52.9263C30.3415 52.3409 31.0244 51.658 31.7073 51.0238C32.0488 50.7311 32.3415 50.3897 32.6829 50.097C34 48.8775 35.5122 47.1702 35.5122 45.1702V33.8043C35.4634 33.7555 35.4146 33.7555 35.4146 33.7068C35.3171 33.6092 35.2683 33.4629 35.3171 33.3165C35.4146 32.7799 35.4634 31.7555 35.2195 31.3165C35.2195 31.2677 35.2195 31.2677 35.1707 31.219C35.1707 31.1702 34.7317 29.5604 32.9756 29.5604H32.8293C30.5366 29.658 22.4878 29.6092 22.3902 29.6092C22.3902 29.6092 21.4634 29.7068 20 29.5116C20 29.5116 20 29.5116 19.9512 29.5116C17.9512 29.219 15.0732 28.4385 12.0976 26.3409C11.9024 27.5604 11.4146 29.7068 10.0488 31.4141C9.99999 31.4629 9.95121 31.5116 9.95121 31.5116ZM28.878 38.536C28.6829 38.536 28.5366 38.6824 28.5366 38.8775C28.5366 39.0726 28.6829 39.219 28.878 39.219C29.0732 39.219 29.2195 39.0726 29.2195 38.8775C29.2195 38.6824 29.0732 38.536 28.878 38.536ZM16.5366 38.536C16.3415 38.536 16.1951 38.6824 16.1951 38.8775C16.1951 39.0726 16.3415 39.219 16.5366 39.219C16.7317 39.219 16.878 39.0726 16.878 38.8775C16.878 38.6824 16.7317 38.536 16.5366 38.536Z" fill="#3D8CFF"/>
<path d="M37.4146 32.4395C37.4146 32.4395 37.122 33.3663 35.9512 33.4151C35.9024 33.4151 35.8049 33.4151 35.7073 33.4151C35.7073 33.4151 35.9024 31.9029 35.6098 31.1712C35.6098 31.1712 35.122 29.1224 32.9268 29.1224H32.7805C30.439 29.22 22.3415 29.1712 22.3415 29.1712C22.3415 29.1712 21.4146 29.2688 20 29.0737C17.9512 28.781 14.7805 27.9517 11.6585 25.5127C11.6585 25.5127 11.5122 28.8785 9.60976 31.1712C9.56098 31.22 9.46341 31.2688 9.41463 31.3176C9.07317 31.4151 8.63415 31.1712 8.39024 31.0737C7.90244 30.8298 7.65854 30.5859 7.56098 30.0493C7.31707 28.7322 7.41463 27.1224 7.60976 25.8054C7.85366 24.2444 8.53659 22.6834 10.0976 22.098C10.2927 22.0493 10.4878 22.0005 10.6341 21.9517C10.9756 21.9029 11.3171 21.9029 11.6585 21.9029C11.6585 21.9029 17.2683 15.0737 30.9756 19.3176C32.9756 19.9517 34.8293 21.22 36.0976 22.8785C38.1463 25.4639 38.439 29.3176 37.4146 32.4395Z" fill="#3D8CFF"/>
<path d="M35.8537 33.9026C35.8049 33.9026 35.7561 33.9026 35.7073 33.9026C35.561 33.9026 35.4634 33.8539 35.3659 33.7075C35.2683 33.61 35.2195 33.4636 35.2683 33.3173C35.3659 32.7807 35.4146 31.7563 35.1707 31.3173C35.1707 31.2685 35.1707 31.2685 35.122 31.2197C35.122 31.1709 34.6829 29.5612 32.9268 29.5612H32.7805C30.4878 29.6587 22.439 29.61 22.3415 29.61C22.3415 29.61 21.4146 29.7075 19.9512 29.5124C19.9512 29.5124 19.9512 29.5124 19.9024 29.5124C17.9024 29.2197 15.0244 28.4392 12.0488 26.3417C11.8537 27.5612 11.3659 29.7075 10 31.4148C9.90244 31.5612 9.70732 31.6587 9.5122 31.7075C9.12195 31.8051 8.63415 31.6587 8.19512 31.4148C7.70732 31.1709 7.21951 30.8295 7.07317 30.049C6.78049 28.4392 6.97561 26.5856 7.12195 25.6587C7.46342 23.5124 8.43903 22.0978 9.95122 21.5612C10.1463 21.5124 10.3902 21.4148 10.5854 21.4148C10.8781 21.3661 11.1707 21.3661 11.5122 21.3661C12.5366 20.2441 18.439 14.8783 31.1707 18.7807C33.3171 19.4636 35.2195 20.7807 36.5366 22.5368C38.5366 25.1709 39.0732 29.1222 37.9024 32.5856C37.9024 32.6344 37.4634 33.8051 36 33.9026C35.9512 33.9026 35.9024 33.9026 35.8537 33.9026ZM36.0976 31.0246C36.3415 31.5612 36.3415 32.3417 36.2927 32.8783C36.7805 32.7319 36.9268 32.3417 36.9756 32.2929C38.0488 29.1222 37.561 25.5124 35.7561 23.1222C34.5854 21.5612 32.8293 20.3417 30.8781 19.7563C17.7073 15.7075 12.1463 22.1465 12.0976 22.1953C12 22.2929 11.8537 22.3904 11.7073 22.3904C11.3659 22.3904 11.0732 22.3904 10.7805 22.4392C10.6341 22.488 10.439 22.488 10.2927 22.5856C8.82927 23.0734 8.29268 24.6343 8.09756 25.9026C7.95122 26.7807 7.80488 28.488 8.04878 29.9514C8.09756 30.2929 8.2439 30.4392 8.63415 30.6343C9.07317 30.8295 9.26829 30.8783 9.31708 30.8295C11.0244 28.6831 11.2195 25.5124 11.2195 25.5124C11.2195 25.3173 11.3171 25.1709 11.5122 25.0734C11.6585 24.9758 11.8537 25.0246 12 25.1222C15.0244 27.4636 18.0488 28.2929 20.0976 28.5856C20.0976 28.5856 20.0976 28.5856 20.1463 28.5856C21.5122 28.7807 22.3902 28.6831 22.3902 28.6831C22.439 28.6831 23.8049 28.6831 25.561 28.6831C28.0976 28.6831 31.4634 28.6831 32.8293 28.6343H32.9756C34.9756 28.6343 35.9024 30.1465 36.0976 31.0246Z" fill="#3D8CFF"/>
<path d="M14.7805 24.0498C14.6341 24.0498 14.5366 24.001 14.439 23.9035C13.1707 22.684 11.6097 22.3425 11.6097 22.3425C11.3658 22.2937 11.1707 22.0498 11.2195 21.7571C11.2683 21.5132 11.5122 21.3181 11.8049 21.3669C11.9024 21.3669 13.6585 21.7571 15.1219 23.2206C15.3171 23.4157 15.3171 23.7084 15.1219 23.9035C15.0244 24.001 14.9268 24.0498 14.7805 24.0498Z" fill="#3D8CFF"/>
<path d="M31.3659 31.513C31.3171 31.513 31.3171 31.513 31.3659 31.513C26.9268 31.1716 20 29.513 19.9512 29.513C19.7073 29.4643 19.5122 29.1716 19.6098 28.9277C19.6585 28.6838 19.9512 28.4886 20.1951 28.5862C20.2439 28.5862 27.1707 30.2447 31.4146 30.5862C31.7073 30.5862 31.9024 30.8301 31.8537 31.1228C31.8049 31.3179 31.6098 31.513 31.3659 31.513Z" fill="#3D8CFF"/>
<path d="M9.4634 36.0483V42.4873L9.2195 42.341C7.07316 41.1702 8.24389 40.0971 8.24389 40.0971C7.4634 39.3654 6.63414 37.6581 7.02438 36.5361C7.36584 35.5605 8.7317 35.5117 9.4634 36.0483Z" fill="#ECF4FF"/>
<path d="M9.46341 42.9758C9.36585 42.9758 9.26829 42.9758 9.21951 42.927L8.97561 42.7806C8.04878 42.2928 7.51219 41.6587 7.46341 41.0245C7.41463 40.6831 7.51219 40.3904 7.65854 40.1465C6.87805 39.2197 6.19512 37.6099 6.63415 36.3904C6.82927 35.8538 7.26829 35.4636 7.80488 35.3172C8.4878 35.1221 9.26829 35.2684 9.80488 35.7075C9.90244 35.805 10 35.9514 10 36.0977V42.5367C10 42.7319 9.90244 42.8782 9.7561 42.9758C9.60976 42.9758 9.51219 42.9758 9.46341 42.9758ZM8.34146 36.1953C8.2439 36.1953 8.09756 36.1953 8 36.2441C7.7561 36.3416 7.56098 36.488 7.46341 36.7319C7.17073 37.5611 7.80488 39.0733 8.53659 39.7562C8.63415 39.8538 8.68293 40.0001 8.68293 40.0977C8.68293 40.1953 8.63415 40.3416 8.53659 40.4392C8.53659 40.4392 8.34146 40.6343 8.39024 40.8782C8.39024 41.0245 8.53658 41.2684 8.97561 41.6099V36.3416C8.78049 36.244 8.53659 36.1953 8.34146 36.1953Z" fill="#3D8CFF"/>
<path d="M36.2439 42.3424L36 42.4887V36.0497C36.7317 35.4643 38.0488 35.5619 38.439 36.5375C38.8293 37.6595 38 39.318 37.2195 40.0985C37.2195 40.0985 38.3902 41.1717 36.2439 42.3424Z" fill="#ECF4FF"/>
<path d="M36 42.9757C35.9025 42.9757 35.8537 42.9757 35.7561 42.9269C35.6098 42.8294 35.5122 42.683 35.5122 42.4879V36.0489C35.5122 35.9025 35.561 35.7562 35.7073 35.6586C36.2439 35.2196 37.0244 35.0733 37.7073 35.2684C38.2439 35.4147 38.6829 35.805 38.8781 36.3416C39.3171 37.5611 38.6342 39.1708 37.8537 40.0977C37.9512 40.2928 38.0488 40.5855 38.0488 40.9757C37.9512 41.6099 37.4634 42.244 36.5366 42.7318L36.2439 42.9269C36.1464 42.9757 36.0488 42.9757 36 42.9757ZM36.4878 36.3416V41.6099C36.9268 41.2684 37.0244 41.0245 37.0732 40.8781C37.122 40.6342 36.9268 40.4391 36.9268 40.4391C36.8293 40.3416 36.7805 40.1952 36.7805 40.0977C36.7805 40.0001 36.8293 39.8538 36.9268 39.7562C37.6585 39.0245 38.2927 37.5611 38 36.7318C37.9025 36.4879 37.7561 36.3416 37.4634 36.244C37.122 36.1464 36.7317 36.1952 36.4878 36.3416Z" fill="#3D8CFF"/>
<path d="M22.7317 45.3171C21.4146 45.3171 20.878 44.2927 20.8293 44.2439C20.6829 44 20.7805 43.7073 21.0244 43.6098C21.2683 43.4634 21.561 43.561 21.6585 43.8049C21.6585 43.8049 21.9512 44.3415 22.6829 44.3415C23.4146 44.3415 23.7073 43.8049 23.7073 43.8049C23.8536 43.561 24.1463 43.4634 24.3902 43.6098C24.6341 43.7561 24.7317 44.0488 24.5854 44.2439C24.5854 44.2927 24.0488 45.3171 22.7317 45.3171Z" fill="#3D8CFF"/>
<path d="M22.7317 49.5613C20.1463 49.5613 19.0244 48.8784 18.9756 48.8784C18.7317 48.732 18.6829 48.4394 18.8293 48.1955C18.9756 47.9516 19.2683 47.9028 19.5122 48.0491C19.5122 48.0491 20.4878 48.5857 22.7317 48.5857C24.9756 48.5857 25.9512 48.0491 25.9512 48.0491C26.1951 47.9028 26.4878 48.0003 26.6341 48.1955C26.7805 48.4394 26.6829 48.732 26.4878 48.8784C26.3902 48.8784 25.3171 49.5613 22.7317 49.5613Z" fill="#3D8CFF"/>
<path d="M18.7317 38.3408H13.8049C13.5122 38.3408 13.3171 38.1457 13.3171 37.853C13.3171 37.5604 13.5122 37.3652 13.8049 37.3652H18.7317C19.0244 37.3652 19.2195 37.5604 19.2195 37.853C19.2195 38.1457 18.9756 38.3408 18.7317 38.3408Z" fill="#3D8CFF"/>
<path d="M16.5366 39.7074C16.9946 39.7074 17.3658 39.3361 17.3658 38.8781C17.3658 38.4201 16.9946 38.0488 16.5366 38.0488C16.0786 38.0488 15.7073 38.4201 15.7073 38.8781C15.7073 39.3361 16.0786 39.7074 16.5366 39.7074Z" fill="#3D8CFF"/>
<path d="M16.5366 40.1947C15.8049 40.1947 15.2195 39.6093 15.2195 38.8776C15.2195 38.1459 15.8049 37.5605 16.5366 37.5605C17.2683 37.5605 17.8537 38.1459 17.8537 38.8776C17.8537 39.6093 17.2683 40.1947 16.5366 40.1947ZM16.5366 38.5362C16.3415 38.5362 16.1951 38.6825 16.1951 38.8776C16.1951 39.0727 16.3415 39.2191 16.5366 39.2191C16.7317 39.2191 16.878 39.0727 16.878 38.8776C16.878 38.6825 16.7317 38.5362 16.5366 38.5362Z" fill="#3D8CFF"/>
<path d="M31.6098 38.3408H26.6829C26.3903 38.3408 26.1951 38.1457 26.1951 37.853C26.1951 37.5604 26.3903 37.3652 26.6829 37.3652H31.6098C31.9024 37.3652 32.0976 37.5604 32.0976 37.853C32.0976 38.1457 31.9024 38.3408 31.6098 38.3408Z" fill="#3D8CFF"/>
<path d="M28.878 39.7074C29.336 39.7074 29.7073 39.3361 29.7073 38.8781C29.7073 38.4201 29.336 38.0488 28.878 38.0488C28.42 38.0488 28.0488 38.4201 28.0488 38.8781C28.0488 39.3361 28.42 39.7074 28.878 39.7074Z" fill="#3D8CFF"/>
<path d="M28.878 40.1947C28.1463 40.1947 27.561 39.6093 27.561 38.8776C27.561 38.1459 28.1463 37.5605 28.878 37.5605C29.6098 37.5605 30.1951 38.1459 30.1951 38.8776C30.1951 39.6093 29.6098 40.1947 28.878 40.1947ZM28.878 38.5362C28.6829 38.5362 28.5366 38.6825 28.5366 38.8776C28.5366 39.0727 28.6829 39.2191 28.878 39.2191C29.0732 39.2191 29.2195 39.0727 29.2195 38.8776C29.2195 38.6825 29.0732 38.5362 28.878 38.5362Z" fill="#3D8CFF"/>
<path d="M19.6585 36.7797C19.5122 36.7797 19.3659 36.731 19.2683 36.5846C19.1707 36.4871 17.3659 34.2919 12.9756 35.8041C12.7317 35.9017 12.439 35.7554 12.3415 35.5115C12.2439 35.2675 12.3903 34.9749 12.6342 34.8773C17.7073 33.0724 19.9512 35.8529 20.0488 35.9505C20.1951 36.1456 20.1951 36.4871 19.9512 36.6334C19.8537 36.731 19.7561 36.7797 19.6585 36.7797Z" fill="#3D8CFF"/>
<path d="M26.8293 36.8788C26.2927 36.8788 25.8049 36.7812 25.3171 36.5373C25.0732 36.4398 24.9756 36.1471 25.122 35.9032C25.2195 35.6593 25.5122 35.5617 25.7561 35.7081C26.8293 36.2447 28.0488 35.8056 29.2683 35.4154C29.561 35.3178 29.8537 35.2203 30.0976 35.1227C30.9268 34.8788 32.1463 34.4886 33.0244 35.4642C33.2195 35.6593 33.2195 35.952 32.9756 36.1471C32.7805 36.3422 32.4878 36.3422 32.2927 36.0983C31.8537 35.6593 31.2195 35.8056 30.3415 36.0495C30.0976 36.1471 29.8049 36.2447 29.5122 36.3422C28.6829 36.5373 27.7561 36.8788 26.8293 36.8788Z" fill="#3D8CFF"/>
<path d="M13.3171 57.3176C13.1707 57.3176 12.9756 57.2201 12.878 57.0737L12.8293 56.9762C12.6829 56.7323 12.7317 56.4396 12.9756 56.2933C13.2195 56.1469 13.5122 56.1957 13.6585 56.4396L13.7073 56.5372C13.8537 56.7811 13.7561 57.0737 13.561 57.2201C13.5122 57.2689 13.4146 57.3176 13.3171 57.3176Z" fill="#3D8CFF"/>
<path d="M22.7317 78.5847C22.439 78.5847 22.2439 78.3895 22.2439 78.0969V61.7554C22.2439 61.4627 22.439 61.2676 22.7317 61.2676C23.0244 61.2676 23.2195 61.4627 23.2195 61.7554V78.0969C23.2195 78.3895 22.9756 78.5847 22.7317 78.5847Z" fill="#3D8CFF"/>
<path d="M32.0976 57.3176C32 57.3176 31.9024 57.3176 31.8537 57.2201C31.6098 57.0737 31.561 56.7811 31.7073 56.5372L31.7561 56.4396C31.9024 56.1957 32.1951 56.1469 32.439 56.2933C32.6829 56.4396 32.7317 56.7323 32.5854 56.9762L32.5366 57.0737C32.3902 57.2201 32.2439 57.3176 32.0976 57.3176Z" fill="#3D8CFF"/>
<path d="M32.0976 56.8306C29.2683 61.4647 22.7317 61.7086 22.7317 61.7086C22.7317 61.7086 16.1951 61.4647 13.3659 56.8306C14.6829 56.0501 15.8537 54.9769 15.5122 53.3184C15.9025 53.6598 16.3415 54.0013 16.7805 54.294C17.0244 54.4403 17.2683 54.6354 17.561 54.733C18.439 55.172 19.4634 55.4647 20.439 55.611C22.1951 55.8549 23.9025 55.8549 25.6586 55.5135C26.7805 55.3184 27.8049 54.9281 28.7805 54.294C29.2195 54.0013 29.6586 53.6598 30.0488 53.3184C29.6098 54.9769 30.7805 56.0013 32.0976 56.8306Z" fill="#ECF4FF"/>
<path d="M22.7317 62.1468C22.439 62.1468 15.8537 61.8541 12.9268 57.0736C12.8781 56.9761 12.8293 56.8297 12.8781 56.6834C12.9268 56.537 12.9756 56.4395 13.122 56.3907C14.6829 55.4639 15.2683 54.537 15.0244 53.3663C14.9756 53.1712 15.0732 52.9761 15.2683 52.8297C15.4634 52.7322 15.6585 52.7322 15.8537 52.8785C16.2439 53.22 16.6342 53.5126 17.0732 53.8053C17.3171 53.9517 17.561 54.098 17.8049 54.2443C18.5366 54.6346 19.4634 54.8785 20.5366 55.0736C22.2927 55.3175 23.9024 55.3175 25.561 54.9761C26.6829 54.7809 27.6585 54.3907 28.4878 53.8053C28.9268 53.5126 29.3171 53.22 29.7073 52.8785C29.8537 52.7322 30.0976 52.7322 30.2927 52.8297C30.4878 52.9273 30.5854 53.1224 30.5366 53.3663C30.2927 54.537 30.8781 55.4639 32.439 56.3907C32.5366 56.4395 32.6342 56.5858 32.6829 56.6834C32.7317 56.8297 32.6829 56.9273 32.6342 57.0736C29.561 61.8541 23.0244 62.1468 22.7317 62.1468ZM14 56.9761C16.7805 60.9273 22.6342 61.22 22.7317 61.22C22.7805 61.22 28.6342 60.9273 31.4146 56.9761C30.5366 56.3907 29.6098 55.5614 29.4634 54.3419C29.3171 54.4395 29.1707 54.5858 28.9756 54.6834C28.0488 55.3175 26.9268 55.7565 25.7073 56.0004C23.9512 56.3419 22.1951 56.3419 20.3415 56.098C19.122 55.9029 18.1463 55.6102 17.3171 55.1712C17.0244 55.0248 16.7805 54.8785 16.4878 54.6834C16.3415 54.5858 16.1951 54.4395 16 54.3419C15.8049 55.5614 14.8781 56.3907 14 56.9761Z" fill="#3D8CFF"/>
<path d="M43.4634 69.4154C43.4634 69.4154 41.1707 71.952 37.2195 74.2934C33.6098 76.4398 28.5854 78.391 22.6829 78.0983C16.7805 78.4398 11.7561 76.4398 8.14634 74.2934C4.19512 71.952 1.90244 69.4154 1.90244 69.4154C2.34146 63.6593 6.78048 60.0983 11.561 57.7081C12.0976 57.4154 12.6829 57.1227 13.2683 56.7812C16.0976 61.4154 22.6341 61.6593 22.6341 61.6593C22.6341 61.6593 29.1707 61.4154 32 56.7812C32.5854 57.1227 33.1707 57.4154 33.7073 57.7081C38.5854 60.1471 43.0732 63.6593 43.4634 69.4154Z" fill="#3D8CFF" fill-opacity="0.39"/>
<path d="M21.4146 78.6349C16.8293 78.6349 12.2927 77.3178 7.90245 74.7324C3.95123 72.391 1.65854 69.8544 1.56098 69.7568C1.46342 69.6593 1.41464 69.5129 1.41464 69.4154C1.80489 64.4397 5.0244 60.4885 11.3659 57.3178L11.6098 57.2202C12.0976 56.9763 12.5854 56.7324 13.0732 56.4397C13.3171 56.2934 13.6098 56.391 13.7561 56.5861C16.3903 60.9275 22.6829 61.2202 22.7317 61.2202C22.7805 61.2202 29.0244 60.9275 31.6585 56.5861C31.8049 56.3422 32.0976 56.2934 32.3415 56.4397C32.8293 56.7324 33.3171 56.9763 33.7561 57.2202L34 57.3666C40.3415 60.5373 43.561 64.5373 43.9512 69.4641C43.9512 69.6105 43.9024 69.708 43.8049 69.8056C43.7073 69.9032 41.4146 72.4397 37.4634 74.7812C32.7805 77.5617 27.6585 78.9275 22.6829 78.6349C22.2927 78.6349 21.8537 78.6349 21.4146 78.6349ZM22.7317 77.6105C27.6098 77.8544 32.3903 76.6349 37.0244 73.8544C40.2927 71.9032 42.439 69.8056 43.0244 69.2202C42.5854 64.7324 39.5122 61.0739 33.6098 58.0983L33.3659 57.9519C33.0244 57.7568 32.6342 57.6105 32.2927 57.3666C29.2683 61.7568 23.0732 62.0495 22.7805 62.0495C22.4878 62.0495 16.2439 61.7568 13.2195 57.3666C12.8293 57.5617 12.439 57.7568 12.0976 57.9519L11.8537 58.0495C5.95123 61.1227 2.87806 64.7324 2.43903 69.269C2.97562 69.8544 5.12196 71.9519 8.43903 73.9032C13.0244 76.6349 17.8537 77.9032 22.7317 77.6105C22.6829 77.6105 22.6829 77.6105 22.7317 77.6105Z" fill="#3D8CFF"/>
<path d="M22.7317 78.5847C22.439 78.5847 22.2439 78.3895 22.2439 78.0969V61.7554C22.2439 61.4627 22.439 61.2676 22.7317 61.2676C23.0244 61.2676 23.2195 61.4627 23.2195 61.7554V78.0969C23.2195 78.3895 22.9756 78.5847 22.7317 78.5847Z" fill="#3D8CFF"/>
<path d="M8.19511 74.7308C7.90243 74.7308 7.70731 74.5356 7.70731 74.243V67.5112C7.70731 67.2186 7.90243 67.0234 8.19511 67.0234C8.48779 67.0234 8.68292 67.2186 8.68292 67.5112V74.243C8.68292 74.4869 8.43901 74.7308 8.19511 74.7308Z" fill="#3D8CFF"/>
<path d="M37.2195 74.7308C36.9268 74.7308 36.7317 74.5356 36.7317 74.243V67.5112C36.7317 67.2186 36.9268 67.0234 37.2195 67.0234C37.5122 67.0234 37.7073 67.2186 37.7073 67.5112V74.243C37.7073 74.4869 37.5122 74.7308 37.2195 74.7308Z" fill="#3D8CFF"/>
<path d="M9.46341 58.9263L12.9756 55.4141L22.7317 61.7555L18.7317 65.4141L9.46341 58.9263Z" fill="#B4D3FF"/>
<path d="M18.7317 65.902C18.6342 65.902 18.5366 65.8532 18.439 65.8044L9.17074 59.3166C9.07318 59.2191 8.97562 59.1215 8.97562 58.9752C8.97562 58.8288 9.0244 58.6825 9.12196 58.5849L12.6342 55.1215C12.7805 54.9752 13.0732 54.9264 13.2195 55.0727L22.9756 61.4142C23.122 61.5118 23.1707 61.6093 23.2195 61.8044C23.2195 61.9508 23.1707 62.0971 23.0732 62.1947L19.0732 65.8532C18.9268 65.8532 18.8293 65.902 18.7317 65.902ZM10.1951 58.8288L18.6829 64.7801L21.9512 61.8044L13.0732 56.0483L10.1951 58.8288Z" fill="#3D8CFF"/>
<path d="M35.9512 58.9263L32.439 55.4141L22.6829 61.7555L26.6829 65.4141L35.9512 58.9263Z" fill="#B4D3FF"/>
<path d="M26.6829 65.9019C26.5854 65.9019 26.439 65.8531 26.3415 65.7556L22.3415 62.097C22.2439 61.9995 22.1951 61.8531 22.1951 61.7068C22.1951 61.5604 22.2927 61.4141 22.439 61.3165L32.1951 54.9751C32.3903 54.8287 32.6342 54.8775 32.7805 55.0239L36.2927 58.4873C36.3903 58.5848 36.439 58.7312 36.439 58.8775C36.439 59.0239 36.3415 59.1702 36.2439 59.219L26.9756 65.7068C26.8781 65.9019 26.7805 65.9019 26.6829 65.9019ZM23.5122 61.8043L26.7805 64.78L35.2683 58.8287L32.439 56.0483L23.5122 61.8043Z" fill="#3D8CFF"/>
<path d="M22.5854 66.2923C22.5854 66.4874 19.2195 65.7557 19.0244 65.7069C17.8537 65.3655 17.0732 64.4874 17.6585 63.3167C18.2439 62.1947 19.9024 60.7801 21.2683 60.9752C23.2683 61.2191 22.6341 64.9264 22.5854 66.2923Z" fill="#3DFFAE"/>
<path d="M22.3902 66.7802C21.3171 66.7802 18.878 66.1461 18.878 66.1461C18 65.8534 17.3658 65.3656 17.1219 64.7314C16.9756 64.39 16.878 63.8046 17.2683 63.0241C17.9024 61.7558 19.8049 60.1461 21.3658 60.39C23.5122 60.6827 23.2683 63.707 23.1707 65.5119C23.1707 65.8046 23.1219 66.0485 23.1219 66.2436C23.1219 66.39 23.0244 66.5363 22.9268 66.6339C22.7805 66.7802 22.6341 66.7802 22.3902 66.7802ZM21.0244 61.4144C19.9512 61.4144 18.5854 62.6339 18.0975 63.5119C17.9512 63.8534 17.9024 64.1461 18 64.39C18.1463 64.7314 18.5854 65.0241 19.1707 65.2192C19.4146 65.268 21.3171 65.707 22.1463 65.8046C22.1463 65.707 22.1463 65.6095 22.1463 65.5119C22.2439 64.1461 22.439 61.6095 21.1707 61.4144C21.1219 61.4144 21.0732 61.4144 21.0244 61.4144Z" fill="#3D8CFF"/>
<path d="M22.8293 66.2923C22.8293 66.4874 26.1951 65.7557 26.3902 65.7069C27.561 65.3655 28.3415 64.4874 27.7561 63.3167C27.1707 62.1947 25.5122 60.7801 24.1463 60.9752C22.1463 61.2191 22.7805 64.9264 22.8293 66.2923Z" fill="#3DFFAE"/>
<path d="M23.0244 66.7803C22.8293 66.7803 22.6341 66.7315 22.5366 66.6827C22.3902 66.5851 22.3415 66.4388 22.3415 66.2925C22.3415 66.0973 22.3415 65.8534 22.2927 65.5607C22.1463 63.7559 21.9512 60.7315 24.0975 60.4388C25.6585 60.1949 27.561 61.8047 28.1951 63.0729C28.5854 63.8047 28.4878 64.39 28.3415 64.7803C28.0975 65.4144 27.4634 65.9022 26.5854 66.1949C26.4878 66.1461 24.0975 66.7803 23.0244 66.7803ZM24.3902 61.4144C24.3415 61.4144 24.2439 61.4144 24.1951 61.4144C22.9756 61.6095 23.1707 64.1461 23.2195 65.512C23.2195 65.6095 23.2195 65.7071 23.2195 65.8046C24.0488 65.7071 25.9512 65.2681 26.1951 65.2193C26.7805 65.0242 27.2195 64.7315 27.3658 64.39C27.4634 64.1461 27.4146 63.8534 27.2683 63.512C26.8293 62.5851 25.4634 61.4144 24.3902 61.4144Z" fill="#3D8CFF"/>
<defs>
<clipPath id="clip0_1112_1594">
<rect width="25" height="24.1665" fill="white" transform="translate(44 12)"/>
</clipPath>
</defs>
</svg>
