<svg width="50" height="50" viewBox="0 0 50 50" fill="none" xmlns="http://www.w3.org/2000/svg">
<g clip-path="url(#clip0_1861_131)">
<path d="M15.9586 30.8275C15.9486 30.5383 16.1251 30.2818 16.4201 30.1497C16.7636 29.9954 16.8108 29.7511 16.8086 29.4161C16.7972 26.8725 16.7979 24.3283 16.8072 21.7847C16.8079 21.5004 16.7486 21.3261 16.4686 21.1868C15.9644 20.9354 15.8201 20.4683 16.0536 20.0433C16.2801 19.6325 16.7258 19.4925 17.2008 19.7497C17.5122 19.9183 17.7451 19.8797 18.0372 19.7154C20.1165 18.5468 22.2115 17.4075 24.2844 16.2268C24.7886 15.9397 25.1986 15.9283 25.7072 16.2168C27.7658 17.3875 29.8486 18.5154 31.9108 19.6797C32.2236 19.8561 32.4579 19.9083 32.7886 19.7154C33.2329 19.4561 33.7029 19.6183 33.9236 20.034C34.1336 20.429 34.0208 20.8747 33.5729 21.1225C33.2736 21.289 33.1915 21.4797 33.1929 21.8075C33.2065 24.3854 33.2044 26.964 33.1944 29.5418C33.1929 29.8261 33.2679 29.999 33.5208 30.154C34.0108 30.454 34.1251 30.9168 33.8622 31.3247C33.6051 31.724 33.0936 31.859 32.6586 31.5161C32.1036 31.0797 31.6694 31.1961 31.1136 31.519C29.2722 32.5875 27.3958 33.5968 25.5408 34.6418C25.1572 34.8575 24.8272 34.8468 24.4451 34.6311C22.4429 33.5004 20.4272 32.3918 18.4244 31.2618C18.1465 31.1054 17.9365 31.1104 17.6836 31.2925C17.4786 31.4404 17.2501 31.5718 17.0129 31.6561C16.4865 31.8411 15.9586 31.444 15.9586 30.8275ZM31.5601 22.2711C29.6658 23.3218 27.8558 24.334 26.0365 25.3275C25.7936 25.4604 25.8222 25.6411 25.8222 25.8404C25.8215 26.949 25.8222 28.0575 25.8229 29.1654C25.8229 30.2833 25.8229 31.4018 25.8229 32.5968C27.7272 31.5375 29.5651 30.5125 31.4065 29.494C31.5586 29.4097 31.5615 29.2897 31.5615 29.1511C31.5594 26.8861 31.5601 24.6204 31.5601 22.2711ZM24.1815 32.5911C24.1815 30.2597 24.1744 28.0254 24.1894 25.7918C24.1915 25.4961 24.0579 25.3804 23.8322 25.2568C22.1772 24.3468 20.5286 23.424 18.8751 22.5104C18.7486 22.4404 18.6394 22.3097 18.4429 22.349C18.4429 24.3075 18.5015 26.269 18.4172 28.2233C18.3779 29.1347 18.6701 29.6047 19.4722 30.0047C21.0508 30.7918 22.5694 31.6968 24.1815 32.5911ZM19.2865 20.8897C19.4144 20.9397 19.4644 20.9533 19.5086 20.9783C21.2522 21.9447 22.9994 22.9047 24.7329 23.8883C25.0001 24.0397 25.1744 23.9447 25.3836 23.8275C27.0058 22.9233 28.6294 22.0218 30.2501 21.1154C30.3744 21.0454 30.5444 21.024 30.6065 20.8275C28.8058 19.8247 27.0058 18.8261 25.2108 17.8183C25.0051 17.7025 24.8651 17.7904 24.6979 17.8847C23.8958 18.3354 23.0894 18.7775 22.2844 19.224C21.3222 19.7583 20.3601 20.2933 19.2865 20.8897Z" fill="#28343A"/>
<path d="M33.1994 8.07773C32.6622 8.63415 32.2108 8.71058 31.8294 8.35844C31.4972 8.05201 31.4722 7.53987 31.7722 7.20701C32.1322 6.80844 32.6029 6.86058 33.1987 7.38415C33.1987 6.69987 33.2108 6.03772 33.1944 5.37558C33.1844 4.9663 33.3687 4.70415 33.7115 4.51487C36.0379 3.23201 38.3694 1.95844 40.6829 0.652011C41.1879 0.367011 41.5972 0.353439 42.1051 0.640582C44.4187 1.94701 46.7487 3.22344 49.0758 4.5063C49.4394 4.70701 49.6051 4.98701 49.6037 5.41344C49.5929 8.31487 49.5922 11.217 49.6029 14.1184C49.6051 14.6042 49.4079 14.9113 48.9901 15.1427C46.6208 16.4534 44.2572 17.7756 41.8937 19.097C41.5494 19.2892 41.2265 19.2749 40.8829 19.082C38.5508 17.7734 36.2201 16.4642 33.8758 15.1777C33.4001 14.917 33.1865 14.5906 33.1922 14.042C33.2115 12.0792 33.1994 10.1163 33.1994 8.07773ZM42.2179 17.0213C44.1144 15.9692 45.9258 14.957 47.7458 13.9613C47.9872 13.8292 47.9551 13.6427 47.9551 13.4434C47.9551 11.3434 47.9565 9.24415 47.9522 7.14415C47.9522 7.02201 48.0001 6.88272 47.8872 6.75201C46.0644 7.76558 44.2558 8.77487 42.4415 9.77415C42.2629 9.87273 42.2137 9.9913 42.2144 10.1806C42.2201 12.4313 42.2179 14.6834 42.2179 17.0213ZM40.5772 17.0184C40.5772 14.6906 40.5701 12.4542 40.5858 10.2177C40.5879 9.91272 40.4301 9.81058 40.2108 9.68987C38.7801 8.90344 37.3537 8.10915 35.9265 7.31701C35.5772 7.12344 35.2287 6.92987 34.8401 6.71415C34.8401 9.02915 34.8394 11.2656 34.8408 13.502C34.8408 13.6663 34.8129 13.822 35.0172 13.9342C36.8501 14.9413 38.6758 15.9613 40.5772 17.0184ZM35.8372 5.2313C35.8515 5.39201 35.9501 5.40844 36.0194 5.44701C37.7108 6.38915 39.4072 7.32201 41.0922 8.27701C41.3665 8.43273 41.5601 8.35987 41.7929 8.22915C43.4244 7.3163 45.0594 6.41058 46.6908 5.49915C46.8001 5.43844 46.9594 5.41844 46.9701 5.2313C45.2022 4.24844 43.4287 3.27058 41.6658 2.27415C41.4244 2.13773 41.2629 2.20987 41.0622 2.32201C39.9044 2.97201 38.7422 3.61487 37.5822 4.25987C36.9937 4.58773 36.4058 4.91487 35.8372 5.2313Z" fill="#28343A"/>
<path d="M16.8037 41.8132C17.383 41.2875 17.8594 41.2361 18.2265 41.6403C18.5322 41.9768 18.5065 42.4789 18.1687 42.7875C17.7844 43.1382 17.3372 43.0653 16.803 42.5225C16.803 43.2103 16.7922 43.8503 16.8065 44.4889C16.8165 44.9311 16.6308 45.2311 16.2501 45.4425C13.8537 46.7732 11.4594 48.1089 9.0651 49.4432C8.73724 49.6261 8.42225 49.6011 8.09939 49.4196C5.76724 48.1139 3.43725 46.8032 1.09367 45.5175C0.599388 45.2461 0.391531 44.9032 0.395817 44.3368C0.415103 41.4875 0.410817 38.6375 0.399388 35.7875C0.397245 35.3461 0.546531 35.0468 0.934388 34.8339C3.26225 33.5553 5.59153 32.2796 7.9051 30.9746C8.39153 30.7003 8.79082 30.6782 9.28153 30.9546C11.6108 32.2661 13.9544 33.5525 16.2951 34.8439C16.6615 35.0461 16.8115 35.3375 16.8087 35.7596C16.7972 37.7703 16.8037 39.7803 16.8037 41.8132ZM15.1622 37.0453C13.2815 38.0903 11.4758 39.1018 9.65867 40.0939C9.39724 40.2368 9.42367 40.4325 9.42367 40.6503C9.42367 42.3746 9.42367 44.0989 9.42367 45.8232C9.42367 46.3089 9.42367 46.7939 9.42367 47.3532C11.3258 46.2946 13.1501 45.2739 14.9822 44.2661C15.1844 44.1546 15.1608 44.0011 15.1608 43.8346C15.1622 41.5989 15.1622 39.3625 15.1622 37.0453ZM2.04582 37.0411C2.04582 39.3725 2.05082 41.6246 2.03867 43.8768C2.03725 44.1339 2.1601 44.2289 2.3501 44.3339C4.03653 45.2632 5.71867 46.1996 7.40296 47.1311C7.5151 47.1932 7.61439 47.3075 7.78439 47.2589C7.78439 45.0075 7.78224 42.7553 7.78796 40.5032C7.78867 40.3096 7.7301 40.1939 7.55582 40.0982C5.74224 39.0975 3.93225 38.0889 2.04582 37.0411ZM3.01082 35.5946C3.07367 35.6618 3.1001 35.7082 3.1401 35.7303C4.87724 36.6946 6.61939 37.6489 8.34867 38.6268C8.59653 38.7668 8.76082 38.6889 8.95582 38.5811C10.6194 37.6568 12.2837 36.7339 13.9451 35.8061C14.0387 35.7539 14.183 35.7325 14.1715 35.5589C12.4072 34.5789 10.6344 33.6011 8.87153 32.6046C8.62939 32.4682 8.46867 32.5418 8.26867 32.6539C6.69296 33.5339 5.1151 34.4082 3.53796 35.2853C3.36653 35.3811 3.19939 35.4839 3.01082 35.5946Z" fill="#28343A"/>
<path d="M49.5971 40.0936C49.5971 41.5278 49.5843 42.9621 49.6036 44.3957C49.6107 44.9207 49.4057 45.245 48.9471 45.4978C46.5893 46.795 44.2421 48.1136 41.8936 49.4271C41.55 49.6193 41.2271 49.6078 40.8821 49.4143C38.55 48.1057 36.2171 46.7971 33.8736 45.5093C33.3993 45.2486 33.1864 44.9207 33.19 44.3721C33.2078 41.5214 33.2064 38.67 33.1914 35.8193C33.1886 35.3078 33.3943 35.0257 33.8393 34.7843C36.1293 33.5393 38.41 32.2771 40.6743 30.9864C41.2021 30.6857 41.625 30.7014 42.1421 30.9936C44.4414 32.2921 46.7571 33.5607 49.0693 34.8357C49.4321 35.0357 49.6064 35.3128 49.6021 35.7407C49.5886 37.1914 49.5971 38.6421 49.5971 40.0936ZM42.2178 47.3043C42.3128 47.2764 42.3621 47.2707 42.4028 47.2486C44.1614 46.2743 45.9164 45.2943 47.68 44.3293C47.9143 44.2007 47.9636 44.0414 47.9607 43.7978C47.9493 42.7907 47.9564 41.7836 47.9564 40.7764C47.9564 39.5557 47.9564 38.3357 47.9564 37.0457C46.0686 38.0957 44.2486 39.1143 42.42 40.1178C42.2007 40.2386 42.2171 40.4028 42.2171 40.5886C42.2178 41.7493 42.2171 42.91 42.2171 44.0714C42.2178 45.1386 42.2178 46.2071 42.2178 47.3043ZM40.5778 47.3507C40.5778 45.0221 40.5707 42.7857 40.5864 40.5493C40.5886 40.2428 40.4271 40.1421 40.21 40.0221C38.5578 39.1093 36.91 38.1878 35.2578 37.2757C35.1328 37.2071 35.0214 37.0764 34.84 37.1221C34.84 39.3607 34.8393 41.5964 34.8414 43.8328C34.8414 43.9957 34.81 44.1521 35.0157 44.265C36.8478 45.2714 38.6736 46.2921 40.5778 47.3507ZM46.9771 35.5686C45.25 34.6071 43.5107 33.65 41.7843 32.6693C41.4914 32.5028 41.2793 32.5236 40.9978 32.6828C39.4128 33.5793 37.8157 34.4543 36.2257 35.3428C36.0878 35.42 35.9136 35.4621 35.8286 35.6357C35.8757 35.6771 35.9078 35.7164 35.9493 35.7393C37.6707 36.6964 39.3971 37.645 41.1114 38.6157C41.3693 38.7621 41.5493 38.6964 41.7657 38.5757C43.4121 37.6564 45.0614 36.7421 46.7086 35.8236C46.8071 35.7678 46.9393 35.7428 46.9771 35.5686Z" fill="#28343A"/>
<path d="M0.405211 9.77405C0.405211 8.32262 0.414497 6.8712 0.399497 5.42048C0.395211 4.99477 0.557354 4.71262 0.923068 4.5112C3.25021 3.22977 5.58235 1.95548 7.89592 0.647625C8.4045 0.360482 8.81378 0.359768 9.31878 0.644768C11.6331 1.95048 13.9645 3.22691 16.2909 4.51191C16.6331 4.70048 16.8102 4.96334 16.8095 5.37262C16.8009 8.29191 16.7995 11.2112 16.8095 14.1312C16.8109 14.6198 16.6016 14.9183 16.1859 15.1483C13.8152 16.4591 11.4524 17.7826 9.08807 19.1041C8.76164 19.2862 8.44592 19.2826 8.12092 19.1012C5.74164 17.7726 3.36164 16.4441 0.978782 15.1226C0.579497 14.9012 0.397354 14.5926 0.40164 14.1283C0.415211 12.6762 0.405925 11.2255 0.405211 9.77405ZM9.4245 16.9276C9.47378 16.9455 9.49521 16.9605 9.50521 16.9555C11.3245 15.9541 13.1416 14.9498 14.9616 13.9498C15.0945 13.8769 15.1645 13.7948 15.1645 13.6341C15.1609 11.3519 15.1616 9.07048 15.1616 6.7162C13.2674 7.76762 11.4302 8.78834 9.59093 9.80477C9.44807 9.88405 9.42164 9.99548 9.42164 10.1426C9.42521 12.4083 9.4245 14.6741 9.4245 16.9276ZM2.04664 6.71048C2.04664 9.0412 2.05164 11.2933 2.0395 13.5455C2.03807 13.8019 2.16093 13.8998 2.35093 14.0041C4.02235 14.9255 5.68878 15.8548 7.36021 16.7762C7.48592 16.8455 7.59521 16.9776 7.7845 16.9319C7.7845 14.6776 7.78235 12.4255 7.78807 10.1733C7.78878 9.9812 7.7345 9.86262 7.5595 9.7662C5.74378 8.7662 3.93378 7.75834 2.04664 6.71048ZM14.2774 5.28905C12.4066 4.24762 10.6216 3.2612 8.84664 2.25834C8.59664 2.11691 8.43307 2.23262 8.24235 2.33834C6.62021 3.23977 4.99735 4.13905 3.37807 5.04548C3.25807 5.11262 3.0845 5.13262 3.03592 5.34405C4.66735 6.25048 6.3095 7.13477 7.92021 8.07405C8.42092 8.36548 8.79735 8.36477 9.29664 8.07405C10.9095 7.13405 12.5524 6.24762 14.2774 5.28905Z" fill="#28343A"/>
<path d="M19.2493 6.9395C19.69 6.9345 20.0665 7.29379 20.0793 7.73236C20.0929 8.18665 19.7 8.58379 19.2457 8.5745C18.8072 8.56593 18.4436 8.19308 18.4436 7.75308C18.4443 7.30879 18.8043 6.94522 19.2493 6.9395Z" fill="#28343A"/>
<path d="M6.15005 26.6095C5.71077 26.6138 5.33862 26.2509 5.32791 25.8088C5.31648 25.3631 5.66648 24.9924 6.11362 24.9752C6.58148 24.9574 6.96719 25.3316 6.96219 25.7974C6.95648 26.2395 6.59077 26.6059 6.15005 26.6095Z" fill="#28343A"/>
<path d="M44.6744 27.4472C44.6651 27.8879 44.2922 28.2522 43.8536 28.25C43.3922 28.2479 43.0179 27.8508 43.0408 27.3893C43.0629 26.9443 43.4401 26.6 43.8865 26.6158C44.3365 26.6322 44.6844 26.9986 44.6744 27.4472Z" fill="#28343A"/>
<path d="M6.96216 29.0532C6.97287 29.5018 6.6243 29.8725 6.17573 29.8889C5.70787 29.9061 5.32287 29.5318 5.32644 29.0639C5.33001 28.6161 5.69073 28.2561 6.13858 28.2539C6.58716 28.2504 6.95144 28.6039 6.96216 29.0532Z" fill="#28343A"/>
<path d="M43.8587 29.8926C44.3072 29.8947 44.6694 30.2512 44.6751 30.6969C44.6815 31.1562 44.2865 31.544 43.8294 31.5276C43.3901 31.5119 43.0337 31.1347 43.0394 30.6926C43.0465 30.2454 43.4094 29.8904 43.8587 29.8926Z" fill="#28343A"/>
<path d="M6.13217 21.6954C6.58074 21.6876 6.94788 22.0383 6.96217 22.4869C6.97645 22.934 6.63002 23.309 6.18288 23.3297C5.71645 23.3519 5.32788 22.9804 5.32788 22.5119C5.32788 22.0626 5.68217 21.7026 6.13217 21.6954Z" fill="#28343A"/>
<path d="M44.6744 20.8545C44.6822 21.2959 44.3272 21.6731 43.8865 21.6909C43.4279 21.7088 43.0358 21.3259 43.0401 20.8631C43.0444 20.4167 43.4051 20.0588 43.8529 20.0567C44.3015 20.0538 44.6658 20.4081 44.6744 20.8545Z" fill="#28343A"/>
<path d="M14.3309 31.5333C14.7745 31.5262 15.1459 31.8805 15.1609 32.3247C15.1759 32.7833 14.7902 33.1755 14.3309 33.1676C13.8873 33.1605 13.5273 32.794 13.5273 32.3505C13.5266 31.9076 13.8881 31.5405 14.3309 31.5333Z" fill="#28343A"/>
<path d="M35.6759 31.5334C36.1166 31.5434 36.478 31.9141 36.4766 32.3555C36.4752 32.7963 36.1088 33.1648 35.668 33.1684C35.2066 33.1727 34.8245 32.7806 34.8416 32.3213C34.8573 31.8806 35.2352 31.5234 35.6759 31.5334Z" fill="#28343A"/>
<path d="M14.3566 20.0526C13.9166 20.0597 13.5416 19.7019 13.5266 19.2597C13.5116 18.8169 13.8616 18.4376 14.3037 18.4169C14.7637 18.3955 15.1602 18.7733 15.1609 19.2333C15.1616 19.6719 14.7944 20.0455 14.3566 20.0526Z" fill="#28343A"/>
<path d="M44.6744 24.1354C44.6829 24.5768 44.3251 24.9547 43.8851 24.9697C43.4258 24.9854 43.0344 24.6011 43.0394 24.1397C43.0444 23.694 43.4072 23.3354 43.8544 23.334C44.3029 23.3326 44.6658 23.6876 44.6744 24.1354Z" fill="#28343A"/>
<path d="M6.1372 20.0512C5.69791 20.0469 5.3322 19.6783 5.3272 19.2362C5.3222 18.789 5.67649 18.4248 6.12577 18.4162C6.59506 18.4069 6.97434 18.7862 6.9622 19.2519C6.95149 19.6912 6.57506 20.0555 6.1372 20.0512Z" fill="#28343A"/>
<path d="M29.113 8.57472C28.6751 8.5833 28.2987 8.22401 28.2837 7.78258C28.2687 7.33758 28.6137 6.96258 29.0587 6.94044C29.5187 6.91758 29.9172 7.29544 29.9172 7.7533C29.918 8.18687 29.5458 8.56615 29.113 8.57472Z" fill="#28343A"/>
<path d="M25.8388 8.57557C25.4023 8.587 25.023 8.22914 25.0038 7.78771C24.9838 7.34271 25.3273 6.96414 25.773 6.94057C26.2323 6.91628 26.6352 7.292 26.6388 7.74843C26.6423 8.17985 26.2709 8.56414 25.8388 8.57557Z" fill="#28343A"/>
<path d="M36.4759 19.2362C36.4738 19.6762 36.1074 20.0448 35.6674 20.0505C35.2052 20.0555 34.8252 19.6662 34.8424 19.2041C34.8588 18.7612 35.2338 18.4069 35.6752 18.4162C36.1195 18.4255 36.4781 18.7933 36.4759 19.2362Z" fill="#28343A"/>
<path d="M22.5594 8.57421C22.1208 8.58564 21.7437 8.23064 21.7244 7.78778C21.7051 7.3435 22.0494 6.96493 22.4944 6.94064C22.9558 6.91564 23.3551 7.2885 23.3587 7.74778C23.3623 8.18064 22.9923 8.56278 22.5594 8.57421Z" fill="#28343A"/>
<path d="M21.7188 42.1819C21.7209 42.6226 21.358 42.9954 20.918 43.0054C20.4566 43.0154 20.073 42.6283 20.0845 42.1647C20.0952 41.7183 20.4623 41.3661 20.9102 41.3711C21.3616 41.3769 21.7173 41.7333 21.7188 42.1819Z" fill="#28343A"/>
<path d="M24.178 43.0064C23.7415 43.0057 23.3715 42.6392 23.3637 42.1978C23.3551 41.7514 23.7072 41.3835 24.1537 41.3714C24.6144 41.3592 25.0073 41.7442 24.9987 42.2007C24.9908 42.6321 24.6094 43.0071 24.178 43.0064Z" fill="#28343A"/>
<path d="M27.4358 43.0042C26.9972 42.9913 26.6379 42.6163 26.6436 42.1749C26.6493 41.7085 27.0422 41.3428 27.5072 41.3706C27.9465 41.3971 28.2986 41.7849 28.2779 42.2206C28.2565 42.6535 27.8665 43.0171 27.4358 43.0042Z" fill="#28343A"/>
<path d="M31.5572 42.1675C31.5665 42.609 31.2115 42.9875 30.7715 43.0054C30.3129 43.0247 29.92 42.6425 29.9236 42.1797C29.9265 41.7333 30.2865 41.3747 30.7343 41.3711C31.1822 41.3683 31.5479 41.7211 31.5572 42.1675Z" fill="#28343A"/>
</g>
<defs>
<clipPath id="clip0_1861_131">
<rect width="50" height="50" fill="white"/>
</clipPath>
</defs>
</svg>
