<svg width="50" height="50" viewBox="0 0 50 50" fill="none" xmlns="http://www.w3.org/2000/svg">
<path d="M20.0976 29.7798C19.5885 29.8865 19.1251 29.9445 18.6494 29.8073C17.5915 29.5054 16.8415 28.5908 16.8385 27.4902C16.8263 24.1579 16.7805 20.8225 16.8568 17.4902C16.9055 15.4384 17.8598 13.7798 19.5732 12.6061C20.247 12.1426 21.0062 11.9292 21.8324 11.9323C23.8903 11.9384 25.9482 11.9536 28.0062 11.9262C29.2348 11.9109 30.2714 12.3317 31.1433 13.1609C32.433 14.3865 33.1433 15.9018 33.1555 17.6884C33.1799 20.9018 33.1647 24.1152 33.1616 27.3317C33.1586 29.0573 31.7958 30.1487 30.0915 29.8073C30.0427 29.7981 29.9909 29.8012 29.8964 29.7951C29.8964 29.9841 29.8964 30.1701 29.8964 30.353C29.8964 33.6183 29.8964 36.8835 29.8964 40.1487C29.8964 40.3012 29.9116 40.4597 29.8842 40.6061C29.8019 41.0451 29.5305 41.3103 29.0793 41.3103C28.6312 41.3103 28.3568 41.0481 28.2744 40.6061C28.247 40.4567 28.2622 40.3012 28.2622 40.1487C28.2622 33.3134 28.2622 26.475 28.2622 19.6396C28.2622 19.4872 28.247 19.3286 28.2744 19.1823C28.3537 18.7433 28.6251 18.478 29.0732 18.475C29.5244 18.4719 29.7958 18.7341 29.8812 19.1731C29.9086 19.3225 29.8933 19.478 29.8933 19.6304C29.8933 22.1122 29.8933 24.5969 29.8933 27.0786C29.8933 27.1792 29.8903 27.2829 29.8933 27.3835C29.9177 27.9048 30.2379 28.2494 30.7013 28.2555C31.1647 28.2585 31.5122 27.917 31.5214 27.3987C31.5366 26.4628 31.5275 25.5268 31.5275 24.5939C31.5275 22.3317 31.5244 20.0695 31.5305 17.8073C31.5336 16.7097 31.1769 15.7372 30.5183 14.8774C29.8537 14.0054 29.0062 13.5268 27.8568 13.5512C25.869 13.5939 23.8781 13.5695 21.8872 13.5603C21.244 13.5573 20.6769 13.7524 20.1952 14.1548C19.122 15.0481 18.494 16.2036 18.4818 17.603C18.4482 20.8347 18.4696 24.0664 18.4726 27.2951C18.4726 27.8896 18.7988 28.2585 19.2927 28.2555C19.7866 28.2524 20.0915 27.8835 20.1037 27.2829C20.1068 27.1823 20.1037 27.0786 20.1037 26.978C20.1037 24.5115 20.1037 22.0451 20.1037 19.5817C20.1037 19.4292 20.0854 19.2707 20.122 19.1244C20.2257 18.7158 20.4909 18.4689 20.9208 18.4719C21.3476 18.475 21.6159 18.7189 21.7165 19.1305C21.7531 19.2768 21.7348 19.4353 21.7348 19.5878C21.7348 26.4597 21.7348 33.3286 21.7348 40.2006C21.7348 40.3195 21.7409 40.4384 21.7287 40.5573C21.6799 41.0054 21.3446 41.3195 20.9208 41.3195C20.497 41.3195 20.1555 41.0085 20.1098 40.5603C20.0946 40.4262 20.1037 40.289 20.1037 40.1518C20.1037 36.8865 20.1037 33.6213 20.1037 30.3561C20.0976 30.1731 20.0976 29.9902 20.0976 29.7798Z" fill="#263238"/>
<path d="M24.997 47.8567C18.247 47.8567 11.497 47.8598 4.74396 47.8567C2.77445 47.8567 1.21653 46.7226 0.67994 44.9208C0.588477 44.6098 0.521403 44.2958 0.512257 43.9695C0.493964 43.2866 0.795794 42.9634 1.48482 42.9604C3.54274 42.9543 5.60067 42.9573 7.6586 42.9573C11.433 42.9573 15.2074 42.9573 18.9848 42.9573C19.122 42.9573 19.2592 42.9421 19.3934 42.9695C19.8324 43.0549 20.0946 43.3262 20.0915 43.7775C20.0885 44.2287 19.8202 44.497 19.3842 44.5793C19.2348 44.6067 19.0793 44.5915 18.9269 44.5915C13.5702 44.5915 8.21348 44.5915 2.85677 44.5945C2.69518 44.5945 2.46653 44.5061 2.38116 44.6464C2.2775 44.8202 2.46957 44.9909 2.57018 45.1342C3.09762 45.8842 3.82628 46.2256 4.74701 46.2256C11.2775 46.2195 17.8049 46.2226 24.3354 46.2226C31.308 46.2226 38.2775 46.2195 45.2501 46.2256C46.1891 46.2256 46.933 45.875 47.4543 45.0915C47.5427 44.9573 47.7165 44.8049 47.619 44.6433C47.5397 44.5153 47.3385 44.5945 47.1921 44.5945C41.8202 44.5915 36.4452 44.5915 31.0732 44.5915C30.936 44.5915 30.7988 44.6006 30.6647 44.5854C30.2165 44.5397 29.9025 44.2012 29.8994 43.7775C29.8964 43.3537 30.2074 43.0122 30.6555 42.9634C30.7897 42.9482 30.9269 42.9573 31.0641 42.9573C36.8293 42.9573 42.5915 42.9573 48.3568 42.9573C49.2805 42.9573 49.6007 43.3354 49.4635 44.2714C49.1525 46.3933 47.4696 47.8506 45.3049 47.8537C38.5306 47.8598 31.7623 47.8567 24.997 47.8567Z" fill="#263238"/>
<path d="M3.77148 27.3472C3.77148 23.0972 3.77148 18.8472 3.77148 14.5941C3.77148 12.9447 4.78673 11.9356 6.44831 11.9356C9.50929 11.9356 12.5703 11.9356 15.6282 11.9356C15.7471 11.9356 15.866 11.9295 15.9849 11.9386C16.4971 11.9661 16.8386 12.3075 16.8294 12.771C16.8203 13.213 16.4879 13.5453 16.0001 13.5636C15.5245 13.5819 15.0489 13.5697 14.5733 13.5697C11.9209 13.5697 9.26844 13.5697 6.616 13.5697C5.616 13.5697 5.40563 13.7831 5.40563 14.8045C5.40563 23.2039 5.40563 31.6033 5.40563 40.0027C5.40563 40.1033 5.40563 40.2069 5.40563 40.3075C5.39953 40.9508 5.0977 41.3228 4.58551 41.3197C4.07636 41.3167 3.77453 40.9478 3.77453 40.3014C3.77148 35.9844 3.77453 31.6673 3.77148 27.3472Z" fill="#263238"/>
<path d="M46.2197 27.3643C46.2197 31.6143 46.2197 35.8643 46.2197 40.1174C46.2197 40.2881 46.238 40.4619 46.2044 40.6265C46.116 41.0625 45.8386 41.3247 45.3874 41.3155C44.9392 41.3064 44.6678 41.0412 44.5977 40.5991C44.5703 40.4345 44.5886 40.2607 44.5886 40.0899C44.5886 31.657 44.5886 23.2241 44.5886 14.7912C44.5886 13.7851 44.3721 13.5747 43.3599 13.5747C40.3508 13.5747 37.3416 13.5747 34.3325 13.5747C34.18 13.5747 34.0215 13.5899 33.8752 13.5625C33.4361 13.4802 33.1709 13.2119 33.1709 12.7576C33.1709 12.3064 33.4361 12.0381 33.8721 11.9527C34.0032 11.9284 34.1435 11.9405 34.2807 11.9405C37.3752 11.9405 40.4697 11.9375 43.5642 11.9405C45.2197 11.9405 46.2227 12.9497 46.2227 14.6143C46.2197 18.8613 46.2197 23.1143 46.2197 27.3643Z" fill="#263238"/>
<path d="M20.9148 6.21883C20.9178 3.96883 22.7624 2.13347 25.0124 2.14261C27.2624 2.14871 29.0886 3.99932 29.0764 6.25237C29.0642 8.47798 27.2319 10.3011 25.0032 10.3042C22.7563 10.3072 20.9148 8.46578 20.9148 6.21883ZM25.0032 8.67005C26.3325 8.667 27.4361 7.56639 27.4453 6.24017C27.4544 4.88651 26.3416 3.77066 24.991 3.77371C23.6374 3.77981 22.5367 4.89566 22.552 6.25542C22.5611 7.58164 23.6709 8.6731 25.0032 8.67005Z" fill="#263238"/>
<path d="M8.67084 40.4911C8.67999 40.9301 8.32633 41.3082 7.88731 41.3265C7.42694 41.3448 7.0367 40.9667 7.0428 40.5033C7.04584 40.0612 7.40865 39.6984 7.85377 39.6954C8.28975 39.6893 8.65865 40.049 8.67084 40.4911Z" fill="#303B41"/>
<path d="M11.936 40.4911C11.9482 40.9301 11.5945 41.3082 11.1524 41.3265C10.7134 41.3448 10.3293 40.9942 10.3049 40.5551C10.2774 40.0948 10.6524 39.6984 11.1128 39.6954C11.5518 39.6893 11.9238 40.046 11.936 40.4911Z" fill="#303B41"/>
<path d="M15.1982 40.5305C15.186 40.9726 14.811 41.3293 14.372 41.3232C13.9086 41.3171 13.5397 40.9208 13.5671 40.4604C13.5946 40.0183 13.9756 39.6738 14.4177 39.6921C14.8628 39.7134 15.2135 40.0884 15.1982 40.5305Z" fill="#303B41"/>
<path d="M18.4665 40.5201C18.4604 40.9591 18.0884 41.3249 17.6524 41.3249C17.1921 41.3249 16.8171 40.9316 16.8354 40.4713C16.8537 40.0292 17.2317 39.6786 17.6738 39.6938C18.1158 39.706 18.4726 40.078 18.4665 40.5201Z" fill="#303B41"/>
<path d="M33.1587 40.4872C33.1678 40.9262 32.8172 41.3042 32.3752 41.3225C31.9148 41.3408 31.5246 40.9628 31.5276 40.5024C31.5307 40.0603 31.8935 39.6975 32.3355 39.6914C32.7776 39.6884 33.1465 40.0481 33.1587 40.4872Z" fill="#303B41"/>
<path d="M35.6159 39.6915C36.058 39.6976 36.4208 40.0634 36.4239 40.5055C36.4269 40.9476 36.0641 41.3165 35.6251 41.3256C35.1647 41.3348 34.7806 40.9476 34.7928 40.4872C34.8019 40.0451 35.1739 39.6854 35.6159 39.6915Z" fill="#303B41"/>
<path d="M39.6861 40.5002C39.6922 40.9392 39.3324 41.3142 38.8934 41.3264C38.4513 41.3386 38.0763 40.988 38.058 40.5459C38.0397 40.0856 38.4147 39.6953 38.8781 39.6953C39.3202 39.6953 39.683 40.0551 39.6861 40.5002Z" fill="#303B41"/>
<path d="M41.3203 40.4682C41.3416 40.0262 41.7197 39.6786 42.1617 39.6938C42.6038 39.7091 42.9605 40.081 42.9514 40.5231C42.9422 40.9804 42.5367 41.3554 42.0825 41.3249C41.6465 41.2945 41.302 40.9073 41.3203 40.4682Z" fill="#303B41"/>
</svg>
