<svg width="35" height="35" viewBox="0 0 35 35" fill="none" xmlns="http://www.w3.org/2000/svg">
<g clip-path="url(#clip0_1111_1177)">
<path d="M17.4979 0.695312C22.4811 0.695312 27.4643 0.695312 32.4497 0.695312C33.6363 0.695312 34.3085 1.37184 34.3085 2.56909C34.3085 9.14013 34.3085 15.709 34.3085 22.2801C34.3085 23.5712 33.6598 24.2221 32.3793 24.2243C31.7497 24.2243 31.118 24.2264 30.4884 24.2221C30.0765 24.22 29.8268 24.0023 29.829 23.6609C29.8311 23.3194 30.0787 23.106 30.4927 23.1038C31.1692 23.0996 31.8457 23.106 32.5244 23.1017C32.979 23.0996 33.1881 22.8926 33.1881 22.438C33.1903 15.7859 33.1903 9.13373 33.1881 2.48159C33.1881 2.00354 32.9747 1.81574 32.4561 1.81574C24.9973 1.81574 17.5406 1.81574 10.0817 1.81574C7.58476 1.81574 5.08568 1.81574 2.58873 1.81574C1.99117 1.81574 1.81617 1.98861 1.81617 2.58403C1.81617 9.14226 1.81617 15.7005 1.81617 22.2587C1.81617 22.9545 1.96342 23.1017 2.65275 23.1017C4.55428 23.1017 6.45793 23.1017 8.35946 23.1017C8.52379 23.1017 8.68812 23.0932 8.83324 23.1913C9.03385 23.3279 9.13629 23.5221 9.0872 23.7612C9.03172 24.0279 8.85672 24.1944 8.57928 24.2157C8.34665 24.2328 8.1119 24.2221 7.87928 24.2221C6.093 24.2221 4.30885 24.2243 2.52257 24.2221C1.38507 24.22 0.69574 23.5307 0.69574 22.3889C0.69574 15.7837 0.69574 9.17854 0.69574 2.57336C0.69574 1.3633 1.36586 0.697447 2.58446 0.697447C7.55489 0.695312 12.5253 0.695312 17.4979 0.695312Z" fill="black"/>
<path d="M14.1387 18.7921C14.1387 18.6576 14.1387 18.5232 14.1387 18.3887C14.1387 15.1213 14.1344 11.854 14.1408 8.58871C14.143 7.33596 15.0713 6.34785 16.2707 6.29877C17.5619 6.24755 18.6119 7.24206 18.6183 8.54602C18.6268 10.3771 18.6204 12.2104 18.6204 14.0415C18.6204 14.1567 18.6204 14.2719 18.6204 14.4213C19.1369 14.193 19.6427 14.0671 20.1911 14.1908C20.7268 14.3104 21.1665 14.5707 21.4951 15.004C21.6125 15.1576 21.6744 15.2088 21.8686 15.0808C23.0317 14.3274 24.4701 14.718 25.1082 15.96C25.2107 16.1607 25.2661 16.1628 25.4561 16.0689C26.9671 15.3177 28.6957 16.3805 28.7021 18.075C28.7128 21.2485 28.7085 24.4219 28.7021 27.5954C28.7 28.5003 28.1344 29.3219 27.3192 29.6463C26.9585 29.7893 26.6597 29.6954 26.5189 29.3902C26.378 29.0893 26.4997 28.7969 26.8582 28.6283C27.3576 28.3957 27.5881 28.0116 27.586 27.4631C27.5817 24.36 27.586 21.2549 27.5838 18.1518C27.5838 17.471 27.1442 16.9759 26.5296 16.9418C25.8936 16.9055 25.4241 17.3472 25.343 18.0558C25.3024 18.41 25.0677 18.6363 24.754 18.6192C24.4402 18.6021 24.2311 18.3652 24.2247 18.0003C24.2183 17.6631 24.2268 17.3238 24.2226 16.9844C24.2119 16.3378 23.7594 15.8491 23.1555 15.8213C22.543 15.7936 22.0521 16.2396 21.986 16.8777C21.9433 17.2832 21.7427 17.5009 21.4161 17.4966C21.0747 17.4924 20.8698 17.2448 20.8634 16.8286C20.8613 16.6771 20.8677 16.5256 20.8613 16.3741C20.8399 15.7573 20.3726 15.2793 19.7814 15.26C19.1817 15.2408 18.693 15.6805 18.6247 16.2951C18.6204 16.3421 18.6247 16.389 18.6161 16.4338C18.5692 16.739 18.3302 16.946 18.0399 16.9354C17.7497 16.9247 17.5171 16.7049 17.5043 16.3933C17.4893 16.0006 17.5 15.6036 17.5 15.2067C17.5 13.0021 17.5021 10.7954 17.4979 8.59084C17.4979 8.02956 17.1884 7.61554 16.6805 7.46401C16.2216 7.32743 15.7287 7.50669 15.4533 7.91218C15.2954 8.1448 15.257 8.4009 15.257 8.67621C15.2613 11.5338 15.2591 14.3936 15.2591 17.2512C15.2591 18.5808 15.2591 19.9125 15.2591 21.2421C15.2591 21.6753 15.1183 21.9143 14.811 21.9677C14.4439 22.0338 14.2625 21.814 14.1195 21.5131C13.5006 20.2091 12.8753 18.9094 12.2521 17.6076C12.1561 17.407 12.0515 17.2149 11.9128 17.0399C11.4881 16.5064 10.9866 16.3485 10.3293 16.5213C10.086 16.5854 10.0241 16.6835 10.0902 16.9354C10.5043 18.4869 10.9354 20.0363 11.296 21.6006C11.7655 23.6408 12.8027 25.3951 13.9338 27.1088C14.2049 27.5186 14.5357 27.8793 14.9454 28.1631C15.2207 28.353 15.2805 28.6774 15.1183 28.9314C14.9454 29.2024 14.6253 29.2707 14.3222 29.0872C13.8655 28.8097 13.5198 28.4128 13.2018 27.9924C12.1134 26.5646 11.2768 24.9875 10.6259 23.3271C10.2588 22.3924 10.0945 21.3765 9.84054 20.3948C9.51402 19.1335 9.18536 17.8701 8.86097 16.6088C8.75212 16.1884 8.82895 16.0113 9.2003 15.8C10.8286 14.8716 12.3652 15.3326 13.2061 17.0079C13.5027 17.6012 13.7823 18.203 14.0704 18.8006C14.0918 18.7985 14.1152 18.7963 14.1387 18.7921Z" fill="black"/>
<path d="M21.4567 29.8242C23.6165 29.8242 25.7741 29.8242 27.9339 29.8242C28.5293 29.8242 28.7043 29.9971 28.7043 30.5925C28.7043 31.5956 28.7064 32.6007 28.7043 33.6038C28.7022 34.0477 28.4973 34.3017 28.1473 34.3038C27.7973 34.3059 27.5881 34.0498 27.586 33.6102C27.5839 32.8056 27.5796 31.9989 27.5903 31.1943C27.5924 30.998 27.5391 30.9404 27.3406 30.9404C23.3967 30.9468 19.4506 30.9468 15.5067 30.9404C15.3061 30.9404 15.2549 30.998 15.257 31.1943C15.2677 31.9989 15.2634 32.8056 15.2613 33.6102C15.2592 34.0498 15.0479 34.3059 14.6979 34.3038C14.3479 34.3017 14.143 34.0477 14.1409 33.6038C14.1387 32.5773 14.1387 31.5507 14.1409 30.5221C14.143 30.0206 14.3372 29.8242 14.8409 29.8242C17.0455 29.8242 19.25 29.8242 21.4567 29.8242Z" fill="black"/>
<path d="M16.1213 4.05469C18.8082 4.06749 20.8399 6.05438 20.8634 8.40835C20.8677 8.73914 20.761 8.98457 20.4302 9.0806C20.0588 9.18731 19.7643 8.8992 19.7366 8.42755C19.6661 7.22603 19.1283 6.28914 18.0975 5.6617C15.9485 4.35133 13.1357 5.85804 13.0247 8.3742C13.0119 8.65804 12.9756 8.90987 12.6854 9.04432C12.2927 9.22786 11.8893 8.94402 11.9 8.46597C11.9299 7.13639 12.4549 6.0245 13.4536 5.15164C14.2966 4.41749 15.289 4.06322 16.1213 4.05469Z" fill="black"/>
<path d="M23.1021 8.31383C23.1 9.14402 23.0189 9.70743 22.8781 10.2644C22.7842 10.6315 22.4982 10.8321 22.1951 10.7596C21.8622 10.6806 21.6936 10.3818 21.7875 9.99127C22.2826 7.95103 21.7982 6.16902 20.3875 4.6239C20.1058 4.31658 20.1058 3.99432 20.3683 3.76383C20.6116 3.55042 20.9317 3.58243 21.2028 3.86414C22.4619 5.17877 23.0723 6.75804 23.1021 8.31383Z" fill="black"/>
<path d="M9.65491 8.55602C9.68905 6.77187 10.2866 5.21181 11.518 3.90571C11.8189 3.58559 12.1476 3.54077 12.4016 3.77339C12.6641 4.01669 12.6448 4.32614 12.3418 4.6612C10.9631 6.17858 10.4915 7.93285 10.9567 9.93254C11.0549 10.3594 10.9119 10.6475 10.5619 10.7307C10.2183 10.8118 9.97289 10.6176 9.86405 10.1801C9.7296 9.64657 9.65704 9.10663 9.65491 8.55602Z" fill="black"/>
<path d="M32.0655 12.4931C32.0655 12.8303 32.0698 13.1675 32.0634 13.5047C32.057 13.8888 31.8393 14.1321 31.5128 14.1364C31.1841 14.1428 30.9494 13.8995 30.9451 13.5217C30.9387 12.8132 30.9387 12.1025 30.9451 11.394C30.9494 11.0162 31.182 10.7751 31.5107 10.7794C31.8393 10.7836 32.0527 11.0269 32.0613 11.4111C32.0655 11.5967 32.0634 11.7824 32.0634 11.9702C32.0677 12.1452 32.0677 12.3202 32.0655 12.4931Z" fill="black"/>
</g>
<defs>
<clipPath id="clip0_1111_1177">
<rect width="35" height="35" fill="white"/>
</clipPath>
</defs>
</svg>
