<svg width="80" height="80" viewBox="0 0 80 80" fill="none" xmlns="http://www.w3.org/2000/svg">
<path d="M55.3659 47.7317C68.2705 47.7317 78.7317 37.2705 78.7317 24.3659C78.7317 11.4612 68.2705 1 55.3659 1C42.4613 1 32 11.4612 32 24.3659C32 37.2705 42.4613 47.7317 55.3659 47.7317Z" fill="#3DFFAE"/>
<path d="M23.6586 79.8039C23.4146 79.8039 23.1707 79.6088 23.1707 79.3161V61.5112C23.1707 61.2186 23.4146 61.0234 23.6586 61.0234C23.9025 61.0234 24.1464 61.2186 24.1464 61.5112V79.3161C24.1464 79.56 23.9025 79.8039 23.6586 79.8039Z" fill="#3D8CFF"/>
<path d="M33.8537 56.1472C30.7805 61.1716 23.6585 61.4155 23.6585 61.4155C23.6585 61.4155 16.5366 61.1229 13.4634 56.1472C14.7317 55.3668 15.8537 54.3911 15.8537 52.9277C16.9268 53.8546 18.0976 54.9277 19.4634 55.2692C20.8293 55.6107 22.2439 55.7082 23.6585 55.7082C25.0732 55.7082 26.4878 55.6107 27.8537 55.2692C29.2195 54.9277 30.439 53.8546 31.4634 52.9277C31.4634 54.3911 32.5854 55.3668 33.8537 56.1472Z" fill="#ECF4FF"/>
<path d="M23.6585 61.9028C23.3171 61.9028 16.1951 61.5613 13.0244 56.3906C12.9756 56.293 12.9268 56.1467 12.9756 56.0004C13.0244 55.854 13.0732 55.7564 13.2195 55.7077C14.6829 54.8296 15.3659 53.9516 15.3659 52.9272C15.3659 52.7321 15.4634 52.5369 15.6585 52.4882C15.8537 52.4394 16.0488 52.4394 16.1951 52.5857L16.3415 52.6833C17.3171 53.5613 18.3903 54.5369 19.6585 54.8296C21.0732 55.1711 22.5854 55.2199 23.7073 55.2199C24.8293 55.2199 26.3415 55.1711 27.7561 54.8296C28.9756 54.5369 30.0976 53.5613 31.0732 52.6833L31.1707 52.5857C31.3171 52.4394 31.5122 52.4394 31.7073 52.4882C31.9024 52.5857 32 52.7321 32 52.9272C32 53.9516 32.6829 54.8296 34.1464 55.7077C34.2439 55.7564 34.3415 55.9028 34.3903 56.0004C34.439 56.1467 34.3903 56.2443 34.3415 56.3906C31.0732 61.5613 23.9512 61.9028 23.6585 61.9028ZM14.1464 56.293C17.1707 60.6345 23.6098 60.9272 23.6585 60.9272C23.7073 60.9272 30.1464 60.6345 33.1707 56.293C32.3415 55.7565 31.4634 54.976 31.122 53.9028C30.1951 54.6833 29.1707 55.4638 27.9512 55.7565C26.3903 56.1467 24.8293 56.1955 23.6585 56.1955C22.4878 56.1955 20.8781 56.1467 19.3659 55.7565C18.1464 55.4638 17.122 54.6833 16.1951 53.9028C15.8537 54.976 14.9756 55.7565 14.1464 56.293Z" fill="#3D8CFF"/>
<path d="M46.2439 69.8538C46.2439 69.8538 43.7561 72.6343 39.4634 75.1709C35.5122 77.5123 30.0976 79.6587 23.6585 79.3172C17.2195 79.6587 11.7561 77.5123 7.85367 75.1709C3.56099 72.6343 1.07318 69.8538 1.07318 69.8538C1.56099 63.5611 6.39025 59.7075 11.6098 57.1221C12.1951 56.8294 12.8293 56.4879 13.4634 56.1465C16.5366 61.1709 23.6585 61.4148 23.6585 61.4148C23.6585 61.4148 30.7805 61.1221 33.8537 56.1465C34.4878 56.5367 35.122 56.8294 35.7073 57.1221C40.9268 59.7562 45.7561 63.6099 46.2439 69.8538Z" fill="#B4D3FF"/>
<path d="M25.0244 79.8537C24.5366 79.8537 24.0976 79.8537 23.6585 79.8049C18.2439 80.0976 12.7317 78.6342 7.60977 75.6098C3.31708 73.0732 0.82928 70.3415 0.731719 70.1952C0.634158 70.0976 0.585377 69.9513 0.634158 69.8537C1.0244 64.4391 4.58538 60.1464 11.4146 56.7318L11.7073 56.5854C12.1951 56.3415 12.7317 56.0488 13.2195 55.7561C13.4634 55.6098 13.7561 55.7074 13.9025 55.9025C16.7805 60.6342 23.6098 60.9269 23.7073 60.9757C23.7561 60.9757 30.5854 60.6342 33.4634 55.9025C33.6098 55.6586 33.9025 55.6098 34.1464 55.7561C34.6342 56.0488 35.1707 56.2927 35.6585 56.5854L36 56.7318C42.8781 60.1952 46.3903 64.4879 46.7805 69.8537C46.7805 70 46.7317 70.0976 46.6829 70.1952C46.5854 70.2927 44.0976 73.0732 39.7561 75.6098C34.9756 78.4391 30 79.8537 25.0244 79.8537ZM1.56099 69.7074C2.14635 70.2927 4.48782 72.6342 8.09757 74.7805C13.122 77.7561 18.3415 79.122 23.6098 78.8293H23.6585C28.9268 79.122 34.1464 77.7561 39.1707 74.7805C42.7805 72.6342 45.122 70.3415 45.7073 69.7074C45.2683 64.7805 41.9024 60.8293 35.4634 57.561L35.122 57.4147C34.7317 57.2196 34.3415 57.0244 33.9512 56.8293C30.6829 61.6098 23.9025 61.9513 23.6098 61.9513C23.2683 61.9513 16.5366 61.6098 13.2195 56.8293C12.8293 57.0732 12.439 57.2683 12.0488 57.4635L11.7561 57.6098C5.36587 60.8293 2.00001 64.7805 1.56099 69.7074Z" fill="#3D8CFF"/>
<path d="M23.6586 79.8039C23.4146 79.8039 23.1707 79.6088 23.1707 79.3161V61.5112C23.1707 61.2186 23.4146 61.0234 23.6586 61.0234C23.9025 61.0234 24.1464 61.2186 24.1464 61.5112V79.3161C24.1464 79.56 23.9025 79.8039 23.6586 79.8039Z" fill="#3D8CFF"/>
<path d="M39.4634 74.9997C39.1707 74.9997 38.9756 74.8177 38.9756 74.5447V67.6738C38.9756 67.4008 39.1707 67.2188 39.4634 67.2188C39.7561 67.2188 39.9512 67.4008 39.9512 67.6738V74.5447C39.9512 74.8177 39.7073 74.9997 39.4634 74.9997Z" fill="#3D8CFF"/>
<path d="M7.85365 74.9997C7.56097 74.9997 7.36584 74.8177 7.36584 74.5447V67.6738C7.36584 67.4008 7.56097 67.2188 7.85365 67.2188C8.14633 67.2188 8.34145 67.4008 8.34145 67.6738V74.5447C8.34145 74.8177 8.09755 74.9997 7.85365 74.9997Z" fill="#3D8CFF"/>
<path d="M34.2927 27.2695L29.9024 27.3671C15.561 28.0988 12.0975 23.2695 12.0975 23.2695C12.3902 27.8549 10.1951 29.3671 10.1951 29.3671V33.9525C10.1951 36.0012 10.2439 38.0012 10.2439 40.05C10.2439 40.2451 10.2439 40.4403 10.2439 40.5866L14.0488 44.9768C14.0488 44.9768 14.9756 46.0988 16.5853 45.1232C16.5853 45.1232 18.3902 43.0744 20.7317 42.7329H26.5366C28.878 43.0744 30.6829 45.1232 30.6829 45.1232C32.2927 46.05 33.2195 44.9768 33.2195 44.9768L37.0244 40.5866C37.0244 40.4403 37.0244 40.2451 37.0244 40.0988V40.0012C37.0244 37.9525 37.0731 35.9525 37.0731 33.9037V30.7817C37.0244 29.5622 36.4878 27.4647 34.2927 27.2695ZM17.2195 36.8305C16.7805 36.8305 16.439 36.489 16.439 36.05C16.439 35.611 16.7805 35.2695 17.2195 35.2695C17.6585 35.2695 18 35.611 18 36.05C18 36.489 17.6585 36.8305 17.2195 36.8305ZM30.0975 36.8305C29.6585 36.8305 29.317 36.489 29.317 36.05C29.317 35.611 29.6585 35.2695 30.0975 35.2695C30.5366 35.2695 30.878 35.611 30.878 36.05C30.878 36.489 30.5366 36.8305 30.0975 36.8305Z" fill="#ECF4FF"/>
<path d="M31.9512 46.0496C31.5122 46.0496 31.0244 45.952 30.439 45.6105C30.3902 45.5618 30.3415 45.5618 30.2927 45.513C30.2927 45.513 28.6341 43.6105 26.4878 43.3179H20.7805C18.6829 43.6105 16.9756 45.513 16.9756 45.513C16.9268 45.5618 16.878 45.6105 16.878 45.6105C15.3171 46.5374 14.1463 45.8057 13.7073 45.3179L9.90243 40.9276C9.80487 40.83 9.80487 40.7325 9.80487 40.5861C9.80487 40.391 9.80487 40.2447 9.80487 40.0496C9.80487 39.1715 9.80487 38.2935 9.75609 37.3666C9.75609 36.2447 9.70731 35.0739 9.70731 33.952V29.3666C9.70731 29.2203 9.80487 29.0739 9.90243 28.9764C9.99999 28.9276 11.9024 27.513 11.6097 23.2691C11.6097 23.0739 11.7073 22.83 11.9512 22.7813C12.1463 22.7325 12.3902 22.7813 12.4878 22.9764C12.5366 23.0252 16.0488 27.5618 29.8536 26.83L34.2439 26.7325H34.2927C36.2439 26.9276 37.4146 28.3422 37.561 30.7325V33.9032C37.561 35.0252 37.561 36.1959 37.5122 37.3179C37.5122 38.1959 37.5122 39.0739 37.4634 40.0008V40.0983C37.4634 40.2935 37.4634 40.4398 37.4634 40.5861C37.4634 40.6837 37.4146 40.83 37.3658 40.9276L33.561 45.3179C33.3658 45.6593 32.7805 46.0496 31.9512 46.0496ZM31.0244 44.7813C32.2439 45.4642 32.878 44.7325 32.878 44.6837L36.5854 40.4398C36.5854 40.3422 36.5854 40.2447 36.5854 40.1471V40.0983C36.5854 39.2203 36.5854 38.2935 36.6341 37.4154C36.6341 36.2935 36.6829 35.1227 36.6829 34.0008V30.8788C36.5854 29.6105 36.0976 28.0008 34.2927 27.8057L29.9512 27.9032C19.1707 28.4398 14.439 25.9032 12.6341 24.4886C12.5366 27.6593 11.2195 29.1715 10.6829 29.6593V34.0008C10.6829 35.1227 10.6829 36.2935 10.7317 37.4154C10.7317 38.2935 10.7317 39.1715 10.7805 40.0983C10.7805 40.1959 10.7805 40.3422 10.7805 40.4886L14.4878 44.7325C14.5366 44.83 15.2195 45.4642 16.3415 44.83C16.6829 44.4398 18.439 42.6837 20.7317 42.3422H20.7805H26.5854H26.6341C28.9268 42.6349 30.6829 44.4398 31.0244 44.7813ZM30.0976 37.3179C29.3658 37.3179 28.8293 36.7325 28.8293 36.0496C28.8293 35.3666 29.4146 34.7813 30.0976 34.7813C30.7805 34.7813 31.3658 35.3666 31.3658 36.0496C31.3658 36.7325 30.7805 37.3179 30.0976 37.3179ZM30.0976 35.7569C29.9512 35.7569 29.8049 35.9032 29.8049 36.0496C29.8049 36.2447 29.9512 36.3422 30.0976 36.3422C30.2439 36.3422 30.3902 36.1959 30.3902 36.0496C30.3902 35.8544 30.2439 35.7569 30.0976 35.7569ZM17.2195 37.3179C16.4878 37.3179 15.9512 36.7325 15.9512 36.0496C15.9512 35.3666 16.5366 34.7813 17.2195 34.7813C17.9024 34.7813 18.4878 35.3666 18.4878 36.0496C18.4878 36.7325 17.9024 37.3179 17.2195 37.3179ZM17.2195 35.7569C17.0244 35.7569 16.9268 35.9032 16.9268 36.0496C16.9268 36.2447 17.0732 36.3422 17.2195 36.3422C17.3658 36.3422 17.5122 36.1959 17.5122 36.0496C17.5122 35.8544 17.3658 35.7569 17.2195 35.7569Z" fill="#3D8CFF"/>
<path d="M37.2195 45.8055C37.122 47.5128 36.2927 48.7323 35.0244 49.8542C33.8537 50.8786 32.6829 51.8542 31.561 52.8786C31.5122 52.9274 31.5122 52.9274 31.4634 52.9274C30.3902 53.8542 29.2195 54.9274 27.8537 55.2689C26.4878 55.6103 25.0732 55.7079 23.6585 55.7079C22.2439 55.7079 20.8293 55.6103 19.4634 55.2689C18.0976 54.9274 16.878 53.8542 15.8537 52.9274C15.8049 52.8786 15.8049 52.8786 15.7561 52.8298C14.5854 51.8055 13.4146 50.8298 12.2927 49.8055C11.0244 48.7323 10.1951 47.464 10.0976 45.7567C10 44.0494 10.2439 42.342 10.2439 40.6835V40.5859L14.0488 44.9762C14.0488 44.9762 14.9756 46.0981 16.5854 45.1225C16.5854 45.1225 18.3902 43.0737 20.7317 42.7323H26.5366C28.878 43.0737 30.6829 45.1225 30.6829 45.1225C32.2927 46.0494 33.2195 44.9762 33.2195 44.9762L37.0244 40.5859V40.6835C37.0732 42.3908 37.3171 44.0981 37.2195 45.8055Z" fill="#3D8CFF"/>
<path d="M23.6585 56.196C22.439 56.196 20.878 56.1472 19.3659 55.757C17.9024 55.3668 16.7317 54.3424 15.6585 53.4155L15.4634 53.2692C14.7805 52.6838 14.1951 52.1472 13.5122 51.6107C12.9756 51.1716 12.4878 50.6838 11.9512 50.2448C10.439 48.9277 9.70732 47.5619 9.56098 45.8546C9.5122 44.8302 9.56098 43.8058 9.60976 42.8302C9.65854 42.1472 9.70732 41.4155 9.70732 40.7326V40.6351C9.70732 40.4399 9.85366 40.2448 10 40.196C10.1463 40.1472 10.3902 40.196 10.5366 40.3424L14.3415 44.7326C14.3902 44.8302 15.0732 45.4643 16.1951 44.8302C16.5366 44.4399 18.2927 42.6838 20.5854 42.3424H20.6341H26.439H26.4878C28.7805 42.6351 30.5366 44.4399 30.878 44.8302C32.0488 45.4643 32.6829 44.7814 32.7317 44.7326L36.5366 40.3424C36.6829 40.196 36.878 40.1472 37.0732 40.196C37.2683 40.2936 37.4146 40.4399 37.4146 40.6351V40.7326C37.4146 41.4155 37.4634 42.1472 37.5122 42.8302C37.561 43.8058 37.6585 44.8302 37.561 45.8546C37.4634 47.5131 36.6829 48.9277 35.2195 50.2448C34.7317 50.6838 34.1951 51.1229 33.7073 51.5619C33.0732 52.1472 32.3902 52.6838 31.7561 53.2204L31.7073 53.2692C31.7073 53.2692 31.7073 53.2692 31.6585 53.318L31.561 53.4155C30.4878 54.3424 29.3171 55.4155 27.8537 55.757C26.439 56.1472 24.8293 56.196 23.6585 56.196ZM10.6829 41.9033C10.6829 42.2448 10.6341 42.5375 10.6341 42.879C10.5854 43.8546 10.4878 44.8302 10.5854 45.8058C10.6829 47.2204 11.3171 48.3911 12.6341 49.5131C13.1707 49.9521 13.6585 50.4399 14.1951 50.879C14.8293 51.4155 15.4634 51.9521 16.0976 52.5375L16.2927 52.7326C17.2683 53.6107 18.3415 54.5863 19.6098 54.879C21.0244 55.2204 22.5366 55.2692 23.7073 55.2692C24.878 55.2692 26.3415 55.2204 27.7561 54.879C28.9756 54.5863 30.0976 53.6107 31.0732 52.7326L31.1707 52.6351C31.1707 52.5863 31.2195 52.5863 31.2683 52.5863L31.3171 52.5375C31.9512 51.9521 32.6341 51.4155 33.2683 50.8302C33.7561 50.3911 34.2927 49.9521 34.7805 49.5131C36.0976 48.3911 36.7317 47.2204 36.8293 45.8058C36.878 44.8302 36.8293 43.8546 36.7805 42.879C36.7805 42.5375 36.7317 42.2448 36.7317 41.9033L33.7561 45.3668C33.3659 45.8546 32.1463 46.5375 30.5854 45.6594C30.5366 45.6107 30.4878 45.6107 30.4878 45.5619C30.4878 45.5619 28.8293 43.6594 26.6829 43.3668H20.7805C18.6829 43.6594 16.9756 45.5619 16.9756 45.5619C16.9268 45.6107 16.878 45.6594 16.878 45.6594C15.3171 46.5863 14.1463 45.8546 13.7073 45.3668L10.6829 41.9033Z" fill="#3D8CFF"/>
<path d="M23.6585 41.2196C22.7805 41.2196 22.2927 40.683 22.0976 40.3416C21.9512 40.0977 22.0488 39.805 22.2927 39.7074C22.5366 39.6099 22.8293 39.6587 22.9268 39.9026C22.9268 39.9513 23.122 40.244 23.6098 40.244C24.0488 40.244 24.2439 39.9026 24.2927 39.9026C24.439 39.6587 24.7317 39.5611 24.9268 39.7074C25.122 39.8538 25.2683 40.0977 25.122 40.3416C25.0244 40.683 24.4878 41.2196 23.6585 41.2196Z" fill="#3D8CFF"/>
<path d="M23.6585 46.7802C21.7073 46.7802 20.878 46.2924 20.7805 46.2436C20.5366 46.0973 20.4878 45.8046 20.6341 45.5607C20.7805 45.3168 21.0732 45.268 21.3171 45.4143C21.3171 45.4143 22.0488 45.8046 23.7073 45.8046C25.3658 45.8046 26.0976 45.4143 26.0976 45.4143C26.3415 45.268 26.6341 45.3656 26.7805 45.5607C26.9268 45.7558 26.8293 46.0973 26.6341 46.2436C26.439 46.2924 25.6097 46.7802 23.6585 46.7802Z" fill="#ECF4FF"/>
<path d="M32.7317 35.5615H28C27.7561 35.5615 27.5122 35.3664 27.5122 35.0737C27.5122 34.7811 27.7561 34.5859 28 34.5859H32.7317C33.0244 34.5859 33.2195 34.7811 33.2195 35.0737C33.2195 35.3664 32.9756 35.5615 32.7317 35.5615Z" fill="#3D8CFF"/>
<path d="M30.0976 36.8286C30.5286 36.8286 30.8781 36.4791 30.8781 36.0481C30.8781 35.617 30.5286 35.2676 30.0976 35.2676C29.6665 35.2676 29.3171 35.617 29.3171 36.0481C29.3171 36.4791 29.6665 36.8286 30.0976 36.8286Z" fill="#3D8CFF"/>
<path d="M30.0975 37.3178C29.3658 37.3178 28.8293 36.7325 28.8293 36.0495C28.8293 35.3666 29.4146 34.7812 30.0975 34.7812C30.7805 34.7812 31.3658 35.3666 31.3658 36.0495C31.3658 36.7325 30.7805 37.3178 30.0975 37.3178ZM30.0975 35.7569C29.9512 35.7569 29.8049 35.9032 29.8049 36.0495C29.8049 36.1959 29.9512 36.3422 30.0975 36.3422C30.2439 36.3422 30.3902 36.1959 30.3902 36.0495C30.3902 35.9032 30.2439 35.7569 30.0975 35.7569Z" fill="#3D8CFF"/>
<path d="M19.3171 35.5615H14.5854C14.3415 35.5615 14.0976 35.3664 14.0976 35.0737C14.0976 34.7811 14.3415 34.5859 14.5854 34.5859H19.3171C19.561 34.5859 19.8049 34.7811 19.8049 35.0737C19.8049 35.3664 19.561 35.5615 19.3171 35.5615Z" fill="#3D8CFF"/>
<path d="M17.2195 36.8286C17.6506 36.8286 18 36.4791 18 36.0481C18 35.617 17.6506 35.2676 17.2195 35.2676C16.7885 35.2676 16.439 35.617 16.439 36.0481C16.439 36.4791 16.7885 36.8286 17.2195 36.8286Z" fill="#3D8CFF"/>
<path d="M17.2195 37.3178C16.4878 37.3178 15.9512 36.7325 15.9512 36.0495C15.9512 35.3666 16.5366 34.7812 17.2195 34.7812C17.9025 34.7812 18.4878 35.3666 18.4878 36.0495C18.4878 36.7325 17.9025 37.3178 17.2195 37.3178ZM17.2195 35.7569C17.0732 35.7569 16.9268 35.9032 16.9268 36.0495C16.9268 36.1959 17.0732 36.3422 17.2195 36.3422C17.3659 36.3422 17.5122 36.1959 17.5122 36.0495C17.5122 35.9032 17.3659 35.7569 17.2195 35.7569Z" fill="#3D8CFF"/>
<path d="M10.2439 41.1225C10.0976 41.1225 9.95122 41.0737 9.85366 40.9761L9.36585 40.3908C9.17073 40.1956 9.21951 39.8542 9.41463 39.7078C9.60975 39.5615 9.90244 39.5615 10.0976 39.7566L10.5854 40.342C10.7805 40.5371 10.7317 40.8786 10.5366 41.0249C10.4878 41.0737 10.3415 41.1225 10.2439 41.1225Z" fill="#3D8CFF"/>
<path d="M37.0732 41.1228C36.9756 41.1228 36.8293 41.0741 36.7317 41.0253C36.5366 40.8301 36.4878 40.5375 36.6829 40.3423L37.1707 39.757C37.3659 39.5619 37.6585 39.5131 37.8537 39.7082C38.0488 39.9033 38.0976 40.196 37.9024 40.3911L37.4146 40.9765C37.3171 41.0741 37.1707 41.1228 37.0732 41.1228Z" fill="#3D8CFF"/>
<path d="M21.2195 34.0497C21.122 34.0497 21.0732 34.0497 20.9756 34.0009L17.2195 32.0497C15.8537 31.4643 13.8049 32.8789 13.8049 32.8789C13.561 33.0253 13.2683 32.9765 13.122 32.7814C12.9756 32.5862 13.0244 32.2448 13.2195 32.0984C13.3171 32.0009 15.7561 30.3423 17.6098 31.2204L21.4146 33.1716C21.6585 33.2692 21.7561 33.6106 21.6098 33.8058C21.561 33.9521 21.4146 34.0497 21.2195 34.0497Z" fill="#3D8CFF"/>
<path d="M26.0488 34.0486C25.8537 34.0486 25.7073 33.9511 25.6098 33.8047C25.5122 33.5608 25.561 33.2681 25.8049 33.1706L29.561 31.2194C31.4634 30.3413 33.9024 32.0486 34 32.0974C34.1951 32.2438 34.2927 32.5364 34.0976 32.7803C33.9512 32.9755 33.6585 33.073 33.4146 32.8779C33.4146 32.8779 31.3659 31.4633 29.9512 32.0486L26.2439 33.9511C26.1951 33.9999 26.1463 34.0486 26.0488 34.0486Z" fill="#3D8CFF"/>
<path d="M10.2439 40.0495L9.75609 39.9031C7.95121 39.3666 8.58535 37.3665 8.58535 37.3665C7.85365 36.8787 7.70731 33.8544 7.70731 33.8544C8.43901 31.9031 10.1951 33.3178 10.1951 33.3178V34.0007C10.1951 36.0007 10.2439 38.0495 10.2439 40.0495Z" fill="#ECF4FF"/>
<path d="M10.2439 40.5372C10.1951 40.5372 10.1463 40.5372 10.0976 40.5372L9.60976 40.3909C8.97561 40.1958 8.53659 39.8543 8.2439 39.3177C7.90244 38.6836 7.95122 37.9031 8.04878 37.5128C7.41463 36.6836 7.26829 34.7323 7.21951 33.8543C7.21951 33.8055 7.21951 33.708 7.26829 33.6592C7.5122 32.9762 7.95122 32.5372 8.48781 32.3421C9.46342 32.0494 10.3902 32.7811 10.4878 32.8787C10.5854 32.9762 10.6829 33.1226 10.6829 33.2689V33.9519C10.6829 35.0738 10.6829 36.1958 10.6829 37.2689C10.6829 38.1958 10.6829 39.1226 10.6829 40.0006C10.6829 40.147 10.6341 40.2933 10.4878 40.3909C10.439 40.5372 10.3415 40.5372 10.2439 40.5372ZM8.19512 33.9519C8.29268 35.3665 8.58537 36.7811 8.87805 36.9762C9.07317 37.0738 9.12195 37.3177 9.07317 37.5128C9.07317 37.5128 8.82927 38.2933 9.12195 38.8787C9.26829 39.1226 9.46342 39.2689 9.7561 39.4153C9.7561 38.7323 9.7561 38.0494 9.7561 37.3665C9.7561 36.2445 9.7561 35.1226 9.7561 34.0006V33.6104C9.5122 33.464 9.12195 33.2689 8.78049 33.3665C8.48781 33.3665 8.34146 33.6104 8.19512 33.9519Z" fill="#3D8CFF"/>
<path d="M38.7317 37.3665C38.7317 37.3665 39.3659 39.3665 37.561 39.9031L37.0732 40.0494C37.0732 38.0006 37.122 36.0006 37.122 33.9519V33.2689C37.122 33.2689 38.8781 31.8543 39.6098 33.8055C39.6098 33.8543 39.4634 36.8787 38.7317 37.3665Z" fill="#ECF4FF"/>
<path d="M37.0732 40.5373C36.9756 40.5373 36.878 40.4885 36.7805 40.4397C36.6829 40.3421 36.5854 40.1958 36.5854 40.0495C36.5854 39.2202 36.5854 38.3909 36.6341 37.5617C36.6341 36.3909 36.6829 35.1714 36.6829 34.0007V33.3178C36.6829 33.1714 36.7317 33.0251 36.878 32.9275C36.9756 32.83 37.9512 32.0982 38.878 32.3909C39.4634 32.5373 39.8537 32.9763 40.1463 33.708C40.1951 33.7568 40.1951 33.8543 40.1951 33.9031C40.1463 34.7812 40 36.7324 39.3658 37.5617C39.4634 37.9519 39.5122 38.7324 39.1707 39.3665C38.878 39.9031 38.439 40.2446 37.8049 40.4397L37.3171 40.586C37.1707 40.5373 37.1219 40.5373 37.0732 40.5373ZM37.6097 33.5617V33.9519C37.6097 35.1226 37.6097 36.3421 37.561 37.5617C37.561 38.1958 37.561 38.7812 37.561 39.4153C37.8537 39.3178 38.0976 39.1226 38.1951 38.8787C38.4878 38.2934 38.2927 37.5129 38.2927 37.5129C38.2439 37.3178 38.2927 37.0739 38.4878 36.9763C38.7805 36.7812 39.0732 35.3665 39.1219 33.9519C38.9756 33.6104 38.7805 33.4153 38.5854 33.3665C38.2439 33.2202 37.8536 33.4153 37.6097 33.5617Z" fill="#3D8CFF"/>
<path d="M37.1219 31.8541C37.1219 31.8541 37.1707 31.415 37.1219 30.8297C37.0244 29.5614 36.5366 27.4638 34.2927 27.2687L29.9024 27.3663C15.561 28.098 12.0975 23.2687 12.0975 23.2687C12.3902 27.8541 10.1951 29.3663 10.1951 29.3663C10.1951 29.3663 8.14633 29.8053 7.85365 27.5126C7.60974 25.8053 7.65853 23.8053 8.58535 22.2443C9.41462 20.8297 10.7317 20.3419 12.1463 20.3906L14.439 20.7809C13.7073 20.537 12.9268 20.3906 12.1463 20.3906C12.1463 20.3906 15.6585 15.2199 25.4146 16.2931C25.4146 16.2931 38.1463 16.098 39.0732 26.4882C39.0244 26.4882 39.6097 30.8785 37.1219 31.8541Z" fill="#3D8CFF"/>
<path d="M37.1219 32.342C37.0244 32.342 36.9268 32.2932 36.8293 32.2444C36.6829 32.1468 36.6341 31.9517 36.6341 31.8054C36.6341 31.8054 36.6829 31.4151 36.6341 30.8786C36.5366 29.5615 36.0488 27.9517 34.2439 27.7566L29.9024 27.8542C19.1219 28.3908 14.3902 25.8542 12.5854 24.4395C12.4878 28.342 10.5366 29.7078 10.439 29.8054C10.3902 29.8542 10.3415 29.8542 10.2439 29.9029C10.1951 29.9029 9.17072 30.0981 8.34146 29.5127C7.80487 29.1225 7.41463 28.4883 7.31707 27.6103C7.02438 25.3176 7.26829 23.4639 8.09755 22.0493C8.87804 20.6834 10.1463 19.9517 11.8049 19.9517C12.5854 18.9761 16.439 14.8786 25.3171 15.8054C26.0488 15.8054 38.5366 15.9517 39.4634 26.4395C39.5122 26.6347 40.0488 31.22 37.2195 32.342C37.2195 32.342 37.1707 32.342 37.1219 32.342ZM34.2927 26.781C36.2439 26.9273 37.4634 28.3908 37.6097 30.781C37.6097 30.8298 37.6097 30.8786 37.6097 30.9273C38.9268 29.6103 38.5366 26.5371 38.5366 26.4883C37.6585 16.6347 25.8536 16.7322 25.3658 16.7322H25.3171C18.1951 15.9517 14.4878 18.6347 13.1219 19.9517C13.561 20.0005 14.0488 20.0981 14.5366 20.2932C14.7805 20.3908 14.9268 20.6347 14.878 20.8786C14.8293 21.1225 14.5854 21.2688 14.3415 21.2688L12.0976 20.8786C10.6829 20.8786 9.65853 21.4151 9.02438 22.4883C8.34146 23.7078 8.09755 25.3664 8.34146 27.4639C8.39024 28.0493 8.63414 28.4395 8.9756 28.6834C9.36585 28.9273 9.80487 28.9273 9.99999 28.9273C10.3902 28.5859 11.8537 27.0737 11.6585 23.3176C11.6585 23.1225 11.7561 22.9273 12 22.8298C12.1951 22.7322 12.439 22.8298 12.5366 23.0249C12.5854 23.0737 16.0976 27.6103 29.9024 26.9273L34.2927 26.781C34.2439 26.781 34.2439 26.781 34.2927 26.781Z" fill="#3D8CFF"/>
<path d="M60.6127 19.5915C60.347 19.6674 60.0812 19.6674 59.8533 19.6674C57.6131 19.6674 55.3729 19.6674 53.1327 19.6674C52.9048 19.6674 52.8289 19.7054 52.8289 19.9332C52.8289 25.249 52.8289 30.5648 52.8289 35.8426C52.8289 36.0704 52.9048 36.1084 53.0947 36.1084C53.968 36.1084 54.8413 36.1084 55.7146 36.1084C56.0943 36.1084 56.2842 36.2603 56.2842 36.5261C56.2842 36.7919 56.0943 36.9817 55.7146 36.9817C54.6135 36.9817 53.5503 36.9817 52.4492 36.9817C52.1075 36.9817 51.9556 36.8298 51.9556 36.4881C51.9556 30.7547 51.9556 25.0592 51.9556 19.3637C51.9556 18.984 52.1075 18.8321 52.5251 18.8321C55.0312 18.8321 57.4992 18.8321 60.0052 18.8321C60.4988 18.8321 60.6507 18.7182 60.6507 18.2246C60.6507 16.2122 60.6507 14.1618 60.6507 12.1494C60.6507 12.1114 60.6507 12.0355 60.6507 11.9975C60.6507 11.6938 60.8026 11.5039 61.0684 11.5039C61.3342 11.5039 61.486 11.6938 61.524 11.9975C61.524 12.1874 61.562 12.3772 61.524 12.5291C61.486 12.7569 61.6 12.7949 61.7898 12.7949C62.0936 12.7949 62.4353 12.7949 62.7391 12.7949C63.0808 12.7949 63.2706 12.9468 63.2706 13.2126C63.2706 13.4783 63.0808 13.6302 62.7391 13.6682C62.3973 13.6682 62.0936 13.6682 61.7518 13.6682C61.6 13.6682 61.524 13.7062 61.524 13.896C61.524 14.5415 61.524 14.5415 62.1695 14.5415C62.3594 14.5415 62.5112 14.5415 62.7011 14.5415C63.0808 14.5415 63.2706 14.6934 63.2327 15.0731C63.2327 15.3389 63.2706 15.4148 63.5744 15.4148C63.9161 15.3768 64.106 15.5667 64.106 15.8325C64.106 16.0983 63.9161 16.2501 63.5744 16.2501C62.9669 16.2501 62.3214 16.2501 61.7139 16.2501C61.562 16.2501 61.524 16.2881 61.524 16.44C61.524 19.2118 61.524 21.9456 61.524 24.7174C61.524 24.8693 61.562 24.9453 61.7139 24.9073C61.7898 24.9073 61.8278 24.9073 61.9037 24.9073C62.2075 24.9073 62.3973 25.0592 62.3973 25.4009C62.3973 26.0084 62.3973 26.6159 62.3973 27.2235C62.3973 27.4513 62.4353 27.4892 62.6631 27.4892C63.7642 27.4892 64.5996 28.0588 64.9033 29.046C65.321 30.375 64.3338 31.7798 62.9289 31.8178C61.7139 31.8558 60.4988 31.8558 59.2838 31.8178C58.1447 31.7798 57.1954 30.7926 57.2334 29.6535C57.2334 28.5144 58.1827 27.5652 59.3218 27.5272C59.8533 27.5272 59.8533 27.5272 59.8533 26.9956C59.8533 26.502 59.8533 25.9704 59.8533 25.4768C59.8533 25.0971 60.0052 24.9073 60.3849 24.9453C60.6507 24.9453 60.7267 24.8693 60.7267 24.6035C60.7267 23.0468 60.7267 21.528 60.7267 19.9712C60.6127 19.8193 60.6127 19.7054 60.6127 19.5915ZM61.0304 28.3246C60.4609 28.3246 59.8913 28.3246 59.3218 28.3246C58.5624 28.3246 57.9928 28.8941 57.9928 29.6156C57.9928 30.337 58.5624 30.9065 59.3218 30.9065C60.4609 30.9065 61.562 30.9065 62.7011 30.9065C63.4605 30.9065 64.03 30.337 64.03 29.6156C64.03 28.8941 63.4605 28.3246 62.7011 28.3246C62.1695 28.3246 61.6 28.3246 61.0304 28.3246ZM61.486 26.578C61.486 26.502 61.486 26.4261 61.486 26.3501C61.486 25.6287 61.486 25.6287 60.7646 25.7047C60.6507 25.7047 60.6127 25.7426 60.6127 25.8565C60.6127 26.3501 60.6127 26.8438 60.6127 27.2994C60.6127 27.4133 60.6507 27.4133 60.7646 27.4513C61.486 27.5272 61.486 27.5272 61.486 26.8058C61.486 26.7298 61.486 26.6539 61.486 26.578Z" fill="black"/>
<path d="M46.5259 27.4291C46.3361 27.4291 46.1462 27.4291 45.9943 27.3532C45.4248 27.1634 45.0451 26.6698 45.0451 26.1002C45.0451 24.0878 45.0071 22.0374 45.0451 20.025C45.0831 18.81 45.6526 17.8228 46.7917 17.2152C47.0575 17.0634 47.3613 17.0254 47.665 17.0254C51.5379 17.0254 55.3729 17.0254 59.2458 17.0254C59.5876 17.0254 59.7774 17.1773 59.7774 17.4431C59.7774 17.7088 59.5876 17.8607 59.2458 17.8607C55.5248 17.8607 51.8037 17.8607 48.0827 17.8607C46.9816 17.8607 46.2222 18.4682 45.9943 19.5694C45.9184 19.7972 45.8804 19.9491 45.8804 20.101C45.8804 22.0754 45.8804 24.0498 45.8804 26.0243C45.8804 26.0622 45.8804 26.1382 45.8804 26.1761C45.9184 26.404 46.0703 26.5558 46.2981 26.5558C46.5259 26.5558 46.6778 26.4419 46.7158 26.2141C46.7537 26.1002 46.7537 25.9863 46.7537 25.9104C46.7537 24.3156 46.7537 22.7209 46.7537 21.1261C46.7537 21.0502 46.7537 20.9743 46.7537 20.8983C46.7917 20.6705 46.9436 20.5566 47.1714 20.5566C47.3992 20.5566 47.5511 20.6705 47.5891 20.8983C47.627 20.9743 47.5891 21.0502 47.5891 21.1261C47.5891 22.3792 47.5511 23.6701 47.5891 24.9231C47.627 26.0622 47.3992 27.2013 47.2094 28.3404C46.7537 30.9983 46.3361 33.6182 45.8804 36.2761C45.8425 36.3901 45.8425 36.504 45.8425 36.5799C45.8045 36.8837 45.5767 37.0355 45.3488 36.9976C45.0831 36.9596 44.9691 36.7318 45.0071 36.466C45.121 35.6686 45.2729 34.9092 45.3868 34.1119C45.8045 31.8716 46.1842 29.6694 46.5259 27.4291Z" fill="black"/>
<path d="M49.5256 29.3097C49.3358 30.0691 49.108 30.8665 48.9181 31.6259C48.5004 33.2586 48.0448 34.9293 47.6271 36.562C47.5512 36.9037 47.3234 37.0556 47.0956 36.9796C46.8298 36.9037 46.7159 36.6759 46.7918 36.3341C47.6271 33.1067 48.4625 29.8793 49.2978 26.6518C49.2978 26.5759 49.3358 26.5379 49.3358 26.462C49.4117 26.2721 49.5636 26.1202 49.7914 26.1582C50.0192 26.1962 50.1711 26.3481 50.1711 26.5759C50.285 28.0187 50.4369 29.4616 50.5508 30.8665C50.7027 32.6511 50.8546 34.4356 51.0065 36.2582C51.0444 36.7138 50.9305 36.9417 50.6268 36.9796C50.323 37.0176 50.1711 36.8278 50.1332 36.3721C49.9433 34.1319 49.7535 31.8537 49.5256 29.6135C49.5256 29.4996 49.4877 29.4236 49.4877 29.3097C49.5636 29.3097 49.5636 29.3097 49.5256 29.3097Z" fill="black"/>
<path d="M49.3357 16.2019C47.8928 16.2019 46.7538 15.0248 46.7538 13.582C46.7538 12.1391 47.9308 11 49.3737 11C50.8165 11 51.9556 12.1771 51.9556 13.6199C51.9556 15.0248 50.7786 16.2019 49.3357 16.2019ZM51.0823 13.582C51.0823 12.6327 50.285 11.8733 49.3357 11.8733C48.3865 11.8733 47.6271 12.6707 47.6271 13.582C47.6271 14.5312 48.4244 15.3286 49.3737 15.3286C50.3229 15.3286 51.0823 14.5692 51.0823 13.582Z" fill="black"/>
<path d="M57.5751 36.0879C57.8029 36.0879 57.9928 36.2777 57.9928 36.5056C57.9928 36.7334 57.8029 36.9612 57.5371 36.9612C57.3093 36.9612 57.1194 36.7713 57.1194 36.5056C57.1574 36.2777 57.3473 36.0879 57.5751 36.0879Z" fill="black"/>
</svg>
