<svg width="80" height="80" viewBox="0 0 80 80" fill="none" xmlns="http://www.w3.org/2000/svg">
<g clip-path="url(#clip0_1112_1734)">
<path d="M56.3659 46.7317C69.2705 46.7317 79.7317 36.2705 79.7317 23.3659C79.7317 10.4612 69.2705 0 56.3659 0C43.4612 0 33 10.4612 33 23.3659C33 36.2705 43.4612 46.7317 56.3659 46.7317Z" fill="#3DFFAE"/>
<path d="M23.7073 79.5129C23.4146 79.5129 23.2195 79.3178 23.2195 79.0251V61.2202C23.2195 60.9275 23.4146 60.7324 23.7073 60.7324C24 60.7324 24.1951 60.9275 24.1951 61.2202V79.0251C24.1951 79.3178 23.9512 79.5129 23.7073 79.5129Z" fill="#3D8CFF"/>
<path d="M33.9024 55.8547C30.8293 60.8791 23.7073 61.123 23.7073 61.123C23.7073 61.123 16.5853 60.8791 13.5122 55.8547C14.6829 55.1717 15.7073 54.2937 15.8536 53.0254L17.3171 54.44C17.3171 54.44 19.0244 56.44 22.8292 56.44H24.5366C28.3414 56.44 30.0488 54.44 30.0488 54.44L31.5122 53.0254C31.7073 54.2449 32.7317 55.123 33.9024 55.8547Z" fill="#ECF4FF"/>
<path d="M23.7073 61.6102C23.3658 61.6102 16.2439 61.2687 13.0732 56.098C13.0244 56.0004 12.9756 55.8541 13.0244 55.7077C13.0732 55.5614 13.1219 55.4638 13.2683 55.415C14.5854 54.6345 15.2683 53.8541 15.4146 52.9272C15.4634 52.7321 15.561 52.5858 15.7561 52.537C15.9512 52.4882 16.1463 52.537 16.2439 52.6345L17.7073 54.0492C17.8049 54.1467 19.3659 55.9028 22.878 55.9028H24.5854C28.0976 55.9028 29.7073 54.098 29.7073 54.098L31.2195 52.6345C31.3658 52.4882 31.561 52.4882 31.7073 52.537C31.9024 52.5858 32 52.7321 32.0488 52.9272C32.1463 53.8053 32.8293 54.6345 34.1951 55.415C34.2927 55.4638 34.3902 55.6102 34.439 55.7077C34.4878 55.8541 34.439 55.9516 34.3902 56.098C31.1707 61.2687 24.0488 61.6102 23.7073 61.6102ZM14.1951 56.0004C17.2195 60.3419 23.6585 60.6346 23.7561 60.6346C23.8049 60.6346 30.2439 60.3419 33.2683 56.0004C32.5366 55.5126 31.7561 54.8297 31.3659 53.9028L30.4878 54.7809C30.439 54.8297 28.6341 56.9272 24.6341 56.9272H22.9268C18.9268 56.9272 17.1219 54.8297 17.0732 54.7809L16.1951 53.9516C15.7073 54.8297 14.9268 55.5126 14.1951 56.0004Z" fill="#3D8CFF"/>
<path d="M46.2927 69.5608C46.2927 69.5608 43.8049 72.3413 39.5122 74.8779C35.561 77.2194 30.1463 79.3657 23.7073 79.0242C17.2683 79.3657 11.8049 77.2194 7.90244 74.8779C3.60975 72.3413 1.12195 69.5608 1.12195 69.5608C1.60975 63.2682 6.43902 59.4145 11.6585 56.8291C12.2439 56.5364 12.878 56.195 13.5122 55.8535C16.5854 60.8779 23.7073 61.1218 23.7073 61.1218C23.7073 61.1218 30.8293 60.8779 33.9024 55.8535C34.5366 56.2438 35.1707 56.5364 35.7561 56.8291C40.9756 59.4633 45.8537 63.2682 46.2927 69.5608Z" fill="#B4D3FF"/>
<path d="M25.0732 79.5607C24.6342 79.5607 24.1463 79.5607 23.7073 79.5119C18.2927 79.8046 12.7805 78.3412 7.65855 75.3168C3.36586 72.7802 0.878058 70.0485 0.780497 69.9022C0.682936 69.8046 0.634155 69.6583 0.634155 69.5607C1.0244 64.1948 4.58537 59.8534 11.4146 56.39L11.7073 56.2436C12.1951 55.9997 12.7317 55.707 13.2195 55.4143C13.4634 55.268 13.7561 55.3656 13.9024 55.5607C16.7805 60.2924 23.6585 60.6339 23.7073 60.6339C23.7561 60.6339 30.5854 60.2924 33.4634 55.5607C33.6098 55.3168 33.9024 55.268 34.1463 55.4143C34.6342 55.707 35.1707 55.9509 35.6585 56.2436L36 56.39C42.8781 59.8534 46.3903 64.1461 46.7805 69.5607C46.7805 69.707 46.7317 69.8046 46.6342 69.9022C46.5366 69.9997 44.0488 72.7802 39.7073 75.3168C35.0244 78.1461 30.0976 79.5607 25.0732 79.5607ZM1.60976 69.4144C2.19513 69.9997 4.53659 72.3412 8.14635 74.4875C13.1707 77.4631 18.3903 78.829 23.7073 78.5363H23.7561C29.0244 78.829 34.2439 77.4631 39.2683 74.4875C42.8781 72.3412 45.2195 70.0485 45.8049 69.4144C45.3659 64.4875 42 60.5363 35.561 57.268L35.2195 57.1217C34.8293 56.9265 34.439 56.7314 34.0488 56.5363C30.7805 61.3168 24 61.6583 23.7073 61.6583C23.3659 61.6583 16.5854 61.3168 13.3171 56.5363C12.9268 56.7802 12.5366 56.9753 12.1463 57.1704L11.8537 57.3168C5.41464 60.4875 2.04879 64.4875 1.60976 69.4144Z" fill="#3D8CFF"/>
<path d="M23.7073 67.952C23.4146 67.952 23.2195 67.7628 23.2195 67.4791V61.4729C23.2195 61.1892 23.4146 61 23.7073 61C24 61 24.1951 61.1892 24.1951 61.4729V67.4791C24.1951 67.7155 23.9512 67.952 23.7073 67.952Z" fill="#3D8CFF"/>
<path d="M39.5122 74.9997C39.2195 74.9997 39.0244 74.8109 39.0244 74.5276V67.3998C39.0244 67.1166 39.2195 66.9277 39.5122 66.9277C39.8049 66.9277 40 67.1166 40 67.3998V74.5276C40 74.8109 39.8049 74.9997 39.5122 74.9997Z" fill="#3D8CFF"/>
<path d="M7.90236 74.9997C7.60967 74.9997 7.41455 74.8109 7.41455 74.5276V67.3998C7.41455 67.1166 7.60967 66.9277 7.90236 66.9277C8.19504 66.9277 8.39016 67.1166 8.39016 67.3998V74.5276C8.39016 74.8109 8.14626 74.9997 7.90236 74.9997Z" fill="#3D8CFF"/>
<path d="M21.7561 65.4147C21.3659 65.4147 21.0732 65.122 21.0732 64.7318C21.0732 64.3415 21.3659 64.0488 21.7561 64.0488C22.1464 64.0488 22.439 64.3415 22.439 64.7318C22.439 65.122 22.0976 65.4147 21.7561 65.4147ZM21.7561 64.4391C21.6098 64.4391 21.4634 64.5854 21.4634 64.7318C21.4634 64.8781 21.6098 65.0244 21.7561 65.0244C21.9024 65.0244 22.0488 64.8781 22.0488 64.7318C22.0488 64.5854 21.9024 64.4391 21.7561 64.4391Z" fill="#3D8CFF"/>
<path d="M21.7561 67.61C21.3659 67.61 21.0732 67.3173 21.0732 66.9271C21.0732 66.5368 21.3659 66.2441 21.7561 66.2441C22.1464 66.2441 22.439 66.5368 22.439 66.9271C22.439 67.3173 22.0976 67.61 21.7561 67.61ZM21.7561 66.6344C21.6098 66.6344 21.4634 66.7807 21.4634 66.9271C21.4634 67.0734 21.6098 67.2198 21.7561 67.2198C21.9024 67.2198 22.0488 67.0734 22.0488 66.9271C22.0488 66.7807 21.9024 66.6344 21.7561 66.6344Z" fill="#3D8CFF"/>
<path d="M30.2439 40.5375C30.6749 40.5375 31.0244 40.1881 31.0244 39.757C31.0244 39.326 30.6749 38.9766 30.2439 38.9766C29.8128 38.9766 29.4634 39.326 29.4634 39.757C29.4634 40.1881 29.8128 40.5375 30.2439 40.5375Z" fill="#3D8CFF"/>
<path d="M30.2439 41.0249C29.561 41.0249 28.9756 40.4395 28.9756 39.7566C28.9756 39.0736 29.561 38.4883 30.2439 38.4883C30.9268 38.4883 31.5122 39.0736 31.5122 39.7566C31.561 40.4395 30.9756 41.0249 30.2439 41.0249ZM30.2439 39.4151C30.0976 39.4151 29.9512 39.5615 29.9512 39.7078C29.9512 39.8541 30.0976 40.0005 30.2439 40.0005C30.3902 40.0005 30.5366 39.8541 30.5366 39.7078C30.5854 39.5615 30.439 39.4151 30.2439 39.4151Z" fill="#3D8CFF"/>
<path d="M36.6341 35.1713C36.6341 35.025 36.6341 34.8298 36.6341 34.6347C36.6829 32.9762 36.878 30.3908 35.0732 29.9518C34.5854 29.8054 33.9024 30.0494 33.4146 30.0494C32.2439 30.0981 31.0732 30.0494 29.9512 29.8542C29.2195 29.7079 28.5366 29.4152 27.8049 29.2689C27.1219 29.1225 26.3902 29.0737 25.7073 29.1225C24.2927 29.2201 22.9268 29.6591 21.7561 30.3908C21.3658 30.6347 21.0244 30.9274 20.7317 31.2201C20.6829 31.2689 20.3902 31.5128 20.3902 31.5615C19.1707 26.8298 22.4878 24.5859 22.4878 24.5859C12.1463 25.7567 10.9268 30.9274 10.7805 32.1469C10.7805 32.2933 10.7805 32.3908 10.7805 32.3908V44.9274C10.7805 44.9274 10.1463 47.3176 13.4634 50.5859L15.9024 52.9274L17.3658 54.342C17.3658 54.342 19.0732 56.342 22.878 56.342H24.5854C28.3902 56.342 30.0976 54.342 30.0976 54.342L31.561 52.9274L34 50.5859C37.3171 47.3176 36.6829 44.9274 36.6829 44.9274V35.1713H36.6341ZM17.1219 40.5372C16.6829 40.5372 16.3415 40.1957 16.3415 39.7567C16.3415 39.3176 16.6829 38.9762 17.1219 38.9762C17.561 38.9762 17.9024 39.3176 17.9024 39.7567C17.9024 40.1957 17.561 40.5372 17.1219 40.5372ZM14.5854 38.9274C17.7561 38.2933 19.4634 38.7323 19.4634 38.7323L14.5854 38.9274ZM30.2439 40.5372C29.8049 40.5372 29.4634 40.1957 29.4634 39.7567C29.4634 39.3176 29.8049 38.9762 30.2439 38.9762C30.6829 38.9762 31.0244 39.3176 31.0244 39.7567C31.0244 40.1957 30.7317 40.5372 30.2439 40.5372ZM27.9024 38.7323C27.9024 38.7323 29.6097 38.2445 32.7805 38.9274L27.9024 38.7323Z" fill="#ECF4FF"/>
<path d="M24.5854 56.927H22.878C18.878 56.927 17.0732 54.8295 17.0244 54.7807L13.1707 51.0246C10 47.9026 10.2439 45.4636 10.3415 44.9758V32.488C10.3415 32.488 10.3415 32.3904 10.3415 32.1953C10.5366 30.6343 12 25.4148 22.4878 24.1953C22.7317 24.1953 22.9268 24.2929 23.0244 24.5368C23.1219 24.7319 23.0244 24.9758 22.8293 25.1221C22.7317 25.2197 20.1951 26.9758 20.7317 30.6831C20.9756 30.4392 21.2683 30.2441 21.561 30.049C22.7805 29.2685 24.1951 28.7807 25.7561 28.6831C26.4878 28.6343 27.2683 28.6831 28 28.8295C28.3902 28.927 28.7805 29.0246 29.1219 29.1221C29.4634 29.2197 29.8049 29.3173 30.1463 29.4148C31.1707 29.6099 32.2927 29.7075 33.4634 29.6099C33.6098 29.6099 33.8049 29.5612 33.9512 29.5612C34.3415 29.5124 34.8293 29.4148 35.2683 29.5124C37.4146 30.049 37.3171 32.7319 37.2195 34.488V34.6831C37.2195 34.8782 37.2195 35.0734 37.2195 35.2197V44.9758C37.3171 45.4148 37.6098 47.8538 34.3902 51.0246L30.4878 54.7807C30.3415 54.8295 28.5366 56.927 24.5854 56.927ZM21.1219 25.366C12.3902 26.7807 11.3659 31.366 11.2683 32.2929C11.2683 32.3904 11.2683 32.488 11.2683 32.488V44.9758C11.2683 45.0246 11.2683 45.0734 11.2683 45.1221C11.2683 45.1221 10.7805 47.3173 13.8049 50.2929L17.7073 54.049C17.8049 54.1465 19.3659 55.9026 22.878 55.9026H24.5854C28.0976 55.9026 29.6585 54.1465 29.7073 54.0978L33.6585 50.2929C36.7317 47.2685 36.1951 45.1709 36.1951 45.1221C36.1951 45.0734 36.1951 45.0246 36.1951 44.9758V35.1709C36.1951 34.9758 36.1951 34.7807 36.1951 34.5856V34.3904C36.2927 32.488 36.2439 30.7319 34.9756 30.4392C34.7317 30.3904 34.3902 30.4392 34.0488 30.488C33.8537 30.5368 33.6098 30.5368 33.4634 30.5856C32.1951 30.6831 31.0244 30.5856 29.9024 30.3904C29.5122 30.2929 29.1219 30.1953 28.7805 30.0978C28.439 30.0002 28.0976 29.9026 27.7561 29.8051C27.122 29.6587 26.439 29.6587 25.7561 29.6587C24.3902 29.7563 23.1219 30.1465 22.0488 30.8782C21.7073 31.1221 21.3659 31.366 21.0732 31.6587L21.0244 31.7075C20.9268 31.8051 20.878 31.8539 20.8293 31.9026C20.7805 32.049 20.6341 32.1465 20.439 32.1953C20.1951 32.2441 19.9512 32.049 19.9024 31.8539C19.1219 28.6831 20.1951 26.5368 21.1219 25.366ZM30.2439 41.0246C29.561 41.0246 28.9756 40.4392 28.9756 39.7563C28.9756 39.6099 29.0244 39.4636 29.0732 39.3173L27.9024 39.2685C27.6585 39.2685 27.4634 39.0734 27.4146 38.8295C27.3659 38.5856 27.5122 38.3904 27.7561 38.2929C27.8537 38.2929 29.6098 37.8051 32.878 38.4392C33.122 38.488 33.3171 38.7319 33.2683 38.9758C33.2195 39.2197 33.0244 39.4148 32.7805 39.4148L31.5122 39.366C31.561 39.4636 31.561 39.6099 31.561 39.7563C31.561 40.4392 30.9756 41.0246 30.2439 41.0246ZM30.2439 39.4148C30.0976 39.4148 29.9512 39.5612 29.9512 39.7075C29.9512 39.8539 30.0976 40.0002 30.2439 40.0002C30.3902 40.0002 30.5366 39.8539 30.5366 39.7075C30.5366 39.5612 30.439 39.4148 30.2439 39.4148ZM17.1219 41.0246C16.439 41.0246 15.8537 40.4392 15.8537 39.7563C15.8537 39.6099 15.8537 39.5124 15.9024 39.366L14.6341 39.4148C14.3902 39.4148 14.1463 39.2197 14.1463 38.9758C14.0976 38.7319 14.2927 38.488 14.5366 38.4392C17.8049 37.7563 19.561 38.2441 19.6585 38.2929C19.9024 38.3417 20.0488 38.5856 20 38.8295C19.9512 39.0734 19.7561 39.2685 19.5122 39.2685L18.3415 39.3173C18.3902 39.4636 18.439 39.6099 18.439 39.7563C18.439 40.4392 17.8537 41.0246 17.1219 41.0246ZM17.1219 39.4148C16.9756 39.4148 16.8293 39.5612 16.8293 39.7075C16.8293 39.8539 16.9756 40.0002 17.1219 40.0002C17.2683 40.0002 17.4146 39.8539 17.4146 39.7075C17.4634 39.5612 17.3171 39.4148 17.1219 39.4148Z" fill="#3D8CFF"/>
<path d="M23.9024 44.7802C23.0244 44.7802 22.5366 44.2436 22.3415 43.9021C22.1951 43.6582 22.2927 43.3655 22.5366 43.268C22.7805 43.1216 23.0732 43.2192 23.1707 43.4631C23.1707 43.5119 23.3659 43.8046 23.8537 43.8046C24.3415 43.8046 24.4878 43.4631 24.5366 43.4631C24.6829 43.2192 24.9756 43.1216 25.2195 43.268C25.4634 43.4143 25.561 43.6582 25.4146 43.9021C25.2683 44.1948 24.7805 44.7802 23.9024 44.7802Z" fill="#3D8CFF"/>
<path d="M23.7073 49.6103C21.2683 49.6103 20.1951 48.2445 20.1463 48.1469C20 47.9518 20.0488 47.6103 20.2439 47.464C20.439 47.3177 20.7805 47.3664 20.9268 47.5616C20.9756 47.6103 21.7561 48.5859 23.7073 48.5859C25.6585 48.5859 26.439 47.5616 26.4878 47.5616C26.6341 47.3664 26.9756 47.3177 27.1707 47.464C27.3659 47.6103 27.4146 47.903 27.2683 48.1469C27.2195 48.2445 26.1463 49.6103 23.7073 49.6103Z" fill="#3D8CFF"/>
<path d="M20.3902 32.1455C20.0976 32.1455 19.9024 31.9504 19.9024 31.6577C19.9024 31.365 20.0976 31.1699 20.3902 31.1699C20.6829 31.1699 20.878 31.365 20.878 31.6577C20.878 31.9504 20.6341 32.1455 20.3902 32.1455Z" fill="#3D8CFF"/>
<path d="M10.7805 36.8774V42.731C9.26829 43.0237 8.92682 41.9018 8.92682 41.9018C8.2439 41.0237 9.21951 40.5847 9.21951 40.5847C8.34146 39.2676 8.2439 37.3164 8.2439 37.3164C9.02438 34.9262 10.7805 36.8774 10.7805 36.8774Z" fill="#ECF4FF"/>
<path d="M10.2927 43.2675C9.21952 43.2675 8.68293 42.5846 8.48781 42.1456C8.14635 41.6578 8.14635 41.2675 8.24391 41.0236C8.29269 40.7797 8.43903 40.5846 8.58537 40.4383C7.85366 39.0724 7.7561 37.4139 7.7561 37.3651C7.7561 37.3163 7.7561 37.2187 7.80488 37.17C8.09757 36.2919 8.58537 35.8041 9.17074 35.7066C10.1951 35.5114 11.0732 36.4383 11.1707 36.5846C11.2683 36.6822 11.3171 36.7797 11.3171 36.9261V42.7797C11.3171 43.0236 11.1707 43.2187 10.9268 43.2675C10.6342 43.2187 10.439 43.2675 10.2927 43.2675ZM8.73171 37.3651C8.78049 37.7553 8.92684 39.2187 9.60976 40.2919C9.70732 40.3895 9.70732 40.5358 9.65854 40.6822C9.60976 40.8285 9.5122 40.9261 9.36586 40.9748C9.31708 41.0236 9.17074 41.1212 9.12196 41.2187C9.07318 41.3163 9.17074 41.4626 9.2683 41.5602C9.31708 41.609 9.31708 41.6578 9.36586 41.7066C9.41464 41.8041 9.60976 42.2431 10.2927 42.2431V37.0724C10.0488 36.8773 9.65854 36.5846 9.36586 36.6334C9.0244 36.6822 8.82927 37.0724 8.73171 37.3651Z" fill="#3D8CFF"/>
<path d="M38.4878 41.9019C38.4878 41.9019 38.1463 43.0238 36.6341 42.7311V36.8775C36.6341 36.8775 38.3414 34.9751 39.1707 37.3165C39.1707 37.3165 39.0732 39.219 38.1951 40.5848C38.1951 40.536 39.1707 40.9751 38.4878 41.9019Z" fill="#ECF4FF"/>
<path d="M37.1219 43.2683C36.9268 43.2683 36.7317 43.2683 36.5366 43.2195C36.2927 43.1707 36.1463 42.9756 36.1463 42.7317V36.8781C36.1463 36.7805 36.1951 36.6342 36.2927 36.5366C36.3902 36.439 37.2683 35.4634 38.2927 35.6585C38.878 35.7561 39.3658 36.2927 39.6585 37.122C39.6585 37.1707 39.7073 37.2683 39.7073 37.3171C39.7073 37.4146 39.6097 39.0244 38.878 40.3903C39.0244 40.5366 39.1707 40.7317 39.2195 40.9756C39.2683 41.2195 39.2683 41.6098 38.9756 42.0976C38.7805 42.5854 38.1951 43.2683 37.1219 43.2683ZM37.1219 37.0732V42.2927C37.8049 42.2927 38 41.8537 38.0488 41.7561C38.0488 41.7073 38.0976 41.6585 38.1463 41.6098C38.1951 41.5122 38.2927 41.3659 38.2927 41.2683C38.2439 41.1707 38.0976 41.0244 38.0488 41.0244C37.9024 40.9756 37.8049 40.8781 37.7561 40.7317C37.7073 40.5854 37.7561 40.439 37.8049 40.3415C38.4878 39.3171 38.6341 37.8049 38.6829 37.4146C38.5854 37.122 38.3902 36.7317 38.0976 36.6829C37.8049 36.5854 37.3658 36.8293 37.1219 37.0732Z" fill="#3D8CFF"/>
<path d="M39.1707 29.7573C39.1707 29.7573 39.1219 33.6109 36.6341 34.6353C36.6829 32.9768 36.878 30.3914 35.0732 29.9524C34.5854 29.8061 33.9024 30.05 33.4146 30.05C32.2439 30.0988 31.0732 30.05 29.9512 29.8548C29.2195 29.7085 28.5366 29.4158 27.8049 29.2695C27.1219 29.1231 26.3902 29.0744 25.7073 29.1231C24.2927 29.2207 22.9268 29.6597 21.7561 30.3914C21.3658 30.6353 21.0244 30.928 20.7317 31.2207C20.6829 31.2695 20.3902 31.5134 20.3902 31.5622C19.1707 26.8305 22.4878 24.5866 22.4878 24.5866C12.1463 25.7573 10.9268 30.928 10.7805 32.1475C6.68292 29.2695 9.26828 23.3183 12.4878 20.7329C13.7561 19.7085 15.2195 18.9768 16.7317 18.4402C16.7317 18.4402 17.2195 16.5378 16.9268 13.2207C16.9268 13.2207 17.8049 14.6353 22.5366 15.6597C22.5854 15.7085 39.1707 17.8549 39.1707 29.7573Z" fill="#3D8CFF"/>
<path d="M36.6829 35.1227C36.5854 35.1227 36.4878 35.0739 36.3902 35.0252C36.2439 34.9276 36.1951 34.7813 36.1951 34.5861V34.391C36.2927 32.4886 36.2439 30.7325 34.9756 30.4398C34.7317 30.391 34.3902 30.4398 34.0488 30.4886C33.8536 30.5374 33.6585 30.5374 33.4634 30.5861C32.1951 30.6837 31.0244 30.5861 29.9024 30.391C29.5122 30.2935 29.1707 30.1959 28.7805 30.0983C28.439 30.0008 28.0975 29.9032 27.7561 29.8057C27.1219 29.6593 26.439 29.6593 25.7561 29.6593C24.3902 29.7569 23.1219 30.1471 22.0488 30.8788C21.7073 31.1227 21.3658 31.3666 21.0732 31.6593L21.0244 31.7081C20.9268 31.8057 20.878 31.8544 20.8293 31.9032C20.7805 32.0496 20.6341 32.1471 20.439 32.1959C20.1951 32.2447 19.9512 32.0496 19.9024 31.8544C19.0732 28.7325 20.1463 26.6349 21.1219 25.4642C12.3902 26.8788 11.3658 31.4642 11.2683 32.391C11.2683 32.5861 11.1219 32.7325 10.9756 32.7813C10.8293 32.83 10.6341 32.83 10.4878 32.7325C9.02438 31.6593 8.19511 30.1471 8.19511 28.2935C8.09755 25.0739 10.1951 21.952 12.1951 20.3422C13.3658 19.4154 14.7805 18.6349 16.3415 18.0496C16.439 17.4154 16.6829 15.7569 16.4878 13.2691C16.4878 13.0252 16.5854 12.83 16.8293 12.7813C17.0244 12.7325 17.2683 12.7813 17.4146 12.9764C17.4146 12.9764 18.3415 14.2447 22.7317 15.2203C22.878 15.2203 39.7073 17.5618 39.7073 29.7569C39.7073 29.9032 39.6097 33.952 36.878 35.0739C36.7805 35.1227 36.7317 35.1227 36.6829 35.1227ZM34.7317 29.4154C34.878 29.4154 35.0732 29.4154 35.2195 29.4642C37.1219 29.952 37.2683 32.0008 37.2195 33.7081C38.6341 32.4398 38.7317 29.8544 38.7317 29.7081C38.7317 18.3422 22.7317 16.1471 22.5854 16.1471C19.9024 15.5618 18.3902 14.8788 17.561 14.3422C17.6585 16.9764 17.2683 18.4886 17.2683 18.5374C17.2195 18.6837 17.1219 18.83 16.9756 18.8788C15.4146 19.4154 14 20.1471 12.878 21.0739C11.0244 22.5861 9.17072 25.4642 9.26828 28.1471C9.31706 29.4154 9.75609 30.4398 10.5854 31.3178C11.1707 29.2203 13.5122 25.2203 22.5854 24.1959C22.8293 24.1959 23.0244 24.2935 23.1219 24.5374C23.2195 24.7325 23.1219 24.9764 22.9268 25.1227C22.8293 25.2203 20.2927 26.9764 20.8293 30.6837C21.0732 30.4398 21.3658 30.2447 21.6585 30.0496C22.878 29.2691 24.2927 28.7813 25.8536 28.6837C26.5854 28.6349 27.3658 28.6837 28.0975 28.83C28.4878 28.9276 28.878 29.0252 29.2195 29.1227C29.561 29.2203 29.9024 29.3179 30.2439 29.4154C31.2683 29.6105 32.3902 29.7081 33.561 29.6105C33.7073 29.6105 33.9024 29.5618 34.0488 29.5618C34.1463 29.4642 34.439 29.4154 34.7317 29.4154Z" fill="#3D8CFF"/>
<path d="M14.9756 22.7314C14.878 22.7314 14.7805 22.6826 14.6829 22.6338C14.4878 22.4875 14.3902 22.1948 14.5854 21.9509C15.9024 20.146 16.2439 18.3411 16.2439 18.3411C16.2927 18.0972 16.5366 17.9021 16.8293 17.9509C17.0732 17.9997 17.2683 18.2436 17.2195 18.5363C17.2195 18.6338 16.8293 20.5363 15.3658 22.5363C15.2683 22.6826 15.1219 22.7314 14.9756 22.7314Z" fill="#3D8CFF"/>
<path d="M32.7805 38.9271L27.9024 38.732C27.9024 38.732 29.6098 38.293 32.7805 38.9271Z" fill="#3D8CFF"/>
<path d="M32.7805 39.4144L27.9024 39.2192C27.6585 39.2192 27.4634 39.0241 27.4146 38.7802C27.3658 38.5363 27.5122 38.3412 27.7561 38.2436C27.8536 38.2436 29.6097 37.7558 32.878 38.39C33.1219 38.4387 33.3171 38.6827 33.2683 38.9266C33.2683 39.2192 33.0244 39.4144 32.7805 39.4144Z" fill="#3D8CFF"/>
<path d="M17.1219 40.5375C17.553 40.5375 17.9024 40.1881 17.9024 39.757C17.9024 39.326 17.553 38.9766 17.1219 38.9766C16.6909 38.9766 16.3415 39.326 16.3415 39.757C16.3415 40.1881 16.6909 40.5375 17.1219 40.5375Z" fill="#3D8CFF"/>
<path d="M17.122 41.0249C16.439 41.0249 15.8537 40.4395 15.8537 39.7566C15.8537 39.0736 16.439 38.4883 17.122 38.4883C17.8049 38.4883 18.3903 39.0736 18.3903 39.7566C18.439 40.4395 17.8537 41.0249 17.122 41.0249ZM17.122 39.4151C16.9756 39.4151 16.8293 39.5615 16.8293 39.7078C16.8293 39.8541 16.9756 40.0005 17.122 40.0005C17.2683 40.0005 17.4146 39.8541 17.4146 39.7078C17.4634 39.5615 17.3171 39.4151 17.122 39.4151Z" fill="#3D8CFF"/>
<path d="M19.4634 38.732L14.5854 38.9271C17.8049 38.293 19.4634 38.732 19.4634 38.732Z" fill="#3D8CFF"/>
<path d="M14.5854 39.4143C14.3415 39.4143 14.1463 39.2192 14.0976 38.9753C14.0488 38.7314 14.2439 38.4875 14.4878 38.4387C17.7561 37.7558 19.5122 38.2436 19.6097 38.2924C19.8536 38.3412 20 38.5851 19.9512 38.829C19.9024 39.0729 19.7073 39.268 19.4634 39.268L14.5854 39.4143C14.6341 39.4143 14.6341 39.4143 14.5854 39.4143Z" fill="#3D8CFF"/>
<path d="M33.3658 37.1708C33.2683 37.1708 33.1707 37.122 33.0732 37.0732C32 36.244 30.6341 36.5366 29.1707 36.8293C28.4878 36.9757 27.8049 37.122 27.1707 37.1708C26.878 37.1708 26.6829 36.9757 26.6829 36.683C26.6829 36.3903 26.878 36.1952 27.1707 36.1952C27.7561 36.1464 28.3415 36.0488 29.0244 35.9025C30.5854 35.561 32.2927 35.1708 33.7561 36.2927C33.9512 36.4391 34 36.7805 33.8537 36.9757C33.6585 37.122 33.5122 37.1708 33.3658 37.1708Z" fill="#3D8CFF"/>
<path d="M14.0488 37.1708C13.9024 37.1708 13.7561 37.122 13.6585 36.9757C13.5122 36.7805 13.5122 36.4391 13.7561 36.2927C15.1707 35.1708 16.9268 35.561 18.4878 35.9025C19.1219 36.0488 19.7561 36.1952 20.3415 36.1952C20.6341 36.1952 20.8293 36.4391 20.8293 36.683C20.8293 36.9757 20.5854 37.1708 20.3415 37.1708C19.7073 37.122 19.0244 36.9757 18.3415 36.8293C16.878 36.4879 15.5122 36.1952 14.439 37.0732C14.2927 37.1708 14.1463 37.1708 14.0488 37.1708Z" fill="#3D8CFF"/>
<path d="M69 16.5311C68.9582 18.8333 68.2047 21.0518 66.6141 22.9772C66.4886 23.1028 66.4886 23.2284 66.5304 23.3958C66.7397 24.1911 66.8653 24.9864 66.6141 25.8236C66.4886 26.2003 66.363 26.5351 66.1537 26.87C65.6095 27.7072 65.0654 28.5443 64.5212 29.4233C64.2282 29.8838 63.9352 29.8838 63.6422 29.4233C63.2655 28.7955 62.8888 28.1257 62.5121 27.4979C62.4283 27.3723 62.3446 27.2886 62.2191 27.2467C60.9633 26.9119 59.875 26.2421 59.0797 25.1957C58.996 25.0701 58.8704 25.0283 58.7449 24.9864C58.0333 24.9027 57.3636 24.819 56.652 24.7353C56.5683 24.7353 56.4427 24.7353 56.359 24.6934C56.0241 24.6097 55.8985 24.3585 56.066 24.0655C56.6938 23.0609 57.3217 22.0564 58.0333 21.0518C58.6193 20.2565 59.4564 19.8379 60.4192 19.6705C60.8796 19.5867 61.0889 19.4193 61.34 19.0007C62.8469 16.28 65.1491 14.522 68.1629 13.7685C68.6233 13.6429 68.7907 13.7685 68.8745 14.2289C68.9582 14.9824 69 15.6521 69 16.5311ZM68.1629 16.3637C68.1629 15.9033 68.121 15.4428 68.0792 14.9824C68.0373 14.7731 67.9536 14.7731 67.7862 14.815C64.5631 15.8195 62.3865 17.9124 61.2982 21.0936C60.8796 22.2656 60.5447 23.4795 59.7495 24.4841C59.7495 24.4841 59.7495 24.4841 59.7495 24.526C59.6657 24.6097 59.7076 24.6934 59.7913 24.7771C60.461 25.5724 61.2982 26.1166 62.3028 26.4096C62.4283 26.4514 62.5121 26.4096 62.5539 26.3259C62.7632 25.991 62.9725 25.6561 63.1818 25.3631C63.3074 25.1538 63.3074 25.0701 63.0562 24.9864C62.4702 24.819 61.9261 24.526 61.4656 24.1493C61.2982 24.0237 61.2145 23.8144 61.34 23.6051C61.4238 23.3958 61.5912 23.3121 61.8005 23.3958C61.8842 23.4377 61.9679 23.4795 62.0516 23.5632C62.5539 23.94 63.1399 24.1911 63.7259 24.3585C63.9352 24.4004 64.0608 24.4004 64.1864 24.233C64.4375 23.9818 64.7305 23.7307 64.9817 23.4795C67.0746 21.5541 68.121 19.1682 68.1629 16.3637ZM64.1027 28.5443C64.605 27.749 65.1491 26.9956 65.6095 26.2003C66.0281 25.4887 66.07 24.7353 65.8188 23.9818C64.7724 24.7771 63.8515 25.6561 63.2236 26.87C63.1818 26.9537 63.1818 26.9956 63.2236 27.0793C63.4748 27.5397 63.7678 28.0002 64.1027 28.5443ZM60.5448 20.5913C60.5448 20.5913 60.5029 20.5913 60.461 20.5913C59.6239 20.7588 58.9123 21.1773 58.4519 21.8889C58.0333 22.5168 57.6566 23.1447 57.238 23.7725C57.1961 23.8562 57.1124 23.8981 57.1124 24.0237C57.6566 24.1074 58.2426 24.1493 58.7867 24.233C58.9123 24.233 58.9542 24.1911 58.996 24.1074C59.8332 23.0609 60.2517 21.8471 60.5448 20.5913Z" fill="black"/>
<path d="M54.266 11.8847C53.387 11.8429 52.5499 12.0103 51.7546 12.3033C48.1548 13.6009 45.8108 16.0705 45.0573 19.8377C44.0109 24.9025 46.8991 29.7161 51.7964 31.3486C52.0894 31.4323 52.2569 31.5997 52.215 31.8509C52.1731 32.1439 51.922 32.2695 51.5871 32.1858C50.5407 31.8509 49.5361 31.3486 48.6152 30.7207C46.1875 29.0046 44.6387 26.6605 44.1783 23.7305C43.5086 19.7121 44.7643 16.3216 47.8199 13.6009C49.871 11.7591 52.3824 10.922 55.1032 11.0057C58.4518 11.0894 61.2144 12.5126 63.3492 15.1496C63.5585 15.4008 63.5585 15.6519 63.3492 15.8193C63.1399 15.9868 62.9306 15.9449 62.7213 15.6519C61.2144 13.8102 59.3308 12.5963 57.0287 12.094C56.6938 12.0103 56.3589 11.9684 56.0241 11.9266C55.8985 11.8847 55.7729 11.9684 55.6473 12.0521C54.4753 12.8474 53.387 13.6846 52.1731 14.3962C52.0894 14.438 52.0057 14.4799 51.922 14.5218C51.7127 14.5636 51.5453 14.4799 51.4616 14.2706C51.3779 14.0613 51.4616 13.852 51.6709 13.7683C52.1313 13.5172 52.5917 13.2242 53.0103 12.9312C53.387 12.5126 53.8056 12.1777 54.266 11.8847Z" fill="black"/>
<path d="M44.0109 31.3479C44.0109 30.3015 44.1783 29.255 44.4295 28.2505C44.5132 27.9575 44.7225 27.79 44.9318 27.8737C45.1829 27.9156 45.3085 28.1667 45.2248 28.4597C44.9736 29.548 44.8062 30.6364 44.848 31.7247C44.8899 32.3525 44.9736 32.9385 45.2248 33.4827C45.7271 34.5291 46.6898 35.0314 47.9455 34.864C49.3268 34.6547 50.5407 34.0268 51.6709 33.2734C53.8056 31.8921 55.6055 30.1341 57.238 28.2086C57.5728 27.8319 57.9077 27.4133 58.2007 27.0366C58.41 26.7854 58.6193 26.7436 58.8286 26.911C59.0378 27.0784 59.0378 27.3296 58.8704 27.5389C57.0287 29.8411 55.0195 31.9758 52.5917 33.692C51.3779 34.5291 50.1221 35.2407 48.6571 35.5756C47.7362 35.7849 46.8154 35.8267 45.9363 35.3663C44.9318 34.864 44.4295 33.9431 44.1783 32.8967C44.0527 32.3944 43.969 31.8921 44.0109 31.3479Z" fill="black"/>
<path d="M51.629 35.9955C51.3779 35.9955 51.2104 35.8699 51.1686 35.6606C51.1267 35.4513 51.2104 35.2839 51.4197 35.2002C51.7964 35.0328 52.1732 34.8653 52.5499 34.656C54.5591 33.5259 56.2752 32.0608 57.8658 30.4284C58.703 29.5912 59.4564 28.6704 60.168 27.7495C60.2936 27.5821 60.4192 27.4565 60.6284 27.4983C60.7959 27.4983 60.8796 27.5821 60.9633 27.7495C61.047 27.9169 60.9633 28.0844 60.8796 28.2099C60.3773 28.8378 59.875 29.4657 59.3727 30.0517C57.7821 31.8097 56.0241 33.4422 54.0149 34.7397C53.3452 35.2002 52.6336 35.5769 51.8802 35.8699C51.7964 35.9536 51.7127 35.9536 51.629 35.9955Z" fill="black"/>
<path d="M54.3079 24.6104C54.3079 24.9034 54.0568 25.1126 53.7219 25.0289C53.3452 24.9034 53.0103 24.7778 52.6336 24.6522C52.2987 24.4848 51.9639 24.6104 51.629 24.6522C50.5407 24.8615 49.4524 25.0289 48.3641 25.2382C48.1967 25.2801 47.9874 25.2801 47.8199 25.2382C47.6106 25.1964 47.4851 25.0289 47.4851 24.8196C47.4851 24.6104 47.6525 24.4429 47.8618 24.4429C48.5315 24.4429 49.1594 24.2336 49.7873 24.1499C50.5407 24.0243 51.2523 23.8988 52.0057 23.7732C52.2569 23.7313 52.508 23.7732 52.7173 23.8151C53.1359 23.9406 53.5545 24.1081 53.973 24.2336C54.1823 24.3173 54.266 24.4429 54.3079 24.6104Z" fill="black"/>
<path d="M50.3733 17.9523C50.3733 17.2826 50.8337 16.6129 51.4197 16.4455C51.7127 16.3617 51.922 16.4455 52.0057 16.6966C52.0894 16.9477 51.9639 17.157 51.7127 17.2408C51.336 17.3663 51.2941 17.7012 51.2523 18.0361C51.2104 18.2872 51.043 18.4546 50.8337 18.4128C50.4988 18.3709 50.3314 18.2035 50.3733 17.9523Z" fill="black"/>
<path d="M52.0057 28.795C52.0057 28.9625 51.922 29.088 51.7964 29.1717C51.4197 29.381 51.043 29.6322 50.6663 29.8415C50.4151 29.967 50.164 29.9252 50.0384 29.7159C49.9128 29.5066 49.9965 29.2555 50.2058 29.1299C50.5826 28.8787 50.9593 28.6694 51.3778 28.4183C51.7127 28.2509 52.0057 28.4602 52.0057 28.795Z" fill="black"/>
<path d="M56.0241 13.9775C56.0241 13.8519 56.0659 13.7682 56.1497 13.6845C56.5682 13.3078 57.3635 13.3915 57.6565 13.8519C57.7821 14.0194 57.7402 14.2287 57.6147 14.3542C57.4472 14.5217 57.2798 14.5217 57.1124 14.3961C56.945 14.2705 56.8194 14.2287 56.5682 14.3542C56.3171 14.5217 56.0241 14.2705 56.0241 13.9775Z" fill="black"/>
<path d="M53.1777 28.7539C52.9266 28.7539 52.7592 28.6283 52.7173 28.419C52.6755 28.2097 52.7592 28.0004 53.0103 27.9586C53.3452 27.8749 53.6382 27.833 53.973 27.7911C54.1823 27.7493 54.3498 27.8749 54.3916 28.126C54.4335 28.3353 54.3498 28.5446 54.1405 28.5864C53.8475 28.6283 53.5126 28.712 53.1777 28.7539Z" fill="black"/>
<path d="M67.3257 30.177C67.3257 30.3444 67.3257 30.47 67.3257 30.6374C67.3257 30.8467 67.1164 31.0142 66.9071 31.0142C66.6978 31.0142 66.4885 30.8467 66.4885 30.6374C66.4885 30.3444 66.4885 30.0514 66.4885 29.7166C66.4885 29.5073 66.6978 29.3398 66.9071 29.3398C67.1164 29.3398 67.2838 29.5073 67.3257 29.7166C67.3675 29.8421 67.3257 30.0096 67.3257 30.177Z" fill="black"/>
<path d="M65.6932 30.9727C65.8188 30.9727 65.9862 30.9727 66.1118 30.9727C66.363 30.9727 66.5304 31.1819 66.5304 31.3912C66.5304 31.6005 66.363 31.768 66.1118 31.8098C65.8188 31.8098 65.5258 31.8098 65.2328 31.8098C65.0235 31.8098 64.8561 31.6005 64.8561 31.3912C64.8561 31.1819 65.0235 31.0145 65.2328 30.9727C65.4002 30.9727 65.5258 30.9727 65.6932 30.9727Z" fill="black"/>
<path d="M68.1628 31.8098C67.9954 31.8098 67.8698 31.8098 67.7024 31.8098C67.4931 31.8098 67.3257 31.6005 67.3257 31.3912C67.3257 31.1819 67.4931 30.9727 67.7024 30.9727C67.9954 30.9727 68.2884 30.9727 68.5814 30.9727C68.7907 30.9727 68.9581 31.1401 68.9581 31.3912C68.9581 31.6005 68.7907 31.8098 68.5396 31.8098C68.4558 31.8098 68.3303 31.8098 68.1628 31.8098Z" fill="black"/>
<path d="M67.3257 32.6449C67.3257 32.8123 67.3257 32.9379 67.3257 33.1053C67.3257 33.3146 67.1164 33.4821 66.9071 33.4821C66.6978 33.4821 66.4885 33.3146 66.4885 33.1053C66.4885 32.8123 66.4885 32.5193 66.4885 32.2263C66.4885 32.017 66.656 31.8496 66.9071 31.8496C67.1164 31.8496 67.3257 32.017 67.3257 32.2682C67.3675 32.3519 67.3257 32.5193 67.3257 32.6449Z" fill="black"/>
<path d="M50.8756 14.6891C50.8756 15.0659 50.4989 15.0659 50.2477 15.1914C50.0384 15.2751 49.8291 15.317 49.6617 15.1077C49.4943 14.8984 49.5361 14.6054 49.7873 14.4798C49.9966 14.3961 50.2059 14.3124 50.3733 14.2706C50.6244 14.1868 50.8756 14.3961 50.8756 14.6891Z" fill="black"/>
<path d="M60.6703 32.8564C60.6703 33.275 60.5447 33.4842 60.2517 33.4842C59.9587 33.4842 59.8332 33.275 59.8332 32.8564C59.8332 32.8145 59.8332 32.7727 59.8332 32.689C59.8332 32.3959 60.0006 32.2285 60.2517 32.2285C60.5029 32.2285 60.6703 32.3959 60.6703 32.689C60.6703 32.7308 60.6703 32.8145 60.6703 32.8564Z" fill="black"/>
<path d="M59.2053 34.3196C59.1634 34.3196 59.1216 34.3196 59.1216 34.3196C58.7867 34.3196 58.6193 34.1521 58.6193 33.901C58.6193 33.6499 58.8286 33.4824 59.1216 33.4824C59.2053 33.4824 59.3308 33.4824 59.4146 33.4824C59.6657 33.4824 59.875 33.6499 59.875 33.901C59.875 34.1521 59.7076 34.3196 59.4146 34.3196C59.3308 34.3196 59.2471 34.3196 59.2053 34.3196Z" fill="black"/>
<path d="M61.2982 34.3196C60.8796 34.3196 60.6703 34.194 60.6703 33.901C60.6703 33.608 60.8796 33.4824 61.2982 33.4824C61.7586 33.4824 61.9261 33.608 61.9261 33.901C61.9261 34.194 61.7168 34.3196 61.2982 34.3196Z" fill="black"/>
<path d="M60.6703 34.9493C60.6703 35.3679 60.5447 35.5772 60.2517 35.5772C59.9587 35.5772 59.8332 35.3679 59.8332 34.9493C59.8332 34.9074 59.8332 34.8237 59.8332 34.7819C59.8332 34.5307 60.0006 34.3633 60.2517 34.3633C60.5029 34.3633 60.6703 34.5307 60.6703 34.8237C60.6703 34.8237 60.6703 34.9074 60.6703 34.9493Z" fill="black"/>
<path d="M46.3549 24.1074C46.4386 24.1074 46.6061 24.1493 46.7316 24.1911C46.9409 24.2749 47.0246 24.4423 46.9828 24.6516C46.9409 24.8609 46.7735 24.9864 46.5642 24.9864C46.4386 24.9864 46.2712 24.9446 46.1456 24.9027C45.9363 24.819 45.8108 24.6516 45.8526 24.4423C45.8945 24.233 46.0619 24.1074 46.3549 24.1074Z" fill="black"/>
<path d="M49.0338 15.2338C48.992 15.5268 48.7827 15.6105 48.5734 15.6943C48.3641 15.778 48.1548 15.778 47.9874 15.5687C47.8618 15.4012 47.8618 15.2338 47.9874 15.0664C48.1129 14.899 48.5734 14.7315 48.7827 14.8152C48.9501 14.9408 49.0338 15.0664 49.0338 15.2338Z" fill="black"/>
<path d="M55.7729 19.0416C55.7729 18.7905 55.9404 18.623 56.1915 18.623C56.4427 18.623 56.652 18.8323 56.6101 19.1253C56.6101 19.3346 56.4008 19.5439 56.1915 19.5439C55.9404 19.5021 55.7311 19.2928 55.7729 19.0416Z" fill="black"/>
<path d="M47.1502 19.3354C47.1502 19.5866 46.9828 19.754 46.7735 19.754C46.5224 19.754 46.3131 19.5447 46.3131 19.2936C46.3131 19.0424 46.5224 18.875 46.7317 18.875C46.9409 18.875 47.1502 19.0424 47.1502 19.3354Z" fill="black"/>
<path d="M50.5407 26.0322C50.5407 26.2833 50.3314 26.4508 50.1221 26.4508C49.871 26.4508 49.7036 26.2415 49.7036 25.9903C49.7036 25.7392 49.871 25.5717 50.1221 25.5717C50.3733 25.5299 50.5407 25.7392 50.5407 26.0322Z" fill="black"/>
<path d="M53.8893 26.3242C54.1405 26.3242 54.3079 26.4917 54.3079 26.7847C54.3079 27.0358 54.1405 27.2451 53.8893 27.2451C53.6382 27.2451 53.4708 27.0358 53.4708 26.7847C53.4708 26.5335 53.6801 26.3242 53.8893 26.3242Z" fill="black"/>
<path d="M54.9776 14.7721C54.9776 14.5209 55.1451 14.3535 55.3962 14.3535C55.6474 14.3535 55.8148 14.5628 55.8148 14.814C55.8148 15.0651 55.6474 15.2325 55.3962 15.2325C55.1451 15.2325 54.9776 15.0651 54.9776 14.7721Z" fill="black"/>
<path d="M47.8199 27.7487C47.8199 27.4975 47.9874 27.3301 48.2385 27.3301C48.4897 27.3301 48.699 27.5394 48.6571 27.7905C48.6571 28.0417 48.4478 28.2091 48.2385 28.2091C47.9874 28.2091 47.8199 28.0417 47.8199 27.7487Z" fill="black"/>
<path d="M64.5631 18.582C64.8142 18.582 64.9817 18.7495 64.9817 19.0425C64.9817 19.2936 64.8142 19.5029 64.5631 19.5029C64.3119 19.5029 64.1445 19.2936 64.1445 19.0425C64.1864 18.7495 64.3538 18.582 64.5631 18.582Z" fill="black"/>
<path d="M64.0608 20.5062C64.0608 20.7573 63.8933 20.9248 63.6422 20.9248C63.391 20.9248 63.2236 20.7573 63.1818 20.4643C63.1818 20.2132 63.3492 20.0039 63.6003 20.0039C63.8515 20.0458 64.0608 20.2551 64.0608 20.5062Z" fill="black"/>
</g>
<defs>
<clipPath id="clip0_1112_1734">
<rect width="80" height="80" fill="white"/>
</clipPath>
</defs>
</svg>
