<svg width="50" height="50" viewBox="0 0 50 50" fill="none" xmlns="http://www.w3.org/2000/svg">
<g clip-path="url(#clip0_1047_217)">
<path d="M24.9481 49.375C18.2805 49.375 11.6128 49.378 4.94509 49.375C2.33838 49.375 0.621915 47.6585 0.621915 45.0549C0.618867 39.3018 0.618867 33.5488 0.621915 27.7957C0.621915 25.0488 2.2957 23.375 5.0457 23.375C18.3963 23.375 31.75 23.375 45.1006 23.375C47.6372 23.375 49.3719 25.1067 49.3719 27.6433C49.375 33.4817 49.375 39.3201 49.3719 45.1555C49.3689 47.6189 47.6158 49.372 45.1524 49.372C38.4176 49.3781 31.6829 49.375 24.9481 49.375ZM25 47.75C31.7195 47.75 38.439 47.75 45.1585 47.75C46.7134 47.75 47.75 46.7256 47.75 45.1829C47.753 39.311 47.753 33.436 47.75 27.564C47.75 26.0183 46.7164 25 45.1585 25C31.7164 25 18.2774 25 4.83838 25C3.26521 25 2.24692 26.0305 2.24692 27.6159C2.24692 33.4543 2.24387 39.2927 2.24692 45.1341C2.24692 46.7409 3.27131 47.75 4.89021 47.75C11.5945 47.75 18.2957 47.75 25 47.75Z" fill="#263238"/>
<path d="M19.6555 13.2771C21.2286 14.6125 21.8445 16.3412 21.7561 18.3717C21.7195 19.1826 21.7561 19.9967 21.75 20.8076C21.7439 21.39 21.4085 21.7619 20.9177 21.7467C20.4421 21.7345 20.1311 21.3778 20.128 20.8168C20.1219 19.8015 20.1311 18.7863 20.125 17.7711C20.1097 15.3991 18.3506 13.64 15.9817 13.6278C14.4085 13.6186 12.8323 13.6186 11.2591 13.6278C8.89327 13.643 7.14022 15.4052 7.12498 17.7802C7.11888 18.7619 7.12498 19.7436 7.12193 20.7253C7.11888 21.3717 6.8262 21.7406 6.32315 21.7467C5.814 21.7528 5.48778 21.3778 5.50303 20.7497C5.53656 19.4143 5.38717 18.0729 5.59144 16.7467C5.99083 14.1247 8.30486 12.0729 10.9634 12.015C12.7408 11.9753 14.5183 12.0028 16.2957 12.0089C16.8384 12.0119 17.3719 12.1217 17.8811 12.3076C18.0975 12.3869 18.2347 12.3717 18.4055 12.1918C19.6006 10.9296 21.0792 10.3503 22.811 10.3717C24.3353 10.39 25.8567 10.3747 27.3811 10.3747C29.0213 10.3778 30.4177 10.9662 31.5488 12.1521C31.7439 12.3564 31.8872 12.4052 32.1494 12.3046C32.7378 12.079 33.3597 11.9997 33.9878 11.9997C35.5792 11.9997 37.1707 11.9906 38.7622 11.9997C41.9908 12.0211 44.4695 14.4967 44.5 17.7284C44.5091 18.7284 44.503 19.7253 44.5 20.7253C44.4969 21.3717 44.2042 21.7375 43.6981 21.7467C43.189 21.7558 42.878 21.3839 42.875 20.7467C42.8719 19.765 42.878 18.7832 42.8719 17.8015C42.8628 15.3991 41.1128 13.64 38.7103 13.6247C37.1372 13.6156 35.561 13.6156 33.9878 13.6247C31.6524 13.64 29.8933 15.4082 29.875 17.7467C29.8689 18.7467 29.878 19.7436 29.875 20.7436C29.8719 21.3778 29.561 21.7528 29.0549 21.7467C28.5457 21.7406 28.2378 21.3717 28.253 20.7284C28.2835 19.4113 28.1494 18.0881 28.3384 16.7741C28.5244 15.4875 29.1189 14.4082 30.0762 13.5363C30.3201 13.3137 30.3475 13.1918 30.0792 12.9753C29.3445 12.3808 28.5213 12.018 27.5731 12.0089C25.8475 11.9906 24.1189 11.9936 22.3933 12.0089C21.3475 12.018 20.2774 12.5332 19.6555 13.2771Z" fill="#28343A"/>
<path d="M24.9999 8.75C22.7652 8.75 20.939 6.92073 20.939 4.68598C20.939 2.45122 22.7652 0.625 24.9999 0.625C27.2377 0.625 29.0609 2.45122 29.0609 4.68598C29.0609 6.92073 27.2316 8.75 24.9999 8.75ZM24.9908 7.12195C26.3384 7.125 27.442 6.01829 27.4359 4.66768C27.4298 3.34451 26.3353 2.25305 25.0091 2.25C23.6646 2.24695 22.5579 3.35671 22.564 4.70427C22.5701 6.02744 23.6676 7.12195 24.9908 7.12195Z" fill="#28343A"/>
<path d="M40.4392 6.34152C40.4239 8.57323 38.5825 10.3873 36.3447 10.3751C34.1191 10.3629 32.2959 8.51531 32.3111 6.28055C32.3264 4.04884 34.1648 2.23787 36.4056 2.25006C38.6343 2.25921 40.4514 4.10677 40.4392 6.34152ZM38.8111 6.31104C38.8081 4.96043 37.7014 3.86591 36.3477 3.87506C35.0276 3.88421 33.9331 4.98787 33.9392 6.31104C33.9422 7.66165 35.0489 8.75616 36.4026 8.74701C37.7197 8.73787 38.8142 7.63116 38.8111 6.31104Z" fill="#28343A"/>
<path d="M13.6312 2.25C15.8629 2.25 17.686 4.07927 17.686 6.32012C17.686 8.54878 15.8446 10.3841 13.6159 10.375C11.3781 10.3659 9.55799 8.53659 9.56104 6.30488C9.56714 4.06707 11.3903 2.25 13.6312 2.25ZM13.6281 3.875C12.3019 3.87195 11.2013 4.95732 11.1891 6.28049C11.1769 7.6311 12.2775 8.7439 13.622 8.7439C14.9696 8.7439 16.0702 7.63719 16.061 6.28659C16.0488 4.96646 14.9543 3.87805 13.6281 3.875Z" fill="#28343A"/>
<path d="M10.3719 19.3237C10.3719 19.8481 10.3841 20.3694 10.3689 20.8938C10.3536 21.406 10.0182 21.7474 9.56092 21.7474C9.10056 21.7474 8.75909 21.409 8.753 20.8938C8.7408 19.8298 8.73775 18.7688 8.753 17.7048C8.75909 17.2231 9.09751 16.8907 9.53653 16.8755C9.99385 16.8602 10.3536 17.2017 10.3689 17.7048C10.3871 18.2444 10.3719 18.784 10.3719 19.3237Z" fill="#28343A"/>
<path d="M16.8719 19.3131C16.8719 18.807 16.8658 18.3009 16.8719 17.7948C16.881 17.2399 17.195 16.8863 17.6676 16.8771C18.1432 16.868 18.4877 17.2216 18.4938 17.7674C18.5029 18.7948 18.5029 19.8253 18.4938 20.8558C18.4877 21.4015 18.1493 21.7552 17.6737 21.7491C17.195 21.743 16.884 21.3924 16.8749 20.8344C16.8658 20.3253 16.8749 19.8192 16.8719 19.3131Z" fill="#28343A"/>
<path d="M33.1251 19.3237C33.1251 19.8481 33.1373 20.3694 33.1221 20.8938C33.1068 21.409 32.7745 21.7474 32.3141 21.7474C31.8538 21.7474 31.5123 21.406 31.5062 20.8938C31.494 19.8298 31.494 18.7688 31.5062 17.7048C31.5123 17.22 31.8477 16.8907 32.2867 16.8755C32.744 16.8602 33.1068 17.2017 33.1221 17.7017C33.1373 18.2444 33.1251 18.784 33.1251 19.3237Z" fill="#28343A"/>
<path d="M39.6249 19.308C39.6249 18.7836 39.6157 18.2623 39.6279 17.7379C39.6401 17.2196 39.9663 16.8812 40.4267 16.8751C40.8871 16.869 41.2377 17.2104 41.2438 17.7196C41.256 18.7836 41.256 19.8446 41.2438 20.9086C41.2377 21.4147 40.8779 21.7562 40.4206 21.747C39.9633 21.7379 39.6401 21.3934 39.6279 20.8751C39.6157 20.3537 39.6249 19.8293 39.6249 19.308Z" fill="#28343A"/>
<path d="M23.3748 30.6921C23.3748 31.6921 23.3626 32.6891 23.3809 33.6891C23.387 34.0885 23.3017 34.4421 22.9724 34.6739C21.9206 35.4208 21.5577 36.4178 21.7346 37.686C21.8199 38.2836 21.7559 38.9025 21.7468 39.5123C21.7376 40.0732 21.4267 40.4269 20.951 40.436C20.4571 40.4452 20.1279 40.0824 20.1248 39.4909C20.1187 38.2226 20.1279 36.9513 20.1187 35.683C20.1157 35.3537 20.2102 35.0641 20.4724 34.8812C21.6065 34.0946 21.884 33.0214 21.7712 31.686C21.6584 30.3415 21.7437 28.9787 21.7468 27.6251C21.7468 26.9879 22.0547 26.619 22.5669 26.6251C23.076 26.6312 23.3687 27.0001 23.3718 27.6434C23.3779 28.6617 23.3748 29.6769 23.3748 30.6921Z" fill="#28343A"/>
<path d="M28.2498 30.4327C28.2498 31.3626 28.259 32.2955 28.2437 33.2254C28.2407 33.4815 28.2772 33.6949 28.4968 33.8443C29.701 34.6675 30.0608 35.8108 29.8901 37.2223C29.8016 37.9723 29.8809 38.7437 29.8718 39.5059C29.8657 40.0699 29.5577 40.4236 29.0821 40.4358C28.5882 40.451 28.2529 40.0851 28.2498 39.4967C28.2437 38.4297 28.2407 37.3656 28.2529 36.2986C28.2559 36.0272 28.2163 35.7986 27.9846 35.637C26.8108 34.8199 26.4907 33.704 26.5974 32.3047C26.7163 30.7559 26.6218 29.1919 26.6248 27.637C26.6248 26.9967 26.9297 26.6278 27.4388 26.6309C27.951 26.6339 28.2437 26.9998 28.2468 27.6431C28.2529 28.5699 28.2498 29.5028 28.2498 30.4327Z" fill="#28343A"/>
<path d="M20.1251 29.4911C20.1251 30.1008 20.1129 30.7075 20.1312 31.3173C20.1403 31.6831 20.0123 31.9636 19.7562 32.2167C18.9025 33.0581 18.0641 33.9179 17.2013 34.7533C16.9665 34.9819 16.8385 35.2106 16.872 35.5459C16.8995 35.8295 16.8903 36.1222 16.869 36.4087C16.8324 36.8783 16.4757 37.2014 16.0336 37.1862C15.6129 37.1709 15.2775 36.8539 15.2592 36.4026C15.2379 35.8447 15.2531 35.2868 15.2562 34.7289C15.2592 34.4331 15.433 34.2319 15.6281 34.0368C16.5031 33.1648 17.369 32.2868 18.2501 31.424C18.433 31.2441 18.5123 31.0642 18.5062 30.8051C18.4909 29.7411 18.497 28.674 18.5001 27.61C18.5031 27.0063 18.7989 26.6435 19.2897 26.6313C19.7989 26.6161 20.119 26.9911 20.1251 27.6161C20.1281 28.238 20.1251 28.863 20.1251 29.4911Z" fill="#28343A"/>
<path d="M31.4998 29.4734C31.1065 30.6869 31.8047 31.6869 32.884 32.5649C33.4327 33.01 33.8931 33.5619 34.3992 34.0588C34.6431 34.2966 34.762 34.571 34.7529 34.9155C34.7376 35.3881 34.759 35.8637 34.7468 36.3362C34.7315 36.8484 34.387 37.1899 33.9297 37.1869C33.4693 37.1838 33.0699 36.8301 33.1401 36.324C33.2772 35.3545 32.8626 34.7143 32.1675 34.1137C31.4785 33.5192 30.8718 32.8301 30.2193 32.1899C29.9754 31.949 29.8657 31.6777 29.8687 31.3332C29.8809 30.0832 29.8687 28.8301 29.8748 27.5801C29.8779 26.9856 30.1949 26.6259 30.6919 26.6289C31.1858 26.635 31.4937 26.9948 31.4998 27.5923C31.5029 28.132 31.4998 28.6747 31.4998 29.4734Z" fill="#28343A"/>
<path d="M5.50018 36.372C5.50018 37.1495 5.50628 37.9239 5.49713 38.7013C5.49103 39.2592 5.17396 39.6129 4.7014 39.622C4.2075 39.6312 3.87823 39.2653 3.87518 38.68C3.86908 37.1434 3.86908 35.6068 3.87518 34.0702C3.87823 33.4818 4.2014 33.119 4.69835 33.1251C5.19225 33.1312 5.49408 33.4909 5.50018 34.0915C5.50323 34.8537 5.50018 35.6129 5.50018 36.372Z" fill="#28343A"/>
<path d="M44.503 36.3348C44.503 36.0665 44.4878 35.7952 44.5061 35.5269C44.5396 35.0604 44.8994 34.7372 45.3384 34.7525C45.7591 34.7677 46.1006 35.0817 46.1158 35.5299C46.1372 36.1031 46.1402 36.6763 46.1128 37.2464C46.0914 37.6854 45.7286 37.9994 45.311 37.9994C44.8933 37.9994 44.5518 37.6884 44.5061 37.2464C44.4908 37.097 44.5 36.9445 44.5 36.7921C44.5 36.6397 44.5 36.4903 44.5 36.3378C44.5 36.3348 44.503 36.3348 44.503 36.3348Z" fill="#28343A"/>
<path d="M8.75021 27.4937C8.75935 26.9754 9.11911 26.6065 9.59777 26.6278C10.0337 26.6461 10.3844 27.0242 10.3722 27.4632C10.36 27.9388 9.94228 28.3565 9.50021 28.3321C9.03374 28.3077 8.74106 27.9784 8.75021 27.4937Z" fill="#28343A"/>
<path d="M39.6251 27.4967C39.6312 26.9815 39.997 26.6065 40.4696 26.6278C40.9086 26.6461 41.2562 27.0211 41.247 27.4632C41.2379 27.9175 40.8507 28.329 40.4269 28.3351C39.9483 28.3412 39.619 27.9967 39.6251 27.4967Z" fill="#28343A"/>
<path d="M9.56106 29.8789C10.0001 29.8789 10.3629 30.2387 10.372 30.6777C10.3781 31.1502 9.97874 31.5832 9.53362 31.5832C9.07325 31.5832 8.75313 31.257 8.75008 30.7783C8.74398 30.257 9.0824 29.8789 9.56106 29.8789Z" fill="#28343A"/>
<path d="M39.625 30.7723C39.622 30.2509 39.9695 29.8729 40.4451 29.879C40.8872 29.8851 41.2439 30.2448 41.247 30.6869C41.25 31.1595 40.8445 31.5924 40.4025 31.5863C39.939 31.5771 39.6281 31.2509 39.625 30.7723Z" fill="#28343A"/>
<path d="M8.74715 34.0313C8.74105 33.51 9.08252 33.1289 9.55813 33.1289C9.9941 33.1289 10.36 33.4887 10.3691 33.9307C10.3782 34.4033 9.97581 34.8393 9.53374 34.8362C9.07337 34.8332 8.75325 34.5039 8.74715 34.0313Z" fill="#28343A"/>
<path d="M39.6252 34.0305C39.616 33.5061 39.9575 33.128 40.4331 33.125C40.8721 33.125 41.238 33.4817 41.2471 33.9238C41.2563 34.3933 40.8538 34.8323 40.4118 34.8323C39.9544 34.8354 39.6313 34.5061 39.6252 34.0305Z" fill="#28343A"/>
<path d="M16.0551 38.0039C16.4941 38.0009 16.8599 38.3545 16.8721 38.7997C16.8843 39.2722 16.4849 39.7082 16.0398 39.7112C15.5794 39.7143 15.2563 39.3881 15.2502 38.9125C15.241 38.3881 15.5794 38.007 16.0551 38.0039Z" fill="#28343A"/>
<path d="M33.1251 38.8696C33.1342 38.3513 33.494 37.9824 33.9727 38.0007C34.4117 38.0189 34.7592 38.3939 34.747 38.836C34.7348 39.3116 34.3202 39.7293 33.8751 39.708C33.4117 39.6866 33.119 39.3543 33.1251 38.8696Z" fill="#28343A"/>
<path d="M20.1252 42.1159C20.1343 41.5976 20.4971 41.2287 20.9758 41.2531C21.4148 41.2744 21.7593 41.6494 21.7471 42.0915C21.7349 42.5458 21.3477 42.9543 20.924 42.9604C20.4423 42.9665 20.116 42.6189 20.1252 42.1159Z" fill="#28343A"/>
<path d="M29.0822 41.2523C29.5212 41.2645 29.8749 41.6303 29.8718 42.0724C29.8688 42.548 29.4542 42.9718 29.0121 42.9565C28.5304 42.9413 28.2255 42.5907 28.2499 42.0815C28.2712 41.5907 28.6249 41.2401 29.0822 41.2523Z" fill="#28343A"/>
</g>
<defs>
<clipPath id="clip0_1047_217">
<rect width="50" height="50" fill="white"/>
</clipPath>
</defs>
</svg>
