<svg width="35" height="35" viewBox="0 0 35 35" fill="none" xmlns="http://www.w3.org/2000/svg">
<path d="M18.0314 11.9901C18.3899 11.9901 18.6994 11.9879 19.0067 11.9901C19.5893 11.9943 19.8134 12.3038 19.6277 12.8651C19.0301 14.6684 18.4283 16.4718 17.8265 18.2751C17.7945 18.3712 17.7625 18.4693 17.7176 18.6038C18.3835 18.6038 19.0216 18.6038 19.6597 18.6038C20.3597 18.6038 21.0619 18.591 21.7619 18.6102C22.0073 18.6166 22.0969 18.5312 22.1673 18.3136C22.7884 16.4206 23.4201 14.5318 24.0497 12.641C24.2481 12.0477 24.325 11.9901 24.9631 11.9901C27.364 11.9901 29.7628 11.9901 32.1637 11.9901C32.8445 11.9901 33.0515 12.2803 32.8359 12.927C32.2384 14.7197 31.6472 16.5123 31.0368 18.3008C30.9429 18.5761 31.007 18.6145 31.2695 18.6081C31.9588 18.591 32.6481 18.6017 33.3353 18.6038C33.7792 18.6059 34.0247 18.7959 34.0332 19.1416C34.0417 19.4959 33.7835 19.705 33.3247 19.705C24.2993 19.705 15.274 19.705 6.24874 19.705C5.34173 19.705 4.43472 19.7093 3.52771 19.7029C1.66246 19.6901 0.507889 17.8056 1.36368 16.1453C2.2024 14.5148 3.05819 12.895 3.92466 11.2794C4.45179 10.2934 5.29905 9.79404 6.41734 9.78764C8.26551 9.77911 10.1158 9.78551 11.964 9.78551C12.4783 9.78551 12.967 9.89008 13.4259 10.1184C13.7524 10.2806 13.8719 10.5645 13.7503 10.8526C13.6244 11.1535 13.3192 11.2666 12.9692 11.1151C12.5701 10.9401 12.1603 10.8867 11.7292 10.8889C9.9963 10.8953 8.26124 10.8995 6.52832 10.8889C5.74508 10.8846 5.19661 11.2218 4.83807 11.909C4.03136 13.452 3.21399 14.9907 2.40728 16.5315C1.8396 17.6157 2.43929 18.6059 3.66216 18.6059C5.28197 18.6081 6.89966 18.5995 8.51947 18.6123C8.76917 18.6145 8.87374 18.5398 8.95057 18.3029C9.56734 16.4078 10.2012 14.519 10.8286 12.6282C11.0186 12.0562 11.1103 11.9922 11.7186 11.9922C13.2914 11.9922 14.8643 11.9837 16.4372 12.0008C16.7167 12.005 16.8448 11.9026 16.9515 11.6742C17.1115 11.3306 17.2865 10.9956 17.5448 10.7117C18.0826 10.1248 18.7506 9.79618 19.5487 9.78978C21.4673 9.77911 23.3838 9.78551 25.3024 9.78978C25.7804 9.78978 26.2329 9.90715 26.6597 10.1206C26.9841 10.2849 27.1036 10.5666 26.9777 10.8547C26.8539 11.1407 26.5466 11.2709 26.2243 11.1236C25.7826 10.923 25.3237 10.8825 24.8478 10.8846C23.1256 10.8931 21.4033 10.8867 19.6811 10.8867C18.9128 10.8867 18.3814 11.2474 18.0314 11.9901ZM18.375 13.1233C18.3323 13.1084 18.3109 13.0956 18.2917 13.0956C16.2045 13.0934 14.1173 13.0977 12.0301 13.087C11.8167 13.087 11.7933 13.2129 11.7463 13.3538C11.4112 14.3633 11.0762 15.3727 10.7411 16.38C10.4978 17.112 10.2524 17.844 9.99844 18.6017C12.1518 18.6017 14.2625 18.5995 16.371 18.6059C16.5353 18.6059 16.578 18.527 16.6207 18.3904C16.832 17.7373 17.0582 17.0907 17.2737 16.4398C17.6429 15.3343 18.0079 14.2288 18.375 13.1233ZM31.6088 13.1126C31.5469 13.102 31.5149 13.0913 31.4808 13.0913C29.4128 13.0913 27.3469 13.0934 25.2789 13.0849C25.0826 13.0849 25.0314 13.1703 24.9801 13.3303C24.7454 14.0602 24.4978 14.7858 24.2545 15.5136C23.9152 16.5315 23.5759 17.5517 23.2344 18.5782C23.2942 18.5889 23.3262 18.5995 23.3582 18.5995C25.4262 18.5995 27.492 18.5974 29.56 18.6059C29.7542 18.6059 29.8076 18.5227 29.8609 18.3626C30.2173 17.2742 30.5823 16.1901 30.9451 15.1038C31.1649 14.4422 31.3847 13.7806 31.6088 13.1126Z" fill="black"/>
<path d="M16.3924 20.8066C21.2838 20.8066 26.1732 20.8066 31.0646 20.8066C31.6707 20.8066 31.8329 20.971 31.8329 21.5877C31.8329 25.124 31.8329 28.6582 31.8329 32.1944C31.8329 32.7557 31.6558 32.9307 31.0902 32.9307C21.286 32.9307 11.4817 32.9307 1.67742 32.9307C1.24846 32.9307 1.0073 32.76 0.971019 32.4377C0.941141 32.1688 1.12041 31.9063 1.39145 31.8466C1.51309 31.821 1.64327 31.8295 1.76919 31.8295C11.2982 31.8295 20.8271 31.8274 30.3561 31.8359C30.6762 31.8359 30.7402 31.7484 30.7402 31.4432C30.7296 28.3786 30.7296 25.314 30.7424 22.2493C30.7445 21.9527 30.6591 21.9015 30.3817 21.9036C20.8634 21.9121 11.3472 21.91 1.82895 21.91C1.78199 21.91 1.73718 21.91 1.69023 21.91C1.22498 21.9079 0.971019 21.7137 0.968885 21.3594C0.96675 21.0051 1.22071 20.8088 1.68809 20.8088C6.58809 20.8066 11.4902 20.8066 16.3924 20.8066Z" fill="black"/>
<path d="M22.4619 8.68208C20.6436 8.68208 19.1518 7.19245 19.1539 5.37629C19.1539 3.55586 20.6393 2.0705 22.4597 2.06836C24.278 2.06623 25.7655 3.55373 25.7677 5.37202C25.7698 7.19245 24.2802 8.68208 22.4619 8.68208ZM22.4747 3.17172C21.2582 3.16531 20.2594 4.15769 20.2573 5.37202C20.2552 6.57354 21.2347 7.56806 22.432 7.57873C23.6527 7.59153 24.6536 6.61196 24.6664 5.3955C24.675 4.18117 23.6869 3.17812 22.4747 3.17172Z" fill="black"/>
<path d="M9.2387 2.06838C11.0591 2.07478 12.5445 3.56442 12.5402 5.38058C12.536 7.201 11.0485 8.6821 9.22803 8.6821C7.39906 8.6821 5.91156 7.17326 5.9265 5.33576C5.93931 3.54094 7.43961 2.06198 9.2387 2.06838ZM7.02986 5.35283C7.02132 6.57143 8.00303 7.56807 9.21949 7.57875C10.4189 7.58728 11.4219 6.60771 11.4369 5.41472C11.4518 4.19186 10.4744 3.18454 9.26217 3.17387C8.04144 3.16106 7.03839 4.1385 7.02986 5.35283Z" fill="black"/>
<path d="M5.04297 16.3976C5.77498 16.3976 6.50486 16.3976 7.23473 16.3976C7.34998 16.3976 7.46522 16.3933 7.57833 16.3997C7.90486 16.4211 8.12681 16.6452 8.12894 16.9439C8.13107 17.2427 7.91126 17.4924 7.58687 17.4945C6.40668 17.5052 5.22437 17.5095 4.04419 17.4924C3.62162 17.486 3.37833 17.0827 3.57467 16.7113C4.16156 15.5973 4.76553 14.4961 5.37803 13.397C5.53595 13.1131 5.86461 13.0513 6.12284 13.2049C6.37894 13.3564 6.47071 13.6595 6.31705 13.9519C5.94358 14.6604 5.55303 15.3583 5.17315 16.0647C5.11979 16.1586 5.03016 16.2439 5.04297 16.3976Z" fill="black"/>
<path d="M20.4088 17.4974C20.2723 17.4974 20.1335 17.5102 19.997 17.4952C19.696 17.4632 19.489 17.2327 19.4976 16.9425C19.5082 16.6352 19.6811 16.441 19.9778 16.4111C20.2723 16.3812 20.5753 16.3812 20.8698 16.4111C21.1665 16.441 21.3393 16.6394 21.3543 16.9425C21.3692 17.2263 21.1537 17.4675 20.8549 17.4974C20.7076 17.508 20.5561 17.4974 20.4088 17.4974Z" fill="black"/>
<path d="M14.7704 14.194C15.0671 14.209 15.3018 14.4672 15.2933 14.7617C15.2826 15.0584 15.0308 15.2995 14.7342 15.2931C14.4247 15.2867 14.175 15.0157 14.1942 14.7084C14.2156 14.4117 14.4759 14.1791 14.7704 14.194Z" fill="black"/>
<path d="M28.5228 14.7525C28.5186 15.0492 28.2689 15.2946 27.9744 15.2946C27.6628 15.2946 27.4109 15.03 27.4237 14.7205C27.4366 14.4239 27.6926 14.187 27.9893 14.1955C28.2881 14.2062 28.5271 14.4559 28.5228 14.7525Z" fill="black"/>
</svg>
