<svg width="15" height="12" viewBox="0 0 15 12" fill="none" xmlns="http://www.w3.org/2000/svg">
<g clip-path="url(#clip0_1111_1189)">
<path d="M14.7034 5.6655L9.77862 0.477163C9.55534 0.241987 9.19237 0.241987 8.96908 0.477163C8.7458 0.712339 8.7458 1.09465 8.96908 1.32983L12.9172 5.48822H0.687021C0.370991 5.48822 0.114502 5.75837 0.114502 6.09123C0.114502 6.4241 0.370991 6.69425 0.687021 6.69425H12.9172L8.96908 10.8526C8.7458 11.0878 8.7458 11.4701 8.96908 11.7053C9.0813 11.8235 9.22786 11.8814 9.37443 11.8814C9.52099 11.8814 9.66756 11.8223 9.77977 11.7053L14.7046 6.51817C14.9279 6.28179 14.9279 5.90068 14.7034 5.6655Z" fill="white"/>
</g>
<defs>
<clipPath id="clip0_1111_1189">
<rect width="15" height="12" fill="white"/>
</clipPath>
</defs>
</svg>
