<svg width="50" height="50" viewBox="0 0 50 50" fill="none" xmlns="http://www.w3.org/2000/svg">
<path d="M34.7653 18.8109C34.2439 19.3689 33.7805 19.4451 33.3994 19.0884C33.0579 18.7713 33.0579 18.2317 33.3964 17.9115C33.7775 17.5518 34.247 17.628 34.7317 18.1554C34.7317 16.2073 34.7317 14.2957 34.7317 12.3872C34.1829 12.8872 33.7134 12.939 33.3537 12.5396C33.0518 12.2073 33.0762 11.7012 33.4085 11.3993C33.8018 11.0426 34.2683 11.1341 34.7409 11.6615C35.3079 10.1707 36.0579 9.54264 37.247 9.56093C38.4025 9.57923 39.1494 10.2286 39.6707 11.6951C39.8628 11.4207 40.0762 11.1951 40.4238 11.189C40.6585 11.1829 40.8567 11.2652 41.0214 11.4237C41.3445 11.7347 41.3476 12.2408 41.0335 12.564C40.6616 12.9451 40.1829 12.8811 39.6677 12.3628C39.6677 12.8292 39.6677 13.2743 39.6677 13.7225C41.2439 13.4817 41.9512 13.8201 42.7195 15.192C42.814 15.3628 42.9055 15.375 43.0762 15.3475C44.9146 15.0396 46.1403 16.0823 46.1433 17.9451C46.1433 18.1615 46.1433 18.378 46.1433 18.6189C46.6189 18.5213 47.0488 18.4573 47.4909 18.5701C48.6037 18.8506 49.3842 19.7622 49.3872 20.9054C49.3994 24.5122 49.3964 28.1158 49.3842 31.7225C49.3811 32.6707 49.0884 33.5518 48.6403 34.3811C48.4421 34.75 48.2348 35.1158 48.0335 35.4817C48.0823 35.5243 48.1037 35.5609 48.1281 35.5609C49.2653 35.625 49.3964 35.7622 49.3964 36.8933C49.3964 39.8201 49.3964 42.75 49.3964 45.6768C49.3964 45.8292 49.4024 45.9817 49.3933 46.1341C49.3598 46.6158 49.0305 46.942 48.5884 46.9451C48.1464 46.9481 47.8079 46.6219 47.7775 46.1402C47.7592 45.8689 47.7714 45.5975 47.7714 45.3292C47.7714 42.7743 47.7622 40.2164 47.7805 37.6615C47.7835 37.2865 47.6982 37.1859 47.314 37.189C43.2683 37.2042 39.2226 37.2042 35.1768 37.192C34.8384 37.192 34.7622 37.2865 34.7622 37.6128C34.7744 40.3384 34.7683 43.064 34.7683 45.7896C34.7683 45.942 34.7866 46.0975 34.7561 46.2469C34.6707 46.6798 34.3994 46.9481 33.9512 46.9451C33.5031 46.942 33.2348 46.6768 33.1525 46.2408C33.1281 46.1097 33.1403 45.9695 33.1403 45.8353C33.1403 42.7896 33.1403 39.7408 33.1403 36.6951C33.1403 35.8292 33.3903 35.5792 34.2561 35.5792C38.0976 35.5792 41.9421 35.5731 45.7835 35.5853C46.1159 35.5853 46.2744 35.5122 46.4055 35.1768C46.6128 34.6463 46.9146 34.1494 47.189 33.6463C47.5823 32.9359 47.7744 32.1829 47.7714 31.3658C47.7622 28.0152 47.7683 24.6615 47.7683 21.3109C47.7683 21.192 47.7744 21.0731 47.7653 20.9542C47.7287 20.4725 47.4024 20.1433 46.9604 20.1433C46.5183 20.1402 46.1707 20.4695 46.1494 20.9481C46.1281 21.439 46.1494 21.9298 46.1433 22.4207C46.1372 23.0183 45.8293 23.3841 45.3384 23.3902C44.8445 23.3963 44.5214 23.0304 44.5183 22.4359C44.5122 20.9969 44.5153 19.5579 44.5153 18.1189C44.5153 18.0335 44.5183 17.9481 44.5153 17.8658C44.5061 17.2652 44.2073 16.9024 43.7134 16.8963C43.2165 16.8902 42.8964 17.25 42.8903 17.8445C42.8842 19.0122 42.8872 20.1798 42.8872 21.3475C42.8872 21.4664 42.8903 21.5853 42.8872 21.7042C42.8659 22.2225 42.5457 22.5701 42.0884 22.5792C41.6098 22.5884 41.2653 22.2317 41.2653 21.6829C41.2561 19.9573 41.2622 18.2286 41.2622 16.503C41.2622 16.3689 41.2683 16.2317 41.2592 16.0975C41.2287 15.6128 40.9055 15.2804 40.4665 15.2713C40.0061 15.2591 39.6464 15.6006 39.6403 16.1097C39.625 17.1768 39.6342 18.2439 39.6342 19.3079C39.6342 20.0853 39.6403 20.8658 39.6311 21.6433C39.625 22.2073 39.3171 22.5609 38.8415 22.5762C38.3476 22.5914 38.0092 22.2256 38.0092 21.6402C38.0061 18.5426 38.0061 15.4451 38.0061 12.3475C38.0061 12.1951 38.0214 12.0396 37.9909 11.8933C37.9055 11.4817 37.6464 11.2256 37.2226 11.2164C36.7744 11.2042 36.4909 11.4573 36.4025 11.8902C36.3659 12.0701 36.3842 12.2622 36.3842 12.4481C36.3842 16.4939 36.3842 20.5396 36.3842 24.5853C36.3842 24.7042 36.3872 24.8231 36.3842 24.942C36.3628 25.4878 36.0305 25.8445 35.5518 25.8323C35.0915 25.8201 34.7744 25.4786 34.7622 24.9542C34.75 24.5152 34.7592 24.0731 34.7592 23.6341C34.7653 22.0396 34.7653 20.4664 34.7653 18.8109Z" fill="#273339"/>
<path d="M2.02455 35.5245C1.80199 35.1129 1.60992 34.7592 1.4148 34.4086C0.881262 33.4574 0.631262 32.4421 0.634311 31.3507C0.640409 28.0336 0.701384 24.7165 0.606872 21.3995C0.558091 19.6739 1.7837 18.122 3.88431 18.5946C3.88431 18.2836 3.87821 17.9818 3.88431 17.6799C3.91785 16.0976 5.30809 14.994 6.85687 15.3171C7.0337 15.3537 7.17699 15.4269 7.31114 15.183C8.05504 13.8202 8.75626 13.4909 10.3813 13.7196C10.3813 13.2074 10.3813 12.7043 10.3813 12.1982C10.3813 10.8537 11.0124 10.0062 12.2989 9.62202C12.363 9.60373 12.4239 9.57324 12.491 9.54885C11.9422 9.04885 11.8599 8.55799 12.2532 8.17385C12.5886 7.84458 13.1191 7.86897 13.427 8.22263C13.7746 8.62202 13.6739 9.08848 13.1435 9.51836C13.2532 9.64031 13.4087 9.63117 13.5459 9.67385C14.5581 9.99397 15.2441 10.9269 15.2532 12.0062C15.2593 12.4787 15.2532 12.9543 15.2532 13.4269C15.2532 13.8995 15.2532 14.3751 15.2532 14.936C15.4819 14.6891 15.6678 14.4757 15.9636 14.4452C16.2563 14.4178 16.4971 14.5153 16.6861 14.7348C16.9788 15.0793 16.9331 15.5763 16.5855 15.869C16.1983 16.1952 15.7685 16.1129 15.2563 15.558C15.2563 15.7806 15.2563 15.9391 15.2563 16.0946C15.2563 18.9391 15.2563 21.7836 15.2563 24.6251C15.2563 24.7928 15.2685 24.9665 15.241 25.1312C15.1739 25.5367 14.8111 25.8354 14.4148 25.808C13.991 25.7775 13.7288 25.5367 13.6465 25.1251C13.613 24.9452 13.6313 24.7531 13.6313 24.5671C13.6313 20.4696 13.6313 16.3751 13.6313 12.2775C13.6313 12.1434 13.6465 12.0031 13.616 11.872C13.5276 11.4635 13.2685 11.2074 12.8447 11.1982C12.3965 11.1891 12.116 11.4391 12.0246 11.8751C11.991 12.0367 12.0093 12.2135 12.0063 12.3812C12.0063 15.3598 12.0063 18.3385 12.0063 21.3202C12.0063 21.4391 12.0093 21.558 12.0063 21.6769C11.9849 22.2226 11.6496 22.5793 11.1709 22.5641C10.7136 22.5489 10.3874 22.2043 10.3843 21.683C10.3752 20.2104 10.3813 18.7379 10.3813 17.2653C10.3813 16.8934 10.3904 16.5214 10.3782 16.1495C10.363 15.6007 10.0276 15.247 9.54895 15.2592C9.09163 15.2714 8.76846 15.6129 8.75931 16.1373C8.74712 16.7287 8.75626 17.3232 8.75626 17.9147C8.75626 19.1159 8.75931 20.3171 8.75626 21.5214C8.75321 22.1982 8.45138 22.5763 7.92699 22.5671C7.4209 22.558 7.13126 22.1891 7.13126 21.5397C7.12821 20.3385 7.13126 19.1373 7.13126 17.933C7.13126 17.2562 6.82638 16.8751 6.30809 16.8842C5.7898 16.8934 5.50931 17.2653 5.50931 17.9574C5.50931 19.4299 5.51236 20.9025 5.50931 22.3751C5.50931 23.0092 5.19529 23.3842 4.68919 23.3781C4.18309 23.372 3.88736 23.0031 3.88431 22.3598C3.88126 21.9025 3.89346 21.4452 3.88126 20.9879C3.86602 20.4757 3.5276 20.1312 3.06724 20.1342C2.60687 20.1373 2.26541 20.4787 2.26541 20.997C2.26236 24.5824 2.25931 28.1708 2.27455 31.7592C2.2776 32.4299 2.51541 33.0488 2.84163 33.6342C3.07943 34.061 3.38431 34.4726 3.52151 34.933C3.69529 35.5062 4.02151 35.5824 4.55199 35.5793C8.29285 35.558 12.0337 35.5671 15.7746 35.5671C16.6374 35.5671 16.8874 35.8171 16.8874 36.686C16.8874 39.7165 16.8874 42.747 16.8874 45.7775C16.8874 45.8964 16.8935 46.0153 16.8843 46.1342C16.8477 46.6159 16.5185 46.9421 16.0764 46.9421C15.6343 46.9421 15.2959 46.6159 15.2685 46.1342C15.2502 45.7958 15.2624 45.4574 15.2624 45.119C15.2624 42.6312 15.2532 40.1434 15.2715 37.6525C15.2746 37.2714 15.177 37.183 14.7989 37.183C10.7715 37.1982 6.74102 37.1982 2.71358 37.183C2.31724 37.1799 2.25016 37.2988 2.25321 37.6617C2.26846 40.369 2.26236 43.0793 2.26236 45.7867C2.26236 45.9391 2.28065 46.0946 2.25016 46.244C2.16175 46.6769 1.89041 46.9421 1.44224 46.936C0.994067 46.9299 0.725774 46.6647 0.649555 46.2257C0.619067 46.0458 0.63736 45.8537 0.63736 45.6677C0.63736 42.7897 0.63736 39.9117 0.63736 37.0336C0.63736 35.7257 0.698335 35.6556 2.02455 35.5245Z" fill="#273339"/>
<path d="M25.0337 3.06326C32.7532 3.06326 40.4727 3.06326 48.1922 3.06326C49.1678 3.06326 49.3904 3.28582 49.3904 4.24924C49.3904 7.82241 49.3904 11.3925 49.3904 14.9657C49.3904 15.0846 49.3965 15.2035 49.3843 15.3194C49.3294 15.7584 48.9788 16.0816 48.5611 16.0572C48.1129 16.0297 47.8477 15.7736 47.7745 15.3346C47.7471 15.17 47.7654 14.9962 47.7654 14.8285C47.7654 11.612 47.7593 8.39558 47.7745 5.17912C47.7776 4.79497 47.6953 4.67607 47.2867 4.67607C32.4239 4.68826 17.5611 4.68826 2.69525 4.67912C2.33854 4.67912 2.25013 4.76753 2.25317 5.12119C2.26842 8.37119 2.26232 11.6212 2.26232 14.8712C2.26232 15.0236 2.27756 15.1791 2.25317 15.3285C2.18305 15.7675 1.92086 16.0267 1.47269 16.0572C1.055 16.0846 0.68915 15.7645 0.646467 15.3285C0.619028 15.0602 0.637321 14.7858 0.637321 14.5175C0.637321 11.0633 0.637321 7.61204 0.637321 4.15777C0.637321 3.32546 0.896467 3.06631 1.72574 3.06631C9.49403 3.06021 17.2654 3.06326 25.0337 3.06326Z" fill="#273339"/>
<path d="M18.4911 19.7461C19.1344 19.7827 19.732 19.9717 20.3082 20.2126C20.7533 20.3985 20.8539 20.7491 20.7168 21.3833C20.4546 22.5876 20.2046 23.7949 19.9271 24.9961C19.4759 26.9351 19.2046 28.9199 18.4088 30.7674C17.9789 31.7644 17.4911 32.7278 16.7625 33.5449C16.2716 34.0998 15.6985 34.5388 14.9515 34.6912C14.7716 34.7278 14.5796 34.7583 14.3997 34.74C13.9546 34.6943 13.6832 34.4321 13.6497 33.9869C13.6192 33.5601 13.8479 33.2065 14.2503 33.1668C15.107 33.0845 15.5552 32.5144 15.9698 31.8894C16.7381 30.74 17.2564 29.4687 17.5735 28.1333C18.0704 26.0479 18.4789 23.9382 18.9515 21.8467C19.0247 21.5205 18.9515 21.426 18.6497 21.3985C18.1009 21.3467 17.7046 21.5723 17.4149 22.0235C17.0674 22.5662 16.6771 22.7095 16.2442 22.4595C15.8021 22.2065 15.7107 21.7126 16.0277 21.179C16.5796 20.2461 17.4271 19.801 18.4911 19.7461Z" fill="#273339"/>
<path d="M31.61 19.752C32.6496 19.8129 33.4972 20.2855 34.0399 21.252C34.3112 21.7367 34.2075 22.2093 33.8021 22.4532C33.3844 22.7062 32.9575 22.5721 32.6405 22.0904C32.2411 21.4867 31.7929 21.2763 31.2502 21.4227C31.11 21.4623 30.985 21.4806 31.0368 21.6757C31.7716 24.5172 32.046 27.4715 33.171 30.2154C33.4789 30.9684 33.8569 31.6849 34.3722 32.3221C34.7197 32.7489 35.1039 33.0965 35.7075 33.1452C36.1435 33.1818 36.424 33.5995 36.3844 34.0141C36.3417 34.4318 36.0033 34.7428 35.5521 34.7428C34.86 34.7428 34.2716 34.4593 33.7594 34.0172C32.7868 33.1788 32.2075 32.0721 31.6923 30.9257C30.9057 29.1818 30.6252 27.3038 30.2045 25.4623C29.8966 24.1117 29.613 22.755 29.3173 21.4044C29.1466 20.6239 29.3142 20.3282 30.0795 20.0782C30.5582 19.9227 31.0399 19.7581 31.61 19.752Z" fill="#273339"/>
<path d="M25.8812 17.6889C27.4177 17.6889 28.9574 17.6858 30.494 17.6889C31.1342 17.6889 31.5031 17.9846 31.5123 18.4937C31.5184 19.0029 31.1494 19.3139 30.5123 19.3139C27.3842 19.3169 24.2592 19.3169 21.1312 19.3139C20.5031 19.3139 20.1312 18.9937 20.1403 18.4846C20.1494 17.9937 20.5092 17.6919 21.1129 17.6919C22.7013 17.6858 24.2897 17.6889 25.8812 17.6889Z" fill="#273339"/>
<path d="M7.13722 8.7302C7.14637 9.16618 6.78966 9.54423 6.35369 9.56252C5.89942 9.58081 5.50918 9.19971 5.51222 8.7424C5.51527 8.30032 5.87808 7.94057 6.3171 7.93752C6.75613 7.93447 7.12503 8.29118 7.13722 8.7302Z" fill="#303B41"/>
<path d="M10.3842 8.74855C10.3842 9.18757 10.0245 9.55343 9.58545 9.56257C9.14643 9.57172 8.77448 9.21501 8.75923 8.77599C8.74399 8.31562 9.12204 7.93147 9.58241 7.93757C10.0245 7.94367 10.3842 8.30647 10.3842 8.74855Z" fill="#303B41"/>
<path d="M16.8872 8.77287C16.875 9.21189 16.5031 9.5686 16.064 9.55946C15.625 9.55336 15.2653 9.1875 15.2622 8.74848C15.2622 8.29116 15.6555 7.91311 16.1098 7.93446C16.5488 7.9558 16.8994 8.33385 16.8872 8.77287Z" fill="#303B41"/>
<path d="M19.287 9.56006C18.8479 9.53872 18.5004 9.16067 18.5156 8.72165C18.5309 8.26128 18.9364 7.90152 19.3906 7.93811C19.8296 7.97469 20.165 8.36189 20.1376 8.79787C20.1071 9.23689 19.7199 9.58445 19.287 9.56006Z" fill="#303B41"/>
<path d="M23.3872 8.7642C23.3781 9.20018 23.0061 9.56298 22.5732 9.56298C22.1159 9.55993 21.7409 9.16664 21.7653 8.70932C21.7866 8.2703 22.1647 7.92274 22.6037 7.93798C23.0427 7.95323 23.3964 8.32518 23.3872 8.7642Z" fill="#303B41"/>
<path d="M25.8415 7.93767C26.2805 7.94682 26.6403 8.31267 26.6372 8.7517C26.6342 9.19072 26.2714 9.55658 25.8354 9.55963C25.3781 9.56572 24.997 9.17548 25.0153 8.71816C25.0305 8.27914 25.4025 7.92853 25.8415 7.93767Z" fill="#303B41"/>
<path d="M29.8876 8.72221C29.9028 9.15819 29.5522 9.53928 29.1162 9.56062C28.6589 9.58501 28.2656 9.20697 28.2656 8.74965C28.2656 8.31062 28.6223 7.94477 29.0644 7.93562C29.5004 7.92953 29.8754 8.28319 29.8876 8.72221Z" fill="#303B41"/>
<path d="M33.1375 8.72825C33.1497 9.16422 32.7961 9.54227 32.3601 9.56057C31.9241 9.57886 31.54 9.2313 31.5156 8.79227C31.4881 8.33801 31.8631 7.93862 32.3205 7.93557C32.7564 7.93252 33.1253 8.28922 33.1375 8.72825Z" fill="#303B41"/>
<path d="M36.3876 8.73128C36.3967 9.16725 36.0431 9.5453 35.6071 9.56055C35.1498 9.57884 34.7626 9.20079 34.7656 8.74042C34.7687 8.3014 35.1315 7.9386 35.5705 7.93555C36.0126 7.93555 36.3784 8.29225 36.3876 8.73128Z" fill="#303B41"/>
<path d="M39.6406 8.73323C39.6497 9.16921 39.29 9.54726 38.857 9.5625C38.3997 9.57774 38.0125 9.19665 38.0186 8.73933C38.0247 8.29726 38.3875 7.94055 38.8266 7.9375C39.2625 7.9375 39.6314 8.29421 39.6406 8.73323Z" fill="#303B41"/>
<path d="M42.8906 8.74349C42.8936 9.17947 42.5339 9.55142 42.0949 9.56056C41.6558 9.56971 41.2808 9.21605 41.2656 8.77703C41.2503 8.31666 41.6253 7.93252 42.0857 7.93556C42.5247 7.94166 42.8875 8.30447 42.8906 8.74349Z" fill="#303B41"/>
<path d="M45.3324 7.93752C45.7714 7.94057 46.1373 8.30032 46.1403 8.73935C46.1464 9.19667 45.7562 9.57776 45.2988 9.56252C44.8598 9.54728 44.5062 9.17228 44.5153 8.73325C44.5245 8.29423 44.8903 7.93447 45.3324 7.93752Z" fill="#303B41"/>
<path d="M5.50923 11.9985C5.50923 12.4376 5.14947 12.8065 4.71045 12.8126C4.27143 12.8187 3.89947 12.465 3.88423 12.026C3.86899 11.5687 4.25008 11.1815 4.7074 11.1876C5.14643 11.1937 5.50923 11.5595 5.50923 11.9985Z" fill="#303B41"/>
<path d="M8.75944 11.9933C8.76249 12.4292 8.40578 12.8012 7.96676 12.8134C7.50639 12.8256 7.12529 12.4445 7.13444 11.9841C7.14358 11.5451 7.51249 11.1884 7.95151 11.1914C8.39663 11.1914 8.75639 11.5512 8.75944 11.9933Z" fill="#303B41"/>
<path d="M18.5122 12.0151C18.5031 12.4541 18.1372 12.8138 17.6982 12.8138C17.2409 12.8138 16.8659 12.4175 16.8903 11.9632C16.9116 11.5242 17.2897 11.1766 17.7287 11.1919C18.1677 11.2041 18.5214 11.576 18.5122 12.0151Z" fill="#303B41"/>
<path d="M25.0124 12.0175C25.0002 12.4565 24.6313 12.8132 24.1923 12.8101C23.7319 12.804 23.363 12.4108 23.3874 11.9534C23.4118 11.5144 23.7929 11.1699 24.2319 11.1882C24.674 11.2065 25.0246 11.5784 25.0124 12.0175Z" fill="#303B41"/>
<path d="M28.2622 12.0018C28.2591 12.4378 27.8933 12.8067 27.4573 12.8098C27 12.8159 26.6219 12.4256 26.6372 11.9683C26.6524 11.5293 27.0244 11.1756 27.4664 11.1878C27.9055 11.197 28.2652 11.5659 28.2622 12.0018Z" fill="#303B41"/>
<path d="M31.5122 11.9893C31.5183 12.4284 31.1586 12.7973 30.7226 12.8095C30.2836 12.8217 29.9086 12.468 29.8903 12.032C29.872 11.5717 30.247 11.1845 30.7043 11.1875C31.1433 11.1875 31.5092 11.5503 31.5122 11.9893Z" fill="#303B41"/>
<path d="M44.5154 12.0079C44.5093 12.4439 44.1434 12.8098 43.7075 12.8128C43.2501 12.8159 42.8721 12.4226 42.8934 11.9652C42.9117 11.5262 43.2867 11.1756 43.7258 11.1878C44.1617 11.2 44.5215 11.5689 44.5154 12.0079Z" fill="#303B41"/>
<path d="M20.1375 15.2363C20.1436 15.6753 19.7899 16.0473 19.3509 16.0625C18.9149 16.0777 18.5338 15.7271 18.5155 15.2881C18.4942 14.8308 18.8661 14.4405 19.3265 14.4375C19.7625 14.4375 20.1283 14.7973 20.1375 15.2363Z" fill="#303B41"/>
<path d="M23.3872 15.2372C23.3933 15.6762 23.0397 16.0481 22.6007 16.0634C22.1433 16.0786 21.7561 15.6975 21.7653 15.2402C21.7714 14.8012 22.1372 14.4414 22.5763 14.4414C23.0153 14.4384 23.3811 14.7981 23.3872 15.2372Z" fill="#303B41"/>
<path d="M26.6376 15.2363C26.6467 15.6753 26.29 16.0473 25.851 16.0625C25.415 16.0747 25.0339 15.7241 25.0126 15.2881C24.9912 14.8308 25.3662 14.4375 25.8236 14.4375C26.2626 14.4375 26.6315 14.7973 26.6376 15.2363Z" fill="#303B41"/>
<path d="M29.0675 14.4376C29.5065 14.4315 29.8754 14.7851 29.8876 15.2272C29.8998 15.6632 29.5461 16.0412 29.1102 16.0626C28.6528 16.0839 28.2626 15.7089 28.2656 15.2486C28.2656 14.8065 28.6284 14.4437 29.0675 14.4376Z" fill="#303B41"/>
<path d="M33.1404 15.2579C33.1343 15.6939 32.7684 16.0598 32.3325 16.0628C31.8751 16.0659 31.4971 15.6726 31.5184 15.2152C31.5367 14.7762 31.9117 14.4256 32.3508 14.4378C32.7867 14.45 33.1434 14.8189 33.1404 15.2579Z" fill="#303B41"/>
<path d="M18.5122 18.4872C18.5183 18.9231 18.1616 19.2981 17.7257 19.3134C17.2653 19.3286 16.8812 18.9475 16.8903 18.4902C16.8964 18.0512 17.2622 17.6914 17.7013 17.6914C18.1403 17.6884 18.5031 18.0451 18.5122 18.4872Z" fill="#303B41"/>
<path d="M20.9726 12.8125C20.5336 12.8217 20.1586 12.4711 20.1403 12.032C20.122 11.5747 20.5 11.1845 20.9574 11.1875C21.3964 11.1906 21.7592 11.5534 21.7653 11.9924C21.7683 12.4284 21.4086 12.8003 20.9726 12.8125Z" fill="#303B41"/>
</svg>
