<svg width="50" height="50" viewBox="0 0 50 50" fill="none" xmlns="http://www.w3.org/2000/svg">
<g clip-path="url(#clip0_1047_304)">
<path d="M24.9481 49.3346C18.1737 49.3346 11.3963 49.3377 4.62191 49.3316C2.44203 49.3285 0.618863 47.4718 0.646302 45.3133C0.649351 45.1029 0.695082 44.9291 0.804838 44.7431C2.38716 42.1181 3.96033 39.487 5.5335 36.8559C5.74081 36.5053 6.00911 36.3438 6.43594 36.3438C18.7713 36.3529 31.1067 36.3529 43.442 36.3438C43.9481 36.3438 44.2469 36.5419 44.4969 36.9627C46.0487 39.5694 47.6189 42.1639 49.1768 44.7645C49.4969 45.295 49.3262 45.8559 49.1829 46.3834C48.7073 48.1334 47.1067 49.3316 45.2774 49.3316C38.5 49.3377 31.7256 49.3346 24.9481 49.3346ZM2.49081 46.0907C2.75606 47.1029 3.70118 47.7127 4.96033 47.7127C15.0487 47.7127 25.1372 47.7127 35.2256 47.7127C38.5213 47.7127 41.817 47.7157 45.1128 47.7096C46.2896 47.7066 47.2256 47.0663 47.4756 46.0877C45.4603 46.0877 43.4542 46.0877 41.4451 46.0877C37.8963 46.0877 34.3475 46.0907 30.7987 46.0877C30.0914 46.0877 29.6615 45.5694 29.8902 44.9901C30.064 44.548 30.4329 44.4596 30.878 44.4596C36.067 44.4688 41.253 44.4657 46.442 44.4657C46.6189 44.4657 46.7957 44.4657 46.9756 44.4657C46.9695 44.3742 46.9786 44.3377 46.9664 44.3133C45.7469 42.2736 44.5213 40.2401 43.3109 38.1974C43.1768 37.9718 43.0061 37.9748 42.8018 37.9748C30.9207 37.9748 19.0426 37.9779 7.16155 37.9688C6.8902 37.9688 6.74691 38.0541 6.60667 38.2889C5.44508 40.2462 4.26825 42.1913 3.10057 44.1456C3.04874 44.2309 2.91459 44.3163 3.03045 44.4657C6.07923 44.4657 9.13716 44.4657 12.1951 44.4657C14.5274 44.4657 16.8597 44.4627 19.192 44.4688C19.8506 44.4688 20.2622 44.9291 20.0975 45.4931C19.9573 45.9718 19.5914 46.0968 19.1128 46.0968C13.7713 46.0877 8.43289 46.0907 3.09142 46.0907C2.8963 46.0907 2.69813 46.0907 2.49081 46.0907Z" fill="#263238"/>
<path d="M35.5608 0.6641C38.756 0.6641 41.948 0.658003 45.1432 0.667149C47.2468 0.673247 48.8596 1.99642 49.2743 4.0452C49.323 4.2891 49.323 4.54825 49.323 4.8013C49.3261 9.58483 49.2773 14.3653 49.3474 19.1489C49.3779 21.1001 47.9358 23.4507 45.0852 23.4354C42.7377 23.4232 40.3871 23.4385 38.0395 23.4263C37.7133 23.4232 37.5243 23.5239 37.3444 23.7982C36.4968 25.097 35.6279 26.3836 34.7651 27.6732C34.6889 27.7861 34.6188 27.9019 34.5304 28.0025C34.2255 28.3318 33.8627 28.3836 33.4785 28.1641C33.1096 27.9507 32.948 27.4781 33.1858 27.1123C34.2895 25.4172 35.4145 23.7342 36.5486 22.0604C36.7438 21.7708 37.0913 21.7617 37.4236 21.7647C39.9907 21.7708 42.5608 21.7708 45.1279 21.7678C46.6736 21.7647 47.695 20.7525 47.698 19.2007C47.7041 14.4354 47.698 9.6702 47.7041 4.90495C47.7072 3.56654 46.7712 2.32569 45.0121 2.33483C39.4877 2.36837 33.9602 2.34703 28.4358 2.34703C27.6066 2.34703 26.7804 2.34093 25.9511 2.35008C24.3627 2.36837 23.3657 3.36837 23.3657 4.95373C23.3627 9.68544 23.3627 14.4171 23.3657 19.1489C23.3657 20.7647 24.3749 21.7678 25.9846 21.7678C27.9968 21.7708 30.006 21.7678 32.0182 21.7678C32.2377 21.7678 32.4572 21.7647 32.6584 21.8745C32.9907 22.0574 33.1401 22.3409 33.0944 22.7129C33.0517 23.0665 32.8474 23.2922 32.5029 23.3897C32.4054 23.4172 32.3047 23.4385 32.2041 23.4354C29.9084 23.4141 27.6066 23.53 25.3139 23.3806C23.3932 23.2556 21.7499 21.472 21.7438 19.5543C21.7316 14.5696 21.7316 9.58483 21.7438 4.60008C21.7499 2.43849 23.6066 0.682393 25.8779 0.676296C29.1066 0.658003 32.3322 0.6641 35.5608 0.6641Z" fill="#2A363C"/>
<path d="M5.51526 21.6426C5.51526 17.6548 5.51526 13.6639 5.51526 9.67611C5.51526 8.15782 6.5305 7.14868 8.05489 7.14868C11.7714 7.14868 15.4909 7.15172 19.2073 7.14258C19.6311 7.14258 19.9421 7.29807 20.0793 7.68831C20.2043 8.05111 20.1037 8.38953 19.7805 8.63343C19.5762 8.78892 19.3384 8.77063 19.1006 8.77063C15.5 8.77063 11.9025 8.77063 8.30184 8.77063C7.3933 8.77063 7.13416 9.02977 7.13416 9.94746C7.13416 17.8743 7.13416 25.8011 7.13416 33.7279C7.13416 34.3377 6.8994 34.6731 6.44208 34.731C5.88721 34.8011 5.51526 34.4383 5.51526 33.8133C5.51221 31.5481 5.51221 29.2828 5.51221 27.0206C5.51526 25.2249 5.51526 23.4353 5.51526 21.6426Z" fill="#263238"/>
<path d="M35.5275 13.6615C36.2379 13.6615 36.9482 13.6523 37.6556 13.6645C38.5062 13.6798 38.8507 14.2133 38.4909 14.9786C37.9056 16.2225 36.9117 16.8993 35.5306 16.8993C34.1495 16.8993 33.1556 16.2286 32.5702 14.9816C32.2104 14.2164 32.5519 13.6767 33.3964 13.6645C34.1098 13.6523 34.8171 13.6615 35.5275 13.6615Z" fill="#2A363C"/>
<path d="M42.8322 29.8842C42.8322 28.5701 42.8291 27.2531 42.8322 25.939C42.8322 25.3354 43.1218 25.0031 43.637 25C44.1523 24.997 44.4511 25.3323 44.4541 25.9299C44.4572 28.561 44.4572 31.1921 44.4541 33.8232C44.4541 34.4116 44.1401 34.747 43.6248 34.7378C43.134 34.7287 42.8352 34.3964 42.8352 33.8354C42.8291 32.5153 42.8322 31.1982 42.8322 29.8842Z" fill="#263238"/>
<path d="M29.8535 12.0485C29.8535 12.3168 29.8627 12.5882 29.8535 12.8565C29.8383 13.3443 29.4877 13.6918 29.0273 13.6857C28.5883 13.6796 28.2438 13.3412 28.2316 12.8808C28.2194 12.326 28.2194 11.7711 28.2316 11.2162C28.2438 10.7589 28.5944 10.4144 29.0273 10.4083C29.4785 10.4022 29.8322 10.7558 29.8505 11.2436C29.8596 11.5089 29.8535 11.7802 29.8535 12.0485Z" fill="#2A363C"/>
<path d="M42.8323 12.0507C42.8323 12.3373 42.8445 12.6239 42.8293 12.9074C42.8079 13.3586 42.4451 13.691 42.0031 13.6818C41.5793 13.6727 41.2256 13.3556 41.2134 12.9257C41.1951 12.3373 41.1951 11.7489 41.2134 11.1605C41.2287 10.7397 41.5976 10.4105 42.0092 10.4044C42.439 10.3983 42.8049 10.7397 42.8262 11.194C42.8445 11.4775 42.8323 11.7641 42.8323 12.0507Z" fill="#2A363C"/>
<path d="M7.13721 40.3257C7.13721 39.8013 7.47562 39.4202 7.94208 39.4141C8.40855 39.408 8.75916 39.7922 8.76221 40.3105C8.76526 40.8867 8.45123 41.2343 7.93294 41.2251C7.43599 41.216 7.13721 40.8745 7.13721 40.3257Z" fill="#2A363C"/>
<path d="M10.381 40.2888C10.3901 39.7766 10.759 39.3925 11.2224 39.4108C11.7041 39.4291 12.0243 39.8315 12.006 40.3955C11.9907 40.8986 11.6706 41.2248 11.1919 41.2248C10.6737 41.2218 10.3688 40.8681 10.381 40.2888Z" fill="#2A363C"/>
<path d="M15.2499 40.3553C15.2439 40.8919 14.9207 41.2303 14.4237 41.2212C13.9115 41.2121 13.6128 40.8584 13.628 40.273C13.6402 39.7852 13.9847 39.4163 14.4298 39.4102C14.9146 39.4041 15.2591 39.8005 15.2499 40.3553Z" fill="#2A363C"/>
<path d="M18.497 40.3281C18.497 40.8769 18.1921 41.2153 17.6951 41.2214C17.1799 41.2275 16.8659 40.8769 16.8689 40.3007C16.875 39.7824 17.2287 39.3982 17.6951 39.4104C18.1616 39.4226 18.497 39.8037 18.497 40.3281Z" fill="#2A363C"/>
<path d="M20.1158 40.3045C20.1219 39.7862 20.4756 39.4051 20.942 39.4142C21.4268 39.4234 21.753 39.8228 21.7408 40.3807C21.7286 40.8898 21.4176 41.2191 20.939 41.2222C20.4237 41.2283 20.1097 40.8776 20.1158 40.3045Z" fill="#2A363C"/>
<path d="M24.9847 40.3776C24.9725 40.908 24.6402 41.2404 24.1372 41.2251C23.6341 41.2099 23.3384 40.844 23.3597 40.2587C23.378 39.7769 23.7347 39.408 24.1798 39.4141C24.6676 39.4202 25 39.8196 24.9847 40.3776Z" fill="#2A363C"/>
<path d="M28.2317 40.3495C28.2256 40.8891 27.9085 41.2275 27.4116 41.2214C26.9146 41.2153 26.6067 40.8769 26.6067 40.3312C26.6067 39.8037 26.936 39.4226 27.4024 39.4104C27.8841 39.3982 28.2347 39.7976 28.2317 40.3495Z" fill="#2A363C"/>
<path d="M31.4757 40.3344C31.4726 40.8801 31.1677 41.2185 30.6708 41.2216C30.1525 41.2246 29.8446 40.8771 29.8537 40.2947C29.8598 39.7795 30.2196 39.3954 30.686 39.4106C31.1525 39.4258 31.4787 39.8069 31.4757 40.3344Z" fill="#2A363C"/>
<path d="M34.7225 40.3705C34.7103 40.9041 34.381 41.2364 33.881 41.2242C33.378 41.209 33.0792 40.8461 33.0975 40.2608C33.1127 39.7791 33.4694 39.4071 33.9145 39.4102C34.3963 39.4163 34.7347 39.8157 34.7225 40.3705Z" fill="#2A363C"/>
<path d="M37.9664 40.3653C37.9572 40.8988 37.631 41.2342 37.131 41.222C36.6219 41.2098 36.3261 40.8501 36.3414 40.2677C36.3566 39.783 36.7042 39.4141 37.1524 39.4141C37.6371 39.411 37.9755 39.8074 37.9664 40.3653Z" fill="#2A363C"/>
<path d="M41.2104 40.3523C41.2043 40.8919 40.8842 41.2273 40.3872 41.2212C39.872 41.2151 39.5732 40.8614 39.5884 40.2761C39.6006 39.7852 39.9391 39.4194 40.3872 39.4102C40.8689 39.4041 41.2195 39.8005 41.2104 40.3523Z" fill="#2A363C"/>
<path d="M10.384 42.136C10.381 42.6543 10.0304 43.0385 9.56391 43.0324C9.09745 43.0263 8.75903 42.6421 8.75903 42.1208C8.75903 41.5537 9.08525 41.2031 9.60355 41.2214C10.0914 41.2366 10.3871 41.5842 10.384 42.136Z" fill="#2A363C"/>
<path d="M13.6281 42.1336C13.625 42.655 13.2775 43.0361 12.8141 43.033C12.3476 43.03 12.0061 42.6489 12.0061 42.1275C12.0031 41.5574 12.3293 41.2098 12.8476 41.2251C13.3354 41.2373 13.6311 41.5787 13.6281 42.1336Z" fill="#2A363C"/>
<path d="M16.8749 42.1285C16.8719 42.6498 16.5304 43.0339 16.064 43.0339C15.5823 43.037 15.2408 42.6376 15.2499 42.0797C15.2591 41.5461 15.5853 41.2108 16.0853 41.223C16.5762 41.2352 16.878 41.5797 16.8749 42.1285Z" fill="#2A363C"/>
<path d="M18.4938 42.0876C18.503 41.551 18.8231 41.2156 19.3231 41.2248C19.8353 41.2339 20.131 41.5876 20.1158 42.176C20.1036 42.6638 19.7591 43.0327 19.3109 43.0358C18.8292 43.0388 18.4847 42.6394 18.4938 42.0876Z" fill="#2A363C"/>
<path d="M23.3627 42.1328C23.3597 42.6541 23.0121 43.0352 22.5457 43.0322C22.0609 43.0291 21.7286 42.6328 21.7377 42.0718C21.7499 41.5383 22.0792 41.206 22.5792 41.2212C23.07 41.2365 23.3688 41.584 23.3627 42.1328Z" fill="#2A363C"/>
<path d="M26.6096 42.1465C26.6035 42.6618 26.2438 43.0459 25.7804 43.0337C25.3139 43.0215 24.9816 42.6374 24.9846 42.113C24.9846 41.5672 25.2926 41.2258 25.7895 41.2227C26.3048 41.2166 26.6157 41.5672 26.6096 42.1465Z" fill="#2A363C"/>
<path d="M29.8535 42.1465C29.8474 42.6647 29.4907 43.0458 29.0242 43.0336C28.5578 43.0215 28.2285 42.6404 28.2285 42.1129C28.2285 41.5641 28.5364 41.2257 29.0334 41.2227C29.5517 41.2196 29.8596 41.5672 29.8535 42.1465Z" fill="#2A363C"/>
<path d="M31.4757 42.0757C31.4848 41.5422 31.8141 41.2099 32.3171 41.2251C32.808 41.2404 33.1068 41.5879 33.1007 42.1367C33.0946 42.658 32.7501 43.0391 32.2836 43.0361C31.7988 43.033 31.4635 42.6306 31.4757 42.0757Z" fill="#2A363C"/>
<path d="M34.7196 42.0946C34.7257 41.555 35.0427 41.2196 35.5397 41.2227C36.0549 41.2257 36.3537 41.5794 36.3415 42.1647C36.3293 42.6556 35.994 43.0245 35.5458 43.0336C35.0641 43.0458 34.7135 42.6465 34.7196 42.0946Z" fill="#2A363C"/>
<path d="M37.9634 42.1038C37.9664 41.5611 38.2805 41.2227 38.7774 41.2227C39.2927 41.2227 39.5975 41.5763 39.5884 42.1556C39.5793 42.6678 39.2104 43.0519 38.75 43.0336C38.2805 43.0153 37.9604 42.6342 37.9634 42.1038Z" fill="#2A363C"/>
</g>
<defs>
<clipPath id="clip0_1047_304">
<rect width="50" height="50" fill="white"/>
</clipPath>
</defs>
</svg>
