<svg width="35" height="35" viewBox="0 0 35 35" fill="none" xmlns="http://www.w3.org/2000/svg">
<path d="M17.4787 9.20467C12.4421 9.20467 7.40551 9.20681 2.36893 9.19827C2.09362 9.19827 2.00612 9.24522 2.00612 9.54614C2.01679 16.1833 2.01466 22.8227 2.01466 29.4599C2.01466 30.0638 2.18325 30.2281 2.80002 30.2281C6.69484 30.2281 10.5918 30.2281 14.4866 30.2281C14.5912 30.2281 14.6958 30.2175 14.7982 30.2346C15.097 30.2836 15.272 30.4629 15.289 30.7681C15.3061 31.0541 15.0884 31.2931 14.7875 31.3294C14.6744 31.3422 14.557 31.3358 14.4418 31.3358C10.547 31.3358 6.65002 31.3358 2.75521 31.3358C1.58143 31.3358 0.907035 30.6656 0.907035 29.5004C0.907035 21.4803 0.917706 13.458 0.89423 5.4379C0.892096 4.44339 1.72014 3.65803 2.66557 3.66016C12.5765 3.6815 22.4897 3.67297 32.4006 3.67297C33.4037 3.67297 34.1058 4.37723 34.1058 5.38669C34.1058 13.4303 34.1058 21.4739 34.1058 29.5196C34.1058 30.6592 33.4208 31.3379 32.2726 31.3379C31.2695 31.3379 30.2665 31.34 29.2634 31.3358C28.8259 31.3358 28.5741 31.1309 28.5741 30.7852C28.5741 30.4373 28.8217 30.2324 29.2613 30.2303C30.275 30.2281 31.2887 30.2303 32.3046 30.2281C32.8018 30.2281 32.9982 30.0339 32.9982 29.5431C33.0003 22.8589 32.9961 16.1748 33.0089 9.49065C33.0089 9.1812 32.8637 9.20467 32.6589 9.20467C27.5967 9.20467 22.5387 9.20467 17.4787 9.20467ZM17.4894 8.09919C22.5494 8.09919 27.6095 8.09705 32.6695 8.10559C32.9448 8.10559 33.011 8.03303 33.0046 7.76626C32.9854 7.05132 32.9982 6.33638 32.9982 5.62358C32.9982 4.95772 32.8253 4.78059 32.168 4.78059C29.0436 4.78059 25.9214 4.78059 22.797 4.78059C16.1342 4.78059 9.47136 4.78059 2.80856 4.78059C2.20033 4.78059 2.01252 4.97053 2.01252 5.58943C2.01252 6.30437 2.0296 7.01931 2.00612 7.73211C1.99545 8.03303 2.07014 8.10772 2.37746 8.10772C7.41405 8.09492 12.4528 8.09919 17.4894 8.09919Z" fill="black"/>
<path d="M6.44085 25.7862C6.44085 25.4404 6.44085 25.0947 6.44085 24.749C6.44085 24.4118 6.60945 24.209 6.93598 24.1429C7.51006 24.0255 8.08415 23.9038 8.6625 23.8014C8.83537 23.7694 8.92073 23.7054 8.95701 23.5282C8.99756 23.3255 9.04025 23.1121 9.14268 22.9392C9.38811 22.5209 9.24085 22.2349 8.9186 21.9383C8.59634 21.6438 8.31677 21.3023 8.02226 20.9779C7.74482 20.6728 7.72561 20.4423 7.96037 20.1157C8.34878 19.5715 8.74146 19.0316 9.13842 18.4938C9.39451 18.1459 9.60153 18.0968 10.0027 18.2782C10.5171 18.5087 11.0314 18.7392 11.5351 18.9868C11.6951 19.0657 11.8061 19.0572 11.9299 18.9377C12.0195 18.8502 12.1156 18.7542 12.2287 18.7051C12.8198 18.4468 12.9585 18.0136 12.807 17.4096C12.7131 17.034 12.7046 16.6349 12.6619 16.2465C12.6256 15.9093 12.7857 15.7002 13.1015 15.5978C13.746 15.3886 14.3884 15.1731 15.0351 14.9682C15.4299 14.8423 15.639 14.9276 15.8439 15.2819C16.1235 15.7706 16.4052 16.2593 16.6677 16.7587C16.7573 16.9295 16.8598 16.9785 17.0454 16.9657C17.3549 16.9465 17.6686 16.9423 17.978 16.9657C18.1744 16.9807 18.2619 16.9081 18.3494 16.7459C18.6098 16.2593 18.8851 15.7813 19.1604 15.3011C19.378 14.9191 19.5765 14.8401 19.9884 14.9703C20.6116 15.1688 21.2369 15.3694 21.8579 15.5764C22.2741 15.7151 22.3893 15.888 22.3445 16.3255C22.289 16.8761 22.2186 17.4246 22.146 17.9709C22.1204 18.1609 22.1503 18.2996 22.3402 18.3935C22.4726 18.4596 22.6134 18.5386 22.7073 18.6496C23.0936 19.102 23.4991 19.0423 23.9601 18.767C24.293 18.5685 24.6643 18.4319 25.0207 18.2718C25.4027 18.1011 25.6183 18.1481 25.8616 18.4767C26.2671 19.0231 26.6662 19.5715 27.061 20.1243C27.2829 20.438 27.2659 20.6706 27.0034 20.9609C26.6171 21.3877 26.2265 21.8124 25.8274 22.2264C25.7037 22.3545 25.6823 22.4633 25.757 22.6191C25.8168 22.7429 25.8829 22.8752 25.8957 23.0075C25.9534 23.6499 26.3439 23.8761 26.9372 23.9231C27.3128 23.9529 27.6842 24.0575 28.0555 24.1365C28.4354 24.2176 28.5762 24.3904 28.5805 24.7874C28.5848 25.4554 28.5848 26.1234 28.5805 26.7935C28.5784 27.2075 28.4396 27.3804 28.0406 27.4657C27.4899 27.581 26.9372 27.7005 26.3823 27.7987C26.1988 27.8307 26.0899 27.8926 26.0622 28.0868C26.0451 28.2106 26.0152 28.3429 25.9512 28.4474C25.6076 29.0237 25.7848 29.4612 26.2777 29.8496C26.4741 30.0054 26.6299 30.2124 26.7921 30.4087C27.0012 30.6606 26.9841 30.9807 26.7665 31.1834C26.5424 31.3926 26.2244 31.3968 25.9939 31.1557C25.5308 30.6755 25.0826 30.1782 24.6302 29.6853C24.4637 29.5038 24.436 29.2862 24.5299 29.0728C24.7881 28.4923 24.9823 27.8926 25.1189 27.2737C25.1744 27.0218 25.3387 26.881 25.5884 26.8298C26.1305 26.7209 26.6683 26.5993 27.2125 26.5054C27.411 26.4712 27.4899 26.4115 27.4771 26.2023C27.4537 25.8587 27.5732 25.4383 27.4131 25.1929C27.2616 24.9624 26.8027 25.02 26.4784 24.9517C26.186 24.8898 25.8936 24.8237 25.5991 24.7682C25.3323 24.717 25.168 24.5676 25.1104 24.3008C24.9823 23.7032 24.7945 23.1249 24.5427 22.5657C24.4189 22.2926 24.4765 22.0578 24.6835 21.8401C25.057 21.4474 25.4156 21.042 25.7912 20.6514C25.9171 20.5212 25.9406 20.4273 25.8168 20.2801C25.597 20.0133 25.454 19.595 25.1808 19.4904C24.9034 19.3816 24.5406 19.6782 24.2588 19.8554C23.4906 20.3377 22.8183 20.3889 22.1716 19.6398C21.9625 19.3965 21.6338 19.2493 21.3479 19.0807C21.0512 18.9057 20.9402 18.6709 20.9915 18.3316C21.0662 17.8194 21.111 17.3029 21.1814 16.7886C21.207 16.5987 21.1707 16.4941 20.9616 16.445C20.7055 16.3853 20.4558 16.2935 20.2082 16.1974C20.0183 16.1228 19.9265 16.1846 19.8348 16.3575C19.5872 16.8249 19.314 17.2795 19.0622 17.7447C18.9064 18.0349 18.6759 18.1566 18.3537 18.1139C17.7902 18.0392 17.229 18.0371 16.6655 18.116C16.339 18.1609 16.1149 18.0307 15.9591 17.7426C15.703 17.2667 15.4256 16.8014 15.1695 16.3255C15.0906 16.1804 15.0073 16.1121 14.8473 16.1932C14.828 16.2038 14.8024 16.206 14.7811 16.2167C14.4759 16.3447 14.0405 16.3234 13.8762 16.5752C13.7119 16.8313 13.9146 17.2176 13.9296 17.5505C13.9402 17.7788 13.9637 18.0115 14.0149 18.2356C14.1088 18.6432 13.9808 18.9206 13.6116 19.1212C13.1442 19.3731 12.7195 19.6932 12.3354 20.0603C12.075 20.3078 11.804 20.3356 11.4838 20.1819C11.0079 19.9493 10.5213 19.7423 10.0476 19.5096C9.89177 19.4328 9.8064 19.4456 9.70823 19.5929C9.51829 19.881 9.1747 20.1413 9.14268 20.4401C9.11067 20.7538 9.5439 20.9523 9.75732 21.217C9.93872 21.441 10.1415 21.6459 10.3399 21.8551C10.547 22.0706 10.5982 22.3054 10.4744 22.5807C10.229 23.1292 10.039 23.6947 9.91738 24.2816C9.85976 24.5633 9.69543 24.7234 9.41585 24.7789C8.86311 24.8877 8.3125 25.0093 7.75762 25.1096C7.60183 25.1374 7.54207 25.1907 7.54634 25.3508C7.55701 25.6496 7.55915 25.9505 7.54634 26.2493C7.53781 26.4307 7.61464 26.4755 7.7811 26.5054C8.32531 26.6014 8.86311 26.7273 9.40518 26.8319C9.68689 26.8853 9.84909 27.041 9.91525 27.3206C9.99421 27.6557 10.0966 27.9865 10.1841 28.3194C10.2716 28.663 10.1287 28.9511 9.83415 29.0429C9.53964 29.1346 9.2622 28.9788 9.13201 28.6459C9.12775 28.6353 9.12348 28.6246 9.12348 28.6118C9.07012 27.9353 8.63903 27.7197 8.02866 27.6728C7.67653 27.645 7.32866 27.5447 6.97866 27.47C6.59238 27.3868 6.44939 27.216 6.44299 26.8298C6.43659 26.4776 6.43872 26.1319 6.44085 25.7862Z" fill="black"/>
<path d="M17.2226 20.2676C20.3961 20.2761 22.7821 22.4828 23.0275 25.3703C23.2644 28.1554 21.2903 30.7249 18.5074 31.2435C18.215 31.299 17.9119 31.3203 17.6153 31.3289C17.2119 31.3417 16.9601 31.124 16.9558 30.7868C16.9516 30.4496 17.1927 30.2404 17.6025 30.2255C19.6982 30.1465 21.3906 28.7401 21.8409 26.7106C22.3659 24.3395 20.7546 21.9087 18.3622 21.4542C15.8952 20.9847 13.5071 22.66 13.14 25.1078C12.9735 26.2154 13.1955 27.2334 13.7781 28.1831C14.0022 28.5459 13.9744 28.8511 13.7098 29.0411C13.4324 29.2438 13.0888 29.1478 12.8647 28.8042C11.5629 26.8194 11.6994 24.1581 13.2083 22.3249C14.3202 20.9761 15.7671 20.306 17.2226 20.2676Z" fill="black"/>
<path d="M7.00428 12.5263C8.06282 12.5263 9.12136 12.5242 10.1799 12.5263C10.6153 12.5263 10.8671 12.7334 10.865 13.0812C10.8628 13.4269 10.611 13.6318 10.1756 13.6318C8.04788 13.634 5.918 13.634 3.79026 13.6318C3.37623 13.6318 3.13294 13.4291 3.12441 13.094C3.11373 12.7483 3.36983 12.5285 3.79666 12.5263C4.86373 12.5242 5.93508 12.5263 7.00428 12.5263Z" fill="black"/>
<path d="M5.33753 15.8431C4.80826 15.8431 4.27899 15.8473 3.75186 15.8431C3.37198 15.8388 3.13082 15.6275 3.12228 15.3031C3.11375 14.9659 3.36131 14.7397 3.75826 14.7376C4.80399 14.7333 5.85186 14.7333 6.89759 14.7376C7.30308 14.7397 7.54637 14.9553 7.54424 15.2925C7.5421 15.6275 7.29667 15.8388 6.88905 15.8431C6.37259 15.8452 5.85613 15.8431 5.33753 15.8431Z" fill="black"/>
<path d="M4.2256 6.44357C4.22347 6.74022 3.97591 6.98778 3.67926 6.99205C3.38048 6.99418 3.13079 6.75089 3.12438 6.45425C3.11798 6.14053 3.37621 5.88229 3.6878 5.89083C3.98445 5.89296 4.22774 6.14479 4.2256 6.44357Z" fill="black"/>
<path d="M5.88813 5.88672C6.18691 5.88885 6.43448 6.13428 6.43661 6.43093C6.44088 6.74251 6.17624 7.00074 5.86466 6.99007C5.56588 6.9794 5.32685 6.72544 5.33326 6.42666C5.34179 6.13001 5.59149 5.88672 5.88813 5.88672Z" fill="black"/>
<path d="M8.65183 6.43094C8.65609 6.72758 8.41493 6.98155 8.11615 6.99009C7.81951 6.99862 7.56128 6.7596 7.54634 6.46295C7.5314 6.1535 7.7875 5.8846 8.09908 5.88673C8.39786 5.88673 8.64542 6.13216 8.65183 6.43094Z" fill="black"/>
</svg>
